# This file uses centimeters as units for non-parametric coordinates.

v -51.817993 14.269914 -4.891357
v -51.466187 9.362016 -4.907959
v 4.450195 9.343400 51.770508
v 4.412415 14.251298 52.131836
v -51.594879 10.083611 43.847412
v -52.389130 14.885230 44.657715
v -46.555725 14.829866 50.921631
v -45.761475 10.028278 50.111328
v 18.935364 11.113256 12.728516
v 0.456421 19.467335 5.732910
v -5.016418 19.472137 -0.130127
v -11.453918 11.118031 -17.584229
v -11.679443 10.391090 -17.365967
v -5.267090 16.818203 0.112305
v 0.205750 16.813427 5.975342
v 18.710632 10.386314 12.945557
v -13.746033 11.358820 -16.505371
v -7.150452 21.345892 1.564453
v -1.308838 21.340574 7.797852
v 17.848328 11.353586 15.017090
v 17.998718 9.919549 14.926758
v -1.142090 16.105415 7.697021
v -6.983704 16.110706 1.463867
v -13.595764 9.924782 -16.595459
v -50.560913 16.321276 -5.022217
v -50.908569 18.337917 42.740967
v -44.682129 18.281096 49.401123
v 4.717529 16.300737 50.894531
v 4.772644 7.349900 50.361816
v -43.360413 9.501008 48.049072
v -49.586365 9.557847 41.389160
v -50.046753 7.370408 -5.046875
v -46.652100 18.975576 39.048096
v -46.270203 16.514299 -6.435059
v -47.598267 7.563401 -5.159668
v -47.172668 10.195432 38.996338
v -40.946228 10.138562 45.655762
v 5.035278 7.542832 47.927002
v 6.822388 16.493761 47.159424
v -40.425720 18.918665 45.708252
v -44.355530 17.046822 36.622803
v -44.160828 14.363755 -7.610596
v -45.820923 8.776322 -6.315430
v -45.514954 11.532227 37.301270
v -39.288757 11.475341 43.960938
v 6.113464 8.755662 46.117676
v 7.936157 14.343217 44.921387
v -38.129089 16.990040 43.282471
v -53.915833 7.738694 26.777344
v -52.337524 6.420093 25.517822
v -50.153442 6.730824 24.297119
v -48.506531 7.978702 22.860352
v -8.838013 16.216717 -6.744629
v -7.052124 16.913189 -7.808594
v -6.879883 18.704597 -7.988770
v -9.130188 19.710876 -6.549561
v -47.036865 13.552262 21.773193
v -49.110779 15.646590 23.519287
v -53.137299 15.335812 26.040283
v -54.416870 12.624022 27.098633
v -27.919128 12.520319 54.103271
v -27.022034 15.099285 52.843994
v -24.107666 15.394836 49.375244
v -22.540344 13.293696 47.195313
v 9.560242 19.185390 11.380859
v 10.978333 18.358887 9.166992
v 10.800964 16.790030 9.349854
v 9.833923 16.129652 11.199219
v -24.092529 7.718058 48.242432
v -25.383972 6.476103 49.945557
v -26.456116 6.180627 52.114502
v -27.577942 7.632963 53.641357
vt 0.398994 0.302792
vt 0.398994 0.302630
vt 0.398994 0.302646
vt 0.398994 0.302773
vt 0.398994 0.302751
vt 0.398994 0.302736
vt 0.398994 0.302717
vt 0.398994 0.302732
vt 0.398994 0.302683
vt 0.398994 0.302849
vt 0.398994 0.302829
vt 0.398994 0.302698
vt 0.398994 0.302569
vt 0.398994 0.302583
vt 0.398994 0.302600
vt 0.398994 0.302586
vt 0.398994 0.302927
vt 0.398994 0.302783
vt 0.398994 0.302766
vt 0.398994 0.302909
vt 0.398994 0.302828
vt 0.398994 0.302967
vt 0.398994 0.302893
vt 0.398994 0.303035
vt 0.398994 0.328872
vt 0.398994 0.328808
vt 0.398994 0.328739
vt 0.398994 0.328801
vt 0.398994 0.353722
vt 0.398994 0.353739
vt 0.398994 0.353668
vt 0.398994 0.353652
vt 0.398994 0.328825
vt 0.398994 0.328934
vt 0.398994 0.328858
vt 0.398994 0.328754
vt 0.398994 0.302834
vt 0.398994 0.303011
vt 0.398994 0.302930
vt 0.398994 0.302759
vt 0.398994 0.302905
vt 0.398994 0.302828
vt 0.398994 0.302886
vt 0.398994 0.302811
vt 0.398994 0.302944
vt 0.398994 0.302868
vt 0.398994 0.302772
vt 0.398994 0.302701
vt 0.398994 0.302709
vt 0.398994 0.302726
vt 0.398994 0.328732
vt 0.398994 0.328794
vt 0.398994 0.302695
vt 0.398994 0.302861
vt 0.398994 0.302804
vt 0.398994 0.302821
vt 0.398994 0.302923
vt 0.398994 0.302752
vt 0.398994 0.328852
vt 0.398994 0.328748
vt 0.398994 0.353661
vt 0.398994 0.353646
vt 0.398994 0.328669
vt 0.398994 0.328730
vt 0.398994 0.328783
vt 0.398994 0.328683
vt 0.398994 0.353597
vt 0.398994 0.353582
vt 0.398994 0.302935
vt 0.398994 0.302913
vt 0.398994 0.302837
vt 0.398994 0.302830
vt 0.398994 0.302761
vt 0.398994 0.302743
vt 0.398994 0.302613
vt 0.398994 0.302597
vt 0.398994 0.328697
vt 0.398994 0.328761
vt 0.398994 0.328767
vt 0.398994 0.328837
vt 0.398994 0.302737
vt 0.398994 0.302794
vt 0.398994 0.302846
vt 0.398994 0.328888
vt 0.398994 0.302788
vt 0.398994 0.328814
vt 0.398994 0.328807
vt 0.398994 0.302640
vt 0.398994 0.328740
vt 0.398994 0.302656
vt 0.398994 0.302787
vt 0.398994 0.302807
vt 0.398994 0.302879
vt 0.398994 0.302886
vt 0.398994 0.302966
vt 0.398994 0.302989
vn -0.400169 -0.040368 -0.915552
vn -0.400169 -0.040368 -0.915552
vn -0.400169 -0.040368 -0.915552
vn -0.400169 -0.040368 -0.915552
vn 0.226169 -0.950662 -0.212344
vn 0.226169 -0.950662 -0.212344
vn 0.226169 -0.950662 -0.212344
vn 0.226169 -0.950662 -0.212344
vn 0.921679 -0.008966 0.387849
vn 0.921679 -0.008966 0.387849
vn 0.921679 -0.008966 0.387849
vn 0.921679 -0.008966 0.387849
vn 0.415867 0.822364 -0.388295
vn 0.415867 0.822363 -0.388295
vn 0.415867 0.822363 -0.388295
vn 0.415867 0.822363 -0.388295
vn -0.713246 -0.229731 0.662196
vn -0.713246 -0.229731 0.662196
vn -0.713246 -0.229731 0.662196
vn -0.713246 -0.229731 0.662196
vn 0.320285 -0.943587 -0.084026
vn 0.394642 -0.903672 0.166239
vn 0.401434 -0.895043 0.194289
vn 0.320285 -0.943587 -0.084026
vn 0.048563 0.859551 -0.508738
vn 0.162825 0.885874 -0.434413
vn 0.412878 0.880788 -0.231828
vn 0.412878 0.880788 -0.231828
vn -0.978735 -0.147521 0.142531
vn -0.978735 -0.147521 0.142531
vn -0.994101 -0.108442 0.002129
vn -0.994453 -0.104568 -0.011349
vn 0.257829 0.892099 -0.371057
vn 0.425209 0.888954 -0.170173
vn 0.499753 0.863891 -0.062757
vn 0.257829 0.892099 -0.371057
vn -0.170123 -0.910635 -0.376566
vn -0.164621 -0.912178 -0.375275
vn 0.096073 -0.948693 -0.301251
vn 0.096073 -0.948693 -0.301251
vn -0.022908 -0.104984 0.994210
vn -0.038186 -0.109108 0.993296
vn -0.195836 -0.150194 0.969067
vn -0.195836 -0.150194 0.969067
vn -0.094044 0.995364 -0.020141
vn -0.152048 0.985211 -0.078997
vn -0.226984 0.961350 -0.155833
vn -0.226984 0.961350 -0.155833
vn -0.078119 0.993606 0.081516
vn -0.078119 0.993606 0.081516
vn -0.078119 0.993606 0.081516
vn -0.078119 0.993606 0.081516
vn 0.134492 0.956393 0.259277
vn 0.075299 0.979968 0.184372
vn 0.009166 0.994977 0.099685
vn 0.134492 0.956393 0.259277
vn 0.931983 -0.085548 0.352264
vn 0.931983 -0.085548 0.352264
vn 0.931983 -0.085548 0.352264
vn 0.931983 -0.085548 0.352264
vn -0.019275 -0.987163 -0.158551
vn -0.054062 -0.977997 -0.201494
vn -0.128650 -0.947689 -0.292123
vn -0.128650 -0.947689 -0.292123
vn 0.130408 -0.982859 -0.130311
vn 0.130408 -0.982859 -0.130311
vn 0.130408 -0.982860 -0.130311
vn 0.130408 -0.982860 -0.130311
vn 0.308104 -0.940194 0.145286
vn 0.216099 -0.973862 0.069960
vn 0.159627 -0.986873 0.024503
vn 0.308104 -0.940194 0.145286
vn -0.217249 -0.058199 -0.974380
vn -0.217249 -0.058199 -0.974380
vn -0.217249 -0.058199 -0.974380
vn -0.217249 -0.058199 -0.974380
vn -0.903111 0.426868 0.046624
vn -0.903111 0.426868 0.046624
vn -0.893788 0.448125 -0.018090
vn -0.896774 0.442490 -0.000300
vn -0.597891 0.570710 0.562864
vn -0.597891 0.570710 0.562864
vn -0.597891 0.570710 0.562864
vn -0.597891 0.570710 0.562864
vn -0.034253 0.460377 0.887062
vn -0.015740 0.462674 0.886389
vn -0.093539 0.451929 0.887137
vn -0.093539 0.451929 0.887137
vn 0.973013 -0.008354 0.230598
vn 0.973013 -0.008354 0.230598
vn 0.973013 -0.008354 0.230598
vn 0.973013 -0.008354 0.230598
vn -0.216306 -0.929055 0.300114
vn -0.216306 -0.929055 0.300114
vn 0.003758 -0.727757 0.685825
vn -0.080103 -0.825629 0.558498
vn -0.124864 -0.986284 0.107951
vn -0.124864 -0.986284 0.107951
vn -0.124864 -0.986284 0.107951
vn -0.124864 -0.986284 0.107951
vn -0.531602 -0.844282 0.067723
vn -0.680747 -0.731997 -0.027647
vn -0.276991 -0.940018 0.199103
vn -0.276991 -0.940018 0.199103
vn -0.100212 -0.003300 -0.994961
vn -0.100212 -0.003300 -0.994961
vn -0.100212 -0.003300 -0.994961
vn -0.100212 -0.003300 -0.994961
vn 0.702976 0.711009 0.017063
vn 0.627998 0.771032 -0.105493
vn 0.500264 0.822872 -0.269477
vn 0.500264 0.822872 -0.269477
vn -0.521580 -0.043457 -0.852095
vn -0.521580 -0.043457 -0.852095
vn -0.521580 -0.043457 -0.852095
vn -0.521580 -0.043457 -0.852095
vn 0.645043 -0.762415 0.051417
vn 0.625943 -0.778683 0.042986
vn 0.611290 -0.790559 0.036625
vn 0.645042 -0.762415 0.051417
vn 0.355202 -0.870947 -0.339533
vn 0.355202 -0.870947 -0.339533
vn 0.355202 -0.870947 -0.339533
vn 0.355202 -0.870947 -0.339533
vn -0.013434 -0.808154 -0.588818
vn -0.015442 -0.801015 -0.598445
vn -0.018886 -0.788478 -0.614772
vn -0.018886 -0.788478 -0.614772
vn 0.855511 -0.145284 0.496985
vn 0.855511 -0.145284 0.496985
vn 0.855511 -0.145284 0.496985
vn 0.855511 -0.145284 0.496985
vn 0.299861 0.828352 -0.473198
vn 0.121840 0.785689 -0.606505
vn 0.013189 0.741351 -0.670988
vn 0.299861 0.828352 -0.473198
vn 0.369633 0.865449 -0.338186
vn 0.369633 0.865449 -0.338186
vn 0.369633 0.865449 -0.338186
vn 0.369633 0.865449 -0.338186
vn -0.207121 0.956448 -0.205689
vn -0.233529 0.966232 -0.108906
vn -0.266047 0.950857 -0.158399
vn -0.266047 0.950857 -0.158399
vn -0.293946 -0.099939 -0.950583
vn -0.293946 -0.099939 -0.950583
vn -0.293946 -0.099939 -0.950583
vn -0.293946 -0.099939 -0.950583
vn 0.238724 -0.966330 0.096011
vn 0.223232 -0.968831 0.107399
vn 0.211177 -0.970517 0.116190
vn 0.238724 -0.966330 0.096011
vn 0.061229 -0.996189 -0.062115
vn 0.061229 -0.996189 -0.062115
vn 0.061229 -0.996189 -0.062115
vn 0.061229 -0.996189 -0.062115
vn -0.100972 -0.968993 -0.225517
vn -0.083351 -0.969057 -0.232338
vn -0.067260 -0.968814 -0.238484
vn -0.067260 -0.968814 -0.238484
vn 0.926886 -0.167876 0.335709
vn 0.926886 -0.167876 0.335709
vn 0.926886 -0.167876 0.335709
vn 0.926886 -0.167876 0.335709
vn 0.135149 0.953982 0.267682
vn 0.097755 0.966182 0.238615
vn 0.187040 0.957543 0.219382
vn 0.135149 0.953982 0.267682
vn -0.059122 0.996438 0.060138
vn -0.059122 0.996438 0.060138
vn -0.059122 0.996438 0.060138
vn -0.059122 0.996438 0.060138
vn 0.520677 -0.132077 -0.843476
vn 0.287640 -0.143488 -0.946929
vn 0.279444 -0.157062 -0.947229
vn 0.521832 -0.132091 -0.842759
vn 0.520677 -0.132077 -0.843476
vn 0.521832 -0.132091 -0.842759
vn 0.862661 -0.126886 -0.489608
vn 0.865149 -0.126737 -0.485238
vn 0.865149 -0.126737 -0.485238
vn 0.862661 -0.126886 -0.489608
vn 0.952663 -0.154317 -0.261952
vn 0.958461 -0.140824 -0.248037
vn -0.756062 -0.649035 -0.084408
vn -0.756062 -0.649035 -0.084408
vn -0.680747 -0.731997 -0.027647
vn -0.531602 -0.844282 0.067723
vn 0.159627 -0.986873 0.024503
vn 0.216099 -0.973862 0.069960
vn 0.102010 -0.994555 -0.021307
vn 0.102010 -0.994555 -0.021307
vn 0.611290 -0.790559 0.036625
vn 0.625943 -0.778683 0.042986
vn 0.598796 -0.800291 0.031271
vn 0.598796 -0.800291 0.031272
vn 0.211177 -0.970517 0.116190
vn 0.223232 -0.968831 0.107399
vn 0.197060 -0.972208 0.126408
vn 0.197060 -0.972208 0.126408
vn 0.401434 -0.895043 0.194289
vn 0.394642 -0.903672 0.166239
vn 0.431706 -0.834562 0.342253
vn 0.431706 -0.834562 0.342253
vn 0.958461 -0.140824 -0.248037
vn 0.952663 -0.154317 -0.261952
vn 0.932414 -0.195374 -0.304029
vn 0.932414 -0.195374 -0.304029
vn -0.111911 0.795325 -0.595764
vn 0.162825 0.885874 -0.434413
vn 0.048563 0.859551 -0.508738
vn -0.111911 0.795325 -0.595764
vn -0.149370 0.987708 -0.046053
vn -0.233529 0.966232 -0.108906
vn -0.207121 0.956448 -0.205689
vn 0.739672 0.666905 0.090132
vn 0.627998 0.771032 -0.105493
vn 0.702976 0.711009 0.017063
vn 0.739672 0.666905 0.090132
vn -0.048161 0.998500 0.026050
vn -0.152048 0.985211 -0.078997
vn -0.094044 0.995364 -0.020141
vn -0.048161 0.998500 0.026050
vn -0.896774 0.442490 -0.000300
vn -0.893788 0.448125 -0.018090
vn -0.886861 0.458912 -0.053641
vn -0.886861 0.458912 -0.053641
vn -0.994453 -0.104568 -0.011349
vn -0.994101 -0.108442 0.002129
vn -0.993034 -0.083613 -0.083026
vn -0.993034 -0.083613 -0.083026
vn 0.032631 0.467911 0.883173
vn 0.032631 0.467911 0.883173
vn -0.015740 0.462674 0.886389
vn -0.034253 0.460377 0.887062
vn 0.009166 0.994977 0.099685
vn 0.075299 0.979968 0.184372
vn -0.033710 0.998453 0.044229
vn -0.033710 0.998452 0.044229
vn 0.013189 0.741351 -0.670988
vn 0.121840 0.785689 -0.606505
vn -0.076595 0.694790 -0.715122
vn -0.076595 0.694790 -0.715122
vn 0.187040 0.957543 0.219382
vn 0.025554 0.989240 0.144052
vn 0.647067 0.749554 0.139544
vn 0.499753 0.863891 -0.062757
vn 0.425209 0.888954 -0.170173
vn 0.628819 0.758719 0.170095
vn 0.628819 0.758719 0.170095
vn 0.279444 -0.157062 -0.947229
vn 0.287640 -0.143488 -0.946929
vn 0.247710 -0.208203 -0.946198
vn 0.247710 -0.208203 -0.946198
vn -0.431867 -0.796278 -0.423594
vn -0.164621 -0.912178 -0.375275
vn -0.170123 -0.910635 -0.376566
vn -0.431867 -0.796278 -0.423594
vn -0.121470 -0.968481 -0.217464
vn -0.083351 -0.969057 -0.232338
vn -0.100972 -0.968993 -0.225517
vn -0.121470 -0.968481 -0.217464
vn -0.011167 -0.816059 -0.577861
vn -0.015442 -0.801015 -0.598445
vn -0.013434 -0.808154 -0.588818
vn -0.011167 -0.816059 -0.577861
vn 0.030162 -0.994847 -0.096797
vn -0.054062 -0.977997 -0.201494
vn -0.019275 -0.987163 -0.158551
vn 0.030162 -0.994847 -0.096797
vn -0.080103 -0.825629 0.558498
vn 0.003758 -0.727757 0.685825
vn 0.072970 -0.628865 0.774083
vn 0.072970 -0.628865 0.774083
vn 0.063720 -0.081131 0.994664
vn -0.038186 -0.109108 0.993296
vn -0.022908 -0.104984 0.994210
vn 0.063720 -0.081131 0.994665
vn -0.149370 0.987708 -0.046053
vn -0.207121 0.956448 -0.205689
vn -0.101273 0.784797 -0.611423
vn 0.187040 0.957543 0.219382
vn 0.097755 0.966182 0.238615
vn 0.025554 0.989240 0.144052
s off
f 24/1/1 17/2/2 12/3/3 13/4/4
f 22/5/5 23/6/6 14/7/7 15/8/8
f 20/9/9 21/10/10 16/11/11 9/12/12
f 18/13/13 19/14/14 10/15/15 11/16/16
f 8/17/17 7/18/18 6/19/19 5/20/20
f 23/6/21 53/73/22 54/74/23 14/7/24
f 55/75/25 56/76/26 18/13/27 11/16/28
f 5/20/29 6/19/30 60/82/31 49/69/32
f 19/14/33 65/88/34 66/90/35 10/15/36
f 67/91/37 68/92/38 22/5/39 15/8/40
f 72/96/41 61/83/42 7/18/43 8/17/44
f 58/79/45 59/80/46 26/26/47 33/27/48
f 26/29/49 27/30/50 40/31/51 33/32/52
f 27/33/53 62/84/54 63/86/55 40/36/56
f 28/37/57 29/38/58 38/39/59 39/40/60
f 70/94/61 71/95/62 30/41/63 37/42/64
f 30/41/65 31/43/66 36/44/67 37/42/68
f 31/43/69 50/70/70 51/71/71 36/44/72
f 32/45/73 25/47/74 34/48/75 35/46/76
f 6/19/77 26/49/78 59/81/79 60/82/80
f 7/18/81 27/50/82 26/49/83 6/19/84
f 61/83/85 62/85/86 27/50/87 7/18/88
f 3/24/89 29/38/90 28/37/91 4/23/92
f 8/17/93 30/41/94 71/95/95 72/96/96
f 5/20/97 31/43/98 30/41/99 8/17/100
f 49/69/101 50/70/102 31/43/103 5/20/104
f 1/21/105 25/47/106 32/45/107 2/22/108
f 57/78/109 58/79/110 33/27/111 41/51/112
f 35/46/113 34/48/114 42/53/115 43/54/116
f 36/44/117 51/71/118 52/72/119 44/55/120
f 37/42/121 36/44/122 44/55/123 45/56/124
f 69/93/125 70/94/126 37/42/127 45/56/128
f 39/40/129 38/39/130 46/57/131 47/58/132
f 40/36/133 63/86/134 64/87/135 48/60/136
f 33/32/137 40/31/138 48/61/139 41/62/140
f 56/77/141 57/78/142 41/51/143 18/63/144
f 43/54/145 42/53/146 17/2/147 24/1/148
f 44/55/149 52/72/150 53/73/151 23/6/152
f 45/56/153 44/55/154 23/6/155 22/5/156
f 68/92/157 69/93/158 45/56/159 22/5/160
f 47/58/161 46/57/162 21/10/163 20/9/164
f 48/60/165 64/87/166 65/89/167 19/66/168
f 41/62/169 48/61/170 19/67/171 18/68/172
f 10/15/173 66/90/174 67/91/175 15/8/176
f 10/15/177 15/8/178 14/7/179 11/16/180
f 11/16/181 14/7/182 54/74/183 55/75/184
f 2/22/185 32/45/186 50/70/187 49/69/188
f 51/71/189 50/70/190 32/45/191 35/46/192
f 52/72/193 51/71/194 35/46/195 43/54/196
f 53/73/197 52/72/198 43/54/199 24/1/200
f 54/74/201 53/73/202 24/1/203 13/4/204
f 55/75/205 54/74/206 13/4/207 12/3/208
f 17/2/209 56/76/210 55/75/211 12/3/212
f 42/52/213 57/78/214 56/77/215
f 34/28/216 58/79/217 57/78/218 42/52/219
f 25/25/220 59/80/221 58/79/222 34/28/223
f 60/82/224 59/81/225 25/47/226 1/21/227
f 49/69/228 60/82/229 1/21/230 2/22/231
f 4/23/232 28/37/233 62/85/234 61/83/235
f 63/86/236 62/84/237 28/34/238 39/35/239
f 64/87/240 63/86/241 39/35/242 47/59/243
f 65/89/244 47/59/245 20/65/246
f 66/90/247 65/88/248 20/9/249 9/12/250
f 67/91/251 66/90/252 9/12/253 16/11/254
f 21/10/255 68/92/256 67/91/257 16/11/258
f 46/57/259 69/93/260 68/92/261 21/10/262
f 38/39/263 70/94/264 69/93/265 46/57/266
f 29/38/267 71/95/268 70/94/269 38/39/270
f 72/96/271 71/95/272 29/38/273 3/24/274
f 4/23/275 61/83/276 72/96/277 3/24/278
f 42/52/279 56/77/280 17/64/281
f 65/89/282 64/87/283 47/59/284
