# This file uses centimeters as units for non-parametric coordinates.

v -14.126139 0.000000 11.081310
v -11.081310 0.000000 14.126139
v -11.567961 101.908875 5.529158
v -5.984511 101.909119 11.189138
v 36.626076 0.000000 11.081310
v 33.581253 0.000000 14.126139
v 34.478519 101.838493 5.414159
v 27.526840 101.842628 12.118821
v -11.626865 101.834030 -28.257977
v -6.082684 101.829903 -33.319122
v -14.126139 0.000000 -33.581276
v -11.081310 0.000000 -36.626099
v 27.809605 101.763412 -33.021774
v 34.566185 101.763657 -29.120689
v 36.626076 0.000000 -33.581276
v 33.581253 0.000000 -36.626099
v 31.104437 103.923355 -11.411098
v -8.459202 103.923355 -11.738554
v 11.197408 103.923355 7.899719
v 9.990503 104.723999 -10.802794
v 10.862740 103.923355 -30.268906
v -14.126139 95.745743 11.081310
v -11.081310 97.206093 14.126139
v 33.581253 97.612625 14.126139
v 36.626076 96.152405 11.081310
v -14.126139 97.326897 -33.581276
v -11.081310 97.811714 -36.626099
v 33.581253 95.494286 -36.626099
v 36.626076 95.568481 -33.581276
v 11.871252 102.020050 10.960688
v 11.249972 98.102577 14.126139
v -11.017336 101.453186 -11.984260
v -14.126139 96.896759 -11.249985
v 10.875928 102.531166 -33.056015
v 11.249972 95.204369 -36.626099
v 34.054626 102.077530 -12.048619
v 36.626076 96.847710 -11.249985
v -14.126139 46.419464 9.312091
v 31.969606 42.091122 14.126139
v -8.945667 56.585014 -36.626099
v 36.626076 63.274765 -31.381098
v -9.469662 44.866207 14.126139
v 36.626076 43.266022 8.881132
v -14.126139 66.428215 -31.812059
v 31.445612 77.689774 -36.626099
v -9.098825 -2.603592 -34.373306
v -11.873343 -2.603592 -31.598791
v 31.598768 -2.603592 -34.373306
v 34.373283 -2.603592 -31.598791
v 34.373283 -2.603592 9.098825
v 31.598768 -2.603592 11.873344
v -9.098825 -2.603592 11.873344
v -11.873343 -2.603592 9.098825
vt 0.499787 0.422406
vt 0.473765 0.330928
vt 0.502518 0.410003
vt 0.468341 0.538890
vt 0.320148 0.617435
vt 0.565953 0.405311
vt 0.580450 0.500653
vt 0.313103 0.332033
vt 0.826986 0.330373
vt 0.592404 0.503236
vt 0.841821 0.330362
vt 0.594476 0.572411
vt 0.420139 0.501980
vt 0.849181 0.489337
vt 0.409774 0.502975
vt 0.823348 0.485037
vt 0.407543 0.432012
vt 0.430167 0.409078
vt 0.494897 0.498188
vt 0.407304 0.568916
vt 0.429769 0.589423
vt 0.651622 0.329189
vt 0.409515 0.602823
vt 0.830960 0.688276
vt 0.397177 0.590486
vt 0.567099 0.588218
vt 0.749240 0.690382
vt 0.490299 0.688992
vt 0.474809 0.690812
vt 0.602823 0.590486
vt 0.494665 0.575065
vt 0.590486 0.602823
vt 0.393855 0.681185
vt 0.498431 0.577064
vt 0.846652 0.682733
vt 0.498484 0.588357
vt 0.666776 0.329863
vt 0.671292 0.495367
vt 0.646496 0.501100
vt 0.488912 0.330021
vt 0.467320 0.321410
vt 0.482060 0.321342
vt 0.320404 0.322418
vt 0.594177 0.679770
vt 0.512383 0.684030
vt 0.820654 0.320814
vt 0.835633 0.320804
vt 0.674181 0.320963
vt 0.587238 0.560459
vt 0.397177 0.409515
vt 0.409515 0.397177
vt 0.590486 0.397177
vt 0.602823 0.409515
vt 0.594121 0.432478
vt 0.500000 0.602823
vt 0.397178 0.500000
vt 0.500000 0.397178
vt 0.602822 0.500000
vt 0.652164 0.682408
vt 0.667845 0.687650
vt 0.312352 0.682748
vt 0.415586 0.574285
vt 0.425715 0.584414
vt 0.425715 0.415586
vt 0.415586 0.425715
vt 0.574285 0.415586
vt 0.574285 0.584414
vt 0.584414 0.574285
vt 0.584414 0.425715
vt 0.570853 0.686728
vt 0.610041 0.679243
vt 0.614636 0.613564
vt 0.439128 0.486748
vt 0.433053 0.327357
vt 0.593273 0.327357
vt 0.608431 0.327357
vt 0.586971 0.317766
vt 0.602162 0.317766
vt 0.440421 0.317766
vt 0.645221 0.319547
vt 0.660775 0.319547
vt 0.496337 0.319547
vt 0.430280 0.681292
vn -0.029808 0.845882 0.532537
vn -0.029808 0.845882 0.532537
vn -0.029808 0.845882 0.532537
vn 0.000000 0.000000 -1.000000
vn 0.000000 0.000000 -1.000000
vn 0.000000 0.000000 -1.000000
vn 0.000000 0.000000 -1.000000
vn 0.530452 0.847715 0.000310
vn 0.530452 0.847715 0.000310
vn 0.530452 0.847715 0.000310
vn -0.692047 0.720715 -0.040510
vn -0.692047 0.720715 -0.040510
vn -0.692047 0.720715 -0.040510
vn -0.073696 0.994549 0.073765
vn -0.073696 0.994549 0.073765
vn -0.073696 0.994549 0.073765
vn -0.073696 0.994549 0.073765
vn 0.000000 -1.000000 0.000000
vn 0.000000 -1.000000 0.000000
vn 0.000000 -1.000000 0.000000
vn 0.000000 -1.000000 0.000000
vn -0.711395 0.026171 0.702304
vn -0.711395 0.026171 0.702304
vn -0.711395 0.026171 0.702304
vn -0.711395 0.026171 0.702304
vn 0.730053 0.031381 0.682670
vn 0.730053 0.031381 0.682670
vn 0.730053 0.031381 0.682670
vn 0.730053 0.031381 0.682670
vn -0.434593 0.800335 -0.413030
vn -0.434593 0.800335 -0.413030
vn -0.434593 0.800335 -0.413030
vn -0.434593 0.800335 -0.413030
vn 0.428450 0.665008 -0.611715
vn 0.428450 0.665008 -0.611715
vn 0.428450 0.665008 -0.611715
vn 0.428450 0.665008 -0.611715
vn -0.096610 0.989594 -0.106636
vn -0.096610 0.989594 -0.106636
vn -0.096610 0.989594 -0.106636
vn 0.069643 0.994985 0.071792
vn 0.069643 0.994985 0.071792
vn 0.069643 0.994985 0.071792
vn 0.069643 0.994985 0.071792
vn 0.070668 0.994612 -0.075854
vn 0.070668 0.994612 -0.075854
vn 0.070668 0.994612 -0.075854
vn 0.070668 0.994612 -0.075854
vn 0.000000 0.000000 1.000000
vn 0.000000 0.000000 1.000000
vn 0.000000 0.000000 1.000000
vn -0.030043 0.894140 -0.446778
vn -0.030043 0.894140 -0.446778
vn -0.030043 0.894140 -0.446778
vn 1.000000 0.000000 0.000000
vn 1.000000 0.000000 0.000000
vn 1.000000 0.000000 0.000000
vn -1.000000 -0.000000 0.000000
vn -1.000000 -0.000000 0.000000
vn -1.000000 -0.000000 0.000000
vn -1.000000 -0.000000 0.000000
vn -0.550050 0.719172 0.424543
vn -0.550050 0.719172 0.424543
vn -0.550050 0.719172 0.424543
vn -0.550050 0.719172 0.424543
vn 0.515730 0.748794 0.416330
vn 0.515730 0.748794 0.416330
vn 0.515730 0.748794 0.416330
vn 0.515730 0.748794 0.416330
vn -0.713874 -0.040350 -0.699111
vn -0.713874 -0.040350 -0.699111
vn -0.713874 -0.040350 -0.699111
vn -0.713874 -0.040350 -0.699111
vn 0.659062 -0.063339 -0.749416
vn 0.659062 -0.063339 -0.749416
vn 0.659062 -0.063339 -0.749416
vn 0.659062 -0.063339 -0.749416
vn 0.030455 0.509027 -0.860212
vn 0.030455 0.509027 -0.860212
vn 0.030455 0.509027 -0.860212
vn 0.030455 0.509027 -0.860212
vn -0.885049 0.465479 -0.004108
vn -0.885049 0.465479 -0.004108
vn -0.885049 0.465479 -0.004108
vn -0.885049 0.465479 -0.004108
vn -0.016610 0.527998 0.849083
vn -0.016610 0.527998 0.849083
vn -0.016610 0.527998 0.849083
vn -0.016610 0.527998 0.849083
vn 0.926389 0.376555 -0.003198
vn 0.926389 0.376555 -0.003198
vn 0.926389 0.376555 -0.003198
vn 0.926389 0.376555 -0.003198
vn -0.099072 0.990273 0.097691
vn -0.099072 0.990273 0.097691
vn -0.099072 0.990273 0.097691
vn 0.099605 0.989717 0.102664
vn 0.099605 0.989717 0.102664
vn 0.099605 0.989717 0.102664
vn 0.062738 0.992090 -0.108723
vn 0.062738 0.992090 -0.108723
vn 0.062738 0.992090 -0.108723
vn -0.072768 0.994458 -0.075876
vn -0.072768 0.994458 -0.075876
vn -0.072768 0.994458 -0.075876
vn -0.072768 0.994458 -0.075876
vn 0.001476 0.849365 0.527805
vn 0.001476 0.849365 0.527805
vn 0.001476 0.849365 0.527805
vn -0.009972 0.582150 0.813020
vn -0.009972 0.582150 0.813020
vn -0.009972 0.582150 0.813020
vn -0.009972 0.582150 0.813020
vn -0.696119 0.716646 0.042844
vn -0.696119 0.716646 0.042844
vn -0.696119 0.716646 0.042844
vn -0.855600 0.517063 0.024371
vn -0.855600 0.517063 0.024371
vn -0.855600 0.517063 0.024371
vn -0.855600 0.517063 0.024371
vn 0.041432 0.893913 -0.446321
vn 0.041432 0.893913 -0.446321
vn 0.041432 0.893913 -0.446321
vn 0.006477 0.468976 -0.883187
vn 0.006477 0.468976 -0.883187
vn 0.006477 0.468976 -0.883187
vn 0.006477 0.468976 -0.883187
vn 0.530207 0.847867 -0.001265
vn 0.530207 0.847867 -0.001265
vn 0.530207 0.847867 -0.001265
vn 0.918000 0.396580 -0.000467
vn 0.918000 0.396580 -0.000467
vn 0.918000 0.396580 -0.000467
vn 0.918000 0.396580 -0.000467
vn 0.000000 0.000000 -1.000000
vn 0.000000 0.000000 -1.000000
vn 0.000000 0.000000 -1.000000
vn -0.714162 -0.024379 0.699555
vn -0.714162 -0.024379 0.699555
vn -0.714162 -0.024379 0.699555
vn -0.714162 -0.024379 0.699555
vn 0.731957 -0.025570 0.680871
vn 0.731957 -0.025570 0.680871
vn 0.731957 -0.025570 0.680871
vn 0.731957 -0.025570 0.680871
vn 0.000000 0.000000 1.000000
vn 0.000000 0.000000 1.000000
vn 0.000000 0.000000 1.000000
vn 0.000000 0.000000 1.000000
vn 1.000000 0.000000 0.000000
vn 1.000000 0.000000 0.000000
vn 1.000000 0.000000 0.000000
vn 1.000000 0.000000 0.000000
vn -1.000000 0.000000 0.000000
vn -1.000000 0.000000 0.000000
vn -1.000000 0.000000 0.000000
vn -1.000000 0.000000 0.000000
vn -0.676546 0.022332 -0.736062
vn -0.676546 0.022332 -0.736062
vn -0.676546 0.022332 -0.736062
vn -0.676546 0.022332 -0.736062
vn 0.726185 0.022015 -0.687147
vn 0.726185 0.022015 -0.687147
vn 0.726185 0.022015 -0.687147
vn 0.726185 0.022015 -0.687147
vn -0.463930 -0.754677 -0.463930
vn -0.463930 -0.754677 -0.463930
vn 0.000000 -1.000000 0.000000
vn 0.000000 -1.000000 0.000000
vn 0.000000 -0.654324 -0.756214
vn 0.000000 -0.654324 -0.756214
vn 0.000000 -1.000000 0.000000
vn 0.000000 -1.000000 0.000000
vn 0.463930 -0.754678 -0.463930
vn 0.463930 -0.754678 -0.463930
vn 0.000000 -1.000000 0.000000
vn 0.000000 -1.000000 0.000000
vn 0.756214 -0.654324 0.000000
vn 0.756214 -0.654324 0.000000
vn 0.000000 -1.000000 0.000000
vn 0.000000 -1.000000 0.000000
vn 0.463930 -0.754677 0.463930
vn 0.463930 -0.754677 0.463930
vn 0.000000 -1.000000 0.000000
vn 0.000000 -1.000000 0.000000
vn 0.000000 -0.654325 0.756214
vn 0.000000 -0.654325 0.756214
vn 0.000000 -1.000000 0.000000
vn 0.000000 -1.000000 0.000000
vn -0.463930 -0.754678 0.463930
vn -0.463930 -0.754678 0.463930
vn 0.000000 -1.000000 0.000000
vn 0.000000 -1.000000 0.000000
vn -0.756214 -0.654325 0.000000
vn -0.756214 -0.654325 0.000000
vn 0.000000 -1.000000 0.000000
vn 0.000000 -1.000000 0.000000
vn 0.000000 -1.000000 0.000000
vn 0.000000 -1.000000 0.000000
vn 0.000000 -1.000000 0.000000
vn 0.000000 -1.000000 0.000000
vn 0.000000 -1.000000 0.000000
vn 0.000000 -1.000000 0.000000
vn 0.000000 -1.000000 0.000000
vn 0.000000 -1.000000 0.000000
vn -1.000000 -0.000000 0.000000
vn -1.000000 -0.000000 0.000000
vn -1.000000 -0.000000 0.000000
vn 0.000000 0.000000 1.000000
vn 0.000000 0.000000 1.000000
vn 0.000000 0.000000 1.000000
vn 0.000000 0.000000 1.000000
vn 1.000000 0.000000 0.000000
vn 1.000000 0.000000 0.000000
vn 1.000000 0.000000 0.000000
vn 1.000000 0.000000 0.000000
vn 0.000000 0.000000 -1.000000
vn 0.000000 0.000000 -1.000000
vn 0.000000 0.000000 -1.000000
vn 0.000000 0.000000 -1.000000
s off
f 19/1/1 30/3/2 8/6/3
f 12/2/4 40/4/5 45/5/6 16/8/7
f 17/7/8 36/10/9 14/12/10
f 18/13/11 32/15/12 3/17/13
f 18/13/14 4/18/15 19/1/16 20/19/17
f 47/62/18 46/63/19 52/64/20 53/65/21
f 1/22/22 2/37/23 42/38/24 38/39/25
f 6/9/26 5/11/27 43/14/28 39/16/29
f 9/20/30 10/21/31 27/23/32 26/25/33
f 13/26/34 14/12/35 29/30/36 28/32/37
f 18/13/38 10/21/39 9/20/40
f 20/19/41 19/1/42 8/6/43 17/7/44
f 21/34/45 20/19/46 17/7/47 13/26/48
f 24/24/49 31/27/50 39/16/51
f 21/34/52 34/36/53 10/21/54
f 29/44/55 37/45/56 41/49/57
f 22/59/58 33/70/59 44/31/60 38/39/61
f 22/50/62 23/51/63 4/18/64 3/17/65
f 24/52/66 25/53/67 7/54/68 8/6/69
f 26/28/70 27/29/71 40/4/72 44/31/73
f 28/71/74 29/44/75 41/49/76 45/72/77
f 34/36/78 35/55/79 27/23/80 10/21/81
f 32/15/82 33/56/83 22/50/84 3/17/85
f 30/3/86 31/57/87 24/52/88 8/6/89
f 36/10/90 37/58/91 29/30/92 14/12/93
f 3/17/94 4/18/95 18/13/96
f 17/7/97 8/6/98 7/54/99
f 13/26/100 17/7/101 14/12/102
f 18/13/103 20/19/104 21/34/105 10/21/106
f 4/18/107 30/3/108 19/1/109
f 4/18/110 23/51/111 31/57/112 30/3/113
f 9/20/114 32/15/115 18/13/116
f 9/20/117 26/25/118 33/56/119 32/15/120
f 13/26/121 34/36/122 21/34/123
f 28/32/124 35/55/125 34/36/126 13/26/127
f 7/54/128 36/10/129 17/7/130
f 7/54/131 25/53/132 37/58/133 36/10/134
f 35/33/135 40/4/136 27/29/137
f 38/39/138 42/38/139 23/60/140 22/59/141
f 39/16/142 43/14/143 25/35/144 24/24/145
f 39/16/146 42/38/147 2/37/148 6/9/149
f 41/49/150 43/73/151 5/74/152 15/75/153
f 38/39/154 44/31/155 11/40/156 1/22/157
f 44/31/158 40/4/159 12/2/160 11/40/161
f 45/72/162 41/49/163 15/75/164 16/76/165
f 11/40/166 12/2/167 46/41/168 47/42/169
f 12/2/170 16/8/171 48/43/172 46/41/173
f 16/76/174 15/75/175 49/77/176 48/78/177
f 15/75/178 5/74/179 50/79/180 49/77/181
f 5/11/182 6/9/183 51/46/184 50/47/185
f 6/9/186 2/37/187 52/48/188 51/46/189
f 2/37/190 1/22/191 53/80/192 52/81/193
f 1/22/194 11/40/195 47/82/196 53/80/197
f 51/66/198 48/67/199 49/68/200 50/69/201
f 52/64/202 46/63/203 48/67/204 51/66/205
f 44/31/206 33/70/207 26/28/208
f 39/16/209 31/27/210 23/60/211 42/38/212
f 41/49/213 37/45/214 25/83/215 43/73/216
f 45/5/217 40/4/218 35/33/219 28/61/220
