# This file uses centimeters as units for non-parametric coordinates.

v 0.000000 68.463501 -249.999023
v 0.000000 5.689815 0.000000
v 250.000000 5.689815 0.000000
v 250.000000 68.463501 -249.999023
v 0.000000 75.148468 -249.999023
v 0.000000 12.374784 0.000000
v 250.000000 12.374784 0.000000
v 250.000000 75.148468 -249.999023
vt 0.998601 0.001493
vt 0.998601 0.998612
vt 0.001412 0.998612
vt 0.001412 0.001493
vt 0.998584 1.038943
vt 0.001489 1.038943
vt 0.001412 0.998612
vt 0.998601 0.998612
vt 0.972431 0.998612
vt 0.998601 0.998612
vt 0.998601 0.001493
vt 0.972431 0.001493
vt 0.001412 0.998612
vt 0.028001 0.998612
vt 0.028001 0.001493
vt 0.001412 0.001493
vt 0.998601 0.001493
vt 0.998601 0.998612
vt 0.001412 0.998612
vt 0.001412 0.001493
vt 0.998584 -0.038886
vt 0.998601 0.001493
vt 0.001412 0.001493
vt 0.001489 -0.038886
vn 0.000000 -0.969892 -0.243536
vn 0.000000 -0.969892 -0.243536
vn 0.000000 -0.969892 -0.243536
vn 0.000000 -0.969892 -0.243536
vn 0.000000 0.000000 -1.000000
vn 0.000000 0.000000 -1.000000
vn 0.000000 0.000000 -1.000000
vn 0.000000 0.000000 -1.000000
vn 1.000000 0.000000 0.000000
vn 1.000000 0.000000 0.000000
vn 1.000000 0.000000 0.000000
vn 1.000000 0.000000 0.000000
vn -1.000000 0.000000 0.000000
vn -1.000000 0.000000 0.000000
vn -1.000000 0.000000 0.000000
vn -1.000000 0.000000 0.000000
vn 0.000000 0.969892 0.243536
vn 0.000000 0.969892 0.243536
vn 0.000000 0.969892 0.243536
vn 0.000000 0.969892 0.243536
vn 0.000000 0.000000 1.000000
vn 0.000000 0.000000 1.000000
vn 0.000000 0.000000 1.000000
vn 0.000000 0.000000 1.000000
s off
f 3/1/1 2/4/2 1/3/3 4/2/4
f 4/5/5 1/6/6 5/7/7 8/8/8
f 4/9/9 8/10/10 7/11/11 3/12/12
f 5/13/13 1/14/14 2/15/15 6/16/16
f 7/17/17 8/18/18 5/19/19 6/20/20
f 3/21/21 7/22/22 6/23/23 2/24/24
