# This file uses centimeters as units for non-parametric coordinates.

v 4.037448 115.076309 -124.999512
v 746.843689 115.076309 -124.999512
v 0.000000 110.893051 -124.999512
v 750.000000 97.006668 -124.999512
v 750.000000 110.893051 -124.999512
v 750.000000 95.199738 -62.499756
v 0.000000 95.199631 -62.499756
v 746.843689 100.385544 -65.740486
v 5.737196 100.385544 -65.740486
v 750.000000 95.199738 -187.499268
v 0.000000 95.199631 -187.499268
v 746.843689 100.385544 -184.258545
v 4.037448 100.385544 -184.258545
v 0.000000 81.313248 -62.499756
v 750.000000 81.313248 -62.499756
v 750.000000 81.313248 -187.499268
v 0.000000 81.313248 -187.499268
v 0.000000 97.006668 -124.999512
v 189.463684 95.199661 -187.499268
v 375.000000 95.199684 -187.499268
v 560.536316 95.199707 -187.499268
v 189.703827 81.313248 -187.499268
v 375.000000 81.313248 -187.499268
v 560.296204 81.313248 -187.499268
v 189.703827 97.006668 -124.999512
v 375.000000 97.006668 -124.999512
v 560.296204 97.006668 -124.999512
v 189.703827 81.313248 -62.499756
v 375.000000 81.313248 -62.499756
v 560.296204 81.313248 -62.499756
v 189.463684 95.199661 -62.499756
v 375.000000 95.199684 -62.499756
v 560.536316 95.199707 -62.499756
v 188.938202 110.927368 -124.999512
v 375.001221 110.903000 -124.999512
v 561.069763 110.893295 -124.999512
v 380.295410 115.266022 -127.598335
v 370.624268 115.076309 -124.999512
v 370.624329 100.385544 -184.258545
v 380.256897 100.385544 -184.258545
v 184.941284 115.076309 -127.820412
v 194.573914 115.076309 -123.878349
v 185.087952 100.385544 -184.258545
v 197.189392 100.385544 -184.258545
v 565.939819 115.076309 -124.999512
v 556.268677 114.886589 -122.400688
v 565.793213 100.385544 -184.258545
v 552.284485 100.385544 -184.258545
v 185.087952 100.385544 -65.740486
v 196.766449 100.385544 -65.740486
v 570.721680 100.385544 -65.740486
v 556.160645 100.385544 -65.740486
v 365.684418 100.385544 -65.740486
v 380.256897 100.385544 -65.740486
vt 0.970724 0.967335
vt 0.970671 0.967421
vt 0.970724 0.967321
vt 0.970722 0.967917
vt 0.970686 0.967853
vt 0.970686 0.967856
vt 0.970726 0.967916
vt 0.970698 0.967808
vt 0.970658 0.967349
vt 0.970678 0.967372
vt 0.970719 0.967810
vt 0.970727 0.967799
vt 0.970660 0.967626
vt 0.970736 0.967776
vt 0.970642 0.967527
vt 0.970676 0.967366
vt 0.970700 0.967867
vt 0.970712 0.967919
vt 0.970709 0.967844
vt 0.970703 0.967384
vt 0.970671 0.967347
vt 0.970673 0.967354
vt 0.970668 0.967352
vt 0.970694 0.967820
vt 0.970663 0.967478
vt 0.970718 0.967822
vt 0.970683 0.967431
vt 0.970677 0.967723
vt 0.970674 0.967360
vt 0.970669 0.967590
vt 0.970710 0.967825
vt 0.970699 0.967815
vt 0.970695 0.967825
vt 0.970726 0.967916
vt 0.970684 0.967870
vt 0.970693 0.967855
vt 0.970689 0.967844
vt 0.970692 0.967834
vt 0.970701 0.967840
vt 0.970650 0.967354
vt 0.970648 0.967356
vt 0.970677 0.967371
vt 0.970675 0.967366
vt 0.970724 0.967321
vt 0.970655 0.967348
vt 0.970670 0.967357
vt 0.970724 0.967325
vt 0.970672 0.967361
vt 0.970652 0.967352
vt 0.970653 0.967350
vt 0.955926 0.970869
vt 0.955966 0.970928
vt 0.955926 0.970869
vt 0.955966 0.970928
vt 0.955926 0.970869
vt 0.955966 0.970928
vt 0.955926 0.970869
vt 0.955966 0.970928
vt 0.955966 0.970928
vt 0.955926 0.970869
vt 0.955964 0.970333
vt 0.955964 0.970333
vt 0.955897 0.970360
vt 0.955897 0.970360
vt 0.955964 0.970333
vt 0.955897 0.970360
vt 0.955897 0.970360
vt 0.955964 0.970333
vt 0.955897 0.970360
vt 0.955964 0.970333
vt 0.955966 0.970928
vt 0.955926 0.970869
vt 0.955966 0.970928
vt 0.955926 0.970869
vt 0.955966 0.970928
vt 0.955926 0.970869
vt 0.955897 0.970360
vt 0.955964 0.970333
vt 0.955897 0.970360
vt 0.955964 0.970333
vt 0.955897 0.970360
vt 0.955964 0.970333
vt 0.970692 0.967834
vt 0.970696 0.967825
vt 0.970689 0.967843
vt 0.970650 0.967354
vt 0.970653 0.967350
vt 0.970652 0.967352
vt 0.955967 0.970931
vt 0.955923 0.970865
vt 0.955967 0.970931
vt 0.955922 0.970865
vt 0.955967 0.970931
vt 0.955923 0.970865
vt 0.955892 0.970362
vt 0.955966 0.970332
vt 0.955892 0.970362
vt 0.955966 0.970332
vt 0.955893 0.970362
vt 0.955967 0.970333
vn -0.717002 0.676331 -0.168774
vn -0.717002 0.676331 -0.168774
vn -0.717002 0.676331 -0.168774
vn -0.717002 0.676331 -0.168774
vn -1.000000 0.000000 -0.000000
vn -1.000000 0.000000 -0.000000
vn -1.000000 0.000000 -0.000000
vn -1.000000 0.000000 -0.000000
vn 1.000000 0.000000 0.000000
vn 1.000000 0.000000 0.000000
vn 1.000000 0.000000 0.000000
vn 1.000000 0.000000 0.000000
vn 0.796145 0.587102 -0.146506
vn 0.796145 0.587102 -0.146506
vn 0.796145 0.587102 -0.146506
vn 0.796145 0.587102 -0.146506
vn 0.796150 0.587095 0.146507
vn 0.796150 0.587095 0.146507
vn 0.796150 0.587095 0.146507
vn 0.796150 0.587095 0.146507
vn 1.000000 0.000000 0.000000
vn 1.000000 0.000000 0.000000
vn 1.000000 0.000000 0.000000
vn 1.000000 0.000000 0.000000
vn -1.000000 0.000000 0.000000
vn -1.000000 0.000000 0.000000
vn -1.000000 0.000000 0.000000
vn -1.000000 0.000000 0.000000
vn -0.644690 0.739537 0.193547
vn -0.644690 0.739537 0.193547
vn -0.644690 0.739537 0.193547
vn -0.644690 0.739537 0.193547
vn -0.000765 0.971139 -0.238513
vn -0.000765 0.971139 -0.238513
vn -0.000765 0.971139 -0.238513
vn -0.000765 0.971139 -0.238513
vn 0.004654 0.970571 -0.240770
vn 0.004654 0.970571 -0.240770
vn 0.004654 0.970571 -0.240770
vn 0.004654 0.970571 -0.240770
vn 0.000000 0.000000 1.000000
vn 0.000000 0.000000 1.000000
vn 0.000000 0.000000 1.000000
vn 0.000000 0.000000 1.000000
vn 0.000000 0.000000 -1.000000
vn 0.000000 0.000000 -1.000000
vn 0.000000 0.000000 -1.000000
vn 0.000000 0.000000 -1.000000
vn 0.000000 -0.969892 0.243536
vn 0.000000 -0.969892 0.243536
vn 0.000000 -0.969892 0.243536
vn 0.000000 -0.969892 0.243536
vn -0.001918 0.969232 -0.246141
vn -0.001918 0.969232 -0.246141
vn -0.001918 0.969232 -0.246141
vn -0.001918 0.969232 -0.246141
vn 0.001843 0.971917 0.235316
vn 0.001843 0.971917 0.235316
vn 0.001843 0.971917 0.235316
vn 0.001843 0.971917 0.235316
vn 0.000000 -0.969892 -0.243536
vn 0.000000 -0.969892 -0.243536
vn 0.000000 -0.969892 -0.243536
vn 0.000000 -0.969892 -0.243536
vn 0.000000 0.970618 -0.240624
vn 0.000000 0.970618 -0.240624
vn 0.000000 0.970618 -0.240624
vn 0.000000 0.970618 -0.240624
vn -0.000000 0.529950 -0.848029
vn -0.000000 0.529950 -0.848029
vn -0.000000 0.529950 -0.848029
vn -0.000000 0.529950 -0.848029
vn -0.000000 0.000000 -1.000000
vn -0.000000 0.000000 -1.000000
vn -0.000000 0.000000 -1.000000
vn -0.000000 0.000000 -1.000000
vn 0.000000 -0.969892 0.243536
vn 0.000000 -0.969892 0.243536
vn 0.000000 -0.969892 0.243536
vn 0.000000 -0.969892 0.243536
vn 0.000000 -0.969892 -0.243536
vn 0.000000 -0.969892 -0.243536
vn 0.000000 -0.969892 -0.243536
vn 0.000000 -0.969892 -0.243536
vn -0.000000 0.000000 1.000000
vn -0.000000 0.000000 1.000000
vn -0.000000 0.000000 1.000000
vn -0.000000 0.000000 1.000000
vn -0.000000 0.529952 0.848028
vn -0.000000 0.529952 0.848028
vn -0.000000 0.529952 0.848028
vn -0.000000 0.529952 0.848028
vn 0.000000 0.970619 0.240624
vn 0.000000 0.970619 0.240624
vn 0.000000 0.970619 0.240624
vn 0.000000 0.970619 0.240624
vn 0.000000 0.000000 -1.000000
vn 0.000000 0.000000 -1.000000
vn 0.000000 0.000000 -1.000000
vn 0.000000 0.000000 -1.000000
vn 0.000000 0.000000 -1.000000
vn 0.000000 0.000000 -1.000000
vn 0.000000 0.000000 -1.000000
vn 0.000000 0.000000 -1.000000
vn 0.000000 -0.969892 0.243536
vn 0.000000 -0.969892 0.243536
vn 0.000000 -0.969892 0.243536
vn 0.000000 -0.969892 0.243536
vn 0.000000 -0.969892 0.243536
vn 0.000000 -0.969892 0.243536
vn 0.000000 -0.969892 0.243536
vn 0.000000 -0.969892 0.243536
vn 0.000000 -0.969892 -0.243536
vn 0.000000 -0.969892 -0.243536
vn 0.000000 -0.969892 -0.243536
vn 0.000000 -0.969892 -0.243536
vn 0.000000 -0.969892 -0.243536
vn 0.000000 -0.969892 -0.243536
vn 0.000000 -0.969892 -0.243536
vn 0.000000 -0.969892 -0.243536
vn 0.000000 0.000000 1.000000
vn 0.000000 0.000000 1.000000
vn 0.000000 0.000000 1.000000
vn 0.000000 0.000000 1.000000
vn 0.000000 0.000000 1.000000
vn 0.000000 0.000000 1.000000
vn 0.000000 0.000000 1.000000
vn 0.000000 0.000000 1.000000
vn -0.000000 0.529948 0.848030
vn -0.000000 0.529948 0.848030
vn -0.000000 0.529948 0.848030
vn -0.000000 0.529948 0.848030
vn -0.000000 0.529949 0.848030
vn -0.000000 0.529949 0.848030
vn -0.000000 0.529949 0.848030
vn -0.000000 0.529949 0.848030
vn 0.000789 0.970075 0.242804
vn 0.000789 0.970075 0.242804
vn 0.000789 0.970075 0.242804
vn 0.000789 0.970075 0.242804
vn -0.002508 0.970616 0.240620
vn -0.002508 0.970616 0.240620
vn -0.002508 0.970616 0.240620
vn -0.002508 0.970616 0.240620
vn -0.000000 0.529948 -0.848030
vn -0.000000 0.529948 -0.848030
vn -0.000000 0.529948 -0.848030
vn -0.000000 0.529948 -0.848030
vn -0.000000 0.529944 -0.848032
vn -0.000000 0.529944 -0.848032
vn -0.000000 0.529944 -0.848032
vn -0.000000 0.529944 -0.848032
vn -0.000000 0.529946 -0.848031
vn -0.000000 0.529946 -0.848031
vn -0.000000 0.529946 -0.848031
vn -0.000000 0.529946 -0.848031
vn -0.000000 0.529946 0.848032
vn -0.000000 0.529946 0.848032
vn -0.000000 0.529946 0.848032
vn -0.000000 0.529946 0.848032
vn 0.687904 0.704191 -0.175791
vn 0.687904 0.704191 -0.175791
vn 0.687904 0.704191 -0.175791
vn 0.687904 0.704191 -0.175791
vn -0.652716 0.733870 -0.188139
vn -0.652716 0.733870 -0.188139
vn -0.652716 0.733870 -0.188139
vn -0.652716 0.733870 -0.188139
vn 0.730478 0.662621 -0.165338
vn 0.730478 0.662621 -0.165338
vn 0.730478 0.662621 -0.165338
vn 0.730478 0.662621 -0.165338
vn -0.509765 0.831977 -0.218983
vn -0.509765 0.831977 -0.218983
vn -0.509765 0.831977 -0.218983
vn -0.509765 0.831977 -0.218983
vn 0.492376 0.841538 -0.222216
vn 0.492376 0.841538 -0.222216
vn 0.492376 0.841538 -0.222216
vn 0.492376 0.841538 -0.222216
vn -0.635236 0.750165 -0.183652
vn -0.635236 0.750165 -0.183652
vn -0.635236 0.750165 -0.183652
vn -0.635236 0.750165 -0.183652
vn 0.675460 0.717183 0.171469
vn 0.675460 0.717183 0.171469
vn 0.675460 0.717183 0.171469
vn 0.675460 0.717183 0.171469
vn -0.547730 0.808255 0.216140
vn -0.547730 0.808255 0.216140
vn -0.547730 0.808255 0.216140
vn -0.547730 0.808255 0.216140
vn 0.689076 0.701595 0.181489
vn 0.689076 0.701595 0.181489
vn 0.689076 0.701595 0.181489
vn 0.689076 0.701595 0.181489
vn -0.478500 0.847894 0.228285
vn -0.478500 0.847894 0.228285
vn -0.478500 0.847894 0.228285
vn -0.478500 0.847894 0.228285
vn 0.512224 0.828168 0.227519
vn 0.512224 0.828168 0.227519
vn 0.512224 0.828168 0.227519
vn 0.512224 0.828168 0.227519
vn -0.598374 0.778078 0.191166
vn -0.598374 0.778078 0.191166
vn -0.598374 0.778078 0.191166
vn -0.598374 0.778078 0.191166
s off
f 1/7/1 13/6/2 11/8/3 3/30/4
f 17/14/5 18/15/6 3/30/7 11/8/8
f 10/35/9 5/4/10 4/18/11 16/17/12
f 2/34/13 5/4/14 10/35/15 12/5/16
f 2/3/17 8/45/18 6/23/19 5/47/20
f 15/21/21 4/1/22 5/47/23 6/23/24
f 3/30/25 18/15/26 14/10/27 7/2/28
f 1/44/29 3/30/30 7/2/31 9/9/32
f 44/74/33 42/54/34 38/71/35 39/55/36
f 40/72/37 37/56/38 46/75/39 48/57/40
f 14/10/41 28/16/42 31/43/43 7/42/44
f 11/11/45 19/31/46 22/12/47 17/14/48
f 25/13/49 18/15/50 17/14/51 22/12/52
f 13/51/53 1/52/54 41/73/55 43/53/56
f 49/77/57 41/61/58 1/62/59 9/63/60
f 14/10/61 18/15/62 25/25/63 28/16/64
f 47/76/65 45/58/66 2/59/67 12/60/68
f 12/5/69 10/35/70 21/36/71 47/37/72
f 24/19/73 21/36/74 10/35/75 16/17/76
f 4/18/77 27/24/78 24/19/79 16/17/80
f 30/22/81 27/20/82 4/1/83 15/21/84
f 33/46/85 30/22/86 15/21/87 6/23/88
f 8/45/89 51/87/90 33/46/91 6/23/92
f 8/64/93 2/65/94 45/80/95 51/66/96
f 19/31/97 20/39/98 23/26/99 22/12/100
f 20/39/101 21/36/102 24/19/103 23/26/104
f 22/12/105 23/26/106 26/28/107 25/13/108
f 23/26/109 24/19/110 27/24/111 26/28/112
f 25/25/113 26/27/114 29/29/115 28/16/116
f 26/27/117 27/20/118 30/22/119 29/29/120
f 28/16/121 29/29/122 32/48/123 31/43/124
f 29/29/125 30/22/126 33/46/127 32/48/128
f 31/43/129 32/48/130 53/49/131 50/86/132
f 32/48/133 33/46/134 52/50/135 54/88/136
f 42/78/137 50/67/138 53/81/139 38/68/140
f 37/82/141 54/69/142 52/79/143 46/70/144
f 20/39/145 40/38/146 48/85/147 21/36/148
f 43/84/149 19/31/150 11/11/151 13/32/152
f 19/31/153 44/33/154 39/83/155 20/39/156
f 31/43/157 49/40/158 9/41/159 7/42/160
f 38/71/161 35/89/162 20/90/163 39/55/164
f 35/89/165 37/56/166 40/72/167 20/90/168
f 41/73/169 34/91/170 19/92/171 43/53/172
f 34/91/173 42/54/174 44/74/175 19/92/176
f 46/75/177 36/93/178 21/94/179 48/57/180
f 36/93/181 45/58/182 47/76/183 21/94/184
f 49/77/185 31/95/186 34/96/187 41/61/188
f 31/95/189 50/67/190 42/78/191 34/96/192
f 52/79/193 33/97/194 36/98/195 46/70/196
f 33/97/197 51/66/198 45/80/199 36/98/200
f 53/81/201 32/99/202 35/100/203 38/68/204
f 32/99/205 54/69/206 37/82/207 35/100/208
