# This file uses centimeters as units for non-parametric coordinates.

v -0.000013 -0.000002 0.000013
v -7.877198 0.000000 7.877210
v 0.000000 0.000000 11.250000
v -0.000001 94.929893 0.000001
v 0.000000 94.748444 11.250000
v -0.000006 100.097260 5.532319
v -0.000013 100.809692 0.000013
v -3.798453 100.305893 3.798453
v -7.877198 94.416763 7.877210
v -11.250000 0.000000 0.000000
v -11.250000 94.748444 0.000000
v -5.532319 100.097260 0.000006
vt 0.001423 0.028022
vt 0.046294 0.001434
vt 0.001423 0.001434
vt -0.038908 0.001418
vt -0.038908 0.315752
vt 0.001423 0.316366
vt -0.019075 0.333853
vt -0.038908 0.333876
vt 0.001342 0.380524
vt 0.022807 0.358221
vt 0.001382 0.357562
vt 0.046282 0.315142
vt 0.001423 0.028022
vt 0.046294 0.001434
vt 0.001423 0.001434
vt 0.046282 0.315142
vt 0.001423 0.316366
vt -0.038908 0.001418
vt -0.038908 0.315752
vt -0.019075 0.333853
vt -0.038908 0.333876
vt 0.001342 0.380524
vt 0.001382 0.357562
vt 0.022807 0.358221
vn -0.000000 -1.000000 0.000000
vn -0.000000 -1.000000 0.000000
vn -0.000000 -1.000000 0.000000
vn -0.000000 0.000000 1.000000
vn -0.000000 0.000000 1.000000
vn -0.000000 0.000000 1.000000
vn -0.000000 0.000000 1.000000
vn 1.000000 -0.000000 -0.000001
vn 1.000000 -0.000000 -0.000001
vn 1.000000 -0.000000 -0.000001
vn 1.000000 -0.000000 -0.000001
vn 1.000000 0.000000 -0.000001
vn 1.000000 0.000000 -0.000001
vn 1.000000 0.000000 -0.000001
vn -0.000301 0.999796 0.020200
vn -0.000301 0.999796 0.020200
vn -0.000301 0.999796 0.020200
vn 1.000000 0.000000 -0.000001
vn 1.000000 0.000000 -0.000001
vn 1.000000 0.000000 -0.000001
vn -0.020992 0.727767 0.685503
vn -0.020992 0.727767 0.685503
vn -0.020992 0.727767 0.685503
vn -0.020992 0.727767 0.685503
vn -0.000000 -1.000000 0.000000
vn -0.000000 -1.000000 0.000000
vn -0.000000 -1.000000 0.000000
vn -1.000000 0.000000 0.000000
vn -1.000000 0.000000 0.000000
vn -1.000000 0.000000 0.000000
vn -1.000000 0.000000 0.000000
vn 0.000001 -0.000000 -1.000000
vn 0.000001 -0.000000 -1.000000
vn 0.000001 -0.000000 -1.000000
vn 0.000001 -0.000000 -1.000000
vn 0.000001 0.000000 -1.000000
vn 0.000001 0.000000 -1.000000
vn 0.000001 0.000000 -1.000000
vn -0.020200 0.999796 0.000301
vn -0.020200 0.999796 0.000301
vn -0.020200 0.999796 0.000301
vn 0.000001 0.000000 -1.000000
vn 0.000001 0.000000 -1.000000
vn 0.000001 0.000000 -1.000000
vn -0.685503 0.727767 0.020992
vn -0.685503 0.727767 0.020992
vn -0.685503 0.727767 0.020992
vn -0.685503 0.727767 0.020992
s off
f 2/2/1 1/1/2 3/3/3
f 3/3/4 5/6/5 9/12/6 2/2/7
f 5/6/8 3/3/9 1/4/10 4/5/11
f 4/5/12 7/8/13 6/7/14
f 7/9/15 8/10/16 6/11/17
f 6/7/18 5/6/19 4/5/20
f 8/10/21 9/12/22 5/6/23 6/11/24
f 2/14/25 10/15/26 1/13/27
f 10/15/28 2/14/29 9/16/30 11/17/31
f 11/17/32 4/19/33 1/18/34 10/15/35
f 4/19/36 12/20/37 7/21/38
f 7/22/39 12/23/40 8/24/41
f 12/20/42 4/19/43 11/17/44
f 8/24/45 12/23/46 11/17/47 9/16/48
