# This file uses centimeters as units for non-parametric coordinates.

v 0.000000 1.343582 18.569061
v 249.999146 1.343582 18.569061
v 0.000000 31.765991 18.569061
v 249.999146 31.765991 18.569061
v 0.000000 33.109573 11.250000
v 249.999146 33.109573 11.250000
v 0.000000 0.000000 11.250000
v 249.999146 0.000000 11.250000
v 0.000000 29.136429 11.250000
v 249.999146 29.136429 11.250000
v 249.999146 29.440323 18.569061
v 0.000000 29.440323 18.569061
v 0.000000 3.669250 18.569061
v 249.999146 3.669250 18.569061
v 249.999146 3.973129 11.250000
v 0.000000 3.973129 11.250000
v 249.999146 4.957794 15.030090
v 0.000000 4.957794 15.030090
v 0.000000 28.151779 15.030090
v 249.999146 28.151779 15.030090
v 249.999146 18.965256 16.422058
v 249.999146 20.720581 11.250000
v 0.000000 20.720581 11.250000
v 0.000000 18.965256 16.422058
v 249.999146 22.338058 15.030090
v 0.000000 22.338058 15.030090
v 249.999146 18.303665 15.030090
v 0.000000 18.303665 15.030090
v 249.999146 21.971176 16.422058
v 0.000000 21.971176 16.422058
v 58.619720 1.343582 18.569061
v 58.619720 0.000000 11.250000
v 58.619720 3.973129 11.250000
v 58.619720 20.720581 11.250000
v 58.619720 29.136429 11.250000
v 58.619720 33.109573 11.250000
v 58.619720 31.765991 18.569061
v 58.619720 29.440323 18.569061
v 58.619720 28.151779 15.030090
v 58.619720 22.338058 15.030090
v 58.619720 21.971176 16.422058
v 58.619720 18.965256 16.422058
v 58.619720 18.303665 15.030090
v 58.619720 4.957794 15.030090
v 58.619720 3.669250 18.569061
v 191.379425 29.440323 18.569061
v 191.379425 31.765991 18.569061
v 191.379425 33.109573 11.250000
v 191.379425 29.136429 11.250000
v 191.379425 20.720581 11.250000
v 191.379425 3.973129 11.250000
v 191.379425 0.000000 11.250000
v 191.379425 1.343582 18.569061
v 191.379425 3.669250 18.569061
v 191.379425 4.957794 15.030090
v 191.379425 18.303665 15.030090
v 191.379425 18.965256 16.422058
v 191.379425 21.971176 16.422058
v 191.379425 22.338058 15.030090
v 191.379425 28.151779 15.030090
v 54.022736 17.220047 15.030090
v 54.022736 6.041412 15.030090
v 5.074585 17.220047 15.030090
v 5.074585 6.041412 15.030090
v 195.976410 17.220047 15.030090
v 244.924561 17.220047 15.030090
v 195.976410 6.041412 15.030090
v 244.924561 6.041412 15.030090
v 52.924835 16.462662 13.369537
v 52.924835 6.798798 13.369537
v 6.119873 16.462662 13.369537
v 6.119873 6.798798 13.369537
v 197.074310 16.462662 13.369537
v 243.879272 16.462662 13.369537
v 197.074310 6.798798 13.369537
v 243.879272 6.798798 13.369537
vt 0.283262 0.269775
vt 0.282483 0.269723
vt 0.282475 0.269719
vt 0.283261 0.269771
vt 0.283262 0.269755
vt 0.282475 0.269709
vt 0.282490 0.269707
vt 0.283265 0.269751
vt 0.283252 0.269901
vt 0.282495 0.269811
vt 0.282480 0.269815
vt 0.283250 0.269908
vt 0.282491 0.269720
vt 0.283263 0.269770
vt 0.283251 0.269893
vt 0.282480 0.269804
vt 0.282487 0.269798
vt 0.283253 0.269884
vt 0.282495 0.269799
vt 0.283254 0.269883
vt 0.282869 0.226385
vt 0.283659 0.226417
vt 0.283652 0.226526
vt 0.282873 0.226462
vt 0.282880 0.226461
vt 0.282877 0.226385
vt 0.283653 0.226523
vt 0.283660 0.226416
vt 0.282130 0.269819
vt 0.282878 0.226416
vt 0.283658 0.226452
vt 0.282864 0.269530
vt 0.282878 0.226405
vt 0.282870 0.226405
vt 0.283658 0.226445
vt 0.282871 0.226418
vt 0.283656 0.226464
vt 0.282870 0.269532
vt 0.282150 0.269828
vt 0.282080 0.269838
vt 0.282846 0.269536
vt 0.282133 0.269887
vt 0.282152 0.269879
vt 0.282870 0.269545
vt 0.282863 0.269548
vt 0.283214 0.269928
vt 0.283209 0.269879
vt 0.283057 0.269885
vt 0.283063 0.269878
vt 0.283460 0.226508
vt 0.283064 0.269862
vt 0.283463 0.226440
vt 0.283463 0.226443
vt 0.283464 0.226408
vt 0.283070 0.269757
vt 0.283071 0.269740
vt 0.283065 0.269743
vt 0.283065 0.269758
vt 0.283067 0.269762
vt 0.282680 0.269602
vt 0.282690 0.269606
vt 0.282690 0.269629
vt 0.282681 0.269633
vt 0.283061 0.269863
vt 0.283058 0.269871
vt 0.282672 0.269732
vt 0.282672 0.269720
vt 0.282684 0.269718
vt 0.283073 0.226393
vt 0.282684 0.269732
vt 0.283073 0.226416
vt 0.283073 0.226425
vt 0.283073 0.226477
vt 0.282684 0.269820
vt 0.282684 0.269834
vt 0.282673 0.269838
vt 0.282673 0.269826
vt 0.282678 0.269820
vt 0.282315 0.269802
vt 0.282331 0.269796
vt 0.282330 0.269754
vt 0.282314 0.269747
vt 0.411531 0.550636
vt 0.282678 0.269736
vt 0.089179 0.550636
vt 0.283550 0.269849
vt 0.283548 0.269881
vt 0.283559 0.269851
vt 0.283557 0.269878
vt 0.411531 0.515933
vt 0.411531 0.550636
vt 0.089179 0.550636
vt 0.089179 0.515933
vt 0.089179 0.515933
vt 0.411531 0.515933
vt 0.283645 0.269841
vt 0.283638 0.269844
vt 0.283642 0.269868
vt 0.283636 0.269867
vt 0.282854 0.269911
vt 0.283188 0.269885
vt 0.282894 0.269913
vt 0.283193 0.269927
vt 0.282871 0.269976
vt 0.282906 0.269965
vt 0.407937 0.692475
vt 0.407937 0.745012
vt 0.122737 0.745012
vt 0.122737 0.692475
vt 0.407937 0.745012
vt 0.122737 0.745012
vt 0.122737 0.692475
vt 0.407937 0.692475
vt 0.283982 0.226352
vt 0.283985 0.226313
vt 0.283981 0.226315
vt 0.283978 0.226348
vt 0.284055 0.226301
vt 0.284049 0.226303
vt 0.284052 0.226334
vt 0.284046 0.226332
vt 0.283265 0.226440
vt 0.283616 0.226378
vt 0.283605 0.226382
vt 0.283271 0.226442
vt 0.283617 0.226445
vt 0.283606 0.226439
vt 0.283275 0.226531
vt 0.283279 0.226519
vt 0.283313 0.269255
vt 0.283370 0.269271
vt 0.283370 0.269293
vt 0.283342 0.269303
vt 0.283313 0.269292
vt 0.282411 0.269523
vt 0.282380 0.269539
vt 0.282414 0.269577
vt 0.282426 0.269570
vt 0.282424 0.269530
vt 0.283338 0.269514
vt 0.283309 0.269519
vt 0.283311 0.269368
vt 0.283340 0.269393
vt 0.283341 0.269356
vt 0.283352 0.269361
vt 0.283351 0.269388
vt 0.283309 0.269554
vt 0.283365 0.269529
vt 0.283365 0.269550
vt 0.282436 0.269399
vt 0.282370 0.269372
vt 0.282373 0.269426
vt 0.282407 0.269444
vt 0.282437 0.269431
vt 0.282423 0.269753
vt 0.282392 0.269757
vt 0.282395 0.269808
vt 0.282457 0.269808
vt 0.282455 0.269777
vn 1.000000 0.000000 0.000000
vn 1.000000 0.000000 0.000000
vn 1.000000 0.000000 0.000000
vn -1.000000 0.000000 0.000000
vn -1.000000 0.000000 0.000000
vn -1.000000 0.000000 0.000000
vn 1.000000 0.000000 0.000000
vn 1.000000 0.000000 0.000000
vn 1.000000 0.000000 0.000000
vn -1.000000 0.000000 0.000000
vn -1.000000 0.000000 0.000000
vn -1.000000 0.000000 0.000000
vn 1.000000 0.000000 0.000000
vn 1.000000 0.000000 0.000000
vn 1.000000 0.000000 0.000000
vn 1.000000 0.000000 0.000000
vn -1.000000 0.000000 0.000000
vn -1.000000 0.000000 0.000000
vn -1.000000 0.000000 0.000000
vn -1.000000 0.000000 0.000000
vn 1.000000 0.000000 0.000000
vn 1.000000 0.000000 0.000000
vn 1.000000 0.000000 0.000000
vn 1.000000 0.000000 0.000000
vn -1.000000 0.000000 0.000000
vn -1.000000 0.000000 0.000000
vn -1.000000 0.000000 0.000000
vn -1.000000 0.000000 0.000000
vn 1.000000 0.000017 0.000000
vn 1.000000 0.000017 0.000000
vn 1.000000 0.000017 0.000000
vn -1.000000 0.000000 0.000000
vn -1.000000 0.000000 0.000000
vn -1.000000 0.000000 0.000000
vn 1.000000 -0.000010 0.000000
vn 1.000000 -0.000010 0.000000
vn 1.000000 -0.000010 0.000000
vn -1.000000 0.000000 0.000000
vn -1.000000 0.000000 0.000000
vn -1.000000 0.000000 0.000000
vn 1.000000 0.000000 0.000000
vn 1.000000 0.000000 0.000000
vn 1.000000 0.000000 0.000000
vn 1.000000 0.000000 0.000000
vn -1.000000 0.000000 0.000000
vn -1.000000 0.000000 0.000000
vn -1.000000 0.000000 0.000000
vn -1.000000 0.000000 0.000000
vn 1.000000 0.000000 0.000000
vn 1.000000 0.000000 0.000000
vn 1.000000 0.000000 0.000000
vn 1.000000 0.000000 0.000000
vn -1.000000 0.000000 0.000000
vn -1.000000 0.000000 0.000000
vn -1.000000 0.000000 0.000000
vn -1.000000 0.000000 0.000000
vn 1.000000 0.000000 0.000000
vn 1.000000 0.000000 0.000000
vn 1.000000 0.000000 0.000000
vn -1.000000 0.000000 0.000000
vn -1.000000 0.000000 0.000000
vn -1.000000 0.000000 0.000000
vn 0.000000 -0.983565 0.180556
vn 0.000000 -0.983565 0.180556
vn 0.000000 -0.983565 0.180556
vn 0.000000 -0.983565 0.180556
vn 0.000000 0.000000 -1.000000
vn 0.000000 0.000000 -1.000000
vn 0.000000 0.000000 -1.000000
vn 0.000000 0.000000 -1.000000
vn 0.000000 0.000000 -1.000000
vn 0.000000 0.000000 -1.000000
vn 0.000000 0.000000 -1.000000
vn 0.000000 0.000000 -1.000000
vn 0.000000 0.000000 -1.000000
vn 0.000000 0.000000 -1.000000
vn 0.000000 0.000000 -1.000000
vn 0.000000 0.000000 -1.000000
vn 0.000000 0.000000 -1.000000
vn 0.000000 0.000000 -1.000000
vn 0.000000 0.000000 -1.000000
vn 0.000000 0.000000 -1.000000
vn 0.000000 0.983565 0.180556
vn 0.000000 0.983565 0.180556
vn 0.000000 0.983565 0.180556
vn 0.000000 0.983565 0.180556
vn 0.000000 0.000000 1.000000
vn 0.000000 0.000000 1.000000
vn 0.000000 0.000000 1.000000
vn 0.000000 0.000000 1.000000
vn 0.000000 -0.939653 0.342129
vn 0.000000 -0.939653 0.342129
vn 0.000000 -0.939653 0.342129
vn 0.000000 -0.939653 0.342129
vn 0.000000 0.000000 1.000000
vn 0.000000 0.000000 1.000000
vn 0.000000 0.000000 1.000000
vn 0.000000 0.000000 1.000000
vn 0.000000 0.966976 0.254866
vn 0.000000 0.966976 0.254866
vn 0.000000 0.966976 0.254866
vn 0.000000 0.966976 0.254866
vn 0.000000 0.000000 1.000000
vn 0.000000 0.000000 1.000000
vn 0.000000 0.000000 1.000000
vn 0.000000 0.000000 1.000000
vn 0.000000 -0.903175 0.429273
vn 0.000000 -0.903175 0.429273
vn 0.000000 -0.903175 0.429273
vn 0.000000 -0.903175 0.429273
vn 0.000000 0.000000 1.000000
vn 0.000000 0.000000 1.000000
vn 0.000000 0.000000 1.000000
vn 0.000000 0.000000 1.000000
vn 0.000000 0.939653 0.342129
vn 0.000000 0.939653 0.342129
vn 0.000000 0.939653 0.342129
vn 0.000000 0.939653 0.342129
vn 0.000000 0.000000 1.000000
vn 0.000000 0.000000 1.000000
vn 0.000000 0.000000 1.000000
vn 0.000000 0.000000 1.000000
vn 0.000000 0.000000 1.000000
vn 0.000000 0.000000 1.000000
vn 0.000000 0.000000 1.000000
vn 0.000000 0.000000 1.000000
vn 0.000000 0.983565 0.180556
vn 0.000000 0.983565 0.180556
vn 0.000000 0.983565 0.180556
vn 0.000000 0.983565 0.180556
vn 0.000000 0.000000 -1.000000
vn 0.000000 0.000000 -1.000000
vn 0.000000 0.000000 -1.000000
vn 0.000000 0.000000 -1.000000
vn 0.000000 0.000000 -1.000000
vn 0.000000 0.000000 -1.000000
vn 0.000000 0.000000 -1.000000
vn 0.000000 0.000000 -1.000000
vn 0.000000 0.000000 -1.000000
vn 0.000000 0.000000 -1.000000
vn 0.000000 0.000000 -1.000000
vn 0.000000 0.000000 -1.000000
vn 0.000000 0.000000 -1.000000
vn 0.000000 0.000000 -1.000000
vn 0.000000 0.000000 -1.000000
vn 0.000000 0.000000 -1.000000
vn 0.000000 -0.983565 0.180556
vn 0.000000 -0.983565 0.180556
vn 0.000000 -0.983565 0.180556
vn 0.000000 -0.983565 0.180556
vn 0.000000 0.000000 1.000000
vn 0.000000 0.000000 1.000000
vn 0.000000 0.000000 1.000000
vn 0.000000 0.000000 1.000000
vn 0.000000 0.939653 0.342129
vn 0.000000 0.939653 0.342129
vn 0.000000 0.939653 0.342129
vn 0.000000 0.939653 0.342129
vn 0.000000 0.000000 1.000000
vn 0.000000 0.000000 1.000000
vn 0.000000 0.000000 1.000000
vn 0.000000 0.000000 1.000000
vn 0.000000 -0.903175 0.429273
vn 0.000000 -0.903175 0.429273
vn 0.000000 -0.903175 0.429273
vn 0.000000 -0.903175 0.429273
vn 0.000000 0.000000 1.000000
vn 0.000000 0.000000 1.000000
vn 0.000000 0.000000 1.000000
vn 0.000000 0.000000 1.000000
vn 0.000000 0.966976 0.254866
vn 0.000000 0.966976 0.254866
vn 0.000000 0.966976 0.254866
vn 0.000000 0.966976 0.254866
vn 0.000000 0.000000 1.000000
vn 0.000000 0.000000 1.000000
vn 0.000000 0.000000 1.000000
vn 0.000000 0.000000 1.000000
vn 0.000000 -0.939653 0.342129
vn 0.000000 -0.939653 0.342129
vn 0.000000 -0.939653 0.342129
vn 0.000000 -0.939653 0.342129
vn -0.000000 0.000000 1.000000
vn -0.000000 0.000000 1.000000
vn -0.000000 0.000000 1.000000
vn -0.000000 0.000000 1.000000
vn -0.000000 0.000000 1.000000
vn 0.000000 0.000000 1.000000
vn 0.000000 0.000000 1.000000
vn -0.000000 0.000000 1.000000
vn 0.000000 0.000000 1.000000
vn 0.000000 0.000000 1.000000
vn 0.000000 0.000000 1.000000
vn 0.000000 0.000000 1.000000
vn 0.000000 0.000000 1.000000
vn -0.000000 0.000000 1.000000
vn -0.000000 0.000000 1.000000
vn 0.000000 0.000000 1.000000
vn -0.000000 0.000000 1.000000
vn 0.000000 0.000000 1.000000
vn 0.000000 0.000000 1.000000
vn -0.000000 0.000000 1.000000
vn 0.000000 0.000000 1.000000
vn 0.000000 0.000000 1.000000
vn 0.000000 0.000000 1.000000
vn 0.000000 0.000000 1.000000
vn 0.000000 0.000000 1.000000
vn -0.000000 0.000000 1.000000
vn -0.000000 0.000000 1.000000
vn 0.000000 0.000000 1.000000
vn -0.000000 0.000000 1.000000
vn -0.000000 0.000000 1.000000
vn -0.000000 0.000000 1.000000
vn -0.000000 0.000000 1.000000
vn -0.834162 0.000000 0.551519
vn -0.834162 0.000000 0.551519
vn -0.834162 0.000000 0.551519
vn -0.834162 0.000000 0.551519
vn 0.000000 -0.909831 0.414978
vn 0.000000 -0.909831 0.414978
vn 0.000000 -0.909831 0.414978
vn 0.000000 -0.909831 0.414978
vn 0.846289 0.000000 0.532724
vn 0.846289 0.000000 0.532724
vn 0.846289 0.000000 0.532724
vn 0.846289 0.000000 0.532724
vn 0.000000 0.909831 0.414978
vn 0.000000 0.909831 0.414978
vn 0.000000 0.909831 0.414978
vn 0.000000 0.909831 0.414978
vn 0.000000 -0.909831 0.414978
vn 0.000000 -0.909831 0.414978
vn 0.000000 -0.909831 0.414978
vn 0.000000 -0.909831 0.414979
vn 0.834162 0.000000 0.551519
vn 0.834162 0.000000 0.551519
vn 0.834162 0.000000 0.551519
vn 0.834162 0.000000 0.551519
vn 0.000000 0.909832 0.414978
vn 0.000000 0.909832 0.414978
vn 0.000000 0.909832 0.414978
vn 0.000000 0.909832 0.414978
vn -0.846289 0.000000 0.532724
vn -0.846289 0.000000 0.532724
vn -0.846289 0.000000 0.532724
vn -0.846289 0.000000 0.532724
vn 1.000000 0.000001 0.000000
vn 1.000000 0.000001 0.000000
vn 1.000000 0.000001 0.000000
vn 1.000000 0.000000 0.000000
vn 1.000000 0.000000 0.000000
vn -1.000000 0.000000 0.000000
vn -1.000000 0.000000 0.000000
vn -1.000000 0.000000 0.000000
vn -1.000000 0.000000 0.000000
vn -1.000000 0.000000 0.000000
vn 1.000000 0.000000 0.000000
vn 1.000000 0.000000 0.000000
vn 1.000000 0.000000 0.000000
vn 1.000000 0.000000 0.000000
vn 1.000000 0.000000 0.000000
vn 1.000000 0.000000 0.000000
vn 1.000000 0.000000 0.000000
vn 1.000000 0.000000 0.000000
vn 1.000000 0.000000 0.000000
vn 1.000000 0.000000 0.000000
vn 1.000000 0.000000 0.000000
vn 1.000000 0.000000 0.000000
vn 1.000000 0.000000 0.000000
vn 1.000000 0.000000 0.000000
vn -1.000000 0.000000 0.000000
vn -1.000000 0.000000 0.000000
vn -1.000000 0.000000 0.000000
vn -1.000000 0.000000 0.000000
vn -1.000000 0.000000 0.000000
vn -1.000000 0.000000 0.000000
vn -1.000000 0.000000 0.000000
vn -1.000000 0.000000 0.000000
vn -1.000000 0.000000 0.000000
vn -1.000000 0.000000 0.000000
vn -1.000000 0.000000 0.000000
vn -1.000000 0.000000 0.000000
vn -1.000000 0.000000 0.000000
vn -1.000000 0.000000 0.000000
vn -1.000000 0.000000 0.000000
vn -1.000000 0.000000 0.000000
vn -1.000000 0.000000 0.000000
vn -1.000000 0.000000 0.000000
vn 1.000000 0.000000 0.000000
vn 1.000000 0.000000 0.000000
vn 1.000000 0.000000 0.000000
vn 1.000000 0.000000 0.000000
s off
f 20/2/1 10/13/2 11/3/3
f 9/14/4 19/1/5 12/4/6
f 14/16/7 15/19/8 17/17/9
f 16/20/10 13/15/11 18/18/12
f 11/3/13 10/13/14 6/7/15 4/6/16
f 9/14/17 12/4/18 3/5/19 5/8/20
f 2/11/21 8/10/22 15/19/23 14/16/24
f 7/9/25 1/12/26 13/15/27 16/20/28
f 29/39/29 22/40/30 25/29/31
f 26/32/32 23/41/33 30/38/34
f 27/42/35 22/40/36 21/43/37
f 24/44/38 23/41/39 28/45/40
f 25/34/41 22/33/42 10/26/43 20/21/44
f 19/22/45 9/28/46 23/31/47 26/35/48
f 15/25/49 22/30/50 27/36/51 17/24/52
f 28/37/53 23/31/54 16/27/55 18/23/56
f 21/43/57 22/40/58 29/39/59
f 30/38/60 23/41/61 24/44/62
f 7/9/63 32/49/64 31/48/65 1/12/66
f 16/20/67 33/51/68 32/49/69 7/9/70
f 16/27/71 23/31/72 34/53/73 33/50/74
f 35/54/75 34/52/76 23/31/77 9/28/78
f 5/8/79 36/56/80 35/55/81 9/14/82
f 3/5/83 37/57/84 36/56/85 5/8/86
f 12/4/87 38/58/88 37/57/89 3/5/90
f 19/1/91 39/59/92 38/58/93 12/4/94
f 40/90/95 39/91/96 19/92/97 26/93/98
f 41/61/99 40/60/100 26/32/101 30/38/102
f 42/62/103 41/61/104 30/38/105 24/44/106
f 43/63/107 42/62/108 24/44/109 28/45/110
f 70/106/111 69/107/112 71/108/113 72/109/114
f 13/15/115 45/65/116 44/64/117 18/18/118
f 1/12/119 31/48/120 45/65/121 13/15/122
f 47/67/123 46/66/124 11/3/125 4/6/126
f 48/68/127 47/67/128 4/6/129 6/7/130
f 49/70/131 48/68/132 6/7/133 10/13/134
f 22/33/135 50/71/136 49/69/137 10/26/138
f 51/73/139 50/72/140 22/30/141 15/25/142
f 52/75/143 51/74/144 15/19/145 8/10/146
f 53/76/147 52/75/148 8/10/149 2/11/150
f 54/77/151 53/76/152 2/11/153 14/16/154
f 55/78/155 54/77/156 14/16/157 17/17/158
f 74/110/159 73/111/160 75/112/161 76/113/162
f 21/43/163 57/80/164 56/79/165 27/42/166
f 29/39/167 58/81/168 57/80/169 21/43/170
f 25/29/171 59/82/172 58/81/173 29/39/174
f 20/83/175 60/85/176 59/94/177 25/95/178
f 46/66/179 60/84/180 20/2/181 11/3/182
f 44/87/183 43/86/184 61/88/185 62/89/186
f 43/86/187 28/96/188 63/97/189 61/88/190
f 28/96/191 18/98/192 64/99/193 63/97/194
f 18/98/195 44/87/196 62/89/197 64/99/198
f 27/100/199 56/47/200 65/101/201 66/102/202
f 56/47/203 55/46/204 67/103/205 65/101/206
f 55/46/207 17/104/208 68/105/209 67/103/210
f 17/104/211 27/100/212 66/102/213 68/105/214
f 62/114/215 61/115/216 69/116/217 70/117/218
f 61/115/219 63/118/220 71/119/221 69/116/222
f 63/118/223 64/120/224 72/121/225 71/119/226
f 64/120/227 62/114/228 70/117/229 72/121/230
f 66/122/231 65/123/232 73/124/233 74/125/234
f 65/123/235 67/126/236 75/127/237 73/124/238
f 67/126/239 68/128/240 76/129/241 75/127/242
f 68/128/243 66/122/244 74/125/245 76/129/246
f 36/130/247 37/131/248 38/132/249 39/133/250 35/134/251
f 59/135/252 50/136/253 56/137/254 57/138/255 58/139/256
f 44/140/257 33/141/258 34/142/259 43/143/260
f 43/143/261 34/142/262 40/144/263 41/145/264 42/146/265
f 32/147/266 33/141/267 44/140/268 45/148/269 31/149/270
f 47/150/271 48/151/272 49/152/273 60/153/274 46/154/275
f 60/153/276 49/152/277 50/136/278 59/135/279
f 55/155/280 51/156/281 52/157/282 53/158/283 54/159/284
f 56/137/285 50/136/286 51/156/287 55/155/288
f 40/144/289 34/142/290 35/134/291 39/133/292
