# This file uses centimeters as units for non-parametric coordinates.

v -11.698334 0.000000 11.698334
v 11.698334 0.000000 11.698334
v -8.951091 73.904022 8.951091
v 8.951091 73.904022 8.951091
v -8.951091 73.904022 -8.951091
v 8.951091 73.904022 -8.951091
v -11.698334 0.000000 -11.698334
v 11.698334 0.000000 -11.698334
v -8.951091 67.306458 8.951091
v 8.951091 67.306458 8.951091
v 8.951091 67.306458 -8.951091
v -8.951091 67.306458 -8.951091
v -11.698334 9.009627 11.698334
v 11.698334 9.009627 11.698334
v 11.698334 9.009627 -11.698334
v -11.698334 9.009627 -11.698334
v 5.827649 9.009641 -5.827649
v 5.827649 9.009641 5.827649
v -5.827649 9.009641 5.827649
v -5.827649 9.009641 -5.827649
v 5.827649 12.003158 -5.827649
v 5.827649 12.003174 5.827649
v -5.827649 12.003174 5.827649
v -5.827649 12.003158 -5.827649
v 3.818478 13.109738 -3.818478
v 3.818478 13.109736 3.818478
v -3.818478 13.109736 3.818478
v -3.818478 13.109738 -3.818478
v 5.827649 66.803040 -5.827649
v 5.827649 66.803040 5.827649
v -5.827649 66.803040 5.827649
v -5.827649 66.803040 -5.827649
v 5.827649 58.042709 5.827649
v 5.827649 58.042717 -5.827649
v -5.827649 58.042717 -5.827649
v -5.827649 58.042709 5.827649
v 3.818478 57.443203 3.818478
v 3.818478 57.443226 -3.818478
v -3.818478 57.443226 -3.818478
v -3.818478 57.443203 3.818478
v -3.818478 34.483475 3.818478
v -3.818478 46.562172 3.818478
v -3.818476 42.203590 2.194443
v -2.108765 42.349030 3.818476
v 3.818478 29.577635 -3.818478
v 3.818478 17.435266 -3.818478
v 3.818476 23.990751 -2.092294
v 2.189273 24.039513 -3.818476
vt 0.314914 0.109018
vt 0.314914 0.108968
vt 0.314914 0.108891
vt 0.314914 0.108940
vt 0.314914 0.108759
vt 0.314914 0.108805
vt 0.314914 0.108835
vt 0.314914 0.108881
vt 0.314914 0.109566
vt 0.314914 0.109502
vt 0.314914 0.109689
vt 0.314914 0.109759
vt 0.314914 0.109672
vt 0.314914 0.109603
vt 0.314914 0.109571
vt 0.314914 0.109605
vt 0.314914 0.109417
vt 0.314914 0.109478
vt 0.314914 0.109511
vt 0.314914 0.109480
vt 0.314914 0.109449
vt 0.314914 0.109542
vt 0.314914 0.109576
vt 0.314914 0.109481
vt 0.314914 0.109460
vt 0.314914 0.109521
vt 0.314914 0.109543
vt 0.314914 0.109481
vt 0.314914 0.109058
vt 0.314914 0.108970
vt 0.314914 0.108871
vt 0.314914 0.108959
vt 0.314914 0.109091
vt 0.314914 0.108990
vt 0.314914 0.109001
vt 0.314914 0.108902
vt 0.314914 0.109055
vt 0.314914 0.108997
vt 0.314914 0.109017
vt 0.314914 0.109076
vt 0.314914 0.128479
vt 0.314914 0.128425
vt 0.314914 0.128281
vt 0.314914 0.128330
vt 0.314914 0.129281
vt 0.314914 0.129203
vt 0.314914 0.129167
vt 0.314914 0.129205
vt 0.314914 0.128996
vt 0.314914 0.129063
vt 0.314914 0.129099
vt 0.314914 0.129066
vt 0.314914 0.129136
vt 0.314914 0.129033
vt 0.314914 0.129045
vt 0.314914 0.129113
vt 0.314914 0.129174
vt 0.314914 0.129137
vt 0.314914 0.129068
vt 0.314914 0.129068
vt 0.314914 0.109318
vt 0.314914 0.109191
vt 0.314914 0.109229
vt 0.314914 0.109230
vt 0.314914 0.109288
vt 0.314914 0.109414
vt 0.314914 0.109351
vt 0.314914 0.109350
vn 0.000000 0.000000 1.000000
vn 0.000000 0.000000 1.000000
vn 0.000000 0.000000 1.000000
vn 0.000000 0.000000 1.000000
vn 0.000000 1.000000 0.000000
vn 0.000000 1.000000 0.000000
vn 0.000000 1.000000 0.000000
vn 0.000000 1.000000 0.000000
vn 0.000000 0.000000 -1.000000
vn 0.000000 0.000000 -1.000000
vn 0.000000 0.000000 -1.000000
vn 0.000000 0.000000 -1.000000
vn 0.000000 -1.000000 0.000000
vn 0.000000 -1.000000 0.000000
vn 0.000000 -1.000000 0.000000
vn 0.000000 -1.000000 0.000000
vn 1.000000 0.000000 0.000000
vn 1.000000 0.000000 0.000000
vn 1.000000 0.000000 0.000000
vn 1.000000 0.000000 0.000000
vn -1.000000 0.000000 0.000000
vn -1.000000 0.000000 0.000000
vn -1.000000 0.000000 0.000000
vn -1.000000 0.000000 0.000000
vn 0.000000 1.000000 0.000002
vn 0.000000 1.000000 0.000002
vn 0.000000 1.000000 0.000002
vn 0.000000 1.000000 0.000002
vn 0.000002 1.000000 0.000000
vn 0.000002 1.000000 0.000000
vn 0.000002 1.000000 0.000000
vn 0.000002 1.000000 0.000000
vn 0.000000 1.000000 -0.000002
vn 0.000000 1.000000 -0.000002
vn 0.000000 1.000000 -0.000002
vn 0.000000 1.000000 -0.000002
vn -0.000002 1.000000 0.000000
vn -0.000002 1.000000 0.000000
vn -0.000002 1.000000 0.000000
vn -0.000002 1.000000 0.000000
vn 0.000000 0.000000 1.000000
vn 0.000000 0.000000 1.000000
vn 0.000000 0.000000 1.000000
vn 0.000000 0.000000 1.000000
vn 1.000000 0.000000 0.000000
vn 1.000000 0.000000 0.000000
vn 1.000000 0.000000 0.000000
vn 1.000000 0.000000 0.000000
vn 0.000000 0.000000 -1.000000
vn 0.000000 0.000000 -1.000000
vn 0.000000 0.000000 -1.000000
vn 0.000000 0.000000 -1.000000
vn -1.000000 0.000000 0.000000
vn -1.000000 0.000000 0.000000
vn -1.000000 0.000000 0.000000
vn -1.000000 0.000000 0.000000
vn 1.000000 0.000000 0.000000
vn 1.000000 0.000000 0.000000
vn 1.000000 0.000000 0.000000
vn 1.000000 0.000000 0.000000
vn 0.000000 0.000000 1.000000
vn 0.000000 0.000000 1.000000
vn 0.000000 0.000000 1.000000
vn 0.000000 0.000000 1.000000
vn -1.000000 0.000000 0.000000
vn -1.000000 0.000000 0.000000
vn -1.000000 0.000000 0.000000
vn -1.000000 0.000000 0.000000
vn 0.000000 0.000000 -1.000000
vn 0.000000 0.000000 -1.000000
vn 0.000000 0.000000 -1.000000
vn 0.000000 0.000000 -1.000000
vn 0.482430 0.875935 -0.000001
vn 0.482430 0.875934 -0.000001
vn 0.482430 0.875935 -0.000001
vn 0.482430 0.875935 -0.000001
vn 0.000000 0.875936 0.482427
vn 0.000000 0.875936 0.482427
vn 0.000000 0.875936 0.482427
vn 0.000000 0.875936 0.482427
vn -0.482430 0.875934 -0.000001
vn -0.482430 0.875935 -0.000001
vn -0.482430 0.875935 -0.000001
vn -0.482430 0.875935 -0.000001
vn 0.000000 0.875933 -0.482433
vn 0.000000 0.875933 -0.482433
vn 0.000000 0.875933 -0.482433
vn 0.000000 0.875933 -0.482433
vn 1.000000 0.000000 0.000000
vn 1.000000 0.000000 0.000000
vn 1.000000 0.000000 0.000000
vn 1.000000 0.000000 0.000000
vn 0.000000 0.000000 1.000000
vn 0.000000 0.000000 1.000000
vn 0.000000 0.000000 1.000000
vn 0.000000 0.000000 1.000000
vn -1.000000 0.000000 0.000000
vn -1.000000 0.000000 0.000000
vn -1.000000 0.000000 0.000000
vn -1.000000 0.000000 0.000000
vn 0.000000 0.000000 -1.000000
vn 0.000000 0.000000 -1.000000
vn 0.000000 0.000000 -1.000000
vn 0.000000 0.000000 -1.000000
vn 0.159121 -0.987259 0.000000
vn 0.159121 -0.987259 0.000000
vn 0.159121 -0.987259 0.000000
vn 0.159121 -0.987259 0.000000
vn 0.000000 -0.987259 0.159119
vn 0.000000 -0.987259 0.159119
vn 0.000000 -0.987259 0.159119
vn 0.000000 -0.987259 0.159119
vn -0.159121 -0.987259 0.000000
vn -0.159121 -0.987259 0.000000
vn -0.159121 -0.987259 0.000000
vn -0.159121 -0.987259 0.000000
vn 0.000000 -0.987259 -0.159119
vn 0.000000 -0.987259 -0.159119
vn 0.000000 -0.987259 -0.159119
vn 0.000000 -0.987259 -0.159119
vn 0.285924 -0.958252 -0.000002
vn 0.285924 -0.958252 -0.000002
vn 0.285924 -0.958252 -0.000002
vn 0.285924 -0.958252 -0.000002
vn 0.000000 -0.958253 -0.285921
vn 0.000000 -0.958253 -0.285921
vn 0.000000 -0.958253 -0.285921
vn 0.000000 -0.958253 -0.285921
vn -0.285924 -0.958252 -0.000002
vn -0.285924 -0.958252 -0.000002
vn -0.285924 -0.958252 -0.000002
vn -0.285924 -0.958252 -0.000002
vn 0.000000 -0.958252 0.285925
vn 0.000000 -0.958252 0.285925
vn 0.000000 -0.958252 0.285925
vn 0.000000 -0.958252 0.285925
vn 1.000000 0.000000 -0.000000
vn 1.000000 0.000000 -0.000000
vn 1.000000 0.000000 -0.000000
vn 0.000000 0.000000 -1.000000
vn 0.000000 0.000000 -1.000000
vn 0.000000 0.000000 -1.000000
vn -1.000000 0.000000 0.000000
vn -1.000000 0.000000 0.000000
vn -1.000000 0.000000 0.000000
vn -0.000000 0.000000 1.000000
vn -0.000000 0.000000 1.000000
vn -0.000000 0.000000 1.000000
vn -0.687624 0.149467 0.710516
vn -0.687624 0.149467 0.710516
vn -0.687624 0.149467 0.710516
vn -0.652216 -0.264672 0.710326
vn -0.652216 -0.264672 0.710326
vn -0.652216 -0.264672 0.710326
vn 0.718227 0.177180 -0.672872
vn 0.718227 0.177180 -0.672872
vn 0.718227 0.177180 -0.672872
vn 0.708331 -0.208377 -0.674422
vn 0.708331 -0.208377 -0.674423
vn 0.708331 -0.208377 -0.674422
vn 1.000000 0.000000 0.000000
vn 1.000000 0.000000 0.000000
vn 1.000000 0.000000 0.000000
vn 1.000000 0.000000 0.000000
vn 1.000000 -0.000000 0.000000
vn 1.000000 -0.000000 0.000000
vn 1.000000 -0.000000 0.000000
vn 1.000000 -0.000000 0.000000
vn -0.000000 -0.000000 -1.000000
vn -0.000000 -0.000000 -1.000000
vn -0.000000 -0.000000 -1.000000
vn -0.000000 -0.000000 -1.000000
vn -0.000000 0.000000 -1.000000
vn -0.000000 0.000000 -1.000000
vn -0.000000 0.000000 -1.000000
vn -0.000000 0.000000 -1.000000
vn -1.000000 0.000000 -0.000000
vn -1.000000 0.000000 -0.000000
vn -1.000000 0.000000 -0.000000
vn -1.000000 0.000000 -0.000000
vn -1.000000 -0.000000 -0.000000
vn -1.000000 -0.000000 -0.000000
vn -1.000000 -0.000000 -0.000000
vn -1.000000 -0.000000 -0.000000
vn 0.000000 -0.000000 1.000000
vn 0.000000 -0.000000 1.000000
vn 0.000000 -0.000000 1.000000
vn 0.000000 -0.000000 1.000000
vn 0.000000 0.000000 1.000000
vn 0.000000 0.000000 1.000000
vn 0.000000 0.000000 1.000000
vn 0.000000 0.000000 1.000000
s off
f 9/1/1 10/2/2 4/3/3 3/4/4
f 3/41/5 4/42/6 6/43/7 5/44/8
f 5/6/9 6/5/10 11/7/11 12/8/12
f 7/9/13 8/10/14 2/11/15 1/12/16
f 10/2/17 11/7/18 6/5/19 4/3/20
f 12/8/21 9/1/22 3/4/23 5/6/24
f 13/45/25 14/46/26 18/47/27 19/48/28
f 14/46/29 15/49/30 17/50/31 18/47/32
f 20/51/33 17/50/34 15/49/35 16/52/36
f 16/52/37 13/45/38 19/48/39 20/51/40
f 1/12/41 2/11/42 14/14/43 13/13/44
f 2/11/45 8/10/46 15/17/47 14/14/48
f 16/20/49 15/17/50 8/10/51 7/9/52
f 7/9/53 1/12/54 13/13/55 16/20/56
f 18/15/57 17/18/58 21/21/59 22/22/60
f 19/16/61 18/15/62 22/22/63 23/23/64
f 20/19/65 19/16/66 23/23/67 24/24/68
f 24/24/69 21/21/70 17/18/71 20/19/72
f 22/53/73 21/54/74 25/55/75 26/56/76
f 23/57/77 22/53/78 26/56/79 27/58/80
f 24/59/81 23/57/82 27/58/83 28/60/84
f 28/60/85 25/55/86 21/54/87 24/59/88
f 33/29/89 34/30/90 29/31/91 30/32/92
f 36/33/93 33/29/94 30/32/95 31/34/96
f 35/35/97 36/33/98 31/34/99 32/36/100
f 32/36/101 29/31/102 34/30/103 35/35/104
f 30/32/105 29/31/106 11/7/107 10/2/108
f 31/34/109 30/32/110 10/2/111 9/1/112
f 32/36/113 31/34/114 9/1/115 12/8/116
f 12/8/117 11/7/118 29/31/119 32/36/120
f 37/37/121 38/38/122 34/30/123 33/29/124
f 35/35/125 34/30/126 38/38/127 39/39/128
f 39/39/129 40/40/130 36/33/131 35/35/132
f 40/40/133 37/37/134 33/29/135 36/33/136
f 26/26/137 47/67/138 37/37/139
f 39/39/140 48/68/141 28/28/142
f 28/28/143 43/63/144 39/39/145
f 44/64/146 26/26/147 37/37/148
f 41/61/149 44/64/150 43/63/151
f 43/63/152 44/64/153 42/62/154
f 46/66/155 48/68/156 47/67/157
f 47/67/158 48/68/159 45/65/160
f 26/26/161 25/25/162 46/66/163 47/67/164
f 37/37/165 47/67/166 45/65/167 38/38/168
f 39/39/169 38/38/170 45/65/171 48/68/172
f 28/28/173 48/68/174 46/66/175 25/25/176
f 28/28/177 27/27/178 41/61/179 43/63/180
f 39/39/181 43/63/182 42/62/183 40/40/184
f 44/64/185 37/37/186 40/40/187 42/62/188
f 27/27/189 26/26/190 44/64/191 41/61/192
