# This file uses centimeters as units for non-parametric coordinates.

v -34.904884 -16.398582 34.904884
v -34.904884 -16.398582 0.000000
v -34.904884 -8.418913 0.000000
v -34.904884 -8.418913 34.904884
v -0.000000 17.006208 0.000000
v -42.234924 3.119822 42.234924
v -42.234924 3.119822 0.000000
v -36.935902 -0.647237 0.000000
v -36.935902 -0.647237 36.935902
v -39.091885 22.230957 39.091885
v -39.091885 22.230957 4.116455
v -4.116455 22.230957 4.116455
v -42.234921 17.006208 0.000000
v -42.234867 17.006296 42.234867
v -32.162476 -19.881126 0.000000
v -32.162476 -19.881126 32.162476
v -32.162476 -36.479061 0.000000
v -0.000000 -79.483994 0.000000
v -32.162476 -36.479061 32.162476
v -33.495518 -39.055519 0.000000
v -33.495518 -39.055519 33.495518
v 0.000000 -16.398582 34.904884
v 0.000000 -8.418913 34.904884
v 0.000000 3.119822 42.234924
v 0.000000 -0.647237 36.935902
v -4.116455 22.230957 39.091885
v 0.000000 17.006208 42.234921
v 0.000000 -19.881126 32.162476
v 0.000000 -36.479061 32.162476
v 0.000000 -39.055519 33.495518
v -33.495514 -72.785561 0.000000
v -26.797081 -79.483994 0.000000
v -33.495514 -72.785561 33.495514
v -26.797081 -79.483994 26.797081
v 0.000000 -72.785561 33.495514
v -0.000000 -79.483994 26.797081
vt 0.954965 0.970778
vt 0.954965 0.970778
vt 0.954965 0.970772
vt 0.954965 0.970772
vt 0.954964 0.970742
vt 0.954964 0.970756
vt 0.954964 0.970756
vt 0.954964 0.970764
vt 0.954964 0.970764
vt 0.954964 0.970739
vt 0.954964 0.970739
vt 0.954964 0.970739
vt 0.954964 0.970744
vt 0.954964 0.970744
vt 0.954965 0.970786
vt 0.954965 0.970786
vt 0.954966 0.970815
vt 0.415579 0.949031
vt 0.475689 0.949031
vt 0.475689 0.985931
vt 0.415579 0.985931
vt 0.954966 0.970815
vt 0.954965 0.970778
vt 0.954965 0.970778
vt 0.954965 0.970772
vt 0.954965 0.970772
vt 0.954964 0.970742
vt 0.954964 0.970756
vt 0.954964 0.970756
vt 0.954964 0.970744
vt 0.954964 0.970744
vt 0.954964 0.970764
vt 0.954964 0.970764
vt 0.954964 0.970739
vt 0.954964 0.970739
vt 0.954964 0.970739
vt 0.954965 0.970786
vt 0.954965 0.970786
vt 0.954966 0.970815
vt 0.415579 0.949031
vt 0.475689 0.949031
vt 0.475689 0.985931
vt 0.415579 0.985931
vt 0.954966 0.970815
vt 0.954966 0.970821
vt 0.954968 0.970896
vt 0.954967 0.970884
vt 0.954968 0.970894
vt 0.954968 0.970884
vt 0.954966 0.970821
vt 0.954967 0.970884
vt 0.954968 0.970896
vt 0.954968 0.970896
vt 0.954966 0.970821
vn -1.000000 0.000000 0.000000
vn -1.000000 0.000000 0.000000
vn -1.000000 0.000000 0.000000
vn -1.000000 0.000000 0.000000
vn 0.000000 0.000000 -1.000000
vn 0.000000 0.000000 -1.000000
vn 0.000000 0.000000 -1.000000
vn -1.000000 0.000002 0.000001
vn -1.000000 0.000002 0.000001
vn -1.000000 0.000002 0.000001
vn -1.000000 0.000002 0.000001
vn -0.967507 -0.252844 0.000000
vn -0.967507 -0.252844 0.000000
vn -0.967507 -0.252844 0.000000
vn -0.967507 -0.252844 0.000000
vn 0.000000 0.000000 -1.000000
vn 0.000000 0.000000 -1.000000
vn 0.000000 0.000000 -1.000000
vn 0.000000 1.000000 0.000000
vn 0.000000 1.000000 0.000000
vn 0.000000 1.000000 0.000000
vn -0.579408 -0.815038 0.000000
vn -0.579408 -0.815038 0.000000
vn -0.579408 -0.815038 0.000000
vn -0.579408 -0.815038 0.000000
vn 0.000000 0.000000 -1.000000
vn 0.000000 0.000000 -1.000000
vn 0.000000 0.000000 -1.000000
vn 0.000000 -0.000000 -1.000000
vn 0.000000 -0.000000 -1.000000
vn 0.000000 -0.000000 -1.000000
vn 0.000000 0.618871 -0.785493
vn 0.000000 0.618871 -0.785493
vn 0.000000 0.618871 -0.785493
vn 0.000000 0.618871 -0.785493
vn -0.856900 0.515483 0.000000
vn -0.856900 0.515483 0.000000
vn -0.856900 0.515483 0.000000
vn -0.856900 0.515483 0.000000
vn 0.000000 0.000000 -1.000000
vn 0.000000 0.000000 -1.000000
vn 0.000000 0.000000 -1.000000
vn -0.785646 -0.618676 0.000000
vn -0.785646 -0.618676 0.000000
vn -0.785646 -0.618676 0.000000
vn -0.785646 -0.618676 0.000000
vn 0.000000 0.000000 -1.000000
vn 0.000000 0.000000 -1.000000
vn 0.000000 0.000000 -1.000000
vn 0.000000 0.000000 -1.000000
vn -1.000000 0.000000 0.000000
vn -1.000000 0.000000 0.000000
vn -1.000000 0.000000 0.000000
vn -1.000000 0.000000 0.000000
vn 0.000000 -0.000000 -1.000000
vn 0.000000 -0.000000 -1.000000
vn 0.000000 -0.000000 -1.000000
vn -0.888163 0.459530 0.000000
vn -0.888163 0.459530 0.000000
vn -0.888163 0.459530 0.000000
vn -0.888163 0.459530 0.000000
vn 0.000000 0.000000 -1.000000
vn 0.000000 0.000000 -1.000000
vn 0.000000 0.000000 -1.000000
vn 0.000000 0.000000 -1.000000
vn 0.000000 0.000000 1.000000
vn 0.000000 0.000000 1.000000
vn 0.000000 0.000000 1.000000
vn 0.000000 0.000000 1.000000
vn 1.000000 0.000000 -0.000000
vn 1.000000 0.000000 -0.000000
vn 1.000000 0.000000 -0.000000
vn -0.000001 0.000002 1.000000
vn -0.000001 0.000002 1.000000
vn -0.000001 0.000002 1.000000
vn -0.000001 0.000002 1.000000
vn 0.000000 -0.252844 0.967507
vn 0.000000 -0.252844 0.967507
vn 0.000000 -0.252844 0.967507
vn 0.000000 -0.252844 0.967507
vn 1.000000 0.000000 -0.000000
vn 1.000000 0.000000 -0.000000
vn 1.000000 0.000000 -0.000000
vn 0.000000 1.000000 0.000000
vn 0.000000 1.000000 0.000000
vn 0.000000 1.000000 0.000000
vn 0.000000 -0.815038 0.579408
vn 0.000000 -0.815038 0.579408
vn 0.000000 -0.815038 0.579408
vn 0.000000 -0.815038 0.579408
vn 1.000000 0.000000 -0.000000
vn 1.000000 0.000000 -0.000000
vn 1.000000 0.000000 -0.000000
vn 1.000000 0.000000 -0.000000
vn 1.000000 0.000000 -0.000000
vn 1.000000 0.000000 -0.000000
vn 0.785493 0.618871 0.000000
vn 0.785493 0.618871 0.000000
vn 0.785493 0.618871 0.000000
vn 0.785493 0.618871 0.000000
vn 0.000000 0.515483 0.856900
vn 0.000000 0.515483 0.856900
vn 0.000000 0.515483 0.856900
vn 0.000000 0.515483 0.856900
vn 1.000000 0.000000 -0.000000
vn 1.000000 0.000000 -0.000000
vn 1.000000 0.000000 -0.000000
vn 0.000000 -0.618675 0.785647
vn 0.000000 -0.618675 0.785647
vn 0.000000 -0.618675 0.785647
vn 0.000000 -0.618675 0.785647
vn 1.000000 0.000000 -0.000000
vn 1.000000 0.000000 -0.000000
vn 1.000000 0.000000 -0.000000
vn 1.000000 0.000000 -0.000000
vn 0.000000 0.000000 1.000000
vn 0.000000 0.000000 1.000000
vn 0.000000 0.000000 1.000000
vn 0.000000 0.000000 1.000000
vn 1.000000 -0.000000 -0.000000
vn 1.000000 -0.000000 -0.000000
vn 1.000000 -0.000000 -0.000000
vn 0.000000 0.459530 0.888163
vn 0.000000 0.459530 0.888163
vn 0.000000 0.459530 0.888163
vn 0.000000 0.459530 0.888163
vn 1.000000 0.000000 -0.000000
vn 1.000000 0.000000 -0.000000
vn 1.000000 0.000000 -0.000000
vn 1.000000 0.000000 -0.000000
vn -0.707107 -0.707107 0.000000
vn -0.707107 -0.707107 0.000000
vn -0.707107 -0.707107 0.000000
vn -0.707107 -0.707107 0.000000
vn 0.000000 -0.707107 0.707107
vn 0.000000 -0.707107 0.707107
vn 0.000000 -0.707107 0.707107
vn 0.000000 -0.707107 0.707107
vn 0.000000 -1.000000 0.000000
vn 0.000000 -1.000000 0.000000
vn 0.000000 -1.000000 0.000000
vn -1.000000 -0.000000 0.000000
vn -1.000000 -0.000000 0.000000
vn -1.000000 -0.000000 0.000000
vn -1.000000 -0.000000 0.000000
vn 0.000000 -1.000000 0.000000
vn 0.000000 -1.000000 0.000000
vn 0.000000 -1.000000 0.000000
vn 0.000000 -0.000000 1.000000
vn 0.000000 -0.000000 1.000000
vn 0.000000 -0.000000 1.000000
vn 0.000000 -0.000000 1.000000
s off
f 1/1/1 4/4/2 3/3/3 2/2/4
f 2/2/5 3/3/6 5/5/7
f 6/6/8 14/14/9 13/13/10 7/7/11
f 4/4/12 9/9/13 8/8/14 3/3/15
f 3/3/16 8/8/17 5/5/18
f 10/10/19 12/12/20 11/11/21
f 9/9/22 6/6/23 7/7/24 8/8/25
f 8/8/26 7/7/27 5/5/28
f 7/7/29 13/13/30 5/5/31
f 12/12/32 5/5/33 13/13/34 11/11/35
f 14/14/36 10/10/37 11/11/38 13/13/39
f 15/15/40 2/2/41 5/5/42
f 16/16/43 1/1/44 2/2/45 15/15/46
f 17/17/47 15/15/48 5/5/49 18/48/50
f 19/18/51 16/21/52 15/20/53 17/19/54
f 20/50/55 17/17/56 18/48/57
f 21/54/58 19/22/59 17/17/60 20/50/61
f 18/48/62 32/46/63 31/51/64 20/50/65
f 1/23/66 22/24/67 23/25/68 4/26/69
f 22/24/70 5/27/71 23/25/72
f 6/28/73 24/29/74 27/30/75 14/31/76
f 4/26/77 23/25/78 25/32/79 9/33/80
f 23/25/81 5/27/82 25/32/83
f 10/34/84 26/35/85 12/36/86
f 9/33/87 25/32/88 24/29/89 6/28/90
f 25/32/91 5/27/92 24/29/93
f 24/29/94 5/27/95 27/30/96
f 12/36/97 26/35/98 27/30/99 5/27/100
f 14/31/101 27/30/102 26/35/103 10/34/104
f 28/37/105 5/27/106 22/24/107
f 16/38/108 28/37/109 22/24/110 1/23/111
f 29/39/112 18/48/113 5/27/114 28/37/115
f 19/40/116 29/41/117 28/42/118 16/43/119
f 30/45/120 18/48/121 29/39/122
f 21/54/123 30/45/124 29/39/125 19/44/126
f 18/48/127 30/45/128 35/47/129 36/52/130
f 31/51/131 32/46/132 34/53/133 33/49/134
f 33/49/135 34/53/136 36/52/137 35/47/138
f 18/48/139 34/53/140 32/46/141
f 33/49/142 21/54/143 20/50/144 31/51/145
f 18/48/146 36/52/147 34/53/148
f 33/49/149 35/47/150 30/45/151 21/54/152
