# This file uses centimeters as units for non-parametric coordinates.

v 0.000000 -48.345253 0.000000
v 0.000000 42.083298 26.884291
v 0.000000 48.245102 0.077393
v 0.000000 24.265450 17.207216
v 0.000000 -24.739317 17.207216
v 0.000000 -30.389841 26.884289
v 0.000000 29.998905 26.884291
v 0.000000 47.609024 17.207214
v 250.000000 42.083298 26.884291
v 250.000000 48.245102 0.077393
v 250.000000 47.609024 17.207214
v 250.000000 29.998905 26.884291
v 250.000000 24.265450 17.207216
v 250.000000 -24.739317 17.207216
v 250.000000 -48.345253 0.000000
v 250.000000 -30.389841 26.884302
v 0.000000 -47.809196 17.207216
v 0.000000 -41.646820 26.884287
v 250.000000 -41.646820 26.884302
v 250.000000 -47.809196 17.207216
v 142.815674 -44.344936 33.837528
v 174.305786 -44.344936 33.837528
v 142.815674 44.344894 33.837528
v 174.305786 44.344894 33.837528
v 140.736389 45.608727 17.207218
v 176.385010 45.608727 17.207218
v 140.736389 -45.608768 17.207218
v 176.385010 -45.608768 17.207218
v 142.815674 35.541122 33.837528
v 174.305786 35.541122 33.837528
v 176.385010 35.541122 17.207218
v 140.736389 35.541122 17.207218
v 142.815674 -35.356262 33.837528
v 174.305786 -35.356262 33.837528
v 176.385010 -35.356312 17.207218
v 140.736389 -35.356312 17.207218
v 172.888916 -33.042225 17.207218
v 169.156372 -33.042225 29.857403
v 147.965027 -33.042225 29.857403
v 144.232544 -33.042225 17.207218
v 172.888916 32.857376 17.207218
v 169.156372 32.857376 29.857403
v 147.965027 32.857376 29.857403
v 144.232544 32.857376 17.207218
v 107.166992 -44.344936 33.837528
v 138.657104 -44.344936 33.837528
v 107.166992 44.344894 33.837528
v 138.657104 44.344894 33.837528
v 105.087738 45.608727 17.207218
v 105.087738 -45.608768 17.207218
v 107.166992 35.541122 33.837528
v 138.657104 35.541122 33.837528
v 105.087738 35.541122 17.207218
v 107.166992 -35.356262 33.837528
v 138.657104 -35.356262 33.837528
v 105.087738 -35.356312 17.207218
v 137.240234 -33.042225 17.207218
v 133.507721 -33.042225 29.857403
v 112.316376 -33.042225 29.857403
v 108.583862 -33.042225 17.207218
v 137.240234 32.857376 17.207218
v 133.507721 32.857376 29.857403
v 112.316376 32.857376 29.857403
v 108.583862 32.857376 17.207218
v 71.518372 -44.344936 33.837528
v 103.008484 -44.344936 33.837528
v 71.518372 44.344894 33.837528
v 103.008484 44.344894 33.837528
v 69.439117 45.608727 17.207218
v 69.439117 -45.608768 17.207218
v 71.518372 35.541122 33.837528
v 103.008484 35.541122 33.837528
v 69.439117 35.541122 17.207218
v 71.518372 -35.356262 33.837528
v 103.008484 -35.356262 33.837528
v 69.439117 -35.356312 17.207218
v 101.591614 -33.042225 17.207218
v 97.859100 -33.042225 29.857403
v 76.667755 -33.042225 29.857403
v 72.935242 -33.042225 17.207218
v 101.591614 32.857376 17.207218
v 97.859100 32.857376 29.857403
v 76.667755 32.857376 29.857403
v 72.935242 32.857376 17.207218
v 97.859100 -22.663361 29.857403
v 97.859100 1.796055 29.857403
v 94.933350 -10.492970 29.857403
v 99.628632 -9.901913 23.859982
v 147.965149 -12.219334 29.857403
v 147.965027 8.083214 29.857403
v 146.872620 -2.493732 26.155148
v 150.568604 -1.667145 29.857403
v 169.156372 2.387424 29.857403
v 169.156372 26.592751 29.857403
v 166.171875 15.457649 29.857403
v 170.450195 15.932507 25.472462
vt 0.333333 0.307715
vt 0.333333 0.263766
vt 0.666667 0.263766
vt 0.666667 0.307715
vt 0.875986 0.614760
vt 0.870605 0.685711
vt 0.870605 0.614923
vt 0.894927 0.624677
vt 0.919690 0.656834
vt 0.963464 0.656834
vt 0.999002 0.685711
vt 0.970033 0.649936
vt 0.990088 0.649936
vt 0.999002 0.663973
vt 0.870605 0.691909
vt 0.875985 0.762858
vt 0.870605 0.762697
vt 0.894927 0.752943
vt 0.919690 0.720786
vt 0.999002 0.691909
vt 0.963464 0.720786
vt 0.970033 0.727684
vt 0.999002 0.713647
vt 0.990088 0.727684
vt 0.333666 0.517516
vt 0.333666 0.495778
vt 0.666334 0.495778
vt 0.666334 0.517516
vt 0.333666 0.531552
vt 0.666334 0.531552
vt 0.333666 0.537937
vt 0.333666 0.608519
vt 0.666334 0.537937
vt 0.666334 0.608519
vt 0.333666 0.360001
vt 0.666334 0.360001
vt 0.666334 0.378942
vt 0.333666 0.378942
vt 0.666334 0.384323
vt 0.333666 0.384323
vt 0.333666 0.360136
vt 0.333666 0.488800
vt 0.666334 0.360136
vt 0.666334 0.488800
vt 0.333666 0.257197
vt 0.333666 0.237142
vt 0.666334 0.237142
vt 0.666334 0.257197
vt 0.537222 0.566466
vt 0.596112 0.566466
vt 0.596112 0.582930
vt 0.537222 0.582930
vt 0.600000 0.585293
vt 0.533333 0.585293
vt 0.533333 0.414707
vt 0.600000 0.414707
vt 0.596112 0.417070
vt 0.537222 0.417070
vt 0.600000 0.566466
vt 0.533333 0.566466
vt 0.537222 0.433880
vt 0.596112 0.433880
vt 0.586482 0.438208
vt 0.546852 0.438208
vt 0.600000 0.433880
vt 0.593462 0.438208
vt 0.533333 0.433880
vt 0.539871 0.438208
vt 0.588901 0.529795
vt 0.586482 0.504465
vt 0.546852 0.561447
vt 0.580900 0.528907
vt 0.586482 0.549731
vt 0.586482 0.561447
vt 0.539871 0.561447
vt 0.544809 0.495336
vt 0.546852 0.515116
vt 0.593462 0.561447
vt 0.470555 0.566466
vt 0.529445 0.566466
vt 0.529445 0.582930
vt 0.470555 0.582930
vt 0.466667 0.585293
vt 0.466667 0.414707
vt 0.529445 0.417070
vt 0.470555 0.417070
vt 0.466667 0.566466
vt 0.470555 0.433880
vt 0.529445 0.433880
vt 0.519815 0.438208
vt 0.480185 0.438208
vt 0.526795 0.438208
vt 0.466667 0.433880
vt 0.473205 0.438208
vt 0.526795 0.561447
vt 0.519815 0.561447
vt 0.480185 0.561447
vt 0.473205 0.561447
vt 0.403888 0.566466
vt 0.462778 0.566466
vt 0.462778 0.582930
vt 0.403888 0.582930
vt 0.400000 0.585293
vt 0.400000 0.414707
vt 0.462778 0.417070
vt 0.403888 0.417070
vt 0.400000 0.566466
vt 0.403888 0.433880
vt 0.462778 0.433880
vt 0.453148 0.438208
vt 0.413518 0.438208
vt 0.460129 0.438208
vt 0.400000 0.433880
vt 0.406538 0.438208
vt 0.456457 0.481482
vt 0.453148 0.457617
vt 0.413518 0.561447
vt 0.447677 0.480377
vt 0.453148 0.503359
vt 0.453148 0.561447
vt 0.406538 0.561447
vt 0.460129 0.561447
vt 0.551721 0.496882
vt 0.546852 0.477149
vn 1.000000 0.000000 0.000000
vn 1.000000 0.000000 0.000000
vn 1.000000 0.000000 0.000000
vn 1.000000 0.000000 0.000000
vn 1.000000 0.000000 0.000000
vn 1.000000 0.000000 0.000000
vn 1.000000 0.000000 0.000000
vn 1.000000 0.000000 0.000000
vn 1.000000 0.000000 0.000000
vn 1.000000 0.000000 0.000000
vn 1.000000 0.000000 0.000000
vn 1.000000 0.000000 0.000000
vn 1.000000 0.000000 0.000000
vn 1.000000 0.000000 0.000000
vn 1.000000 0.000000 0.000000
vn 1.000000 0.000000 0.000000
vn 1.000000 0.000000 0.000000
vn 1.000000 0.000000 0.000000
vn 1.000000 0.000000 0.000000
vn 1.000000 0.000000 0.000000
vn -1.000000 0.000000 0.000000
vn -1.000000 0.000000 0.000000
vn -1.000000 0.000000 0.000000
vn -1.000000 0.000000 0.000000
vn -1.000000 0.000000 0.000000
vn -1.000000 0.000000 0.000000
vn -1.000000 0.000000 0.000000
vn -1.000000 0.000000 0.000000
vn -1.000000 0.000000 0.000000
vn -1.000000 0.000000 0.000000
vn -1.000000 0.000000 0.000000
vn -1.000000 0.000000 0.000000
vn -1.000000 0.000000 0.000000
vn -1.000000 0.000000 0.000000
vn -1.000000 0.000000 0.000000
vn -1.000000 0.000000 0.000000
vn -1.000000 0.000000 0.000000
vn -1.000000 0.000000 0.000000
vn -1.000000 0.000000 0.000000
vn -1.000000 0.000000 0.000000
vn -0.000000 0.863563 0.504241
vn -0.000000 0.863563 0.504241
vn -0.000000 0.863563 0.504241
vn -0.000000 0.863563 0.504241
vn 0.000000 0.000000 1.000000
vn 0.000000 0.000000 1.000000
vn 0.000000 0.000000 1.000000
vn 0.000000 0.000000 1.000000
vn 0.000000 -0.860335 0.509730
vn 0.000000 -0.860335 0.509730
vn 0.000000 -0.860335 0.509730
vn 0.000000 -0.860335 0.509730
vn 0.000000 0.000000 1.000000
vn 0.000000 0.000000 1.000000
vn 0.000000 0.000000 1.000000
vn 0.000000 0.000000 1.000000
vn 0.000000 0.868399 0.495866
vn 0.000000 0.868399 0.495866
vn 0.000000 0.868399 0.495866
vn 0.000000 0.868399 0.495866
vn 0.000000 0.000801 -1.000000
vn 0.000000 0.000801 -1.000000
vn 0.000000 0.000801 -1.000000
vn 0.000000 0.000801 -1.000000
vn -0.000000 -0.843494 0.537138
vn -0.000000 -0.843494 0.537138
vn -0.000000 -0.843494 0.537138
vn -0.000000 -0.843494 0.537138
vn 0.000000 -0.999515 0.031138
vn 0.000000 -0.999515 0.031138
vn 0.000000 -0.999515 0.031138
vn 0.000000 -0.999515 0.031138
vn -0.000000 -0.000000 1.000000
vn -0.000000 -0.000000 1.000000
vn -0.000000 -0.000000 1.000000
vn -0.000000 -0.000000 1.000000
vn 0.000000 0.999311 0.037107
vn 0.000000 0.999311 0.037107
vn 0.000000 0.999311 0.037107
vn 0.000000 0.999311 0.037107
vn 0.000000 0.000000 1.000000
vn 0.000000 0.000000 1.000000
vn 0.000000 0.000000 1.000000
vn 0.000000 0.000000 1.000000
vn 0.000000 0.997125 0.075777
vn 0.000000 0.997125 0.075777
vn 0.000000 0.997125 0.075777
vn 0.000000 0.997125 0.075777
vn -0.000000 -0.997125 0.075777
vn -0.000000 -0.997125 0.075777
vn -0.000000 -0.997125 0.075777
vn -0.000000 -0.997125 0.075777
vn 0.992275 0.000000 0.124062
vn 0.992275 0.000000 0.124062
vn 0.992275 0.000000 0.124062
vn 0.992275 0.000000 0.124062
vn -0.992275 0.000000 0.124062
vn -0.992275 0.000000 0.124062
vn -0.992275 0.000000 0.124062
vn -0.992275 0.000000 0.124062
vn 0.000000 0.864506 0.502622
vn 0.000000 0.864506 0.502622
vn 0.000000 0.864506 0.502622
vn 0.000000 0.864506 0.502622
vn 0.438705 0.894402 0.087075
vn 0.438705 0.894402 0.087075
vn 0.438705 0.894402 0.087075
vn 0.438705 0.894402 0.087075
vn -0.438705 0.894403 0.087075
vn -0.438705 0.894403 0.087075
vn -0.438705 0.894403 0.087075
vn -0.438705 0.894403 0.087075
vn 0.000000 0.000000 1.000000
vn 0.000000 0.000000 1.000000
vn 0.000000 0.000000 1.000000
vn 0.000000 0.000000 1.000000
vn 0.992274 0.000000 0.124062
vn 0.992274 0.000000 0.124062
vn 0.992274 0.000000 0.124062
vn 0.992274 0.000000 0.124062
vn -0.992274 0.000000 0.124062
vn -0.992274 0.000000 0.124062
vn -0.992274 0.000000 0.124062
vn -0.992274 0.000000 0.124062
vn 0.959121 -0.000001 0.282996
vn 0.959121 -0.000001 0.282996
vn 0.959121 -0.000001 0.282996
vn 0.959121 -0.000001 0.282996
vn 0.000000 0.000000 1.000000
vn 0.000000 0.000000 1.000000
vn 0.000000 0.000000 1.000000
vn 0.000000 0.000000 1.000000
vn -0.959121 0.000001 0.282996
vn -0.959121 0.000001 0.282996
vn -0.959121 0.000001 0.282996
vn -0.959121 0.000001 0.282996
vn 0.492091 -0.865047 0.097673
vn 0.492091 -0.865047 0.097673
vn 0.492091 -0.865047 0.097673
vn 0.492091 -0.865047 0.097673
vn -0.000000 -0.829124 0.559065
vn -0.000000 -0.829124 0.559065
vn -0.000000 -0.829124 0.559065
vn -0.000000 -0.829124 0.559065
vn -0.492090 -0.865048 0.097673
vn -0.492090 -0.865048 0.097673
vn -0.492090 -0.865048 0.097673
vn -0.492090 -0.865048 0.097673
vn 0.000000 0.000000 1.000000
vn 0.000000 0.000000 1.000000
vn 0.000000 0.000000 1.000000
vn 0.000000 0.000000 1.000000
vn 0.000000 0.997125 0.075777
vn 0.000000 0.997125 0.075777
vn 0.000000 0.997125 0.075777
vn 0.000000 0.997125 0.075777
vn -0.000000 -0.997125 0.075777
vn -0.000000 -0.997125 0.075777
vn -0.000000 -0.997125 0.075777
vn -0.000000 -0.997125 0.075777
vn 0.992275 0.000000 0.124062
vn 0.992275 0.000000 0.124062
vn 0.992275 0.000000 0.124062
vn 0.992275 0.000000 0.124062
vn -0.992275 0.000000 0.124062
vn -0.992275 0.000000 0.124062
vn -0.992275 0.000000 0.124062
vn -0.992275 0.000000 0.124062
vn 0.000000 0.864506 0.502622
vn 0.000000 0.864506 0.502622
vn 0.000000 0.864506 0.502622
vn 0.000000 0.864506 0.502622
vn 0.438706 0.894402 0.087075
vn 0.438706 0.894402 0.087075
vn 0.438706 0.894402 0.087075
vn 0.438706 0.894402 0.087075
vn -0.438707 0.894402 0.087075
vn -0.438707 0.894402 0.087075
vn -0.438707 0.894402 0.087075
vn -0.438707 0.894402 0.087075
vn 0.000000 0.000000 1.000000
vn 0.000000 0.000000 1.000000
vn 0.000000 0.000000 1.000000
vn 0.000000 0.000000 1.000000
vn 0.992274 0.000000 0.124062
vn 0.992274 0.000000 0.124062
vn 0.992274 0.000000 0.124062
vn 0.992274 0.000000 0.124062
vn -0.992274 0.000000 0.124062
vn -0.992274 0.000000 0.124062
vn -0.992274 0.000000 0.124062
vn -0.992274 0.000000 0.124062
vn 0.959122 0.000000 0.282995
vn 0.959122 0.000000 0.282995
vn 0.959122 0.000000 0.282995
vn 0.959122 0.000000 0.282995
vn 0.000000 0.000000 1.000000
vn 0.000000 0.000000 1.000000
vn 0.000000 0.000000 1.000000
vn 0.000000 0.000000 1.000000
vn -0.959122 0.000000 0.282995
vn -0.959122 0.000000 0.282995
vn -0.959122 0.000000 0.282995
vn -0.959122 0.000000 0.282995
vn 0.492091 -0.865047 0.097673
vn 0.492091 -0.865047 0.097673
vn 0.492091 -0.865047 0.097673
vn 0.492091 -0.865047 0.097673
vn -0.000000 -0.829124 0.559065
vn -0.000000 -0.829124 0.559065
vn -0.000000 -0.829124 0.559065
vn -0.000000 -0.829124 0.559065
vn -0.492092 -0.865046 0.097673
vn -0.492092 -0.865046 0.097673
vn -0.492092 -0.865046 0.097673
vn -0.492092 -0.865046 0.097673
vn 0.000000 0.000000 1.000000
vn 0.000000 0.000000 1.000000
vn 0.000000 0.000000 1.000000
vn 0.000000 0.000000 1.000000
vn 0.000000 0.997125 0.075777
vn 0.000000 0.997125 0.075777
vn 0.000000 0.997125 0.075777
vn 0.000000 0.997125 0.075777
vn -0.000000 -0.997125 0.075777
vn -0.000000 -0.997125 0.075777
vn -0.000000 -0.997125 0.075777
vn -0.000000 -0.997125 0.075777
vn 0.992275 0.000000 0.124062
vn 0.992275 0.000000 0.124062
vn 0.992275 0.000000 0.124062
vn 0.992275 0.000000 0.124062
vn -0.992275 0.000000 0.124062
vn -0.992275 0.000000 0.124062
vn -0.992275 0.000000 0.124062
vn -0.992275 0.000000 0.124062
vn 0.000000 0.864506 0.502622
vn 0.000000 0.864506 0.502622
vn 0.000000 0.864506 0.502622
vn 0.000000 0.864506 0.502622
vn 0.438706 0.894402 0.087075
vn 0.438706 0.894402 0.087075
vn 0.438706 0.894402 0.087075
vn 0.438706 0.894402 0.087075
vn -0.438707 0.894402 0.087075
vn -0.438707 0.894402 0.087075
vn -0.438707 0.894402 0.087075
vn -0.438707 0.894402 0.087075
vn 0.000000 0.000000 1.000000
vn 0.000000 0.000000 1.000000
vn 0.000000 0.000000 1.000000
vn 0.000000 0.000000 1.000000
vn 0.992274 0.000000 0.124062
vn 0.992274 0.000000 0.124062
vn 0.992274 0.000000 0.124062
vn 0.992274 0.000000 0.124062
vn -0.992274 0.000000 0.124062
vn -0.992274 0.000000 0.124062
vn -0.992274 0.000000 0.124062
vn -0.992274 0.000000 0.124062
vn 0.959122 0.000002 0.282994
vn 0.959122 0.000002 0.282994
vn 0.959122 0.000002 0.282994
vn 0.959122 0.000002 0.282994
vn 0.000000 0.000000 1.000000
vn 0.000000 0.000000 1.000000
vn 0.000000 0.000000 1.000000
vn 0.000000 0.000000 1.000000
vn -0.959122 0.000000 0.282995
vn -0.959122 0.000000 0.282995
vn -0.959122 0.000000 0.282995
vn -0.959122 0.000000 0.282995
vn 0.492091 -0.865047 0.097673
vn 0.492091 -0.865047 0.097673
vn 0.492091 -0.865047 0.097673
vn 0.492091 -0.865047 0.097673
vn -0.000000 -0.829123 0.559066
vn -0.000000 -0.829123 0.559066
vn -0.000000 -0.829123 0.559066
vn -0.000000 -0.829123 0.559066
vn -0.492092 -0.865046 0.097673
vn -0.492092 -0.865046 0.097673
vn -0.492092 -0.865046 0.097673
vn -0.492092 -0.865046 0.097673
vn 0.765087 0.183925 0.617101
vn 0.765087 0.183925 0.617101
vn 0.765087 0.183925 0.617101
vn 0.782444 -0.186282 0.594205
vn 0.782444 -0.186282 0.594205
vn 0.782444 -0.186282 0.594205
vn -0.716015 0.176659 0.675363
vn -0.716015 0.176659 0.675363
vn -0.716015 0.176659 0.675363
vn -0.675660 -0.180417 0.714796
vn -0.675660 -0.180417 0.714796
vn -0.675660 -0.180417 0.714796
vn 0.697923 0.159368 0.698216
vn 0.697923 0.159368 0.698216
vn 0.697923 0.159368 0.698216
vn 0.712829 -0.191059 0.674812
vn 0.712829 -0.191059 0.674812
vn 0.712829 -0.191059 0.674812
vn 0.959121 0.000002 0.282995
vn 0.959121 0.000002 0.282995
vn 0.959121 0.000002 0.282995
vn 0.959121 0.000002 0.282995
vn 0.959122 0.000000 0.282993
vn 0.959122 0.000000 0.282993
vn 0.959122 0.000000 0.282993
vn 0.000000 0.000000 1.000000
vn 0.000000 0.000000 1.000000
vn 0.000000 0.000000 1.000000
vn 0.000000 0.000000 1.000000
vn -0.000000 0.000000 1.000000
vn -0.000000 0.000000 1.000000
vn -0.000000 0.000000 1.000000
vn -0.000000 0.000000 1.000000
vn 0.000000 0.000000 1.000000
vn 0.000000 0.000000 1.000000
vn 0.000000 0.000000 1.000000
vn 0.000000 0.000000 1.000000
vn -0.959119 -0.000001 0.283002
vn -0.959119 -0.000001 0.283002
vn -0.959119 -0.000001 0.283002
vn -0.959119 -0.000001 0.283002
vn -0.959122 0.000000 0.282991
vn -0.959122 0.000000 0.282991
vn -0.959122 0.000000 0.282991
vn 0.959122 -0.000001 0.282993
vn 0.959122 -0.000001 0.282993
vn 0.959122 -0.000001 0.282993
vn 0.959122 -0.000001 0.282993
vn 0.959120 0.000000 0.283000
vn 0.959120 0.000000 0.283000
vn 0.959120 0.000000 0.283000
vn 0.000000 0.000000 1.000000
vn 0.000000 0.000000 1.000000
vn 0.000000 0.000000 1.000000
vn 0.000000 0.000000 1.000000
vn 0.000000 0.000000 1.000000
vn 0.000000 0.000000 1.000000
vn 0.000000 0.000000 1.000000
s off
f 9/5/1 10/6/2 11/7/3
f 10/6/4 9/5/5 12/8/6
f 10/6/7 12/8/8 13/9/9
f 14/10/10 15/11/11 10/6/12 13/9/13
f 16/12/14 15/11/15 14/10/16
f 15/11/17 16/12/18 19/13/19 20/14/20
f 3/15/21 2/16/22 8/17/23
f 2/16/24 3/15/25 7/18/26
f 7/18/27 3/15/28 4/19/29
f 3/15/30 1/20/31 5/21/32 4/19/33
f 1/20/34 6/22/35 5/21/36
f 1/20/37 17/23/38 18/24/39 6/22/40
f 5/2/41 6/45/42 16/48/43 14/3/44
f 4/1/45 5/2/46 14/3/47 13/4/48
f 4/1/49 13/4/50 12/36/51 7/35/52
f 7/35/53 12/36/54 9/37/55 2/38/56
f 11/39/57 8/40/58 2/38/59 9/37/60
f 1/42/61 3/41/62 10/43/63 15/44/64
f 18/29/65 17/25/66 20/28/67 19/30/68
f 17/25/69 1/26/70 15/27/71 20/28/72
f 6/45/73 18/46/74 19/47/75 16/48/76
f 8/31/77 11/33/78 10/34/79 3/32/80
f 29/49/81 30/50/82 24/51/83 23/52/84
f 23/52/85 24/51/86 26/53/87 25/54/88
f 27/55/89 28/56/90 22/57/91 21/58/92
f 30/50/93 31/59/94 26/53/95 24/51/96
f 32/60/97 29/49/98 23/52/99 25/54/100
f 33/61/101 34/62/102 38/63/103 39/64/104
f 34/62/105 35/65/106 37/66/107 38/63/108
f 36/67/109 33/61/110 39/64/111 40/68/112
f 21/58/113 22/57/114 34/62/115 33/61/116
f 22/57/117 28/56/118 35/65/119 34/62/120
f 27/55/121 21/58/122 33/61/123 36/67/124
f 38/63/125 37/66/126 96/69/127 93/70/128
f 43/71/129 95/72/130 94/73/131 42/74/132
f 44/75/133 91/76/134 90/77/135 43/71/136
f 42/74/137 41/78/138 31/59/139 30/50/140
f 43/71/141 42/74/142 30/50/143 29/49/144
f 44/75/145 43/71/146 29/49/147 32/60/148
f 51/79/149 52/80/150 48/81/151 47/82/152
f 47/82/153 48/81/154 25/54/155 49/83/156
f 50/84/157 27/55/158 46/85/159 45/86/160
f 52/80/161 32/60/162 25/54/163 48/81/164
f 53/87/165 51/79/166 47/82/167 49/83/168
f 54/88/169 55/89/170 58/90/171 59/91/172
f 55/89/173 36/67/174 57/92/175 58/90/176
f 56/93/177 54/88/178 59/91/179 60/94/180
f 45/86/181 46/85/182 55/89/183 54/88/184
f 46/85/185 27/55/186 36/67/187 55/89/188
f 50/84/189 45/86/190 54/88/191 56/93/192
f 58/90/193 57/92/194 61/95/195 62/96/196
f 59/91/197 58/90/198 62/96/199 63/97/200
f 60/94/201 59/91/202 63/97/203 64/98/204
f 62/96/205 61/95/206 32/60/207 52/80/208
f 63/97/209 62/96/210 52/80/211 51/79/212
f 64/98/213 63/97/214 51/79/215 53/87/216
f 71/99/217 72/100/218 68/101/219 67/102/220
f 67/102/221 68/101/222 49/83/223 69/103/224
f 70/104/225 50/84/226 66/105/227 65/106/228
f 72/100/229 53/87/230 49/83/231 68/101/232
f 73/107/233 71/99/234 67/102/235 69/103/236
f 74/108/237 75/109/238 78/110/239 79/111/240
f 75/109/241 56/93/242 77/112/243 78/110/244
f 76/113/245 74/108/246 79/111/247 80/114/248
f 65/106/249 66/105/250 75/109/251 74/108/252
f 66/105/253 50/84/254 56/93/255 75/109/256
f 70/104/257 65/106/258 74/108/259 76/113/260
f 78/110/261 77/112/262 88/115/263 85/116/264
f 83/117/265 87/118/266 86/119/267 82/120/268
f 80/114/269 79/111/270 83/117/271 84/121/272
f 82/120/273 81/122/274 53/87/275 72/100/276
f 83/117/277 82/120/278 72/100/279 71/99/280
f 84/121/281 83/117/282 71/99/283 73/107/284
f 85/116/285 88/115/286 87/118/287
f 87/118/288 88/115/289 86/119/290
f 92/123/291 91/76/292 89/124/293
f 90/77/294 91/76/295 92/123/296
f 93/70/297 96/69/298 95/72/299
f 95/72/300 96/69/301 94/73/302
f 96/69/303 41/78/304 42/74/305 94/73/306
f 96/69/307 37/66/308 41/78/309
f 92/123/310 38/63/311 93/70/312 95/72/313
f 92/123/314 95/72/315 43/71/316 90/77/317
f 39/64/318 38/63/319 92/123/320 89/124/321
f 40/68/322 39/64/323 89/124/324 91/76/325
f 40/68/326 91/76/327 44/75/328
f 88/115/329 81/122/330 82/120/331 86/119/332
f 88/115/333 77/112/334 81/122/335
f 79/111/336 78/110/337 85/116/338 87/118/339
f 79/111/340 87/118/341 83/117/342
