# This file uses centimeters as units for non-parametric coordinates.

v 107.785522 205.044617 0.071289
v 107.785522 147.307709 0.071289
v 142.289307 147.389771 0.071289
v 142.289307 205.044617 0.071289
v 107.785522 205.044617 -0.071289
v 107.785522 147.307709 -0.071289
v 142.289307 147.389771 -0.071289
v 142.289307 205.044617 -0.071289
v 107.785522 176.176163 0.071289
v 142.289307 176.217194 0.071289
v 142.289307 176.217194 -0.071289
v 107.785522 176.176163 -0.071289
v 132.431152 208.715744 23.389893
v 138.526367 208.715744 23.389893
v 132.431152 220.360062 23.389893
v 138.526367 220.360062 23.389893
v 132.431152 220.360062 -23.389893
v 138.526367 220.360062 -23.389893
v 132.431152 208.715744 -23.389893
v 138.526367 208.715744 -23.389893
v 111.472656 208.715744 23.389893
v 117.567871 208.715744 23.389893
v 111.472656 220.360062 23.389893
v 117.567871 220.360062 23.389893
v 111.472656 220.360062 -23.389893
v 117.567871 220.360062 -23.389893
v 111.472656 208.715744 -23.389893
v 117.567871 208.715744 -23.389893
v 108.243164 220.360062 18.912445
v 120.729004 220.360062 18.912445
v 120.729004 208.715744 18.912445
v 108.243164 208.715744 18.912445
v 129.270020 220.360062 18.912445
v 141.755859 220.360062 18.912445
v 141.755859 208.715744 18.912445
v 129.270020 208.715744 18.912445
v 129.270020 208.715744 -18.912445
v 141.755859 208.715744 -18.912445
v 141.755859 220.360062 -18.912445
v 129.270020 220.360062 -18.912445
v 108.243164 208.715744 -18.912445
v 120.729004 208.715744 -18.912445
v 120.729004 220.360062 -18.912445
v 108.243164 220.360062 -18.912445
v 101.275635 204.548737 25.033173
v 148.723389 204.548737 25.033173
v 101.275635 224.578339 25.033173
v 148.723389 224.578339 25.033173
v 101.275635 224.578339 -25.033173
v 148.723389 224.578339 -25.033173
v 101.275635 204.548737 -25.033173
v 148.723389 204.548737 -25.033173
v 103.769043 209.524277 20.103912
v 146.229980 209.524277 20.103912
v 146.229980 209.524277 -20.103912
v 103.769043 209.524277 -20.103912
v 101.275635 220.181854 -25.033173
v 148.723389 220.181854 -25.033173
v 148.723389 220.181839 25.033173
v 101.275635 220.181839 25.033173
v 101.275635 209.030701 25.033173
v 148.723389 209.030701 25.033173
v 148.723389 209.030701 -25.033173
v 101.275635 209.030701 -25.033173
v 103.769043 219.440231 20.103912
v 146.229980 219.440231 20.103912
v 146.229980 219.440231 -20.103912
v 103.769043 219.440231 -20.103912
v 101.275635 137.213242 21.222565
v 148.723389 137.213242 21.222565
v 101.275635 147.615372 21.222565
v 148.723389 147.615372 21.222565
v 101.275635 147.615372 -21.222565
v 148.723389 147.615372 -21.222565
v 101.275635 137.213242 -21.222565
v 148.723389 137.213242 -21.222565
v 249.999268 0.000000 -11.250000
v 249.999268 0.000000 0.000000
v 0.000000 0.000000 0.000000
v 0.000000 0.000000 -11.250000
v 249.999268 0.000000 11.250000
v 0.000000 0.000000 11.250000
v 0.000000 300.574280 0.000000
v 0.000000 299.999817 -11.250000
v 0.000000 299.999817 11.250000
v 249.999268 300.574280 0.000000
v 249.999268 299.999817 -11.250000
v 249.999268 299.999817 11.250000
v 108.003662 147.128235 0.000000
v 108.003662 205.810272 0.000000
v 141.995361 205.810272 0.000000
v 141.995361 147.128235 0.000000
v 103.504105 147.128235 11.250000
v 108.003662 147.128235 6.750450
v 103.504105 205.810272 11.250000
v 108.003662 205.810272 6.750450
v 146.494904 147.128235 11.250000
v 141.995361 147.128235 6.750450
v 146.494904 205.810272 11.250000
v 141.995361 205.810272 6.750450
v 108.003662 147.128235 -6.750450
v 103.504105 147.128235 -11.250000
v 108.003662 205.810272 -6.750450
v 103.504105 205.810272 -11.250000
v 141.995361 147.128235 -6.750450
v 146.494904 147.128235 -11.250000
v 141.995361 205.810272 -6.750450
v 146.494904 205.810272 -11.250000
vt 0.005462 0.997253
vt 0.005462 0.003785
vt 0.997215 0.003784
vt 0.997215 0.997253
vt 0.005462 0.997253
vt 0.997215 0.997253
vt 0.997215 0.003784
vt 0.005462 0.003785
vt 0.005462 0.003784
vt 0.997215 0.003785
vt 0.997215 0.997253
vt 0.005462 0.997253
vt 0.997215 0.003785
vt 0.005462 0.003784
vt 0.005462 0.997253
vt 0.997215 0.997253
vt 0.281457 0.267564
vt 0.281385 0.267564
vt 0.281377 0.267430
vt 0.281449 0.267430
vt 0.281559 0.267328
vt 0.281495 0.267328
vt 0.281502 0.267447
vt 0.281565 0.267447
vt 0.281703 0.267564
vt 0.281631 0.267564
vt 0.281625 0.267430
vt 0.281697 0.267430
vt 0.281778 0.267328
vt 0.281714 0.267328
vt 0.281719 0.267447
vt 0.281783 0.267447
vt 0.281597 0.267419
vt 0.281743 0.267419
vt 0.281604 0.267551
vt 0.281749 0.267551
vt 0.281352 0.267419
vt 0.281497 0.267419
vt 0.281360 0.267551
vt 0.281505 0.267551
vt 0.281458 0.267457
vt 0.281589 0.267457
vt 0.281451 0.267336
vt 0.281583 0.267337
vt 0.281679 0.267457
vt 0.281810 0.267457
vt 0.281673 0.267337
vt 0.281805 0.267337
vt 0.281794 0.267432
vt 0.281296 0.267432
vt 0.281251 0.267436
vt 0.281815 0.267436
vt 0.281813 0.267385
vt 0.281247 0.267384
vt 0.281390 0.267281
vt 0.281885 0.267281
vt 0.281887 0.267327
vt 0.281393 0.267326
vt 0.281407 0.267344
vt 0.281854 0.267344
vt 0.281892 0.267486
vt 0.281403 0.267485
vt 0.281264 0.267616
vt 0.281822 0.267616
vt 0.281820 0.267565
vt 0.281260 0.267564
vt 0.281304 0.267545
vt 0.281798 0.267546
vt 0.281400 0.267440
vt 0.281414 0.267446
vt 0.281858 0.267446
vt 0.281890 0.267440
vt 0.283098 0.245798
vt 0.282394 0.245680
vt 0.282384 0.245509
vt 0.283098 0.245618
vt 0.282739 0.245471
vt 0.282735 0.245316
vt 0.283384 0.245402
vt 0.283380 0.245564
vt 0.281852 0.268281
vt 0.281324 0.268280
vt 0.281316 0.268173
vt 0.281848 0.268173
vt 0.281426 0.268008
vt 0.281903 0.268008
vt 0.281432 0.268105
vt 0.281906 0.268106
vt 0.998542 0.028023
vt 0.001423 0.028023
vt -0.038908 0.998605
vt -0.038908 0.001511
vt 1.038921 0.998605
vt 1.038921 0.001511
vt 0.001423 0.972453
vt 0.998542 0.972453
vt 0.414276 0.685477
vt 0.414276 0.490456
vt 0.001500 0.001500
vt 0.001500 0.998500
vt 0.414276 0.490456
vt 0.414276 0.685477
vt 0.151028 0.308065
vt 0.150998 0.308059
vt 0.151222 0.308026
vt 0.151037 0.308080
vt 0.001500 0.998500
vt 0.001500 0.001500
vt 0.151200 0.307740
vt 0.151219 0.307731
vt 0.150984 0.307754
vt 0.151212 0.307750
vt 0.585723 0.685477
vt 0.585723 0.490456
vt 0.998500 0.001500
vt 0.151205 0.308039
vt 0.151216 0.308053
vt 0.998500 0.998500
vt 0.998500 0.001500
vt 0.151015 0.307758
vt 0.151024 0.307769
vt 0.151243 0.308075
vt 0.151223 0.307760
vt 0.151045 0.308095
vt 0.151029 0.307788
vt 0.585723 0.490456
vt 0.585723 0.685477
vt 0.998500 0.998500
vt 0.432220 0.490456
vt 0.432220 0.685477
vt 0.567779 0.490456
vt 0.567779 0.685477
vt 0.432220 0.490456
vt 0.432220 0.685477
vt 0.151033 0.307780
vt 0.567779 0.490456
vt 0.151043 0.308106
vt 0.567779 0.685477
vt 0.151241 0.307766
vt 0.151227 0.308067
vt 0.001423 0.998623
vt 0.001423 0.998623
vt 0.998542 0.998623
vt 0.998542 0.998623
vt 0.998542 0.998623
vt 0.998542 0.998623
vt 0.001423 0.998623
vt 0.001423 0.998623
vt 0.998542 0.001434
vt 0.998542 0.001434
vt 0.998542 0.001434
vt 0.998542 0.001434
vt 0.001423 0.001434
vt 0.001423 0.001434
vt 0.001423 0.001434
vt 0.001423 0.001434
vn 0.000000 0.000000 1.000000
vn 0.000000 0.000000 1.000000
vn 0.000000 0.000000 1.000000
vn 0.000000 0.000000 1.000000
vn 0.000000 0.000000 -1.000000
vn 0.000000 0.000000 -1.000000
vn 0.000000 0.000000 -1.000000
vn 0.000000 0.000000 -1.000000
vn 0.000000 0.000000 1.000000
vn 0.000000 0.000000 1.000000
vn 0.000000 0.000000 1.000000
vn 0.000000 0.000000 1.000000
vn 0.000000 0.000000 -1.000000
vn 0.000000 0.000000 -1.000000
vn 0.000000 0.000000 -1.000000
vn 0.000000 0.000000 -1.000000
vn 0.000000 0.000000 1.000000
vn 0.000000 0.000000 1.000000
vn 0.000000 0.000000 1.000000
vn 0.000000 0.000000 1.000000
vn 0.000000 0.000000 -1.000000
vn 0.000000 0.000000 -1.000000
vn 0.000000 0.000000 -1.000000
vn 0.000000 0.000000 -1.000000
vn 0.000000 0.000000 1.000000
vn 0.000000 0.000000 1.000000
vn 0.000000 0.000000 1.000000
vn 0.000000 0.000000 1.000000
vn 0.000000 0.000000 -1.000000
vn 0.000000 0.000000 -1.000000
vn 0.000000 0.000000 -1.000000
vn 0.000000 0.000000 -1.000000
vn 0.000000 1.000000 -0.000003
vn 0.000000 1.000000 -0.000003
vn 0.000000 1.000000 -0.000003
vn 0.000000 1.000000 -0.000003
vn 0.816918 0.000000 0.576754
vn 0.816918 0.000000 0.576754
vn 0.816918 0.000000 0.576754
vn 0.816918 0.000000 0.576754
vn 0.000000 -1.000000 -0.000001
vn 0.000000 -1.000000 -0.000001
vn 0.000000 -1.000000 -0.000001
vn 0.000000 -1.000000 -0.000001
vn -0.811042 0.000000 0.584989
vn -0.811042 0.000000 0.584989
vn -0.811042 0.000000 0.584989
vn -0.811042 0.000000 0.584989
vn 0.000000 1.000000 0.000000
vn 0.000000 1.000000 0.000000
vn 0.000000 1.000000 0.000000
vn 0.000000 1.000000 0.000000
vn 0.811042 0.000000 0.584989
vn 0.811042 0.000000 0.584989
vn 0.811042 0.000000 0.584989
vn 0.811042 0.000000 0.584989
vn 0.000000 -1.000000 0.000000
vn 0.000000 -1.000000 0.000000
vn 0.000000 -1.000000 0.000000
vn 0.000000 -1.000000 0.000000
vn -0.816918 0.000000 0.576754
vn -0.816918 0.000000 0.576754
vn -0.816918 0.000000 0.576754
vn -0.816918 0.000000 0.576754
vn 0.000000 -1.000000 0.000003
vn 0.000000 -1.000000 0.000003
vn 0.000000 -1.000000 0.000003
vn 0.000000 -1.000000 0.000003
vn 0.811042 0.000000 -0.584989
vn 0.811042 0.000000 -0.584989
vn 0.811042 0.000000 -0.584989
vn 0.811042 0.000000 -0.584989
vn 0.000000 1.000000 0.000003
vn 0.000000 1.000000 0.000003
vn 0.000000 1.000000 0.000003
vn 0.000000 1.000000 0.000003
vn -0.816918 0.000000 -0.576754
vn -0.816918 0.000000 -0.576754
vn -0.816918 0.000000 -0.576754
vn -0.816918 0.000000 -0.576754
vn 0.000000 -1.000000 0.000001
vn 0.000000 -1.000000 0.000001
vn 0.000000 -1.000000 0.000001
vn 0.000000 -1.000000 0.000001
vn 0.816918 0.000000 -0.576754
vn 0.816918 0.000000 -0.576754
vn 0.816918 0.000000 -0.576754
vn 0.816918 0.000000 -0.576754
vn 0.000000 1.000000 0.000003
vn 0.000000 1.000000 0.000003
vn 0.000000 1.000000 0.000003
vn 0.000000 1.000000 0.000003
vn -0.811042 0.000000 -0.584989
vn -0.811042 0.000000 -0.584989
vn -0.811042 0.000000 -0.584989
vn -0.811042 0.000000 -0.584989
vn 0.000000 -0.988871 0.148775
vn 0.000000 -0.988871 0.148775
vn 0.000000 -0.988871 0.148775
vn 0.000000 -0.988871 0.148775
vn 0.000000 1.000000 0.000000
vn 0.000000 1.000000 0.000000
vn 0.000000 1.000000 0.000000
vn 0.000000 1.000000 0.000000
vn 0.000000 -0.988870 -0.148784
vn 0.000000 -0.988870 -0.148784
vn 0.000000 -0.988870 -0.148784
vn 0.000000 -0.988870 -0.148784
vn 0.000000 -1.000000 0.000000
vn 0.000000 -1.000000 0.000000
vn 0.000000 -1.000000 0.000000
vn 0.000000 -1.000000 0.000000
vn 0.285088 -0.958502 0.000000
vn 0.285088 -0.958502 0.000000
vn 0.285088 -0.958501 0.000000
vn 0.285088 -0.958502 0.000000
vn -0.285087 -0.958502 0.000000
vn -0.285087 -0.958502 0.000000
vn -0.285087 -0.958502 0.000000
vn -0.285087 -0.958502 0.000000
vn 0.000000 0.995024 0.099637
vn 0.000000 0.995024 0.099637
vn 0.000000 0.995024 0.099637
vn 0.000000 0.995024 0.099637
vn 0.194184 0.980965 0.000000
vn 0.194184 0.980965 0.000000
vn 0.194184 0.980965 0.000000
vn 0.194184 0.980965 0.000000
vn 0.000000 0.995024 -0.099637
vn 0.000000 0.995024 -0.099637
vn 0.000000 0.995024 -0.099637
vn 0.000000 0.995024 -0.099637
vn -0.194184 0.980965 0.000000
vn -0.194184 0.980965 0.000000
vn -0.194184 0.980965 0.000000
vn -0.194184 0.980965 0.000000
vn 0.000000 0.000000 -1.000000
vn 0.000000 0.000000 -1.000000
vn 0.000000 0.000000 -1.000000
vn 0.000000 0.000000 -1.000000
vn 1.000000 0.000000 0.000000
vn 1.000000 0.000000 0.000000
vn 1.000000 0.000000 0.000000
vn 1.000000 0.000000 0.000000
vn 0.000000 0.000000 1.000000
vn 0.000000 0.000000 1.000000
vn 0.000000 0.000000 1.000000
vn 0.000000 0.000000 1.000000
vn -1.000000 0.000000 0.000000
vn -1.000000 0.000000 0.000000
vn -1.000000 0.000000 0.000000
vn -1.000000 0.000000 0.000000
vn 0.000000 0.000000 1.000000
vn 0.000000 0.000000 1.000000
vn 0.000000 0.000000 1.000000
vn 0.000000 0.000000 1.000000
vn 1.000000 0.000000 0.000000
vn 1.000000 0.000000 0.000000
vn 1.000000 0.000000 0.000000
vn 1.000000 0.000000 0.000000
vn 0.000000 0.000000 -1.000000
vn 0.000000 0.000000 -1.000000
vn 0.000000 0.000000 -1.000000
vn 0.000000 0.000000 -1.000000
vn -1.000000 0.000000 0.000000
vn -1.000000 0.000000 0.000000
vn -1.000000 0.000000 0.000000
vn -1.000000 0.000000 0.000000
vn 0.000000 0.000000 1.000000
vn 0.000000 0.000000 1.000000
vn 0.000000 0.000000 1.000000
vn 0.000000 0.000000 1.000000
vn 1.000000 0.000000 0.000000
vn 1.000000 0.000000 0.000000
vn 1.000000 0.000000 0.000000
vn 1.000000 0.000000 0.000000
vn 0.000000 0.000000 -1.000000
vn 0.000000 0.000000 -1.000000
vn 0.000000 0.000000 -1.000000
vn 0.000000 0.000000 -1.000000
vn -1.000000 0.000000 0.000000
vn -1.000000 0.000000 0.000000
vn -1.000000 0.000000 0.000000
vn -1.000000 0.000000 0.000000
vn 0.000000 0.000000 1.000000
vn 0.000000 0.000000 1.000000
vn 0.000000 0.000000 1.000000
vn 0.000000 0.000000 1.000000
vn 0.000000 1.000000 0.000000
vn 0.000000 1.000000 0.000000
vn 0.000000 1.000000 0.000000
vn 0.000000 1.000000 0.000000
vn 0.000000 0.000000 -1.000000
vn 0.000000 0.000000 -1.000000
vn 0.000000 0.000000 -1.000000
vn 0.000000 0.000000 -1.000000
vn 0.000000 -1.000000 0.000000
vn 0.000000 -1.000000 0.000000
vn 0.000000 -1.000000 0.000000
vn 0.000000 -1.000000 0.000000
vn 1.000000 0.000000 0.000000
vn 1.000000 0.000000 0.000000
vn 1.000000 0.000000 0.000000
vn 1.000000 0.000000 0.000000
vn -1.000000 0.000000 0.000000
vn -1.000000 0.000000 0.000000
vn -1.000000 0.000000 0.000000
vn -1.000000 0.000000 0.000000
vn 0.000000 -1.000000 0.000000
vn 0.000000 -1.000000 0.000000
vn 0.000000 -1.000000 0.000000
vn 0.000000 -1.000000 0.000000
vn 0.000000 -1.000000 0.000000
vn 0.000000 -1.000000 0.000000
vn 0.000000 -1.000000 0.000000
vn 0.000000 -1.000000 0.000000
vn -1.000000 0.000000 0.000000
vn -1.000000 0.000000 0.000000
vn -1.000000 0.000000 0.000000
vn -1.000000 0.000000 0.000000
vn -1.000000 0.000000 0.000000
vn -1.000000 0.000000 0.000000
vn -1.000000 0.000000 0.000000
vn -1.000000 0.000000 0.000000
vn 0.000000 1.000000 0.000000
vn 0.000000 1.000000 0.000000
vn 0.000000 1.000000 -0.000000
vn 0.000000 1.000000 -0.000000
vn 0.000000 1.000000 -0.000000
vn 0.000000 1.000000 -0.000000
vn 1.000000 0.000000 0.000000
vn 1.000000 0.000000 0.000000
vn 1.000000 0.000000 0.000000
vn 1.000000 0.000000 0.000000
vn -1.000000 0.000000 0.000000
vn -1.000000 0.000000 0.000000
vn -1.000000 0.000000 0.000000
vn -1.000000 0.000000 0.000000
vn 0.000000 -1.000000 0.000000
vn 0.000000 -1.000000 0.000000
vn 0.000000 -1.000000 0.000001
vn 0.000000 -1.000000 0.000001
vn 0.000000 -1.000000 0.000001
vn 0.000000 -1.000000 0.000001
vn 1.000000 0.000000 0.000000
vn 1.000000 0.000000 0.000000
vn 1.000000 0.000000 0.000000
vn 1.000000 0.000000 0.000000
vn 1.000000 0.000000 0.000000
vn 1.000000 0.000000 0.000000
vn 1.000000 0.000000 0.000000
vn 1.000000 0.000000 0.000000
vn 0.000000 0.998699 -0.050998
vn 0.000000 0.998699 -0.050998
vn 0.000000 0.998699 -0.050998
vn 0.000000 0.998699 -0.050998
vn 0.000000 0.998699 0.050998
vn 0.000000 0.998699 0.050998
vn 0.000000 0.998699 0.050998
vn 0.000000 0.998699 0.050998
vn 0.000000 0.000000 -1.000000
vn 0.000000 0.000000 -1.000000
vn 0.000000 0.000000 -1.000000
vn 0.000000 0.000000 -1.000000
vn 0.000000 0.000000 1.000000
vn 0.000000 0.000000 1.000000
vn 0.000000 0.000000 1.000000
vn 0.000000 0.000000 1.000000
vn -0.000000 0.000000 1.000000
vn -0.000000 0.000000 1.000000
vn -0.000000 0.000000 1.000000
vn 0.000000 0.000000 1.000000
vn 0.000000 0.000000 -1.000000
vn -0.000000 0.000000 -1.000000
vn -0.000000 0.000000 -1.000000
vn -0.000000 0.000000 -1.000000
vn 0.000000 0.000000 -1.000000
vn 0.000000 0.000000 -1.000000
vn 0.000000 0.000000 -1.000000
vn 0.000000 0.000000 -1.000000
vn 0.000000 0.000000 1.000000
vn 0.000000 0.000000 1.000000
vn 0.000000 0.000000 1.000000
vn 0.000000 0.000000 1.000000
vn 0.000000 0.000000 1.000000
vn 0.000000 0.000000 1.000000
vn 0.000000 0.000000 1.000000
vn 0.000000 0.000000 1.000000
vn 1.000000 0.000000 0.000000
vn 1.000000 0.000000 0.000000
vn 1.000000 0.000000 0.000000
vn 1.000000 0.000000 0.000000
vn -1.000000 0.000000 0.000000
vn -1.000000 0.000000 0.000000
vn -1.000000 0.000000 0.000000
vn -1.000000 0.000000 0.000000
vn 0.000000 -1.000000 0.000000
vn 0.000000 -1.000000 0.000000
vn 0.000000 -1.000000 0.000000
vn 0.000000 -1.000000 0.000000
vn 0.000000 -1.000000 0.000000
vn 0.000000 -1.000000 0.000000
vn 0.000000 1.000000 0.000000
vn 0.000000 1.000000 0.000000
vn 0.000000 1.000000 0.000000
vn 0.000000 1.000000 0.000000
vn 0.000000 1.000000 0.000000
vn 0.000000 1.000000 0.000000
vn 0.000000 0.000000 -1.000000
vn 0.000000 0.000000 -1.000000
vn 0.000000 0.000000 -1.000000
vn 0.000000 0.000000 -1.000000
vn 0.707106 0.000000 0.707107
vn 0.707106 0.000000 0.707107
vn 0.707106 0.000000 0.707107
vn 0.707106 0.000000 0.707107
vn -0.707107 0.000000 0.707106
vn -0.707107 0.000000 0.707106
vn -0.707107 0.000000 0.707106
vn -0.707107 0.000000 0.707106
vn 0.707106 0.000000 -0.707107
vn 0.707106 0.000000 -0.707107
vn 0.707106 0.000000 -0.707107
vn 0.707106 0.000000 -0.707107
vn -0.707107 0.000000 -0.707106
vn -0.707107 0.000000 -0.707106
vn -0.707107 0.000000 -0.707106
vn -0.707107 0.000000 -0.707106
s off
f 1/1/1 9/2/2 10/3/3 4/4/4
f 5/5/5 8/6/6 11/7/7 12/8/8
f 10/9/9 9/10/10 2/11/11 3/12/12
f 12/13/13 11/14/14 7/15/15 6/16/16
f 13/17/17 14/18/18 16/19/19 15/20/20
f 17/21/21 18/22/22 20/23/23 19/24/24
f 21/25/25 22/26/26 24/27/27 23/28/28
f 25/29/29 26/30/30 28/31/31 27/32/32
f 23/28/33 24/27/34 30/33/35 29/34/36
f 22/26/37 31/35/38 30/33/39 24/27/40
f 32/36/41 31/35/42 22/26/43 21/25/44
f 29/34/45 32/36/46 21/25/47 23/28/48
f 15/20/49 16/19/50 34/37/51 33/38/52
f 14/18/53 35/39/54 34/37/55 16/19/56
f 36/40/57 35/39/58 14/18/59 13/17/60
f 33/38/61 36/40/62 13/17/63 15/20/64
f 19/24/65 20/23/66 38/41/67 37/42/68
f 39/43/69 38/41/70 20/23/71 18/22/72
f 40/44/73 39/43/74 18/22/75 17/21/76
f 19/24/77 37/42/78 40/44/79 17/21/80
f 27/32/81 28/31/82 42/45/83 41/46/84
f 43/47/85 42/45/86 28/31/87 26/30/88
f 44/48/89 43/47/90 26/30/91 25/29/92
f 27/32/93 41/46/94 44/48/95 25/29/96
f 65/49/97 66/50/98 59/51/99 60/52/100
f 47/53/101 48/54/102 50/55/103 49/56/104
f 57/57/105 58/58/106 67/59/107 68/60/108
f 51/61/109 52/62/110 46/63/111 45/64/112
f 66/50/113 67/59/114 58/58/115 59/51/116
f 68/60/117 65/49/118 60/52/119 57/57/120
f 61/65/121 62/66/122 54/67/123 53/68/124
f 62/66/125 63/69/126 55/70/127 54/67/128
f 56/71/129 55/70/130 63/69/131 64/72/132
f 64/72/133 61/65/134 53/68/135 56/71/136
f 49/56/137 50/55/138 58/58/139 57/57/140
f 59/51/141 58/58/142 50/55/143 48/54/144
f 60/52/145 59/51/146 48/54/147 47/53/148
f 57/57/149 60/52/150 47/53/151 49/56/152
f 45/64/153 46/63/154 62/66/155 61/65/156
f 46/63/157 52/62/158 63/69/159 62/66/160
f 64/72/161 63/69/162 52/62/163 51/61/164
f 51/61/165 45/64/166 61/65/167 64/72/168
f 53/73/169 54/74/170 66/75/171 65/76/172
f 54/74/173 55/77/174 67/78/175 66/75/176
f 68/79/177 67/78/178 55/77/179 56/80/180
f 56/80/181 53/73/182 65/76/183 68/79/184
f 69/81/185 70/82/186 72/83/187 71/84/188
f 71/84/189 72/83/190 74/85/191 73/86/192
f 73/86/193 74/85/194 76/87/195 75/88/196
f 75/88/197 76/87/198 70/82/199 69/81/200
f 70/82/201 76/87/202 74/85/203 72/83/204
f 75/88/205 69/81/206 71/84/207 73/86/208
f 77/151/209 78/89/210 79/90/211 80/156/212
f 78/89/213 81/150/214 82/153/215 79/90/216
f 83/91/217 84/148/218 80/155/219 79/92/220
f 83/91/221 79/92/222 82/154/223 85/141/224
f 92/106/225 89/117/226 94/140/227 93/122/228 97/137/229 98/124/230
f 89/117/231 90/112/232 96/123/233 94/140/234
f 91/121/235 92/106/236 98/124/237 100/135/238
f 90/112/239 91/121/240 100/135/241 99/125/242 95/139/243 96/123/244
f 86/93/245 78/94/246 77/152/247 87/145/248
f 86/93/249 88/144/250 81/149/251 78/94/252
f 83/95/253 86/96/254 87/146/255 84/147/256
f 88/143/257 86/96/258 83/95/259 85/142/260
f 104/97/261 102/98/262 80/99/263 84/100/264
f 93/101/265 95/102/266 85/107/267 82/108/268
f 99/113/269 97/114/270 81/115/271 88/118/272
f 77/119/273 106/126/274 108/127/275 87/128/276
f 87/128/277 108/127/278 104/97/279 84/100/280
f 88/118/281 85/107/282 95/102/283 99/113/284
f 81/115/285 97/114/286 93/101/287 82/108/288
f 101/116/289 103/109/290 90/112/291 89/117/292
f 107/120/293 105/103/294 92/106/295 91/121/296
f 103/109/297 104/110/298 108/111/299 107/120/300 91/121/301 90/112/302
f 105/103/303 106/104/304 102/105/305 101/116/306 89/117/307 92/106/308
f 106/126/309 77/119/310 80/99/311 102/98/312
f 93/101/313 94/129/314 96/130/315 95/102/316
f 98/131/317 97/114/318 99/113/319 100/132/320
f 101/133/321 102/98/322 104/97/323 103/134/324
f 106/126/325 105/136/326 107/138/327 108/127/328
