# This file uses centimeters as units for non-parametric coordinates.

v 0.000000 -48.345253 0.000000
v 0.000000 34.258560 53.196785
v 0.000000 48.144947 0.000000
v 0.000000 14.740156 45.866745
v 0.000000 11.257612 21.701111
v 0.000000 -21.638536 21.701111
v 0.000000 -26.575197 26.884291
v 0.000000 29.867157 45.866745
v 0.000000 48.144947 53.196785
v 250.000000 34.258560 53.196785
v 250.000000 48.144947 0.000000
v 250.000000 48.145081 53.196709
v 250.000000 14.740156 45.866760
v 250.000000 29.867157 45.866760
v 250.000000 11.257612 21.701111
v 250.000000 -21.638536 21.701111
v 250.000000 -48.345253 0.000000
v 250.000000 -26.575197 26.884302
v 250.000000 48.144943 0.000000
v 250.000000 -48.345253 16.335709
v 250.000000 -41.646820 26.884302
v 0.000000 -41.646820 26.884287
v 0.000000 -48.345253 16.335716
vt 0.100169 0.551807
vt 0.100169 0.514908
vt 0.399980 0.514908
vt 0.399980 0.551807
vt 0.378078 0.111692
vt 0.448724 0.130133
vt 0.378078 0.130133
vt 0.387812 0.105860
vt 0.387812 0.085771
vt 0.419905 0.081146
vt 0.419905 0.037459
vt 0.448724 0.001992
vt 0.413021 0.030903
vt 0.413021 0.010888
vt 0.427030 0.001992
vt 0.454911 0.130133
vt 0.525557 0.111692
vt 0.525557 0.130133
vt 0.515823 0.105860
vt 0.515823 0.085771
vt 0.483730 0.081146
vt 0.454911 0.001992
vt 0.483730 0.037459
vt 0.490614 0.030903
vt 0.476605 0.001992
vt 0.490614 0.010888
vt 0.066253 0.666003
vt 0.034160 0.666003
vt 0.066253 0.998008
vt 0.034160 0.998008
vt 0.280864 0.666003
vt 0.259170 0.666003
vt 0.280864 0.998008
vt 0.259170 0.998008
vt 0.294873 0.666003
vt 0.294873 0.998008
vt 0.301245 0.998008
vt 0.301246 0.666003
vt 0.371686 0.666003
vt 0.371892 0.998008
vt 0.092666 0.666003
vt 0.072577 0.666003
vt 0.092666 0.998008
vt 0.072577 0.998008
vt 0.098497 0.666003
vt 0.098497 0.998008
vt 0.116939 0.666003
vt 0.116939 0.998008
vt 0.252206 0.998008
vt 0.124064 0.998008
vt 0.123798 0.666002
vt 0.252206 0.666002
vt 0.021064 0.666003
vt 0.001049 0.666003
vt 0.021064 0.998008
vt 0.001049 0.998008
vt 0.027620 0.666003
vt 0.027620 0.998008
vn 1.000000 0.000001 0.000000
vn 1.000000 0.000001 0.000000
vn 1.000000 0.000001 0.000000
vn 1.000000 0.000000 0.000000
vn 1.000000 0.000000 0.000000
vn 1.000000 0.000000 0.000000
vn 1.000000 0.000000 0.000000
vn 1.000000 0.000000 0.000000
vn 1.000000 0.000000 0.000000
vn 1.000000 -0.000001 0.000000
vn 1.000000 -0.000001 0.000000
vn 1.000000 -0.000001 0.000000
vn 1.000000 0.000000 0.000000
vn 1.000000 0.000000 0.000000
vn 1.000000 0.000000 0.000000
vn 1.000000 0.000000 0.000000
vn 1.000000 0.000000 0.000000
vn 1.000000 0.000000 0.000000
vn 1.000000 0.000000 0.000000
vn 1.000000 0.000000 0.000000
vn 1.000000 0.000000 0.000000
vn 1.000000 0.000000 0.000000
vn 1.000000 0.000000 0.000000
vn -1.000000 0.000000 0.000000
vn -1.000000 0.000000 0.000000
vn -1.000000 0.000000 0.000000
vn -1.000000 0.000000 0.000000
vn -1.000000 0.000000 0.000000
vn -1.000000 0.000000 0.000000
vn -1.000000 0.000000 0.000000
vn -1.000000 0.000000 0.000000
vn -1.000000 0.000000 0.000000
vn -1.000000 0.000000 0.000000
vn -1.000000 0.000000 0.000000
vn -1.000000 0.000000 0.000000
vn -1.000000 0.000000 0.000000
vn -1.000000 0.000000 0.000000
vn -1.000000 0.000000 0.000000
vn -1.000000 0.000000 0.000000
vn -1.000000 0.000000 0.000000
vn -1.000000 0.000000 0.000000
vn -1.000000 0.000000 0.000000
vn -1.000000 0.000000 0.000000
vn -1.000000 0.000000 0.000000
vn -1.000000 0.000000 0.000000
vn -1.000000 0.000000 0.000000
vn 0.000000 0.000003 1.000000
vn 0.000000 0.000003 1.000000
vn 0.000000 0.000003 1.000000
vn 0.000000 0.000003 1.000000
vn -0.000000 -0.857834 0.513926
vn -0.000000 -0.857834 0.513926
vn -0.000000 -0.857834 0.513926
vn -0.000000 -0.857834 0.513926
vn 0.000000 0.000000 -1.000000
vn 0.000000 0.000000 -1.000000
vn 0.000000 0.000000 -1.000000
vn 0.000000 0.000000 -1.000000
vn -0.000000 0.000000 1.000000
vn -0.000000 0.000000 1.000000
vn -0.000000 0.000000 1.000000
vn -0.000000 0.000000 1.000000
vn -0.000000 -0.989775 0.142638
vn -0.000000 -0.989775 0.142638
vn -0.000000 -0.989775 0.142638
vn -0.000000 -0.989775 0.142638
vn 0.000000 0.000000 1.000000
vn 0.000000 0.000000 1.000000
vn 0.000000 0.000000 1.000000
vn 0.000000 0.000000 1.000000
vn -0.000000 0.724118 0.689677
vn -0.000000 0.724118 0.689677
vn -0.000000 0.724118 0.689677
vn -0.000000 0.724118 0.689677
vn -0.000000 -0.844180 0.536061
vn -0.000000 -0.844180 0.536061
vn -0.000000 -0.844180 0.536061
vn -0.000000 -0.844180 0.536061
vn -0.000000 -0.000000 1.000000
vn -0.000000 -0.000000 1.000000
vn -0.000000 -0.000000 1.000000
vn -0.000000 -0.000000 1.000000
vn 0.000000 -1.000000 0.000000
vn 0.000000 -1.000000 0.000000
vn 0.000000 -1.000000 0.000000
vn 0.000000 -1.000000 0.000000
vn -0.000000 1.000000 -0.000001
vn -0.000000 1.000000 -0.000001
vn -0.000000 1.000000 -0.000001
vn -0.000000 1.000000 -0.000001
s off
f 10/5/1 11/6/2 12/7/3
f 11/6/4 10/5/5 14/8/6
f 13/9/7 11/6/8 14/8/9
f 15/10/10 11/6/11 13/9/12
f 16/11/13 17/12/14 11/6/15 15/10/16
f 18/13/17 17/12/18 16/11/19
f 17/12/20 18/13/21 21/14/22 20/15/23
f 3/16/24 2/17/25 9/18/26
f 2/17/27 3/16/28 8/19/29
f 3/16/30 4/20/31 8/19/32
f 3/16/33 5/21/34 4/20/35
f 3/16/36 1/22/37 6/23/38 5/21/39
f 1/22/40 7/24/41 6/23/42
f 1/22/43 23/25/44 22/26/45 7/24/46
f 12/47/47 9/48/48 2/46/49 10/45/50
f 14/41/51 10/45/52 2/46/53 8/43/54
f 1/49/55 3/50/56 19/51/57 17/52/58
f 8/43/59 4/44/60 13/42/61 14/41/62
f 4/29/63 5/30/64 15/28/65 13/27/66
f 5/1/67 6/2/68 16/3/69 15/4/70
f 6/58/71 7/55/72 18/53/73 16/57/74
f 20/31/75 21/35/76 22/36/77 23/33/78
f 7/55/79 22/56/80 21/54/81 18/53/82
f 20/31/83 23/33/84 1/34/85 17/32/86
f 9/37/87 12/38/88 19/39/89 3/40/90
