# This file uses centimeters as units for non-parametric coordinates.

v -242.672699 0.000000 0.000000
v -242.672699 0.000000 250.000000
v -242.672699 22.627892 0.000000
v -242.672699 22.627892 250.000000
v -7.327293 22.627892 0.000000
v -7.327293 22.627892 250.000000
v -7.327293 0.000000 0.000000
v -7.327293 0.000000 250.000000
v -18.243790 22.627892 0.000000
v -18.243790 0.000000 0.000000
v -18.243790 0.000000 250.000000
v -18.243790 22.627892 250.000000
v -231.756226 22.627892 0.000000
v -231.756226 0.000000 0.000000
v -231.756226 0.000000 250.000000
v -231.756226 22.627892 250.000000
v -241.937958 0.604372 47.721336
v -232.543991 0.604372 47.721336
v -232.543991 22.023520 47.721344
v -236.735291 22.023520 47.721336
v -7.830765 22.213757 153.742493
v -14.285705 22.213757 153.742493
v -17.703978 0.414135 153.742493
v -7.830765 0.414135 153.742493
v -241.937958 22.023520 27.385933
v -241.937958 22.023520 67.472290
v -241.937958 17.410328 47.721336
v -17.703978 22.213757 142.572586
v -17.703978 22.213757 170.286835
v -17.703978 18.235394 153.742493
v -7.830765 0.414135 177.625015
v -7.830765 3.365622 153.742493
v -7.830765 0.414135 137.627991
v -13.232986 0.414135 153.742493
v -250.000000 28.489582 12.107738
v -250.000000 22.627892 12.107738
v 0.000000 22.627892 12.107738
v 0.000000 28.489582 12.107738
v -250.000000 28.489582 31.460644
v -250.000000 22.627892 31.460644
v 0.000000 22.627892 31.460644
v 0.000000 28.489582 31.460644
v -250.000000 28.489582 63.715622
v -250.000000 22.627892 63.715622
v 0.000000 22.627892 63.715622
v 0.000000 28.489582 63.715622
v -250.000000 28.489582 83.068581
v -250.000000 22.627892 83.068581
v 0.000000 22.627892 83.068581
v 0.000000 28.489582 83.068581
v -250.000000 28.489582 115.323532
v -250.000000 22.627892 115.323532
v 0.000000 22.627892 115.323532
v 0.000000 28.489582 115.323532
v -250.000000 28.489582 134.676483
v -250.000000 22.627892 134.676483
v 0.000000 22.627892 134.676483
v 0.000000 28.489582 134.676483
v -250.000000 28.489582 166.931427
v -250.000000 22.627892 166.931427
v 0.000000 22.627892 166.931427
v 0.000000 28.489582 166.931427
v -250.000000 28.489582 186.284424
v -250.000000 22.627892 186.284424
v 0.000000 22.627892 186.284424
v 0.000000 28.489582 186.284424
v -250.000000 28.489582 218.539368
v -250.000000 22.627892 218.539368
v 0.000000 22.627892 218.539368
v 0.000000 28.489582 218.539368
v -250.000000 28.489582 237.892273
v -250.000000 22.627892 237.892273
v 0.000000 22.627892 237.892273
v 0.000000 28.489582 237.892273
v -79.037956 22.897118 219.428177
v -79.037949 28.220358 222.109604
v -79.037949 28.220358 237.003464
v -79.037956 22.897118 237.003464
v -156.965363 25.110298 167.604462
v -156.965363 28.285725 167.604462
v -156.965363 28.285725 181.937469
v -156.965363 22.831753 185.611328
v -61.451908 22.909019 64.643776
v -61.451916 28.208454 67.269913
v -61.451916 28.208454 82.140419
v -61.451908 22.909019 82.140419
v -196.789063 22.770884 12.579765
v -196.789063 28.346598 17.246891
v -196.789063 28.346598 30.988605
v -196.789063 24.394581 30.988605
v -100.025169 28.220358 219.428177
v -62.048767 28.220358 219.428177
v -79.037956 26.471313 219.428177
v -176.227875 28.285725 185.611328
v -142.914642 28.285725 185.611328
v -156.965363 26.783052 185.611328
v -136.154099 22.831753 167.604462
v -170.550751 22.831753 167.604462
v -156.965363 22.831753 170.292068
v -44.336121 28.208454 64.643776
v -76.907204 28.208454 64.643776
v -61.451912 25.984020 64.643776
v -165.237869 28.346598 12.579765
v -221.684448 28.346598 12.579765
v -196.789063 26.698168 12.579765
v -213.815674 22.770884 30.988605
v -196.789063 22.770884 27.248863
v -182.147018 22.770884 30.988605
vt 0.325710 0.109508
vt 0.325428 0.109041
vt 0.325420 0.109005
vt 0.325706 0.127233
vt 0.325471 0.108991
vt 0.325772 0.127205
vt 0.326420 0.109170
vt 0.326000 0.126609
vt 0.325999 0.108877
vt 0.326411 0.109208
vt 0.325774 0.109480
vt 0.325478 0.109026
vt 0.326366 0.109227
vt 0.326375 0.109189
vt 0.325960 0.108888
vt 0.325961 0.126619
vt 0.325471 0.126756
vt 0.325772 0.109440
vt 0.325961 0.108854
vt 0.326375 0.126954
vt 0.326000 0.108844
vt 0.326420 0.126935
vt 0.325420 0.126770
vt 0.325706 0.109468
vt 0.325661 0.109427
vt 0.325723 0.109402
vt 0.325720 0.127128
vt 0.325720 0.109363
vt 0.325667 0.127149
vt 0.325657 0.109388
vt 0.326159 0.108967
vt 0.326159 0.126732
vt 0.326118 0.108981
vt 0.326122 0.126745
vt 0.326114 0.109016
vt 0.326155 0.109002
vt 0.325684 0.127197
vt 0.325684 0.109432
vt 0.325631 0.127111
vt 0.325631 0.109346
vt 0.325658 0.109402
vt 0.326139 0.108998
vt 0.326139 0.126763
vt 0.326087 0.108956
vt 0.326087 0.126721
vt 0.326117 0.108991
vt 0.326111 0.108966
vt 0.326156 0.108995
vt 0.326185 0.109026
vt 0.326142 0.109007
vt 0.326320 0.109247
vt 0.326273 0.109267
vt 0.326280 0.109229
vt 0.326328 0.109209
vt 0.326190 0.109186
vt 0.326199 0.109188
vt 0.326165 0.109169
vt 0.325881 0.108877
vt 0.325881 0.108910
vt 0.325921 0.108899
vt 0.325921 0.108865
vt 0.326188 0.126855
vt 0.326236 0.126903
vt 0.326195 0.126919
vt 0.325881 0.126642
vt 0.325921 0.126630
vt 0.326224 0.109288
vt 0.326173 0.109310
vt 0.326179 0.109271
vt 0.326230 0.109250
vt 0.325891 0.109026
vt 0.325934 0.109012
vt 0.325840 0.108922
vt 0.325798 0.108934
vt 0.325797 0.108900
vt 0.325839 0.108888
vt 0.325906 0.126715
vt 0.325932 0.126743
vt 0.325891 0.126756
vt 0.325797 0.126665
vt 0.325839 0.126653
vt 0.326121 0.109332
vt 0.326068 0.109355
vt 0.326071 0.109316
vt 0.326126 0.109293
vt 0.325756 0.108946
vt 0.325712 0.108959
vt 0.325709 0.108925
vt 0.325754 0.108912
vt 0.326071 0.127081
vt 0.325709 0.126689
vt 0.325754 0.126677
vt 0.326126 0.127058
vt 0.326013 0.109378
vt 0.325956 0.109402
vt 0.325957 0.109363
vt 0.326015 0.109339
vt 0.325832 0.109247
vt 0.325876 0.109230
vt 0.325853 0.109191
vt 0.325667 0.108972
vt 0.325621 0.108985
vt 0.325618 0.108950
vt 0.325664 0.108937
vt 0.325885 0.126954
vt 0.325836 0.126972
vt 0.325810 0.126949
vt 0.325618 0.126715
vt 0.325664 0.126702
vt 0.325897 0.109427
vt 0.325837 0.109453
vt 0.325836 0.109414
vt 0.325897 0.109388
vt 0.325625 0.109151
vt 0.325676 0.109134
vt 0.325575 0.108998
vt 0.325527 0.109012
vt 0.325521 0.108977
vt 0.325570 0.108963
vt 0.326235 0.109173
vt 0.326240 0.109147
vt 0.326188 0.109090
vt 0.325935 0.108992
vt 0.325906 0.108950
vt 0.325891 0.108991
vt 0.325884 0.109219
vt 0.325885 0.109190
vt 0.325810 0.109185
vt 0.325831 0.109220
vt 0.325649 0.109065
vt 0.325674 0.109109
vt 0.325673 0.109097
vt 0.325620 0.109115
vt 0.325704 0.109137
vt 0.325904 0.109251
vt 0.325957 0.127128
vt 0.325859 0.127009
vt 0.326015 0.127104
vt 0.325859 0.109244
vt 0.325962 0.109002
vt 0.326179 0.127036
vt 0.325962 0.126767
vt 0.326230 0.127015
vt 0.326284 0.109172
vt 0.326280 0.126994
vt 0.326284 0.126937
vt 0.326328 0.126974
vt 0.326217 0.109217
vt 0.325836 0.127179
vt 0.325620 0.126880
vt 0.325669 0.126864
vt 0.325704 0.126901
vt 0.325897 0.127153
vt 0.325649 0.126830
vt 0.325521 0.126742
vt 0.325570 0.126728
vt 0.325831 0.109210
vt 0.325936 0.108977
vt 0.326242 0.109136
vt 0.326195 0.109154
vn -0.999992 0.001647 -0.003675
vn -0.999992 0.001647 -0.003675
vn -0.999992 0.001647 -0.003675
vn -0.999992 0.001647 -0.003675
vn -0.999992 0.001647 -0.003675
vn -0.002991 0.999991 -0.003076
vn -0.002991 0.999991 -0.003076
vn -0.002991 0.999991 -0.003076
vn -0.002991 0.999991 -0.003076
vn -0.002991 0.999991 -0.003076
vn 0.999982 -0.002866 -0.005331
vn 0.999982 -0.002866 -0.005331
vn 0.999982 -0.002866 -0.005331
vn 0.999982 -0.002866 -0.005331
vn 0.999982 -0.002866 -0.005331
vn 0.000000 -0.999996 -0.002988
vn 0.000000 -0.999996 -0.002988
vn 0.000000 -0.999996 -0.002988
vn 0.000000 -0.999996 -0.002988
vn 0.000000 0.000000 1.000000
vn 0.000000 0.000000 1.000000
vn 0.000000 0.000000 1.000000
vn 0.000000 0.000000 1.000000
vn 0.000000 0.000000 -1.000000
vn 0.000000 0.000000 -1.000000
vn 0.000000 0.000000 -1.000000
vn 0.000000 0.000000 -1.000000
vn 0.000000 0.000000 -1.000000
vn 0.000000 0.000000 -1.000000
vn 0.000000 0.000000 -1.000000
vn 0.000000 0.000000 -1.000000
vn 0.005317 -0.999975 -0.004628
vn 0.005317 -0.999975 -0.004628
vn 0.005317 -0.999975 -0.004628
vn 0.005317 -0.999975 -0.004628
vn 0.005317 -0.999975 -0.004628
vn 0.000000 0.000000 1.000000
vn 0.000000 0.000000 1.000000
vn 0.000000 0.000000 1.000000
vn 0.000000 0.000000 1.000000
vn -0.003540 0.999984 -0.004448
vn -0.003540 0.999984 -0.004448
vn -0.003540 0.999984 -0.004448
vn -0.003540 0.999984 -0.004448
vn -0.003540 0.999984 -0.004448
vn -0.999981 0.002124 -0.005705
vn -0.999982 0.002124 -0.005705
vn -0.999982 0.002124 -0.005705
vn -0.999981 0.002124 -0.005705
vn -0.999981 0.002124 -0.005705
vn 0.999992 0.000000 -0.003894
vn 0.999992 0.000000 -0.003894
vn 0.999992 0.000000 -0.003894
vn 0.999992 0.000000 -0.003894
vn 0.000000 -0.999920 0.012664
vn 0.000000 -0.999920 0.012664
vn 0.000000 -0.999920 0.012664
vn 0.000000 -0.999920 0.012664
vn 0.999864 0.000000 0.016505
vn 0.999864 0.000000 0.016505
vn 0.999864 0.000000 0.016505
vn 0.999864 0.000000 0.016505
vn -0.014482 0.999791 0.014464
vn -0.014482 0.999791 0.014464
vn -0.014482 0.999791 0.014464
vn -0.014482 0.999791 0.014464
vn -0.014482 0.999791 0.014464
vn -0.999841 0.007485 0.016212
vn -0.999841 0.007485 0.016212
vn -0.999841 0.007485 0.016212
vn -0.999841 0.007485 0.016212
vn -0.999841 0.007485 0.016212
vn -0.001468 0.999995 0.002731
vn -0.001468 0.999995 0.002731
vn -0.001468 0.999995 0.002731
vn -0.001468 0.999995 0.002731
vn -0.001468 0.999995 0.002731
vn -0.999993 0.000889 0.003537
vn -0.999993 0.000889 0.003537
vn -0.999993 0.000889 0.003537
vn -0.999993 0.000889 0.003537
vn -0.999993 0.000889 0.003537
vn 0.002152 -0.999994 0.002776
vn 0.002152 -0.999994 0.002776
vn 0.002152 -0.999994 0.002776
vn 0.002152 -0.999994 0.002776
vn 0.002152 -0.999994 0.002776
vn 0.999994 -0.001197 0.003301
vn 0.999994 -0.001197 0.003301
vn 0.999994 -0.001197 0.003301
vn 0.999994 -0.001197 0.003301
vn 0.999994 -0.001197 0.003301
vn -0.653542 0.737053 -0.172152
vn -0.653542 0.737053 -0.172152
vn -0.653542 0.737053 -0.172152
vn -0.654093 0.737670 0.167345
vn -0.654093 0.737670 0.167345
vn -0.654093 0.737670 0.167345
vn -0.749334 0.643839 -0.154822
vn -0.749334 0.643839 -0.154822
vn -0.749334 0.643839 -0.154822
vn -0.738837 0.634820 0.226103
vn -0.738837 0.634820 0.226103
vn -0.738837 0.634820 0.226103
vn 1.000000 0.000000 0.000000
vn 1.000000 0.000000 0.000000
vn 1.000000 0.000000 0.000000
vn 1.000000 0.000000 0.000000
vn 1.000000 0.000000 0.000000
vn 1.000000 0.000000 0.000000
vn 0.000000 -1.000000 0.000000
vn 0.000000 -1.000000 0.000000
vn 0.000000 -1.000000 0.000000
vn 0.000000 -1.000000 0.000000
vn 0.000000 -1.000000 0.000000
vn 0.000000 -1.000000 0.000000
vn -1.000000 0.000000 0.000000
vn -1.000000 0.000000 0.000000
vn -1.000000 0.000000 0.000000
vn -1.000000 0.000000 0.000000
vn -0.101197 -0.912565 0.396212
vn -0.101197 -0.912565 0.396212
vn -0.101197 -0.912565 0.396212
vn 1.000000 0.000000 0.000000
vn 1.000000 0.000000 0.000000
vn 1.000000 0.000000 0.000000
vn 1.000000 0.000000 0.000000
vn -0.000743 1.000000 -0.000621
vn -0.000743 1.000000 -0.000621
vn -0.000743 1.000000 -0.000621
vn -0.000743 1.000000 -0.000621
vn -0.000743 1.000000 -0.000621
vn -1.000000 0.000000 0.000000
vn -1.000000 0.000000 0.000000
vn -1.000000 0.000000 0.000000
vn -1.000000 0.000000 0.000000
vn -0.004575 -0.999990 0.000000
vn -0.004575 -0.999990 0.000000
vn -0.004575 -0.999990 0.000000
vn -0.004575 -0.999990 0.000000
vn 1.000000 0.000000 0.000000
vn 1.000000 0.000000 0.000000
vn 1.000000 0.000000 0.000000
vn 1.000000 0.000000 0.000000
vn -0.004701 0.999987 -0.002183
vn -0.004701 0.999987 -0.002183
vn -0.004701 0.999987 -0.002183
vn -0.004701 0.999987 -0.002183
vn -0.004701 0.999987 -0.002183
vn -1.000000 0.000000 0.000000
vn -1.000000 0.000000 0.000000
vn -1.000000 0.000000 0.000000
vn -1.000000 0.000000 0.000000
vn 0.000000 -1.000000 0.000000
vn 0.000000 -1.000000 0.000000
vn 0.000000 -1.000000 0.000000
vn 0.000000 -1.000000 0.000000
vn 1.000000 0.000000 0.000000
vn 1.000000 0.000000 0.000000
vn 1.000000 0.000000 0.000000
vn 1.000000 0.000000 0.000000
vn 0.000000 1.000000 0.000000
vn 0.000000 1.000000 0.000000
vn 0.000000 1.000000 0.000000
vn 0.000000 1.000000 0.000000
vn -1.000000 0.000000 0.000000
vn -1.000000 0.000000 0.000000
vn -1.000000 0.000000 0.000000
vn -1.000000 0.000000 0.000000
vn -0.001314 -0.999999 -0.000732
vn -0.001314 -0.999999 -0.000732
vn -0.001314 -0.999999 -0.000732
vn -0.001314 -0.999999 -0.000732
vn -0.001314 -0.999999 -0.000732
vn 1.000000 0.000000 0.000000
vn 1.000000 0.000000 0.000000
vn 1.000000 0.000000 0.000000
vn 1.000000 0.000000 0.000000
vn -0.001312 0.999999 0.000494
vn -0.001312 0.999999 0.000494
vn -0.001312 0.999999 0.000494
vn -0.001312 0.999999 0.000494
vn -0.001312 0.999999 0.000494
vn -1.000000 0.000000 0.000000
vn -1.000000 0.000000 0.000000
vn -1.000000 0.000000 0.000000
vn -1.000000 0.000000 0.000000
vn -0.003406 -0.999994 0.000000
vn -0.003406 -0.999994 0.000000
vn -0.003406 -0.999994 0.000000
vn -0.003406 -0.999994 0.000000
vn 1.000000 0.000000 0.000000
vn 1.000000 0.000000 0.000000
vn 1.000000 0.000000 0.000000
vn 1.000000 0.000000 0.000000
vn -0.002460 0.006787 -0.999974
vn -0.002460 0.006787 -0.999974
vn -0.002460 0.006787 -0.999974
vn -0.002460 0.006787 -0.999974
vn -0.002460 0.006787 -0.999974
vn -0.016104 0.024696 -0.999565
vn -0.016104 0.024696 -0.999565
vn -0.016104 0.024696 -0.999565
vn -0.016104 0.024696 -0.999565
vn -0.016104 0.024696 -0.999565
vn -0.015102 -0.000000 0.999886
vn -0.015102 -0.000000 0.999886
vn -0.015102 -0.000000 0.999886
vn -0.015102 -0.000000 0.999886
vn 0.000000 0.000000 -1.000000
vn 0.000000 0.000000 -1.000000
vn 0.000000 0.000000 -1.000000
vn 0.000000 0.000000 -1.000000
vn 0.000000 0.000000 1.000000
vn 0.000000 0.000000 1.000000
vn 0.000000 0.000000 1.000000
vn 0.000000 0.000000 1.000000
vn -0.004416 -0.008122 -0.999957
vn -0.004416 -0.008122 -0.999957
vn -0.004416 -0.008122 -0.999957
vn -0.004416 -0.008122 -0.999957
vn -0.004416 -0.008122 -0.999957
vn -0.004347 0.005397 0.999976
vn -0.004347 0.005397 0.999976
vn -0.004347 0.005397 0.999976
vn -0.004347 0.005397 0.999976
vn -0.004347 0.005397 0.999976
vn -0.085908 0.834473 -0.544311
vn -0.085908 0.834473 -0.544311
vn -0.085908 0.834473 -0.544311
vn -0.011245 0.000000 0.999937
vn -0.011245 0.000000 0.999937
vn -0.011245 0.000000 0.999937
vn -0.011245 0.000000 0.999937
vn 0.069632 0.835536 -0.545005
vn 0.069632 0.835536 -0.545005
vn 0.069632 0.835536 -0.545005
vn 0.005199 0.000000 0.999986
vn 0.005199 0.000000 0.999987
vn 0.005199 0.000000 0.999987
vn 0.005199 0.000000 0.999986
vn 0.001575 -0.999999 0.000000
vn 0.001575 -0.999999 0.000000
vn 0.001575 -0.999999 0.000000
vn 0.001575 -0.999999 0.000000
vn 0.007473 -0.008972 -0.999932
vn 0.007473 -0.008972 -0.999932
vn 0.007473 -0.008972 -0.999932
vn 0.007473 -0.008972 -0.999932
vn 0.007473 -0.008972 -0.999932
vn 0.002245 0.999997 0.001158
vn 0.002245 0.999997 0.001158
vn 0.002245 0.999997 0.001158
vn 0.002245 0.999997 0.001158
vn 0.002245 0.999997 0.001158
vn 0.007467 0.012711 0.999891
vn 0.007467 0.012711 0.999891
vn 0.007467 0.012711 0.999891
vn 0.007467 0.012711 0.999891
vn 0.007467 0.012711 0.999891
vn 0.002220 -0.999997 -0.000807
vn 0.002220 -0.999997 -0.000807
vn 0.002220 -0.999997 -0.000807
vn 0.002220 -0.999997 -0.000807
vn 0.002220 -0.999997 -0.000807
vn 0.005015 0.006944 -0.999963
vn 0.005015 0.006944 -0.999963
vn 0.005015 0.006944 -0.999963
vn 0.005015 0.006944 -0.999963
vn 0.005015 0.006944 -0.999963
vn 0.001503 0.999999 -0.000630
vn 0.001503 0.999999 -0.000630
vn 0.001503 0.999999 -0.000630
vn 0.001503 0.999999 -0.000630
vn 0.001503 0.999999 -0.000630
vn 0.004923 0.000000 0.999988
vn 0.004923 0.000000 0.999988
vn 0.004923 0.000000 0.999988
vn 0.004923 0.000000 0.999988
vn 0.001491 -0.999999 0.000000
vn 0.001491 -0.999999 0.000000
vn 0.001491 -0.999999 0.000000
vn 0.001491 -0.999999 0.000000
vn 0.009570 0.020830 -0.999737
vn 0.009570 0.020830 -0.999737
vn 0.009570 0.020830 -0.999737
vn 0.009570 0.020830 -0.999737
vn 0.009570 0.020830 -0.999737
vn 0.002870 0.999994 -0.001892
vn 0.002870 0.999994 -0.001892
vn 0.002870 0.999994 -0.001892
vn 0.002870 0.999994 -0.001892
vn 0.002870 0.999994 -0.001892
vn 0.087141 -0.913785 0.396741
vn 0.087141 -0.913785 0.396741
vn 0.087141 -0.913785 0.396741
vn 0.001594 0.999998 -0.000906
vn 0.001594 0.999998 -0.000906
vn 0.001594 0.999998 -0.000906
vn 0.001594 0.999998 -0.000906
vn 0.001594 0.999998 -0.000906
vn -0.003479 0.999993 -0.001600
vn -0.003479 0.999993 -0.001600
vn -0.003479 0.999993 -0.001600
vn -0.003479 0.999993 -0.001600
vn -0.003479 0.999993 -0.001600
vn -0.011697 0.017766 -0.999774
vn -0.011697 0.017766 -0.999774
vn -0.011697 0.017766 -0.999774
vn -0.011697 0.017766 -0.999774
vn -0.011697 0.017766 -0.999774
vn 0.005316 0.009975 -0.999936
vn 0.005316 0.009975 -0.999936
vn 0.005316 0.009975 -0.999936
vn 0.005316 0.009975 -0.999936
vn 0.005316 0.009975 -0.999936
vn -0.098505 0.921069 0.376734
vn -0.098505 0.921069 0.376734
vn -0.098505 0.921069 0.376734
vn 0.072017 0.923168 0.377591
vn 0.072017 0.923168 0.377591
vn 0.072017 0.923168 0.377591
vn 0.126897 -0.756601 -0.641445
vn 0.126897 -0.756601 -0.641445
vn 0.126897 -0.756601 -0.641445
vn -0.083223 -0.760122 -0.644429
vn -0.083223 -0.760122 -0.644429
vn -0.083223 -0.760122 -0.644429
vn 0.109168 0.758494 -0.642472
vn 0.109168 0.758494 -0.642472
vn 0.109168 0.758494 -0.642472
vn -0.098685 0.759329 -0.643181
vn -0.098685 0.759329 -0.643181
vn -0.098685 0.759329 -0.643181
vn 0.062313 0.941082 -0.332389
vn 0.062313 0.941082 -0.332389
vn 0.062313 0.941082 -0.332389
vn -0.049204 0.941772 -0.332634
vn -0.049204 0.941772 -0.332634
vn -0.049204 0.941772 -0.332634
vn 0.002787 -0.999995 0.001257
vn 0.002787 -0.999995 0.001257
vn 0.002787 -0.999995 0.001257
vn 0.002787 -0.999995 0.001257
vn 0.002787 -0.999995 0.001257
vn -0.000733 -1.000000 0.000284
vn -0.000733 -1.000000 0.000284
vn -0.000733 -1.000000 0.000284
vn -0.000733 -1.000000 0.000284
vn -0.000733 -1.000000 0.000284
vn -0.002427 -0.003106 0.999992
vn -0.002427 -0.003106 0.999992
vn -0.002427 -0.003106 0.999992
vn -0.002427 -0.003106 0.999992
vn -0.002427 -0.003106 0.999992
vn 0.009331 -0.013891 0.999860
vn 0.009331 -0.013891 0.999860
vn 0.009331 -0.013891 0.999860
vn 0.009331 -0.013891 0.999860
vn 0.009331 -0.013891 0.999860
s off
f 26/40/1 27/41/2 17/25/3 2/2/4 4/3/5
f 19/27/6 20/29/7 26/39/8 4/23/9 16/17/10
f 31/47/11 32/48/12 21/31/13 6/21/14 8/9/15
f 17/25/16 18/26/17 15/12/18 2/2/19
f 2/2/20 15/12/21 16/5/22 4/3/23
f 14/11/24 1/1/25 3/24/26 13/18/27
f 7/10/28 10/13/29 9/14/30 5/7/31
f 23/35/32 34/50/33 31/47/34 8/9/35 11/15/36
f 12/19/37 11/15/38 8/9/39 6/21/40
f 21/32/41 22/34/42 29/45/43 12/16/44 6/8/45
f 29/44/46 30/46/47 23/35/48 11/15/49 12/19/50
f 18/26/51 19/28/52 16/5/53 15/12/54
f 14/11/55 18/26/56 17/25/57 1/1/58
f 14/11/59 13/18/60 19/28/61 18/26/62
f 3/4/63 25/37/64 20/29/65 19/27/66 13/6/67
f 1/1/68 17/25/69 27/41/70 25/38/71 3/24/72
f 9/20/73 28/43/74 22/34/75 21/32/76 5/22/77
f 10/13/78 23/35/79 30/46/80 28/42/81 9/14/82
f 7/10/83 33/49/84 34/50/85 23/35/86 10/13/87
f 5/7/88 21/31/89 32/48/90 33/49/91 7/10/92
f 20/30/93 27/41/94 26/40/95
f 25/38/96 27/41/97 20/30/98
f 22/33/99 30/46/100 29/44/101
f 28/42/102 30/46/103 22/33/104
f 24/36/105 32/48/106 31/47/107
f 33/49/108 32/48/109 24/36/110
f 34/50/111 33/49/112 24/36/113
f 31/47/114 34/50/115 24/36/116
f 36/51/117 40/52/118 39/53/119 35/54/120
f 90/55/121 107/56/122 108/57/123
f 42/58/124 41/59/125 37/60/126 38/61/127
f 103/62/128 88/63/129 89/64/130 42/65/131 38/66/132
f 44/67/133 48/68/134 47/69/135 43/70/136
f 86/71/137 83/72/138 45/73/139 49/74/140
f 50/75/141 49/74/142 45/73/143 46/76/144
f 100/77/145 84/78/146 85/79/147 50/80/148 46/81/149
f 52/82/150 56/83/151 55/84/152 51/85/153
f 52/82/154 53/86/155 57/87/156 56/83/157
f 58/88/158 57/87/159 53/86/160 54/89/161
f 55/90/162 58/91/163 54/92/164 51/93/165
f 60/94/166 64/95/167 63/96/168 59/97/169
f 82/98/170 99/99/171 97/100/172 61/101/173 65/102/174
f 66/103/175 65/102/176 61/101/177 62/104/178
f 80/105/179 81/106/180 95/107/181 66/108/182 62/109/183
f 68/110/184 72/111/185 71/112/186 67/113/187
f 78/114/188 75/115/189 69/116/190 73/117/191
f 74/118/192 73/117/193 69/116/194 70/119/195
f 87/120/196 105/121/197 103/122/198 38/61/199 37/60/200
f 83/72/201 102/123/202 100/124/203 46/76/204 45/73/205
f 85/125/206 86/71/207 49/74/208 50/75/209
f 52/82/210 51/85/211 54/89/212 53/86/213
f 56/83/214 57/87/215 58/88/216 55/84/217
f 97/100/218 79/126/219 80/127/220 62/104/221 61/101/222
f 95/128/223 96/129/224 82/98/225 65/102/226 66/103/227
f 92/130/228 93/131/229 76/132/230
f 77/133/231 78/114/232 73/117/233 74/118/234
f 93/131/235 91/134/236 76/132/237
f 72/111/238 78/114/239 77/133/240 71/112/241
f 68/110/242 75/115/243 78/114/244 72/111/245
f 60/94/246 59/97/247 80/127/248 79/126/249 98/135/250
f 63/136/251 94/137/252 81/106/253 80/105/254 59/138/255
f 64/95/256 82/98/257 96/129/258 94/139/259 63/96/260
f 60/94/261 98/135/262 99/99/263 82/98/264 64/95/265
f 44/67/266 43/70/267 101/140/268 102/123/269 83/72/270
f 47/141/271 85/79/272 84/78/273 101/142/274 43/143/275
f 48/68/276 86/71/277 85/125/278 47/69/279
f 44/67/280 83/72/281 86/71/282 48/68/283
f 36/51/284 35/54/285 104/144/286 105/121/287 87/120/288
f 39/145/289 89/64/290 88/63/291 104/146/292 35/147/293
f 106/148/294 107/56/295 90/55/296
f 71/149/297 77/150/298 76/151/299 91/152/300 67/153/301
f 92/154/302 76/151/303 77/150/304 74/155/305 70/156/306
f 75/115/307 93/131/308 92/130/309 70/119/310 69/116/311
f 68/110/312 67/113/313 91/134/314 93/131/315 75/115/316
f 81/157/317 96/129/318 95/128/319
f 94/139/320 96/129/321 81/157/322
f 99/99/323 98/135/324 79/126/325
f 97/100/326 99/99/327 79/126/328
f 102/123/329 101/140/330 84/158/331
f 100/124/332 102/123/333 84/158/334
f 105/121/335 104/144/336 88/159/337
f 103/122/338 105/121/339 88/159/340
f 36/51/341 87/120/342 107/56/343 106/148/344 40/52/345
f 108/57/346 107/56/347 87/120/348 37/60/349 41/59/350
f 89/160/351 90/55/352 108/57/353 41/59/354 42/58/355
f 40/52/356 106/148/357 90/55/358 89/160/359 39/53/360
