# This file uses centimeters as units for non-parametric coordinates.

v 0.000000 0.000000 -11.250000
v 0.000000 300.574280 0.000000
v 0.000000 0.000000 0.000000
v 249.999268 299.999817 -11.250000
v 249.999268 0.000000 -11.250000
v 249.999268 0.000000 0.000000
v 249.999268 299.999817 0.000000
v 0.000000 299.999817 -11.250000
v 4.916241 -0.071784 -11.250004
v 246.680420 -0.071838 -11.249996
v 3.318848 251.883301 -11.143770
v 242.904510 251.933777 -11.356222
v 246.680420 -0.071839 0.000000
v 3.318848 -0.071784 0.000000
v 0.000000 0.000000 11.250000
v 249.999268 299.999817 11.250000
v 249.999268 0.000000 11.250000
v 0.000000 299.999817 11.250000
v 1.994300 -0.071784 11.250004
v 246.680420 -0.071838 11.249996
v 3.318848 250.738297 11.143770
v 244.292770 247.294876 11.356222
v 124.999634 299.999817 11.250000
v 124.999634 300.574280 0.000000
v 11.196045 -0.143616 -7.877197
v 12.882446 -0.215424 -3.938599
v 12.882446 -0.215424 3.938599
v 10.226105 -0.143616 7.877197
v 11.196045 248.350021 -7.877197
v 12.882446 246.663635 -3.938599
v 238.803223 -0.143616 -7.877197
v 237.116821 -0.215424 -3.938599
v 237.116821 -0.215424 3.938599
v 238.803223 -0.143616 7.877197
v 12.882446 246.663635 3.938599
v 11.196045 248.350021 7.877197
v 237.116821 246.663635 -3.938599
v 238.803223 248.690323 -7.877197
v 237.116821 246.663635 3.938599
v 238.803223 248.350021 7.877197
v 12.882446 -0.215424 0.000000
v 12.882446 246.663635 0.000000
v 237.116821 246.663635 0.000000
v 237.116821 -0.215424 0.000000
v 0.000000 131.474243 -11.250000
v 249.999268 139.265518 0.000000
v 246.680420 174.497589 -11.322349
v 5.923471 189.033554 -11.171621
v 249.999268 138.468063 11.250000
v 247.202103 171.206116 11.320984
v 3.318848 185.785538 11.172968
v 10.155472 188.083466 -7.877197
v 12.882446 187.410095 -3.938599
v 12.882446 186.265030 3.938599
v 8.746965 185.793365 7.877197
v 237.116821 173.996353 -3.938599
v 238.803223 174.468048 -7.877197
v 237.116821 172.851303 3.938599
v 238.803223 172.177933 7.877197
v 12.882446 186.837555 0.000000
v 237.116821 173.423828 0.000000
v 0.000000 130.676788 0.000000
v 249.999268 140.062958 -11.250000
v 247.757004 105.410660 -11.293715
v 0.000000 129.879349 11.250000
v 3.318848 74.212311 11.219213
v 237.116821 104.207870 -3.938599
v 237.116821 104.236183 3.938599
v 238.803223 104.467094 7.877197
v 12.882446 75.401176 0.000000
v 3.318848 74.131653 -11.219248
v 244.818741 105.491821 11.293748
v 11.196045 75.156128 -7.877197
v 12.882446 75.387054 -3.938599
v 12.882446 75.415337 3.938599
v 11.196045 75.212753 7.877197
v 240.338150 104.410484 -7.877197
v 237.116821 104.222038 0.000000
v 198.736328 256.227234 -11.314367
v 183.274765 256.498138 11.310576
v 195.492737 250.859619 -7.877197
v 194.183594 246.663635 -3.938599
v 192.671570 246.663635 3.938599
v 192.468628 248.350021 7.877197
v 193.427612 246.663635 0.000000
v 73.168808 262.786926 11.208469
v 79.089417 248.350006 -7.877197
v 80.189514 246.663635 0.000000
v 71.772690 262.786926 -11.207251
v 79.944092 246.663635 -3.938599
v 80.434875 246.663635 3.938599
v 80.070679 248.350021 7.877197
v 8.889920 256.750427 11.148931
v 238.856873 253.114700 11.352156
v 10.484527 256.913879 -11.150415
v 238.131516 256.272247 -11.351700
vt 0.001279 0.998731
vt 0.001824 0.974884
vt -0.025496 0.001796
vt 0.001237 0.001263
vt 0.998740 0.998742
vt 1.023865 0.997092
vt 0.970741 0.838863
vt 0.014047 0.838661
vt 0.998763 0.025453
vt 0.997172 0.003025
vt 0.986434 0.001679
vt 0.020122 -0.000079
vt 0.986434 0.013764
vt 0.013446 0.013765
vt 0.998403 0.974884
vt -0.025496 0.998597
vt 0.998403 0.998323
vt 0.001825 0.998322
vt 0.001825 0.001796
vt 0.001825 0.998187
vt 0.001237 0.025453
vt 0.997173 0.997092
vt 0.998763 0.001263
vt 1.023864 0.003025
vt 0.001825 0.998188
vt -0.025496 0.998605
vt -0.025496 0.001796
vt 0.001825 0.001796
vt 0.998402 0.998322
vt 0.998403 0.974884
vt 0.001825 0.974885
vt 0.001825 0.998323
vt 0.976260 0.823456
vt 0.998756 0.998738
vt 0.001249 0.998734
vt 0.014075 0.834846
vt 1.023864 0.003025
vt 1.023864 0.997092
vt 0.997172 0.997092
vt 0.997172 0.003025
vt 0.986434 0.001679
vt 0.998763 0.001263
vt 0.001237 0.001263
vt 0.008572 0.001703
vt 0.986434 0.013764
vt 0.998763 0.025453
vt 0.001237 0.025453
vt 0.013446 0.013765
vt 0.500114 0.998322
vt 0.500000 0.998737
vt 0.500114 0.974884
vt 0.500114 0.974884
vt 0.045170 0.002076
vt 0.051910 0.001837
vt 0.051910 0.001837
vt 0.045170 0.826681
vt 0.051910 0.821085
vt 0.948090 0.001837
vt 0.954830 0.002076
vt 0.954830 0.002076
vt 0.948090 0.001837
vt 0.051910 0.821085
vt 0.045170 0.826681
vt 0.041326 0.000701
vt 0.948090 0.821085
vt 0.954704 0.827889
vt 0.948090 0.821085
vt 0.954830 0.826681
vt 0.051910 0.001837
vt 0.051910 0.821085
vt 0.948090 0.821085
vt 0.948090 0.001837
vt 0.051910 0.001837
vt 0.948090 0.001837
vt 0.948090 0.821085
vt 0.051910 0.821085
vt 0.001825 0.438521
vt 0.001237 0.438404
vt 1.023864 0.464489
vt 1.023864 0.464489
vt 0.986143 0.581540
vt 0.023586 0.629858
vt 0.997172 0.461847
vt 0.998763 0.461658
vt 0.988069 0.570633
vt 0.013787 0.619028
vt 0.040952 0.626695
vt 0.051910 0.624457
vt 0.051910 0.620657
vt 0.035418 0.619075
vt 0.948090 0.579945
vt 0.954830 0.581510
vt 0.948090 0.576145
vt 0.954830 0.573910
vt 0.051910 0.622557
vt 0.051910 0.622557
vt 0.948090 0.578045
vt 0.948090 0.578045
vt -0.025496 0.435043
vt -0.025496 0.435043
vt 0.997172 0.467132
vt 0.998763 0.466960
vt 0.990324 0.351948
vt 0.001825 0.433224
vt 0.001237 0.433101
vt 0.013582 0.248413
vt 0.948090 0.348357
vt 0.948090 0.348451
vt 0.954830 0.349218
vt 0.051910 0.252765
vt 0.051910 0.252765
vt 0.013581 0.248145
vt 0.979252 0.352515
vt 0.045170 0.251952
vt 0.051910 0.252718
vt 0.051910 0.252812
vt 0.045170 0.252140
vt 0.960951 0.348960
vt 0.948090 0.348404
vt 0.948090 0.348404
vt 0.794497 0.853018
vt 0.732677 0.853971
vt 0.781648 0.835097
vt 0.776502 0.821085
vt 0.770459 0.821085
vt 0.769648 0.826681
vt 0.773481 0.821085
vt 0.773481 0.821085
vt 0.292971 0.874853
vt 0.316514 0.826681
vt 0.320911 0.821085
vt 0.320911 0.821085
vt 0.287395 0.874854
vt 0.319930 0.821085
vt 0.321892 0.821085
vt 0.320436 0.826681
vt 0.036172 0.854757
vt 0.954605 0.842770
vt 0.042541 0.855303
vt 0.951708 0.853256
vn -1.000000 0.000000 0.000000
vn -1.000000 0.000000 0.000000
vn -1.000000 0.000000 0.000000
vn -1.000000 0.000000 0.000000
vn 0.000936 0.002072 -0.999997
vn 0.000936 0.002072 -0.999997
vn 0.000936 0.002072 -0.999997
vn 1.000000 0.000000 0.000000
vn 1.000000 0.000000 0.000000
vn 1.000000 0.000000 0.000000
vn 1.000000 0.000000 0.000000
vn 0.016978 0.000127 -0.999856
vn 0.016978 0.000127 -0.999856
vn 0.016978 0.000127 -0.999856
vn 0.016978 0.000127 -0.999856
vn 0.019622 0.000341 -0.999807
vn 0.019622 0.000341 -0.999807
vn 0.019622 0.000341 -0.999807
vn 0.019622 0.000341 -0.999807
vn 0.021641 -0.999766 -0.000000
vn 0.021641 -0.999766 -0.000000
vn 0.021641 -0.999766 -0.000000
vn 0.021641 -0.999766 -0.000000
vn -0.017431 -0.999847 -0.001238
vn -0.017431 -0.999847 -0.001238
vn -0.017431 -0.999847 -0.001238
vn -0.017431 -0.999847 -0.001238
vn -1.000000 0.000000 0.000000
vn -1.000000 0.000000 0.000000
vn -1.000000 0.000000 0.000000
vn -1.000000 0.000000 0.000000
vn 0.000000 0.998699 0.050998
vn 0.000000 0.998699 0.050998
vn 0.000000 0.998699 0.050998
vn 0.000000 0.998699 0.050998
vn -0.000607 0.002323 0.999997
vn -0.000607 0.002323 0.999997
vn -0.000607 0.002323 0.999997
vn 1.000000 0.000000 0.000000
vn 1.000000 0.000000 0.000000
vn 1.000000 0.000000 0.000000
vn 1.000000 0.000000 0.000000
vn 0.020591 0.000104 0.999788
vn 0.020591 0.000104 0.999788
vn 0.020591 0.000104 0.999788
vn 0.020591 0.000104 0.999788
vn 0.027475 0.000124 0.999623
vn 0.027475 0.000124 0.999623
vn 0.027475 0.000124 0.999623
vn 0.027475 0.000124 0.999623
vn 0.021641 -0.999766 0.000000
vn 0.021641 -0.999766 0.000000
vn 0.021641 -0.999766 0.000000
vn 0.021641 -0.999766 0.000000
vn -0.027011 -0.999634 -0.001590
vn -0.027011 -0.999634 -0.001590
vn -0.027011 -0.999634 -0.001590
vn -0.027011 -0.999634 -0.001590
vn -0.013765 -0.999894 -0.004647
vn -0.013765 -0.999894 -0.004647
vn -0.013765 -0.999894 -0.004647
vn -0.013765 -0.999894 -0.004647
vn -0.015018 -0.999887 0.000000
vn -0.015018 -0.999887 0.000000
vn -0.015018 -0.999887 0.000000
vn 0.478172 0.006273 -0.878244
vn 0.478172 0.006273 -0.878244
vn 0.478172 0.006273 -0.878244
vn 0.478172 0.006273 -0.878244
vn 0.919278 0.000000 -0.393610
vn 0.919278 0.000000 -0.393610
vn 0.919278 0.000000 -0.393610
vn 0.919278 0.000000 -0.393610
vn 0.012456 -0.999917 -0.003344
vn 0.012456 -0.999917 -0.003344
vn 0.012456 -0.999917 -0.003344
vn 0.012456 -0.999917 -0.003344
vn 0.012456 -0.999917 0.003344
vn 0.012456 -0.999917 0.003344
vn 0.012456 -0.999917 0.003344
vn 0.012456 -0.999917 0.003344
vn 1.000000 0.000000 0.000000
vn 1.000000 0.000000 0.000000
vn 1.000000 0.000000 0.000000
vn 1.000000 0.000000 0.000000
vn 0.875758 -0.005626 0.482717
vn 0.875758 -0.005626 0.482717
vn 0.875758 -0.005626 0.482717
vn 0.875758 -0.005626 0.482717
vn 0.441132 -0.008267 0.897404
vn 0.441132 -0.008267 0.897404
vn 0.441132 -0.008267 0.897404
vn 0.441132 -0.008267 0.897404
vn -0.848830 0.006235 -0.528629
vn -0.848830 0.006235 -0.528629
vn -0.848830 0.006235 -0.528629
vn -0.848830 0.006235 -0.528629
vn -0.497835 -0.012588 -0.867181
vn -0.497835 -0.012588 -0.867181
vn -0.497835 -0.012588 -0.867181
vn -0.497835 -0.012588 -0.867181
vn -1.000000 0.000000 0.000000
vn -1.000000 0.000000 0.000000
vn -1.000000 0.000000 0.000000
vn -1.000000 0.000000 0.000000
vn -0.000000 -0.919283 -0.393597
vn -0.000000 -0.919283 -0.393597
vn -0.000000 -0.919283 -0.393597
vn -0.000000 -0.919283 -0.393597
vn -0.919278 0.000000 0.393610
vn -0.919278 0.000000 0.393610
vn -0.919278 0.000000 0.393610
vn -0.919278 0.000000 0.393610
vn -0.376467 -0.413304 -0.829127
vn -0.376467 -0.413304 -0.829127
vn -0.376467 -0.413304 -0.829127
vn 0.000000 -1.000000 0.000007
vn 0.000000 -1.000000 0.000007
vn 0.000000 -1.000000 0.000007
vn 0.000000 -1.000000 0.000007
vn -0.447115 -0.008750 0.894433
vn -0.447115 -0.008750 0.894433
vn -0.447115 -0.008750 0.894433
vn -0.447115 -0.008750 0.894433
vn 0.000000 -0.919280 0.393605
vn 0.000000 -0.919280 0.393605
vn 0.000000 -0.919280 0.393605
vn 0.000000 -0.919280 0.393605
vn -0.016313 -0.480621 0.876777
vn -0.016313 -0.480621 0.876777
vn -0.016313 -0.480621 0.876777
vn -0.016313 -0.480621 0.876777
vn -0.012156 -0.999925 0.001541
vn -0.012156 -0.999925 0.001541
vn -0.012156 -0.999925 0.001541
vn -0.012156 -0.999925 0.001541
vn 0.015012 -0.999887 0.000000
vn 0.015012 -0.999887 0.000000
vn 0.015012 -0.999887 0.000000
vn 1.000000 0.000000 0.000000
vn 1.000000 0.000000 0.000000
vn 1.000000 0.000000 0.000000
vn 1.000000 0.000000 0.000000
vn 0.000000 -1.000000 -0.000007
vn 0.000000 -1.000000 -0.000007
vn 0.000000 -1.000000 -0.000007
vn 0.000000 -1.000000 -0.000007
vn -1.000000 0.000000 0.000000
vn -1.000000 0.000000 0.000000
vn -1.000000 0.000000 0.000000
vn -1.000000 0.000000 0.000000
vn 0.015012 -0.999887 0.000000
vn 0.015012 -0.999887 0.000000
vn 0.015012 -0.999887 0.000000
vn -0.015018 -0.999887 0.000000
vn -0.015018 -0.999887 0.000000
vn -0.015018 -0.999887 0.000000
vn 1.000000 0.000000 0.000000
vn 1.000000 0.000000 0.000000
vn 1.000000 0.000000 0.000000
vn 1.000000 0.000000 0.000000
vn 0.020869 -0.000089 -0.999782
vn 0.020869 -0.000089 -0.999782
vn 0.020869 -0.000089 -0.999782
vn 0.011803 0.000147 -0.999930
vn 0.011803 0.000147 -0.999930
vn 0.011803 0.000147 -0.999930
vn 1.000000 0.000000 0.000000
vn 1.000000 0.000000 0.000000
vn 1.000000 0.000000 0.000000
vn 1.000000 0.000000 0.000000
vn 0.014408 -0.000937 0.999896
vn 0.014408 -0.000937 0.999896
vn 0.014408 -0.000937 0.999896
vn 0.016226 0.000414 0.999868
vn 0.016226 0.000414 0.999868
vn 0.016226 0.000414 0.999868
vn 0.480619 -0.003116 -0.876924
vn 0.480619 -0.003116 -0.876924
vn 0.480619 -0.003116 -0.876924
vn 0.480619 -0.003116 -0.876924
vn 0.871409 -0.007587 -0.490499
vn 0.871409 -0.007587 -0.490499
vn 0.871409 -0.007587 -0.490499
vn 0.871409 -0.007587 -0.490499
vn 1.000000 0.000000 0.000000
vn 1.000000 0.000000 0.000000
vn 1.000000 0.000000 0.000000
vn 1.000000 0.000000 0.000000
vn 0.802912 -0.015993 0.595883
vn 0.802912 -0.015993 0.595883
vn 0.802912 -0.015993 0.595883
vn 0.802912 -0.015993 0.595883
vn 0.446098 0.005104 0.894970
vn 0.446098 0.005104 0.894970
vn 0.446098 0.005104 0.894970
vn 0.446098 0.005104 0.894970
vn -0.919278 0.000000 -0.393610
vn -0.919278 0.000000 -0.393610
vn -0.919278 0.000000 -0.393610
vn -0.919278 0.000000 -0.393610
vn -0.408842 -0.007861 -0.912571
vn -0.408842 -0.007861 -0.912571
vn -0.408842 -0.007861 -0.912571
vn -0.408842 -0.007861 -0.912571
vn -1.000000 0.000000 0.000000
vn -1.000000 0.000000 0.000000
vn -1.000000 0.000000 0.000000
vn -1.000000 0.000000 0.000000
vn -0.919278 0.000000 0.393610
vn -0.919278 0.000000 0.393610
vn -0.919278 0.000000 0.393610
vn -0.919278 0.000000 0.393610
vn -0.429757 0.007492 0.902914
vn -0.429757 0.007492 0.902914
vn -0.429757 0.007492 0.902914
vn -0.429757 0.007492 0.902914
vn 1.000000 0.000000 0.000000
vn 1.000000 0.000000 0.000000
vn 1.000000 0.000000 0.000000
vn 1.000000 0.000000 0.000000
vn -1.000000 0.000000 0.000000
vn -1.000000 0.000000 0.000000
vn -1.000000 0.000000 0.000000
vn -1.000000 0.000000 0.000000
vn 0.872494 0.004036 -0.488608
vn 0.872494 0.004036 -0.488608
vn 0.872494 0.004036 -0.488608
vn 0.872494 0.004036 -0.488608
vn 1.000000 0.000000 0.000000
vn 1.000000 0.000000 0.000000
vn 1.000000 0.000000 0.000000
vn 1.000000 0.000000 0.000000
vn 0.803800 0.008890 0.594834
vn 0.803800 0.008890 0.594834
vn 0.803800 0.008890 0.594834
vn 0.803800 0.008890 0.594834
vn -0.848354 -0.009311 -0.529347
vn -0.848354 -0.009311 -0.529347
vn -0.848354 -0.009311 -0.529347
vn -0.848354 -0.009311 -0.529347
vn -1.000000 0.000000 0.000000
vn -1.000000 0.000000 0.000000
vn -1.000000 0.000000 0.000000
vn -1.000000 0.000000 0.000000
vn -0.919278 0.000000 0.393610
vn -0.919278 0.000000 0.393610
vn -0.919278 0.000000 0.393610
vn -0.919278 0.000000 0.393610
vn 1.000000 0.000000 0.000000
vn 1.000000 0.000000 0.000000
vn 1.000000 0.000000 0.000000
vn 1.000000 0.000000 0.000000
vn -1.000000 0.000000 0.000000
vn -1.000000 0.000000 0.000000
vn -1.000000 0.000000 0.000000
vn -1.000000 0.000000 0.000000
vn -1.000000 0.000000 0.000000
vn -1.000000 0.000000 0.000000
vn -1.000000 0.000000 0.000000
vn -1.000000 0.000000 0.000000
vn 0.009224 -0.000218 -0.999957
vn 0.009224 -0.000218 -0.999957
vn 0.009224 -0.000218 -0.999957
vn 0.009224 -0.000218 -0.999957
vn 0.005050 0.000189 -0.999987
vn 0.005050 0.000189 -0.999987
vn 0.005050 0.000189 -0.999987
vn 0.005050 0.000189 -0.999987
vn -1.000000 0.000000 0.000000
vn -1.000000 0.000000 0.000000
vn -1.000000 0.000000 0.000000
vn -1.000000 0.000000 0.000000
vn 0.005675 -0.000136 0.999984
vn 0.005675 -0.000136 0.999984
vn 0.005675 -0.000136 0.999984
vn 0.005675 -0.000136 0.999984
vn 0.006906 0.000106 0.999976
vn 0.006906 0.000106 0.999976
vn 0.006906 0.000106 0.999976
vn 0.006906 0.000106 0.999976
vn 0.428284 0.004762 -0.903632
vn 0.428284 0.004762 -0.903632
vn 0.428284 0.004762 -0.903632
vn 0.428284 0.004762 -0.903632
vn 0.385023 -0.005714 0.922889
vn 0.385023 -0.005714 0.922889
vn 0.385023 -0.005714 0.922889
vn 0.385023 -0.005714 0.922889
vn -0.405973 0.004858 -0.913872
vn -0.405973 0.004858 -0.913872
vn -0.405973 0.004858 -0.913872
vn -0.405973 0.004858 -0.913872
vn -0.438809 -0.004074 0.898571
vn -0.438809 -0.004074 0.898571
vn -0.438809 -0.004074 0.898571
vn -0.438809 -0.004074 0.898571
vn 0.001148 0.999267 -0.038269
vn 0.001148 0.999267 -0.038269
vn 0.001148 0.999267 -0.038269
vn 0.001148 0.999267 -0.038269
vn 0.001148 0.999267 -0.038269
vn -0.000281 0.000196 -1.000000
vn -0.000281 0.000196 -1.000000
vn -0.000281 0.000196 -1.000000
vn -0.000281 0.000196 -1.000000
vn -0.000280 0.000214 1.000000
vn -0.000280 0.000214 1.000000
vn -0.000280 0.000214 1.000000
vn -0.000280 0.000214 1.000000
vn -0.000280 0.000214 1.000000
vn 0.002297 0.999672 0.025522
vn 0.002297 0.999672 0.025522
vn 0.002297 0.999672 0.025522
vn 0.002297 0.999672 0.025522
vn -0.019642 -0.780901 -0.624346
vn -0.019642 -0.780901 -0.624346
vn -0.019642 -0.780901 -0.624346
vn -0.019642 -0.780901 -0.624346
vn -0.005815 -0.324409 -0.945899
vn -0.005815 -0.324409 -0.945899
vn -0.005815 -0.324409 -0.945899
vn -0.005815 -0.324409 -0.945899
vn 0.000000 -1.000000 0.000000
vn 0.000000 -1.000000 0.000000
vn 0.000000 -1.000000 0.000000
vn 0.000000 -1.000000 0.000000
vn 0.000000 -0.919279 0.393607
vn 0.000000 -0.919279 0.393607
vn 0.000000 -0.919279 0.393607
vn 0.000000 -0.919279 0.393607
vn -0.008709 -0.292606 0.956194
vn -0.008709 -0.292606 0.956194
vn -0.008709 -0.292606 0.956194
vn -0.008709 -0.292606 0.956194
vn 0.000000 -1.000000 0.000000
vn 0.000000 -1.000000 0.000000
vn 0.000000 -1.000000 0.000000
vn 0.000000 -1.000000 0.000000
vn 0.008721 -0.801455 -0.597991
vn 0.008721 -0.801455 -0.597991
vn 0.008721 -0.801455 -0.597991
vn 0.008721 -0.801455 -0.597991
vn 0.000000 -1.000000 0.000000
vn 0.000000 -1.000000 0.000000
vn 0.000000 -1.000000 0.000000
vn 0.000000 -1.000000 0.000000
vn 0.000000 -0.919278 0.393610
vn 0.000000 -0.919278 0.393610
vn 0.000000 -0.919278 0.393610
vn 0.000000 -0.919278 0.393610
vn 0.000000 -1.000000 0.000000
vn 0.000000 -1.000000 0.000000
vn 0.000000 -1.000000 0.000000
vn 0.000000 -1.000000 0.000000
vn -0.000690 -0.002479 -0.999997
vn -0.000690 -0.002479 -0.999997
vn -0.000690 -0.002479 -0.999997
vn 0.001306 -0.002068 0.999997
vn 0.001306 -0.002068 0.999997
vn 0.001306 -0.002068 0.999997
vn 0.011946 -0.272068 -0.962204
vn 0.011946 -0.272068 -0.962204
vn 0.011946 -0.272068 -0.962204
vn 0.011946 -0.272068 -0.962204
vn 0.295953 -0.275026 0.914753
vn 0.295953 -0.275026 0.914753
vn 0.295953 -0.275026 0.914753
vn 0.011959 -0.273283 0.961859
vn 0.011959 -0.273283 0.961859
vn 0.011959 -0.273283 0.961859
vn 0.011959 -0.273283 0.961859
vn -0.000693 -0.002479 0.999997
vn -0.000693 -0.002479 0.999997
vn -0.000693 -0.002479 0.999997
vn -0.530933 -0.495427 0.687504
vn -0.530933 -0.495427 0.687504
vn -0.530933 -0.495427 0.687504
vn 0.001263 0.001879 0.999997
vn 0.001263 0.001879 0.999997
vn 0.001263 0.001879 0.999997
vn 0.231197 -0.330532 -0.915039
vn 0.231197 -0.330532 -0.915039
vn 0.231197 -0.330532 -0.915039
vn 0.000594 -0.002167 -0.999998
vn 0.000594 -0.002167 -0.999998
vn 0.000594 -0.002167 -0.999998
vn -0.012442 -0.468905 -0.883161
vn -0.012442 -0.468905 -0.883161
vn -0.012442 -0.468905 -0.883161
vn -0.012442 -0.468905 -0.883161
vn -0.000951 0.002584 -0.999996
vn -0.000951 0.002584 -0.999996
vn -0.000951 0.002584 -0.999996
s off
f 8/20/1 45/77/2 62/99/3 2/16/4
f 12/7/5 96/140/6 4/5/7
f 6/24/8 5/10/9 63/101/10 46/79/11
f 12/7/12 4/5/13 63/102/14 47/81/15
f 11/8/16 48/82/17 45/78/18 8/1/19
f 5/23/20 6/9/21 13/13/22 10/11/23
f 9/12/24 14/14/25 3/21/26 1/4/27
f 18/25/28 2/26/29 62/100/30 65/104/31
f 23/49/32 24/51/33 2/31/34 18/32/35
f 94/138/36 16/34/37 80/122/38
f 6/37/39 46/80/40 49/83/41 17/40/42
f 22/33/43 50/85/44 49/84/45 16/34/46
f 21/36/47 18/35/48 65/105/49 51/86/50
f 17/42/51 20/41/52 13/45/53 6/46/54
f 19/44/55 15/43/56 3/47/57 14/48/58
f 9/12/59 25/53/60 26/54/61 14/14/62
f 14/14/63 26/54/64 41/73/65
f 29/56/66 52/87/67 48/82/68 11/8/69
f 26/54/70 25/53/71 73/114/72 74/115/73
f 13/13/74 32/58/75 31/59/76 10/11/77
f 34/60/78 33/61/79 13/45/80 20/41/81
f 41/69/82 70/110/83 75/116/84 27/55/85
f 27/55/86 75/116/87 76/117/88 28/64/89
f 21/36/90 51/86/91 55/90/92 36/63/93
f 32/58/94 67/107/95 77/118/96 31/59/97
f 12/7/98 47/81/99 57/92/100 38/66/101
f 44/74/102 33/61/103 68/108/104 78/119/105
f 29/56/106 87/130/107 90/134/108 30/57/109
f 33/61/110 34/60/111 69/109/112 68/108/113
f 38/66/114 96/140/115 12/7/116
f 42/76/117 88/131/118 91/135/119 35/62/120
f 40/68/121 59/94/122 50/85/123 22/33/124
f 35/62/125 91/135/126 92/136/127 36/63/128
f 40/68/129 94/138/130 80/122/131 84/126/132
f 28/64/133 19/44/134 14/48/135 27/55/136
f 33/61/137 44/74/138 13/45/139
f 26/54/140 74/115/141 70/111/142 41/73/143
f 30/57/144 90/134/145 88/132/146 42/70/147
f 32/58/148 44/72/149 78/120/150 67/107/151
f 13/13/152 44/72/153 32/58/154
f 14/48/155 41/69/156 27/55/157
f 46/79/158 63/101/159 4/22/160 7/6/161
f 47/81/162 63/102/163 64/103/164
f 45/78/165 48/82/166 71/112/167
f 49/83/168 46/80/169 7/38/170 16/39/171
f 49/84/172 50/85/173 72/113/174
f 51/86/175 65/105/176 66/106/177
f 48/82/178 52/87/179 73/114/180 71/112/181
f 53/88/182 52/87/183 29/56/184 30/57/185
f 54/89/186 60/95/187 42/76/188 35/62/189
f 55/90/190 54/89/191 35/62/192 36/63/193
f 55/90/194 51/86/195 66/106/196 76/117/197
f 57/92/198 56/91/199 37/65/200 38/66/201
f 57/92/202 47/81/203 64/103/204 77/118/205
f 61/97/206 58/93/207 39/67/208 43/75/209
f 58/93/210 59/94/211 40/68/212 39/67/213
f 50/85/214 59/94/215 69/109/216 72/113/217
f 60/96/218 53/88/219 30/57/220 42/70/221
f 56/91/222 61/98/223 43/71/224 37/65/225
f 74/115/226 73/114/227 52/87/228 53/88/229
f 75/116/230 70/110/231 60/95/232 54/89/233
f 76/117/234 75/116/235 54/89/236 55/90/237
f 77/118/238 67/107/239 56/91/240 57/92/241
f 78/119/242 68/108/243 58/93/244 61/97/245
f 68/108/246 69/109/247 59/94/248 58/93/249
f 70/111/250 74/115/251 53/88/252 60/96/253
f 67/107/254 78/120/255 61/98/256 56/91/257
f 62/99/258 45/77/259 1/19/260 3/3/261
f 64/103/262 63/102/263 5/23/264 10/11/265
f 45/78/266 71/112/267 9/12/268 1/4/269
f 65/104/270 62/100/271 3/27/272 15/28/273
f 49/84/274 72/113/275 20/41/276 17/42/277
f 66/106/278 65/105/279 15/43/280 19/44/281
f 71/112/282 73/114/283 25/53/284 9/12/285
f 76/117/286 66/106/287 19/44/288 28/64/289
f 77/118/290 64/103/291 10/11/292 31/59/293
f 72/113/294 69/109/295 34/60/296 20/41/297
f 7/15/298 4/17/299 8/18/300 2/2/301 24/52/302
f 4/5/303 79/121/304 89/133/305 8/1/306
f 80/122/307 16/34/308 23/50/309 18/35/310 86/129/311
f 16/29/312 7/30/313 24/51/314 23/49/315
f 82/124/316 81/123/317 38/66/318 37/65/319
f 79/121/320 81/123/321 87/130/322 89/133/323
f 83/125/324 85/127/325 43/75/326 39/67/327
f 84/126/328 83/125/329 39/67/330 40/68/331
f 84/126/332 80/122/333 86/129/334 92/136/335
f 85/128/336 82/124/337 37/65/338 43/71/339
f 90/134/340 87/130/341 81/123/342 82/124/343
f 91/135/344 88/131/345 85/127/346 83/125/347
f 92/136/348 91/135/349 83/125/350 84/126/351
f 88/132/352 90/134/353 82/124/354 85/128/355
f 8/1/356 89/133/357 95/139/358
f 93/137/359 18/35/360 21/36/361
f 89/133/362 87/130/363 29/56/364 95/139/365
f 36/63/366 93/137/367 21/36/368
f 92/136/369 86/129/370 93/137/371 36/63/372
f 86/129/373 18/35/374 93/137/375
f 22/33/376 94/138/377 40/68/378
f 22/33/379 16/34/380 94/138/381
f 95/139/382 29/56/383 11/8/384
f 8/1/385 95/139/386 11/8/387
f 38/66/388 81/123/389 79/121/390 96/140/391
f 4/5/392 96/140/393 79/121/394
