# This file uses centimeters as units for non-parametric coordinates.

v 23.334961 28.489582 0.000000
v 23.334961 12.671124 0.000000
v 44.280762 28.489582 0.000000
v 44.280762 12.671124 0.000000
v 84.129395 28.489582 -0.000122
v 84.129395 12.671124 -0.000122
v 105.075195 28.489582 0.000000
v 105.075195 12.671124 0.000000
v 144.923828 28.489582 -0.000122
v 144.923828 12.671124 -0.000122
v 165.869629 28.489582 0.000122
v 165.869629 12.671124 0.000122
v 205.718262 28.489582 0.000000
v 205.718262 12.671124 0.000000
v 226.664063 28.489582 0.000000
v 226.664063 12.671124 0.000000
v 23.334717 12.671124 38.666138
v 44.280518 14.296726 38.666138
v 44.280762 28.489582 38.666260
v 23.334961 25.091782 38.666260
v 84.129150 12.671124 37.164429
v 105.074951 12.671124 38.666138
v 105.075195 24.431717 38.666138
v 84.129639 28.489582 37.164551
v 144.923584 12.671124 38.666016
v 165.869385 13.147238 38.666260
v 165.869629 28.489582 38.666382
v 144.924072 28.489582 38.666138
v 205.718018 12.671124 34.801636
v 226.663818 12.671124 38.666138
v 226.664063 27.772602 38.666260
v 205.718506 28.489582 38.666260
v 23.335205 28.489582 30.944092
v 30.418701 28.489582 38.666260
v 105.075195 28.489582 28.664063
v 100.683594 28.489582 38.666260
v 144.923828 28.489582 16.527588
v 144.924072 28.489582 32.236328
v 148.267822 28.489582 24.409912
v 144.924072 25.187361 21.715088
v 212.365967 12.671124 38.666260
v 205.718262 15.852198 38.666260
v 226.664063 12.671124 8.690186
v 226.663818 12.671124 24.231445
v 226.664063 15.758136 15.834473
v 223.630615 12.671124 16.605103
v 29.602295 12.671124 38.666260
v 36.319092 14.864379 38.666138
v 36.208252 12.671124 35.353760
vt 0.316763 0.109170
vt 0.316754 0.109208
vt 0.316709 0.109227
vt 0.316718 0.109189
vt 0.316663 0.109247
vt 0.316615 0.109267
vt 0.316622 0.109229
vt 0.316671 0.109209
vt 0.316566 0.109288
vt 0.316516 0.109310
vt 0.316521 0.109271
vt 0.316573 0.109250
vt 0.316464 0.109332
vt 0.316411 0.109355
vt 0.316414 0.109316
vt 0.316469 0.109293
vt 0.316754 0.109208
vt 0.316709 0.109227
vt 0.316718 0.109189
vt 0.316762 0.109174
vt 0.316663 0.109247
vt 0.316615 0.109267
vt 0.316622 0.109234
vt 0.316671 0.109209
vt 0.316566 0.109288
vt 0.316516 0.109310
vt 0.316521 0.109271
vt 0.316573 0.109250
vt 0.316464 0.109332
vt 0.316411 0.109355
vt 0.316414 0.109316
vt 0.316469 0.109293
vt 0.315394 0.127404
vt 0.315379 0.127350
vt 0.315539 0.127346
vt 0.315558 0.127399
vt 0.315426 0.127519
vt 0.315410 0.127460
vt 0.315578 0.127454
vt 0.315599 0.127513
vt 0.315462 0.127647
vt 0.315444 0.127581
vt 0.315621 0.127575
vt 0.315644 0.127640
vt 0.315502 0.127790
vt 0.315481 0.127716
vt 0.315669 0.127710
vt 0.315695 0.127783
vt 0.315507 0.127347
vt 0.316763 0.109170
vt 0.316748 0.109177
vt 0.315546 0.127364
vt 0.316622 0.109229
vt 0.315554 0.127515
vt 0.316633 0.109225
vt 0.315594 0.127501
vt 0.315519 0.127578
vt 0.316573 0.109250
vt 0.315591 0.127576
vt 0.316573 0.109250
vt 0.315559 0.127588
vt 0.316572 0.109254
vt 0.315556 0.127577
vt 0.316447 0.109339
vt 0.316465 0.109324
vt 0.316411 0.109355
vt 0.316411 0.109355
vt 0.316411 0.109351
vt 0.316418 0.109351
vt 0.316741 0.109214
vt 0.316727 0.109217
vt 0.316726 0.109220
vn 0.000000 0.000000 1.000000
vn 0.000000 0.000000 1.000000
vn 0.000000 0.000000 1.000000
vn 0.000000 0.000000 1.000000
vn -0.073471 -0.010204 0.997245
vn -0.073471 -0.010204 0.997245
vn -0.073471 -0.010204 0.997245
vn -0.073471 -0.010204 0.997245
vn -0.073471 -0.010204 0.997245
vn -0.000011 -0.000008 1.000000
vn -0.000011 -0.000008 1.000000
vn -0.000011 -0.000008 1.000000
vn -0.000011 -0.000008 1.000000
vn -0.346557 -0.724226 0.596150
vn -0.346557 -0.724226 0.596150
vn -0.346557 -0.724226 0.596150
vn 0.000000 -1.000000 -0.000000
vn 0.000000 -1.000000 -0.000000
vn 0.000000 -1.000000 -0.000000
vn 0.000000 -1.000000 -0.000000
vn 1.000000 -0.000008 0.000003
vn 1.000000 -0.000008 0.000003
vn 1.000000 -0.000008 0.000003
vn 1.000000 -0.000008 0.000003
vn 0.000000 1.000000 0.000000
vn 0.000000 1.000000 0.000000
vn 0.000000 1.000000 0.000000
vn 0.000000 1.000000 0.000000
vn 0.000000 1.000000 0.000000
vn -1.000000 0.000016 -0.000002
vn -1.000000 0.000016 -0.000002
vn -1.000000 0.000016 -0.000002
vn -1.000000 0.000016 -0.000002
vn -1.000000 0.000016 -0.000002
vn 0.000000 -1.000000 -0.000000
vn 0.000000 -1.000000 -0.000000
vn 0.000000 -1.000000 -0.000000
vn 0.000000 -1.000000 -0.000000
vn 1.000000 -0.000008 0.000002
vn 1.000000 -0.000008 0.000002
vn 1.000000 -0.000008 0.000002
vn 1.000000 -0.000008 0.000002
vn 1.000000 -0.000008 0.000002
vn 0.000000 1.000000 0.000000
vn 0.000000 1.000000 0.000000
vn 0.000000 1.000000 0.000000
vn 0.000000 1.000000 0.000000
vn 0.000000 1.000000 0.000000
vn -1.000000 0.000015 0.000000
vn -1.000000 0.000015 0.000000
vn -1.000000 0.000015 0.000000
vn -1.000000 0.000015 0.000000
vn 0.011364 -0.999916 0.006156
vn 0.011364 -0.999916 0.006156
vn 0.011364 -0.999917 0.006156
vn 0.011364 -0.999916 0.006156
vn 1.000000 -0.000008 0.000003
vn 1.000000 -0.000008 0.000003
vn 1.000000 -0.000008 0.000003
vn 1.000000 -0.000008 0.000003
vn 0.000000 1.000000 0.000000
vn 0.000000 1.000000 0.000000
vn 0.000000 1.000000 0.000000
vn 0.000000 1.000000 0.000000
vn 0.000000 1.000000 0.000000
vn -1.000000 0.000013 0.000000
vn -1.000000 0.000018 -0.000001
vn -1.000000 0.000030 -0.000006
vn -1.000000 0.000030 -0.000006
vn 0.000000 -1.000000 0.000000
vn 0.000000 -1.000000 0.000000
vn 0.000000 -1.000000 0.000000
vn 0.000000 -1.000000 0.000000
vn 0.000000 -1.000000 0.000000
vn 1.000000 -0.000022 0.000008
vn 1.000000 -0.000022 0.000008
vn 1.000000 -0.000022 0.000008
vn 1.000000 -0.000022 0.000008
vn 0.017112 0.999811 0.009270
vn 0.017112 0.999811 0.009270
vn 0.017112 0.999811 0.009270
vn 0.017112 0.999811 0.009270
vn -1.000000 0.000015 0.000002
vn -1.000000 0.000015 0.000002
vn -1.000000 0.000015 0.000002
vn -1.000000 0.000015 0.000002
vn -1.000000 0.000015 0.000002
vn 0.000000 0.000000 -1.000000
vn 0.000000 0.000000 -1.000000
vn 0.000000 0.000000 -1.000000
vn 0.000000 0.000000 -1.000000
vn 0.000006 0.000000 -1.000000
vn 0.000006 0.000000 -1.000000
vn 0.000006 0.000000 -1.000000
vn 0.000006 0.000000 -1.000000
vn 0.000012 0.000000 -1.000000
vn 0.000012 0.000000 -1.000000
vn 0.000012 0.000000 -1.000000
vn 0.000012 0.000000 -1.000000
vn 0.000000 0.000000 -1.000000
vn 0.000000 0.000000 -1.000000
vn 0.000000 0.000000 -1.000000
vn 0.000000 0.000000 -1.000000
vn -0.402005 0.838100 0.368757
vn -0.402005 0.838100 0.368757
vn -0.402005 0.838100 0.368757
vn 0.650394 0.703875 0.285564
vn 0.650394 0.703875 0.285564
vn 0.650394 0.703875 0.285564
vn -0.784697 0.522903 0.332900
vn -0.784697 0.522903 0.332900
vn -0.784697 0.522903 0.332900
vn -0.573966 0.781300 -0.245221
vn -0.573966 0.781300 -0.245221
vn -0.573966 0.781300 -0.245221
vn 0.000003 -0.000003 1.000000
vn 0.000003 -0.000003 1.000000
vn 0.000003 -0.000003 1.000000
vn 0.000003 -0.000003 1.000000
vn 0.000003 -0.000003 1.000000
vn 0.655293 -0.708988 -0.260628
vn 0.655293 -0.708988 -0.260628
vn 0.655293 -0.708988 -0.260628
vn 0.000000 -1.000000 -0.000000
vn 0.000000 -1.000000 -0.000000
vn 0.000000 -1.000000 -0.000000
vn 0.000000 -1.000000 -0.000000
vn 0.000000 -1.000000 -0.000000
vn 0.719143 -0.637863 0.275617
vn 0.719143 -0.637863 0.275617
vn 0.719143 -0.637863 0.275617
vn 1.000000 -0.000001 0.000000
vn 1.000000 -0.000001 0.000000
vn 1.000000 -0.000001 0.000000
vn 1.000000 -0.000001 0.000000
vn 1.000000 -0.000001 0.000000
vn 0.263934 -0.808265 0.526352
vn 0.263934 -0.808265 0.526352
vn 0.263934 -0.808265 0.526352
vn 0.102556 -0.994452 0.023417
vn 0.012282 -0.999921 0.002805
vn 0.180931 -0.982628 0.041313
vn -0.059280 -0.831408 0.552492
vn -0.059280 -0.831408 0.552492
vn -0.059280 -0.831408 0.552492
vn 0.000001 -0.000008 1.000000
vn 0.000001 -0.000008 1.000000
vn 0.000001 -0.000008 1.000000
vn 0.000001 -0.000008 1.000000
vn 0.000001 -0.000008 1.000000
vn 0.000000 -1.000000 0.000000
vn 0.012282 -0.999921 0.002805
vn 0.102556 -0.994452 0.023417
vn -1.000000 0.000012 0.000001
vn -1.000000 0.000012 0.000001
vn -1.000000 0.000018 -0.000001
vn -1.000000 0.000013 0.000000
vn -1.000000 0.000012 0.000001
vn 0.000000 1.000000 0.000000
vn 0.000000 1.000000 0.000000
vn 0.000000 1.000000 0.000000
vn 0.000000 1.000000 0.000000
s off
f 17/17/1 47/70/2 48/71/3 20/20/4
f 21/21/5 22/22/6 23/23/7 36/55/8 24/24/9
f 25/25/10 26/26/11 27/27/12 28/28/13
f 29/29/14 41/64/15 42/65/16
f 2/2/17 49/72/18 47/70/19 17/17/20
f 4/3/21 3/4/22 19/19/23 18/18/24
f 3/33/25 1/34/26 33/49/27 34/52/28 19/36/29
f 1/1/30 2/2/31 17/17/32 20/20/33 33/50/34
f 6/5/35 8/6/36 22/22/37 21/21/38
f 8/6/39 7/7/40 35/53/41 23/23/42 22/22/43
f 7/37/44 5/38/45 24/39/46 36/56/47 35/54/48
f 5/8/49 6/5/50 21/21/51 24/24/52
f 10/9/53 12/10/54 26/26/55 25/25/56
f 12/10/57 11/11/58 27/27/59 26/26/60
f 11/41/61 9/42/62 37/57/63 39/61/64 27/44/65
f 40/62/66 25/25/67 28/28/68 38/60/69
f 29/29/70 46/69/71 44/67/72 30/30/73 41/64/74
f 45/68/75 31/31/76 30/30/77 44/67/78
f 15/45/79 13/46/80 32/47/81 31/48/82
f 13/16/83 14/13/84 29/29/85 42/65/86 32/32/87
f 2/2/88 1/1/89 3/4/90 4/3/91
f 8/6/92 6/5/93 5/8/94 7/7/95
f 12/10/96 10/9/97 9/12/98 11/11/99
f 16/14/100 14/13/101 13/16/102 15/15/103
f 34/52/104 33/49/105 20/35/106
f 35/54/107 36/56/108 23/40/109
f 40/63/110 39/61/111 37/57/112
f 38/59/113 39/61/114 40/63/115
f 42/65/116 41/64/117 30/30/118 31/31/119 32/32/120
f 44/67/121 46/69/122 45/68/123
f 14/13/124 16/14/125 43/66/126 46/69/127 29/29/128
f 45/68/129 46/69/130 43/66/131
f 16/14/132 15/15/133 31/31/134 45/68/135 43/66/136
f 47/70/137 49/72/138 48/71/139
f 49/72/140 4/3/141 18/18/142
f 48/71/143 49/72/144 18/18/145
f 20/20/146 48/71/147 18/18/148 19/19/149 34/51/150
f 2/2/151 4/3/152 49/72/153
f 9/12/154 10/9/155 25/25/156 40/62/157 37/58/158
f 27/44/159 39/61/160 38/59/161 28/43/162
