# This file uses centimeters as units for non-parametric coordinates.

v 0.000000 450.861420 0.000000
v 0.000000 449.999725 -33.750000
v 0.000000 0.000000 -33.750000
v 0.000000 0.000000 0.000000
v 499.998291 0.000000 -33.750000
v 499.998291 0.000000 0.000000
v 0.000000 0.000000 33.750000
v 0.000000 449.999725 33.750000
v 499.998291 0.000000 33.750000
v 183.288086 186.886002 -33.750000
v 135.498535 186.886002 -33.750000
v 135.498535 186.886002 33.750000
v 183.288086 186.886002 33.750000
v 135.498535 278.410706 -33.750000
v 135.498535 278.410706 33.750000
v 183.288086 278.410706 33.750000
v 183.288086 278.410706 -33.750000
v 364.499512 186.886002 -33.750000
v 316.709961 186.886002 -33.750000
v 316.709961 186.886002 33.750000
v 364.499512 186.886002 33.750000
v 316.709961 278.410706 -33.750000
v 316.709961 278.410706 33.750000
v 364.499512 278.410706 33.750000
v 364.499512 278.410706 -33.750000
v 499.998291 450.861420 0.000000
v 499.998291 449.999725 -33.750000
v 499.998291 449.999725 33.750000
v 321.574707 191.750854 0.000000
v 321.574707 273.545837 0.000000
v 359.634766 273.545837 0.000000
v 359.634766 191.750854 0.000000
v 140.363281 191.750854 0.000000
v 140.363281 273.545837 0.000000
v 178.423340 273.545837 0.000000
v 178.423340 191.750854 0.000000
v 178.423340 191.750854 23.657715
v 178.423340 273.545837 23.657715
v 140.363281 273.545837 23.657715
v 140.363281 191.750854 23.657715
v 140.363281 191.750854 -23.657715
v 140.363281 273.545837 -23.657715
v 178.423340 273.545837 -23.657715
v 178.423340 191.750854 -23.657715
v 359.634766 191.750854 23.657715
v 359.634766 273.545837 23.657715
v 321.574707 273.545837 23.657715
v 321.574707 191.750854 23.657715
v 321.574707 191.750854 -23.657715
v 321.574707 273.545837 -23.657715
v 359.634766 273.545837 -23.657715
v 359.634766 191.750854 -23.657715
vt 1.038921 0.998605
vt 0.998542 0.998623
vt 0.998542 0.001434
vt 1.038921 0.001511
vt 0.001423 0.001434
vt 0.001423 0.028023
vt 0.998542 0.028023
vt 0.998542 0.001434
vt 0.998542 0.998623
vt 0.001423 0.001434
vt 0.346114 0.426878
vt 0.293345 0.426878
vt 0.281867 0.426878
vt 0.357592 0.426878
vt 0.293345 0.608125
vt 0.281867 0.608125
vt 0.357592 0.608125
vt 0.346114 0.608125
vt 0.706017 0.426878
vt 0.654524 0.426878
vt 0.642408 0.426878
vt 0.718133 0.426878
vt 0.654524 0.608125
vt 0.642408 0.608125
vt 0.718133 0.608125
vt 0.706017 0.608125
vt 0.642408 0.426878
vt 0.642408 0.608125
vt 0.718133 0.608125
vt 0.718133 0.426878
vt 0.281867 0.426878
vt 0.281867 0.608125
vt 0.357592 0.608125
vt 0.357592 0.426878
vt 0.367271 0.416098
vt 0.367271 0.618905
vt 0.272188 0.618905
vt 0.272188 0.416098
vt 0.272188 0.416098
vt 0.272188 0.618905
vt 0.367271 0.618905
vt 0.367271 0.416098
vt 0.001423 0.972453
vt 0.001423 0.998623
vt 0.998542 0.972453
vt -0.038908 0.998605
vt -0.038908 0.001511
vt 0.001423 0.998623
vt 0.271641 0.618386
vt 0.271641 0.415569
vt 0.366945 0.415569
vt 0.633021 0.415569
vt 0.728325 0.415569
vt 0.728325 0.415569
vt 0.633021 0.415569
vt 0.366945 0.415569
vt 0.271641 0.415569
vt 0.271641 0.618386
vt 0.366945 0.618385
vt 0.633021 0.618386
vt 0.728325 0.618386
vt 0.728325 0.618386
vt 0.633021 0.618386
vt 0.366945 0.618386
vt 0.727812 0.416098
vt 0.727812 0.618905
vt 0.632729 0.618905
vt 0.632729 0.416098
vt 0.632729 0.416098
vt 0.632729 0.618905
vt 0.727812 0.618905
vt 0.727812 0.416098
vn -1.000000 0.000000 0.000000
vn -1.000000 0.000000 0.000000
vn -1.000000 0.000000 0.000000
vn -1.000000 0.000000 0.000000
vn 0.000000 -1.000000 0.000000
vn 0.000000 -1.000000 0.000000
vn 0.000000 -1.000000 0.000000
vn 0.000000 -1.000000 0.000000
vn -1.000000 0.000000 0.000000
vn -1.000000 0.000000 0.000000
vn -1.000000 0.000000 0.000000
vn -1.000000 0.000000 0.000000
vn 0.000000 -1.000000 0.000000
vn 0.000000 -1.000000 0.000000
vn 0.000000 -1.000000 0.000000
vn 0.000000 -1.000000 0.000000
vn 0.000000 1.000000 0.000000
vn 0.000000 1.000000 0.000000
vn 0.000000 1.000000 0.000000
vn 0.000000 1.000000 0.000000
vn 1.000000 0.000000 0.000000
vn 1.000000 0.000000 0.000000
vn 1.000000 0.000000 0.000000
vn 1.000000 0.000000 0.000000
vn -1.000000 0.000000 0.000000
vn -1.000000 0.000000 0.000000
vn -1.000000 0.000000 0.000000
vn -1.000000 0.000000 0.000000
vn 0.000000 -1.000000 0.000000
vn 0.000000 -1.000000 0.000000
vn 0.000000 -1.000000 0.000000
vn 0.000000 -1.000000 0.000000
vn 0.000000 1.000000 0.000000
vn 0.000000 1.000000 0.000000
vn 0.000000 1.000000 0.000000
vn 0.000000 1.000000 0.000000
vn 1.000000 0.000000 0.000000
vn 1.000000 0.000000 0.000000
vn 1.000000 0.000000 0.000000
vn 1.000000 0.000000 0.000000
vn -1.000000 0.000000 0.000000
vn -1.000000 0.000000 0.000000
vn -1.000000 0.000000 0.000000
vn -1.000000 0.000000 0.000000
vn 0.000000 -1.000000 0.000000
vn 0.000000 -1.000000 0.000000
vn 0.000000 -1.000000 0.000000
vn 0.000000 -1.000000 0.000000
vn 0.000000 0.999674 -0.025523
vn 0.000000 0.999674 -0.025523
vn 0.000000 0.999674 -0.025523
vn 0.000000 0.999674 -0.025523
vn 1.000000 0.000000 0.000000
vn 1.000000 0.000000 0.000000
vn 1.000000 0.000000 0.000000
vn 1.000000 0.000000 0.000000
vn 0.000000 0.999674 0.025523
vn 0.000000 0.999674 0.025523
vn 0.000000 0.999674 0.025523
vn 0.000000 0.999674 0.025523
vn 1.000000 0.000000 0.000000
vn 1.000000 0.000000 0.000000
vn 1.000000 0.000000 0.000000
vn 1.000000 0.000000 0.000000
vn 0.000000 0.000000 1.000000
vn 0.000000 0.000000 1.000000
vn 0.000000 0.000000 1.000000
vn 0.000000 0.000000 -1.000000
vn 0.000000 0.000000 -1.000000
vn 0.000000 0.000000 -1.000000
vn 0.000000 0.000000 -1.000000
vn 0.000000 0.000000 -1.000000
vn 0.000000 0.000000 -1.000000
vn 0.000000 0.000000 1.000000
vn 0.000000 0.000000 1.000000
vn 0.000000 0.000000 1.000000
vn 0.000000 0.000000 1.000000
vn 0.000000 0.000000 1.000000
vn 0.000000 0.000000 1.000000
vn 0.000000 0.000000 1.000000
vn 0.000000 0.000000 1.000000
vn 0.000000 0.000000 1.000000
vn 0.000000 0.000000 1.000000
vn 0.000000 0.000000 1.000000
vn 0.000000 0.000000 1.000000
vn 0.000000 0.000000 1.000000
vn 0.000000 0.000000 1.000000
vn 0.000000 0.000000 -1.000000
vn 0.000000 0.000000 -1.000000
vn 0.000000 0.000000 -1.000000
vn 0.000000 0.000000 -1.000000
vn 0.000000 0.000000 -1.000000
vn 0.000000 0.000000 -1.000000
vn 0.000000 0.000000 -1.000000
vn 0.000000 0.000000 -1.000000
vn -0.000000 0.000000 -1.000000
vn -0.000000 0.000000 -1.000000
vn -0.000000 0.000000 -1.000000
vn -0.000000 0.000000 -1.000000
vn 0.000000 0.000000 1.000000
vn 0.000000 0.000000 1.000000
vn 0.000000 0.000000 1.000000
vn 0.000000 0.000000 1.000000
vn 0.000000 0.000000 1.000000
vn 0.000000 0.000000 1.000000
vn 0.000000 0.000000 1.000000
vn -0.000000 0.000000 1.000000
vn -0.000000 0.000000 1.000000
vn -0.000000 0.000000 1.000000
vn -0.000000 0.000000 1.000000
vn 0.000000 0.000000 1.000000
vn 0.000000 0.000000 1.000000
vn 0.000000 0.000000 1.000000
vn 0.000000 0.000000 1.000000
vn 0.000000 0.000000 -1.000000
vn 0.000000 0.000000 -1.000000
vn 0.000000 0.000000 -1.000000
vn 0.000000 0.000000 -1.000000
vn 0.000000 0.000000 -1.000000
vn 0.000000 0.000000 -1.000000
vn 0.000000 0.000000 -1.000000
vn 0.000000 0.000000 -1.000000
vn 0.000000 0.000000 -1.000000
vn 0.000000 0.000000 -1.000000
vn 0.000000 0.000000 -1.000000
vn 0.000000 0.000000 -1.000000
vn 0.000000 0.000000 -1.000000
vn 0.000000 0.000000 -1.000000
vn 1.000000 0.000000 0.000000
vn 1.000000 0.000000 0.000000
vn 1.000000 0.000000 0.000000
vn 1.000000 0.000000 0.000000
vn 0.000000 -1.000000 0.000000
vn 0.000000 -1.000000 0.000000
vn 0.000000 -1.000000 0.000000
vn 0.000000 -1.000000 0.000000
vn -1.000000 0.000000 0.000000
vn -1.000000 0.000000 0.000000
vn -1.000000 0.000000 0.000000
vn -1.000000 0.000000 0.000000
vn 0.000000 1.000000 0.000000
vn 0.000000 1.000000 0.000000
vn 0.000000 1.000000 0.000000
vn 0.000000 1.000000 0.000000
vn 1.000000 0.000000 0.000000
vn 1.000000 0.000000 0.000000
vn 1.000000 0.000000 0.000000
vn 1.000000 0.000000 0.000000
vn 0.000000 -1.000000 0.000000
vn 0.000000 -1.000000 0.000000
vn 0.000000 -1.000000 0.000000
vn 0.000000 -1.000000 0.000000
vn -1.000000 0.000000 0.000000
vn -1.000000 0.000000 0.000000
vn -1.000000 0.000000 0.000000
vn -1.000000 0.000000 0.000000
vn 0.000000 1.000000 0.000000
vn 0.000000 1.000000 0.000000
vn 0.000000 1.000000 0.000000
vn 0.000000 1.000000 0.000000
vn -0.900810 0.000000 0.434214
vn -0.900810 0.000000 0.434214
vn -0.900810 0.000000 0.434214
vn -0.900810 0.000000 0.434214
vn 0.000000 -0.900806 0.434221
vn 0.000000 -0.900806 0.434221
vn 0.000000 -0.900806 0.434221
vn 0.000000 -0.900806 0.434221
vn 0.900810 0.000000 0.434214
vn 0.900810 0.000000 0.434214
vn 0.900810 0.000000 0.434214
vn 0.900810 0.000000 0.434214
vn 0.000000 0.900806 0.434222
vn 0.000000 0.900806 0.434222
vn 0.000000 0.900806 0.434222
vn 0.000000 0.900806 0.434222
vn 0.900810 0.000000 -0.434214
vn 0.900810 0.000000 -0.434214
vn 0.900810 0.000000 -0.434214
vn 0.900810 0.000000 -0.434214
vn 0.000000 -0.900806 -0.434221
vn 0.000000 -0.900806 -0.434221
vn 0.000000 -0.900806 -0.434221
vn 0.000000 -0.900806 -0.434221
vn -0.900810 0.000000 -0.434214
vn -0.900810 0.000000 -0.434214
vn -0.900810 0.000000 -0.434214
vn -0.900810 0.000000 -0.434214
vn 0.000000 0.900806 -0.434221
vn 0.000000 0.900806 -0.434221
vn 0.000000 0.900806 -0.434221
vn 0.000000 0.900806 -0.434221
vn -0.900810 0.000000 0.434214
vn -0.900810 0.000000 0.434214
vn -0.900810 0.000000 0.434214
vn -0.900810 0.000000 0.434214
vn 0.000000 -0.900806 0.434221
vn 0.000000 -0.900806 0.434221
vn 0.000000 -0.900806 0.434221
vn 0.000000 -0.900806 0.434221
vn 0.900810 0.000000 0.434214
vn 0.900810 0.000000 0.434214
vn 0.900810 0.000000 0.434214
vn 0.900810 0.000000 0.434214
vn 0.000000 0.900806 0.434222
vn 0.000000 0.900806 0.434222
vn 0.000000 0.900806 0.434222
vn 0.000000 0.900806 0.434222
vn 0.900810 0.000000 -0.434214
vn 0.900810 0.000000 -0.434214
vn 0.900810 0.000000 -0.434214
vn 0.900810 0.000000 -0.434214
vn 0.000000 -0.900806 -0.434221
vn 0.000000 -0.900806 -0.434221
vn 0.000000 -0.900806 -0.434221
vn 0.000000 -0.900806 -0.434221
vn -0.900810 0.000000 -0.434214
vn -0.900810 0.000000 -0.434214
vn -0.900810 0.000000 -0.434214
vn -0.900810 0.000000 -0.434214
vn 0.000000 0.900806 -0.434221
vn 0.000000 0.900806 -0.434221
vn 0.000000 0.900806 -0.434221
vn 0.000000 0.900806 -0.434221
s off
f 1/1/1 2/2/2 3/3/3 4/4/4
f 5/5/5 6/6/6 4/7/7 3/3/8
f 1/1/9 4/4/10 7/8/11 8/9/12
f 9/10/13 7/8/14 4/7/15 6/6/16
f 36/11/17 33/12/18 40/13/19 37/14/20
f 33/12/21 34/15/22 39/16/23 40/13/24
f 37/14/25 38/17/26 35/18/27 36/11/28
f 38/17/29 39/16/30 34/15/31 35/18/32
f 32/19/33 29/20/34 48/21/35 45/22/36
f 29/20/37 30/23/38 47/24/39 48/21/40
f 45/22/41 46/25/42 31/26/43 32/19/44
f 46/25/45 47/24/46 30/23/47 31/26/48
f 26/43/49 27/44/50 2/2/51 1/45/52
f 26/46/53 6/47/54 5/5/55 27/44/56
f 26/43/57 1/45/58 8/9/59 28/48/60
f 26/46/61 28/48/62 9/10/63 6/47/64
f 24/49/65 21/50/66 9/10/67
f 10/55/68 3/3/69 11/54/70
f 22/59/71 27/44/72 25/58/73
f 8/9/74 7/8/75 12/53/76 15/62/77
f 8/9/78 15/62/79 16/63/80
f 23/64/81 16/63/82 13/52/83 20/51/84
f 9/10/85 21/50/86 20/51/87
f 17/60/88 22/59/89 19/56/90 10/55/91
f 2/2/92 14/61/93 11/54/94 3/3/95
f 27/44/96 5/5/97 18/57/98 25/58/99
f 7/8/100 13/52/101 12/53/102
f 9/10/103 20/51/104 13/52/105 7/8/106
f 28/48/107 23/64/108 24/49/109 9/10/110
f 8/9/111 16/63/112 23/64/113 28/48/114
f 2/2/115 27/44/116 22/59/117 17/60/118
f 2/2/119 17/60/120 14/61/121
f 19/56/122 5/5/123 3/3/124 10/55/125
f 18/57/126 5/5/127 19/56/128
f 49/27/129 50/28/130 30/23/131 29/20/132
f 31/26/133 30/23/134 50/28/135 51/29/136
f 32/19/137 31/26/138 51/29/139 52/30/140
f 52/30/141 49/27/142 29/20/143 32/19/144
f 41/31/145 42/32/146 34/15/147 33/12/148
f 35/18/149 34/15/150 42/32/151 43/33/152
f 36/11/153 35/18/154 43/33/155 44/34/156
f 44/34/157 41/31/158 33/12/159 36/11/160
f 13/35/161 16/36/162 38/17/163 37/14/164
f 16/36/165 15/37/166 39/16/167 38/17/168
f 40/13/169 39/16/170 15/37/171 12/38/172
f 37/14/173 40/13/174 12/38/175 13/35/176
f 11/39/177 14/40/178 42/32/179 41/31/180
f 43/33/181 42/32/182 14/40/183 17/41/184
f 44/34/185 43/33/186 17/41/187 10/42/188
f 10/42/189 11/39/190 41/31/191 44/34/192
f 21/65/193 24/66/194 46/25/195 45/22/196
f 24/66/197 23/67/198 47/24/199 46/25/200
f 48/21/201 47/24/202 23/67/203 20/68/204
f 45/22/205 48/21/206 20/68/207 21/65/208
f 19/69/209 22/70/210 50/28/211 49/27/212
f 51/29/213 50/28/214 22/70/215 25/71/216
f 52/30/217 51/29/218 25/71/219 18/72/220
f 18/72/221 19/69/222 49/27/223 52/30/224
