# This file uses centimeters as units for non-parametric coordinates.

v 0.000000 0.000786 18.822084
v 0.000000 30.788757 18.822084
v 0.000000 -0.244888 11.250000
v 0.000000 30.788757 11.250000
v -18.822021 0.000786 -0.000002
v -18.822021 30.788773 -0.000290
v -11.250000 30.793617 -0.000000
v -11.250000 -0.193550 -0.000258
v -18.822021 23.314781 -0.000290
v 0.000000 23.314758 18.822084
v 0.000000 22.246056 11.250000
v -11.250000 22.266151 -0.000000
v -18.822021 6.105179 -0.000143
v 0.000000 6.105179 18.822084
v 0.000122 6.812729 11.250000
v -11.250000 6.855934 -0.000201
v 0.000122 7.921471 15.332278
v -15.332275 7.921478 -0.000013
v 0.000000 21.334175 15.332278
v -15.332275 21.334198 -0.000267
v -12.015503 0.000786 12.242107
v -12.015503 6.105179 12.242023
v -9.862427 7.921471 10.088997
v -9.862427 21.334183 10.088840
v -12.015503 23.314766 12.241932
v -12.015503 30.788765 12.241932
v -7.343872 30.791183 7.570358
v -7.343872 22.256104 7.570358
v -7.343872 6.834335 7.570234
v -7.343872 -0.219215 7.570198
vt 0.283563 0.267671
vt 0.283558 0.267644
vt 0.283548 0.267648
vt 0.283553 0.267676
vt 0.283670 0.267679
vt 0.283667 0.267651
vt 0.283673 0.267646
vt 0.283676 0.267674
vt 0.283667 0.267658
vt 0.283549 0.267655
vt 0.283560 0.267652
vt 0.283674 0.267655
vt 0.283669 0.267673
vt 0.283552 0.267670
vt 0.283562 0.267665
vt 0.283675 0.267668
vt 0.283551 0.267668
vt 0.283669 0.267671
vt 0.283550 0.267657
vt 0.283668 0.267660
vt 0.283611 0.267678
vt 0.283610 0.267672
vt 0.283610 0.267669
vt 0.283609 0.267659
vt 0.283608 0.267656
vt 0.283607 0.267649
vt 0.283616 0.267645
vt 0.283617 0.267653
vt 0.283619 0.267666
vt 0.283620 0.267673
vn 1.000000 0.000000 0.000000
vn 1.000000 0.000000 0.000000
vn 1.000000 0.000000 0.000000
vn 1.000000 0.000000 0.000000
vn -0.873997 0.000000 0.485931
vn -0.873997 0.000000 0.485931
vn -0.873997 0.000000 0.485931
vn -0.873997 0.000000 0.485931
vn -0.000453 1.000000 0.000368
vn -0.000453 1.000000 0.000368
vn -0.000453 1.000000 0.000368
vn -0.000453 1.000000 0.000368
vn 0.888676 0.000000 -0.458536
vn 0.888676 0.000000 -0.458536
vn 0.888676 0.000000 -0.458536
vn 0.888676 0.000000 -0.458536
vn -0.028448 -0.999496 0.014087
vn -0.028448 -0.999496 0.014087
vn -0.028448 -0.999496 0.014087
vn -0.028448 -0.999496 0.014087
vn -0.454846 0.854746 0.250048
vn -0.454846 0.854746 0.250048
vn -0.454846 0.854746 0.250048
vn -0.454846 0.854746 0.250048
vn 1.000000 -0.000044 0.000012
vn 1.000000 -0.000044 0.000012
vn 1.000000 -0.000044 0.000012
vn -0.873996 0.000009 0.485934
vn -0.873996 0.000009 0.485934
vn -0.873996 0.000009 0.485934
vn -0.873996 0.000009 0.485934
vn 1.000000 -0.000009 0.000008
vn 1.000000 -0.000009 0.000008
vn 1.000000 -0.000009 0.000008
vn 1.000000 -0.000009 0.000008
vn 0.888678 0.000003 -0.458532
vn 0.888678 0.000003 -0.458532
vn 0.888678 0.000003 -0.458532
vn 0.888678 0.000003 -0.458532
vn 0.888677 0.000005 -0.458534
vn 0.888677 0.000005 -0.458534
vn 0.888677 0.000005 -0.458534
vn 0.888677 0.000005 -0.458534
vn 1.000000 0.000008 -0.000000
vn 1.000000 0.000008 -0.000000
vn 1.000000 0.000008 -0.000000
vn 1.000000 0.000008 -0.000000
vn -0.879112 0.000007 0.476616
vn -0.879112 0.000007 0.476616
vn -0.879112 0.000007 0.476616
vn -0.879112 0.000007 0.476616
vn 1.000000 0.000000 0.000000
vn 1.000000 0.000000 0.000000
vn 1.000000 0.000000 0.000000
vn -0.483814 -0.833777 0.265970
vn -0.483814 -0.833777 0.265970
vn -0.483814 -0.833777 0.265970
vn -0.483814 -0.833777 0.265970
vn -0.480320 0.000006 0.877093
vn -0.480320 0.000006 0.877093
vn -0.480320 0.000006 0.877093
vn -0.480320 0.000006 0.877093
vn -0.246592 0.854976 0.456297
vn -0.246592 0.854976 0.456297
vn -0.246592 0.854976 0.456297
vn -0.246592 0.854977 0.456298
vn -0.469428 0.000003 0.882971
vn -0.469428 0.000003 0.882971
vn -0.469428 0.000003 0.882971
vn -0.469428 0.000003 0.882971
vn -0.262315 -0.834027 0.485377
vn -0.262315 -0.834027 0.485376
vn -0.262315 -0.834027 0.485376
vn -0.262315 -0.834027 0.485376
vn -0.480328 0.000000 0.877089
vn -0.480328 0.000000 0.877089
vn -0.480328 0.000000 0.877089
vn -0.480328 0.000000 0.877089
vn 0.000017 1.000000 0.000204
vn 0.000017 1.000000 0.000204
vn 0.000017 1.000000 0.000204
vn 0.000017 1.000000 0.000204
vn 0.447964 0.000000 -0.894052
vn 0.447964 0.000000 -0.894052
vn 0.447964 0.000000 -0.894052
vn 0.447964 0.000000 -0.894052
vn 0.447967 0.000005 -0.894050
vn 0.447967 0.000005 -0.894050
vn 0.447967 0.000005 -0.894050
vn 0.447967 0.000005 -0.894050
vn 0.447975 -0.000002 -0.894046
vn 0.447975 -0.000002 -0.894046
vn 0.447975 -0.000002 -0.894046
vn 0.447975 -0.000002 -0.894046
vn -0.017857 -0.999354 0.031195
vn -0.017857 -0.999354 0.031195
vn -0.017857 -0.999354 0.031195
vn -0.017857 -0.999354 0.031195
vn -0.000020 -0.000004 -1.000000
vn -0.000005 -0.000003 -1.000000
vn -0.000020 -0.000006 -1.000000
vn -0.000020 -0.000006 -1.000000
vn 0.000025 0.000000 -1.000000
vn 0.000038 0.000002 -1.000000
vn 0.000038 0.000000 -1.000000
vn 0.000038 0.000000 -1.000000
vn 0.000025 0.000000 -1.000000
vn 0.000014 0.000007 -1.000000
vn 0.000038 0.000002 -1.000000
vn -0.000005 -0.000003 -1.000000
vn 0.000007 0.000010 -1.000000
vn 0.000014 0.000007 -1.000000
vn 0.000025 0.000000 -1.000000
vn -0.000020 -0.000004 -1.000000
vn 0.000007 0.000010 -1.000000
vn -0.000005 -0.000003 -1.000000
s off
f 10/10/1 11/11/2 4/2/3 2/3/4
f 25/25/5 26/26/6 6/6/7 9/9/8
f 26/26/9 27/27/10 7/7/11 6/6/12
f 27/27/13 28/28/14 12/12/15 7/7/16
f 5/5/17 8/8/18 30/30/19 21/21/20
f 22/22/21 23/23/22 18/18/23 13/13/24
f 14/14/25 15/15/26 17/17/27
f 21/21/28 22/22/29 13/13/30 5/5/31
f 3/1/32 15/15/33 14/14/34 1/4/35
f 29/29/36 30/30/37 8/8/38 16/16/39
f 28/28/40 29/29/41 16/16/42 12/12/43
f 17/17/44 15/15/45 11/11/46 19/19/47
f 23/23/48 24/24/49 20/20/50 18/18/51
f 19/19/52 11/11/53 10/10/54
f 24/24/55 25/25/56 9/9/57 20/20/58
f 14/14/59 22/22/60 21/21/61 1/4/62
f 17/17/63 23/23/64 22/22/65 14/14/66
f 19/19/67 24/24/68 23/23/69 17/17/70
f 10/10/71 25/25/72 24/24/73 19/19/74
f 2/3/75 26/26/76 25/25/77 10/10/78
f 4/2/79 27/27/80 26/26/81 2/3/82
f 11/11/83 28/28/84 27/27/85 4/2/86
f 15/15/87 29/29/88 28/28/89 11/11/90
f 3/1/91 30/30/92 29/29/93 15/15/94
f 21/21/95 30/30/96 3/1/97 1/4/98
f 13/13/99 16/16/100 8/8/101 5/5/102
f 12/12/103 9/9/104 6/6/105 7/7/106
f 12/12/107 20/20/108 9/9/109
f 16/16/110 18/18/111 20/20/112 12/12/113
f 13/13/114 18/18/115 16/16/116
