# This file uses centimeters as units for non-parametric coordinates.

v -246.326965 5.363129 -0.713745
v -3.491089 5.363129 -0.713745
v -246.326965 294.640137 -0.713745
v -3.491089 294.640137 -0.713745
v -246.326965 294.640137 -2.786255
v -3.491089 294.640137 -2.786255
v -246.326965 5.363129 -2.786255
v -3.491089 5.363129 -2.786255
v 0.000000 0.000000 5.755127
v -249.999146 0.000000 5.755127
v -249.999146 299.999817 5.755127
v 0.000000 299.999817 5.755127
v 0.000000 0.000000 -5.755127
v -249.999146 0.000000 -5.755127
v -249.999146 299.999817 -5.755127
v 0.000000 299.999817 -5.755127
v -245.782471 293.333405 5.755127
v -245.782471 6.661964 5.755127
v -4.216675 6.661964 5.755127
v -4.216675 293.333405 5.755127
v -4.216675 293.333405 -5.755127
v -245.782471 293.333405 -5.755127
v -4.216675 6.661964 -5.755127
v -245.782471 6.661964 -5.755127
v -86.564697 299.999817 5.755127
v -50.935791 299.999817 5.755127
v -70.343140 299.999817 1.854980
v -70.380493 297.302582 5.755127
v -156.808716 299.999817 -5.755127
v -203.111328 299.999817 -5.755127
v -180.279602 299.999817 -1.816528
v -180.823181 297.730988 -5.755127
v -3.283508 152.106018 3.795532
v -246.715637 152.106018 3.795532
v -3.283508 152.106018 -3.795532
v -246.715637 152.106018 -3.795532
v -3.283569 147.889343 3.795532
v -246.715576 147.889343 3.795532
v -246.715576 147.889343 -3.795532
v -3.283569 147.889343 -3.795532
v -122.891235 6.661931 4.788452
v -122.891235 293.333435 4.788452
v -122.891235 6.661931 -4.788452
v -122.891235 293.333435 -4.788452
v -127.107910 6.661998 4.788452
v -127.107910 293.333374 4.788452
v -127.107910 293.333374 -4.788452
v -127.107910 6.661998 -4.788452
vt -0.613831 0.388227
vt 0.388227 -0.613831
vt 1.613831 0.611773
vt 0.611773 1.613831
vt 0.611773 1.613831
vt 1.613831 0.611773
vt 0.388227 -0.613831
vt -0.613831 0.388227
vt 0.314884 0.108019
vt 0.314963 0.108939
vt 0.314962 0.108924
vt 0.314883 0.108006
vt 0.314761 0.129956
vt 0.315040 0.129969
vt 0.314962 0.129981
vt 0.314759 0.129994
vt 0.315817 0.108858
vt 0.315813 0.108844
vt 0.315873 0.107951
vt 0.315868 0.107939
vt 0.315817 0.108858
vt 0.315873 0.107951
vt 0.314963 0.108939
vt 0.314884 0.108019
vt 0.315161 0.108000
vt 0.315226 0.107995
vt 0.315600 0.107957
vt 0.314883 0.108006
vt 0.315868 0.107939
vt 0.314962 0.108924
vt 0.315813 0.108844
vt 0.314883 0.108006
vt 0.315868 0.107939
vt 0.314962 0.108924
vt 0.315259 0.130025
vt 0.316241 0.129790
vt 0.316259 0.129827
vt 0.315268 0.130066
vt 0.315813 0.108844
vt 0.315163 0.108000
vt 0.315085 0.108005
vt 0.315501 0.107964
vt 0.315597 0.107957
vt 0.315683 0.107952
vt 0.315759 0.129928
vt 0.315105 0.129971
vt 0.315476 0.129916
vt 0.315381 0.129915
vt 0.315564 0.129903
vt 0.315750 0.129891
vt 0.316710 0.129605
vt 0.315709 0.129559
vt 0.315718 0.129539
vt 0.316702 0.129583
vt 0.314963 0.108939
vt 0.314884 0.108019
vt 0.314884 0.108019
vt 0.314963 0.108939
vt 0.314883 0.108006
vt 0.314962 0.108924
vt 0.314962 0.108924
vt 0.314883 0.108006
vt 0.314962 0.108924
vt 0.314883 0.108006
vt 0.314884 0.108019
vt 0.314963 0.108939
vt 0.314962 0.108924
vt 0.314883 0.108006
vt 0.314884 0.108019
vt 0.314963 0.108939
vt 0.314962 0.108924
vt 0.314883 0.108006
vt 0.314962 0.108924
vt 0.314883 0.108006
vn 0.000000 0.000000 1.000000
vn 0.000000 0.000000 1.000000
vn 0.000000 0.000000 1.000000
vn 0.000000 0.000000 1.000000
vn 0.000000 0.000000 -1.000000
vn 0.000000 0.000000 -1.000000
vn 0.000000 0.000000 -1.000000
vn 0.000000 0.000000 -1.000000
vn 1.000000 0.000000 0.000000
vn 1.000000 0.000000 0.000000
vn 1.000000 0.000000 0.000000
vn 1.000000 0.000000 0.000000
vn 0.000000 1.000000 0.000002
vn 0.000000 1.000000 0.000002
vn 0.000000 1.000000 0.000002
vn 0.000000 1.000000 0.000002
vn 0.000000 -1.000000 0.000000
vn 0.000000 -1.000000 0.000000
vn 0.000000 -1.000000 0.000000
vn 0.000000 -1.000000 0.000000
vn -1.000000 0.000000 0.000000
vn -1.000000 0.000000 0.000000
vn -1.000000 0.000000 0.000000
vn -1.000000 0.000000 0.000000
vn -0.000000 0.000000 1.000000
vn -0.000000 0.000000 1.000000
vn -0.000000 0.000000 1.000000
vn -0.000000 0.000000 1.000000
vn 0.000000 0.000000 1.000000
vn 0.000000 0.000000 1.000000
vn 0.000000 0.000000 1.000000
vn 0.000000 0.000000 1.000000
vn 0.000000 0.000000 1.000000
vn 0.000000 0.000000 1.000000
vn 0.000000 0.000000 1.000000
vn 0.000000 0.000000 1.000000
vn 0.000000 0.000000 1.000000
vn 0.000000 0.000000 1.000000
vn 0.000000 0.000000 1.000000
vn 0.000000 0.000000 1.000000
vn 0.000000 0.000000 -1.000000
vn 0.000000 0.000000 -1.000000
vn 0.000000 0.000000 -1.000000
vn 0.000000 0.000000 -1.000000
vn 0.000000 0.000000 -1.000000
vn 0.000000 0.000000 -1.000000
vn 0.000000 0.000000 -1.000000
vn 0.000000 0.000000 -1.000000
vn 0.000000 0.000000 -1.000000
vn 0.000000 0.000000 -1.000000
vn 0.000000 0.000000 -1.000000
vn -0.000000 0.000000 -1.000000
vn -0.000000 0.000000 -1.000000
vn -0.000000 0.000000 -1.000000
vn -0.000000 0.000000 -1.000000
vn 0.000000 -1.000000 0.000000
vn 0.000000 -1.000000 0.000000
vn 0.000000 -1.000000 0.000000
vn 0.000000 -1.000000 0.000000
vn -1.000000 0.000000 0.000000
vn -1.000000 0.000000 0.000000
vn -1.000000 0.000000 0.000000
vn -1.000000 0.000000 0.000000
vn 0.000000 1.000000 0.000000
vn 0.000000 1.000000 0.000000
vn 0.000000 1.000000 0.000000
vn 0.000000 1.000000 0.000000
vn 1.000000 0.000000 0.000000
vn 1.000000 0.000000 0.000000
vn 1.000000 0.000000 0.000000
vn 1.000000 0.000000 0.000000
vn 0.135702 0.814255 0.564423
vn 0.135702 0.814255 0.564423
vn 0.135702 0.814255 0.564423
vn -0.113421 0.817668 0.564406
vn -0.113421 0.817668 0.564406
vn -0.113421 0.817668 0.564407
vn -0.082049 0.868449 -0.488942
vn -0.082049 0.868449 -0.488942
vn -0.082049 0.868449 -0.488942
vn 0.087335 0.857943 -0.506267
vn 0.087335 0.857943 -0.506267
vn 0.087335 0.857943 -0.506267
vn 0.000000 0.000000 -1.000000
vn 0.000000 0.000000 -1.000000
vn 0.000000 0.000000 -1.000000
vn 0.000000 0.000000 -1.000000
vn -0.000000 0.000000 -1.000000
vn -0.000000 0.000000 -1.000000
vn -0.000000 0.000000 -1.000000
vn -0.000000 0.000000 -1.000000
vn 0.000000 1.000000 -0.000002
vn 0.000000 1.000000 -0.000002
vn 0.000000 1.000000 -0.000002
vn 0.000000 1.000000 -0.000002
vn 0.000000 1.000000 0.000000
vn 0.000000 1.000000 0.000000
vn 0.000000 1.000000 0.000000
vn 0.000000 1.000000 0.000000
vn 0.000000 1.000000 0.000002
vn 0.000000 1.000000 0.000002
vn 0.000000 1.000000 0.000002
vn 0.000000 1.000000 0.000002
vn -0.000000 0.000000 1.000000
vn -0.000000 0.000000 1.000000
vn -0.000000 0.000000 1.000000
vn -0.000000 0.000000 1.000000
vn 0.000000 0.000000 1.000000
vn 0.000000 0.000000 1.000000
vn 0.000000 0.000000 1.000000
vn 0.000000 1.000000 0.000000
vn 0.000000 1.000000 0.000000
vn 0.000000 1.000000 0.000000
vn 0.000000 1.000000 0.000000
vn 0.000000 0.000000 1.000000
vn 0.000000 0.000000 1.000000
vn 0.000000 0.000000 1.000000
vn 0.000000 0.000000 1.000000
vn 0.000000 0.000000 -1.000000
vn 0.000000 0.000000 -1.000000
vn 0.000000 0.000000 -1.000000
vn 0.000000 0.000000 -1.000000
vn 0.000000 -1.000000 0.000000
vn 0.000000 -1.000000 0.000000
vn 0.000000 -1.000000 0.000000
vn 0.000000 -1.000000 0.000000
vn 1.000000 0.000000 0.000000
vn 1.000000 0.000000 0.000000
vn 1.000000 0.000000 0.000000
vn 1.000000 0.000000 0.000000
vn -0.000000 0.000000 1.000000
vn -0.000000 0.000000 1.000000
vn -0.000000 0.000000 1.000000
vn -0.000000 0.000000 1.000000
vn 0.000000 0.000000 -1.000000
vn 0.000000 0.000000 -1.000000
vn 0.000000 0.000000 -1.000000
vn 0.000000 0.000000 -1.000000
vn -1.000000 0.000000 0.000000
vn -1.000000 0.000000 0.000000
vn -1.000000 0.000000 0.000000
vn -1.000000 0.000000 0.000000
s off
f 1/1/1 2/2/2 4/3/3 3/4/4
f 5/5/5 6/6/6 8/7/7 7/8/8
f 12/9/9 9/10/10 13/11/11 16/12/12
f 16/13/13 27/14/14 26/15/15 12/16/16
f 9/10/17 10/17/18 14/18/19 13/11/20
f 10/17/21 11/19/22 15/20/23 14/18/24
f 11/19/25 10/17/26 18/21/27 17/22/28
f 10/17/29 9/10/30 19/23/31 18/21/32
f 9/10/33 12/9/34 20/24/35 19/23/36
f 17/22/37 28/25/38 25/26/39 11/19/40
f 32/27/41 21/28/42 22/29/43
f 16/12/44 13/11/45 23/30/46 21/28/47
f 13/11/48 14/18/49 24/31/50 23/30/51
f 14/18/52 15/20/53 22/29/54 24/31/55
f 21/28/56 20/32/57 17/33/58 22/29/59
f 21/28/60 23/30/61 19/34/62 20/32/63
f 23/35/64 24/36/65 18/37/66 19/38/67
f 24/31/68 22/29/69 17/33/70 18/39/71
f 25/26/72 28/25/73 27/40/74
f 27/40/75 28/25/76 26/41/77
f 29/42/78 32/27/79 31/43/80
f 31/43/81 32/27/82 30/44/83
f 32/27/84 22/29/85 15/20/86 30/44/87
f 16/12/88 21/28/89 32/27/90 29/42/91
f 11/45/92 25/46/93 27/14/94 31/47/95
f 31/47/96 27/14/97 16/13/98 29/48/99
f 11/45/100 31/47/101 30/49/102 15/50/103
f 20/24/104 12/9/105 26/41/106 28/25/107
f 20/24/108 28/25/109 17/22/110
f 34/51/111 33/52/112 35/53/113 36/54/114
f 33/55/115 34/56/116 38/57/117 37/58/118
f 36/59/119 35/60/120 40/61/121 39/62/122
f 39/62/123 40/61/124 37/63/125 38/64/126
f 42/65/127 41/66/128 43/67/129 44/68/130
f 41/66/131 42/65/132 46/69/133 45/70/134
f 44/68/135 43/67/136 48/71/137 47/72/138
f 47/72/139 48/71/140 45/73/141 46/74/142
