# This file uses centimeters as units for non-parametric coordinates.

v -246.195129 5.363129 -0.713745
v -3.359283 5.363129 -0.713745
v -246.195129 5.363129 -2.786255
v -3.359283 5.363129 -2.786255
v -246.195129 87.866089 -0.713745
v -3.359283 87.866089 -0.713745
v -246.195129 86.842621 -2.786255
v -3.359283 86.842621 -2.786255
v 0.000000 0.000000 5.755127
v -249.999146 0.000000 5.755127
v -249.999146 91.327667 5.755127
v 0.000000 91.327667 5.755127
v 0.000000 0.000000 -5.755127
v -249.999146 0.000000 -5.755127
v -249.999146 91.327667 -5.755127
v 0.000000 91.327667 -5.755127
v -245.782471 84.661255 5.755127
v -245.782471 6.661964 5.755127
v -4.216675 6.661964 5.755127
v -4.216675 84.661255 5.755127
v -4.216675 84.661255 -5.755127
v -245.782471 84.661255 -5.755127
v -4.216675 6.661964 -5.755127
v -245.782471 6.661964 -5.755127
v -179.733154 91.327667 5.755127
v -146.648743 91.327667 5.755127
v -163.639221 91.327667 2.477173
v -163.967102 89.443130 5.755127
v -15.420166 91.327667 -5.755127
v -53.839813 91.327667 -5.755127
v -30.181580 91.327667 -2.941772
v -34.147217 89.232422 -5.755127
vt -0.613831 0.388227
vt 0.388227 -0.613831
vt 0.388227 -0.613831
vt -0.613831 0.388227
vt -0.264284 0.737774
vt 0.737774 -0.264284
vt -0.268620 0.733438
vt 0.733438 -0.268620
vt 0.314884 0.108019
vt 0.314963 0.108939
vt 0.314962 0.108924
vt 0.314883 0.108006
vt 0.314885 0.129953
vt 0.315413 0.129946
vt 0.315345 0.129955
vt 0.314759 0.129994
vt 0.315817 0.108858
vt 0.315813 0.108844
vt 0.315873 0.107951
vt 0.315868 0.107939
vt 0.315817 0.108858
vt 0.315873 0.107951
vt 0.314963 0.108939
vt 0.314884 0.108019
vt 0.315536 0.107974
vt 0.315595 0.107970
vt 0.314883 0.108006
vt 0.315015 0.107997
vt 0.314944 0.108002
vt 0.314962 0.108924
vt 0.315813 0.108844
vt 0.315868 0.107939
vt 0.314883 0.108006
vt 0.315868 0.107939
vt 0.314962 0.108924
vt 0.315259 0.130025
vt 0.316241 0.129790
vt 0.316259 0.129827
vt 0.315268 0.130066
vt 0.315813 0.108844
vt 0.315531 0.107974
vt 0.315464 0.107979
vt 0.315011 0.107998
vt 0.315095 0.107992
vt 0.314761 0.129956
vt 0.314822 0.129952
vt 0.315759 0.129928
vt 0.315478 0.129947
vt 0.315750 0.129891
vt 0.314974 0.129942
vn 0.000000 0.000000 -1.000000
vn 0.000000 0.000000 -1.000000
vn 0.000000 0.000000 -1.000000
vn 0.000000 0.000000 -1.000000
vn 0.000000 0.000000 1.000000
vn 0.000000 0.000000 1.000000
vn 0.000000 0.000000 1.000000
vn 0.000000 0.000000 1.000000
vn 1.000000 0.000000 0.000000
vn 1.000000 0.000000 0.000000
vn 1.000000 0.000000 0.000000
vn 1.000000 0.000000 0.000000
vn 0.000000 1.000000 -0.000001
vn 0.000000 1.000000 -0.000001
vn 0.000000 1.000000 -0.000001
vn 0.000000 1.000000 -0.000001
vn 0.000000 -1.000000 0.000000
vn 0.000000 -1.000000 0.000000
vn 0.000000 -1.000000 0.000000
vn 0.000000 -1.000000 0.000000
vn -1.000000 0.000000 0.000000
vn -1.000000 0.000000 0.000000
vn -1.000000 0.000000 0.000000
vn -1.000000 0.000000 0.000000
vn -0.000000 0.000000 1.000000
vn -0.000000 0.000000 1.000000
vn -0.000000 0.000000 1.000000
vn -0.000000 0.000000 1.000000
vn 0.000000 0.000000 1.000000
vn 0.000000 0.000000 1.000000
vn 0.000000 0.000000 1.000000
vn 0.000000 0.000000 1.000000
vn 0.000000 0.000000 1.000000
vn 0.000000 0.000000 1.000000
vn 0.000000 0.000000 1.000000
vn 0.000000 0.000000 1.000000
vn 0.000000 0.000000 1.000000
vn 0.000000 0.000000 1.000000
vn 0.000000 0.000000 1.000000
vn 0.000000 0.000000 1.000000
vn -0.000000 0.000000 -1.000000
vn -0.000000 0.000000 -1.000000
vn -0.000000 0.000000 -1.000000
vn -0.000000 0.000000 -1.000000
vn 0.000000 0.000000 -1.000000
vn 0.000000 0.000000 -1.000000
vn 0.000000 0.000000 -1.000000
vn 0.000000 0.000000 -1.000000
vn 0.000000 0.000000 -1.000000
vn 0.000000 0.000000 -1.000000
vn 0.000000 0.000000 -1.000000
vn 0.000000 0.000000 -1.000000
vn -0.000000 0.000000 -1.000000
vn -0.000000 0.000000 -1.000000
vn -0.000000 0.000000 -1.000000
vn -0.000000 0.000000 -1.000000
vn 0.000000 -1.000000 0.000000
vn 0.000000 -1.000000 0.000000
vn 0.000000 -1.000000 0.000000
vn 0.000000 -1.000000 0.000000
vn -1.000000 0.000000 0.000000
vn -1.000000 0.000000 0.000000
vn -1.000000 0.000000 0.000000
vn -1.000000 0.000000 0.000000
vn 0.000000 1.000000 0.000000
vn 0.000000 1.000000 0.000000
vn 0.000000 1.000000 0.000000
vn 0.000000 1.000000 0.000000
vn 1.000000 0.000000 0.000000
vn 1.000000 0.000000 0.000000
vn 1.000000 0.000000 0.000000
vn 1.000000 0.000000 0.000000
vn 0.102546 0.857900 0.503479
vn 0.102546 0.857900 0.503480
vn 0.102546 0.857900 0.503479
vn -0.094357 0.867120 0.489081
vn -0.094357 0.867120 0.489081
vn -0.094357 0.867120 0.489081
vn -0.096040 0.858396 -0.503917
vn -0.096040 0.858396 -0.503917
vn -0.096040 0.858396 -0.503917
vn 0.079044 0.742914 -0.664704
vn 0.079044 0.742914 -0.664704
vn 0.079044 0.742914 -0.664704
vn 0.000000 0.000000 -1.000000
vn 0.000000 0.000000 -1.000000
vn 0.000000 0.000000 -1.000000
vn 0.000000 0.000000 -1.000000
vn 0.000000 0.000000 -1.000000
vn 0.000000 0.000000 -1.000000
vn 0.000000 0.000000 -1.000000
vn 0.000000 1.000000 0.000000
vn 0.000000 1.000000 0.000000
vn 0.000000 1.000000 0.000000
vn 0.000000 1.000000 0.000000
vn 0.000000 1.000000 0.000000
vn 0.000000 1.000000 0.000000
vn 0.000000 1.000000 0.000000
vn 0.000000 1.000000 0.000000
vn 0.000000 1.000000 0.000000
vn 0.000000 1.000000 0.000000
vn 0.000000 1.000000 0.000000
vn 0.000000 1.000000 0.000000
vn 0.000000 0.000000 1.000000
vn 0.000000 0.000000 1.000000
vn 0.000000 0.000000 1.000000
vn 0.000000 0.000000 1.000000
vn 0.000000 0.000000 1.000000
vn 0.000000 0.000000 1.000000
vn 0.000000 0.000000 1.000000
s off
f 7/7/1 8/8/2 4/3/3 3/4/4
f 1/1/5 2/2/6 6/6/7 5/5/8
f 12/9/9 9/10/10 13/11/11 16/12/12
f 31/13/13 27/14/14 26/15/15 12/16/16
f 9/10/17 10/17/18 14/18/19 13/11/20
f 10/17/21 11/19/22 15/20/23 14/18/24
f 11/19/25 10/17/26 18/21/27 17/22/28
f 10/17/29 9/10/30 19/23/31 18/21/32
f 9/10/33 12/9/34 20/24/35 19/23/36
f 17/22/37 28/25/38 25/26/39 11/19/40
f 16/12/41 21/27/42 32/28/43 29/29/44
f 16/12/45 13/11/46 23/30/47 21/27/48
f 13/11/49 14/18/50 24/31/51 23/30/52
f 14/18/53 15/20/54 22/32/55 24/31/56
f 21/27/57 20/33/58 17/34/59 22/32/60
f 21/27/61 23/30/62 19/35/63 20/33/64
f 23/36/65 24/37/66 18/38/67 19/39/68
f 24/31/69 22/32/70 17/34/71 18/40/72
f 25/26/73 28/25/74 27/41/75
f 27/41/76 28/25/77 26/42/78
f 29/29/79 32/28/80 31/43/81
f 31/43/82 32/28/83 30/44/84
f 32/28/85 22/32/86 15/20/87 30/44/88
f 32/28/89 21/27/90 22/32/91
f 31/13/92 12/16/93 16/45/94 29/46/95
f 11/47/96 25/48/97 27/14/98 15/49/99
f 15/49/100 27/14/101 31/13/102 30/50/103
f 20/24/104 12/9/105 26/42/106 28/25/107
f 20/24/108 28/25/109 17/22/110
