# This file uses centimeters as units for non-parametric coordinates.

v -97.348595 0.792137 95.685135
v -102.641983 46.394855 100.630859
v -102.641983 46.394810 2.032928
v -97.348595 0.792137 2.032928
v -93.639664 37.012356 92.220116
v -93.639664 37.030750 2.032928
v -102.641983 40.387535 100.630859
v -93.639664 22.358536 92.220116
v -97.348595 20.098965 2.032928
v -97.348595 19.578590 95.685135
v 0.000192 0.853635 95.321396
v 0.000192 -0.000001 0.000000
v 0.000192 36.392597 0.000000
v 0.000192 44.888245 100.180069
v 0.000192 40.736618 100.180069
v 0.000192 37.686390 91.916840
v 0.000192 22.240986 91.916840
v 0.000192 19.214674 95.321396
v -1.571367 -0.426812 97.149841
v -1.571367 20.103251 97.149841
v -1.571367 22.838007 93.441025
v -1.571367 36.795410 93.441025
v -1.571367 39.551788 102.443069
v -1.571367 46.168686 102.443069
v -81.585800 46.394821 2.032928
v -1.571367 46.168686 79.740250
v 0.000192 44.888245 81.149094
v -81.585800 46.394863 79.740250
v -78.912590 36.392593 0.000000
v 0.000192 36.392731 76.585136
v -77.950096 36.392731 75.826202
v -102.641983 39.725864 2.032928
v -77.950096 36.392612 4.553186
v -4.706496 36.392727 75.826202
v -4.285365 36.392605 4.112361
v -93.639664 22.358536 2.032928
v -91.007164 20.998787 0.000000
v -91.918877 36.958454 0.000000
v -94.674911 19.431034 0.000000
v -95.128006 2.954930 0.000000
v -83.086304 44.624786 0.000000
v -100.707565 44.887627 0.000000
v -100.404068 40.600697 0.000000
vt 0.283500 0.244849
vt 0.282952 0.244791
vt 0.282808 0.267822
vt 0.283210 0.268261
vt 0.283225 0.268379
vt 0.282859 0.267968
vt 0.282851 0.267973
vt 0.283229 0.268487
vt 0.282872 0.268080
vt 0.283259 0.244323
vt 0.283350 0.267839
vt 0.283372 0.268186
vt 0.283041 0.267874
vt 0.283449 0.267680
vt 0.283801 0.267927
vt 0.282801 0.267791
vt 0.283337 0.267589
vt 0.283338 0.267545
vt 0.282933 0.244738
vt 0.283367 0.267717
vt 0.283353 0.267723
vt 0.283220 0.268218
vt 0.282776 0.244464
vt 0.283046 0.244864
vt 0.283627 0.244619
vt 0.282757 0.244351
vt 0.282763 0.244335
vt 0.282770 0.244330
vt 0.282998 0.267800
vt 0.283428 0.267606
vt 0.282765 0.244350
vt 0.283355 0.268131
vt 0.283361 0.268176
vt 0.283436 0.267687
vt 0.283801 0.267927
vt 0.036107 0.232279
vt 0.036709 0.232070
vt 0.037107 0.232518
vt 0.036433 0.232806
vt 0.283224 0.268354
vt 0.283627 0.244620
vt 0.283655 0.244473
vt 0.283651 0.244489
vt 0.283638 0.244460
vt 0.283637 0.244473
vt 0.283658 0.244350
vt 0.283659 0.244351
vt 0.283713 0.244311
vt 0.283710 0.244311
vt 0.283723 0.244256
vt 0.283717 0.244276
vt 0.283606 0.244311
vt 0.283591 0.244297
vt 0.283560 0.244395
vt 0.283041 0.244570
vt 0.282766 0.244195
vt 0.282782 0.244182
vt 0.282782 0.244273
vt 0.282751 0.244231
vt 0.282768 0.244460
vt 0.282759 0.244222
vt 0.282728 0.244180
vt 0.282723 0.244146
vt 0.282731 0.244127
vt 0.282736 0.244178
vt 0.283546 0.244818
vt 0.282603 0.244869
vt 0.282546 0.244840
vt 0.282951 0.244946
vt 0.282600 0.244989
vt 0.283501 0.244983
vn -0.318125 -0.948043 0.003230
vn -0.318125 -0.948043 0.003230
vn -0.318125 -0.948043 0.003230
vn -0.318125 -0.948043 0.003230
vn -0.561206 0.827673 0.002343
vn -0.561206 0.827673 0.002343
vn -0.561206 0.827673 0.002343
vn -0.561206 0.827673 0.002343
vn -1.000000 0.000000 0.000000
vn -1.000000 0.000000 0.000000
vn -1.000000 0.000000 0.000000
vn -1.000000 0.000000 0.000000
vn -0.010420 -0.999943 -0.002323
vn -0.010420 -0.999943 -0.002323
vn -0.010420 -0.999943 -0.002323
vn -0.010420 -0.999943 -0.002323
vn -0.318615 0.614090 -0.722065
vn -0.318615 0.614090 -0.722065
vn -0.318615 0.614090 -0.722065
vn -0.318615 0.614090 -0.722065
vn 0.000000 1.000000 -0.000002
vn 0.000000 1.000000 -0.000002
vn 0.000000 1.000000 -0.000002
vn 0.000000 1.000000 -0.000002
vn -0.017927 0.000000 0.999839
vn -0.017927 0.000000 0.999839
vn -0.017927 0.000000 0.999839
vn -0.017927 0.000000 0.999839
vn -0.010291 -0.944835 0.327384
vn -0.010291 -0.944835 0.327384
vn -0.010291 -0.944835 0.327384
vn -0.010291 -0.944835 0.327384
vn -0.013260 0.000000 0.999912
vn -0.013260 0.000000 0.999912
vn -0.013260 0.000000 0.999912
vn -0.013260 0.000000 0.999912
vn -0.012907 0.795965 0.605205
vn -0.012907 0.795965 0.605205
vn -0.012907 0.795965 0.605205
vn -0.012907 0.795965 0.605205
vn -0.015291 0.000000 0.999883
vn -0.015291 0.000000 0.999883
vn -0.015291 0.000000 0.999883
vn -0.015291 0.000000 0.999883
vn 0.636451 -0.771286 0.006907
vn 0.636451 -0.771286 0.006907
vn 0.636451 -0.771286 0.006907
vn 0.758371 0.000000 0.651823
vn 0.758371 0.000000 0.651823
vn 0.758371 0.000000 0.651823
vn 0.758371 0.000000 0.651823
vn 0.720373 0.538989 0.436524
vn 0.720373 0.538989 0.436524
vn 0.720373 0.538989 0.436524
vn 0.720373 0.538989 0.436524
vn 0.696205 0.000000 0.717843
vn 0.696205 0.000000 0.717843
vn 0.696205 0.000000 0.717843
vn 0.696205 0.000000 0.717843
vn 0.710640 -0.666852 0.224274
vn 0.710640 -0.666852 0.224274
vn 0.710640 -0.666852 0.224274
vn 0.710641 -0.666852 0.224274
vn 0.821365 0.000000 0.570403
vn 0.821365 0.000000 0.570403
vn 0.821365 0.000000 0.570403
vn 0.821365 0.000000 0.570403
vn 0.002486 0.999996 0.001201
vn 0.002486 0.999996 0.001201
vn 0.002486 0.999996 0.001201
vn 0.002486 0.999996 0.001201
vn 0.631647 0.775256 0.000000
vn 0.631647 0.775256 0.000000
vn 0.631647 0.775256 0.000000
vn 0.631647 0.775256 0.000000
vn 0.936206 0.290435 -0.197905
vn 0.936206 0.290435 -0.197905
vn 0.936206 0.290435 -0.197905
vn 0.000543 0.368030 -0.929814
vn 0.000543 0.368030 -0.929814
vn 0.000543 0.368030 -0.929814
vn 0.000543 0.368030 -0.929814
vn 0.761625 0.306676 -0.570857
vn 0.761625 0.306676 -0.570857
vn 0.761625 0.306676 -0.570857
vn -0.000001 1.000000 -0.000000
vn -0.000001 1.000000 -0.000000
vn -0.000001 1.000000 -0.000000
vn -0.000001 1.000000 -0.000000
vn 1.000000 -0.000000 0.000000
vn 1.000000 -0.000000 0.000000
vn 1.000000 -0.000000 0.000000
vn 1.000000 -0.000000 0.000000
vn 1.000000 -0.000000 0.000000
vn 1.000000 0.000000 0.000000
vn 1.000000 0.000000 0.000000
vn 1.000000 0.000000 0.000000
vn 1.000000 0.000000 0.000000
vn 1.000000 -0.000000 0.000000
vn 1.000000 -0.000000 0.000000
vn 1.000000 -0.000000 0.000000
vn 1.000000 -0.000000 0.000000
vn 1.000000 0.000000 0.000000
vn 1.000000 0.000000 0.000000
vn 1.000000 0.000000 0.000000
vn -1.000000 0.000000 0.000000
vn -1.000000 0.000000 0.000000
vn -1.000000 0.000000 0.000000
vn -1.000000 0.000000 0.000000
vn 0.614486 0.311544 -0.724808
vn 0.614486 0.311544 -0.724808
vn 0.614486 0.311544 -0.724808
vn -0.000000 1.000000 -0.000002
vn -0.000000 1.000000 -0.000002
vn -0.000000 1.000000 -0.000002
vn -0.000000 1.000000 -0.000002
vn 0.000000 1.000000 -0.000003
vn 0.000000 1.000000 -0.000003
vn 0.000000 1.000000 -0.000003
vn 0.000000 1.000000 -0.000003
vn 0.939837 0.341623 -0.000000
vn 0.939837 0.341623 -0.000000
vn 0.939837 0.341623 -0.000000
vn 0.939837 0.341623 -0.000000
vn 0.150519 0.325475 -0.933493
vn 0.150519 0.325475 -0.933493
vn 0.150519 0.325475 -0.933493
vn -1.000000 0.000000 0.000000
vn -1.000000 0.000000 0.000000
vn -1.000000 0.000000 0.000000
vn -1.000000 0.000000 0.000000
vn 0.000000 0.000000 -1.000000
vn 0.000000 0.000000 -1.000000
vn 0.000000 0.000000 -1.000000
vn 0.000000 0.000000 -1.000000
vn 0.000000 0.000000 -1.000000
vn 0.000000 0.000000 -1.000000
vn 0.000000 0.000000 -1.000000
vn 0.000000 0.000000 -1.000000
vn 0.000000 0.000000 -1.000000
vn 0.000000 0.000000 -1.000000
vn 0.000000 0.000000 -1.000000
vn -0.686005 -0.020418 -0.727310
vn -0.686005 -0.020418 -0.727310
vn -0.686005 -0.020418 -0.727310
vn -0.686005 -0.020418 -0.727310
vn 0.000000 0.000000 -1.000000
vn 0.000000 0.000000 -1.000000
vn 0.000000 0.000000 -1.000000
vn 0.000000 0.000000 -1.000000
vn 0.000000 0.000000 -1.000000
vn 0.005293 0.778837 -0.627204
vn 0.005293 0.778837 -0.627204
vn 0.005293 0.778837 -0.627204
vn 0.005293 0.778837 -0.627204
vn -0.699282 -0.019372 -0.714583
vn -0.699282 -0.019372 -0.714583
vn -0.699282 -0.019372 -0.714583
vn -0.699282 -0.019372 -0.714583
vn -0.302617 -0.835051 -0.459469
vn -0.302617 -0.835051 -0.459469
vn -0.302617 -0.835051 -0.459469
vn -0.302617 -0.835051 -0.459469
vn -0.640449 0.008110 -0.767958
vn -0.640449 0.008110 -0.767958
vn -0.640449 0.008110 -0.767958
vn -0.640449 0.008110 -0.767958
vn -0.020913 -0.673259 -0.739111
vn -0.020913 -0.673259 -0.739111
vn -0.020913 -0.673259 -0.739111
s off
f 6/1/1 5/2/2 7/19/3 32/66/4
f 8/6/5 36/40/6 9/5/7 10/7/8
f 4/8/9 1/9/10 10/7/11 9/5/12
f 1/10/13 4/23/14 12/24/15 19/25/16
f 39/26/17 9/27/18 36/28/19 37/31/20
f 33/36/21 31/37/22 34/38/23 35/39/24
f 2/16/25 7/3/26 23/17/27 24/18/28
f 7/19/29 5/2/30 22/67/31 23/68/32
f 5/2/33 8/69/34 21/70/35 22/67/36
f 8/6/37 10/7/38 20/21/39 21/20/40
f 10/7/41 1/9/42 19/11/43 20/21/44
f 19/25/45 12/24/46 11/41/47
f 20/42/48 19/25/49 11/41/50 18/43/51
f 21/44/52 20/42/53 18/43/54 17/45/55
f 22/46/56 21/44/57 17/45/58 16/47/59
f 23/48/60 22/46/61 16/47/62 15/49/63
f 24/50/64 23/48/65 15/49/66 14/51/67
f 28/29/68 2/16/69 24/18/70 26/30/71
f 27/52/72 26/53/73 24/50/74 14/51/75
f 25/32/76 33/33/77 29/12/78
f 28/29/79 26/30/80 34/34/81 31/13/82
f 26/53/83 27/52/84 30/54/85
f 3/22/86 2/16/87 28/29/88 25/32/89
f 16/47/90 30/54/91 27/52/92 14/51/93 15/49/94
f 12/24/95 13/55/96 30/54/97 17/45/98
f 12/24/99 17/45/100 18/43/101 11/41/102
f 17/45/103 30/54/104 16/47/105
f 32/4/106 7/3/107 2/16/108 3/22/109
f 41/56/110 25/57/111 29/58/112
f 30/14/113 13/15/114 35/35/115 34/34/116
f 13/15/117 29/12/118 33/33/119 35/35/120
f 25/32/121 28/29/122 31/13/123 33/33/124
f 34/34/125 26/30/126 30/14/127
f 36/71/128 8/69/129 5/2/130 6/1/131
f 37/31/132 38/59/133 29/58/134
f 12/24/135 37/31/136 29/58/137 13/55/138
f 12/24/139 40/60/140 39/26/141 37/31/142
f 6/61/143 38/59/144 37/31/145 36/28/146
f 38/59/147 43/62/148 42/63/149 41/56/150 29/58/151
f 3/64/152 25/57/153 41/56/154 42/63/155
f 3/64/156 42/63/157 43/62/158 32/65/159
f 32/65/160 43/62/161 38/59/162 6/61/163
f 4/23/164 9/27/165 39/26/166 40/60/167
f 4/23/168 40/60/169 12/24/170
