# This file uses centimeters as units for non-parametric coordinates.

v 15.196823 -0.035868 -11.250006
v 236.002884 -0.035950 -11.249994
v 16.370159 199.248093 -11.090655
v 232.423462 198.576202 -11.409333
v 225.275879 -0.107743 0.000000
v 24.739529 -0.107688 0.000000
v 15.196823 -0.035868 11.250006
v 234.834702 -0.035950 11.249994
v 18.092091 199.804321 11.090655
v 234.834702 202.931427 11.409333
v 23.074036 -0.143616 -7.877197
v 24.760429 -0.215424 -3.938599
v 24.760429 -0.215424 3.938599
v 23.074036 -0.143616 7.877197
v 23.074036 198.399185 -7.877197
v 24.760429 196.712799 -3.938599
v 226.957489 -0.143616 -7.877197
v 225.271103 -0.215424 -3.938599
v 225.271103 -0.215424 3.938599
v 226.957489 -0.143616 7.877197
v 24.760429 196.712799 3.938599
v 23.074036 198.399185 7.877197
v 225.271103 196.712799 -3.938599
v 226.957489 198.399185 -7.877197
v 225.271103 196.712799 3.938599
v 228.655182 199.027786 7.877197
v 24.760429 196.712799 0.000000
v 225.271103 196.712799 0.000000
v 0.000000 0.000000 11.250000
v 0.000000 300.574280 0.000000
v 0.000000 0.000000 0.000000
v 249.999268 299.999817 11.250000
v 249.999268 0.000000 11.250000
v 249.999268 0.000000 0.000000
v 249.999268 300.574280 0.000000
v 0.000000 299.999817 11.250000
v 0.000000 0.000000 -11.250000
v 249.999268 299.999817 -11.250000
v 249.999268 0.000000 -11.250000
v 0.000000 299.999817 -11.250000
v 225.271103 81.191879 -3.938599
v 228.465164 82.108803 -7.877197
v 234.834717 85.064705 -11.315720
v 225.271088 82.333351 3.938598
v 225.273895 81.764061 0.000000
v 226.957489 83.775482 7.877197
v 237.705170 85.013176 11.318253
v 249.999268 94.540459 0.000000
v 249.999268 96.170670 11.250000
v 249.999268 92.910240 -11.250000
v 23.074036 159.878967 -7.877197
v 15.196823 161.147415 -11.125511
v 24.760429 159.962723 -3.938599
v 24.756573 160.395050 0.000000
v 24.760429 160.825775 3.938599
v 23.074036 161.604996 7.877197
v 15.196823 163.585022 11.123629
v 0.000000 165.500015 0.000000
v 0.000000 166.732559 11.250000
v 0.000000 164.267456 -11.250000
v 15.196823 52.226143 -11.209641
v 24.745811 59.065018 0.000000
v 0.000000 40.902695 11.250000
v 23.074036 57.932255 -7.877197
v 24.760429 59.118641 -3.938599
v 24.760429 59.032707 3.938599
v 22.620344 57.760361 7.877197
v 17.380011 52.418407 11.209828
v 0.000000 41.025444 0.000000
v 0.000000 41.148190 -11.250000
v 59.454853 198.399185 -7.877198
v 60.066933 196.712799 -3.938599
v 60.679695 207.766327 -11.152569
v 60.398388 196.712799 0.000000
v 60.729839 196.712799 3.938599
v 60.780663 198.399185 7.877197
v 59.745743 206.276398 11.155293
v 146.565918 196.712799 -3.938599
v 146.347610 196.712799 3.938599
v 146.732498 198.399185 7.877197
v 151.488358 208.837616 11.284716
v 147.169159 200.031418 -7.877197
v 149.571442 206.276398 -11.285624
v 146.456757 196.712799 0.000000
v 228.856033 206.460114 11.400394
v 24.219425 203.609299 11.100163
v 227.251602 203.702026 -11.401610
v 21.839462 204.642410 -11.098297
vt 0.062105 0.002096
vt 0.093520 0.001738
vt 0.100245 0.001500
vt 0.100162 0.001858
vt 0.093520 0.661089
vt 0.066784 0.663908
vt 0.906609 0.001738
vt 0.899884 0.001500
vt 0.899903 0.001858
vt 0.938024 0.002096
vt 0.100162 0.001858
vt 0.100245 0.655489
vt 0.100245 0.655489
vt 0.899903 0.001858
vt 0.100245 0.655489
vt 0.899884 0.001500
vt 0.906609 0.001738
vt 0.942682 0.002096
vt 0.899884 0.655489
vt 0.100245 0.001500
vt 0.093520 0.661089
vt 0.093520 0.001738
vt 0.073652 0.665756
vt 0.062105 0.002096
vt 0.906609 0.661089
vt 0.928407 0.661677
vt 0.899884 0.655489
vt 0.899884 0.655489
vt 0.100245 0.655489
vt 0.899884 0.655489
vt 0.913379 0.663177
vt 0.938023 0.676141
vt 0.001035 0.998828
vt -0.034447 0.999131
vt -0.034447 0.000635
vt 0.001035 0.001035
vt 0.998967 0.998965
vt 0.998965 0.975171
vt 0.001035 0.975171
vt 0.001035 0.998965
vt 0.998500 0.998500
vt 0.001500 0.998500
vt 0.998500 0.002215
vt 0.001500 0.002215
vt 1.033129 0.001867
vt 1.033127 0.998047
vt 0.997733 0.997525
vt 0.997734 0.002266
vt 0.998500 0.002215
vt 0.001500 0.002215
vt 0.001500 0.998500
vt 0.998500 0.998500
vt 0.998500 0.002215
vt 0.001500 0.002215
vt 0.998500 0.002215
vt 0.001500 0.002215
vt 0.001035 0.998829
vt 0.001035 0.001035
vt -0.034447 0.000635
vt -0.034447 0.999136
vt 0.998966 0.998965
vt 0.001035 0.998966
vt 0.001035 0.975171
vt 0.998965 0.975172
vt 1.033129 0.998054
vt 0.997734 0.997526
vt 0.997734 0.002266
vt 1.033129 0.001867
vt 0.899884 0.271850
vt 0.912622 0.274895
vt 0.938024 0.284711
vt 0.899884 0.275640
vt 0.899895 0.273750
vt 0.899895 0.273750
vt 0.906609 0.280430
vt 0.949471 0.284540
vt 1.033129 0.315063
vt 1.033129 0.315063
vt 0.997734 0.321382
vt 0.998500 0.321593
vt 0.997734 0.310564
vt 0.998500 0.310766
vt 0.093520 0.533166
vt 0.062105 0.537378
vt 0.100245 0.533444
vt 0.100230 0.534879
vt 0.100230 0.534879
vt 0.100245 0.536310
vt 0.093520 0.538898
vt 0.062105 0.545473
vt -0.034447 0.550264
vt -0.034447 0.550264
vt 0.001035 0.555661
vt 0.001500 0.555926
vt 0.001035 0.547461
vt 0.001500 0.547740
vt 0.062105 0.175656
vt 0.100187 0.198367
vt 0.100187 0.198367
vt 0.001035 0.137096
vt 0.001500 0.138051
vt 0.093520 0.194606
vt 0.100245 0.198545
vt 0.100245 0.198260
vt 0.091710 0.194035
vt 0.070812 0.176294
vt -0.034447 0.136881
vt -0.034447 0.136881
vt 0.001035 0.137912
vt 0.001500 0.138867
vt 0.238607 0.661089
vt 0.241048 0.655489
vt 0.243491 0.692197
vt 0.242369 0.655489
vt 0.242369 0.655489
vt 0.243691 0.655489
vt 0.243894 0.661089
vt 0.239767 0.687249
vt 0.586007 0.655489
vt 0.585136 0.655489
vt 0.586671 0.661089
vt 0.605637 0.695755
vt 0.588412 0.666510
vt 0.597993 0.687249
vt 0.585571 0.655489
vt 0.585571 0.655489
vt 0.914180 0.687859
vt 0.098087 0.678392
vt 0.907782 0.678700
vt 0.088596 0.681823
vn -0.026543 -0.999596 0.010171
vn -0.026543 -0.999596 0.010171
vn -0.026543 -0.999596 0.010171
vn -0.026543 -0.999596 0.010171
vn 0.404450 -0.005778 -0.914542
vn 0.404450 -0.005778 -0.914542
vn 0.404450 -0.005778 -0.914542
vn 0.404450 -0.005778 -0.914542
vn 0.919278 0.000000 -0.393608
vn 0.919278 0.000000 -0.393608
vn 0.919278 0.000000 -0.393608
vn 0.919278 0.000000 -0.393608
vn 0.023193 -0.999686 0.009504
vn 0.023193 -0.999686 0.009504
vn 0.023193 -0.999686 0.009504
vn 0.023193 -0.999686 0.009504
vn 0.026576 -0.999594 -0.010226
vn 0.026576 -0.999594 -0.010226
vn 0.026576 -0.999594 -0.010226
vn 0.026576 -0.999594 -0.010226
vn 0.999990 -0.000053 -0.004510
vn 0.999990 -0.000053 -0.004510
vn 0.999990 -0.000053 -0.004510
vn 0.999990 -0.000053 -0.004510
vn 0.899276 0.003483 0.437369
vn 0.899276 0.003483 0.437369
vn 0.899276 0.003483 0.437369
vn 0.899276 0.003483 0.437369
vn 0.445201 -0.017250 0.895264
vn 0.445201 -0.017250 0.895264
vn 0.445201 -0.017250 0.895264
vn 0.445201 -0.017250 0.895264
vn -0.850482 0.007835 -0.525946
vn -0.850482 0.007835 -0.525946
vn -0.850482 0.007835 -0.525946
vn -0.850482 0.007835 -0.525946
vn -0.505699 -0.008975 -0.862663
vn -0.505699 -0.008975 -0.862663
vn -0.505699 -0.008975 -0.862663
vn -0.505699 -0.008975 -0.862663
vn -1.000000 -0.000012 -0.000962
vn -1.000000 -0.000012 -0.000962
vn -1.000000 -0.000012 -0.000962
vn -1.000000 -0.000012 -0.000962
vn 0.000000 -0.919280 -0.393604
vn 0.000000 -0.919280 -0.393604
vn 0.000000 -0.919280 -0.393604
vn 0.000000 -0.919280 -0.393604
vn -0.919278 0.000000 0.393608
vn -0.919278 0.000000 0.393608
vn -0.919278 0.000000 0.393608
vn -0.919278 0.000000 0.393608
vn -0.467955 -0.471027 -0.747765
vn -0.467955 -0.471027 -0.747765
vn -0.467955 -0.471027 -0.747765
vn 0.000000 -1.000000 0.000003
vn 0.000000 -1.000000 0.000003
vn 0.000000 -1.000000 0.000003
vn 0.000000 -1.000000 0.000003
vn -0.380306 -0.002274 0.924858
vn -0.380306 -0.002274 0.924858
vn -0.380306 -0.002274 0.924858
vn -0.380306 -0.002274 0.924858
vn 0.000000 -0.919280 0.393604
vn 0.000000 -0.919280 0.393604
vn 0.000000 -0.919280 0.393604
vn 0.000000 -0.919280 0.393604
vn -0.004635 -0.360462 0.932762
vn -0.004635 -0.360462 0.932762
vn -0.004635 -0.360462 0.932762
vn -0.004635 -0.360462 0.932762
vn -0.026543 -0.999596 -0.010171
vn -0.026543 -0.999596 -0.010171
vn -0.026543 -0.999596 -0.010171
vn -0.026543 -0.999596 -0.010171
vn 0.999990 -0.000053 0.004509
vn 0.999990 -0.000053 0.004509
vn 0.999990 -0.000053 0.004509
vn 0.999990 -0.000053 0.004509
vn 0.000000 -1.000000 -0.000003
vn 0.000000 -1.000000 -0.000003
vn 0.000000 -1.000000 -0.000003
vn 0.000000 -1.000000 -0.000003
vn -1.000000 -0.000012 0.000962
vn -1.000000 -0.000012 0.000962
vn -1.000000 -0.000012 0.000962
vn -1.000000 -0.000012 0.000962
vn -1.000000 0.000000 0.000000
vn -1.000000 0.000000 0.000000
vn -1.000000 0.000000 0.000000
vn -1.000000 0.000000 0.000000
vn -0.001436 0.001932 0.999997
vn -0.001436 0.001932 0.999997
vn -0.001436 0.001932 0.999997
vn 1.000000 0.000000 0.000000
vn 1.000000 0.000000 0.000000
vn 1.000000 0.000000 0.000000
vn 1.000000 0.000000 0.000000
vn 0.009084 -0.000202 0.999959
vn 0.009084 -0.000202 0.999959
vn 0.009084 -0.000202 0.999959
vn 0.009084 -0.000202 0.999959
vn 0.008724 0.000046 0.999962
vn 0.008724 0.000046 0.999962
vn 0.008724 0.000046 0.999962
vn 0.008724 0.000046 0.999962
vn 0.003602 -0.999992 0.001660
vn 0.003602 -0.999992 0.001660
vn 0.003602 -0.999992 0.001660
vn 0.003602 -0.999992 0.001660
vn -0.003595 -0.999992 0.001667
vn -0.003595 -0.999992 0.001667
vn -0.003595 -0.999992 0.001667
vn -0.003595 -0.999992 0.001667
vn -1.000000 0.000000 0.000000
vn -1.000000 0.000000 0.000000
vn -1.000000 0.000000 0.000000
vn -1.000000 0.000000 0.000000
vn 0.000054 0.001562 -0.999999
vn 0.000054 0.001562 -0.999999
vn 0.000054 0.001562 -0.999999
vn 1.000000 0.000000 0.000000
vn 1.000000 0.000000 0.000000
vn 1.000000 0.000000 0.000000
vn 1.000000 0.000000 0.000000
vn 0.007656 -0.000234 -0.999971
vn 0.007656 -0.000234 -0.999971
vn 0.007656 -0.000234 -0.999971
vn 0.007656 -0.000234 -0.999971
vn 0.009441 0.000137 -0.999955
vn 0.009441 0.000137 -0.999955
vn 0.009441 0.000137 -0.999955
vn 0.009441 0.000137 -0.999955
vn 0.003711 -0.999992 -0.001422
vn 0.003711 -0.999992 -0.001422
vn 0.003711 -0.999992 -0.001422
vn 0.003711 -0.999992 -0.001422
vn -0.003595 -0.999992 -0.001667
vn -0.003595 -0.999992 -0.001667
vn -0.003595 -0.999992 -0.001667
vn -0.003595 -0.999992 -0.001667
vn -0.849237 -0.005523 -0.527984
vn -0.849237 -0.005523 -0.527984
vn -0.849237 -0.005523 -0.527984
vn -0.849237 -0.005523 -0.527984
vn -0.404244 0.000461 -0.914651
vn -0.404244 0.000461 -0.914651
vn -0.404244 0.000461 -0.914651
vn -0.404244 0.000461 -0.914651
vn -1.000000 -0.000012 -0.000356
vn -1.000000 -0.000012 -0.000356
vn -1.000000 -0.000012 -0.000356
vn -1.000000 -0.000012 -0.000356
vn -0.842192 0.006226 0.539142
vn -0.842192 0.006226 0.539142
vn -0.842192 0.006226 0.539142
vn -0.842192 0.006226 0.539142
vn -0.343919 0.005463 0.938984
vn -0.343919 0.005463 0.938984
vn -0.343919 0.005463 0.938984
vn -0.343919 0.005463 0.938984
vn -1.000000 -0.000012 0.000355
vn -1.000000 -0.000012 0.000355
vn -1.000000 -0.000012 0.000355
vn -1.000000 -0.000012 0.000355
vn 1.000000 0.000000 0.000000
vn 1.000000 0.000000 0.000000
vn 1.000000 0.000000 0.000000
vn 1.000000 0.000000 0.000000
vn 0.002656 -0.000419 0.999996
vn 0.002656 -0.000419 0.999996
vn 0.002656 -0.000419 0.999996
vn 0.002656 -0.000419 0.999996
vn 1.000000 0.000000 0.000000
vn 1.000000 0.000000 0.000000
vn 1.000000 0.000000 0.000000
vn 1.000000 0.000000 0.000000
vn 0.002349 -0.000354 -0.999997
vn 0.002349 -0.000354 -0.999997
vn 0.002349 -0.000354 -0.999997
vn 0.002349 -0.000354 -0.999997
vn 0.385346 0.000368 -0.922772
vn 0.385346 0.000368 -0.922772
vn 0.385346 0.000368 -0.922772
vn 0.385346 0.000368 -0.922772
vn 0.919278 0.000000 -0.393608
vn 0.919278 0.000000 -0.393608
vn 0.919278 0.000000 -0.393608
vn 0.919278 0.000000 -0.393608
vn 1.000000 -0.000053 -0.000487
vn 1.000000 -0.000053 -0.000487
vn 1.000000 -0.000053 -0.000487
vn 1.000000 -0.000053 -0.000487
vn 0.919278 0.000000 0.393608
vn 0.919278 0.000000 0.393608
vn 0.919278 0.000000 0.393608
vn 0.919278 0.000000 0.393608
vn 0.447505 0.003958 0.894273
vn 0.447505 0.003958 0.894273
vn 0.447505 0.003958 0.894273
vn 0.447505 0.003958 0.894273
vn 1.000000 -0.000053 0.000492
vn 1.000000 -0.000053 0.000492
vn 1.000000 -0.000053 0.000492
vn 1.000000 -0.000053 0.000492
vn -1.000000 0.000000 0.000000
vn -1.000000 0.000000 0.000000
vn -1.000000 0.000000 0.000000
vn -1.000000 0.000000 0.000000
vn 0.005007 0.000410 0.999987
vn 0.005007 0.000410 0.999987
vn 0.005007 0.000410 0.999987
vn 0.005007 0.000410 0.999987
vn -1.000000 0.000000 0.000000
vn -1.000000 0.000000 0.000000
vn -1.000000 0.000000 0.000000
vn -1.000000 0.000000 0.000000
vn 0.005329 0.000363 -0.999986
vn 0.005329 0.000363 -0.999986
vn 0.005329 0.000363 -0.999986
vn 0.005329 0.000363 -0.999986
vn 0.919278 0.000000 -0.393608
vn 0.919278 0.000000 -0.393608
vn 0.919278 0.000000 -0.393608
vn 0.919278 0.000000 -0.393608
vn 0.999997 -0.000053 -0.002343
vn 0.999997 -0.000053 -0.002343
vn 0.999997 -0.000053 -0.002343
vn 0.999997 -0.000053 -0.002343
vn 0.899537 -0.001985 0.436841
vn 0.899537 -0.001985 0.436841
vn 0.899537 -0.001985 0.436841
vn 0.899537 -0.001985 0.436841
vn 0.999997 -0.000053 0.002348
vn 0.999997 -0.000053 0.002348
vn 0.999997 -0.000053 0.002348
vn 0.999997 -0.000053 0.002348
vn 0.391515 0.000337 -0.920172
vn 0.391515 0.000337 -0.920172
vn 0.391515 0.000337 -0.920172
vn 0.391515 0.000337 -0.920172
vn 0.457313 -0.006843 0.889279
vn 0.457313 -0.006843 0.889279
vn 0.457313 -0.006843 0.889279
vn 0.457313 -0.006843 0.889279
vn -1.000000 0.000000 0.000000
vn -1.000000 0.000000 0.000000
vn -1.000000 0.000000 0.000000
vn -1.000000 0.000000 0.000000
vn 0.001090 0.000405 0.999999
vn 0.001090 0.000405 0.999999
vn 0.001090 0.000405 0.999999
vn 0.001090 0.000405 0.999999
vn -1.000000 0.000000 0.000000
vn -1.000000 0.000000 0.000000
vn -1.000000 0.000000 0.000000
vn -1.000000 0.000000 0.000000
vn 0.001171 0.000432 -0.999999
vn 0.001171 0.000432 -0.999999
vn 0.001171 0.000432 -0.999999
vn 0.001171 0.000432 -0.999999
vn 0.007908 -0.844005 -0.536277
vn 0.007908 -0.844005 -0.536277
vn 0.007908 -0.844005 -0.536277
vn 0.007908 -0.844005 -0.536277
vn 0.015288 -0.384166 -0.923138
vn 0.015288 -0.384166 -0.923138
vn 0.015288 -0.384166 -0.923138
vn 0.015288 -0.384166 -0.923138
vn 0.000000 -1.000000 0.000006
vn 0.000000 -1.000000 0.000006
vn 0.000000 -1.000000 0.000006
vn 0.000000 -1.000000 0.000006
vn 0.000000 -0.919279 0.393606
vn 0.000000 -0.919279 0.393606
vn 0.000000 -0.919279 0.393606
vn 0.000000 -0.919279 0.393606
vn 0.338928 -0.547703 0.764951
vn 0.338928 -0.547703 0.764951
vn 0.338928 -0.547703 0.764951
vn 0.000000 -1.000000 -0.000006
vn 0.000000 -1.000000 -0.000006
vn 0.000000 -1.000000 -0.000006
vn 0.000000 -1.000000 -0.000006
vn -0.000507 -0.001682 0.999999
vn -0.000507 -0.001682 0.999999
vn -0.000507 -0.001682 0.999999
vn -0.001246 -0.001876 -0.999998
vn -0.001246 -0.001876 -0.999998
vn -0.001246 -0.001876 -0.999998
vn -0.000376 -0.393493 -0.919328
vn -0.000376 -0.393493 -0.919328
vn -0.000376 -0.393493 -0.919328
vn -0.000376 -0.393493 -0.919328
vn 0.004269 -0.343655 0.939086
vn 0.004269 -0.343655 0.939086
vn 0.004269 -0.343655 0.939086
vn 0.004269 -0.343655 0.939086
vn 0.000000 0.998699 0.050998
vn 0.000000 0.998699 0.050998
vn 0.000000 0.998699 0.050998
vn 0.000000 0.998699 0.050998
vn -0.000377 -0.000245 1.000000
vn -0.000377 -0.000245 1.000000
vn -0.000377 -0.000245 1.000000
vn -0.000377 -0.000245 1.000000
vn 0.000000 0.998699 -0.050998
vn 0.000000 0.998699 -0.050998
vn 0.000000 0.998699 -0.050998
vn 0.000000 0.998699 -0.050998
vn -0.000394 -0.000248 -1.000000
vn -0.000394 -0.000248 -1.000000
vn -0.000394 -0.000248 -1.000000
vn -0.000394 -0.000248 -1.000000
vn -0.008680 -0.842861 -0.538061
vn -0.008680 -0.842861 -0.538061
vn -0.008680 -0.842861 -0.538061
vn -0.008680 -0.842861 -0.538061
vn 0.000000 -1.000000 -0.000003
vn 0.000000 -1.000000 -0.000003
vn 0.000000 -1.000000 -0.000003
vn 0.000000 -1.000000 -0.000003
vn 0.003487 -0.892234 0.451560
vn 0.003487 -0.892234 0.451560
vn 0.003487 -0.892234 0.451560
vn 0.003487 -0.892234 0.451560
vn 0.000000 -1.000000 0.000000
vn 0.000000 -1.000000 0.000000
vn 0.000000 -1.000000 0.000000
vn 0.000000 -1.000000 0.000000
vn -0.243356 -0.410093 0.878978
vn -0.243356 -0.410093 0.878978
vn -0.243356 -0.410093 0.878978
vn -0.000482 0.001717 0.999999
vn -0.000482 0.001717 0.999999
vn -0.000482 0.001717 0.999999
vn 0.015530 -0.444932 0.895430
vn 0.015530 -0.444932 0.895430
vn 0.015530 -0.444932 0.895430
vn 0.015530 -0.444932 0.895430
vn -0.001409 -0.001908 0.999997
vn -0.001409 -0.001908 0.999997
vn -0.001409 -0.001908 0.999997
vn -0.014316 -0.512211 -0.858741
vn -0.014316 -0.512211 -0.858741
vn -0.014316 -0.512211 -0.858741
vn -0.014316 -0.512211 -0.858741
vn -0.001430 0.001912 -0.999997
vn -0.001430 0.001912 -0.999997
vn -0.001430 0.001912 -0.999997
vn 0.363208 -0.369468 -0.855321
vn 0.363208 -0.369468 -0.855321
vn 0.363208 -0.369468 -0.855321
vn 0.000140 -0.001559 -0.999999
vn 0.000140 -0.001559 -0.999999
vn 0.000140 -0.001559 -0.999999
s off
f 1/1/1 11/2/2 12/3/3 6/4/4
f 15/5/5 51/83/6 52/84/7 3/6/8
f 12/3/9 11/2/10 64/102/11 65/103/12
f 5/14/13 18/16/14 17/17/15 2/18/16
f 20/7/17 19/8/18 5/9/19 8/10/20
f 6/11/21 62/98/22 66/104/23 13/20/24
f 13/20/25 66/104/26 67/105/27 14/22/28
f 9/23/29 57/90/30 56/89/31 22/21/32
f 18/16/33 41/69/34 42/70/35 17/17/36
f 4/26/37 43/71/38 42/70/39 24/25/40
f 5/9/41 19/8/42 44/72/43 45/73/44
f 15/5/45 71/111/46 72/112/47 16/13/48
f 19/8/49 20/7/50 46/75/51 44/72/52
f 24/25/53 87/129/54 4/26/55
f 27/12/56 74/114/57 75/116/58 21/15/59
f 26/31/60 46/75/61 47/76/62 10/32/63
f 21/15/64 75/116/65 76/117/66 22/21/67
f 26/31/68 85/127/69 81/122/70 80/121/71
f 14/22/72 7/24/73 6/11/74 13/20/75
f 12/3/76 65/103/77 62/99/78 6/4/79
f 16/13/80 72/112/81 74/115/82 27/29/83
f 18/16/84 5/14/85 45/74/86 41/69/87
f 36/33/88 30/34/89 58/91/90 59/93/91
f 85/127/92 32/41/93 81/122/94
f 34/45/95 48/77/96 49/79/97 33/48/98
f 10/32/99 47/76/100 49/80/101 32/41/102
f 9/23/103 36/42/104 59/94/105 57/90/106
f 33/43/107 8/10/108 5/9/109 34/49/110
f 7/24/111 29/44/112 31/50/113 6/11/114
f 40/57/115 60/95/116 58/92/117 30/60/118
f 4/26/119 87/129/120 38/52/121
f 34/68/122 39/67/123 50/81/124 48/78/125
f 4/26/126 38/52/127 50/82/128 43/71/129
f 3/6/130 52/84/131 60/96/132 40/51/133
f 39/53/134 34/55/135 5/14/136 2/18/137
f 1/1/138 6/4/139 31/56/140 37/54/141
f 42/70/142 41/69/143 23/19/144 24/25/145
f 42/70/146 43/71/147 2/18/148 17/17/149
f 45/73/150 44/72/151 25/27/152 28/28/153
f 44/72/154 46/75/155 26/31/156 25/27/157
f 47/76/158 46/75/159 20/7/160 8/10/161
f 41/69/162 45/74/163 28/30/164 23/19/165
f 49/79/166 48/77/167 35/46/168 32/47/169
f 49/80/170 47/76/171 8/10/172 33/43/173
f 48/78/174 50/81/175 38/66/176 35/65/177
f 43/71/178 50/82/179 39/53/180 2/18/181
f 52/84/182 51/83/183 64/102/184 61/97/185
f 53/85/186 51/83/187 15/5/188 16/13/189
f 55/88/190 54/86/191 27/12/192 21/15/193
f 56/89/194 55/88/195 21/15/196 22/21/197
f 56/89/198 57/90/199 68/106/200 67/105/201
f 54/87/202 53/85/203 16/13/204 27/29/205
f 59/93/206 58/91/207 69/107/208 63/100/209
f 57/90/210 59/94/211 63/101/212 68/106/213
f 58/92/214 60/95/215 70/109/216 69/108/217
f 60/96/218 52/84/219 61/97/220 70/110/221
f 65/103/222 64/102/223 51/83/224 53/85/225
f 66/104/226 62/98/227 54/86/228 55/88/229
f 67/105/230 66/104/231 55/88/232 56/89/233
f 62/99/234 65/103/235 53/85/236 54/87/237
f 61/97/238 64/102/239 11/2/240 1/1/241
f 67/105/242 68/106/243 7/24/244 14/22/245
f 63/100/246 69/107/247 31/35/248 29/36/249
f 68/106/250 63/101/251 29/44/252 7/24/253
f 69/108/254 70/109/255 37/58/256 31/59/257
f 70/110/258 61/97/259 1/1/260 37/54/261
f 72/112/262 71/111/263 82/123/264 78/119/265
f 73/113/266 71/111/267 15/5/268 88/130/269
f 75/116/270 74/114/271 84/125/272 79/120/273
f 76/117/274 75/116/275 79/120/276 80/121/277
f 22/21/278 86/128/279 9/23/280
f 74/115/281 72/112/282 78/119/283 84/126/284
f 86/128/285 36/42/286 9/23/287
f 40/51/288 73/113/289 88/130/290
f 83/124/291 82/123/292 71/111/293 73/113/294
f 80/121/295 81/122/296 77/118/297 76/117/298
f 32/37/299 35/38/300 30/39/301 36/40/302
f 81/122/303 32/41/304 36/42/305 77/118/306
f 35/64/307 38/61/308 40/62/309 30/63/310
f 38/52/311 83/124/312 73/113/313 40/51/314
f 78/119/315 82/123/316 24/25/317 23/19/318
f 79/120/319 84/125/320 28/28/321 25/27/322
f 80/121/323 79/120/324 25/27/325 26/31/326
f 84/126/327 78/119/328 23/19/329 28/30/330
f 10/32/331 85/127/332 26/31/333
f 10/32/334 32/41/335 85/127/336
f 76/117/337 77/118/338 86/128/339 22/21/340
f 77/118/341 36/42/342 86/128/343
f 24/25/344 82/123/345 83/124/346 87/129/347
f 38/52/348 87/129/349 83/124/350
f 88/130/351 15/5/352 3/6/353
f 40/51/354 88/130/355 3/6/356
