# This file uses centimeters as units for non-parametric coordinates.

v -23.561687 -4.330176 7.280571
v 23.561705 -4.330158 7.280569
v -23.561689 -4.330177 -7.280772
v 23.561705 -4.330158 -7.280770
v -5.011615 45.018169 -5.229575
v -4.855988 44.423164 5.257649
v 5.012325 45.018169 5.229310
v 5.012325 45.018169 -5.229575
v -22.832138 12.017225 6.723664
v 22.832378 12.017239 6.723663
v 22.832378 12.017239 -6.723881
v -22.832140 12.017225 -6.723881
v -17.757732 15.483722 -6.532696
v 17.366892 15.483735 -6.532696
v 17.758047 15.483735 6.532473
v -17.757730 15.483722 6.532473
v -14.492304 32.848587 -5.731402
v 15.086869 32.973839 -5.725436
v 15.086869 32.973839 5.725186
v -15.086271 32.973835 5.725186
v -12.067593 39.759949 -5.455317
v 12.068259 39.759953 -5.455317
v 12.565891 38.641235 5.499590
v -12.067593 39.759949 5.455058
v 15.832427 19.540255 -6.375257
v -15.832063 19.540243 -6.375257
v -15.304973 19.540243 6.375030
v 15.832427 19.540255 6.375029
v -7.745959 31.426012 -5.799157
v 8.582665 31.602404 -5.790755
v 8.108397 22.999523 -6.200495
v -8.107927 22.999517 -6.200495
v -6.914347 35.415207 -5.662249
v 6.682248 35.219028 -5.671593
v 3.080078 38.103767 -5.581423
v -3.079377 37.630772 -5.581423
v 8.287745 31.540220 5.793468
v -7.745959 31.426012 5.798908
v -8.107927 22.999517 6.200258
v 8.108395 22.999523 6.200258
v 6.377399 34.962013 5.683582
v -6.376770 34.961975 5.683584
v -3.079376 37.630772 5.581169
v 3.080078 37.630772 5.581169
vt 0.283829 0.268121
vt 0.283816 0.268227
vt 0.283710 0.268152
vt 0.283728 0.268054
vt 0.282967 0.268133
vt 0.282864 0.268201
vt 0.282934 0.268098
vt 0.283037 0.268037
vt 0.283827 0.268471
vt 0.282855 0.268440
vt 0.282930 0.268315
vt 0.283840 0.268342
vt 0.283006 0.268051
vt 0.283064 0.267961
vt 0.283070 0.267705
vt 0.283017 0.267773
vt 0.283690 0.267976
vt 0.283659 0.268067
vt 0.283657 0.267786
vt 0.283664 0.267719
vt 0.283126 0.267573
vt 0.283068 0.267654
vt 0.283593 0.267640
vt 0.283615 0.267582
vt 0.283266 0.267471
vt 0.283227 0.267521
vt 0.283439 0.267537
vt 0.283470 0.267474
vt 0.283214 0.267900
vt 0.283200 0.267735
vt 0.283536 0.267907
vt 0.283528 0.267744
vt 0.283236 0.267665
vt 0.283511 0.267666
vt 0.283308 0.267609
vt 0.283433 0.267621
vt 0.283507 0.267992
vt 0.283500 0.267815
vt 0.283166 0.267984
vt 0.283160 0.267806
vt 0.283471 0.267740
vt 0.283200 0.267735
vt 0.283400 0.267682
vt 0.283269 0.267680
vn -0.564078 0.825722 0.000000
vn -0.564078 0.825722 0.000000
vn -0.564078 0.825722 0.000000
vn -0.564078 0.825722 0.000000
vn 0.000000 0.055070 0.998483
vn 0.000000 0.055070 0.998483
vn 0.000000 0.055070 0.998483
vn 0.000000 0.055070 0.998483
vn 0.564084 0.825718 0.000000
vn 0.564084 0.825718 0.000000
vn 0.564084 0.825718 0.000000
vn 0.564084 0.825718 0.000000
vn -0.000000 0.055069 -0.998483
vn -0.000000 0.055069 -0.998483
vn -0.000000 0.055069 -0.998483
vn -0.000000 0.055069 -0.998483
vn 0.000000 0.046293 0.998928
vn 0.000000 0.046293 0.998928
vn 0.000000 0.046293 0.998928
vn 0.000000 0.046293 0.998928
vn 0.998163 0.060579 0.000000
vn 0.998163 0.060579 0.000000
vn 0.998163 0.060579 0.000000
vn 0.998163 0.060579 0.000000
vn 0.000000 0.046291 -0.998928
vn 0.000000 0.046291 -0.998928
vn 0.000000 0.046291 -0.998928
vn 0.000000 0.046291 -0.998928
vn -0.998162 0.060597 0.000000
vn -0.998162 0.060597 0.000000
vn -0.998162 0.060597 0.000000
vn -0.998162 0.060597 0.000000
vn 0.998463 0.055414 0.000000
vn 0.998463 0.055414 0.000000
vn 0.998463 0.055414 0.000000
vn 0.998463 0.055414 0.000000
vn -0.998463 0.055432 0.000000
vn -0.998463 0.055432 0.000000
vn -0.998463 0.055432 0.000000
vn -0.998463 0.055432 0.000000
vn 0.913684 0.406426 0.000000
vn 0.913684 0.406426 0.000000
vn 0.913684 0.406426 0.000000
vn 0.913684 0.406426 0.000000
vn -0.913680 0.406434 0.000000
vn -0.913680 0.406434 0.000000
vn -0.913680 0.406434 0.000000
vn -0.913680 0.406434 0.000000
vn 0.597544 0.801836 0.000000
vn 0.597544 0.801836 0.000000
vn 0.597544 0.801836 0.000000
vn 0.597544 0.801836 0.000000
vn -0.597542 0.801838 0.000000
vn -0.597542 0.801838 0.000000
vn -0.597542 0.801838 0.000000
vn -0.597542 0.801838 0.000000
vn -0.000000 0.038782 -0.999248
vn -0.000000 0.038782 -0.999248
vn -0.000000 0.038782 -0.999248
vn -0.000000 0.038782 -0.999248
vn -0.903379 0.428843 0.000000
vn -0.903379 0.428843 0.000000
vn -0.903379 0.428843 0.000000
vn -0.903379 0.428843 0.000000
vn 0.000000 0.038783 0.999248
vn 0.000000 0.038783 0.999248
vn 0.000000 0.038783 0.999248
vn 0.000000 0.038783 0.999248
vn 0.903383 0.428834 0.000000
vn 0.903383 0.428834 0.000000
vn 0.903383 0.428834 0.000000
vn 0.903383 0.428834 0.000000
vn 0.000000 1.000000 0.000000
vn 0.000000 1.000000 0.000000
vn 0.000000 1.000000 0.000000
vn 0.000000 1.000000 0.000000
vn -0.000609 0.047999 -0.998847
vn -0.000609 0.047999 -0.998847
vn -0.000609 0.047999 -0.998847
vn -0.000609 0.047999 -0.998847
vn -0.000000 0.050455 -0.998726
vn -0.000000 0.050455 -0.998726
vn -0.000000 0.050455 -0.998726
vn -0.000000 0.050455 -0.998726
vn 0.000609 0.047999 -0.998847
vn 0.000609 0.047999 -0.998847
vn 0.000609 0.047999 -0.998847
vn 0.000609 0.047999 -0.998847
vn 0.004147 0.039075 -0.999228
vn 0.004147 0.039075 -0.999228
vn 0.004147 0.039075 -0.999228
vn 0.004147 0.039075 -0.999228
vn -0.004147 0.039075 -0.999228
vn -0.004147 0.039075 -0.999228
vn -0.004147 0.039075 -0.999228
vn -0.004147 0.039075 -0.999228
vn 0.000000 0.047574 -0.998868
vn 0.000000 0.047574 -0.998868
vn 0.000000 0.047574 -0.998868
vn 0.000000 0.047574 -0.998868
vn 0.003222 0.045563 -0.998956
vn 0.003222 0.045563 -0.998956
vn 0.003222 0.045563 -0.998956
vn 0.003222 0.045563 -0.998956
vn -0.003222 0.045563 -0.998956
vn -0.003222 0.045563 -0.998956
vn -0.003222 0.045563 -0.998956
vn -0.003222 0.045563 -0.998956
vn 0.000609 0.048001 0.998847
vn 0.000609 0.048001 0.998847
vn 0.000609 0.048001 0.998847
vn 0.000609 0.048001 0.998847
vn -0.000000 0.050458 0.998726
vn -0.000000 0.050458 0.998726
vn -0.000000 0.050458 0.998726
vn -0.000000 0.050458 0.998726
vn -0.000609 0.048001 0.998847
vn -0.000609 0.048001 0.998847
vn -0.000609 0.048001 0.998847
vn -0.000609 0.048001 0.998847
vn -0.004147 0.039077 0.999228
vn -0.004147 0.039077 0.999228
vn -0.004147 0.039077 0.999228
vn -0.004147 0.039077 0.999228
vn 0.004147 0.039076 0.999228
vn 0.004147 0.039076 0.999228
vn 0.004147 0.039076 0.999228
vn 0.004147 0.039076 0.999228
vn 0.000000 0.047576 0.998868
vn 0.000000 0.047576 0.998868
vn 0.000000 0.047576 0.998868
vn 0.000000 0.047576 0.998868
vn -0.003223 0.045564 0.998956
vn -0.003223 0.045564 0.998956
vn -0.003223 0.045564 0.998956
vn -0.003223 0.045564 0.998956
vn 0.003223 0.045564 0.998956
vn 0.003223 0.045564 0.998956
vn 0.003223 0.045564 0.998956
vn 0.003223 0.045564 0.998956
vn -0.999079 -0.042903 -0.000000
vn -0.999079 -0.042903 -0.000000
vn -0.999079 -0.042903 -0.000000
vn -0.999079 -0.042903 -0.000000
vn -0.000000 1.000000 -0.000000
vn -0.000000 1.000000 -0.000000
vn -0.000000 1.000000 -0.000000
vn -0.000000 1.000000 -0.000000
vn 0.999079 -0.042916 0.000000
vn 0.999079 -0.042916 0.000000
vn 0.999079 -0.042916 0.000000
vn 0.999079 -0.042916 0.000000
vn 0.932530 -0.361093 0.000000
vn 0.932530 -0.361093 0.000000
vn 0.932530 -0.361093 0.000000
vn 0.932530 -0.361093 0.000000
vn 0.629124 -0.777305 -0.000000
vn 0.629124 -0.777305 -0.000000
vn 0.629124 -0.777305 -0.000000
vn 0.629124 -0.777305 -0.000000
vn 0.000000 -1.000000 0.000000
vn 0.000000 -1.000000 0.000000
vn 0.000000 -1.000000 0.000000
vn 0.000000 -1.000000 0.000000
vn -0.629127 -0.777303 0.000000
vn -0.629127 -0.777303 0.000000
vn -0.629127 -0.777303 0.000000
vn -0.629127 -0.777303 0.000000
vn -0.932533 -0.361085 0.000000
vn -0.932533 -0.361085 0.000000
vn -0.932533 -0.361085 0.000000
vn -0.932533 -0.361085 0.000000
vn 0.000000 -1.000000 0.000000
vn 0.000000 -1.000000 0.000000
vn 0.000000 -1.000000 0.000000
vn 0.000000 -1.000000 0.000000
s off
f 12/1/1 9/2/2 16/3/3 13/4/4
f 15/5/5 16/3/6 9/2/7 10/6/8
f 10/6/9 11/7/10 14/8/11 15/5/12
f 13/4/13 14/8/14 11/7/15 12/1/16
f 10/6/17 9/2/18 1/9/19 2/10/20
f 2/10/21 4/11/22 11/7/23 10/6/24
f 12/1/25 11/7/26 4/11/27 3/12/28
f 3/12/29 1/9/30 9/2/31 12/1/32
f 28/13/33 25/14/34 18/15/35 19/16/36
f 26/17/37 27/18/38 20/19/39 17/20/40
f 19/16/41 18/15/42 22/21/43 23/22/44
f 17/20/45 20/19/46 24/23/47 21/24/48
f 23/22/49 22/21/50 8/25/51 7/26/52
f 21/24/53 24/23/54 6/27/55 5/28/56
f 26/17/57 25/14/58 14/8/59 13/4/60
f 13/4/61 16/3/62 27/18/63 26/17/64
f 28/13/65 27/18/66 16/3/67 15/5/68
f 15/5/69 14/8/70 25/14/71 28/13/72
f 7/26/73 8/25/74 5/28/75 6/27/76
f 18/15/77 25/14/78 31/29/79 30/30/80
f 25/14/81 26/17/82 32/31/83 31/29/84
f 26/17/85 17/20/86 29/32/87 32/31/88
f 22/21/89 18/15/90 30/30/91 34/33/92
f 17/20/93 21/24/94 33/34/95 29/32/96
f 5/28/97 8/25/98 35/35/99 36/36/100
f 8/25/101 22/21/102 34/33/103 35/35/104
f 21/24/105 5/28/106 36/36/107 33/34/108
f 20/19/109 27/18/110 39/37/111 38/38/112
f 27/18/113 28/13/114 40/39/115 39/37/116
f 28/13/117 19/16/118 37/40/119 40/39/120
f 24/23/121 20/19/122 38/38/123 42/41/124
f 19/16/125 23/22/126 41/42/127 37/40/128
f 7/26/129 6/27/130 43/43/131 44/44/132
f 6/27/133 24/23/134 42/41/135 43/43/136
f 23/22/137 7/26/138 44/44/139 41/42/140
f 30/30/141 31/29/142 40/39/143 37/40/144
f 31/29/145 32/31/146 39/37/147 40/39/148
f 32/31/149 29/32/150 38/38/151 39/37/152
f 29/32/153 33/34/154 42/41/155 38/38/156
f 33/34/157 36/36/158 43/43/159 42/41/160
f 36/36/161 35/35/162 44/44/163 43/43/164
f 35/35/165 34/33/166 41/42/167 44/44/168
f 34/33/169 30/30/170 37/40/171 41/42/172
f 1/9/173 3/12/174 4/11/175 2/10/176
