# This file uses centimeters as units for non-parametric coordinates.

v 0.000000 68.463501 -249.999023
v 0.000000 68.463501 0.000000
v 250.000000 68.463501 0.000000
v 250.000000 68.463501 -249.999023
v 0.000000 0.000000 -249.999023
v 0.000000 0.000000 0.000000
v 250.000000 0.000000 0.000000
v 250.000000 0.000000 -249.999023
v 0.000000 75.148468 -249.999023
v 0.000000 75.148468 0.000000
v 250.000000 75.148468 0.000000
v 250.000000 75.148468 -249.999023
v 250.000000 99.850311 -124.999512
v 250.000000 106.535278 -124.999512
v 0.000000 106.535278 -124.999512
v 0.000000 99.850311 -124.999512
v 0.000000 0.000000 -124.999512
v 250.000000 0.000000 -124.999512
vt 1.000001 0.229208
vt 1.000001 0.000000
vt 0.000000 0.000000
vt 0.000000 0.229208
vt 0.000000 0.229208
vt 1.000001 0.229208
vt 1.000001 0.000000
vt 0.000000 0.000000
vt 0.000000 0.000000
vt 1.000001 0.000000
vt 1.000001 0.229208
vt 0.000000 0.229208
vt 0.998601 0.001493
vt 0.001412 0.001493
vt 0.001412 0.998612
vt 0.998601 0.998612
vt 1.000001 0.229208
vt 0.000000 0.229208
vt 0.000000 0.000000
vt 1.000001 0.000000
vt 0.998584 1.038943
vt 0.001489 1.038943
vt 0.001412 0.998612
vt 0.998601 0.998612
vt 0.972431 0.998612
vt 0.998601 0.998612
vt 0.998601 0.001493
vt 0.972431 0.001493
vt 0.001412 0.998612
vt 0.028001 0.998612
vt 0.028001 0.001493
vt 0.001412 0.001493
vt 0.998601 0.001493
vt 0.998601 0.998612
vt 0.001412 0.998612
vt 0.001412 0.001493
vt 0.998584 -0.038886
vt 0.998601 0.001493
vt 0.001412 0.001493
vt 0.001489 -0.038886
vt 0.498202 0.384377
vt 0.972431 0.500052
vt 0.998601 0.500052
vt 0.998601 0.500052
vt 0.001412 0.500052
vt 0.001412 0.500052
vt 0.498202 0.384377
vt 0.028001 0.500052
vt 0.498202 0.000000
vt 0.001412 0.500052
vt 0.498202 0.000000
vt 0.998601 0.500052
vn -0.000000 0.000000 -1.000000
vn -0.000000 0.000000 -1.000000
vn -0.000000 0.000000 -1.000000
vn -0.000000 0.000000 -1.000000
vn 1.000000 0.000000 0.000000
vn 1.000000 0.000000 0.000000
vn 1.000000 -0.000000 -0.000000
vn 1.000000 -0.000000 -0.000000
vn -1.000000 0.000000 0.000000
vn -1.000000 0.000000 0.000000
vn -1.000000 0.000000 0.000000
vn -1.000000 0.000000 0.000000
vn -0.000000 -1.000000 0.000000
vn -0.000000 -1.000000 0.000000
vn 0.000000 -1.000000 0.000000
vn 0.000000 -1.000000 0.000000
vn 0.000000 0.000000 1.000000
vn 0.000000 0.000000 1.000000
vn 0.000000 0.000000 1.000000
vn 0.000000 0.000000 1.000000
vn -0.000000 0.000000 -1.000000
vn -0.000000 0.000000 -1.000000
vn -0.000000 0.000000 -1.000000
vn -0.000000 0.000000 -1.000000
vn 1.000000 0.000000 0.000000
vn 1.000000 0.000000 0.000000
vn 1.000000 -0.000000 -0.000000
vn 1.000000 -0.000000 -0.000000
vn -1.000000 0.000000 0.000000
vn -1.000000 0.000000 0.000000
vn -1.000000 0.000000 0.000000
vn -1.000000 0.000000 0.000000
vn 0.000000 1.000000 -0.000000
vn 0.000000 1.000000 0.000000
vn 0.000000 1.000000 0.000000
vn 0.000000 1.000000 -0.000000
vn 0.000000 0.000000 1.000000
vn 0.000000 0.000000 1.000000
vn 0.000000 0.000000 1.000000
vn 0.000000 0.000000 1.000000
vn 1.000000 -0.000000 -0.000000
vn 1.000000 -0.000000 -0.000000
vn 1.000000 0.000000 0.000000
vn 1.000000 0.000000 0.000000
vn 0.000000 1.000000 0.000000
vn 0.000000 1.000000 0.000000
vn 0.000000 1.000000 -0.000000
vn 0.000000 1.000000 -0.000000
vn -1.000000 0.000000 0.000000
vn -1.000000 0.000000 0.000000
vn -1.000000 0.000000 0.000000
vn -1.000000 0.000000 0.000000
vn -1.000000 0.000000 0.000000
vn -1.000000 0.000000 0.000000
vn -1.000000 0.000000 0.000000
vn -1.000000 0.000000 0.000000
vn 0.000000 -1.000000 0.000000
vn 0.000000 -1.000000 0.000000
vn -0.000000 -1.000000 0.000000
vn -0.000000 -1.000000 0.000000
vn 1.000000 -0.000000 -0.000000
vn 1.000000 0.000000 0.000000
vn 1.000000 0.000000 0.000000
vn 1.000000 -0.000000 -0.000000
s off
f 4/1/1 8/2/2 5/3/3 1/4/4
f 18/51/5 13/41/6 3/6/7 7/7/8
f 16/47/9 17/49/10 6/10/11 2/11/12
f 7/13/13 6/14/14 17/50/15 18/52/16
f 3/17/17 2/18/18 6/19/19 7/20/20
f 4/21/21 1/22/22 9/23/23 12/24/24
f 13/42/25 14/43/26 11/27/27 3/28/28
f 15/45/29 16/48/30 2/31/31 10/32/32
f 11/33/33 14/44/34 15/46/35 10/36/36
f 3/37/37 11/38/38 10/39/39 2/40/40
f 4/25/41 12/26/42 14/43/43 13/42/44
f 15/46/45 14/44/46 12/34/47 9/35/48
f 9/29/49 1/30/50 16/48/51 15/45/52
f 5/9/53 17/49/54 16/47/55 1/12/56
f 18/52/57 17/50/58 5/15/59 8/16/60
f 4/5/61 13/41/62 18/51/63 8/8/64
