# This file uses centimeters as units for non-parametric coordinates.

v 0.000000 0.000000 -499.999573
v 0.000000 0.000000 -749.999146
v 0.000000 194.010864 -749.999146
v 0.000000 131.237183 -499.999573
v -11.250000 0.000000 -499.999573
v -11.250000 0.000000 -749.999146
v -11.250000 194.010864 -749.999146
v -11.250000 131.237183 -499.999573
v 11.250000 0.000000 -499.999573
v 11.250000 0.000000 -749.999146
v 11.250000 194.010864 -749.999146
v 11.250000 131.237183 -499.999573
v 0.000000 0.000000 -249.999573
v 0.000000 68.463501 -249.999573
v -11.250000 0.000000 -249.999573
v -11.250000 68.463501 -249.999573
v 11.250000 0.000000 -249.999573
v 11.250000 68.463501 -249.999573
v 0.000000 0.000000 0.000000
v 0.000000 5.689819 0.000000
v -11.250000 0.000000 -0.000000
v -11.250000 5.689819 -0.000000
v 11.250000 0.000000 0.000000
v 11.250000 5.689819 0.000000
vt 0.001423 0.963778
vt 0.001423 0.001434
vt 0.001423 0.524870
vt 0.998542 0.775243
vt 1.038921 0.775243
vt 0.998542 0.028023
vt 0.998542 0.001432
vt 0.998542 1.007298
vt 0.998542 0.963778
vt 0.001423 1.007298
vt 0.001423 0.028023
vt 0.998542 0.001434
vt 0.001423 0.001432
vt 1.038921 0.001356
vt 0.998542 0.001432
vt 0.998542 0.775243
vt 0.001423 1.007298
vt 0.001423 0.963778
vt 0.998542 0.963778
vt 0.998542 1.007298
vt 0.001423 0.001434
vt 0.001423 0.028023
vt 0.998542 0.028023
vt 0.998542 0.001434
vt 0.998542 0.775243
vt 0.001423 0.524871
vt 0.001423 0.001434
vt 0.998542 0.001434
vt 1.038921 0.775243
vt 0.998542 0.775243
vt 0.998542 0.001434
vt 1.038921 0.001511
vt 0.001423 0.963778
vt 0.998542 0.963778
vt 0.998542 1.007297
vt 0.001423 1.007297
vt 0.001423 0.001434
vt 0.998542 0.001434
vt 0.998542 0.028023
vt 0.001423 0.028023
vt 0.998542 0.524869
vt 0.998542 0.001432
vt 0.001423 0.001432
vt 0.001423 0.274497
vt 0.001423 1.007297
vt 0.001423 0.963778
vt 0.998542 0.963778
vt 0.998542 1.007297
vt 0.001423 0.001434
vt 0.001423 0.028023
vt 0.998542 0.028023
vt 0.998542 0.001434
vt 0.998542 0.524870
vt 0.001423 0.274499
vt 0.001423 0.001434
vt 0.998542 0.001434
vt -0.038908 0.021749
vt 0.001423 0.021835
vt 0.001423 0.001432
vt -0.038908 0.001356
vt 0.001423 0.963778
vt 0.998542 0.963778
vt 0.998542 1.007298
vt 0.001423 1.007298
vt 0.001423 0.001434
vt 0.998542 0.001434
vt 0.998542 0.028023
vt 0.001423 0.028023
vt 0.998542 0.274498
vt 0.998542 0.001432
vt 0.001423 0.001432
vt 0.001423 0.024126
vt -0.038908 0.021913
vt -0.038908 0.001511
vt 0.001423 0.001434
vt 0.001423 0.021827
vt 0.001423 1.007298
vt 0.001423 0.963778
vt 0.998542 0.963778
vt 0.998542 1.007298
vt 0.001423 0.001434
vt 0.001423 0.028023
vt 0.998542 0.028023
vt 0.998542 0.001434
vt 0.998542 0.274499
vt 0.001423 0.024128
vt 0.001423 0.001434
vt 0.998542 0.001434
vn 0.000000 1.000000 0.000000
vn 0.000000 1.000000 0.000000
vn 0.000000 1.000000 0.000000
vn 0.000000 1.000000 0.000000
vn 0.000000 -1.000000 0.000000
vn 0.000000 -1.000000 0.000000
vn 0.000000 -1.000000 0.000000
vn 0.000000 -1.000000 0.000000
vn -1.000000 0.000000 -0.000000
vn -1.000000 0.000000 -0.000000
vn -1.000000 0.000000 -0.000000
vn -1.000000 0.000000 -0.000000
vn 0.000000 0.000000 -1.000000
vn 0.000000 0.000000 -1.000000
vn 0.000000 0.000000 -1.000000
vn 0.000000 0.000000 -1.000000
vn 0.000000 1.000000 0.000000
vn 0.000000 1.000000 0.000000
vn 0.000000 1.000000 0.000000
vn 0.000000 1.000000 0.000000
vn 0.000000 -1.000000 0.000000
vn 0.000000 -1.000000 0.000000
vn 0.000000 -1.000000 0.000000
vn 0.000000 -1.000000 0.000000
vn 1.000000 0.000000 0.000000
vn 1.000000 0.000000 0.000000
vn 1.000000 0.000000 0.000000
vn 1.000000 0.000000 0.000000
vn 0.000000 0.000000 -1.000000
vn 0.000000 0.000000 -1.000000
vn 0.000000 0.000000 -1.000000
vn 0.000000 0.000000 -1.000000
vn 0.000000 1.000000 0.000000
vn 0.000000 1.000000 0.000000
vn 0.000000 1.000000 0.000000
vn 0.000000 1.000000 0.000000
vn 0.000000 -1.000000 0.000000
vn 0.000000 -1.000000 0.000000
vn 0.000000 -1.000000 0.000000
vn 0.000000 -1.000000 0.000000
vn -1.000000 0.000000 -0.000000
vn -1.000000 0.000000 -0.000000
vn -1.000000 0.000000 -0.000000
vn -1.000000 0.000000 -0.000000
vn 0.000000 1.000000 0.000000
vn 0.000000 1.000000 0.000000
vn 0.000000 1.000000 0.000000
vn 0.000000 1.000000 0.000000
vn 0.000000 -1.000000 0.000000
vn 0.000000 -1.000000 0.000000
vn 0.000000 -1.000000 0.000000
vn 0.000000 -1.000000 0.000000
vn 1.000000 0.000000 0.000000
vn 1.000000 0.000000 0.000000
vn 1.000000 0.000000 0.000000
vn 1.000000 0.000000 0.000000
vn -0.000000 0.000000 1.000000
vn -0.000000 0.000000 1.000000
vn -0.000000 0.000000 1.000000
vn -0.000000 0.000000 1.000000
vn 0.000000 1.000000 0.000000
vn 0.000000 1.000000 0.000000
vn 0.000000 1.000000 0.000000
vn 0.000000 1.000000 0.000000
vn 0.000000 -1.000000 0.000000
vn 0.000000 -1.000000 0.000000
vn 0.000000 -1.000000 0.000000
vn 0.000000 -1.000000 0.000000
vn -1.000000 0.000000 -0.000000
vn -1.000000 0.000000 -0.000000
vn -1.000000 0.000000 -0.000000
vn -1.000000 0.000000 -0.000000
vn -0.000000 0.000000 1.000000
vn -0.000000 0.000000 1.000000
vn -0.000000 0.000000 1.000000
vn -0.000000 0.000000 1.000000
vn 0.000000 1.000000 0.000000
vn 0.000000 1.000000 0.000000
vn 0.000000 1.000000 0.000000
vn 0.000000 1.000000 0.000000
vn 0.000000 -1.000000 0.000000
vn 0.000000 -1.000000 0.000000
vn 0.000000 -1.000000 0.000000
vn 0.000000 -1.000000 0.000000
vn 1.000000 0.000000 0.000000
vn 1.000000 0.000000 0.000000
vn 1.000000 0.000000 0.000000
vn 1.000000 0.000000 0.000000
s off
f 4/1/1 3/9/2 7/8/3 8/10/4
f 5/2/5 6/12/6 2/6/7 1/11/8
f 7/4/9 6/15/10 5/13/11 8/3/12
f 3/5/13 2/14/14 6/7/15 7/16/16
f 4/17/17 12/18/18 11/19/19 3/20/20
f 9/21/21 1/22/22 2/23/23 10/24/24
f 11/25/25 12/26/26 9/27/27 10/28/28
f 3/29/29 11/30/30 10/31/31 2/32/32
f 14/33/33 4/34/34 8/35/35 16/36/36
f 15/37/37 5/38/38 1/39/39 13/40/40
f 8/41/41 5/42/42 15/43/43 16/44/44
f 14/45/45 18/46/46 12/47/47 4/48/48
f 17/49/49 13/50/50 1/51/51 9/52/52
f 12/53/53 18/54/54 17/55/55 9/56/56
f 20/57/57 22/58/58 21/59/59 19/60/60
f 20/61/61 14/62/62 16/63/63 22/64/64
f 21/65/65 15/66/66 13/67/67 19/68/68
f 16/69/69 15/70/70 21/71/71 22/72/72
f 20/73/73 19/74/74 23/75/75 24/76/76
f 20/77/77 24/78/78 18/79/79 14/80/80
f 23/81/81 19/82/82 13/83/83 17/84/84
f 18/85/85 24/86/86 23/87/87 17/88/88
