# This file uses centimeters as units for non-parametric coordinates.

v -11.250000 -0.143616 0.000000
v -11.250000 149.928101 0.000000
v -7.877197 -0.143616 7.877210
v -7.877197 149.928101 7.877210
v 0.000000 150.287140 0.000000
v 0.000000 149.856293 11.250000
v 0.000000 -0.287231 11.250000
v 0.000000 0.000000 0.000000
vt -0.038908 0.500058
vt -0.038908 0.001511
vt 0.001423 0.001434
vt 0.001423 0.500034
vt 7.677008 -4.125878
vt 7.677056 -4.099741
vt 7.720079 -4.102149
vt 7.727424 -4.133196
vt 0.040822 0.001434
vt 0.040822 0.500028
vt 0.001423 0.500058
vt 0.001423 0.001434
vt 0.001423 0.001434
vt 0.001423 0.028023
vt 0.040822 0.028023
vt 0.040822 0.001434
vt 0.147471 0.500000
vt 0.059813 0.499910
vt 0.059813 0.000000
vt 0.147471 0.000000
vt 0.147471 0.500000
vt 0.059813 0.500060
vt 0.059813 0.000000
vt 0.147471 0.000000
vn -0.919278 0.000000 0.393609
vn -0.919278 0.000000 0.393609
vn -0.919278 0.000000 0.393609
vn -0.919278 0.000000 0.393609
vn -0.019588 0.999471 0.025968
vn -0.019588 0.999471 0.025968
vn -0.019588 0.999471 0.025968
vn -0.019588 0.999471 0.025968
vn -0.393609 0.000000 0.919278
vn -0.393609 0.000000 0.919278
vn -0.393609 0.000000 0.919278
vn -0.393609 0.000000 0.919278
vn 0.002733 -0.999876 -0.015497
vn 0.002733 -0.999876 -0.015497
vn 0.002733 -0.999876 -0.015497
vn 0.002733 -0.999876 -0.015497
vn 0.000000 0.000000 -1.000000
vn 0.000000 0.000000 -1.000000
vn 0.000000 0.000000 -1.000000
vn 0.000000 0.000000 -1.000000
vn 1.000000 0.000000 0.000000
vn 1.000000 0.000000 0.000000
vn 1.000000 0.000000 0.000000
vn 1.000000 0.000000 0.000000
s off
f 2/1/1 1/2/2 3/3/3 4/4/4
f 2/5/5 4/6/6 6/7/7 5/8/8
f 7/9/9 6/10/10 4/11/11 3/12/12
f 3/13/13 1/14/14 8/15/15 7/16/16
f 2/17/17 5/18/18 8/19/19 1/20/20
f 5/21/21 6/22/22 7/23/23 8/24/24
