# This file uses centimeters as units for non-parametric coordinates.

v 0.000000 -0.000008 18.822109
v 249.999146 -0.000008 18.822109
v 249.999146 9.205444 18.822109
v 0.000000 9.205444 18.822109
v 0.000000 -0.000008 11.250026
v 249.999146 -0.073463 11.250026
v 249.999146 9.205444 11.250026
v 0.000000 9.212433 11.250026
v 66.083496 7.971565 16.033674
v 66.083496 1.219978 16.033674
v 66.083496 1.209167 11.250026
v 66.083496 7.975662 11.250026
v 64.488647 9.205444 18.822109
v 64.488647 -0.000008 18.822109
v 64.488647 -0.013969 11.250026
v 64.488647 9.211098 11.250026
v 67.894531 0.386581 18.822109
v 67.894531 8.818855 18.822109
v 67.894531 9.210953 11.250026
v 67.894531 -0.015610 11.250025
v 128.237061 0.386581 18.822109
v 128.237061 8.818863 18.822109
v 128.237061 9.209305 11.250026
v 128.237061 -0.032867 11.250026
v 129.685913 1.219978 16.033674
v 129.685913 7.971573 16.033674
v 129.685913 7.974350 11.250026
v 129.685913 1.195374 11.250026
v 131.376831 -0.624008 18.822109
v 131.376953 9.146667 18.822109
v 131.376831 9.150604 11.250026
v 131.376953 -0.660431 11.250026
v 204.018555 -0.254478 18.822109
v 204.018555 9.462906 18.822109
v 204.018555 9.464508 11.250026
v 204.018555 -0.315041 11.250026
v 205.592773 1.219978 16.033674
v 205.592651 7.971573 16.033674
v 205.592773 7.972656 11.250026
v 205.592651 1.177620 11.250026
v 207.180664 -0.000008 18.822109
v 207.180420 9.205452 18.822109
v 207.180664 9.206902 11.250026
v 207.180420 -0.058113 11.250026
vt 0.284277 0.267140
vt 0.284270 0.267170
vt 0.284280 0.267176
vt 0.284287 0.267145
vt 0.284143 0.267142
vt 0.284138 0.267137
vt 0.283957 0.226167
vt 0.283940 0.226162
vt 0.283946 0.226166
vt 0.283957 0.226169
vt 0.284134 0.267167
vt 0.284139 0.267172
vt 0.283668 0.267154
vt 0.283663 0.267126
vt 0.283652 0.267130
vt 0.283657 0.267159
vt 0.284153 0.267142
vt 0.284148 0.267173
vt 0.284143 0.267167
vt 0.284147 0.267137
vt 0.283983 0.267168
vt 0.283984 0.267138
vt 0.283984 0.267133
vt 0.283983 0.267163
vt 0.283954 0.226193
vt 0.283943 0.226189
vt 0.283937 0.226194
vt 0.283953 0.226200
vt 0.283975 0.267168
vt 0.283976 0.267138
vt 0.283976 0.267133
vt 0.283975 0.267162
vt 0.283784 0.267162
vt 0.283781 0.267133
vt 0.283787 0.267129
vt 0.283790 0.267157
vt 0.283970 0.226166
vt 0.283966 0.226199
vt 0.283949 0.226193
vt 0.283952 0.226161
vt 0.283776 0.267162
vt 0.283773 0.267133
vt 0.283780 0.267129
vt 0.283783 0.267157
vt 0.283710 0.226215
vt 0.283711 0.226190
vt 0.283722 0.226187
vt 0.283721 0.226221
vt 0.283702 0.226186
vt 0.283708 0.226181
vt 0.283702 0.226211
vt 0.283707 0.226215
vt 0.283709 0.226223
vt 0.283709 0.226188
vt 0.283696 0.226182
vt 0.283695 0.226216
vt 0.283350 0.226247
vt 0.283348 0.226220
vt 0.283358 0.226217
vt 0.283361 0.226254
vt 0.283343 0.226215
vt 0.283350 0.226210
vt 0.283345 0.226242
vt 0.283353 0.226246
vt 0.283346 0.226255
vt 0.283342 0.226218
vt 0.283335 0.226211
vt 0.283338 0.226248
vn -1.000000 0.000000 0.000000
vn -1.000000 0.000000 0.000000
vn -1.000000 0.000000 0.000000
vn -1.000000 0.000000 0.000000
vn -0.005952 0.998660 0.051408
vn -0.014040 0.998593 0.051140
vn 0.043931 0.998883 0.017400
vn 0.043356 0.998908 0.017414
vn 0.043087 -0.998896 0.018704
vn 0.043624 -0.998873 0.018691
vn -0.014052 -0.998459 0.053683
vn -0.006040 -0.998524 0.053968
vn -0.034298 0.000000 0.999412
vn -0.034198 0.000000 0.999415
vn 0.091599 0.000000 0.995796
vn 0.091769 0.000000 0.995780
vn 1.000000 0.000000 0.000000
vn 1.000000 0.000000 0.000000
vn 1.000000 0.000000 0.000000
vn 1.000000 0.000000 0.000000
vn 0.000000 0.000000 -1.000000
vn 0.000000 0.000000 -1.000000
vn -0.000000 0.000000 -1.000000
vn -0.000000 0.000000 -1.000000
vn 0.091769 0.000000 0.995780
vn 0.091599 0.000000 0.995796
vn 0.028251 0.000000 0.999601
vn 0.028338 0.000000 0.999598
vn 0.006009 -0.999982 0.000931
vn 0.015065 -0.999886 0.000943
vn 0.043624 -0.998873 0.018691
vn 0.043087 -0.998896 0.018704
vn -0.000000 0.000000 -1.000000
vn -0.000000 0.000000 -1.000000
vn -0.000000 0.000000 -1.000000
vn -0.000000 0.000000 -1.000000
vn 0.043356 0.998908 0.017414
vn 0.043931 0.998883 0.017400
vn 0.015329 0.999882 0.000834
vn 0.006196 0.999981 0.000834
vn 0.028338 0.000000 0.999598
vn 0.028251 0.000000 0.999601
vn 0.000000 0.000000 1.000000
vn 0.000000 0.000000 1.000000
vn -0.000108 -1.000000 0.000922
vn -0.000108 -1.000000 0.000922
vn 0.015065 -0.999886 0.000943
vn 0.006009 -0.999982 0.000931
vn -0.000000 0.000000 -1.000000
vn -0.000000 0.000000 -1.000000
vn -0.000000 0.000000 -1.000000
vn -0.000000 0.000000 -1.000000
vn 0.006196 0.999981 0.000834
vn 0.015329 0.999882 0.000834
vn 0.000010 1.000000 0.000835
vn 0.000010 1.000000 0.000835
vn 0.034103 0.000000 0.999418
vn 0.033997 0.000000 0.999422
vn -0.034198 0.000000 0.999415
vn -0.034298 0.000000 0.999412
vn 0.005289 0.998661 0.051464
vn 0.014088 0.998588 0.051227
vn -0.014040 0.998593 0.051140
vn -0.005952 0.998660 0.051408
vn 0.000000 0.000000 -1.000000
vn 0.000000 0.000000 -1.000000
vn 0.000000 0.000000 -1.000000
vn 0.000000 0.000000 -1.000000
vn -0.006040 -0.998524 0.053968
vn -0.014052 -0.998459 0.053683
vn 0.013852 -0.998454 0.053827
vn 0.005111 -0.998525 0.054046
vn -0.185470 0.000008 0.982650
vn -0.112647 0.000007 0.993635
vn 0.033997 0.000000 0.999422
vn 0.034103 0.000000 0.999418
vn -0.015672 0.999761 0.015266
vn -0.028937 0.999469 0.014974
vn 0.014088 0.998588 0.051227
vn 0.005289 0.998661 0.051464
vn -0.000000 0.000000 -1.000000
vn -0.000000 0.000000 -1.000000
vn 0.000000 0.000000 -1.000000
vn 0.000000 0.000000 -1.000000
vn 0.005111 -0.998525 0.054046
vn 0.013852 -0.998454 0.053827
vn -0.239969 -0.970601 0.018670
vn -0.207111 -0.978125 0.019399
vn -0.021660 0.000000 0.999765
vn -0.024918 0.000000 0.999690
vn -0.112647 0.000007 0.993635
vn -0.185470 0.000008 0.982650
vn -0.009616 0.999954 0.000367
vn -0.017219 0.999852 0.000369
vn -0.028937 0.999469 0.014974
vn -0.015672 0.999761 0.015266
vn 0.000000 0.000000 -1.000000
vn 0.000000 0.000000 -1.000000
vn -0.000000 0.000000 -1.000000
vn -0.000000 0.000000 -1.000000
vn -0.207111 -0.978125 0.019399
vn -0.239969 -0.970601 0.018670
vn -0.015589 -0.999858 0.006376
vn -0.004792 -0.999968 0.006391
vn 0.023139 0.000000 0.999732
vn 0.023189 0.000000 0.999731
vn -0.024918 0.000000 0.999690
vn -0.021660 0.000000 0.999765
vn 0.002695 0.999996 0.000365
vn 0.012201 0.999925 0.000363
vn -0.017219 0.999852 0.000369
vn -0.009616 0.999954 0.000367
vn -0.000000 0.000000 -1.000000
vn -0.000000 0.000000 -1.000000
vn 0.000000 0.000000 -1.000000
vn 0.000000 0.000000 -1.000000
vn -0.004792 -0.999968 0.006391
vn -0.015589 -0.999858 0.006376
vn 0.021274 -0.999753 0.006436
vn 0.011928 -0.999908 0.006418
vn 0.058290 -0.000014 0.998300
vn 0.058493 -0.000014 0.998288
vn 0.023189 0.000000 0.999731
vn 0.023139 0.000000 0.999732
vn 0.074996 0.997184 0.000203
vn 0.081175 0.996700 0.000204
vn 0.012201 0.999925 0.000363
vn 0.002695 0.999996 0.000365
vn -0.000000 0.000000 -1.000000
vn -0.000000 0.000000 -1.000000
vn -0.000000 0.000000 -1.000000
vn -0.000000 0.000000 -1.000000
vn 0.011928 -0.999908 0.006418
vn 0.021274 -0.999753 0.006436
vn 0.080877 -0.996690 0.008210
vn 0.074456 -0.997191 0.008213
vn -0.042302 -0.000001 0.999105
vn -0.042176 -0.000001 0.999110
vn 0.058493 -0.000014 0.998288
vn 0.058290 -0.000014 0.998300
vn -0.009228 0.999958 0.000097
vn -0.022804 0.999740 0.000098
vn 0.081175 0.996700 0.000204
vn 0.074996 0.997184 0.000203
vn 0.000000 0.000000 -1.000000
vn 0.000000 0.000000 -1.000000
vn -0.000000 0.000000 -1.000000
vn -0.000000 0.000000 -1.000000
vn 0.074456 -0.997191 0.008213
vn 0.080877 -0.996690 0.008210
vn -0.023020 -0.999698 0.008669
vn -0.009495 -0.999917 0.008680
vn 0.000000 0.000000 1.000000
vn -0.042176 -0.000001 0.999110
vn -0.042302 -0.000001 0.999105
vn 0.000000 0.000000 1.000000
vn 0.000017 1.000000 0.000096
vn -0.022804 0.999740 0.000098
vn -0.009228 0.999958 0.000097
vn 0.000017 1.000000 0.000096
vn 0.000000 0.000000 -1.000000
vn 0.000000 0.000000 -1.000000
vn 0.000000 0.000000 -1.000000
vn 0.000000 0.000000 -1.000000
vn -0.009495 -0.999917 0.008680
vn -0.023020 -0.999698 0.008669
vn -0.000179 -0.999962 0.008687
vn -0.000179 -0.999962 0.008687
s off
f 8/1/1 5/2/2 1/3/3 4/4/4
f 18/7/5 19/8/6 12/9/7 9/10/8
f 10/25/9 11/26/10 20/27/11 17/28/12
f 17/28/13 18/7/14 9/10/15 10/25/16
f 6/13/17 7/14/18 3/15/19 2/16/20
f 19/8/21 20/27/22 11/26/23 12/9/24
f 10/25/25 9/10/26 13/37/27 14/38/28
f 14/38/29 15/39/30 11/26/31 10/25/32
f 12/9/33 11/26/34 15/39/35 16/40/36
f 9/10/37 12/9/38 16/40/39 13/37/40
f 14/18/41 13/17/42 4/4/43 1/3/44
f 1/3/45 5/2/46 15/19/47 14/18/48
f 16/20/49 15/19/50 5/2/51 8/1/52
f 13/17/53 16/20/54 8/1/55 4/4/56
f 21/21/57 22/22/58 18/5/59 17/12/60
f 22/22/61 23/23/62 19/6/63 18/5/64
f 23/23/65 24/24/66 20/11/67 19/6/68
f 17/12/69 20/11/70 24/24/71 21/21/72
f 25/45/73 26/46/74 22/47/75 21/48/76
f 26/46/77 27/49/78 23/50/79 22/47/80
f 27/49/81 28/51/82 24/52/83 23/50/84
f 21/48/85 24/52/86 28/51/87 25/45/88
f 29/53/89 30/54/90 26/46/91 25/45/92
f 30/54/93 31/55/94 27/49/95 26/46/96
f 31/55/97 32/56/98 28/51/99 27/49/100
f 25/45/101 28/51/102 32/56/103 29/53/104
f 33/33/105 34/34/106 30/30/107 29/29/108
f 34/34/109 35/35/110 31/31/111 30/30/112
f 35/35/113 36/36/114 32/32/115 31/31/116
f 29/29/117 32/32/118 36/36/119 33/33/120
f 37/57/121 38/58/122 34/59/123 33/60/124
f 38/58/125 39/61/126 35/62/127 34/59/128
f 39/61/129 40/63/130 36/64/131 35/62/132
f 33/60/133 36/64/134 40/63/135 37/57/136
f 41/65/137 42/66/138 38/58/139 37/57/140
f 42/66/141 43/67/142 39/61/143 38/58/144
f 43/67/145 44/68/146 40/63/147 39/61/148
f 37/57/149 40/63/150 44/68/151 41/65/152
f 3/15/153 42/42/154 41/41/155 2/16/156
f 7/14/157 43/43/158 42/42/159 3/15/160
f 6/13/161 44/44/162 43/43/163 7/14/164
f 41/41/165 44/44/166 6/13/167 2/16/168
