# This file uses centimeters as units for non-parametric coordinates.

v -29.189453 -29.189453 -3.986462
v 29.189453 -29.189453 -3.986462
v -27.563278 -27.208838 7.298894
v 26.683201 -27.253935 7.298894
v -27.680763 27.110683 7.298893
v 27.433853 26.344963 7.298894
v -29.189453 29.189480 -3.986462
v 29.189453 29.189480 -3.986462
v -23.238323 -22.363813 7.298894
v 23.153641 -23.218023 7.298894
v 22.505836 22.975693 7.298894
v -22.939806 23.050598 7.298894
v -19.597197 -19.597191 3.512416
v 19.597197 -19.597191 3.512416
v 19.597197 19.597218 3.512417
v -19.597197 19.597218 3.512417
v 0.000000 19.597218 3.512417
v -0.070160 22.976992 7.298893
v -0.353348 26.958721 7.298893
v 0.000000 29.189480 -3.986462
v 0.000000 -29.189453 -3.986462
v 0.078917 -26.397230 7.298894
v 0.352603 -22.795248 7.298894
v 0.000000 -19.597191 3.512416
v 0.000000 0.000013 3.512416
v -19.597197 0.000013 3.512416
v -22.219658 -6.657373 7.298894
v -26.360500 -0.094603 7.298893
v -29.189453 0.000014 -3.986462
v 0.000000 0.000014 -3.986462
v 29.189453 0.000014 -3.986462
v 26.986767 5.786252 7.298894
v 22.740967 5.726017 7.298894
v 19.597197 0.000013 3.512416
vt 0.250307 0.270217
vt 0.249521 0.270202
vt 0.249476 0.269431
vt 0.250273 0.269444
vt 0.249686 0.269240
vt 0.250445 0.269252
vt 0.249727 0.269976
vt 0.250476 0.269991
vt 0.250273 0.269444
vt 0.249476 0.269431
vt 0.249686 0.269240
vt 0.250445 0.269252
vt 0.250273 0.269444
vt 0.249476 0.269431
vt 0.249686 0.269240
vt 0.250445 0.269252
vt 0.250065 0.269246
vt 0.250065 0.269246
vt 0.250065 0.269246
vt 0.250101 0.269983
vt 0.249914 0.270210
vt 0.249874 0.269438
vt 0.249874 0.269438
vt 0.249874 0.269438
vt 0.227347 0.623422
vt 0.250359 0.269348
vt 0.250359 0.269348
vt 0.250359 0.269348
vt 0.250391 0.270104
vt 0.250008 0.270096
vt 0.249624 0.270089
vt 0.249581 0.269335
vt 0.249581 0.269335
vt 0.249581 0.269335
vt 0.227347 0.684021
vt 0.197048 0.653721
vt 0.227347 0.623422
vt 0.257646 0.653721
vt 0.197048 0.653721
vt 0.227347 0.623422
vt 0.257646 0.653721
vt 0.227347 0.684021
vt 0.197048 0.653721
vt 0.227347 0.623422
vt 0.257646 0.653721
vt 0.227347 0.684021
vt 0.197048 0.653721
vt 0.257646 0.653721
vt 0.227347 0.684021
vn 0.013974 -0.978483 0.205856
vn -0.000329 -0.978827 0.204687
vn -0.000452 -0.978829 0.204677
vn 0.013974 -0.978483 0.205856
vn 0.000000 -0.000000 1.000000
vn 0.000000 -0.000000 1.000000
vn 0.000000 -0.000000 1.000000
vn 0.000000 -0.000000 1.000000
vn 0.002641 0.982277 0.187417
vn 0.006535 0.979007 0.203723
vn 0.006682 0.978878 0.204338
vn 0.002641 0.982277 0.187417
vn 0.000000 0.000000 -1.000000
vn 0.000000 0.000000 -1.000000
vn 0.000000 0.000000 -1.000000
vn 0.000000 0.000000 -1.000000
vn 0.978583 -0.004774 0.205796
vn 0.980546 -0.006002 0.196199
vn 0.982360 -0.007194 0.186861
vn 0.978583 -0.004774 0.205796
vn -0.981926 -0.001137 0.189262
vn -0.981187 0.020960 0.191920
vn -0.981187 0.020960 0.191920
vn -0.981921 -0.000902 0.189291
vn 0.000000 0.000000 1.000000
vn 0.000000 0.000000 1.000000
vn 0.000000 0.000000 1.000000
vn 0.000000 0.000000 1.000000
vn -0.000000 -0.000000 1.000000
vn -0.000000 -0.000000 1.000000
vn -0.000000 -0.000000 1.000000
vn -0.000000 -0.000000 1.000000
vn 0.000000 0.000000 1.000000
vn 0.000000 0.000000 1.000000
vn 0.000000 0.000000 1.000000
vn 0.000000 0.000000 1.000000
vn -0.000000 -0.000000 1.000000
vn 0.000000 0.000000 1.000000
vn 0.000000 0.000000 1.000000
vn 0.000000 0.000000 1.000000
vn 0.007831 0.783908 0.620828
vn 0.007620 0.763470 0.645799
vn 0.007639 0.765376 0.643538
vn 0.007831 0.783908 0.620828
vn -0.748051 -0.006360 0.663610
vn -0.769682 -0.005370 0.638405
vn -0.753472 -0.006116 0.657452
vn -0.748051 -0.006360 0.663610
vn -0.000665 -0.744389 0.667746
vn -0.001287 -0.742729 0.669591
vn -0.001287 -0.742729 0.669591
vn -0.000653 -0.744420 0.667711
vn 0.783893 -0.014043 0.620737
vn 0.784026 -0.022622 0.620315
vn 0.784026 -0.022622 0.620315
vn 0.783341 0.006473 0.621558
vn -0.000023 -0.746096 0.665838
vn -0.000665 -0.744389 0.667746
vn -0.000653 -0.744420 0.667711
vn -0.000023 -0.746096 0.665838
vn -0.000000 0.000000 1.000000
vn 0.000000 0.000000 1.000000
vn 0.000000 0.000000 1.000000
vn -0.000000 0.000000 1.000000
vn 0.006682 0.978878 0.204338
vn 0.006535 0.979007 0.203723
vn 0.010507 0.975374 0.220306
vn 0.010507 0.975374 0.220306
vn 0.000000 0.000000 -1.000000
vn 0.000000 0.000000 -1.000000
vn 0.000000 0.000000 -1.000000
vn 0.000000 0.000000 -1.000000
vn -0.000452 -0.978829 0.204677
vn -0.000329 -0.978827 0.204687
vn -0.015032 -0.978972 0.203442
vn -0.015032 -0.978972 0.203442
vn 0.000000 0.000000 1.000000
vn 0.000000 0.000000 1.000000
vn 0.000000 0.000000 1.000000
vn 0.000000 0.000000 1.000000
vn 0.007639 0.765376 0.643538
vn 0.007620 0.763470 0.645799
vn 0.007429 0.745020 0.667001
vn 0.007429 0.745020 0.667001
vn 0.000000 -0.000000 1.000000
vn 0.000000 -0.000000 1.000000
vn 0.000000 -0.000000 1.000000
vn 0.000000 -0.000000 1.000000
vn 0.000000 -0.000000 1.000000
vn 0.000000 -0.000000 1.000000
vn 0.000000 -0.000000 1.000000
vn 0.000000 -0.000000 1.000000
vn 0.783158 0.011439 0.621718
vn 0.783893 -0.014043 0.620737
vn 0.783341 0.006473 0.621558
vn 0.783158 0.011439 0.621718
vn -0.000000 -0.000000 1.000000
vn -0.000000 -0.000000 1.000000
vn 0.000000 0.000000 1.000000
vn -0.000000 -0.000000 1.000000
vn -0.982178 -0.022994 0.186541
vn -0.981926 -0.001137 0.189262
vn -0.981921 -0.000902 0.189291
vn -0.982178 -0.022994 0.186541
vn 0.000000 0.000000 -1.000000
vn 0.000000 0.000000 -1.000000
vn 0.000000 0.000000 -1.000000
vn 0.000000 0.000000 -1.000000
vn 0.000000 0.000000 -1.000000
vn 0.000000 0.000000 -1.000000
vn 0.000000 0.000000 -1.000000
vn 0.000000 0.000000 -1.000000
vn 0.982360 -0.007194 0.186861
vn 0.980546 -0.006002 0.196199
vn 0.984733 -0.008850 0.173849
vn 0.984733 -0.008850 0.173849
vn -0.000000 -0.000000 1.000000
vn -0.000000 -0.000000 1.000000
vn 0.000000 0.000000 1.000000
vn 0.000000 0.000000 1.000000
vn -0.753472 -0.006116 0.657452
vn -0.769682 -0.005370 0.638405
vn -0.778238 -0.004966 0.627949
vn -0.778238 -0.004966 0.627949
vn 0.000000 -0.000000 1.000000
vn 0.000000 -0.000000 1.000000
vn 0.000000 -0.000000 1.000000
vn 0.000000 -0.000000 1.000000
s off
f 1/1/1 21/21/2 22/22/3 3/4/4
f 13/35/5 24/36/6 25/37/7 26/38/8
f 5/6/9 19/19/10 20/20/11 7/8/12
f 29/29/13 30/30/14 21/21/15 1/1/16
f 2/2/17 31/31/18 32/32/19 4/3/20
f 29/29/21 1/1/22 3/4/23 28/28/24
f 3/4/25 22/22/26 23/23/27 9/9/28
f 4/3/29 32/32/30 33/33/31 10/10/32
f 19/19/33 5/6/34 12/12/35 18/18/36
f 28/28/37 3/4/38 9/9/39 27/27/40
f 9/9/41 23/23/42 24/24/43 13/13/44
f 10/10/45 33/33/46 34/34/47 14/14/48
f 18/18/49 12/12/50 16/16/51 17/17/52
f 27/27/53 9/9/54 13/13/55 26/26/56
f 11/11/57 18/18/58 17/17/59 15/15/60
f 6/5/61 19/19/62 18/18/63 11/11/64
f 20/20/65 19/19/66 6/5/67 8/7/68
f 21/21/69 30/30/70 31/31/71 2/2/72
f 22/22/73 21/21/74 2/2/75 4/3/76
f 23/23/77 22/22/78 4/3/79 10/10/80
f 24/24/81 23/23/82 10/10/83 14/14/84
f 34/39/85 25/40/86 24/41/87 14/42/88
f 26/43/89 25/44/90 17/45/91 16/46/92
f 12/12/93 27/27/94 26/26/95 16/16/96
f 5/6/97 28/28/98 27/27/99 12/12/100
f 7/8/101 29/29/102 28/28/103 5/6/104
f 7/8/105 20/20/106 30/30/107 29/29/108
f 31/31/109 30/30/110 20/20/111 8/7/112
f 32/32/113 31/31/114 8/7/115 6/5/116
f 33/33/117 32/32/118 6/5/119 11/11/120
f 34/34/121 33/33/122 11/11/123 15/15/124
f 17/47/125 25/25/126 34/48/127 15/49/128
