# This file uses centimeters as units for non-parametric coordinates.

v 11.325485 -0.119463 -247.389725
v 9.185730 27.777334 -246.927185
v 13.447311 2.324848 -250.373245
v 13.447357 24.090382 -249.999969
v 13.447357 13.337366 -249.999969
v 13.447311 16.215027 -250.373245
v -13.447266 13.337366 -249.999969
v -13.447281 16.215027 -250.373245
v -11.325409 -0.119463 -247.389740
v -13.447281 2.324848 -250.373245
v -9.185684 27.777334 -246.927200
v -13.447266 24.090382 -249.999969
v 15.306427 11.967588 -250.000031
v -15.306396 11.967588 -250.000031
v 15.306427 1.780664 -249.999969
v -15.306427 1.780667 -250.000031
v 11.250049 -0.119461 -2.343689
v 9.883586 27.777296 -2.343689
v 13.447309 2.324848 -0.000015
v 13.357668 24.090343 0.000000
v 13.357611 13.337329 -0.000008
v -13.357761 13.337329 0.000000
v -11.250049 -0.119461 -2.343689
v -13.447288 2.324848 -0.000015
v -9.883586 27.777296 -2.343689
v -13.357761 24.090343 0.000000
v 15.204504 11.967550 -2.343689
v -15.204487 11.967550 -2.343689
v 15.204505 1.780653 -2.343688
v -15.204487 1.780656 -2.343689
vt 0.283184 0.266871
vt 0.283221 0.266861
vt 0.283196 0.266915
vt 0.283685 0.245547
vt 0.283678 0.245542
vt 0.283669 0.245591
vt 0.283684 0.245591
vt 0.283680 0.245502
vt 0.283685 0.245547
vt 0.283678 0.245542
vt 0.283669 0.245591
vt 0.283684 0.245591
vt 0.283680 0.245502
vt 0.283685 0.245547
vt 0.283678 0.245542
vt 0.283669 0.245591
vt 0.283684 0.245591
vt 0.283330 0.266545
vt 0.283680 0.245502
vt 0.283677 0.245550
vt 0.283676 0.245552
vt 0.283670 0.245584
vt 0.283670 0.245585
vt 0.283198 0.266652
vt 0.283525 0.266529
vt 0.283581 0.266520
vt 0.283561 0.266515
vt 0.283599 0.266297
vt 0.283563 0.266318
vt 0.283202 0.266866
vt 0.283196 0.266915
vt 0.283330 0.266545
vt 0.283198 0.266652
vt 0.283543 0.266522
vt 0.283581 0.266520
vt 0.283599 0.266297
vt 0.283563 0.266318
vt 0.283669 0.245591
vt 0.283684 0.245591
vt 0.283684 0.245591
vt 0.283669 0.245591
vt 0.283685 0.245547
vt 0.283685 0.245547
vt 0.283678 0.245542
vt 0.283680 0.245502
vt 0.283680 0.245502
vt 0.283678 0.245542
vt 0.283680 0.245502
vt 0.283678 0.245542
vt 0.283685 0.245547
vt 0.283684 0.245591
vt 0.283670 0.245584
vt 0.283677 0.245550
vt 0.283670 0.245585
vt 0.283676 0.245552
vt 0.283669 0.245591
vn -0.094387 0.128064 0.987264
vn -0.094387 0.128064 0.987264
vn -0.094387 0.128064 0.987264
vn -0.594547 0.804061 0.000229
vn -0.594547 0.804061 0.000229
vn -0.594547 0.804061 0.000229
vn -0.594547 0.804061 0.000229
vn -0.689933 0.723873 -0.000849
vn -0.689933 0.723873 -0.000849
vn -0.689933 0.723873 -0.000849
vn -0.689933 0.723873 -0.000849
vn 0.094391 0.128069 0.987263
vn 0.094391 0.128069 0.987263
vn 0.094391 0.128069 0.987263
vn -0.000000 0.128633 0.991692
vn -0.000000 0.128633 0.991692
vn -0.000000 0.128633 0.991692
vn -0.000000 0.128633 0.991692
vn 0.000000 -0.773542 -0.633745
vn 0.000000 -0.773542 -0.633745
vn 0.000000 -0.773542 -0.633745
vn 0.000000 -0.773542 -0.633745
vn 0.000000 0.000000 -1.000000
vn 0.000000 0.000000 -1.000000
vn 0.000000 0.000000 -1.000000
vn 0.000000 0.000000 -1.000000
vn -0.000000 -1.000000 0.000000
vn -0.000000 -1.000000 0.000000
vn -0.000000 -1.000000 0.000000
vn -0.000000 -1.000000 0.000000
vn 0.000000 0.000000 -1.000000
vn 0.000000 0.000000 -1.000000
vn 0.000000 0.000000 -1.000000
vn 0.000000 0.000000 -1.000000
vn 0.000000 0.640222 -0.768190
vn 0.000000 0.640222 -0.768190
vn 0.000000 0.640222 -0.768190
vn 0.000000 0.640222 -0.768190
vn -1.000000 0.000000 0.000358
vn -1.000000 0.000000 0.000358
vn -1.000000 0.000000 0.000358
vn -1.000000 0.000000 0.000358
vn 0.196834 -0.000003 -0.980437
vn 0.196834 -0.000003 -0.980437
vn 0.196834 -0.000003 -0.980437
vn 0.196834 -0.000003 -0.980437
vn -1.000000 0.000001 0.000412
vn -1.000000 0.000001 0.000412
vn -1.000000 0.000001 0.000412
vn -1.000000 0.000001 0.000412
vn -0.196820 0.000001 -0.980440
vn -0.196820 0.000001 -0.980440
vn -0.196820 0.000001 -0.980440
vn -0.196820 0.000001 -0.980440
vn -0.083144 -0.741063 -0.666268
vn -0.083144 -0.741063 -0.666268
vn -0.083144 -0.741063 -0.666268
vn -0.431962 -0.901892 0.000155
vn -0.431962 -0.901892 0.000155
vn -0.431962 -0.901892 0.000155
vn -0.431962 -0.901892 0.000155
vn 0.083159 -0.741060 -0.666269
vn 0.083159 -0.741060 -0.666269
vn 0.083159 -0.741060 -0.666269
vn 0.594536 0.804069 0.000229
vn 0.594536 0.804069 0.000229
vn 0.594536 0.804069 0.000229
vn 0.594536 0.804069 0.000229
vn 0.689935 0.723871 -0.000848
vn 0.689935 0.723871 -0.000848
vn 0.689935 0.723871 -0.000848
vn 0.689935 0.723871 -0.000848
vn -0.000000 -0.692092 0.721810
vn -0.000000 -0.692092 0.721810
vn -0.000000 -0.692092 0.721810
vn -0.000000 -0.692092 0.721810
vn 0.000000 -0.000001 1.000000
vn 0.000000 -0.000001 1.000000
vn 0.000000 -0.000001 1.000000
vn 0.000000 -0.000001 1.000000
vn -0.000000 1.000000 0.000000
vn -0.000000 1.000000 0.000000
vn -0.000000 1.000000 0.000000
vn -0.000000 1.000000 0.000000
vn 0.000000 -0.000000 1.000000
vn 0.000000 -0.000000 1.000000
vn 0.000000 -0.000000 1.000000
vn 0.000000 -0.000000 1.000000
vn -0.000000 0.536459 0.843926
vn -0.000000 0.536459 0.843926
vn -0.000000 0.536459 0.843926
vn -0.000000 0.536459 0.843926
vn 1.000000 -0.000003 0.000359
vn 1.000000 -0.000003 0.000359
vn 1.000000 -0.000003 0.000359
vn 1.000000 -0.000003 0.000359
vn 0.793410 0.003357 0.608679
vn 0.793410 0.003357 0.608679
vn 0.793410 0.003357 0.608679
vn 0.793410 0.003357 0.608679
vn 1.000000 0.000000 0.000412
vn 1.000000 0.000000 0.000412
vn 1.000000 0.000000 0.000412
vn 1.000000 0.000000 0.000412
vn -0.793422 0.003350 0.608662
vn -0.793422 0.003350 0.608662
vn -0.793422 0.003350 0.608662
vn -0.793422 0.003350 0.608662
vn 0.382037 -0.795083 0.471053
vn 0.382037 -0.795083 0.471053
vn 0.382037 -0.795083 0.471053
vn 0.431964 -0.901891 0.000155
vn 0.431964 -0.901891 0.000155
vn 0.431964 -0.901891 0.000155
vn 0.431964 -0.901891 0.000155
vn -0.382039 -0.795082 0.471053
vn -0.382039 -0.795082 0.471053
vn -0.382039 -0.795082 0.471053
s off
f 8/1/1 14/3/2 7/2/3
f 7/2/4 14/3/5 28/31/6 22/30/7
f 11/18/8 12/24/9 26/33/10 25/32/11
f 6/25/12 5/27/13 13/26/14
f 6/25/15 8/1/16 7/2/17 5/27/18
f 1/6/19 9/16/20 10/17/21 3/7/22
f 3/7/23 10/17/24 8/14/25 6/4/26
f 9/16/27 1/6/28 17/38/29 23/41/30
f 5/5/31 7/15/32 12/19/33 4/8/34
f 4/29/35 12/24/36 11/18/37 2/28/38
f 12/19/39 7/15/40 22/47/41 26/46/42
f 6/9/43 13/20/44 15/22/45 3/12/46
f 14/21/47 16/23/48 30/54/49 28/55/50
f 8/14/51 10/17/52 16/23/53 14/21/54
f 15/22/55 1/11/56 3/12/57
f 16/23/58 9/16/59 23/41/60 30/54/61
f 10/17/62 9/16/63 16/23/64
f 5/27/65 21/34/66 27/35/67 13/26/68
f 2/28/69 18/36/70 20/37/71 4/29/72
f 17/38/73 19/39/74 24/40/75 23/41/76
f 19/39/77 21/42/78 22/43/79 24/40/80
f 11/18/81 25/32/82 18/36/83 2/28/84
f 21/44/85 20/45/86 26/46/87 22/47/88
f 20/37/89 18/36/90 25/32/91 26/33/92
f 4/13/93 20/48/94 21/49/95 5/10/96
f 21/50/97 19/51/98 29/52/99 27/53/100
f 13/20/101 27/53/102 29/52/103 15/22/104
f 22/43/105 28/55/106 30/54/107 24/40/108
f 29/52/109 19/51/110 17/56/111
f 15/22/112 29/52/113 17/56/114 1/11/115
f 24/40/116 30/54/117 23/41/118
