# This file uses centimeters as units for non-parametric coordinates.

v -33.749969 88.043694 -0.000854
v -33.749969 -0.000002 -0.000839
v -0.000862 -0.000001 -0.000862
v -0.000870 88.043694 -0.000870
v -33.749947 88.043694 -33.749947
v -33.749947 -0.000002 -33.749947
v -0.000854 88.043694 -33.749969
v -0.000839 -0.000002 -33.749969
v -39.434170 101.048637 10.872562
v -40.378883 87.333458 14.145744
v 13.772827 102.644989 13.611397
v 9.872620 104.507263 7.979965
v 11.227673 104.655312 -33.137466
v 15.305489 87.325661 -40.210785
v 15.267624 87.114922 15.379700
v -34.312103 102.488770 14.246628
v -33.360302 87.260223 18.042862
v -38.933609 102.444939 -34.230915
v -34.195496 101.261230 -38.670254
v -40.368073 87.284019 -35.803764
v -36.650463 87.284019 -40.284996
v 6.883396 102.650986 -38.694569
v 14.313648 102.658287 -36.340908
vt 0.729334 0.293771
vt 0.729324 0.001434
vt 0.709120 0.001518
vt 0.709127 0.292530
vt 0.729324 0.014729
vt 0.863934 0.297551
vt 0.729330 0.297518
vt 0.863932 0.001434
vt 0.998535 0.293768
vt 0.998539 0.001431
vt 1.018742 0.292527
vt 1.018743 0.001515
vt 0.998540 0.014727
vt 0.998539 0.297515
vt 0.283398 0.267677
vt 0.283398 0.267673
vt 0.283398 0.267671
vt 0.283398 0.267676
vt 0.283398 0.267642
vt 0.283398 0.267646
vt 0.283398 0.267670
vt 0.283398 0.267656
vt 0.283398 0.267654
vt 0.283398 0.267679
vt 0.283398 0.267674
vt 0.283398 0.267650
vt 0.283398 0.267662
vt 0.283398 0.267649
vt 0.283398 0.267650
vn 0.000000 0.000000 1.000000
vn 0.000000 0.000000 1.000000
vn -0.000000 0.000000 1.000000
vn -0.000000 0.000000 1.000000
vn -1.000000 0.000000 -0.000000
vn -1.000000 0.000000 0.000000
vn -1.000000 0.000000 0.000000
vn -1.000000 0.000000 -0.000000
vn 0.000000 -1.000000 0.000000
vn 0.000000 -1.000000 0.000000
vn 0.000000 -1.000000 0.000000
vn 1.000000 0.000000 -0.000000
vn 1.000000 0.000000 -0.000000
vn 1.000000 0.000000 0.000000
vn 1.000000 0.000000 0.000000
vn 0.000000 -1.000000 0.000000
vn 0.000000 -1.000000 0.000000
vn 0.000000 -1.000000 0.000000
vn -0.000000 0.000000 -1.000000
vn -0.000000 0.000000 -1.000000
vn 0.000000 0.000000 -1.000000
vn 0.000000 0.000000 -1.000000
vn 0.033505 0.180500 0.983004
vn 0.033505 0.180500 0.983004
vn 0.033505 0.180500 0.983004
vn 0.033505 0.180500 0.983004
vn -0.001083 -0.999997 -0.002028
vn -0.001083 -0.999997 -0.002028
vn -0.001083 -0.999997 -0.002028
vn -0.001083 -0.999997 -0.002028
vn 0.001054 0.949650 0.313312
vn 0.001054 0.949650 0.313312
vn 0.001054 0.949650 0.313312
vn -0.045338 0.998970 0.002103
vn -0.045338 0.998970 0.002103
vn -0.045338 0.998970 0.002103
vn -0.286692 0.957657 0.026465
vn -0.286692 0.957657 0.026465
vn -0.286692 0.957657 0.026465
vn -0.579435 0.226741 0.782843
vn -0.579435 0.226741 0.782843
vn -0.579435 0.226741 0.782843
vn -0.475620 0.184669 0.860048
vn -0.475620 0.184669 0.860048
vn -0.475620 0.184669 0.860048
vn -0.044094 0.999022 0.003300
vn -0.044094 0.999022 0.003300
vn -0.044094 0.999022 0.003300
vn -0.995442 0.095026 -0.008106
vn -0.995442 0.095026 -0.008106
vn -0.995442 0.095026 -0.008106
vn -0.997641 0.068651 -0.000284
vn -0.997641 0.068651 -0.000284
vn -0.997641 0.068651 -0.000284
vn 0.134577 0.893890 -0.427610
vn 0.134577 0.893890 -0.427610
vn 0.134577 0.893890 -0.427610
vn -0.006798 -0.999977 0.000443
vn -0.006798 -0.999977 0.000443
vn -0.006798 -0.999977 0.000443
vn -0.006798 -0.999977 0.000443
vn -0.703950 0.169420 -0.689748
vn -0.703950 0.169420 -0.689748
vn -0.703950 0.169420 -0.689748
vn -0.703950 0.169420 -0.689748
vn 0.996785 0.079928 0.005635
vn 0.996785 0.079928 0.005635
vn 0.996785 0.079928 0.005635
vn 0.996785 0.079928 0.005635
vn -0.001098 0.106024 -0.994363
vn -0.001098 0.106024 -0.994363
vn -0.001098 0.106024 -0.994363
vn -0.001098 0.106024 -0.994363
vn -0.032259 0.947978 -0.316697
vn -0.032259 0.947978 -0.316697
vn -0.032259 0.947978 -0.316697
vn 0.480430 0.876957 0.011555
vn 0.480430 0.876957 0.011555
vn 0.480430 0.876957 0.011555
vn 0.480430 0.876957 0.011555
vn 0.292026 0.251769 -0.922677
vn 0.292026 0.251769 -0.922677
vn 0.292026 0.251769 -0.922677
vn -0.035718 0.955478 -0.292892
vn -0.035718 0.955478 -0.292892
vn -0.035718 0.955478 -0.292892
s off
f 3/3/1 4/4/2 1/1/3 2/2/4
f 5/6/5 6/8/6 2/2/7 1/7/8
f 3/5/9 2/2/10 6/8/11
f 8/10/12 7/9/13 4/11/14 3/12/15
f 8/10/16 3/13/17 6/8/18
f 5/6/19 7/14/20 8/10/21 6/8/22
f 16/15/23 17/16/24 15/17/25 11/18/26
f 14/19/27 15/17/28 17/16/29 21/20/30
f 11/18/31 12/21/32 16/15/33
f 13/22/34 16/15/35 12/21/36
f 16/15/37 18/23/38 9/24/39
f 9/24/40 10/25/41 16/15/42
f 16/15/43 10/25/44 17/16/45
f 13/22/46 18/23/47 16/15/48
f 9/24/49 18/23/50 20/26/51
f 9/24/52 20/26/53 10/25/54
f 23/27/55 22/28/56 13/22/57
f 20/26/58 21/20/59 17/16/60 10/25/61
f 18/23/62 19/29/63 21/20/64 20/26/65
f 14/19/66 23/27/67 11/18/68 15/17/69
f 21/20/70 19/29/71 22/28/72 14/19/73
f 13/22/74 22/28/75 19/29/76
f 12/21/77 11/18/78 23/27/79 13/22/80
f 23/27/81 14/19/82 22/28/83
f 13/22/84 19/29/85 18/23/86
