# This file uses centimeters as units for non-parametric coordinates.

v 0.000000 114.810211 -249.999023
v 250.001251 114.810211 -249.999023
v 250.001251 -8.826769 -2.335497
v 0.000000 -8.826769 -2.335497
v 250.001251 148.041550 -249.999023
v 0.000000 148.041550 -249.999023
v 0.000000 73.041550 -127.335007
v 250.001251 73.041550 -127.335007
v 0.000000 110.541611 -189.834763
v 250.001251 110.541611 -189.834763
v 250.001251 35.541576 -64.835251
v 0.000000 35.541576 -64.835251
v 0.000000 145.427170 -189.834763
v 250.001251 145.427170 -189.834763
v 0.000000 70.427109 -64.835251
v 250.001251 70.427109 -64.835251
v 0.000000 32.927258 -2.335497
v 250.001251 32.927258 -2.335497
v 0.000000 107.927292 -127.335007
v 250.001251 107.927292 -127.335007
v 0.000000 35.541637 -5.460497
v 250.001251 35.541637 -5.460497
v 0.000000 73.041489 -67.960251
v 250.001251 73.041489 -67.960251
v 0.000000 110.541672 -130.460007
v 250.001251 110.541672 -130.460007
v 0.000000 148.041550 -192.959763
v 250.001251 148.041550 -192.959763
v 0.000000 -8.826769 -40.071590
v 250.001251 -8.826769 -39.879837
v 2.500000 150.000031 -190.624268
v 2.500000 147.385651 -187.499268
v 2.500000 112.500092 -187.499268
v 2.500000 112.500153 -128.124512
v 2.500000 109.885780 -124.999512
v 2.500000 75.000031 -124.999512
v 2.500000 74.999969 -65.624756
v 2.500000 72.385590 -62.499756
v 2.500000 37.500061 -62.499756
v 2.500000 37.500122 -3.125000
v 2.500000 34.885742 0.000000
v 2.500000 -8.826769 0.000000
v 2.500000 -8.826769 -40.069675
v 2.500000 114.810211 -249.999023
v 2.500000 150.000031 -249.999023
v 247.501190 -8.826769 0.000000
v 247.501190 34.885742 0.000000
v 247.501190 37.500122 -3.125000
v 247.501190 37.500061 -62.499756
v 247.501190 72.385590 -62.499756
v 247.501190 74.999969 -65.624756
v 247.501190 75.000031 -124.999512
v 247.501190 109.885773 -124.999512
v 247.501190 112.500153 -128.124512
v 247.501190 112.500092 -187.499268
v 247.501190 147.385651 -187.499268
v 247.501190 150.000031 -190.624268
v 247.501190 150.000031 -249.999023
v 247.501190 114.810211 -249.999023
v 247.501190 -8.826769 -39.881756
v 32.340412 34.885742 0.000000
v 65.687271 34.885742 0.000000
v 47.122803 37.500122 -3.125000
v 43.446167 27.489138 0.000000
v 169.392853 109.885773 -124.999512
v 168.784744 112.500153 -128.124512
v 115.882332 109.885773 -124.999512
v 120.501480 112.500153 -128.124512
v 144.832047 105.813950 -124.999512
v 132.270920 112.500145 -133.792908
v 163.387650 112.500145 -133.286606
v 58.829941 150.000031 -190.624268
v 107.513634 150.000031 -190.624268
v 83.766899 147.385651 -187.499268
v 82.030502 150.000031 -196.698425
vt 0.000046 -0.002266
vt 0.000890 0.269376
vt 0.000000 0.999986
vt 1.000000 0.682517
vt 0.999995 0.512273
vt 1.001290 0.268645
vt 0.504715 0.513866
vt -0.000356 0.513056
vt -0.000215 0.756171
vt 0.999455 0.755639
vt 0.000000 0.999986
vt 0.000000 0.835910
vt 0.000000 0.855158
vt 1.000000 0.999986
vt 1.000000 0.855005
vt 1.000000 0.835664
vt 0.000000 0.349812
vt 0.000000 0.369240
vt 1.000000 0.368629
vt 1.000000 0.349305
vt 0.000000 0.105423
vt 0.000000 0.124200
vt 1.000000 0.123595
vt 1.000000 0.104872
vt 0.000000 0.593220
vt 0.000000 0.611830
vt 1.000000 0.611415
vt 1.000000 0.592719
vt 0.252358 0.362451
vt 1.000065 -0.002302
vt 0.000000 0.137185
vt 1.000000 0.816697
vt 0.010000 0.850048
vt 0.010000 0.840054
vt 0.009782 0.753971
vt 0.010000 0.606552
vt 0.010000 0.596646
vt 0.009647 0.510879
vt 0.010000 0.363768
vt 0.010000 0.353745
vt 0.010894 0.267181
vt 0.010000 0.118760
vt 0.010000 0.108630
vt 0.010050 -0.003954
vt 0.010000 0.137329
vt 0.010000 0.999986
vt 0.010000 0.999986
vt 0.990064 -0.004345
vt 0.990000 0.108154
vt 0.990000 0.118252
vt 0.991286 0.266525
vt 0.990000 0.353362
vt 0.990000 0.363386
vt 0.989991 0.510210
vt 0.990000 0.596352
vt 0.990000 0.606281
vt 0.989458 0.753534
vt 0.990000 0.839889
vt 0.990000 0.849942
vt 0.990000 0.999986
vt 0.990000 0.999986
vt 0.990000 0.136683
vt 1.000000 0.136565
vt 0.757073 0.665282
vt 1.000000 0.999986
vt 0.757073 0.806140
vt 0.769691 0.816697
vt 0.757073 0.665282
vt 1.000000 0.816697
vt 0.769691 0.816697
vt 0.757073 0.806140
vt 0.504715 0.513866
vt 0.252358 0.362451
vt 0.252358 0.503310
vt 0.264976 0.513866
vt 0.264975 0.513866
vt 0.252358 0.503310
vt 0.000000 0.183304
vt 0.000000 0.351895
vt 0.012618 0.362452
vt 0.000000 0.183304
vt 0.012618 0.362452
vt 0.000000 0.351895
vt 0.504715 0.654726
vt 0.517333 0.665282
vt 0.517333 0.665282
vt 0.504715 0.654726
vt 1.000000 0.682517
vt 0.152368 0.183304
vt 0.151594 0.183304
vt 0.129361 0.108572
vt 0.262747 0.108506
vt 0.188490 0.118667
vt 0.173793 0.089505
vt 0.677579 0.596434
vt 0.675136 0.606368
vt 0.463528 0.596509
vt 0.482004 0.606421
vt 0.579316 0.586429
vt 0.529037 0.620460
vt 0.653500 0.619238
vt 0.235319 0.850024
vt 0.430053 0.850003
vt 0.335069 0.840001
vt 0.328120 0.865363
vn 0.000000 0.000000 -1.000000
vn 0.000000 0.000000 -1.000000
vn 0.000000 0.000000 -1.000000
vn 0.000000 0.000000 -1.000000
vn 0.000000 1.000000 0.000000
vn 0.000000 1.000000 0.000000
vn 0.000000 1.000000 0.000000
vn 1.000000 0.000000 0.000000
vn 1.000000 0.000000 0.000000
vn 1.000000 0.000000 0.000000
vn -1.000000 0.000000 0.000000
vn -1.000000 0.000000 0.000000
vn -1.000000 0.000000 0.000000
vn -1.000000 0.000000 0.000000
vn 1.000000 0.000000 0.000000
vn 1.000000 0.000000 0.000000
vn 1.000000 0.000000 0.000000
vn 1.000000 0.000000 0.000000
vn -1.000000 0.000000 0.000000
vn -1.000000 0.000000 0.000000
vn -1.000000 0.000000 0.000000
vn -1.000000 0.000000 0.000000
vn 1.000000 0.000000 0.000000
vn 1.000000 0.000000 0.000000
vn 1.000000 0.000000 0.000000
vn 1.000000 0.000000 0.000000
vn -1.000000 0.000000 0.000000
vn -1.000000 0.000000 0.000000
vn -1.000000 0.000000 0.000000
vn -1.000000 0.000000 0.000000
vn 1.000000 0.000000 0.000000
vn 1.000000 0.000000 0.000000
vn 1.000000 0.000000 0.000000
vn 1.000000 0.000000 0.000000
vn -1.000000 0.000000 0.000000
vn -1.000000 0.000000 0.000000
vn -1.000000 0.000000 0.000000
vn -1.000000 0.000000 0.000000
vn 1.000000 0.000000 0.000000
vn 1.000000 0.000000 0.000000
vn 1.000000 0.000000 0.000000
vn 1.000000 0.000000 0.000000
vn 1.000000 0.000000 0.000000
vn 1.000000 0.000000 0.000000
vn 1.000000 0.000000 0.000000
vn 1.000000 0.000000 0.000000
vn 1.000000 0.000000 0.000000
vn 1.000000 0.000000 0.000000
vn -1.000000 0.000000 0.000000
vn -1.000000 0.000000 0.000000
vn -1.000000 0.000000 0.000000
vn -1.000000 0.000000 0.000000
vn -1.000000 0.000000 0.000000
vn -1.000000 0.000000 0.000000
vn -1.000000 0.000000 0.000000
vn -1.000000 0.000000 0.000000
vn -1.000000 0.000000 0.000000
vn 0.000000 0.766986 0.641663
vn 0.000000 0.766986 0.641663
vn 0.000000 0.766986 0.641663
vn 0.000000 0.766986 0.641663
vn 0.000000 0.766988 0.641662
vn 0.000000 0.766988 0.641662
vn 0.000000 0.766988 0.641662
vn 0.000000 0.766988 0.641662
vn 0.000000 0.766988 0.641662
vn 0.000000 0.766988 0.641662
vn 0.000000 0.766988 0.641662
vn 0.000000 0.766988 0.641662
vn 0.159939 0.240142 0.957471
vn 0.159939 0.240142 0.957471
vn 0.159939 0.240142 0.957471
vn 0.000000 0.000000 1.000000
vn 0.000000 0.000000 1.000000
vn 0.000000 0.000000 1.000000
vn 0.000000 0.000000 1.000000
vn 0.000000 1.000000 -0.000001
vn 0.000000 1.000000 -0.000001
vn 0.000000 1.000000 -0.000001
vn 0.000000 1.000000 -0.000001
vn 0.000000 0.000000 1.000000
vn 0.000000 0.000000 1.000000
vn 0.000000 0.000000 1.000000
vn 0.000000 0.000000 1.000000
vn 0.000000 1.000000 0.000001
vn 0.000000 1.000000 0.000001
vn 0.000000 1.000000 0.000001
vn 0.000000 1.000000 0.000001
vn 0.000000 0.000000 1.000000
vn 0.000000 0.000000 1.000000
vn 0.000000 0.000000 1.000000
vn 0.000000 1.000000 -0.000001
vn 0.000000 1.000000 -0.000001
vn 0.000000 1.000000 -0.000001
vn 0.000000 1.000000 -0.000001
vn 0.000000 0.000000 1.000000
vn 0.000000 0.000000 1.000000
vn 0.000000 0.000000 1.000000
vn -1.000000 0.000000 0.000000
vn -1.000000 0.000000 0.000000
vn -1.000000 0.000000 0.000000
vn -1.000000 0.000000 0.000000
vn 0.000195 -0.861766 -0.507306
vn 0.000195 -0.861766 -0.507306
vn 0.000195 -0.861766 -0.507306
vn 0.000195 -0.861766 -0.507306
vn 1.000000 -0.000001 0.000000
vn 1.000000 -0.000001 0.000000
vn 1.000000 -0.000001 0.000000
vn 1.000000 -0.000001 0.000000
vn 0.000000 -1.000000 0.000000
vn 0.000000 -1.000000 0.000000
vn 0.000000 -1.000000 0.000000
vn 0.000000 -1.000000 0.000000
vn -0.768297 0.490943 0.410724
vn -0.768297 0.490943 0.410724
vn -0.768297 0.490943 0.410724
vn -0.768297 0.490943 0.410724
vn -0.682657 0.000000 0.730739
vn -0.682657 0.000000 0.730739
vn -0.682657 0.000000 0.730739
vn -0.682657 0.000000 0.730739
vn -0.616690 0.787206 -0.000001
vn -0.616690 0.787206 -0.000001
vn -0.616690 0.787206 -0.000001
vn -0.616690 0.787206 -0.000001
vn -0.768299 0.490943 0.410721
vn -0.768299 0.490943 0.410721
vn -0.768299 0.490943 0.410721
vn -0.768299 0.490943 0.410721
vn -0.682656 0.000000 0.730740
vn -0.682656 0.000000 0.730740
vn -0.682656 0.000000 0.730740
vn -0.682656 0.000000 0.730740
vn -0.616691 0.787205 0.000001
vn -0.616691 0.787205 0.000001
vn -0.616691 0.787205 0.000001
vn -0.616691 0.787205 0.000001
vn -0.768298 0.490943 0.410723
vn -0.768298 0.490943 0.410723
vn -0.768298 0.490943 0.410723
vn -0.768298 0.490943 0.410723
vn -0.682657 0.000000 0.730739
vn -0.682657 0.000000 0.730739
vn -0.682657 0.000000 0.730739
vn -0.682657 0.000000 0.730739
vn -0.616691 0.787205 -0.000001
vn -0.616691 0.787205 -0.000001
vn -0.616691 0.787205 -0.000001
vn -0.616691 0.787205 -0.000001
vn -0.768298 0.490942 0.410723
vn -0.768298 0.490942 0.410723
vn -0.768298 0.490942 0.410723
vn -0.768298 0.490942 0.410723
vn -0.682656 0.000000 0.730740
vn -0.682656 0.000000 0.730740
vn -0.682656 0.000000 0.730740
vn -0.682656 0.000000 0.730740
vn 0.000000 -1.000000 0.000000
vn 0.000000 -1.000000 0.000000
vn 0.000000 -1.000000 0.000000
vn 0.000000 -1.000000 0.000000
vn 0.000192 -0.861666 -0.507477
vn 0.000192 -0.861666 -0.507477
vn 0.000192 -0.861666 -0.507477
vn 0.000192 -0.861666 -0.507477
vn -0.000010 0.000000 -1.000000
vn -0.000010 0.000000 -1.000000
vn -0.000010 0.000000 -1.000000
vn -0.000010 0.000000 -1.000000
vn -0.616691 0.787206 0.000000
vn -0.616691 0.787206 0.000000
vn -0.616691 0.787206 0.000000
vn -0.616691 0.787206 0.000000
vn 0.682647 0.000000 0.730748
vn 0.682647 0.000000 0.730748
vn 0.682647 0.000000 0.730748
vn 0.682647 0.000000 0.730748
vn 0.768291 0.490949 0.410729
vn 0.768291 0.490949 0.410729
vn 0.768291 0.490949 0.410729
vn 0.768291 0.490949 0.410729
vn 0.616677 0.787216 -0.000001
vn 0.616677 0.787216 -0.000001
vn 0.616677 0.787216 -0.000001
vn 0.616677 0.787216 -0.000001
vn 0.682648 0.000000 0.730748
vn 0.682648 0.000000 0.730748
vn 0.682648 0.000000 0.730748
vn 0.682648 0.000000 0.730748
vn 0.768291 0.490949 0.410729
vn 0.768291 0.490949 0.410729
vn 0.768291 0.490949 0.410729
vn 0.768291 0.490949 0.410729
vn 0.616680 0.787214 0.000001
vn 0.616680 0.787214 0.000001
vn 0.616680 0.787214 0.000001
vn 0.616680 0.787214 0.000001
vn 0.682647 0.000000 0.730748
vn 0.682647 0.000000 0.730748
vn 0.682647 0.000000 0.730748
vn 0.682647 0.000000 0.730748
vn 0.768292 0.490949 0.410728
vn 0.768292 0.490949 0.410728
vn 0.768292 0.490949 0.410728
vn 0.768292 0.490949 0.410728
vn 0.616679 0.787215 -0.000001
vn 0.616679 0.787215 -0.000001
vn 0.616679 0.787215 -0.000001
vn 0.616679 0.787215 -0.000001
vn 0.682647 0.000000 0.730748
vn 0.682647 0.000000 0.730748
vn 0.682647 0.000000 0.730748
vn 0.682647 0.000000 0.730748
vn 0.768289 0.490950 0.410731
vn 0.768289 0.490950 0.410731
vn 0.768289 0.490950 0.410731
vn 0.768289 0.490950 0.410731
vn 0.616680 0.787214 0.000000
vn 0.616680 0.787214 0.000000
vn 0.616680 0.787214 0.000000
vn 0.616680 0.787214 0.000000
vn 0.000010 0.000000 -1.000000
vn 0.000010 0.000000 -1.000000
vn 0.000010 0.000000 -1.000000
vn 0.000010 0.000000 -1.000000
vn 0.000192 -0.861866 -0.507136
vn 0.000192 -0.861866 -0.507136
vn 0.000192 -0.861866 -0.507136
vn 0.000192 -0.861866 -0.507136
vn 0.000000 -1.000000 0.000000
vn 0.000000 -1.000000 0.000000
vn 0.000000 -1.000000 0.000000
vn 0.000000 -1.000000 0.000000
vn 0.000000 0.766987 0.641663
vn 0.000000 0.766987 0.641663
vn 0.000000 0.766987 0.641663
vn 0.000000 0.766987 0.641663
vn 0.000000 0.766987 0.641663
vn 0.000000 0.766987 0.641663
vn 0.000000 0.766987 0.641663
vn 0.000000 0.766987 0.641663
vn -0.110736 0.332976 0.936410
vn -0.110736 0.332976 0.936410
vn -0.110736 0.332976 0.936410
vn 0.000000 0.766987 0.641663
vn 0.000000 0.766987 0.641663
vn 0.000000 0.766987 0.641663
vn 0.000000 0.766987 0.641663
vn -0.192858 0.886996 0.419576
vn -0.192858 0.886996 0.419576
vn -0.192858 0.886996 0.419576
vn -0.192858 0.886996 0.419576
vn 0.157842 0.826748 0.539977
vn 0.157842 0.826748 0.539977
vn 0.157842 0.826748 0.539977
vn 0.157842 0.826748 0.539977
vn -0.009994 0.789052 0.614245
vn -0.009994 0.789052 0.614245
vn -0.009994 0.789052 0.614245
vn 0.000000 0.766987 0.641663
vn 0.000000 0.766987 0.641663
vn 0.000000 0.766987 0.641663
vn 0.000000 0.766987 0.641663
vn -0.067830 0.956253 0.284568
vn -0.067830 0.956253 0.284568
vn -0.067830 0.956253 0.284568
vn 0.068277 0.962979 0.260787
vn 0.068277 0.962979 0.260787
vn 0.068277 0.962979 0.260787
vn 0.000000 1.000000 0.000000
vn 0.000000 1.000000 0.000000
vn 0.000000 1.000000 0.000000
vn 0.000000 1.000000 0.000000
vn 0.000000 1.000000 0.000000
vn 0.000000 1.000000 0.000000
vn 0.000000 1.000000 0.000000
vn 0.000000 1.000000 0.000000
vn 0.000000 0.000000 1.000000
vn 0.000000 0.000000 1.000000
vn 0.000000 0.000000 1.000000
vn 0.000000 0.000000 1.000000
vn 0.000000 1.000000 -0.000001
vn 0.000000 1.000000 -0.000001
vn 0.000000 1.000000 -0.000001
vn 0.000000 1.000000 -0.000001
vn -0.000000 1.000000 -0.000001
vn -0.000000 1.000000 -0.000001
vn -0.000000 1.000000 -0.000001
vn -0.000000 1.000000 -0.000001
vn -0.000000 0.000000 1.000000
vn -0.000000 0.000000 1.000000
vn -0.000000 0.000000 1.000000
vn -0.000000 0.000000 1.000000
vn 0.000000 0.000000 1.000000
vn 0.000000 0.000000 1.000000
vn 0.000000 0.000000 1.000000
vn 0.000000 0.000000 1.000000
vn 0.000000 1.000000 -0.000001
vn 0.000000 1.000000 -0.000001
vn 0.000000 1.000000 -0.000001
vn 0.000000 0.000000 1.000000
vn 0.000000 0.000000 1.000000
vn 0.000000 0.000000 1.000000
vn 0.000000 0.000000 1.000000
vn 0.000000 0.000000 1.000000
vn 0.000000 0.000000 1.000000
vn 0.000000 0.000000 1.000000
s off
f 44/46/1 45/47/2 58/60/3 59/61/4
f 45/47/5 75/105/6 58/60/7
f 2/4/8 8/7/9 11/29/10
f 6/32/11 9/64/12 13/66/13 27/67/14
f 10/68/15 5/69/16 28/70/17 14/71/18
f 7/72/19 12/73/20 15/74/21 23/75/22
f 11/29/23 8/7/24 24/76/25 16/77/26
f 12/73/27 4/78/28 17/79/29 21/80/30
f 3/81/31 11/29/32 22/82/33 18/83/34
f 9/64/35 7/72/36 19/84/37 25/85/38
f 8/7/39 10/68/40 26/86/41 20/87/42
f 2/4/43 5/69/44 10/68/45
f 2/4/46 10/68/47 8/7/48
f 1/88/49 7/72/50 9/64/51
f 1/88/52 12/73/53 7/72/54
f 1/88/55 9/64/56 6/32/57
f 37/39/58 38/40/59 50/52/60 51/53/61
f 34/36/62 35/37/63 67/97/64 68/98/65
f 73/103/66 74/104/67 56/58/68 57/59/69
f 63/93/70 61/91/71 64/94/72
f 41/43/73 42/44/74 64/94/75 61/91/76
f 39/41/77 63/93/78 48/50/79 49/51/80
f 38/40/81 39/41/82 49/51/83 50/52/84
f 36/38/85 37/39/86 51/53/87 52/54/88
f 69/99/89 36/38/90 52/54/91
f 33/35/92 70/100/93 71/101/94 55/57/95
f 32/34/96 33/35/97 74/104/98
f 4/78/99 12/73/100 1/88/101 29/89/102
f 43/45/103 44/46/104 59/61/105 60/62/106
f 2/4/107 11/29/108 3/81/109 30/90/110
f 42/44/111 43/45/112 60/62/113 46/48/114
f 32/34/115 31/33/116 27/13/117 13/12/118
f 33/35/119 32/34/120 13/12/121 9/9/122
f 9/9/123 25/26/124 34/36/125 33/35/126
f 35/37/127 34/36/128 25/26/129 19/25/130
f 36/38/131 35/37/132 19/25/133 7/8/134
f 7/8/135 23/18/136 37/39/137 36/38/138
f 38/40/139 37/39/140 23/18/141 15/17/142
f 39/41/143 38/40/144 15/17/145 12/2/146
f 12/2/147 21/22/148 40/42/149 39/41/150
f 41/43/151 40/42/152 21/22/153 17/21/154
f 42/44/155 41/43/156 17/21/157 4/1/158
f 43/45/159 42/44/160 4/1/161 29/31/162
f 29/31/163 1/3/164 44/46/165 43/45/166
f 45/47/167 44/46/168 1/3/169 6/11/170
f 31/33/171 45/47/172 6/11/173 27/13/174
f 18/24/175 47/49/176 46/48/177 3/30/178
f 18/24/179 22/23/180 48/50/181 47/49/182
f 49/51/183 48/50/184 22/23/185 11/6/186
f 16/20/187 50/52/188 49/51/189 11/6/190
f 16/20/191 24/19/192 51/53/193 50/52/194
f 52/54/195 51/53/196 24/19/197 8/5/198
f 20/28/199 53/55/200 52/54/201 8/5/202
f 20/28/203 26/27/204 54/56/205 53/55/206
f 55/57/207 54/56/208 26/27/209 10/10/210
f 14/16/211 56/58/212 55/57/213 10/10/214
f 14/16/215 28/15/216 57/59/217 56/58/218
f 28/15/219 5/14/220 58/60/221 57/59/222
f 5/14/223 2/65/224 59/61/225 58/60/226
f 60/62/227 59/61/228 2/65/229 30/63/230
f 3/30/231 46/48/232 60/62/233 30/63/234
f 63/93/235 62/92/236 47/49/237 48/50/238
f 40/42/239 41/43/240 61/91/241 63/93/242
f 63/93/243 64/94/244 62/92/245
f 66/96/246 65/95/247 53/55/248 54/56/249
f 71/101/250 69/99/251 65/95/252 66/96/253
f 68/98/254 67/97/255 69/99/256 70/100/257
f 70/100/258 69/99/259 71/101/260
f 31/33/261 32/34/262 74/104/263 72/102/264
f 73/103/265 75/105/266 74/104/267
f 74/104/268 75/105/269 72/102/270
f 45/47/271 31/33/272 72/102/273 75/105/274
f 58/60/275 75/105/276 73/103/277 57/59/278
f 74/104/279 33/35/280 55/57/281 56/58/282
f 33/35/283 34/36/284 68/98/285 70/100/286
f 55/57/287 71/101/288 66/96/289 54/56/290
f 69/99/291 52/54/292 53/55/293 65/95/294
f 35/37/295 36/38/296 69/99/297 67/97/298
f 39/41/299 40/42/300 63/93/301
f 64/94/302 46/48/303 47/49/304 62/92/305
f 64/94/306 42/44/307 46/48/308
