# This file uses centimeters as units for non-parametric coordinates.

v 0.000000 0.000000 0.000000
v 249.999146 0.000000 0.000000
v 249.999146 300.574280 0.000000
v 0.000000 300.574280 0.000000
v 0.000000 0.000000 -11.250000
v 249.999146 0.000000 -11.250000
v 249.999146 299.999817 -11.250000
v 0.000000 299.999817 -11.250000
v 0.000000 0.000000 11.250000
v 249.999146 0.000000 11.250000
v 249.999146 299.999817 11.250000
v 0.000000 299.999817 11.250000
vt 0.001423 0.972453
vt -0.038908 0.001511
vt 0.001423 0.001434
vt 0.001423 0.998623
vt 0.998542 0.998623
vt 1.038921 0.998605
vt 0.998542 0.028023
vt 0.998542 0.001434
vt 0.998542 0.998623
vt 0.998542 0.972453
vt 0.001423 0.998623
vt -0.038908 0.998605
vt 0.001423 0.998623
vt 0.001423 0.001434
vt 0.001423 0.028023
vt 0.998542 0.001434
vt 0.001423 0.001434
vt 1.038921 0.001511
vt 0.998542 0.001434
vt 0.998542 0.998623
vt -0.038908 0.998605
vt -0.038908 0.001511
vt 0.001423 0.001434
vt 0.001423 0.998623
vt 0.001423 0.972453
vt 0.001423 0.998623
vt 0.998542 0.998623
vt 0.998542 0.972453
vt 0.001423 0.001434
vt 0.001423 0.028023
vt 0.998542 0.028023
vt 0.998542 0.001434
vt 0.998542 0.998623
vt 0.001423 0.998623
vt 0.001423 0.001434
vt 0.998542 0.001434
vt 1.038921 0.998605
vt 0.998542 0.998623
vt 0.998542 0.001434
vt 1.038921 0.001511
vn -1.000000 0.000000 0.000000
vn -1.000000 0.000000 0.000000
vn -1.000000 0.000000 0.000000
vn -1.000000 0.000000 0.000000
vn 0.000000 0.998699 -0.050998
vn 0.000000 0.998699 -0.050998
vn 0.000000 0.998699 -0.050998
vn 0.000000 0.998699 -0.050998
vn 0.000000 -1.000000 0.000000
vn 0.000000 -1.000000 0.000000
vn 0.000000 -1.000000 0.000000
vn 0.000000 -1.000000 0.000000
vn 0.000000 0.000000 -1.000000
vn 0.000000 0.000000 -1.000000
vn 0.000000 0.000000 -1.000000
vn 0.000000 0.000000 -1.000000
vn 1.000000 0.000000 0.000000
vn 1.000000 0.000000 0.000000
vn 1.000000 0.000000 0.000000
vn 1.000000 0.000000 0.000000
vn -1.000000 0.000000 0.000000
vn -1.000000 0.000000 0.000000
vn -1.000000 0.000000 0.000000
vn -1.000000 0.000000 0.000000
vn 0.000000 0.998699 0.050998
vn 0.000000 0.998699 0.050998
vn 0.000000 0.998699 0.050998
vn 0.000000 0.998699 0.050998
vn 0.000000 -1.000000 0.000000
vn 0.000000 -1.000000 0.000000
vn 0.000000 -1.000000 0.000000
vn 0.000000 -1.000000 0.000000
vn 0.000000 0.000000 1.000000
vn 0.000000 0.000000 1.000000
vn 0.000000 0.000000 1.000000
vn 0.000000 0.000000 1.000000
vn 1.000000 0.000000 0.000000
vn 1.000000 0.000000 0.000000
vn 1.000000 0.000000 0.000000
vn 1.000000 0.000000 0.000000
s off
f 4/12/1 8/13/2 5/14/3 1/2/4
f 4/1/5 3/10/6 7/9/7 8/11/8
f 5/3/9 6/16/10 2/7/11 1/15/12
f 7/5/13 6/19/14 5/17/15 8/4/16
f 3/6/17 2/18/18 6/8/19 7/20/20
f 4/21/21 1/22/22 9/23/23 12/24/24
f 4/25/25 12/26/26 11/27/27 3/28/28
f 9/29/29 1/30/30 2/31/31 10/32/32
f 11/33/33 12/34/34 9/35/35 10/36/36
f 3/37/37 11/38/38 10/39/39 2/40/40
