# This file uses centimeters as units for non-parametric coordinates.

v -18.822083 -0.030457 0.000026
v -18.822083 9.205444 0.000026
v -13.417114 -0.010155 13.417210
v -13.417114 9.205444 13.417210
v -11.250000 9.286674 0.000026
v 0.000000 9.205444 18.822109
v 0.000000 -0.010155 18.822109
v -11.250000 0.030457 0.000026
v 0.000000 -0.025482 11.250026
v 0.000000 9.237938 11.250026
vt 0.284002 0.266180
vt 0.283950 0.266384
vt 0.283653 0.266597
vt 0.283698 0.266393
vt 0.283222 0.266359
vt 0.283311 0.266205
vt 0.283771 0.266101
vt 0.283191 0.266563
vt 0.283726 0.266305
vt 0.283278 0.266410
vn -0.927566 0.000000 0.373660
vn -0.927566 0.000000 0.373660
vn -0.927566 0.000000 0.373660
vn -0.927566 0.000000 0.373660
vn -0.004030 0.999979 0.005005
vn -0.004030 0.999979 0.005005
vn -0.004030 0.999979 0.005005
vn -0.004030 0.999979 0.005005
vn -0.004030 0.999979 0.005005
vn -0.373658 0.000000 0.927567
vn -0.373658 0.000000 0.927567
vn -0.373658 0.000000 0.927567
vn -0.373658 0.000000 0.927567
vn 0.001164 -0.999998 -0.001448
vn 0.001164 -0.999998 -0.001448
vn 0.001164 -0.999998 -0.001448
vn 0.001164 -0.999998 -0.001448
vn 0.001164 -0.999998 -0.001448
vn 1.000000 0.000000 0.000000
vn 1.000000 0.000000 0.000000
vn 1.000000 0.000000 0.000000
vn 1.000000 0.000000 0.000000
vn 0.000000 0.000000 -1.000000
vn 0.000000 0.000000 -1.000000
vn 0.000000 0.000000 -1.000000
vn 0.000000 0.000000 -1.000000
vn 0.707107 0.000000 -0.707107
vn 0.707107 0.000000 -0.707107
vn 0.707107 0.000000 -0.707107
vn 0.707107 0.000000 -0.707107
s off
f 2/1/1 1/2/2 3/3/3 4/4/4
f 2/1/5 4/4/6 6/5/7 10/6/8 5/7/9
f 7/8/10 6/5/11 4/4/12 3/3/13
f 3/3/14 1/2/15 8/9/16 9/10/17 7/8/18
f 6/5/19 7/8/20 9/10/21 10/6/22
f 2/1/23 5/7/24 8/9/25 1/2/26
f 10/6/27 9/10/28 8/9/29 5/7/30
