# This file uses centimeters as units for non-parametric coordinates.

v 0.000000 -0.000003 18.725586
v 0.000000 50.011292 24.762146
v 0.000000 50.011292 11.250046
v 0.000000 -0.000003 11.250046
v 0.000000 5.135200 18.725586
v 0.000000 6.568953 16.591888
v 0.000000 36.324844 11.250046
v 0.000000 20.129848 16.591888
v 0.000000 21.229649 17.890472
v 0.000000 36.324844 17.890472
v 0.000000 37.109642 19.674835
v 0.000000 46.312778 24.762146
v 0.000000 45.576118 23.536804
v -18.725525 -0.000003 0.000015
v -11.250000 -0.000003 0.000046
v -11.250000 36.324844 0.000015
v -11.250000 50.413536 0.000015
v -24.762085 50.011292 0.000046
v -24.762085 46.312778 0.000046
v -23.536804 45.576118 0.000015
v -19.674805 37.109642 0.000046
v -17.890442 36.324844 0.000015
v -17.890442 21.229649 0.000015
v -16.591797 20.129848 0.000046
v -16.591858 6.568953 0.000076
v -18.725525 5.135200 0.000046
v -16.256866 45.576118 16.256897
v -13.589417 37.109642 13.589447
v -11.460052 20.129848 11.460052
v -11.460114 6.568953 11.460083
v -3.478271 23.957850 16.420380
v -16.420349 23.957850 3.478271
v -3.478271 33.596642 16.420380
v -16.420349 33.596642 3.478271
v -3.236267 25.541426 14.693359
v -14.693298 25.541426 3.236328
v -3.236267 32.013069 14.693359
v -14.693298 32.013069 3.236328
v -17.103210 46.312778 17.103271
v -17.103210 50.011292 17.103271
v -7.770386 50.212418 7.770432
v -7.770386 36.324844 7.770432
v -7.770386 -0.000003 7.770432
v -12.933777 -0.000003 12.933777
v -12.933777 5.135200 12.933777
v -12.356934 21.229649 12.356964
v -12.356934 23.957850 12.356934
v -11.134186 25.541426 11.134232
v -11.134186 32.013069 11.134232
v -12.356934 33.596642 12.356934
v -12.356934 36.324844 12.356964
vt 0.283118 0.268971
vt 0.283121 0.268966
vt 0.283112 0.268847
vt 0.283125 0.268847
vt 0.283127 0.268989
vt 0.283118 0.268992
vt 0.283125 0.268892
vt 0.283120 0.268913
vt 0.283119 0.268910
vt 0.283119 0.268885
vt 0.283117 0.268883
vt 0.283114 0.268859
vt 0.283112 0.268857
vt 0.321213 0.941310
vt 0.327454 0.994277
vt 0.283257 0.269040
vt 0.283263 0.269034
vt 0.283264 0.268905
vt 0.283264 0.268844
vt 0.283255 0.268844
vt 0.283255 0.268858
vt 0.282934 0.245015
vt 0.283258 0.268892
vt 0.283259 0.268895
vt 0.282764 0.244900
vt 0.159063 0.934210
vt 0.159063 0.876374
vt 0.283257 0.269011
vt 0.184541 0.994277
vt 0.190782 0.941310
vt 0.283135 0.268972
vt 0.283135 0.269017
vt 0.282973 0.269017
vt 0.282973 0.268966
vt 0.282757 0.244909
vt 0.282681 0.244816
vt 0.282686 0.244810
vt 0.282758 0.244950
vt 0.282774 0.244944
vt 0.282694 0.244842
vt 0.282681 0.244845
vt 0.282762 0.244823
vt 0.282764 0.244828
vt 0.282685 0.244759
vt 0.282683 0.244756
vt 0.282911 0.245032
vt 0.282842 0.244787
vt 0.282860 0.244779
vt 0.282911 0.245047
vt 0.282914 0.245049
vt 0.282845 0.244802
vt 0.282843 0.244800
vt 0.295062 0.876374
vt 0.295062 0.934210
vt 0.255997 0.994277
vt 0.282879 0.244925
vt 0.283187 0.268887
vt 0.255997 0.941310
vt 0.227212 0.934210
vt 0.282725 0.244794
vt 0.282725 0.244855
vt 0.227212 0.876374
vt 0.283135 0.269017
vt 0.282973 0.269017
vt 0.282973 0.268966
vt 0.283135 0.268972
vt 0.282826 0.245059
vt 0.282536 0.245057
vt 0.282536 0.244632
vt 0.282825 0.244630
vt 0.282826 0.245059
vt 0.282536 0.245057
vt 0.282536 0.244632
vt 0.282825 0.244630
vt 0.283661 0.227169
vt 0.283271 0.227204
vt 0.283281 0.226764
vt 0.283671 0.226739
vt 0.282877 0.244924
vt 0.283183 0.268857
vt 0.282877 0.244910
vt 0.283183 0.268845
vt 0.283194 0.268845
vt 0.282897 0.244897
vt 0.283195 0.268899
vt 0.282734 0.244893
vt 0.283195 0.269011
vt 0.283188 0.269016
vt 0.282719 0.244897
vt 0.282719 0.244863
vt 0.283187 0.268991
vt 0.282722 0.244789
vt 0.283054 0.269017
vt 0.283054 0.269017
vt 0.282681 0.245058
vt 0.282681 0.245058
vt 0.282671 0.227198
vt 0.282679 0.226760
vt 0.282680 0.244631
vt 0.282680 0.244631
vt 0.283054 0.268969
vt 0.283054 0.268969
vt 0.283189 0.268890
vt 0.283399 0.269510
vt 0.283293 0.269414
vt 0.283293 0.269163
vt 0.283407 0.268832
vt 0.283250 0.269540
vt 0.283249 0.269448
vt 0.283264 0.268845
vt 0.283225 0.268833
vt 0.283266 0.269145
vt 0.283135 0.268660
vt 0.283410 0.268540
vt 0.283106 0.268646
vt 0.283104 0.268564
vn -0.541128 0.805272 0.242317
vn -0.541128 0.805272 0.242317
vn -0.541128 0.805272 0.242317
vn -0.541128 0.805272 0.242317
vn -0.019528 0.999668 0.016828
vn -0.019528 0.999668 0.016828
vn -0.019528 0.999668 0.016828
vn -0.019528 0.999668 0.016828
vn 0.000000 -1.000000 -0.000000
vn 0.000000 -1.000000 -0.000000
vn 0.000000 -1.000000 -0.000000
vn 0.000000 -1.000000 -0.000000
vn 1.000000 0.000000 0.000000
vn 1.000000 0.000000 0.000000
vn 1.000000 0.000000 0.000000
vn 1.000000 0.000000 0.000000
vn -0.912671 -0.000001 0.408695
vn -0.912671 -0.000001 0.408695
vn -0.912671 -0.000001 0.408695
vn -0.912671 -0.000001 0.408695
vn 0.912670 -0.000000 -0.408697
vn 0.912670 -0.000000 -0.408697
vn 0.912670 -0.000000 -0.408697
vn 0.912670 -0.000000 -0.408697
vn 1.000000 0.000000 0.000000
vn 1.000000 0.000000 0.000000
vn 1.000000 0.000000 0.000000
vn 1.000000 0.000000 0.000000
vn -0.408694 0.000002 0.912672
vn -0.408694 0.000002 0.912672
vn -0.408694 0.000002 0.912672
vn -0.408694 0.000002 0.912672
vn 1.000000 0.000000 0.000000
vn 1.000000 0.000000 0.000000
vn 1.000000 0.000000 0.000000
vn 1.000000 0.000000 0.000000
vn 1.000000 0.000000 0.000000
vn 1.000000 0.000000 0.000000
vn 1.000000 0.000000 0.000000
vn 1.000000 0.000000 0.000000
vn 1.000000 0.000000 0.000000
vn 0.912670 0.000000 -0.408696
vn 0.912670 0.000000 -0.408696
vn 0.912670 0.000000 -0.408696
vn 0.912670 0.000000 -0.408696
vn -0.377307 -0.384336 0.842571
vn -0.377307 -0.384336 0.842571
vn -0.377307 -0.384336 0.842571
vn -0.377307 -0.384336 0.842571
vn -0.912670 0.000000 0.408696
vn -0.912670 0.000000 0.408696
vn -0.912670 0.000000 0.408696
vn -0.912670 0.000000 0.408696
vn 1.000000 0.000000 0.000000
vn 1.000000 0.000000 0.000000
vn 1.000000 0.000000 0.000000
vn 1.000000 0.000000 0.000000
vn -0.370629 -0.851626 0.370630
vn -0.370629 -0.851626 0.370630
vn -0.370629 -0.851626 0.370630
vn -0.370629 -0.851626 0.370630
vn -0.370629 -0.851626 0.370630
vn -0.370629 -0.851626 0.370630
vn -0.620811 -0.733014 0.278000
vn -0.620811 -0.733014 0.278000
vn -0.620811 -0.733014 0.278000
vn -0.620811 -0.733014 0.278000
vn -0.396208 -0.900855 0.177424
vn -0.396208 -0.900855 0.177424
vn -0.396208 -0.900855 0.177424
vn -0.396208 -0.900855 0.177424
vn -0.911703 0.000000 0.410850
vn -0.911703 0.000000 0.410850
vn -0.911703 0.000000 0.410850
vn -0.911703 0.000000 0.410850
vn -0.842570 -0.384337 0.377307
vn -0.842570 -0.384337 0.377307
vn -0.842570 -0.384337 0.377307
vn -0.842570 -0.384337 0.377307
vn -0.912673 0.000005 0.408691
vn -0.912673 0.000005 0.408691
vn -0.912673 0.000005 0.408691
vn -0.912673 0.000005 0.408691
vn -0.911132 -0.017001 0.411764
vn -0.911132 -0.017001 0.411764
vn -0.911132 -0.017001 0.411764
vn -0.911132 -0.017001 0.411764
vn -0.389307 0.000000 0.921108
vn -0.389307 0.000000 0.921108
vn -0.389307 0.000000 0.921108
vn -0.389307 0.000000 0.921108
vn -0.911132 0.017001 0.411764
vn -0.911132 0.017001 0.411764
vn -0.911132 0.017001 0.411764
vn -0.911132 0.017001 0.411764
vn -0.921108 0.000000 0.389308
vn -0.921108 0.000000 0.389308
vn -0.921108 0.000000 0.389308
vn -0.921108 0.000000 0.389308
vn -0.631265 0.720582 0.286819
vn -0.631265 0.720582 0.286819
vn -0.631265 0.720582 0.286819
vn -0.631265 0.720582 0.286819
vn -0.990324 0.000000 -0.138772
vn -0.990324 0.000000 -0.138772
vn -0.990324 0.000000 -0.138772
vn -0.990324 0.000000 -0.138772
vn -0.631265 -0.720583 0.286819
vn -0.631265 -0.720583 0.286819
vn -0.631265 -0.720583 0.286819
vn -0.631265 -0.720583 0.286818
vn 0.138736 0.000000 0.990330
vn 0.138736 0.000000 0.990330
vn 0.138736 0.000000 0.990330
vn 0.138736 0.000000 0.990330
vn -0.408697 0.000000 0.912670
vn -0.408697 0.000000 0.912670
vn -0.408697 0.000000 0.912670
vn -0.408697 0.000000 0.912670
vn 0.003502 0.999941 0.010234
vn 0.003502 0.999942 0.010234
vn 0.003502 0.999941 0.010234
vn 0.003502 0.999941 0.010234
vn 0.408698 0.000000 -0.912670
vn 0.408698 0.000000 -0.912670
vn 0.408698 0.000000 -0.912670
vn 0.408698 0.000000 -0.912670
vn 0.408698 0.000000 -0.912670
vn 0.408698 0.000000 -0.912670
vn 0.408698 0.000000 -0.912670
vn 0.408698 0.000000 -0.912670
vn 0.000000 -1.000000 0.000000
vn 0.000000 -1.000000 0.000000
vn 0.000000 -1.000000 0.000000
vn 0.000000 -1.000000 0.000000
vn -0.408698 0.000000 0.912670
vn -0.408698 0.000000 0.912670
vn -0.408698 0.000000 0.912670
vn -0.408698 0.000000 0.912670
vn -0.242316 0.805276 0.541123
vn -0.242316 0.805276 0.541123
vn -0.242316 0.805276 0.541123
vn -0.242316 0.805276 0.541123
vn -0.278003 -0.733011 0.620814
vn -0.278003 -0.733011 0.620814
vn -0.278003 -0.733011 0.620814
vn -0.278003 -0.733011 0.620814
vn -0.411765 -0.017000 0.911131
vn -0.411765 -0.017000 0.911131
vn -0.411765 -0.017000 0.911131
vn -0.411765 -0.017000 0.911131
vn -0.286821 0.720580 0.631268
vn -0.286821 0.720580 0.631268
vn -0.286821 0.720580 0.631268
vn -0.286821 0.720579 0.631268
vn -0.410851 0.000000 0.911703
vn -0.410851 0.000000 0.911703
vn -0.410851 0.000000 0.911703
vn -0.410851 0.000000 0.911703
vn -0.286821 -0.720580 0.631267
vn -0.286821 -0.720580 0.631267
vn -0.286821 -0.720580 0.631267
vn -0.286821 -0.720580 0.631267
vn -0.411766 0.017000 0.911131
vn -0.411766 0.017000 0.911131
vn -0.411766 0.017000 0.911131
vn -0.411766 0.017000 0.911131
vn -0.177425 -0.900854 0.396209
vn -0.177425 -0.900854 0.396209
vn -0.177425 -0.900854 0.396209
vn -0.177425 -0.900854 0.396209
vn -0.000005 -0.000001 -1.000000
vn -0.000005 -0.000001 -1.000000
vn -0.000005 -0.000001 -1.000000
vn -0.000005 -0.000001 -1.000000
vn 0.000005 0.000008 -1.000000
vn 0.000005 0.000008 -1.000000
vn 0.000005 0.000008 -1.000000
vn 0.000005 0.000008 -1.000000
vn -0.000001 -0.000001 -1.000000
vn -0.000001 -0.000001 -1.000000
vn -0.000001 -0.000001 -1.000000
vn -0.000001 -0.000001 -1.000000
vn -0.000001 -0.000001 -1.000000
vn 0.000004 -0.000002 -1.000000
vn 0.000004 -0.000002 -1.000000
vn 0.000004 -0.000002 -1.000000
vn 0.000004 -0.000002 -1.000000
vn -0.000004 0.000006 -1.000000
vn -0.000004 0.000006 -1.000000
vn -0.000004 0.000006 -1.000000
vn -0.000004 0.000006 -1.000000
s off
f 26/35/1 45/90/2 30/61/3 25/25/4
f 17/22/5 18/46/6 40/81/7 41/84/8
f 14/38/9 15/39/10 43/86/11 44/89/12
f 4/5/13 6/2/14 5/1/15 1/6/16
f 26/28/17 14/16/18 44/88/19 45/91/20
f 15/17/21 16/18/22 42/85/23 43/87/24
f 6/2/25 4/5/26 7/7/27 8/8/28
f 29/59/29 30/62/30 6/53/31 8/54/32
f 9/9/33 8/8/34 7/7/35 10/10/36
f 11/11/37 10/10/38 7/7/39 3/4/40 13/12/41
f 16/18/42 17/19/43 41/83/44 42/85/45
f 11/14/46 13/15/47 27/55/48 28/58/49
f 18/20/50 19/21/51 39/80/52 40/82/53
f 12/13/54 13/12/55 3/4/56 2/3/57
f 12/52/58 39/79/59 19/49/60 20/50/61 27/56/62 13/51/63
f 29/60/64 46/92/65 23/42/66 24/43/67
f 22/24/68 51/103/69 28/57/70 21/23/71
f 36/75/72 48/76/73 49/77/74 38/78/75
f 28/58/76 27/55/77 20/29/78 21/30/79
f 24/26/80 25/27/81 30/62/82 29/59/83
f 23/32/84 46/93/85 47/94/86 32/63/87
f 9/33/88 10/34/89 33/65/90 31/64/91
f 50/101/92 51/102/93 22/31/94 34/66/95
f 22/31/96 23/32/97 32/63/98 34/66/99
f 32/67/100 47/95/101 48/96/102 36/71/103
f 31/68/104 33/69/105 37/73/106 35/72/107
f 49/99/108 50/100/109 34/70/110 38/74/111
f 34/70/112 32/67/113 36/71/114 38/74/115
f 40/82/116 39/80/117 12/13/118 2/3/119
f 41/84/120 40/81/121 2/47/122 3/48/123
f 42/85/124 41/83/125 3/4/126 7/7/127
f 43/87/128 42/85/129 7/7/130 4/5/131
f 44/89/132 43/86/133 4/40/134 1/41/135
f 45/91/136 44/88/137 1/6/138 5/1/139
f 30/61/140 45/90/141 5/36/142 6/37/143
f 9/45/144 46/92/145 29/60/146 8/44/147
f 47/94/148 46/93/149 9/33/150 31/64/151
f 48/96/152 47/95/153 31/68/154 35/72/155
f 49/77/156 48/76/157 35/97/158 37/98/159
f 33/69/160 50/100/161 49/99/162 37/73/163
f 10/34/164 51/102/165 50/101/166 33/65/167
f 28/57/168 51/103/169 10/10/170 11/11/171
f 15/104/172 25/105/173 24/106/174 16/107/175
f 15/104/176 14/108/177 26/109/178 25/105/179
f 16/107/180 22/110/181 21/111/182 20/113/183 17/114/184
f 16/107/185 24/106/186 23/112/187 22/110/188
f 17/114/189 20/113/190 19/115/191 18/116/192
