# This file uses centimeters as units for non-parametric coordinates.

v -63.928955 25.341368 59.204224
v -63.928955 25.341368 -59.259487
v -63.928955 -6.015180 59.204224
v -63.928955 -6.015180 -59.349373
v 63.928955 22.116243 -48.470058
v 63.928955 22.116243 48.527901
v 63.928955 -6.015185 48.683239
v 63.928955 -6.015185 -48.528774
v 60.739258 29.061518 -61.979763
v 60.739258 29.061518 61.885590
v 60.739258 -6.015180 62.073498
v 60.739258 -6.015180 -62.055882
v -63.928955 25.341368 -33.924267
v 60.739258 29.061518 -40.534996
v 63.928955 22.768898 -24.098413
v 60.739258 -6.015185 -27.198511
v -63.928955 -6.015180 -26.759735
v -63.928955 25.341368 39.627846
v 60.739258 29.061518 37.326538
v 63.928955 22.768898 28.471275
v 60.739258 -6.015185 32.859856
v -63.928955 -6.015180 32.198189
v 60.739258 41.695671 30.019215
v -63.928955 10.889822 31.865086
v 63.928955 35.376190 28.959915
v 60.739258 41.695671 -23.942442
v -63.928955 10.889822 -25.459448
v 63.928955 35.376190 -24.615734
v -60.635498 29.061518 -61.979763
v -60.635498 29.061518 -31.910553
v -60.635498 41.695671 -23.942354
v -60.635498 41.695671 30.019215
v -60.635498 29.061518 37.326538
v -60.635498 29.061518 61.885590
v -60.635498 -6.015180 61.888783
v -60.578613 -6.015180 33.599468
v -60.578613 -6.015180 -27.954699
v -60.635498 -6.015180 -62.073498
v -43.525391 29.061518 37.326450
v -2.265869 29.061518 37.326538
v -29.588135 36.719261 33.391579
v -29.088379 29.061518 33.551685
v 28.799316 29.061518 61.885590
v 1.076416 29.061518 61.885590
v 16.145020 29.061518 57.020351
v 16.174805 22.685156 61.886158
v 43.733154 29.061518 -31.910728
v 60.739258 27.093052 -27.911415
vt 0.283398 0.227210
vt 0.283398 0.227364
vt 0.283398 0.227349
vt 0.283398 0.227211
vt 0.283398 0.227457
vt 0.283398 0.227461
vt 0.283398 0.267659
vt 0.283398 0.267689
vt 0.283398 0.267684
vt 0.283398 0.267654
vt 0.283398 0.227484
vt 0.283398 0.227481
vt 0.283398 0.227458
vt 0.283398 0.227490
vt 0.283398 0.227484
vt 0.283398 0.227453
vt 0.283398 0.227465
vt 0.283398 0.267665
vt 0.283398 0.227467
vt 0.283398 0.227463
vt 0.283398 0.267663
vt 0.283398 0.227632
vt 0.283398 0.227644
vt 0.283398 0.227484
vt 0.283398 0.267683
vt 0.283398 0.227480
vt 0.283398 0.227670
vt 0.283398 0.227477
vt 0.283398 0.267677
vt 0.283398 0.227481
vt 0.283398 0.267681
vt 0.283398 0.227774
vt 0.283398 0.227786
vt 0.283398 0.227478
vt 0.283398 0.227469
vt 0.283398 0.267669
vt 0.283398 0.227384
vt 0.283398 0.227469
vt 0.283398 0.267662
vt 0.283398 0.267670
vt 0.283398 0.267673
vt 0.283398 0.267684
vt 0.283398 0.267687
vt 0.283398 0.267693
vt 0.283398 0.267687
vt 0.283398 0.267680
vt 0.283398 0.267666
vt 0.283398 0.267657
vt 0.283398 0.227348
vt 0.283398 0.227211
vt 0.283398 0.227382
vt 0.283398 0.227628
vt 0.283398 0.227666
vt 0.283398 0.227780
vt 0.283398 0.227769
vt 0.283398 0.227640
vt 0.283398 0.227362
vt 0.283398 0.227210
vt 0.283398 0.267686
vt 0.283398 0.267685
vt 0.283398 0.267685
vt 0.283398 0.267687
vt 0.283398 0.267690
vt 0.283398 0.267691
vt 0.283398 0.267690
vt 0.283398 0.267690
vt 0.283398 0.267667
vt 0.283398 0.227467
vt 0.283398 0.267668
vt 0.283398 0.248566
vt 0.283398 0.248574
vt 0.283398 0.248568
vt 0.283398 0.248575
vt 0.283398 0.248609
vt 0.283398 0.248601
vt 0.283398 0.248603
vt 0.283398 0.248609
vt 0.283398 0.248510
vt 0.283398 0.248522
vt 0.283398 0.248506
vn -1.000000 0.000000 0.000000
vn -1.000000 0.000000 0.000000
vn -1.000000 0.000000 0.000000
vn -1.000000 0.000000 0.000000
vn 0.866169 0.493387 0.079503
vn 0.866169 0.493387 0.079503
vn 0.866169 0.493387 0.079503
vn 0.866169 0.493387 0.079503
vn 0.866169 0.493387 0.079503
vn 0.972790 0.001258 0.231684
vn 0.972790 0.001258 0.231684
vn 0.972790 0.001258 0.231684
vn 0.972790 0.001258 0.231684
vn -0.000002 -1.000000 0.000000
vn -0.000002 -1.000000 0.000000
vn -0.000002 -1.000000 0.000000
vn 0.973302 0.000489 -0.229527
vn 0.973302 0.000489 -0.229527
vn 0.973302 0.000489 -0.229527
vn 0.973302 0.000489 -0.229527
vn 0.000000 1.000000 -0.000000
vn 0.000000 1.000000 -0.000000
vn 0.000000 1.000000 -0.000000
vn 0.000000 1.000000 -0.000000
vn 0.000000 1.000000 -0.000000
vn 0.000000 0.000091 1.000000
vn 0.000000 0.000091 1.000000
vn 0.000000 0.000091 1.000000
vn 0.000000 0.000091 1.000000
vn -0.000000 -1.000000 -0.000000
vn -0.000000 -1.000000 -0.000000
vn -0.000000 -1.000000 -0.000000
vn -0.000000 -1.000000 -0.000000
vn 0.000073 0.002421 -0.999997
vn 0.000073 0.002421 -0.999997
vn 0.000073 0.002421 -0.999997
vn 0.000073 0.002421 -0.999997
vn 0.000000 0.560991 0.827822
vn 0.000000 0.560991 0.827822
vn 0.000000 0.560991 0.827822
vn 0.789352 0.306273 0.532091
vn 0.789352 0.306273 0.532091
vn 0.789352 0.306273 0.532091
vn 0.789352 0.306273 0.532091
vn -1.000000 -0.000000 0.000000
vn -1.000000 -0.000000 0.000000
vn -1.000000 -0.000000 0.000000
vn 0.908745 0.417351 0.000000
vn 0.908745 0.417351 0.000000
vn 0.908745 0.417351 0.000000
vn 0.908745 0.417351 0.000000
vn -0.000002 -1.000000 -0.000000
vn -0.000002 -1.000000 -0.000000
vn -0.000002 -1.000000 -0.000000
vn -0.000000 -1.000000 0.000000
vn -0.000000 -1.000000 0.000000
vn -0.000000 -1.000000 0.000000
vn -0.000000 -1.000000 0.000000
vn -1.000000 0.000000 0.000000
vn -1.000000 0.000000 0.000000
vn -1.000000 0.000000 0.000000
vn -1.000000 0.000000 0.000000
vn 0.000000 1.000000 0.000000
vn 0.000000 1.000000 0.000000
vn 0.000000 1.000000 0.000000
vn 0.000000 1.000000 0.000000
vn -1.000000 0.000000 0.000000
vn -1.000000 0.000000 0.000000
vn -1.000000 0.000000 0.000000
vn -1.000000 0.000000 0.000000
vn -0.000000 -1.000000 0.000000
vn -0.000000 -1.000000 0.000000
vn -0.000000 -1.000000 0.000000
vn -0.000000 -1.000000 0.000000
vn 0.892728 0.450595 0.000000
vn 0.892728 0.450595 0.000000
vn 0.892728 0.450595 0.000000
vn 0.892728 0.450595 0.000000
vn 0.305316 0.178916 -0.935292
vn 0.305316 0.178916 -0.935292
vn 0.305316 0.178916 -0.935292
vn -1.000000 0.000000 0.000000
vn -1.000000 0.000000 0.000000
vn -1.000000 0.000000 0.000000
vn -0.428942 0.290220 -0.855442
vn -0.428942 0.290220 -0.855442
vn -0.428942 0.290220 -0.855442
vn -0.428942 0.290220 -0.855442
vn -0.748741 0.662862 0.000000
vn -0.748741 0.662862 0.000000
vn -0.748741 0.662862 0.000000
vn -0.748741 0.662862 0.000000
vn -0.982461 0.185339 0.020497
vn -0.982461 0.185339 0.020497
vn -0.982461 0.185339 0.020497
vn -0.982461 0.185339 0.020497
vn -0.994334 0.106304 0.000000
vn -0.994334 0.106304 0.000000
vn -0.994334 0.106304 0.000000
vn -0.994334 0.106304 0.000000
vn -0.982529 0.184772 -0.022283
vn -0.982529 0.184771 -0.022283
vn -0.982529 0.184771 -0.022283
vn -0.982529 0.184772 -0.022283
vn -0.748741 0.662862 0.000000
vn -0.748741 0.662862 0.000000
vn -0.748741 0.662862 0.000000
vn -0.748741 0.662862 0.000000
vn -0.631602 0.000037 0.775293
vn -0.631602 0.000037 0.775293
vn -0.631602 0.000037 0.775293
vn -0.631602 0.000037 0.775293
vn 0.000000 -1.000000 -0.000000
vn 0.000000 -1.000000 -0.000000
vn 0.000000 -1.000000 -0.000000
vn 0.000000 -1.000000 -0.000000
vn 0.000000 -1.000000 0.000000
vn 0.000000 -1.000000 0.000000
vn 0.000000 -1.000000 0.000000
vn 0.000000 -1.000000 0.000000
vn 0.000000 -1.000000 0.000000
vn 0.000000 -1.000000 0.000000
vn 0.000000 -1.000000 0.000000
vn 0.000000 -1.000000 0.000000
vn -0.637806 0.002129 -0.770194
vn -0.637806 0.002129 -0.770194
vn -0.637806 0.002129 -0.770194
vn -0.637806 0.002129 -0.770194
vn 0.252790 0.036711 0.966824
vn 0.252790 0.036711 0.966824
vn 0.252790 0.036711 0.966824
vn -0.139352 0.011608 0.990175
vn -0.139352 0.011608 0.990175
vn -0.139352 0.011608 0.990175
vn 0.248447 0.588356 0.769487
vn 0.248447 0.588356 0.769487
vn 0.248447 0.588357 0.769487
vn -0.292529 0.579244 0.760857
vn -0.292529 0.579244 0.760857
vn -0.292529 0.579244 0.760857
vn 0.264441 0.811271 0.521449
vn 0.264441 0.811271 0.521449
vn 0.264441 0.811272 0.521449
vn 0.000000 1.000000 0.000000
vn 0.000000 1.000000 0.000000
vn 0.000000 1.000000 0.000000
vn 0.000000 1.000000 0.000000
vn 0.000000 1.000000 0.000000
vn 0.000000 1.000000 0.000000
vn 0.000000 1.000000 0.000000
vn -0.010397 0.490047 0.871634
vn -0.010397 0.490047 0.871634
vn -0.010397 0.490047 0.871634
vn -0.010397 0.490047 0.871634
vn 0.003356 0.488072 0.872797
vn 0.003356 0.488072 0.872797
vn 0.003356 0.488072 0.872797
vn 0.003356 0.488072 0.872797
vn -0.000667 0.004750 0.999989
vn -0.000667 0.004750 0.999989
vn -0.000667 0.004750 0.999989
vn -0.000667 0.004750 0.999989
vn -0.001522 0.004164 0.999990
vn -0.001522 0.004164 0.999990
vn -0.001522 0.004164 0.999990
vn 0.000000 1.000000 0.000000
vn 0.000000 1.000000 0.000000
vn 0.000000 1.000000 0.000000
vn 0.000000 1.000000 -0.000001
vn 0.000000 1.000000 -0.000001
vn 0.000000 1.000000 -0.000001
vn -0.000001 0.533456 -0.845828
vn -0.000001 0.533456 -0.845828
vn -0.000001 0.533456 -0.845828
vn -0.000001 0.533456 -0.845828
vn 0.000000 1.000000 -0.000000
vn 0.000000 1.000000 -0.000000
vn 0.000000 1.000000 -0.000000
vn 0.000000 1.000000 -0.000000
vn 0.000000 1.000000 -0.000000
vn 1.000000 -0.000000 0.000000
vn 1.000000 -0.000000 0.000000
vn 1.000000 -0.000000 0.000000
vn 1.000000 -0.000000 0.000000
vn 0.999752 -0.022292 0.000000
vn 1.000000 -0.000000 0.000000
vn 1.000000 0.000000 0.000000
vn 0.999844 -0.017646 0.000000
vn 0.999752 -0.022292 0.000000
vn 0.000000 -1.000000 0.000000
vn 0.000000 -1.000000 0.000000
vn 1.000000 0.000000 0.000000
vn 1.000000 -0.000000 0.000000
vn 0.999844 -0.017646 0.000000
vn 0.999844 -0.017646 0.000000
vn 1.000000 -0.000000 0.000000
vn 1.000000 -0.000000 0.000000
vn 0.999752 -0.022292 0.000000
s off
f 4/1/1 17/2/2 13/3/3 2/4/4
f 14/17/5 48/68/6 15/19/7 5/6/8 9/13/9
f 10/14/10 11/15/11 7/12/12 6/11/13
f 8/5/14 16/20/15 12/16/16
f 5/6/17 8/5/18 12/16/19 9/13/20
f 29/39/21 30/40/22 47/67/23 14/18/24 9/7/25
f 34/44/26 35/45/27 46/66/28 44/64/29
f 12/10/30 16/21/31 37/47/32 38/48/33
f 9/7/34 12/10/35 38/48/36 29/39/37
f 32/42/38 41/61/39 23/31/40
f 19/24/41 20/26/42 25/34/43 23/30/44
f 24/22/45 22/23/46 18/27/47
f 6/11/48 20/26/49 19/24/50 10/14/51
f 21/28/52 7/12/53 11/15/54
f 35/45/55 36/46/56 21/29/57 11/9/58
f 18/27/59 22/23/60 3/32/61 1/33/62
f 31/41/63 32/42/64 23/31/65 26/36/66
f 27/37/67 17/2/68 22/23/69 24/22/70
f 36/46/71 37/47/72 16/21/73 21/29/74
f 23/30/75 25/34/76 28/38/77 26/35/78
f 47/67/79 26/36/80 48/69/81
f 13/3/82 17/2/83 27/37/84
f 26/35/85 28/38/86 15/19/87 48/68/88
f 13/3/89 30/49/90 29/50/91 2/4/92
f 27/37/93 31/51/94 30/49/95 13/3/96
f 24/22/97 32/52/98 31/51/99 27/37/100
f 18/27/101 33/53/102 32/52/103 24/22/104
f 34/54/105 33/53/106 18/27/107 1/33/108
f 1/33/109 3/32/110 35/55/111 34/54/112
f 22/23/113 36/56/114 35/55/115 3/32/116
f 17/2/117 37/57/118 36/56/119 22/23/120
f 38/58/121 37/57/122 17/2/123 4/1/124
f 29/50/125 38/58/126 4/1/127 2/4/128
f 39/70/129 42/71/130 41/72/131
f 41/72/132 42/71/133 40/73/134
f 46/74/135 45/75/136 44/76/137
f 43/77/138 45/75/139 46/74/140
f 47/78/141 48/79/142 14/80/143
f 45/65/144 19/25/145 40/60/146
f 10/8/147 19/25/148 45/65/149 43/63/150
f 32/42/151 33/43/152 39/59/153 41/61/154
f 23/31/155 41/61/156 40/60/157 19/25/158
f 46/66/159 11/9/160 10/8/161 43/63/162
f 46/66/163 35/45/164 11/9/165
f 34/44/166 39/59/167 33/43/168
f 39/59/169 40/60/170 42/62/171
f 30/40/172 31/41/173 26/36/174 47/67/175
f 45/65/176 40/60/177 39/59/178 34/44/179 44/64/180
f 20/26/181 15/19/182 28/38/183 25/34/184
f 7/12/185 20/26/186 6/11/187
f 8/5/188 7/12/189 21/29/190 16/20/191
f 5/6/192 15/19/193 8/5/194
f 8/5/195 15/19/196 20/26/197 7/12/198
