# This file uses centimeters as units for non-parametric coordinates.

v 19.158691 -1.507607 -19.241058
v -19.323059 -1.507607 -19.241058
v 10.070068 25.196823 -10.152252
v -10.234009 25.196823 -10.152252
v 25.922241 0.416527 -22.845856
v 14.779968 22.431740 -14.862274
v -26.086182 0.416527 -22.845856
v -14.944214 22.431740 -14.862274
v 22.763611 11.868561 -22.845917
v 25.922241 10.841270 -22.845856
v -26.086182 10.841270 -22.845856
v -22.927856 11.868561 -22.845917
v 22.763611 11.868561 22.845612
v 25.922241 10.841270 22.845612
v 19.158691 -1.507607 19.240631
v 25.922241 0.416527 22.845612
v -19.323059 -1.507607 19.240631
v -22.927856 11.868561 22.845612
v -26.086182 10.841270 22.845612
v -26.086182 0.416527 22.845612
v 10.070068 25.196823 10.151947
v -10.234009 25.196823 10.151947
v -14.944214 22.431740 14.861908
v 14.779968 22.431740 14.861908
v 22.763672 10.841286 -26.004364
v -22.927856 10.841263 -26.004364
v -22.927856 10.841270 26.004059
v 22.763672 10.841270 26.004059
v 22.763611 0.416527 -26.004364
v -22.927795 0.416519 -26.004364
v -22.927795 0.416527 26.004120
v 22.763672 0.416527 26.004120
v -28.512024 -133.015732 28.512054
v 28.512024 -133.015732 28.512054
v -28.512024 1.356857 28.512054
v 28.512024 1.356857 28.512054
v -28.512024 1.356857 -28.512054
v 28.512024 1.356857 -28.512054
v -28.512024 -133.015732 -28.512054
v 28.512024 -133.015732 -28.512054
v -28.512024 -6.121500 28.512054
v 28.512024 -6.121500 28.512054
v 28.512024 -6.121538 -28.512054
v -28.512024 -6.121538 -28.512054
v -25.422485 -7.532524 25.422455
v 25.422485 -7.532524 25.422455
v 25.422485 -7.532600 -25.422455
v -25.422485 -7.532600 -25.422455
v -28.512024 -28.586109 28.512054
v 28.512024 -28.586109 28.512054
v 28.512024 -28.586166 -28.512054
v -28.512024 -28.586166 -28.512054
v 25.422485 -25.284220 -25.422455
v 25.422485 -25.284161 25.422455
v -25.422485 -25.284161 25.422455
v -25.422485 -25.284220 -25.422455
vt 0.682943 0.913081
vt 0.678563 0.912655
vt 0.681153 0.908551
vt 0.610832 0.885363
vt 0.617801 0.884199
vt 0.615211 0.888303
vt 0.650555 0.933645
vt 0.622403 0.922824
vt 0.619734 0.912684
vt 0.660947 0.928526
vt 0.645476 0.954257
vt 0.638507 0.955420
vt 0.641097 0.953831
vt 0.575155 0.931068
vt 0.573365 0.926539
vt 0.577744 0.929480
vt 0.605753 0.941122
vt 0.633905 0.951943
vt 0.636574 0.955313
vt 0.595360 0.939471
vt 0.639054 0.932286
vt 0.645476 0.941495
vt 0.682943 0.900319
vt 0.670609 0.897607
vt 0.573365 0.913777
vt 0.610832 0.872601
vt 0.585699 0.911777
vt 0.617253 0.877098
vt 0.638507 0.942658
vt 0.575155 0.918306
vt 0.617801 0.871437
vt 0.681153 0.895789
vt 0.612115 0.858197
vt 0.691180 0.888589
vt 0.691180 0.897744
vt 0.612115 0.867352
vt 0.644421 0.949133
vt 0.565356 0.918741
vt 0.644421 0.939978
vt 0.565356 0.909586
vt 0.565356 0.758747
vt 0.644421 0.789138
vt 0.691180 0.737749
vt 0.612115 0.707358
vt 0.613865 0.860901
vt 0.684363 0.887999
vt 0.642671 0.933819
vt 0.572173 0.906721
vt 0.612115 0.830696
vt 0.691180 0.861088
vt 0.684363 0.866268
vt 0.613865 0.839169
vt 0.644421 0.912476
vt 0.642671 0.912088
vt 0.572173 0.884990
vt 0.565356 0.882085
vt 0.200047 0.990476
vt 0.300823 0.990477
vt 0.300823 0.945072
vt 0.200047 0.945072
vt 0.300823 0.990477
vt 0.200047 0.990476
vt 0.200047 0.945072
vt 0.300823 0.945072
vt 0.200047 0.945072
vt 0.300823 0.945072
vt 0.300823 0.990476
vt 0.200047 0.990476
vt 0.200047 0.990477
vt 0.300823 0.990477
vt 0.300823 0.945072
vt 0.200047 0.945072
vn 0.295476 0.908505 0.295487
vn 0.295476 0.908505 0.295487
vn 0.295476 0.908505 0.295487
vn -0.295501 0.908496 0.295490
vn -0.295501 0.908496 0.295490
vn -0.295501 0.908496 0.295490
vn 0.000000 0.950964 0.309302
vn 0.000000 0.950964 0.309302
vn 0.000000 0.950964 0.309302
vn 0.000000 0.950964 0.309302
vn 0.000000 0.862373 0.506274
vn 0.000000 0.862373 0.506274
vn 0.000000 0.862373 0.506274
vn 0.000000 0.862373 0.506274
vn 0.295481 0.908505 -0.295483
vn 0.295481 0.908505 -0.295483
vn 0.295481 0.908505 -0.295483
vn -0.295506 0.908494 -0.295491
vn -0.295506 0.908494 -0.295491
vn -0.295506 0.908494 -0.295491
vn -0.000000 0.950964 -0.309301
vn -0.000000 0.950964 -0.309301
vn -0.000000 0.950964 -0.309301
vn -0.000000 0.950964 -0.309301
vn 0.000000 0.862375 -0.506269
vn 0.000000 0.862375 -0.506269
vn 0.000000 0.862375 -0.506269
vn 0.000000 0.862376 -0.506269
vn 0.309286 0.950969 0.000000
vn 0.309286 0.950969 0.000000
vn 0.309286 0.950969 0.000000
vn 0.309286 0.950969 0.000000
vn 0.273628 -0.961836 0.000000
vn 0.273628 -0.961836 0.000000
vn 0.273628 -0.961836 0.000000
vn 0.273628 -0.961836 0.000000
vn 1.000000 0.000000 0.000000
vn 1.000000 0.000000 0.000000
vn 1.000000 0.000000 0.000000
vn 1.000000 0.000000 0.000000
vn -0.309313 0.950960 0.000000
vn -0.309313 0.950960 0.000000
vn -0.309313 0.950960 0.000000
vn -0.309313 0.950960 0.000000
vn -1.000000 0.000000 0.000000
vn -1.000000 0.000000 0.000000
vn -1.000000 0.000000 0.000000
vn -1.000000 0.000000 0.000000
vn -0.273645 -0.961831 0.000000
vn -0.273645 -0.961831 0.000000
vn -0.273645 -0.961831 0.000000
vn -0.273645 -0.961831 0.000000
vn 0.000000 -1.000000 0.000000
vn 0.000000 -1.000000 0.000000
vn 0.000000 -1.000000 0.000000
vn 0.000000 -1.000000 0.000000
vn 0.000000 1.000000 0.000000
vn 0.000000 1.000000 0.000000
vn 0.000000 1.000000 0.000000
vn 0.000000 1.000000 0.000000
vn -0.506255 0.862384 0.000000
vn -0.506255 0.862384 0.000000
vn -0.506255 0.862384 0.000000
vn -0.506255 0.862384 0.000000
vn -0.797774 0.602957 0.000000
vn -0.797774 0.602957 0.000000
vn -0.797774 0.602957 0.000000
vn -0.797774 0.602957 0.000000
vn 0.797774 0.602957 0.000000
vn 0.797774 0.602957 0.000000
vn 0.797774 0.602957 0.000000
vn 0.797774 0.602957 0.000000
vn 0.506279 0.862370 0.000000
vn 0.506279 0.862370 0.000000
vn 0.506279 0.862370 0.000000
vn 0.506279 0.862370 0.000000
vn 0.000000 0.602960 0.797772
vn 0.000000 0.602960 0.797772
vn 0.000000 0.602960 0.797772
vn 0.000000 0.602960 0.797772
vn 0.000000 0.602957 -0.797774
vn 0.000000 0.602957 -0.797774
vn 0.000000 0.602957 -0.797774
vn 0.000000 0.602957 -0.797774
vn 0.707097 -0.000002 -0.707117
vn 0.707097 -0.000002 -0.707117
vn 0.707097 -0.000002 -0.707117
vn 0.707097 -0.000002 -0.707117
vn 0.000000 0.000000 -1.000000
vn 0.000000 0.000000 -1.000000
vn 0.000000 0.000000 -1.000000
vn 0.000000 0.000000 -1.000000
vn -0.707124 -0.000002 -0.707090
vn -0.707124 -0.000002 -0.707090
vn -0.707124 -0.000002 -0.707090
vn -0.707124 -0.000002 -0.707090
vn -0.707121 0.000000 0.707093
vn -0.707121 0.000000 0.707093
vn -0.707120 0.000000 0.707093
vn -0.707121 0.000000 0.707093
vn 0.000000 0.000006 1.000000
vn 0.000000 0.000006 1.000000
vn 0.000000 0.000006 1.000000
vn 0.000000 0.000006 1.000000
vn 0.707097 0.000002 0.707117
vn 0.707097 0.000002 0.707117
vn 0.707097 0.000002 0.707117
vn 0.707097 0.000002 0.707117
vn 0.179496 -0.967243 -0.179503
vn 0.179496 -0.967243 -0.179503
vn 0.179496 -0.967243 -0.179503
vn 0.000000 -0.961833 -0.273637
vn 0.000000 -0.961833 -0.273637
vn 0.000000 -0.961833 -0.273637
vn 0.000000 -0.961833 -0.273637
vn -0.179509 -0.967242 -0.179500
vn -0.179509 -0.967242 -0.179500
vn -0.179509 -0.967242 -0.179500
vn -0.179505 -0.967243 0.179498
vn -0.179505 -0.967243 0.179498
vn -0.179505 -0.967243 0.179498
vn 0.000000 -0.961835 0.273631
vn 0.000000 -0.961835 0.273631
vn 0.000000 -0.961835 0.273631
vn 0.000000 -0.961835 0.273631
vn 0.179495 -0.967245 0.179498
vn 0.179495 -0.967245 0.179498
vn 0.179495 -0.967245 0.179498
vn 0.000000 0.000000 1.000000
vn 0.000000 0.000000 1.000000
vn 0.000000 0.000000 1.000000
vn 0.000000 0.000000 1.000000
vn 0.000000 1.000000 0.000000
vn 0.000000 1.000000 0.000000
vn 0.000000 1.000000 0.000000
vn 0.000000 1.000000 0.000000
vn 0.000000 0.000000 -1.000000
vn 0.000000 0.000000 -1.000000
vn 0.000000 0.000000 -1.000000
vn 0.000000 0.000000 -1.000000
vn 0.000000 -1.000000 0.000000
vn 0.000000 -1.000000 0.000000
vn 0.000000 -1.000000 0.000000
vn 0.000000 -1.000000 0.000000
vn 1.000000 0.000000 0.000000
vn 1.000000 0.000000 0.000000
vn 1.000000 0.000000 0.000000
vn 1.000000 0.000000 0.000000
vn -1.000000 0.000000 0.000000
vn -1.000000 0.000000 0.000000
vn -1.000000 0.000000 0.000000
vn -1.000000 0.000000 0.000000
vn 0.000000 -0.909626 0.415427
vn 0.000000 -0.909626 0.415427
vn 0.000000 -0.909626 0.415427
vn 0.000000 -0.909626 0.415427
vn 0.415439 -0.909621 0.000001
vn 0.415439 -0.909621 0.000001
vn 0.415439 -0.909621 0.000001
vn 0.415439 -0.909621 0.000001
vn 0.000000 -0.909622 -0.415437
vn 0.000000 -0.909622 -0.415437
vn 0.000000 -0.909622 -0.415437
vn 0.000000 -0.909622 -0.415437
vn -0.415439 -0.909621 0.000001
vn -0.415439 -0.909621 0.000001
vn -0.415439 -0.909621 0.000001
vn -0.415439 -0.909621 0.000001
vn 0.000000 0.683237 0.730197
vn 0.000000 0.683237 0.730197
vn 0.000000 0.683237 0.730197
vn 0.000000 0.683237 0.730197
vn 0.730203 0.683230 -0.000001
vn 0.730203 0.683230 -0.000001
vn 0.730203 0.683230 -0.000001
vn 0.730203 0.683230 -0.000001
vn 0.000000 0.683238 -0.730196
vn 0.000000 0.683238 -0.730196
vn 0.000000 0.683238 -0.730196
vn 0.000000 0.683238 -0.730196
vn -0.730203 0.683230 -0.000001
vn -0.730203 0.683230 -0.000001
vn -0.730203 0.683230 -0.000001
vn -0.730203 0.683230 -0.000001
vn 0.000000 0.000000 1.000000
vn 0.000000 0.000000 1.000000
vn 0.000000 0.000000 1.000000
vn 0.000000 0.000000 1.000000
vn 1.000000 0.000000 0.000000
vn 1.000000 0.000000 0.000000
vn 1.000000 0.000000 0.000000
vn 1.000000 0.000000 0.000000
vn 0.000000 0.000000 -1.000000
vn 0.000000 0.000000 -1.000000
vn 0.000000 0.000000 -1.000000
vn 0.000000 0.000000 -1.000000
vn -1.000000 0.000000 0.000000
vn -1.000000 0.000000 0.000000
vn -1.000000 0.000000 0.000000
vn -1.000000 0.000000 0.000000
vn 1.000000 0.000000 0.000000
vn 1.000000 0.000000 0.000000
vn 1.000000 0.000000 0.000000
vn 1.000000 0.000000 0.000000
vn 0.000000 0.000000 1.000000
vn 0.000000 0.000000 1.000000
vn 0.000000 0.000000 1.000000
vn 0.000000 0.000000 1.000000
vn -1.000000 0.000000 0.000000
vn -1.000000 0.000000 0.000000
vn -1.000000 0.000000 0.000000
vn -1.000000 0.000000 0.000000
vn 0.000000 0.000000 -1.000000
vn 0.000000 0.000000 -1.000000
vn 0.000000 0.000000 -1.000000
vn 0.000000 0.000000 -1.000000
s off
f 14/1/1 13/2/2 28/3/3
f 19/4/4 27/5/5 18/6/6
f 13/2/7 18/6/8 27/5/9 28/3/10
f 21/7/11 22/8/12 23/9/13 24/10/14
f 10/11/15 25/12/16 9/13/17
f 26/14/18 11/15/19 12/16/20
f 12/16/21 9/13/22 25/12/23 26/14/24
f 4/17/25 3/18/26 6/19/27 8/20/28
f 10/11/29 9/13/30 13/2/31 14/1/32
f 1/21/33 5/22/34 16/23/35 15/24/36
f 5/22/37 10/11/38 14/1/39 16/23/40
f 12/16/41 11/15/42 19/4/43 18/6/44
f 11/15/45 7/25/46 20/26/47 19/4/48
f 7/25/49 2/27/50 17/28/51 20/26/52
f 17/28/53 2/27/54 1/21/55 15/24/56
f 21/7/57 3/18/58 4/17/59 22/8/60
f 4/17/61 8/20/62 23/9/63 22/8/64
f 8/20/65 12/16/66 18/6/67 23/9/68
f 9/13/69 6/19/70 24/10/71 13/2/72
f 6/19/73 3/18/74 21/7/75 24/10/76
f 23/9/77 18/6/78 13/2/79 24/10/80
f 6/19/81 9/13/82 12/16/83 8/20/84
f 10/11/85 5/22/86 29/29/87 25/12/88
f 26/14/89 25/12/90 29/29/91 30/30/92
f 30/30/93 7/25/94 11/15/95 26/14/96
f 20/26/97 31/31/98 27/5/99 19/4/100
f 28/3/101 27/5/102 31/31/103 32/32/104
f 14/1/105 28/3/106 32/32/107 16/23/108
f 29/29/109 5/22/110 1/21/111
f 29/29/112 1/21/113 2/27/114 30/30/115
f 2/27/116 7/25/117 30/30/118
f 17/28/119 31/31/120 20/26/121
f 31/31/122 17/28/123 15/24/124 32/32/125
f 16/23/126 32/32/127 15/24/128
f 41/33/129 42/34/130 36/35/131 35/36/132
f 35/36/133 36/35/134 38/37/135 37/38/136
f 37/38/137 38/37/138 43/39/139 44/40/140
f 39/41/141 40/42/142 34/43/143 33/44/144
f 42/34/145 43/39/146 38/37/147 36/35/148
f 44/40/149 41/33/150 35/36/151 37/38/152
f 45/45/153 46/46/154 42/34/155 41/33/156
f 46/46/157 47/47/158 43/39/159 42/34/160
f 44/40/161 43/39/162 47/47/163 48/48/164
f 48/48/165 45/45/166 41/33/167 44/40/168
f 49/49/169 50/50/170 54/51/171 55/52/172
f 50/50/173 51/53/174 53/54/175 54/51/176
f 56/55/177 53/54/178 51/53/179 52/56/180
f 52/56/181 49/49/182 55/52/183 56/55/184
f 33/44/185 34/43/186 50/50/187 49/49/188
f 34/43/189 40/42/190 51/53/191 50/50/192
f 52/56/193 51/53/194 40/42/195 39/41/196
f 39/41/197 33/44/198 49/49/199 52/56/200
f 54/64/201 53/63/202 47/62/203 46/61/204
f 55/72/205 54/71/206 46/70/207 45/69/208
f 56/60/209 55/59/210 45/58/211 48/57/212
f 48/68/213 47/67/214 53/66/215 56/65/216
