# This file uses centimeters as units for non-parametric coordinates.

v 0.000000 25.000000 0.000000
v 0.000000 25.000000 -249.999146
v 0.000000 68.463501 -249.999146
v 0.000000 68.463501 0.000000
v -11.250000 25.000000 0.000000
v -11.250000 25.000000 -249.999146
v -11.250000 68.463501 -249.999146
v -11.250000 68.463501 0.000000
v 11.250000 25.000000 0.000000
v 11.250000 25.000000 -249.999146
v 11.250000 68.463501 -249.999146
v 11.250000 68.463501 0.000000
v -11.250000 99.850311 -124.999512
v 0.000000 99.850311 -124.999512
v 11.250000 99.850311 -124.999512
v 11.250000 25.000000 -124.999512
v 0.000000 25.000000 -124.999512
v -11.250000 25.000000 -124.999512
vt 0.001423 0.998471
vt -0.038908 0.125784
vt 0.001423 0.001434
vt 0.001423 0.270554
vt 0.998542 0.270554
vt 1.038920 0.269860
vt 0.998542 0.028023
vt 0.998541 0.126208
vt 0.998542 1.024574
vt 0.998542 0.998472
vt 0.001423 1.024573
vt -0.038908 0.269860
vt 0.001423 0.270784
vt 0.001423 0.126208
vt 0.001423 0.028023
vt 0.998542 0.001434
vt 0.001423 0.126083
vt 1.038920 0.125784
vt 0.998542 0.126083
vt 0.998541 0.270784
vt -0.038908 0.269860
vt -0.038908 0.125784
vt 0.001423 0.126208
vt 0.001423 0.270784
vt 0.001423 0.998471
vt 0.001423 1.024573
vt 0.998542 1.024574
vt 0.998542 0.998472
vt 0.001423 0.001434
vt 0.001423 0.028023
vt 0.998542 0.028023
vt 0.998542 0.001434
vt 0.998542 0.270554
vt 0.001423 0.270554
vt 0.001423 0.126083
vt 0.998542 0.126083
vt 1.038920 0.269860
vt 0.998541 0.270784
vt 0.998541 0.126208
vt 1.038920 0.125784
vt 0.499983 1.020855
vt 0.499983 0.374882
vt 0.499983 0.994753
vt 0.499983 0.994753
vt 0.499983 1.020855
vt 0.499983 0.374882
vt 0.499982 0.001434
vt 0.499982 0.126083
vt 0.499982 0.028023
vt 0.499982 0.028023
vt 0.499982 0.001434
vt 0.499982 0.126083
vn -0.000000 0.000000 1.000000
vn -0.000000 0.000000 1.000000
vn -0.000000 0.000000 1.000000
vn -0.000000 0.000000 1.000000
vn 0.000000 1.000000 0.000000
vn 0.000000 1.000000 0.000000
vn 0.000000 1.000000 0.000000
vn 0.000000 1.000000 0.000000
vn 0.000000 -1.000000 0.000000
vn 0.000000 -1.000000 0.000000
vn 0.000000 -1.000000 0.000000
vn 0.000000 -1.000000 0.000000
vn -1.000000 0.000000 -0.000000
vn -1.000000 0.000000 -0.000000
vn -1.000000 0.000000 0.000000
vn -1.000000 0.000000 0.000000
vn 0.000000 0.000000 -1.000000
vn 0.000000 0.000000 -1.000000
vn 0.000000 0.000000 -1.000000
vn 0.000000 0.000000 -1.000000
vn -0.000000 0.000000 1.000000
vn -0.000000 0.000000 1.000000
vn -0.000000 0.000000 1.000000
vn -0.000000 0.000000 1.000000
vn 0.000000 1.000000 0.000000
vn 0.000000 1.000000 0.000000
vn 0.000000 1.000000 0.000000
vn 0.000000 1.000000 0.000000
vn 0.000000 -1.000000 0.000000
vn 0.000000 -1.000000 0.000000
vn 0.000000 -1.000000 0.000000
vn 0.000000 -1.000000 0.000000
vn 1.000000 0.000000 0.000000
vn 1.000000 0.000000 0.000000
vn 1.000000 0.000000 0.000000
vn 1.000000 0.000000 0.000000
vn 0.000000 0.000000 -1.000000
vn 0.000000 0.000000 -1.000000
vn 0.000000 0.000000 -1.000000
vn 0.000000 0.000000 -1.000000
vn 0.000000 1.000000 0.000000
vn 0.000000 1.000000 0.000000
vn 0.000000 1.000000 0.000000
vn 0.000000 1.000000 0.000000
vn 0.000000 1.000000 0.000000
vn 0.000000 1.000000 0.000000
vn 0.000000 1.000000 0.000000
vn 0.000000 1.000000 0.000000
vn 1.000000 0.000000 0.000000
vn 1.000000 0.000000 0.000000
vn 1.000000 0.000000 0.000000
vn 1.000000 0.000000 0.000000
vn 0.000000 -1.000000 0.000000
vn 0.000000 -1.000000 0.000000
vn 0.000000 -1.000000 0.000000
vn 0.000000 -1.000000 0.000000
vn 0.000000 -1.000000 0.000000
vn 0.000000 -1.000000 0.000000
vn 0.000000 -1.000000 0.000000
vn 0.000000 -1.000000 0.000000
vn -1.000000 0.000000 0.000000
vn -1.000000 0.000000 0.000000
vn -1.000000 0.000000 -0.000000
vn -1.000000 0.000000 -0.000000
s off
f 4/12/1 8/13/2 5/14/3 1/2/4
f 14/43/5 3/10/6 7/9/7 13/41/8
f 18/51/9 6/16/10 2/7/11 17/49/12
f 7/5/13 6/19/14 18/52/15 13/42/16
f 3/6/17 2/18/18 6/8/19 7/20/20
f 4/21/21 1/22/22 9/23/23 12/24/24
f 14/44/25 15/45/26 11/27/27 3/28/28
f 16/47/29 17/50/30 2/31/31 10/32/32
f 11/33/33 15/46/34 16/48/35 10/36/36
f 3/37/37 11/38/38 10/39/39 2/40/40
f 4/1/41 14/43/42 13/41/43 8/11/44
f 4/25/45 12/26/46 15/45/47 14/44/48
f 16/48/49 15/46/50 12/34/51 9/35/52
f 9/29/53 1/30/54 17/50/55 16/47/56
f 5/3/57 18/51/58 17/49/59 1/15/60
f 13/42/61 18/52/62 5/17/63 8/4/64
