# This file uses centimeters as units for non-parametric coordinates.

v 500.000000 194.010864 -749.998047
v 500.000000 131.237183 -499.999023
v 750.000000 131.237183 -499.999023
v 750.000000 194.010864 -749.998047
v 500.000000 200.695831 -749.998047
v 500.000000 137.922150 -499.999023
v 750.000000 137.922150 -499.999023
v 750.000000 200.695831 -749.998047
v 500.000000 68.463501 -249.999512
v 750.000000 68.463501 -249.999512
v 500.000000 75.148468 -249.999512
v 750.000000 75.148468 -249.999512
v 500.000000 5.689815 0.000000
v 750.000000 5.689815 0.000000
v 500.000000 12.374784 0.000000
v 750.000000 12.374784 0.000000
v 250.000000 68.463501 -249.999512
v 250.000000 5.689815 0.000000
v 250.000000 75.148468 -249.999512
v 250.000000 12.374784 0.000000
v 250.000000 131.237183 -499.999023
v 250.000000 137.922150 -499.999023
v 250.000000 194.010864 -749.998047
v 250.000000 200.695831 -749.998047
v 0.000000 194.010864 -749.998047
v 0.000000 131.237183 -499.999023
v 0.000000 200.695831 -749.998047
v 0.000000 137.922150 -499.999023
v 0.000000 68.463501 -249.999512
v 0.000000 75.148468 -249.999512
v 0.000000 5.689815 0.000000
v 0.000000 12.374784 0.000000
vt 0.998601 0.001493
vt 0.998601 0.998612
vt 0.001412 0.998612
vt 0.001412 0.001493
vt 0.998584 1.038943
vt 0.001489 1.038943
vt 0.001412 0.998612
vt 0.998601 0.998612
vt 0.972431 0.998612
vt 0.998601 0.998612
vt 0.998601 0.001493
vt 0.972431 0.001493
vt 0.998601 0.001493
vt 0.998601 0.998612
vt 0.001412 0.998612
vt 0.001412 0.001493
vt 0.998601 0.001493
vt 0.001412 0.001493
vt 0.001412 0.998612
vt 0.998601 0.998612
vt 0.972431 0.998612
vt 0.998601 0.998612
vt 0.998601 0.001493
vt 0.972431 0.001493
vt 0.998601 0.001493
vt 0.998601 0.998612
vt 0.001412 0.998612
vt 0.001412 0.001493
vt 0.998601 0.001493
vt 0.001412 0.001493
vt 0.001412 0.998612
vt 0.998601 0.998612
vt 0.972431 0.998612
vt 0.998601 0.998612
vt 0.998601 0.001493
vt 0.972431 0.001493
vt 0.998601 0.001493
vt 0.998601 0.998612
vt 0.001412 0.998612
vt 0.001412 0.001493
vt 0.998584 -0.038886
vt 0.998601 0.001493
vt 0.001412 0.001493
vt 0.001489 -0.038886
vt 0.998601 0.001493
vt 0.001412 0.001493
vt 0.001412 0.998612
vt 0.998601 0.998612
vt 0.998601 0.001493
vt 0.998601 0.998612
vt 0.001412 0.998612
vt 0.001412 0.001493
vt 0.998584 -0.038886
vt 0.998601 0.001493
vt 0.001412 0.001493
vt 0.001489 -0.038886
vt 0.998601 0.001493
vt 0.001412 0.001493
vt 0.001412 0.998612
vt 0.998601 0.998612
vt 0.998601 0.001493
vt 0.998601 0.998612
vt 0.001412 0.998612
vt 0.001412 0.001493
vt 0.998601 0.001493
vt 0.001412 0.001493
vt 0.001412 0.998612
vt 0.998601 0.998612
vt 0.998584 1.038943
vt 0.001489 1.038943
vt 0.001412 0.998612
vt 0.998601 0.998612
vt 0.998601 0.001493
vt 0.998601 0.998612
vt 0.001412 0.998612
vt 0.001412 0.001493
vt 0.998601 0.001493
vt 0.001412 0.001493
vt 0.001412 0.998612
vt 0.998601 0.998612
vt 0.998584 1.038943
vt 0.001489 1.038943
vt 0.001412 0.998612
vt 0.998601 0.998612
vt 0.001412 0.998612
vt 0.028001 0.998612
vt 0.028001 0.001493
vt 0.001412 0.001493
vt 0.998601 0.001493
vt 0.998601 0.998612
vt 0.001412 0.998612
vt 0.001412 0.001493
vt 0.998601 0.001493
vt 0.001412 0.001493
vt 0.001412 0.998612
vt 0.998601 0.998612
vt 0.001412 0.998612
vt 0.028001 0.998612
vt 0.028001 0.001493
vt 0.001412 0.001493
vt 0.998601 0.001493
vt 0.998601 0.998612
vt 0.001412 0.998612
vt 0.001412 0.001493
vt 0.998601 0.001493
vt 0.001412 0.001493
vt 0.001412 0.998612
vt 0.998601 0.998612
vt 0.001412 0.998612
vt 0.028001 0.998612
vt 0.028001 0.001493
vt 0.001412 0.001493
vt 0.998601 0.001493
vt 0.998601 0.998612
vt 0.001412 0.998612
vt 0.001412 0.001493
vt 0.998584 -0.038886
vt 0.998601 0.001493
vt 0.001412 0.001493
vt 0.001489 -0.038886
vn 0.000000 -0.969892 -0.243536
vn 0.000000 -0.969892 -0.243536
vn 0.000000 -0.969892 -0.243536
vn 0.000000 -0.969892 -0.243536
vn 0.000000 0.000000 -1.000000
vn 0.000000 0.000000 -1.000000
vn 0.000000 0.000000 -1.000000
vn 0.000000 0.000000 -1.000000
vn 1.000000 0.000000 0.000000
vn 1.000000 0.000000 0.000000
vn 1.000000 0.000000 0.000000
vn 1.000000 0.000000 0.000000
vn 0.000000 0.969892 0.243536
vn 0.000000 0.969892 0.243536
vn 0.000000 0.969892 0.243536
vn 0.000000 0.969892 0.243536
vn 0.000000 -0.969892 -0.243536
vn 0.000000 -0.969892 -0.243536
vn 0.000000 -0.969892 -0.243536
vn 0.000000 -0.969892 -0.243536
vn 1.000000 0.000000 0.000000
vn 1.000000 0.000000 0.000000
vn 1.000000 0.000000 0.000000
vn 1.000000 0.000000 0.000000
vn 0.000000 0.969892 0.243536
vn 0.000000 0.969892 0.243536
vn 0.000000 0.969892 0.243536
vn 0.000000 0.969892 0.243536
vn 0.000000 -0.969892 -0.243536
vn 0.000000 -0.969892 -0.243536
vn 0.000000 -0.969892 -0.243536
vn 0.000000 -0.969892 -0.243536
vn 1.000000 0.000000 0.000000
vn 1.000000 0.000000 0.000000
vn 1.000000 0.000000 0.000000
vn 1.000000 0.000000 0.000000
vn 0.000000 0.969892 0.243536
vn 0.000000 0.969892 0.243536
vn 0.000000 0.969892 0.243536
vn 0.000000 0.969892 0.243536
vn 0.000000 0.000000 1.000000
vn 0.000000 0.000000 1.000000
vn 0.000000 0.000000 1.000000
vn 0.000000 0.000000 1.000000
vn 0.000000 -0.969892 -0.243536
vn 0.000000 -0.969892 -0.243536
vn 0.000000 -0.969892 -0.243536
vn 0.000000 -0.969892 -0.243536
vn 0.000000 0.969892 0.243536
vn 0.000000 0.969892 0.243536
vn 0.000000 0.969892 0.243536
vn 0.000000 0.969892 0.243536
vn 0.000000 0.000000 1.000000
vn 0.000000 0.000000 1.000000
vn 0.000000 0.000000 1.000000
vn 0.000000 0.000000 1.000000
vn 0.000000 -0.969892 -0.243536
vn 0.000000 -0.969892 -0.243536
vn 0.000000 -0.969892 -0.243536
vn 0.000000 -0.969892 -0.243536
vn 0.000000 0.969892 0.243536
vn 0.000000 0.969892 0.243536
vn 0.000000 0.969892 0.243536
vn 0.000000 0.969892 0.243536
vn 0.000000 -0.969892 -0.243536
vn 0.000000 -0.969892 -0.243536
vn 0.000000 -0.969892 -0.243536
vn 0.000000 -0.969892 -0.243536
vn 0.000000 0.000000 -1.000000
vn 0.000000 0.000000 -1.000000
vn 0.000000 0.000000 -1.000000
vn 0.000000 0.000000 -1.000000
vn 0.000000 0.969892 0.243536
vn 0.000000 0.969892 0.243536
vn 0.000000 0.969892 0.243536
vn 0.000000 0.969892 0.243536
vn 0.000000 -0.969892 -0.243536
vn 0.000000 -0.969892 -0.243536
vn 0.000000 -0.969892 -0.243536
vn 0.000000 -0.969892 -0.243536
vn 0.000000 0.000000 -1.000000
vn 0.000000 0.000000 -1.000000
vn 0.000000 0.000000 -1.000000
vn 0.000000 0.000000 -1.000000
vn -1.000000 0.000000 0.000000
vn -1.000000 0.000000 0.000000
vn -1.000000 0.000000 0.000000
vn -1.000000 0.000000 0.000000
vn 0.000000 0.969892 0.243536
vn 0.000000 0.969892 0.243536
vn 0.000000 0.969892 0.243536
vn 0.000000 0.969892 0.243536
vn 0.000000 -0.969892 -0.243536
vn 0.000000 -0.969892 -0.243536
vn 0.000000 -0.969892 -0.243536
vn 0.000000 -0.969892 -0.243536
vn -1.000000 0.000000 0.000000
vn -1.000000 0.000000 0.000000
vn -1.000000 0.000000 0.000000
vn -1.000000 0.000000 0.000000
vn 0.000000 0.969892 0.243536
vn 0.000000 0.969892 0.243536
vn 0.000000 0.969892 0.243536
vn 0.000000 0.969892 0.243536
vn 0.000000 -0.969892 -0.243536
vn 0.000000 -0.969892 -0.243536
vn 0.000000 -0.969892 -0.243536
vn 0.000000 -0.969892 -0.243536
vn -1.000000 0.000000 0.000000
vn -1.000000 0.000000 0.000000
vn -1.000000 0.000000 0.000000
vn -1.000000 0.000000 0.000000
vn 0.000000 0.969892 0.243536
vn 0.000000 0.969892 0.243536
vn 0.000000 0.969892 0.243536
vn 0.000000 0.969892 0.243536
vn 0.000000 0.000000 1.000000
vn 0.000000 0.000000 1.000000
vn 0.000000 0.000000 1.000000
vn 0.000000 0.000000 1.000000
s off
f 3/1/1 2/4/2 1/3/3 4/2/4
f 4/5/5 1/6/6 5/7/7 8/8/8
f 4/9/9 8/10/10 7/11/11 3/12/12
f 7/13/13 8/14/14 5/15/15 6/16/16
f 10/17/17 9/18/18 2/19/19 3/20/20
f 3/21/21 7/22/22 12/23/23 10/24/24
f 12/25/25 7/26/26 6/27/27 11/28/28
f 14/29/29 13/30/30 9/31/31 10/32/32
f 10/33/33 12/34/34 16/35/35 14/36/36
f 16/37/37 12/38/38 11/39/39 15/40/40
f 14/41/41 16/42/42 15/43/43 13/44/44
f 13/45/45 18/46/46 17/47/47 9/48/48
f 15/49/49 11/50/50 19/51/51 20/52/52
f 13/53/53 15/54/54 20/55/55 18/56/56
f 9/57/57 17/58/58 21/59/59 2/60/60
f 11/61/61 6/62/62 22/63/63 19/64/64
f 2/65/65 21/66/66 23/67/67 1/68/68
f 1/69/69 23/70/70 24/71/71 5/72/72
f 6/73/73 5/74/74 24/75/75 22/76/76
f 21/77/77 26/78/78 25/79/79 23/80/80
f 23/81/81 25/82/82 27/83/83 24/84/84
f 27/85/85 25/86/86 26/87/87 28/88/88
f 22/89/89 24/90/90 27/91/91 28/92/92
f 17/93/93 29/94/94 26/95/95 21/96/96
f 28/97/97 26/98/98 29/99/99 30/100/100
f 19/101/101 22/102/102 28/103/103 30/104/104
f 18/105/105 31/106/106 29/107/107 17/108/108
f 30/109/109 29/110/110 31/111/111 32/112/112
f 20/113/113 19/114/114 30/115/115 32/116/116
f 18/117/117 20/118/118 32/119/119 31/120/120
