# This file uses centimeters as units for non-parametric coordinates.

v 26.207535 26.207520 -3.986462
v 0.000000 37.063023 -3.986462
v -26.207397 26.207520 -3.986462
v -37.063004 0.000051 -3.986462
v -26.207397 -26.207378 -3.986462
v 0.000000 -37.062988 -3.986462
v 26.207535 -26.207415 -3.986462
v 37.063126 0.000051 -3.986462
v 22.120071 23.099106 3.701647
v 0.450272 32.512260 3.701646
v -22.252274 23.988283 3.701647
v -32.076843 0.808749 3.701647
v -23.150970 -22.574745 3.701647
v -0.658020 -32.964691 3.701647
v 22.586487 -22.750603 3.701647
v 32.518341 -0.417488 3.701647
v 7.183167 6.744110 9.681040
v 0.164291 9.835813 9.681040
v -6.659470 7.264687 9.681040
v -9.345192 -0.098531 9.681040
v -6.288246 -6.831923 9.681040
v -0.479965 -10.058352 9.681040
v 6.842896 -7.194118 9.681040
v 9.609985 -0.294055 9.681040
v 1.947739 5.750569 11.799631
v -4.917496 1.968420 11.799631
v -2.253006 -5.186159 11.799631
v 5.513702 -2.075125 11.799631
v -0.299347 -0.081577 13.396442
v 19.211714 19.973734 6.039857
v 0.611175 27.240803 6.039856
v 11.713924 20.429861 7.298893
v 6.629566 22.263306 7.298893
v -19.533131 19.677578 6.039857
v -5.870562 21.936262 7.298893
v -11.500601 19.822493 7.298893
v -27.495413 -0.299532 6.039857
v -20.504807 10.967975 7.298893
v -22.592659 5.492156 7.298893
v -20.232552 -19.180019 6.039857
v -22.799900 -6.655826 7.298894
v -20.889683 -11.592563 7.298894
v -0.695412 -28.513828 6.039857
v -12.380153 -20.419882 7.298894
v -6.996488 -23.049417 7.298894
v 20.083616 -19.428967 6.039857
v 6.092466 -23.150324 7.298894
v 11.927904 -20.607279 7.298894
v 27.467928 -0.703250 6.039857
v 20.840311 -11.766248 7.298894
v 22.644079 -6.731267 7.298894
v 22.262495 5.844665 7.298894
v 20.131657 11.589054 7.298894
v 13.072482 13.243732 8.340137
v 0.462764 17.984844 8.348381
v -13.077188 12.941178 8.341109
v -18.245129 -0.551247 8.329223
v -13.348162 -12.834702 8.321794
v -0.613652 -19.171370 8.329228
v 13.582808 -13.114142 8.331050
v 18.156427 -0.611935 8.336198
v 16.052763 16.222668 6.623739
v 0.412160 22.299454 6.628852
v -16.251762 15.765160 6.611989
v -22.673803 -0.552355 6.637787
v -16.604300 -15.947018 6.638302
v -0.489638 -23.452955 6.615451
v 16.493204 -16.228048 6.630910
v 22.550114 -0.486123 6.632235
vt 0.249753 0.269008
vt 0.250035 0.268980
vt 0.250044 0.268217
vt 0.249757 0.268241
vt 0.250312 0.269019
vt 0.250324 0.268250
vt 0.250427 0.269104
vt 0.250441 0.268322
vt 0.250306 0.269187
vt 0.250318 0.268393
vt 0.250012 0.269218
vt 0.250021 0.268419
vt 0.249726 0.269175
vt 0.249731 0.268383
vt 0.249622 0.269088
vt 0.249625 0.268309
vt 0.249757 0.268241
vt 0.250044 0.268217
vt 0.250324 0.268250
vt 0.250441 0.268322
vt 0.250318 0.268393
vt 0.250021 0.268419
vt 0.249731 0.268383
vt 0.249625 0.268309
vt 0.249900 0.268229
vt 0.250383 0.268286
vt 0.250169 0.268406
vt 0.249678 0.268346
vt 0.250038 0.268317
vt 0.249757 0.247577
vt 0.250044 0.247553
vt 0.249853 0.247569
vt 0.249948 0.247561
vt 0.250324 0.247586
vt 0.250137 0.247564
vt 0.250231 0.247575
vt 0.250441 0.247658
vt 0.250363 0.247610
vt 0.250402 0.247634
vt 0.250318 0.247728
vt 0.250400 0.247681
vt 0.250359 0.247705
vt 0.250021 0.247754
vt 0.250219 0.247737
vt 0.250120 0.247746
vt 0.249731 0.247719
vt 0.249924 0.247743
vt 0.249827 0.247731
vt 0.249625 0.247645
vt 0.249695 0.247694
vt 0.249660 0.247669
vt 0.249669 0.247622
vt 0.249713 0.247599
vt 0.249757 0.247577
vt 0.250044 0.247553
vt 0.250324 0.247586
vt 0.250441 0.247658
vt 0.250318 0.247728
vt 0.250021 0.247754
vt 0.249731 0.247719
vt 0.249625 0.247645
vt 0.249783 0.247584
vt 0.250043 0.247562
vt 0.250297 0.247592
vt 0.250401 0.247658
vt 0.250289 0.247721
vt 0.250022 0.247744
vt 0.249761 0.247712
vt 0.249665 0.247646
vt 0.249625 0.268309
vt 0.249660 0.268334
vt 0.249669 0.268286
vt 0.249625 0.268309
vt 0.249731 0.268383
vt 0.249827 0.268395
vt 0.249695 0.268359
vt 0.249731 0.268383
vt 0.250021 0.268419
vt 0.250120 0.268410
vt 0.249924 0.268407
vt 0.250021 0.268419
vt 0.250318 0.268393
vt 0.250359 0.268370
vt 0.250219 0.268402
vt 0.250318 0.268393
vt 0.250441 0.268322
vt 0.250402 0.268298
vt 0.250400 0.268346
vt 0.250441 0.268322
vt 0.250324 0.268250
vt 0.250231 0.268239
vt 0.250363 0.268274
vt 0.250324 0.268250
vt 0.250044 0.268217
vt 0.249948 0.268225
vt 0.250137 0.268228
vt 0.250044 0.268217
vt 0.249757 0.268241
vt 0.249713 0.268264
vt 0.249853 0.268233
vt 0.249757 0.268241
vn 0.341459 0.806574 0.482540
vn 0.341459 0.806574 0.482540
vn 0.341459 0.806574 0.482540
vn 0.341459 0.806574 0.482540
vn -0.327505 0.826558 0.457758
vn -0.327505 0.826558 0.457758
vn -0.327505 0.826558 0.457758
vn -0.327505 0.826558 0.457758
vn -0.800735 0.335297 0.496387
vn -0.800735 0.335297 0.496387
vn -0.800735 0.335297 0.496387
vn -0.800735 0.335297 0.496387
vn -0.798976 -0.318706 0.509964
vn -0.798976 -0.318706 0.509964
vn -0.798976 -0.318706 0.509964
vn -0.798976 -0.318706 0.509964
vn -0.354293 -0.812133 0.463591
vn -0.354293 -0.812133 0.463591
vn -0.354293 -0.812133 0.463591
vn -0.354293 -0.812133 0.463591
vn 0.341833 -0.802306 0.489342
vn 0.341833 -0.802306 0.489342
vn 0.341833 -0.802306 0.489342
vn 0.341833 -0.802306 0.489342
vn 0.799999 -0.342599 0.492573
vn 0.799999 -0.342599 0.492573
vn 0.799999 -0.342599 0.492573
vn 0.799999 -0.342599 0.492573
vn 0.786273 0.336081 0.518483
vn 0.786273 0.336081 0.518483
vn 0.786273 0.336081 0.518483
vn 0.786273 0.336081 0.518483
vn -0.000000 -0.000000 -1.000000
vn -0.000000 -0.000000 -1.000000
vn -0.000000 -0.000000 -1.000000
vn -0.000000 -0.000000 -1.000000
vn 0.000000 0.000000 -1.000000
vn 0.000000 0.000000 -1.000000
vn 0.000000 0.000000 -1.000000
vn 0.000000 0.000000 -1.000000
vn 0.000000 -0.000000 -1.000000
vn 0.000000 -0.000000 -1.000000
vn 0.000000 -0.000000 -1.000000
vn 0.000000 -0.000000 -1.000000
vn 0.334198 0.196738 0.921741
vn 0.334198 0.196738 0.921741
vn 0.334198 0.196738 0.921741
vn 0.231521 0.525605 0.818619
vn 0.231521 0.525605 0.818619
vn 0.231521 0.525605 0.818619
vn -0.164330 0.354070 0.920668
vn -0.164330 0.354070 0.920668
vn -0.164330 0.354070 0.920668
vn -0.164330 0.354070 0.920668
vn -0.491471 0.179264 0.852244
vn -0.491471 0.179264 0.852244
vn -0.491471 0.179264 0.852244
vn -0.385437 -0.158789 0.908969
vn -0.385437 -0.158789 0.908969
vn -0.385437 -0.158789 0.908969
vn -0.385437 -0.158789 0.908969
vn -0.256905 -0.462486 0.848591
vn -0.256905 -0.462486 0.848591
vn -0.256905 -0.462486 0.848591
vn 0.138554 -0.349895 0.926486
vn 0.138554 -0.349895 0.926486
vn 0.138554 -0.349895 0.926486
vn 0.138554 -0.349895 0.926486
vn 0.519231 -0.208224 0.828880
vn 0.519231 -0.208224 0.828880
vn 0.519231 -0.208224 0.828880
vn 0.371508 0.149784 0.916268
vn 0.371508 0.149784 0.916268
vn 0.371508 0.149784 0.916268
vn 0.371508 0.149784 0.916268
vn -0.177980 0.323064 0.929490
vn -0.177980 0.323064 0.929490
vn -0.177980 0.323064 0.929490
vn -0.378884 -0.141103 0.914624
vn -0.378884 -0.141103 0.914624
vn -0.378884 -0.141103 0.914624
vn 0.137501 -0.343271 0.929117
vn 0.137501 -0.343271 0.929117
vn 0.137501 -0.343271 0.929117
vn 0.306542 0.139683 0.941552
vn 0.306542 0.139683 0.941552
vn 0.306542 0.139683 0.941552
vn 0.077357 0.369891 0.925849
vn 0.077357 0.369891 0.925849
vn 0.077357 0.369891 0.925849
vn 0.176695 0.434144 0.883345
vn 0.176695 0.434144 0.883345
vn 0.176695 0.434144 0.883345
vn 0.176695 0.434144 0.883345
vn -0.215052 0.322646 0.921766
vn -0.215052 0.322646 0.921766
vn -0.215052 0.322646 0.921766
vn 0.060335 0.154510 0.986147
vn 0.060335 0.154510 0.986147
vn 0.060335 0.154510 0.986147
vn 0.060335 0.154510 0.986147
vn -0.149106 0.397132 0.905568
vn -0.149106 0.397132 0.905568
vn -0.149106 0.397132 0.905568
vn -0.149106 0.397132 0.905568
vn -0.354731 0.107924 0.928719
vn -0.354731 0.107924 0.928719
vn -0.354731 0.107924 0.928719
vn -0.061347 0.163196 0.984685
vn -0.061347 0.163196 0.984685
vn -0.061347 0.163196 0.984685
vn -0.061347 0.163196 0.984685
vn -0.434240 0.177161 0.883204
vn -0.434240 0.177161 0.883204
vn -0.434240 0.177161 0.883204
vn -0.434240 0.177161 0.883204
vn -0.322339 -0.166796 0.931814
vn -0.322339 -0.166796 0.931814
vn -0.322339 -0.166796 0.931814
vn -0.153683 0.057664 0.986436
vn -0.153683 0.057664 0.986436
vn -0.153683 0.057664 0.986436
vn -0.153683 0.057664 0.986436
vn -0.479146 -0.183766 0.858283
vn -0.479146 -0.183766 0.858283
vn -0.479146 -0.183766 0.858283
vn -0.479146 -0.183766 0.858283
vn -0.078893 -0.372415 0.924707
vn -0.078893 -0.372415 0.924707
vn -0.078893 -0.372415 0.924707
vn -0.143851 -0.059226 0.987825
vn -0.143851 -0.059226 0.987825
vn -0.143851 -0.059226 0.987825
vn -0.143851 -0.059226 0.987825
vn -0.209010 -0.442924 0.871856
vn -0.209010 -0.442924 0.871856
vn -0.209010 -0.442924 0.871856
vn -0.209010 -0.442924 0.871856
vn 0.192163 -0.325812 0.925700
vn 0.192163 -0.325812 0.925700
vn 0.192163 -0.325812 0.925700
vn -0.072622 -0.142490 0.987128
vn -0.072622 -0.142490 0.987128
vn -0.072622 -0.142490 0.987128
vn -0.072622 -0.142490 0.987128
vn 0.199888 -0.456348 0.867059
vn 0.199888 -0.456348 0.867059
vn 0.199888 -0.456348 0.867059
vn 0.199888 -0.456348 0.867059
vn 0.362407 -0.081307 0.928467
vn 0.362407 -0.081307 0.928467
vn 0.362407 -0.081307 0.928467
vn 0.062894 -0.149702 0.986729
vn 0.062894 -0.149702 0.986729
vn 0.062894 -0.149702 0.986729
vn 0.062894 -0.149702 0.986729
vn 0.460349 -0.190315 0.867098
vn 0.460349 -0.190315 0.867098
vn 0.460349 -0.190315 0.867098
vn 0.460349 -0.190315 0.867098
vn 0.438914 0.182172 0.879868
vn 0.438914 0.182172 0.879868
vn 0.438914 0.182172 0.879868
vn 0.438914 0.182172 0.879868
vn 0.158773 0.057460 0.985642
vn 0.158773 0.057460 0.985642
vn 0.158773 0.057460 0.985642
vn 0.158773 0.057460 0.985642
vn 0.150944 -0.056473 0.986928
vn 0.150944 -0.056473 0.986928
vn 0.150944 -0.056473 0.986928
vn 0.150944 -0.056473 0.986928
vn 0.005712 0.149105 0.988805
vn 0.005712 0.149105 0.988805
vn 0.005712 0.149105 0.988805
vn 0.166378 0.013359 0.985972
vn 0.166378 0.013359 0.985972
vn 0.166378 0.013359 0.985972
vn 0.211339 0.320577 0.923345
vn 0.211339 0.320577 0.923345
vn 0.211339 0.320577 0.923345
vn -0.105648 0.121891 0.986905
vn -0.105648 0.121891 0.986905
vn -0.105648 0.121891 0.986905
vn 0.098847 0.113854 0.988568
vn 0.098847 0.113854 0.988568
vn 0.098847 0.113854 0.988568
vn -0.097539 0.367465 0.924908
vn -0.097539 0.367465 0.924908
vn -0.097539 0.367465 0.924908
vn -0.155089 0.014377 0.987796
vn -0.155089 0.014377 0.987796
vn -0.155089 0.014377 0.987796
vn -0.001747 0.143261 0.989683
vn -0.001747 0.143261 0.989683
vn -0.001747 0.143261 0.989683
vn -0.315016 0.212277 0.925042
vn -0.315016 0.212277 0.925042
vn -0.315016 0.212277 0.925042
vn -0.127851 -0.106136 0.986098
vn -0.127851 -0.106136 0.986098
vn -0.127851 -0.106136 0.986098
vn -0.116682 0.109333 0.987133
vn -0.116682 0.109333 0.987133
vn -0.116682 0.109333 0.987133
vn -0.355091 -0.096928 0.929793
vn -0.355091 -0.096928 0.929793
vn -0.355091 -0.096928 0.929793
vn -0.015637 -0.164996 0.986170
vn -0.015637 -0.164996 0.986170
vn -0.015637 -0.164996 0.986170
vn -0.158981 -0.004332 0.987272
vn -0.158981 -0.004332 0.987272
vn -0.158981 -0.004332 0.987272
vn -0.178556 -0.317030 0.931456
vn -0.178556 -0.317030 0.931456
vn -0.178556 -0.317030 0.931456
vn 0.096610 -0.116354 0.988498
vn 0.096610 -0.116354 0.988498
vn 0.096610 -0.116354 0.988498
vn -0.097730 -0.108541 0.989277
vn -0.097730 -0.108541 0.989277
vn -0.097730 -0.108541 0.989277
vn 0.074454 -0.368714 0.926556
vn 0.074454 -0.368714 0.926556
vn 0.074454 -0.368714 0.926556
vn 0.153939 -0.009771 0.988032
vn 0.153939 -0.009771 0.988032
vn 0.153939 -0.009771 0.988032
vn 0.016443 -0.163692 0.986374
vn 0.016443 -0.163692 0.986374
vn 0.016443 -0.163692 0.986374
vn 0.326432 -0.199366 0.923956
vn 0.326432 -0.199366 0.923956
vn 0.326432 -0.199366 0.923956
vn 0.123565 0.107170 0.986532
vn 0.123565 0.107170 0.986532
vn 0.123565 0.107170 0.986532
vn 0.114701 -0.098879 0.988467
vn 0.114701 -0.098879 0.988467
vn 0.114701 -0.098879 0.988467
vn 0.357001 0.104460 0.928245
vn 0.357001 0.104460 0.928245
vn 0.357001 0.104460 0.928245
vn -0.153683 0.057664 0.986436
vn -0.153683 0.057664 0.986436
vn -0.153683 0.057664 0.986436
vn -0.153683 0.057664 0.986436
vn -0.061347 0.163196 0.984685
vn -0.061347 0.163196 0.984685
vn -0.061347 0.163196 0.984685
vn -0.061347 0.163196 0.984685
vn 0.060335 0.154510 0.986147
vn 0.060335 0.154510 0.986147
vn 0.060335 0.154510 0.986147
vn 0.060335 0.154510 0.986147
vn 0.158773 0.057460 0.985642
vn 0.158773 0.057460 0.985642
vn 0.158773 0.057460 0.985642
vn 0.158773 0.057460 0.985642
vn 0.150944 -0.056473 0.986928
vn 0.150944 -0.056473 0.986928
vn 0.150944 -0.056473 0.986928
vn 0.150944 -0.056473 0.986928
vn 0.062894 -0.149702 0.986729
vn 0.062894 -0.149702 0.986729
vn 0.062894 -0.149702 0.986729
vn 0.062894 -0.149702 0.986729
vn -0.072622 -0.142490 0.987128
vn -0.072622 -0.142490 0.987128
vn -0.072622 -0.142490 0.987128
vn -0.072622 -0.142490 0.987128
vn -0.143851 -0.059226 0.987825
vn -0.143851 -0.059226 0.987825
vn -0.143851 -0.059226 0.987825
vn -0.143851 -0.059226 0.987825
vn -0.479146 -0.183766 0.858283
vn -0.479146 -0.183766 0.858283
vn -0.479146 -0.183766 0.858283
vn -0.479146 -0.183766 0.858283
vn -0.434240 0.177161 0.883204
vn -0.434240 0.177161 0.883204
vn -0.434240 0.177161 0.883204
vn -0.434240 0.177161 0.883204
vn -0.149106 0.397132 0.905568
vn -0.149106 0.397132 0.905568
vn -0.149106 0.397132 0.905568
vn -0.149106 0.397132 0.905568
vn 0.176695 0.434144 0.883345
vn 0.176695 0.434144 0.883345
vn 0.176695 0.434144 0.883345
vn 0.176695 0.434144 0.883345
vn 0.438914 0.182172 0.879868
vn 0.438914 0.182172 0.879868
vn 0.438914 0.182172 0.879868
vn 0.438914 0.182172 0.879868
vn 0.460349 -0.190315 0.867098
vn 0.460349 -0.190315 0.867098
vn 0.460349 -0.190315 0.867098
vn 0.460349 -0.190315 0.867098
vn 0.199888 -0.456348 0.867059
vn 0.199888 -0.456348 0.867059
vn 0.199888 -0.456348 0.867059
vn 0.199888 -0.456348 0.867059
vn -0.209010 -0.442924 0.871856
vn -0.209010 -0.442924 0.871856
vn -0.209010 -0.442924 0.871856
vn -0.209010 -0.442924 0.871856
s off
f 1/1/1 2/2/2 10/3/3 9/4/4
f 2/2/5 3/5/6 11/6/7 10/3/8
f 3/5/9 4/7/10 12/8/11 11/6/12
f 4/7/13 5/9/14 13/10/15 12/8/16
f 5/9/17 6/11/18 14/12/19 13/10/20
f 6/11/21 7/13/22 15/14/23 14/12/24
f 7/13/25 8/15/26 16/16/27 15/14/28
f 8/15/29 1/1/30 9/4/31 16/16/32
f 2/2/33 1/1/34 8/15/35 7/13/36
f 2/2/37 7/13/38 6/11/39 5/9/40
f 2/2/41 5/9/42 4/7/43 3/5/44
f 54/54/45 62/62/46 32/32/47
f 17/17/48 18/18/49 25/25/50
f 18/18/51 19/19/52 26/26/53 25/25/54
f 19/19/55 20/20/56 26/26/57
f 20/20/58 21/21/59 27/27/60 26/26/61
f 21/21/62 22/22/63 27/27/64
f 22/22/65 23/23/66 28/28/67 27/27/68
f 23/23/69 24/24/70 28/28/71
f 24/24/72 17/17/73 25/25/74 28/28/75
f 29/29/76 25/25/77 26/26/78
f 29/29/79 26/26/80 27/27/81
f 28/28/82 29/29/83 27/27/84
f 25/25/85 29/29/86 28/28/87
f 55/55/88 63/63/89 35/35/90
f 9/4/91 10/3/92 31/97/93 30/101/94
f 56/56/95 64/64/96 38/38/97
f 33/95/98 55/94/99 54/98/100 32/100/101
f 10/3/102 11/6/103 34/93/104 31/97/105
f 57/57/106 65/65/107 41/41/108
f 36/91/109 56/90/110 55/94/111 35/96/112
f 11/6/113 12/8/114 37/89/115 34/93/116
f 58/58/117 66/66/118 44/44/119
f 39/87/120 57/86/121 56/90/122 38/92/123
f 12/8/124 13/10/125 40/85/126 37/89/127
f 59/59/128 67/67/129 47/47/130
f 42/83/131 58/82/132 57/86/133 41/88/134
f 13/10/135 14/12/136 43/81/137 40/85/138
f 60/60/139 68/68/140 50/50/141
f 45/79/142 59/78/143 58/82/144 44/84/145
f 14/12/146 15/14/147 46/77/148 43/81/149
f 61/61/150 69/69/151 52/52/152
f 48/75/153 60/74/154 59/78/155 47/80/156
f 15/14/157 16/16/158 49/73/159 46/77/160
f 16/16/161 9/4/162 30/101/163 49/73/164
f 53/99/165 54/98/166 61/70/167 52/72/168
f 51/71/169 61/70/170 60/74/171 50/76/172
f 53/53/173 30/30/174 62/62/175
f 62/62/176 30/30/177 32/32/178
f 53/53/179 62/62/180 54/54/181
f 33/33/182 31/31/183 63/63/184
f 63/63/185 31/31/186 35/35/187
f 33/33/188 63/63/189 55/55/190
f 36/36/191 34/34/192 64/64/193
f 64/64/194 34/34/195 38/38/196
f 36/36/197 64/64/198 56/56/199
f 39/39/200 37/37/201 65/65/202
f 65/65/203 37/37/204 41/41/205
f 39/39/206 65/65/207 57/57/208
f 42/42/209 40/40/210 66/66/211
f 66/66/212 40/40/213 44/44/214
f 42/42/215 66/66/216 58/58/217
f 45/45/218 43/43/219 67/67/220
f 67/67/221 43/43/222 47/47/223
f 45/45/224 67/67/225 59/59/226
f 48/48/227 46/46/228 68/68/229
f 68/68/230 46/46/231 50/50/232
f 48/48/233 68/68/234 60/60/235
f 51/51/236 49/49/237 69/69/238
f 69/69/239 49/49/240 52/52/241
f 51/51/242 69/69/243 61/61/244
f 56/90/245 57/86/246 20/20/247 19/19/248
f 55/94/249 56/90/250 19/19/251 18/18/252
f 54/98/253 55/94/254 18/18/255 17/17/256
f 61/70/257 54/98/258 17/17/259 24/24/260
f 60/74/261 61/70/262 24/24/263 23/23/264
f 59/78/265 60/74/266 23/23/267 22/22/268
f 58/82/269 59/78/270 22/22/271 21/21/272
f 57/86/273 58/82/274 21/21/275 20/20/276
f 37/89/277 40/85/278 42/83/279 41/88/280
f 34/93/281 37/89/282 39/87/283 38/92/284
f 31/97/285 34/93/286 36/91/287 35/96/288
f 30/101/289 31/97/290 33/95/291 32/100/292
f 49/73/293 30/101/294 53/99/295 52/72/296
f 46/77/297 49/73/298 51/71/299 50/76/300
f 43/81/301 46/77/302 48/75/303 47/80/304
f 40/85/305 43/81/306 45/79/307 44/84/308
