# This file uses centimeters as units for non-parametric coordinates.

v 0.000000 -48.345253 0.000000
v 0.000000 34.258560 53.196785
v 0.000000 48.144947 0.000000
v 0.000000 14.740156 45.866745
v 0.000000 11.257612 21.701111
v 0.000000 -21.638536 21.701111
v 0.000000 -26.575197 26.884291
v 0.000000 29.867157 45.866745
v 0.000000 48.144947 53.196785
v 750.000000 34.258560 53.196785
v 750.000000 48.144947 0.000000
v 750.000000 48.144947 53.196785
v 750.000000 14.740156 45.866768
v 750.000000 29.867157 45.866768
v 750.000000 11.257612 21.701111
v 750.000000 -21.638536 21.701111
v 750.000000 -48.345253 0.000000
v 750.000000 -26.575197 26.884317
v 250.000000 48.144943 0.000000
v 500.000000 48.144943 0.000000
v 250.000000 -48.345253 0.000000
v 500.000000 -48.345253 0.000000
v 250.000000 -26.575197 26.884287
v 500.000031 -26.575197 26.884287
v 250.000000 -21.638536 21.701111
v 500.000000 -21.638536 21.701111
v 250.000000 11.257612 21.701111
v 500.000000 11.257612 21.701111
v 250.000000 14.740156 45.866753
v 500.000031 14.740156 45.866737
v 250.000000 29.867157 45.866753
v 500.000031 29.867157 45.866737
v 250.000000 34.258560 53.196785
v 500.000000 34.258560 53.196785
v 250.000000 48.145210 53.196632
v 499.999969 48.145210 53.196632
v 250.000000 -48.345253 16.335724
v 250.000000 -41.646820 26.884287
v 499.999969 -41.646820 26.884287
v 499.999969 -48.345253 16.335724
v 750.000000 -48.345253 16.335693
v 750.000000 -41.646820 26.884317
v 0.000000 -41.646820 26.884287
v 0.000000 -48.345253 16.335716
vt 0.100169 0.551807
vt 0.100169 0.514908
vt 0.399980 0.514908
vt 0.399980 0.551807
vt 0.100169 0.551807
vt 0.100169 0.514908
vt 0.399981 0.514908
vt 0.399981 0.551807
vt 0.100169 0.551807
vt 0.100169 0.514908
vt 0.399980 0.514908
vt 0.399980 0.551807
vt 0.378078 0.111692
vt 0.448724 0.130133
vt 0.378078 0.130133
vt 0.387812 0.105860
vt 0.387812 0.085771
vt 0.419905 0.081146
vt 0.419905 0.037459
vt 0.448724 0.001992
vt 0.413021 0.030903
vt 0.413021 0.010888
vt 0.427030 0.001992
vt 0.454911 0.130133
vt 0.525557 0.111692
vt 0.525557 0.130133
vt 0.515823 0.105860
vt 0.515823 0.085771
vt 0.483730 0.081146
vt 0.454911 0.001992
vt 0.483730 0.037459
vt 0.490614 0.030903
vt 0.476605 0.001992
vt 0.490614 0.010888
vt 0.066253 0.666003
vt 0.034160 0.666003
vt 0.034160 0.333997
vt 0.066253 0.333997
vt 0.066253 0.998008
vt 0.034160 0.998008
vt 0.034160 0.001992
vt 0.066253 0.001992
vt 0.280864 0.666003
vt 0.259170 0.666003
vt 0.259170 0.333997
vt 0.280864 0.333997
vt 0.280864 0.998008
vt 0.259170 0.998008
vt 0.259170 0.001992
vt 0.280864 0.001992
vt 0.294873 0.666003
vt 0.294873 0.333997
vt 0.294873 0.998008
vt 0.294873 0.001992
vt 0.301245 0.998008
vt 0.301246 0.666003
vt 0.371686 0.666003
vt 0.371892 0.998008
vt 0.301246 0.333997
vt 0.371686 0.333997
vt 0.301245 0.001992
vt 0.371892 0.001992
vt 0.092666 0.666003
vt 0.072577 0.666003
vt 0.072577 0.333997
vt 0.092666 0.333997
vt 0.092666 0.998008
vt 0.072577 0.998008
vt 0.072577 0.001992
vt 0.092666 0.001992
vt 0.098497 0.333997
vt 0.098497 0.666003
vt 0.098497 0.998008
vt 0.098497 0.001992
vt 0.116939 0.333997
vt 0.116939 0.666003
vt 0.116939 0.998008
vt 0.116939 0.001992
vt 0.252206 0.998008
vt 0.124064 0.998008
vt 0.123798 0.666002
vt 0.252206 0.666002
vt 0.123798 0.333997
vt 0.252206 0.333997
vt 0.124064 0.001992
vt 0.252206 0.001992
vt 0.021064 0.666003
vt 0.001049 0.666003
vt 0.001049 0.333997
vt 0.021064 0.333997
vt 0.021064 0.998008
vt 0.001049 0.998008
vt 0.001049 0.001992
vt 0.021064 0.001992
vt 0.027620 0.666003
vt 0.027620 0.333997
vt 0.027620 0.998008
vt 0.027620 0.001992
vn 1.000000 0.000000 0.000000
vn 1.000000 0.000000 0.000000
vn 1.000000 0.000000 0.000000
vn 1.000000 -0.000023 0.000000
vn 1.000000 -0.000023 0.000000
vn 1.000000 -0.000023 0.000000
vn 1.000000 0.000000 0.000000
vn 1.000000 0.000000 0.000000
vn 1.000000 0.000000 0.000000
vn 1.000000 0.000000 0.000000
vn 1.000000 0.000000 0.000000
vn 1.000000 0.000000 0.000000
vn 1.000000 0.000000 0.000000
vn 1.000000 0.000000 0.000000
vn 1.000000 0.000000 0.000000
vn 1.000000 0.000000 0.000000
vn 1.000000 0.000002 0.000000
vn 1.000000 0.000002 0.000000
vn 1.000000 0.000002 0.000000
vn 1.000000 0.000000 0.000000
vn 1.000000 0.000000 0.000000
vn 1.000000 0.000000 0.000000
vn 1.000000 0.000000 0.000000
vn -1.000000 0.000000 0.000000
vn -1.000000 0.000000 0.000000
vn -1.000000 0.000000 0.000000
vn -1.000000 0.000000 0.000000
vn -1.000000 0.000000 0.000000
vn -1.000000 0.000000 0.000000
vn -1.000000 0.000000 0.000000
vn -1.000000 0.000000 0.000000
vn -1.000000 0.000000 0.000000
vn -1.000000 0.000000 0.000000
vn -1.000000 0.000000 0.000000
vn -1.000000 0.000000 0.000000
vn -1.000000 0.000000 0.000000
vn -1.000000 0.000000 0.000000
vn -1.000000 0.000000 0.000000
vn -1.000000 0.000000 0.000000
vn -1.000000 0.000000 0.000000
vn -1.000000 0.000000 0.000000
vn -1.000000 0.000000 0.000000
vn -1.000000 0.000000 0.000000
vn -1.000000 0.000000 0.000000
vn -1.000000 0.000000 0.000000
vn -1.000000 0.000000 0.000000
vn 0.000000 0.724117 0.689677
vn 0.000000 0.724117 0.689677
vn 0.000000 0.724117 0.689677
vn 0.000000 0.724117 0.689677
vn 0.000000 0.000000 1.000000
vn 0.000000 0.000000 1.000000
vn 0.000000 0.000000 1.000000
vn 0.000000 0.000000 1.000000
vn 0.000000 -0.989775 0.142638
vn 0.000000 -0.989775 0.142638
vn 0.000000 -0.989775 0.142638
vn 0.000000 -0.989775 0.142638
vn 0.000000 0.000000 1.000000
vn 0.000000 0.000000 1.000000
vn 0.000000 0.000000 1.000000
vn 0.000000 0.000000 1.000000
vn 0.000000 -0.857835 0.513926
vn 0.000000 -0.857835 0.513926
vn 0.000000 -0.857835 0.513926
vn 0.000000 -0.857835 0.513926
vn 0.000000 0.000011 1.000000
vn 0.000000 0.000011 1.000000
vn 0.000000 0.000011 1.000000
vn 0.000000 0.000011 1.000000
vn 0.000000 0.000005 1.000000
vn 0.000000 0.000005 1.000000
vn 0.000000 0.000005 1.000000
vn 0.000000 0.000005 1.000000
vn -0.000000 -0.857835 0.513926
vn -0.000000 -0.857835 0.513926
vn -0.000000 -0.857835 0.513926
vn -0.000000 -0.857835 0.513926
vn 0.000000 0.000000 -1.000000
vn 0.000000 0.000000 -1.000000
vn 0.000000 0.000000 -1.000000
vn 0.000000 0.000000 -1.000000
vn -0.000000 0.000000 1.000000
vn -0.000000 0.000000 1.000000
vn -0.000000 0.000000 1.000000
vn -0.000000 0.000000 1.000000
vn -0.000000 -0.989775 0.142638
vn -0.000000 -0.989775 0.142638
vn -0.000000 -0.989775 0.142638
vn -0.000000 -0.989775 0.142638
vn 0.000000 0.000000 1.000000
vn 0.000000 0.000000 1.000000
vn 0.000000 0.000000 1.000000
vn 0.000000 0.000000 1.000000
vn 0.000000 0.724117 0.689677
vn 0.000000 0.724117 0.689677
vn 0.000000 0.724117 0.689677
vn 0.000000 0.724117 0.689677
vn 0.000000 0.000000 -1.000000
vn 0.000000 0.000000 -1.000000
vn 0.000000 0.000000 -1.000000
vn 0.000000 0.000000 -1.000000
vn -0.000000 0.724118 0.689676
vn -0.000000 0.724118 0.689676
vn -0.000000 0.724118 0.689676
vn -0.000000 0.724118 0.689676
vn 0.000000 0.000000 1.000000
vn 0.000000 0.000000 1.000000
vn 0.000000 0.000000 1.000000
vn 0.000000 0.000000 1.000000
vn -0.000000 -0.989775 0.142638
vn -0.000000 -0.989775 0.142638
vn -0.000000 -0.989775 0.142638
vn -0.000000 -0.989775 0.142638
vn -0.000000 0.000000 1.000000
vn -0.000000 0.000000 1.000000
vn -0.000000 0.000000 1.000000
vn -0.000000 0.000000 1.000000
vn -0.000000 -0.857834 0.513926
vn -0.000000 -0.857835 0.513926
vn -0.000000 -0.857834 0.513926
vn -0.000000 -0.857834 0.513926
vn -0.000000 0.000005 1.000000
vn -0.000000 0.000005 1.000000
vn -0.000000 0.000005 1.000000
vn -0.000000 0.000005 1.000000
vn 0.000000 0.000000 -1.000000
vn 0.000000 0.000000 -1.000000
vn 0.000000 0.000000 -1.000000
vn 0.000000 0.000000 -1.000000
vn -0.000000 -0.844179 0.536061
vn -0.000000 -0.844179 0.536061
vn -0.000000 -0.844179 0.536061
vn -0.000000 -0.844179 0.536061
vn 0.000000 -0.844179 0.536061
vn 0.000000 -0.844179 0.536061
vn 0.000000 -0.844179 0.536061
vn 0.000000 -0.844179 0.536061
vn 0.000000 -0.844180 0.536060
vn 0.000000 -0.844180 0.536060
vn 0.000000 -0.844180 0.536060
vn 0.000000 -0.844180 0.536060
vn 0.000000 -1.000000 0.000000
vn 0.000000 -1.000000 0.000000
vn 0.000000 -1.000000 0.000000
vn 0.000000 -1.000000 0.000000
vn 0.000000 0.000000 1.000000
vn 0.000000 0.000000 1.000000
vn 0.000000 0.000000 1.000000
vn 0.000000 0.000000 1.000000
vn 0.000000 -0.000000 1.000000
vn 0.000000 -0.000000 1.000000
vn 0.000000 -0.000000 1.000000
vn 0.000000 -0.000000 1.000000
vn 0.000000 -1.000000 0.000000
vn 0.000000 -1.000000 0.000000
vn 0.000000 -1.000000 0.000000
vn 0.000000 -1.000000 0.000000
vn 0.000000 -1.000000 0.000000
vn 0.000000 -1.000000 0.000000
vn 0.000000 -1.000000 0.000000
vn 0.000000 -1.000000 0.000000
vn -0.000000 0.000000 1.000000
vn -0.000000 0.000000 1.000000
vn -0.000000 0.000000 1.000000
vn -0.000000 0.000000 1.000000
vn -0.000001 1.000000 -0.000003
vn -0.000001 1.000000 -0.000003
vn -0.000001 1.000000 -0.000003
vn -0.000001 1.000000 -0.000003
vn 0.000000 1.000000 -0.000005
vn 0.000000 1.000000 -0.000005
vn 0.000000 1.000000 -0.000005
vn 0.000000 1.000000 -0.000005
vn 0.000001 1.000000 -0.000003
vn 0.000001 1.000000 -0.000003
vn 0.000001 1.000000 -0.000003
vn 0.000001 1.000000 -0.000003
s off
f 10/13/1 11/14/2 12/15/3
f 11/14/4 10/13/5 14/16/6
f 13/17/7 11/14/8 14/16/9
f 15/18/10 11/14/11 13/17/12
f 16/19/13 17/20/14 11/14/15 15/18/16
f 18/21/17 17/20/18 16/19/19
f 17/20/20 18/21/21 42/22/22 41/23/23
f 3/24/24 2/25/25 9/26/26
f 2/25/27 3/24/28 8/27/29
f 3/24/30 4/28/31 8/27/32
f 3/24/33 5/29/34 4/28/35
f 3/24/36 1/30/37 6/31/38 5/29/39
f 1/30/40 7/32/41 6/31/42
f 1/30/43 44/33/44 43/34/45 7/32/46
f 25/95/47 23/87/48 24/90/49 26/96/50
f 27/5/51 25/6/52 26/7/53 28/8/54
f 29/35/55 27/36/56 28/37/57 30/38/58
f 31/63/59 29/64/60 30/65/61 32/66/62
f 31/63/63 32/66/64 34/71/65 33/72/66
f 36/75/67 35/76/68 33/72/69 34/71/70
f 35/76/71 9/77/72 2/73/73 33/72/74
f 31/63/75 33/72/76 2/73/77 8/67/78
f 1/79/79 3/80/80 19/81/81 21/82/82
f 8/67/83 4/68/84 29/64/85 31/63/86
f 4/39/87 5/40/88 27/36/89 29/35/90
f 5/1/91 6/2/92 25/3/93 27/4/94
f 6/97/95 7/91/96 23/87/97 25/95/98
f 20/83/99 11/85/100 17/86/101 22/84/102
f 26/96/103 24/90/104 18/94/105 16/98/106
f 28/9/107 26/10/108 16/11/109 15/12/110
f 30/38/111 28/37/112 15/41/113 13/42/114
f 32/66/115 30/65/116 13/69/117 14/70/118
f 34/71/119 32/66/120 14/70/121 10/74/122
f 12/78/123 36/75/124 34/71/125 10/74/126
f 21/82/127 19/81/128 20/83/129 22/84/130
f 37/43/131 38/51/132 43/53/133 44/47/134
f 38/51/135 37/43/136 40/46/137 39/52/138
f 39/52/139 40/46/140 41/50/141 42/54/142
f 37/43/143 21/44/144 22/45/145 40/46/146
f 23/87/147 38/88/148 39/89/149 24/90/150
f 7/91/151 43/92/152 38/88/153 23/87/154
f 37/43/155 44/47/156 1/48/157 21/44/158
f 40/46/159 22/45/160 17/49/161 41/50/162
f 24/90/163 39/89/164 42/93/165 18/94/166
f 9/55/167 35/56/168 19/57/169 3/58/170
f 35/56/171 36/59/172 20/60/173 19/57/174
f 36/59/175 12/61/176 11/62/177 20/60/178
