# This file uses centimeters as units for non-parametric coordinates.

v 121.875534 112.500153 -128.124557
v 121.875488 112.500153 -247.501190
v 62.500732 112.500092 -247.501190
v 62.500793 112.500092 -187.499329
v 187.500244 37.500061 -247.501190
v 246.875000 37.500122 -247.501190
v 244.539505 35.541637 -250.001251
v 185.164749 35.541576 -250.001251
v 247.664505 -8.826769 -250.001251
v 247.664505 32.927258 -250.001251
v 185.164749 70.427109 -250.001251
v 182.039749 73.041489 -250.001251
v 184.375244 74.999969 -247.501190
v 187.500244 72.385590 -247.501190
v 250.000000 34.885742 -247.501190
v 250.000000 -8.826769 -247.501190
v 210.120163 -8.826769 -250.001251
v 210.024353 -8.826769 -39.975685
v 125.000534 75.000031 -124.999557
v 125.000488 75.000031 -247.501190
v 125.000488 109.885773 -247.501190
v 125.000534 109.885780 -124.999557
v 184.375275 74.999969 -65.624786
v 187.500275 37.500061 -62.499786
v 187.500275 72.385590 -62.499786
v 246.875000 37.500122 -3.125013
v 250.000000 -8.826769 -2.500000
v 247.501190 -8.826769 0.000000
v 250.000000 34.885742 -2.500000
v 247.501190 34.885742 0.000000
v 0.000771 114.810211 -249.999619
v 62.500793 147.385651 -187.499329
v 59.375793 150.000031 -190.624329
v 2.499481 150.000031 -247.500671
v 0.000771 148.042175 -249.999619
v 62.500732 147.385651 -247.501190
v 59.375732 150.000031 -247.501190
v 122.664993 107.927292 -250.001251
v 119.539993 110.541672 -250.001251
v 122.664993 73.041550 -250.001251
v 60.165237 145.427170 -250.001251
v 57.040237 148.041550 -250.001251
v 60.165237 110.541611 -250.001251
v 2.500000 112.500092 -187.499268
v 2.500000 112.500153 -128.124512
v -0.000000 35.541576 -64.835251
v -0.000000 35.541637 -5.460497
v 2.500000 37.500122 -3.125000
v 2.500000 37.500061 -62.499756
v -0.000000 -8.826769 -2.335497
v -0.000000 32.927258 -2.335497
v 2.500000 72.385590 -62.499756
v 2.500000 74.999969 -65.624756
v -0.000000 73.041489 -67.960251
v -0.000000 70.427109 -64.835251
v 2.500000 -8.826769 0.000000
v 2.500000 34.885742 0.000000
v 2.500000 109.885780 -124.999512
v 2.500000 75.000031 -124.999512
v -0.000000 -8.826769 -40.071590
v -0.000000 107.927292 -127.335007
v 2.500000 150.000031 -190.624268
v 2.500000 147.385651 -187.499268
v -0.000000 110.541672 -130.460007
v -0.000000 73.041550 -127.335007
v -0.000000 148.041550 -192.959763
v -0.000000 145.427170 -189.834763
v -0.000000 110.541611 -189.834763
vt 0.488794 0.606413
vt 0.011290 0.606281
vt 0.011832 0.753534
vt 0.251759 0.753641
vt 0.010004 0.266525
vt 0.011290 0.118252
vt 0.001290 0.123595
vt 0.000000 0.268645
vt 0.000000 0.183304
vt 0.252358 0.362451
vt 0.012618 0.362452
vt 0.000000 0.351895
vt 0.001290 0.349305
vt 0.001290 0.368629
vt 0.011290 0.363386
vt 0.011290 0.353362
vt 0.001290 0.104872
vt 0.011290 0.108154
vt 0.011226 -0.004345
vt 0.001225 -0.002302
vt 0.001280 0.135933
vt 0.841210 0.136992
vt 0.501475 0.510545
vt 0.011299 0.510210
vt 0.011290 0.596352
vt 0.501294 0.596499
vt 0.738792 0.363669
vt 0.750302 0.267020
vt 0.751292 0.353651
vt 0.988801 0.118759
vt 0.991240 -0.003954
vt 1.001241 -0.001828
vt 0.991290 0.108630
vt 1.001290 0.110609
vt 0.251296 0.839929
vt 0.011290 0.839889
vt 0.011290 0.849942
vt 0.238796 0.849967
vt 0.001290 0.592719
vt 0.001290 0.611415
vt 0.504715 0.513866
vt 0.264975 0.513866
vt 0.252358 0.503310
vt 0.001295 0.512273
vt 0.011290 0.993674
vt 0.001295 0.999974
vt 0.999999 0.682516
vt 0.001290 0.835664
vt 0.001290 0.855005
vt 0.757073 0.665282
vt 0.517333 0.665282
vt 0.504715 0.654726
vt 0.001835 0.755639
vt 0.151594 0.183304
vt 1.000000 0.816697
vt 0.769691 0.816697
vt 0.757073 0.806140
vt 0.001294 0.999986
vt 0.249705 0.753864
vt 0.009782 0.753971
vt 0.010000 0.606552
vt 0.487500 0.606420
vt 0.000890 0.269376
vt 0.000000 0.124200
vt 0.010000 0.118760
vt 0.010894 0.267181
vt 0.252358 0.362451
vt 0.000000 0.183304
vt 0.000000 0.351895
vt 0.012618 0.362452
vt 0.010000 0.353745
vt 0.010000 0.363768
vt 0.000000 0.369240
vt 0.000000 0.349812
vt 0.010050 -0.003954
vt 0.010000 0.108630
vt 0.000000 0.105423
vt 0.000046 -0.002266
vt 0.500000 0.596499
vt 0.010000 0.596646
vt 0.009647 0.510879
vt 0.499819 0.510545
vt 0.737498 0.363484
vt 0.749997 0.353456
vt 0.751188 0.266685
vt 0.987508 0.118249
vt 0.990067 -0.004715
vt 0.840282 0.136711
vt 0.990000 0.108108
vt 0.000008 0.136575
vt 0.000003 0.999968
vt 0.000000 0.593220
vt 0.000000 0.611830
vt 0.237502 0.850023
vt 0.010000 0.850048
vt 0.010000 0.840054
vt 0.250002 0.840013
vt 0.504715 0.513866
vt 0.252358 0.503310
vt 0.264976 0.513866
vt -0.000356 0.513056
vt 0.010000 0.993676
vt 1.000000 0.682517
vt 0.000000 0.855158
vt 0.000000 0.835910
vt 0.757073 0.665282
vt 0.504715 0.654726
vt 0.517333 0.665282
vt -0.000215 0.756171
vt 0.152368 0.183304
vt 1.000000 0.816697
vt 0.757073 0.806140
vt 0.769691 0.816697
vt 0.000002 0.999986
vn -0.000001 1.000000 0.000000
vn -0.000001 1.000000 0.000000
vn -0.000001 1.000000 0.000000
vn -0.000001 1.000000 0.000000
vn -0.000001 0.787213 -0.616682
vn -0.000001 0.787213 -0.616682
vn -0.000001 0.787213 -0.616682
vn -0.000001 0.787213 -0.616682
vn 0.000000 0.000000 -1.000000
vn 0.000000 0.000000 -1.000000
vn 0.000000 0.000000 -1.000000
vn 0.000000 0.000000 -1.000000
vn 0.410727 0.490950 -0.768291
vn 0.410727 0.490950 -0.768291
vn 0.410727 0.490950 -0.768291
vn 0.410727 0.490950 -0.768291
vn 0.730752 0.000000 -0.682643
vn 0.730752 0.000000 -0.682643
vn 0.730752 0.000000 -0.682643
vn 0.730752 0.000000 -0.682643
vn -0.507134 -0.861867 -0.000231
vn -0.507134 -0.861867 -0.000231
vn -0.507134 -0.861867 -0.000231
vn 1.000000 0.000000 -0.000000
vn 1.000000 0.000000 -0.000000
vn 1.000000 0.000000 -0.000000
vn 1.000000 0.000000 -0.000000
vn 0.410728 0.490952 -0.768289
vn 0.410728 0.490952 -0.768289
vn 0.410728 0.490952 -0.768289
vn 0.410728 0.490952 -0.768289
vn 0.641662 0.766987 -0.000000
vn 0.641662 0.766987 -0.000000
vn 0.641662 0.766987 -0.000000
vn 0.641662 0.766987 -0.000000
vn 0.000001 1.000000 0.000000
vn 0.000001 1.000000 0.000000
vn 0.000001 1.000000 0.000000
vn 0.000001 1.000000 0.000000
vn 1.000000 0.000000 -0.000000
vn 1.000000 0.000000 -0.000000
vn 1.000000 0.000000 -0.000000
vn 1.000000 0.000000 -0.000000
vn 0.641661 0.766988 -0.000000
vn 0.641661 0.766988 -0.000000
vn 0.641661 0.766988 -0.000000
vn 0.641661 0.766988 -0.000000
vn -0.000001 1.000000 0.000000
vn -0.000001 1.000000 0.000000
vn -0.000001 1.000000 0.000000
vn -0.000001 1.000000 0.000000
vn 0.000000 -1.000000 0.000000
vn 0.000000 -1.000000 0.000000
vn 0.000000 -1.000000 0.000000
vn 1.000000 0.000000 0.000000
vn 1.000000 0.000000 0.000000
vn 1.000000 0.000000 0.000000
vn 1.000000 0.000000 0.000000
vn 0.496530 0.712145 0.496294
vn 0.496530 0.712145 0.496294
vn 0.496530 0.712145 0.496294
vn 0.000000 -1.000000 0.000000
vn 0.000000 -1.000000 0.000000
vn 0.000000 -1.000000 0.000000
vn 0.000000 -1.000000 0.000000
vn 0.707275 0.000000 0.706938
vn 0.707275 0.000000 0.706938
vn 0.707275 0.000000 0.706938
vn 0.707275 0.000000 0.706938
vn 0.641662 0.766987 0.000000
vn 0.641662 0.766987 0.000000
vn 0.641662 0.766987 0.000000
vn 0.641662 0.766987 0.000000
vn 0.730748 0.000000 -0.682648
vn 0.730748 0.000000 -0.682648
vn 0.730748 0.000000 -0.682648
vn 0.730748 0.000000 -0.682648
vn 0.641663 0.766987 -0.000001
vn 0.641663 0.766987 -0.000001
vn 0.641663 0.766987 -0.000001
vn 0.641663 0.766987 -0.000001
vn 0.410728 0.490950 -0.768291
vn 0.410728 0.490950 -0.768291
vn 0.410728 0.490950 -0.768291
vn 0.410728 0.490950 -0.768291
vn -0.000001 0.000000 -1.000000
vn -0.000001 0.000000 -1.000000
vn -0.000001 0.000000 -1.000000
vn -0.000001 0.000000 -1.000000
vn 0.000001 0.787213 -0.616682
vn 0.000001 0.787213 -0.616682
vn 0.000001 0.787213 -0.616682
vn 0.000001 0.787213 -0.616682
vn 0.000000 1.000000 0.000000
vn 0.000000 1.000000 0.000000
vn 0.000000 1.000000 0.000000
vn 1.000000 0.000000 -0.000001
vn 1.000000 0.000000 -0.000001
vn 1.000000 0.000000 -0.000001
vn 1.000000 0.000000 -0.000001
vn 0.000000 -1.000000 0.000000
vn 0.000000 -1.000000 0.000000
vn 0.000000 -1.000000 0.000000
vn 0.730750 0.000000 -0.682646
vn 0.730750 0.000000 -0.682646
vn 0.730750 0.000000 -0.682646
vn 0.730750 0.000000 -0.682646
vn -0.000031 -0.000051 -1.000000
vn -0.000031 -0.000051 -1.000000
vn -0.000031 -0.000051 -1.000000
vn 0.410727 0.490950 -0.768291
vn 0.410727 0.490950 -0.768291
vn 0.410727 0.490950 -0.768291
vn 0.410727 0.490950 -0.768291
vn 0.000000 0.000000 -1.000000
vn 0.000000 0.000000 -1.000000
vn 0.000000 0.000000 -1.000000
vn 0.000000 0.000000 -1.000000
vn -0.000001 0.787212 -0.616682
vn -0.000001 0.787212 -0.616682
vn -0.000001 0.787212 -0.616682
vn -0.000001 0.787212 -0.616682
vn -0.000031 -0.000051 -1.000000
vn -0.000031 -0.000051 -1.000000
vn -0.000031 -0.000051 -1.000000
vn -0.000009 -0.000005 -1.000000
vn -0.000009 -0.000005 -1.000000
vn -0.000009 -0.000005 -1.000000
vn -0.000009 -0.000005 -1.000000
vn 0.730748 0.000000 -0.682648
vn 0.730748 0.000000 -0.682648
vn 0.730748 0.000000 -0.682648
vn 0.730748 0.000000 -0.682648
vn -0.000027 0.000000 -1.000000
vn -0.000027 0.000000 -1.000000
vn -0.000027 0.000000 -1.000000
vn -0.000028 -0.000002 -1.000000
vn -0.000028 -0.000002 -1.000000
vn -0.000028 -0.000002 -1.000000
vn -0.000028 -0.000002 -1.000000
vn -0.000007 0.787199 -0.616700
vn -0.000007 0.787199 -0.616700
vn -0.000007 0.787199 -0.616700
vn -0.000007 0.787199 -0.616700
vn -0.000000 1.000000 -0.000001
vn -0.000000 1.000000 -0.000001
vn -0.000000 1.000000 -0.000001
vn -0.000000 1.000000 -0.000001
vn -0.616691 0.787205 -0.000001
vn -0.616691 0.787205 -0.000001
vn -0.616691 0.787205 -0.000001
vn -0.616691 0.787205 -0.000001
vn -1.000000 0.000000 0.000000
vn -1.000000 0.000000 0.000000
vn -1.000000 0.000000 0.000000
vn -1.000000 0.000000 0.000000
vn -0.768298 0.490943 0.410723
vn -0.768298 0.490943 0.410723
vn -0.768298 0.490943 0.410723
vn -0.768298 0.490943 0.410723
vn -0.682656 0.000000 0.730740
vn -0.682656 0.000000 0.730740
vn -0.682656 0.000000 0.730740
vn -0.682656 0.000000 0.730740
vn 0.000000 0.000000 1.000000
vn 0.000000 0.000000 1.000000
vn 0.000000 0.000000 1.000000
vn 0.000000 0.000000 1.000000
vn -0.768298 0.490942 0.410723
vn -0.768298 0.490942 0.410723
vn -0.768298 0.490942 0.410723
vn -0.768298 0.490942 0.410723
vn 0.000000 0.766988 0.641661
vn 0.000000 0.766988 0.641661
vn 0.000000 0.766988 0.641661
vn 0.000000 0.766988 0.641661
vn 0.000000 1.000000 0.000001
vn 0.000000 1.000000 0.000001
vn 0.000000 1.000000 0.000001
vn 0.000000 1.000000 0.000001
vn 0.000000 0.000000 1.000000
vn 0.000000 0.000000 1.000000
vn 0.000000 0.000000 1.000000
vn 0.000000 0.000000 1.000000
vn 0.000000 0.766987 0.641663
vn 0.000000 0.766987 0.641663
vn 0.000000 0.766987 0.641663
vn 0.000000 0.766987 0.641663
vn -0.000000 1.000000 -0.000001
vn -0.000000 1.000000 -0.000001
vn -0.000000 1.000000 -0.000001
vn -0.000000 1.000000 -0.000001
vn 0.000000 0.000000 1.000000
vn 0.000000 0.000000 1.000000
vn 0.000000 0.000000 1.000000
vn 0.000000 0.000000 1.000000
vn 0.000000 -1.000000 0.000000
vn 0.000000 -1.000000 0.000000
vn 0.000000 -1.000000 0.000000
vn 0.000000 -1.000000 0.000000
vn 0.000000 0.766988 0.641662
vn 0.000000 0.766988 0.641662
vn 0.000000 0.766988 0.641662
vn 0.000000 0.766988 0.641662
vn 0.000232 -0.861665 -0.507477
vn 0.000232 -0.861665 -0.507477
vn 0.000232 -0.861665 -0.507477
vn -0.682657 0.000000 0.730739
vn -0.682657 0.000000 0.730739
vn -0.682657 0.000000 0.730739
vn -0.682657 0.000000 0.730739
vn -0.768299 0.490943 0.410722
vn -0.768299 0.490943 0.410722
vn -0.768299 0.490943 0.410722
vn -0.768299 0.490943 0.410722
vn 0.000001 0.766986 0.641664
vn 0.000001 0.766986 0.641664
vn 0.000001 0.766986 0.641664
vn 0.000001 0.766986 0.641664
vn -1.000000 0.000000 0.000000
vn -1.000000 0.000000 0.000000
vn -1.000000 0.000000 0.000000
vn -1.000000 0.000000 0.000000
vn -0.616691 0.787205 0.000001
vn -0.616691 0.787205 0.000001
vn -0.616691 0.787205 0.000001
vn -0.616691 0.787205 0.000001
vn 0.000000 1.000000 -0.000001
vn 0.000000 1.000000 -0.000001
vn 0.000000 1.000000 -0.000001
vn 0.000001 0.000000 1.000000
vn 0.000001 0.000000 1.000000
vn 0.000001 0.000000 1.000000
vn 0.000001 0.000000 1.000000
vn 0.000000 -1.000000 0.000000
vn 0.000000 -1.000000 0.000000
vn 0.000000 -1.000000 0.000000
vn -0.682656 0.000000 0.730740
vn -0.682656 0.000000 0.730740
vn -0.682656 0.000000 0.730740
vn -0.682656 0.000000 0.730740
vn -1.000000 -0.000024 -0.000015
vn -1.000000 -0.000024 -0.000015
vn -1.000000 -0.000024 -0.000015
vn -0.768297 0.490943 0.410724
vn -0.768297 0.490943 0.410724
vn -0.768297 0.490943 0.410724
vn -0.768297 0.490943 0.410724
vn -1.000000 0.000000 0.000000
vn -1.000000 0.000000 0.000000
vn -1.000000 0.000000 0.000000
vn -1.000000 0.000000 0.000000
vn -0.616690 0.787206 -0.000001
vn -0.616690 0.787206 -0.000001
vn -0.616690 0.787206 -0.000001
vn -0.616690 0.787206 -0.000001
vn -1.000000 -0.000024 -0.000015
vn -1.000000 -0.000024 -0.000015
vn -1.000000 -0.000024 -0.000015
vn -1.000000 -0.000002 -0.000004
vn -1.000000 -0.000002 -0.000004
vn -1.000000 -0.000002 -0.000004
vn -1.000000 -0.000002 -0.000004
vn -0.682657 0.000000 0.730739
vn -0.682657 0.000000 0.730739
vn -0.682657 0.000000 0.730739
vn -0.682657 0.000000 0.730739
vn -1.000000 -0.000000 -0.000013
vn -1.000000 -0.000000 -0.000013
vn -1.000000 -0.000000 -0.000013
vn -1.000000 -0.000001 -0.000013
vn -1.000000 -0.000001 -0.000013
vn -1.000000 -0.000001 -0.000013
vn -1.000000 -0.000001 -0.000013
vn -0.616730 0.787175 0.000003
vn -0.616730 0.787175 0.000003
vn -0.616730 0.787175 0.000003
vn -0.616730 0.787175 0.000003
s off
f 1/1/1 2/2/2 3/3/3 4/4/4
f 5/5/5 6/6/6 7/7/7 8/8/8
f 9/9/9 8/10/10 7/11/11 10/12/12
f 11/13/13 12/14/14 13/15/15 14/16/16
f 10/17/17 15/18/18 16/19/19 9/20/20
f 17/21/21 18/22/22 31/46/23
f 19/23/24 20/24/25 21/25/26 22/26/27
f 10/17/28 7/7/29 6/6/30 15/18/31
f 2/2/32 1/1/33 22/26/34 21/25/35
f 23/27/36 13/15/37 20/24/38 19/23/39
f 24/28/40 5/5/41 14/16/42 25/29/43
f 25/29/44 14/16/45 13/15/46 23/27/47
f 26/30/48 6/6/49 5/5/50 24/28/51
f 18/22/52 27/31/53 28/32/54
f 16/19/55 15/18/56 29/33/57 27/31/58
f 30/34/59 29/33/60 26/30/61
f 18/22/62 17/21/63 16/19/64 27/31/65
f 28/32/66 27/31/67 29/33/68 30/34/69
f 26/30/70 29/33/71 15/18/72 6/6/73
f 11/13/74 14/16/75 5/5/76 8/8/77
f 32/35/78 36/36/79 37/37/80 33/38/81
f 38/39/82 39/40/83 2/2/84 21/25/85
f 8/10/86 40/41/87 12/42/88 11/43/89
f 20/24/90 13/15/91 12/14/92 40/44/93
f 33/38/94 37/37/95 34/45/96
f 4/4/97 3/3/98 36/36/99 32/35/100
f 9/20/101 16/19/102 17/21/103
f 38/39/104 21/25/105 20/24/106 40/44/107
f 31/47/108 40/41/109 8/10/110
f 41/48/111 42/49/112 37/37/113 36/36/114
f 40/41/115 43/50/116 39/51/117 38/52/118
f 3/3/119 2/2/120 39/40/121 43/53/122
f 31/47/123 43/50/124 40/41/125
f 31/47/126 8/10/127 9/9/128 17/54/129
f 41/48/130 36/36/131 3/3/132 43/53/133
f 31/47/134 35/55/135 43/50/136
f 43/50/137 35/55/138 42/56/139 41/57/140
f 34/45/141 37/37/142 42/49/143 35/58/144
f 4/59/145 44/60/146 45/61/147 1/62/148
f 46/63/149 47/64/150 48/65/151 49/66/152
f 46/67/153 50/68/154 51/69/155 47/70/156
f 52/71/157 53/72/158 54/73/159 55/74/160
f 56/75/161 57/76/162 51/77/163 50/78/164
f 22/79/165 58/80/166 59/81/167 19/82/168
f 57/76/169 48/65/170 47/64/171 51/77/172
f 58/80/173 22/79/174 1/62/175 45/61/176
f 19/82/177 59/81/178 53/72/179 23/83/180
f 25/84/181 52/71/182 49/66/183 24/85/184
f 23/83/185 53/72/186 52/71/187 25/84/188
f 24/85/189 49/66/190 48/65/191 26/86/192
f 28/87/193 30/89/194 57/76/195 56/75/196
f 18/88/197 28/87/198 56/75/199 60/90/200
f 26/86/201 48/65/202 57/76/203 30/89/204
f 18/88/205 60/90/206 31/91/207
f 49/66/208 52/71/209 55/74/210 46/63/211
f 61/92/212 58/80/213 45/61/214 64/93/215
f 33/94/216 62/95/217 63/96/218 32/97/219
f 65/98/220 46/67/221 55/99/222 54/100/223
f 65/101/224 54/73/225 53/72/226 59/81/227
f 34/102/228 62/95/229 33/94/230
f 32/97/231 63/96/232 44/60/233 4/59/234
f 60/90/235 56/75/236 50/78/237
f 59/81/238 58/80/239 61/92/240 65/101/241
f 31/103/242 46/67/243 65/98/244
f 63/96/245 62/95/246 66/104/247 67/105/248
f 68/106/249 65/98/250 61/107/251 64/108/252
f 68/109/253 64/93/254 45/61/255 44/60/256
f 31/103/257 65/98/258 68/106/259
f 50/68/260 46/67/261 31/103/262 60/110/263
f 44/60/264 63/96/265 67/105/266 68/109/267
f 31/103/268 68/106/269 35/111/270
f 35/111/271 68/106/272 67/112/273 66/113/274
f 35/114/275 66/104/276 62/95/277 34/102/278
