# This file uses centimeters as units for non-parametric coordinates.

v 500.000000 68.463501 -249.999023
v 500.000000 68.463501 0.000000
v 750.000000 68.463501 0.000000
v 750.000000 68.463501 -249.999023
v 500.000000 75.695831 -249.999023
v 500.000000 75.695831 0.000000
v 750.000000 75.695831 0.000000
v 750.000000 75.695831 -249.999023
v 750.000000 99.850311 -124.999512
v 750.000000 107.907906 -124.999512
v 500.000000 107.907906 -124.999512
v 500.000000 99.850311 -124.999512
v 250.000000 68.463501 -249.999023
v 250.000000 68.463501 0.000000
v 250.000000 75.695831 -249.999023
v 250.000000 75.695831 0.000000
v 250.000000 107.907906 -124.999512
v 250.000000 99.850311 -124.999512
v 0.000000 68.463501 -249.999023
v 0.000000 68.463501 0.000000
v 0.000000 75.695831 -249.999023
v 0.000000 75.695831 0.000000
v 0.000000 107.907906 -124.999512
v 0.000000 99.850311 -124.999512
vt 0.985507 -0.018697
vt 0.014745 -0.018697
vt 0.001412 0.001493
vt 0.998601 0.001493
vt 0.998601 0.001493
vt 0.998601 0.001493
vt 0.985507 -0.018697
vt 0.014745 -0.018697
vt 0.998601 0.001493
vt 0.998601 0.001493
vt 0.001412 0.001493
vt 0.001412 0.001493
vt 0.998601 0.001493
vt 0.001412 0.001493
vt 0.972431 0.500052
vt 0.998601 0.500052
vt 0.998601 0.500052
vt 0.001412 0.500052
vt 0.028001 0.500052
vt 0.985507 -0.018697
vt 0.014745 -0.018697
vt 0.001412 0.001493
vt 0.998601 0.001493
vt 0.998601 0.001493
vt 0.998601 0.500052
vt 0.001412 0.500052
vt 0.001412 0.001493
vt 0.985507 -0.018697
vt 0.998601 0.001493
vt 0.001412 0.001493
vt 0.014745 -0.018697
vt 0.998601 0.001493
vt 0.001412 0.001493
vt 0.972431 0.500052
vt 0.028001 0.500052
vt 0.985507 -0.018697
vt 0.014745 -0.018697
vt 0.001412 0.001493
vt 0.998601 0.001493
vt 0.001412 0.500052
vt 0.028001 0.500052
vt 0.014745 -0.018697
vt 0.001412 0.001493
vt 0.998601 0.001493
vt 0.998601 0.500052
vt 0.001412 0.500052
vt 0.001412 0.001493
vt 0.985507 -0.018697
vt 0.998601 0.001493
vt 0.001412 0.001493
vt 0.998601 0.001493
vt 0.001412 0.001493
vt 0.001412 0.001493
vt 0.972431 0.500052
vn 0.000000 0.000000 -1.000000
vn 0.000000 0.000000 -1.000000
vn 0.000000 0.000000 -1.000000
vn 0.000000 0.000000 -1.000000
vn 1.000000 0.000000 0.000000
vn 1.000000 0.000000 0.000000
vn 1.000000 0.000000 0.000000
vn 1.000000 0.000000 0.000000
vn 0.000000 0.968363 0.249545
vn 0.000000 0.968363 0.249545
vn 0.000000 0.968363 0.249545
vn 0.000000 0.968363 0.249545
vn 0.000000 0.000000 1.000000
vn 0.000000 0.000000 1.000000
vn 0.000000 0.000000 1.000000
vn 0.000000 0.000000 1.000000
vn 1.000000 0.000000 0.000000
vn 1.000000 0.000000 0.000000
vn 1.000000 0.000000 0.000000
vn 1.000000 0.000000 0.000000
vn 0.000000 0.968363 -0.249545
vn 0.000000 0.968363 -0.249545
vn 0.000000 0.968363 -0.249545
vn 0.000000 0.968363 -0.249545
vn 0.000000 -0.969892 0.243536
vn 0.000000 -0.969892 0.243536
vn 0.000000 -0.969892 0.243536
vn 0.000000 -0.969892 0.243536
vn 0.000000 -0.969892 -0.243536
vn 0.000000 -0.969892 -0.243536
vn 0.000000 -0.969892 -0.243536
vn 0.000000 -0.969892 -0.243536
vn 0.000000 0.000000 -1.000000
vn 0.000000 0.000000 -1.000000
vn 0.000000 0.000000 -1.000000
vn 0.000000 0.000000 -1.000000
vn 0.000000 0.968363 0.249545
vn 0.000000 0.968363 0.249545
vn 0.000000 0.968363 0.249545
vn 0.000000 0.968363 0.249545
vn 0.000000 0.000000 1.000000
vn 0.000000 0.000000 1.000000
vn 0.000000 0.000000 1.000000
vn 0.000000 0.000000 1.000000
vn 0.000000 0.968363 -0.249545
vn 0.000000 0.968363 -0.249545
vn 0.000000 0.968363 -0.249545
vn 0.000000 0.968363 -0.249545
vn 0.000000 -0.969892 0.243536
vn 0.000000 -0.969892 0.243536
vn 0.000000 -0.969892 0.243536
vn 0.000000 -0.969892 0.243536
vn 0.000000 -0.969892 -0.243536
vn 0.000000 -0.969892 -0.243536
vn 0.000000 -0.969892 -0.243536
vn 0.000000 -0.969892 -0.243536
vn 0.000000 0.000000 -1.000000
vn 0.000000 0.000000 -1.000000
vn 0.000000 0.000000 -1.000000
vn 0.000000 0.000000 -1.000000
vn -1.000000 0.000000 0.000000
vn -1.000000 0.000000 0.000000
vn -1.000000 0.000000 0.000000
vn -1.000000 0.000000 0.000000
vn 0.000000 0.968363 0.249545
vn 0.000000 0.968363 0.249545
vn 0.000000 0.968363 0.249545
vn 0.000000 0.968363 0.249545
vn 0.000000 0.000000 1.000000
vn 0.000000 0.000000 1.000000
vn 0.000000 0.000000 1.000000
vn 0.000000 0.000000 1.000000
vn 0.000000 0.968363 -0.249545
vn 0.000000 0.968363 -0.249545
vn 0.000000 0.968363 -0.249545
vn 0.000000 0.968363 -0.249545
vn -1.000000 0.000000 0.000000
vn -1.000000 0.000000 0.000000
vn -1.000000 0.000000 0.000000
vn -1.000000 0.000000 0.000000
vn 0.000000 -0.969892 0.243536
vn 0.000000 -0.969892 0.243536
vn 0.000000 -0.969892 0.243536
vn 0.000000 -0.969892 0.243536
vn 0.000000 -0.969892 -0.243536
vn 0.000000 -0.969892 -0.243536
vn 0.000000 -0.969892 -0.243536
vn 0.000000 -0.969892 -0.243536
s off
f 4/1/1 1/2/2 5/3/3 8/4/4
f 9/15/5 10/16/6 7/6/7 3/7/8
f 7/9/9 10/17/10 11/18/11 6/12/12
f 3/7/13 7/13/14 6/14/15 2/8/16
f 4/1/17 8/5/18 10/16/19 9/15/20
f 11/18/21 10/17/22 8/10/23 5/11/24
f 4/1/25 9/15/26 12/19/27 1/2/28
f 9/15/29 3/7/30 2/8/31 12/19/32
f 1/20/33 13/21/34 15/22/35 5/23/36
f 6/24/37 11/25/38 17/26/39 16/27/40
f 2/28/41 6/29/42 16/30/43 14/31/44
f 17/26/45 11/25/46 5/32/47 15/33/48
f 1/20/49 12/34/50 18/35/51 13/21/52
f 12/34/53 2/28/54 14/31/55 18/35/56
f 13/36/57 19/37/58 21/38/59 15/39/60
f 23/40/61 24/41/62 20/42/63 22/43/64
f 16/44/65 17/45/66 23/46/67 22/47/68
f 14/48/69 16/49/70 22/50/71 20/42/72
f 23/46/73 17/45/74 15/51/75 21/52/76
f 21/53/77 19/37/78 24/41/79 23/40/80
f 13/36/81 18/54/82 24/41/83 19/37/84
f 18/54/85 14/48/86 20/42/87 24/41/88
