# This file uses centimeters as units for non-parametric coordinates.

v 39.975594 -8.826769 -39.975739
v 39.879837 -8.826769 0.001221
v 2.335497 -8.826769 0.001221
v 0.000000 -8.826769 -2.335497
v 2.335495 70.427109 0.001221
v 0.000000 70.427109 -2.335495
v 2.812256 74.825516 -2.812135
v 249.998901 114.810211 -249.999146
v 249.999023 114.810211 0.001221
v 249.999023 114.810211 -2.498779
v 249.999023 150.000031 -249.999146
v 127.335007 73.041550 0.001221
v 5.460495 73.041489 0.001221
v 124.999512 75.000031 -2.498779
v 124.999420 75.000031 -124.999603
v 130.460007 148.041550 0.001221
v 127.335007 145.427170 0.001221
v 124.999512 147.385651 -2.498779
v 124.999420 147.385651 -124.999603
v 249.999023 148.041550 0.001221
v 128.124512 150.000031 -2.498779
v 128.124420 150.000031 -128.124603
v 249.999023 150.000031 -2.498779
v 2.500000 114.810211 -249.999023
v 2.500000 150.000031 -249.999023
v 0.000000 73.041550 -127.335007
v 0.000000 73.041489 -5.460494
v 2.500000 75.000031 -124.999512
v 2.500000 147.385651 -124.999512
v 2.500000 150.000031 -128.124512
v 0.000000 148.041550 -130.460007
v 0.000000 145.427170 -127.335007
v 0.000000 -8.826769 -40.071590
v 0.000000 114.810211 -249.999023
v 0.000000 148.041550 -249.999023
vt 0.840293 0.863883
vt 1.000023 0.864094
vt 1.000036 0.996617
vt 0.990719 1.003605
vt 1.000000 0.808535
vt 0.990815 0.813827
vt 0.989165 0.794861
vt 0.000059 0.000941
vt 1.000000 0.682517
vt 0.000000 0.183304
vt 0.151594 0.183304
vt 0.990000 0.000901
vt 0.001071 0.001582
vt 0.504715 0.513866
vt 0.012618 0.513866
vt 0.000000 0.503310
vt 0.989991 0.492693
vt 0.499818 0.493379
vt 1.000000 0.788713
vt 0.999995 0.490641
vt 0.517333 0.816696
vt 0.504715 0.806140
vt 1.000000 0.000902
vt 0.990000 0.313968
vt 0.499999 0.314268
vt 1.000000 0.816697
vt 0.990001 0.304042
vt 0.487502 0.304333
vt 1.000000 0.318215
vt 0.990000 0.000902
vt 0.999999 0.298577
vt 1.000000 0.000902
vt 0.010000 0.999986
vt 0.010000 0.999986
vt 0.998546 0.999105
vt 0.999706 0.999818
vt -0.000356 0.508864
vt 0.000000 0.209472
vt 0.010833 0.203301
vt 0.009647 0.506822
vt 0.504715 0.513866
vt 0.000000 0.183304
vt 0.000000 0.503310
vt 0.012618 0.513866
vt 0.000058 0.191068
vt 0.000027 0.006616
vt 0.010000 0.686319
vt 0.010005 0.696278
vt -0.000005 0.701762
vt 0.000000 0.682077
vt 0.160089 0.137216
vt 0.000029 0.137420
vt 0.499814 0.507509
vt 0.499995 0.686620
vt 0.512498 0.696570
vt 0.517333 0.816696
vt 0.504715 0.806140
vt 1.000000 0.682517
vt 0.152368 0.183304
vt 0.000000 0.999986
vt 1.000000 0.816697
vt 0.000000 0.999986
vn 0.000000 -1.000000 0.000000
vn 0.000000 -1.000000 0.000000
vn 0.000000 -1.000000 0.000000
vn 0.000000 -1.000000 0.000000
vn -0.730742 0.000000 0.682654
vn -0.730742 0.000000 0.682654
vn -0.730742 0.000000 0.682654
vn -0.730742 0.000000 0.682654
vn 0.507306 -0.861766 0.000195
vn 0.507306 -0.861766 0.000195
vn 1.000000 0.000000 -0.000010
vn 0.507306 -0.861766 0.000195
vn 0.000000 0.000000 1.000000
vn 0.000000 0.000000 1.000000
vn 0.000000 0.000000 1.000000
vn 0.507135 -0.861867 0.000192
vn 0.507135 -0.861867 0.000192
vn 0.507135 -0.861867 0.000192
vn 0.000000 0.000000 1.000000
vn 0.000000 0.000000 1.000000
vn 0.000000 0.000000 1.000000
vn 0.000000 0.000000 1.000000
vn 0.000000 -0.000002 1.000000
vn 0.000000 -0.000002 1.000000
vn 0.000000 -0.000002 1.000000
vn -0.000001 1.000000 0.000000
vn -0.000001 1.000000 0.000000
vn -0.000001 1.000000 0.000000
vn -0.410725 0.490942 0.768297
vn -0.410725 0.490942 0.768297
vn -0.410725 0.490942 0.768297
vn -0.410725 0.490942 0.768297
vn -0.000000 0.787208 0.616687
vn -0.000000 0.787208 0.616687
vn -0.000000 0.787208 0.616687
vn -0.000000 0.787208 0.616687
vn 0.000000 0.000000 1.000000
vn 0.000000 0.000000 1.000000
vn 0.000000 0.000000 1.000000
vn 0.000000 0.000000 1.000000
vn 0.000000 0.000000 1.000000
vn 0.000000 0.000000 1.000000
vn -1.000000 0.000000 0.000000
vn -1.000000 0.000000 0.000000
vn -1.000000 0.000000 0.000000
vn -1.000000 0.000000 0.000000
vn 0.000000 0.000000 1.000000
vn 0.000000 0.000000 1.000000
vn 0.000000 0.000000 1.000000
vn -0.641662 0.766988 0.000000
vn -0.641662 0.766988 0.000000
vn -0.641662 0.766988 0.000000
vn -0.641662 0.766988 0.000000
vn -0.730741 0.000000 0.682655
vn -0.730741 0.000000 0.682655
vn -0.730741 0.000000 0.682655
vn -0.730741 0.000000 0.682655
vn 1.000000 0.000000 -0.000000
vn 1.000000 0.000000 -0.000000
vn 1.000000 0.000000 -0.000000
vn 1.000000 0.000000 -0.000000
vn -0.410724 0.490941 0.768298
vn -0.410724 0.490941 0.768298
vn -0.410724 0.490941 0.768298
vn -0.410724 0.490941 0.768298
vn 0.000000 0.787208 0.616687
vn 0.000000 0.787208 0.616687
vn 0.000000 0.787208 0.616687
vn 0.000000 0.787208 0.616687
vn 0.000000 1.000000 0.000000
vn 0.000000 1.000000 0.000000
vn 0.000000 1.000000 0.000000
vn 0.000000 1.000000 0.000000
vn 1.000000 0.000000 0.000010
vn 1.000000 0.000000 0.000010
vn 1.000000 0.000000 0.000010
vn 1.000000 0.000000 0.000010
vn 0.000000 0.000000 -1.000000
vn 0.000000 0.000000 -1.000000
vn 0.000000 0.000000 -1.000000
vn 0.000000 0.000000 -1.000000
vn -0.616689 0.787207 0.000000
vn -0.616689 0.787207 0.000000
vn -0.616689 0.787207 0.000000
vn -0.616689 0.787207 0.000000
vn -1.000000 0.000000 0.000000
vn -1.000000 0.000000 0.000000
vn -1.000000 0.000000 0.000000
vn -1.000000 0.000000 0.000000
vn -0.768297 0.490943 0.410724
vn -0.768297 0.490943 0.410724
vn -0.768297 0.490943 0.410724
vn -0.768297 0.490943 0.410724
vn 0.000195 -0.861766 -0.507306
vn 0.000192 -0.861867 -0.507135
vn 0.000195 -0.861766 -0.507306
vn 0.000195 -0.861766 -0.507306
vn 0.000000 1.000000 0.000001
vn 0.000000 1.000000 0.000001
vn 0.000000 1.000000 0.000001
vn 0.000000 0.000000 1.000000
vn 0.000000 0.000000 1.000000
vn 0.000000 0.000000 1.000000
vn 0.000000 0.000000 1.000000
vn 0.000000 0.766988 0.641662
vn 0.000000 0.766988 0.641661
vn 0.000000 0.766988 0.641661
vn 0.000000 0.766988 0.641662
vn -0.768296 0.490944 0.410725
vn -0.768296 0.490944 0.410725
vn -0.768296 0.490944 0.410725
vn 0.000000 1.000000 0.000000
vn 0.000000 1.000000 0.000000
vn 0.000000 1.000000 0.000000
vn 0.000000 1.000000 0.000000
vn -1.000000 0.000000 0.000000
vn -1.000000 0.000000 0.000000
vn -1.000000 0.000000 0.000000
vn -0.682654 -0.000000 0.730742
vn -0.682654 -0.000000 0.730742
vn -0.682654 -0.000000 0.730742
vn -0.682654 -0.000000 0.730742
vn -1.000000 0.000000 0.000000
vn -1.000000 0.000000 0.000000
vn -1.000000 0.000000 0.000000
vn -1.000000 0.000000 0.000000
vn -1.000000 0.000000 0.000000
vn -1.000000 0.000000 0.000000
vn -1.000000 0.000000 0.000000
vn -1.000000 0.000000 0.000000
vn -1.000000 0.000000 0.000000
vn 0.000000 -1.000000 0.000000
vn 0.000000 -1.000000 0.000000
vn 0.000000 -1.000000 0.000000
vn -0.616689 0.787207 0.000000
vn -0.616689 0.787207 0.000000
vn -0.616689 0.787207 0.000000
vn -0.616689 0.787207 0.000000
vn -1.000000 0.000000 0.000000
vn -1.000000 0.000000 0.000000
vn -1.000000 0.000000 0.000000
vn 0.000192 -0.861666 -0.507477
vn 0.000192 -0.861666 -0.507477
vn 0.000192 -0.861666 -0.507477
vn -0.000010 0.000000 -1.000000
vn -0.000010 0.000000 -1.000000
vn -0.000010 0.000000 -1.000000
vn -0.000010 0.000000 -1.000000
s off
f 1/1/1 2/2/2 3/3/3 4/4/4
f 4/4/5 3/3/6 5/5/7 6/6/8
f 2/2/9 1/1/10 8/8/11 10/12/12
f 9/9/13 3/10/14 2/11/15
f 2/2/16 10/12/17 9/23/18
f 3/10/19 12/14/20 13/15/21 5/16/22
f 9/9/23 12/14/24 3/10/25
f 7/7/26 14/17/27 15/18/28
f 6/6/29 5/5/30 13/19/31 7/7/32
f 14/17/33 7/7/34 13/19/35 12/20/36
f 12/14/37 16/21/38 17/22/39
f 9/9/40 16/21/41 12/14/42
f 15/18/43 14/17/44 18/24/45 19/25/46
f 9/9/47 20/26/48 16/21/49
f 19/25/50 18/24/51 21/27/52 22/28/53
f 17/29/54 18/24/55 14/17/56 12/20/57
f 8/8/58 11/13/59 23/30/60 10/12/61
f 17/29/62 16/31/63 21/27/64 18/24/65
f 16/31/66 20/32/67 23/30/68 21/27/69
f 22/28/70 21/27/71 23/30/72 11/13/73
f 20/32/74 9/23/75 10/12/76 23/30/77
f 24/33/78 25/34/79 11/35/80 8/36/81
f 26/37/82 27/38/83 7/39/84 28/40/85
f 26/41/86 4/42/87 6/43/88 27/44/89
f 29/47/90 30/48/91 31/49/92 32/50/93
f 24/33/94 8/36/95 1/51/96 33/52/97
f 15/53/98 28/40/99 7/39/100
f 19/54/101 29/47/102 28/40/103 15/53/104
f 22/55/105 30/48/106 29/47/107 19/54/108
f 7/39/109 27/38/110 6/45/111
f 11/35/112 25/34/113 30/48/114 22/55/115
f 31/56/116 26/41/117 32/57/118
f 28/40/119 29/47/120 32/50/121 26/37/122
f 34/58/123 26/41/124 31/56/125
f 4/42/126 34/58/127 33/59/128
f 34/58/129 4/42/130 26/41/131
f 4/46/132 33/52/133 1/51/134
f 30/48/135 25/34/136 35/60/137 31/49/138
f 34/58/139 31/56/140 35/61/141
f 33/52/142 34/62/143 24/33/144
f 25/34/145 24/33/146 34/62/147 35/60/148
