# This file uses centimeters as units for non-parametric coordinates.

v -13.931976 -2.405151 -13.931885
v -13.931976 -2.405151 -0.000183
v -13.931976 -2.405151 13.931885
v -11.299774 33.650330 -11.299805
v -11.299774 33.650330 -0.000183
v -11.299774 33.650330 11.299438
v -16.542145 1.031982 -18.829224
v -16.542206 28.710983 -16.542114
v -16.542145 1.031982 18.828918
v -16.542206 28.710983 16.542053
v -16.542206 16.453995 -16.542114
v -16.542145 14.618912 -18.829224
v -16.542145 14.618912 18.828918
v -16.542206 16.453995 16.542053
v -16.542206 16.453995 -0.000183
v 16.541992 16.453995 -16.542114
v 16.541992 14.618912 -18.829224
v 13.931732 -2.405151 -13.931885
v 16.541992 1.031982 -18.829224
v 13.931732 -2.405151 13.931885
v 16.541992 16.453995 16.542053
v 16.541992 14.618912 18.828918
v 16.541992 1.031982 18.828918
v 13.931732 -2.405151 -0.000183
v 16.541992 16.453995 -0.000183
v 11.299622 33.650330 -11.299805
v 11.299622 33.650330 -0.000183
v 11.299622 33.650330 11.299438
v 16.541992 28.710983 16.542053
v 16.541992 28.710983 -16.542114
v 16.541992 28.710983 -0.000183
v -16.542145 28.710983 -0.000183
v -18.829132 14.618942 -16.542175
v -18.829132 14.618912 -0.000183
v -18.829132 14.618896 16.542053
v 18.828979 14.618912 16.542053
v 18.828979 14.618912 -0.000183
v 18.828979 14.618912 -16.542175
v -18.829132 1.031982 -16.542114
v -18.829132 1.031982 -0.000183
v -18.829132 1.031967 16.541992
v 18.829010 1.031982 16.541992
v 18.829010 1.031982 -0.000183
v 18.829010 1.031982 -16.542175
vt 0.283184 0.266871
vt 0.283221 0.266861
vt 0.283196 0.266915
vt 0.283685 0.245547
vt 0.283678 0.245542
vt 0.283573 0.245547
vt 0.283580 0.245541
vt 0.283669 0.245591
vt 0.283684 0.245591
vt 0.283680 0.245502
vt 0.283587 0.245590
vt 0.283572 0.245590
vt 0.283581 0.245502
vt 0.283628 0.245590
vt 0.283629 0.245537
vt 0.283685 0.245547
vt 0.283678 0.245542
vt 0.283669 0.245591
vt 0.283684 0.245591
vt 0.283587 0.245590
vt 0.283580 0.245541
vt 0.283573 0.245547
vt 0.283572 0.245590
vt 0.283628 0.245590
vt 0.283629 0.245537
vt 0.283924 0.267155
vt 0.283852 0.267171
vt 0.283877 0.267109
vt 0.283581 0.245502
vt 0.283680 0.245502
vt 0.283685 0.245547
vt 0.283678 0.245542
vt 0.283669 0.245591
vt 0.283684 0.245591
vt 0.283580 0.245541
vt 0.283573 0.245547
vt 0.283572 0.245590
vt 0.283587 0.245590
vt 0.283628 0.245590
vt 0.283508 0.267036
vt 0.283533 0.266979
vt 0.283330 0.266545
vt 0.283581 0.245502
vt 0.283680 0.245502
vt 0.283630 0.245512
vt 0.283629 0.245518
vt 0.283677 0.245550
vt 0.283629 0.245551
vt 0.283582 0.245555
vt 0.283581 0.245552
vt 0.283629 0.245551
vt 0.283676 0.245552
vt 0.283670 0.245584
vt 0.283628 0.245585
vt 0.283586 0.245585
vt 0.283586 0.245585
vt 0.283628 0.245586
vt 0.283670 0.245585
vt 0.283584 0.266627
vt 0.283533 0.266768
vt 0.283198 0.266652
vt 0.283859 0.266716
vt 0.283906 0.266897
vt 0.283525 0.266529
vt 0.283581 0.266520
vt 0.283561 0.266515
vt 0.284152 0.266695
vt 0.284180 0.266732
vt 0.284142 0.266693
vt 0.283854 0.266604
vt 0.283839 0.266600
vt 0.284078 0.266427
vt 0.283830 0.266359
vt 0.283859 0.266400
vt 0.284184 0.266489
vt 0.283599 0.266297
vt 0.283563 0.266318
vn 0.530507 0.661166 -0.530492
vn 0.530507 0.661166 -0.530492
vn 0.530507 0.661166 -0.530492
vn 0.530501 0.661141 0.530529
vn 0.530501 0.661141 0.530529
vn 0.530501 0.661142 0.530529
vn 0.625837 0.779954 0.000000
vn 0.625837 0.779954 0.000000
vn 0.625837 0.779954 0.000000
vn 0.625837 0.779954 0.000000
vn 0.625837 0.779954 0.000000
vn 0.625837 0.779954 0.000000
vn 0.625837 0.779954 0.000000
vn 0.625837 0.779954 0.000000
vn 0.685759 0.727829 0.000000
vn 0.685759 0.727829 0.000000
vn 0.685759 0.727829 0.000000
vn 0.685759 0.727829 0.000000
vn 0.685759 0.727829 0.000000
vn 0.685759 0.727829 0.000000
vn 0.685759 0.727829 0.000000
vn 0.685759 0.727829 0.000000
vn -0.530506 0.661159 -0.530501
vn -0.530506 0.661159 -0.530501
vn -0.530506 0.661159 -0.530501
vn -0.530510 0.661129 0.530535
vn -0.530510 0.661129 0.530535
vn -0.530510 0.661129 0.530535
vn -0.625848 0.779945 0.000000
vn -0.625849 0.779945 0.000000
vn -0.625848 0.779945 0.000000
vn -0.625848 0.779945 0.000000
vn -0.625844 0.779949 0.000001
vn -0.625844 0.779949 0.000001
vn -0.625844 0.779949 0.000001
vn -0.625844 0.779949 0.000001
vn -0.685757 0.727831 -0.000002
vn -0.685757 0.727831 -0.000002
vn -0.685757 0.727831 -0.000002
vn -0.685757 0.727831 -0.000002
vn -0.685757 0.727831 0.000002
vn -0.685757 0.727831 0.000002
vn -0.685757 0.727831 0.000002
vn -0.685757 0.727831 0.000002
vn 0.000000 0.779970 -0.625816
vn 0.000000 0.779970 -0.625816
vn 0.000000 0.779970 -0.625816
vn 0.000000 0.779970 -0.625816
vn 0.000000 -0.818525 -0.574471
vn 0.000000 -0.818525 -0.574471
vn 0.000000 -0.818525 -0.574471
vn 0.000000 -0.818525 -0.574471
vn 0.000000 0.000000 -1.000000
vn 0.000000 0.000000 -1.000000
vn 0.000000 0.000000 -1.000000
vn 0.000000 0.000000 -1.000000
vn 0.000000 0.779938 0.625857
vn 0.000000 0.779938 0.625857
vn 0.000000 0.779938 0.625857
vn 0.000000 0.779938 0.625857
vn 0.000000 0.000000 1.000000
vn 0.000000 0.000000 1.000000
vn 0.000000 0.000000 1.000000
vn 0.000000 0.000000 1.000000
vn 0.000000 -0.818508 0.574495
vn 0.000000 -0.818508 0.574495
vn 0.000000 -0.818508 0.574495
vn 0.000000 -0.818508 0.574495
vn 0.000000 -1.000000 0.000000
vn 0.000000 -1.000000 0.000000
vn 0.000000 -1.000000 0.000000
vn 0.000000 -1.000000 0.000000
vn 0.000000 -1.000000 0.000000
vn 0.000000 -1.000000 0.000000
vn 0.000000 -1.000000 0.000000
vn 0.000000 -1.000000 0.000000
vn 0.000000 1.000000 0.000000
vn 0.000000 1.000000 0.000000
vn 0.000000 1.000000 0.000000
vn 0.000000 1.000000 0.000000
vn 0.000000 1.000000 0.000000
vn 0.000000 1.000000 0.000000
vn 0.000000 1.000000 0.000000
vn 0.000000 1.000000 0.000000
vn 0.000000 0.727845 0.685742
vn 0.000000 0.727845 0.685742
vn 0.000000 0.727845 0.685742
vn 0.000000 0.727845 0.685742
vn 0.000000 0.000000 1.000000
vn 0.000000 0.000000 1.000000
vn 0.000000 0.000000 1.000000
vn 0.000000 0.000000 1.000000
vn 0.000000 0.000000 -1.000000
vn 0.000000 0.000000 -1.000000
vn 0.000000 0.000000 -1.000000
vn 0.000000 0.000000 -1.000000
vn 0.000000 0.727825 -0.685763
vn 0.000000 0.727825 -0.685763
vn 0.000000 0.727825 -0.685763
vn 0.000000 0.727825 -0.685763
vn 1.000000 0.000000 0.000000
vn 1.000000 0.000000 0.000000
vn 1.000000 0.000000 0.000000
vn 1.000000 0.000000 0.000000
vn 1.000000 0.000000 0.000000
vn 1.000000 0.000000 0.000000
vn 1.000000 0.000000 0.000000
vn 1.000000 0.000000 0.000000
vn -1.000000 0.000002 0.000002
vn -1.000000 0.000002 0.000002
vn -1.000000 0.000002 0.000002
vn -1.000000 0.000002 0.000002
vn -1.000000 0.000003 -0.000002
vn -1.000000 0.000003 -0.000002
vn -1.000000 0.000003 -0.000002
vn -1.000000 0.000003 -0.000002
vn -0.707121 -0.000002 -0.707093
vn -0.707121 -0.000002 -0.707093
vn -0.707121 -0.000002 -0.707093
vn -0.707121 -0.000002 -0.707093
vn -1.000000 0.000000 0.000000
vn -1.000000 0.000000 0.000000
vn -1.000000 0.000000 0.000000
vn -1.000000 0.000000 0.000000
vn -1.000000 0.000000 0.000000
vn -1.000000 0.000000 0.000000
vn -1.000000 0.000000 0.000000
vn -1.000000 0.000000 0.000000
vn -0.707093 -0.000002 0.707121
vn -0.707093 -0.000002 0.707121
vn -0.707093 -0.000002 0.707121
vn -0.707093 -0.000002 0.707121
vn 0.707090 -0.000001 0.707123
vn 0.707090 -0.000001 0.707123
vn 0.707090 -0.000001 0.707123
vn 0.707090 -0.000001 0.707123
vn 1.000000 0.000002 0.000000
vn 1.000000 0.000002 0.000000
vn 1.000000 0.000002 0.000000
vn 1.000000 0.000002 0.000000
vn 1.000000 0.000002 0.000000
vn 1.000000 0.000002 0.000000
vn 1.000000 0.000002 0.000000
vn 1.000000 0.000002 0.000000
vn 0.707114 0.000001 -0.707100
vn 0.707114 0.000001 -0.707100
vn 0.707114 0.000001 -0.707100
vn 0.707114 0.000001 -0.707100
vn -0.384319 -0.839413 -0.384298
vn -0.384319 -0.839413 -0.384298
vn -0.384319 -0.839413 -0.384298
vn -0.574485 -0.818515 0.000000
vn -0.574485 -0.818515 0.000000
vn -0.574485 -0.818515 0.000000
vn -0.574485 -0.818515 0.000000
vn -0.574485 -0.818515 -0.000000
vn -0.574485 -0.818515 -0.000000
vn -0.574485 -0.818515 -0.000000
vn -0.574485 -0.818515 -0.000000
vn -0.384308 -0.839406 0.384324
vn -0.384308 -0.839406 0.384324
vn -0.384308 -0.839406 0.384324
vn 0.384305 -0.839409 0.384320
vn 0.384305 -0.839409 0.384320
vn 0.384305 -0.839409 0.384320
vn 0.574476 -0.818522 0.000000
vn 0.574476 -0.818521 0.000000
vn 0.574476 -0.818521 0.000000
vn 0.574476 -0.818521 0.000000
vn 0.574476 -0.818521 0.000000
vn 0.574476 -0.818522 0.000000
vn 0.574476 -0.818521 0.000000
vn 0.574476 -0.818521 0.000000
vn 0.384306 -0.839418 -0.384301
vn 0.384306 -0.839418 -0.384301
vn 0.384306 -0.839418 -0.384301
s off
f 17/1/1 16/2/2 38/3/3
f 22/26/4 36/27/5 21/28/6
f 36/27/7 37/40/8 25/41/9 21/28/10
f 37/40/11 38/3/12 16/2/13 25/41/14
f 26/42/15 27/59/16 31/60/17 30/61/18
f 28/62/19 29/63/20 31/60/21 27/59/22
f 12/64/23 33/65/24 11/66/25
f 35/67/26 13/68/27 14/69/28
f 34/70/29 35/67/30 14/69/31 15/71/32
f 33/65/33 34/70/34 15/71/35 11/66/36
f 6/72/37 5/73/38 32/74/39 10/75/40
f 4/76/41 8/77/42 32/74/43 5/73/44
f 12/64/45 11/66/46 16/2/47 17/1/48
f 1/8/49 7/9/50 19/34/51 18/33/52
f 7/9/53 12/4/54 17/31/55 19/34/56
f 14/69/57 13/68/58 22/26/59 21/28/60
f 13/6/61 9/12/62 23/37/63 22/36/64
f 9/12/65 3/11/66 20/38/67 23/37/68
f 3/11/69 2/14/70 24/39/71 20/38/72
f 2/14/73 1/8/74 18/33/75 24/39/76
f 4/76/77 5/73/78 27/59/79 26/42/80
f 5/73/81 6/72/82 28/62/83 27/59/84
f 6/72/85 10/75/86 29/63/87 28/62/88
f 10/13/89 14/7/90 21/35/91 29/43/92
f 11/5/93 8/10/94 30/44/95 16/32/96
f 8/77/97 4/76/98 26/42/99 30/61/100
f 31/45/101 29/43/102 21/35/103 25/15/104
f 30/44/105 31/45/106 25/15/107 16/32/108
f 32/46/109 8/30/110 11/17/111 15/25/112
f 10/29/113 32/46/114 15/25/115 14/21/116
f 12/16/117 7/19/118 39/53/119 33/47/120
f 39/53/121 40/54/122 34/48/123 33/47/124
f 40/54/125 41/55/126 35/49/127 34/48/128
f 41/55/129 9/23/130 13/22/131 35/49/132
f 23/37/133 42/56/134 36/50/135 22/36/136
f 42/56/137 43/57/138 37/51/139 36/50/140
f 43/57/141 44/58/142 38/52/143 37/51/144
f 17/31/145 38/52/146 44/58/147 19/34/148
f 39/53/149 7/19/150 1/18/151
f 2/24/152 40/54/153 39/53/154 1/18/155
f 3/20/156 41/55/157 40/54/158 2/24/159
f 3/20/160 9/23/161 41/55/162
f 20/38/163 42/56/164 23/37/165
f 20/38/166 24/39/167 43/57/168 42/56/169
f 24/39/170 18/33/171 44/58/172 43/57/173
f 19/34/174 44/58/175 18/33/176
