# This file uses centimeters as units for non-parametric coordinates.

v 35.812626 101.048637 14.360779
v 39.085808 87.333458 15.305481
v 38.551460 102.644989 -38.846222
v 32.920033 104.507263 -34.946014
v -8.197405 104.655312 -36.301071
v -15.270731 87.325661 -40.378876
v 40.319756 87.114922 -40.341019
v 39.186691 102.488770 9.238708
v 42.982918 87.260223 8.286911
v -9.290852 102.444939 13.860214
v -13.730195 101.261230 9.122101
v -10.863698 87.284019 15.294678
v -15.344927 87.284019 11.577072
v -13.754509 102.650986 -31.956787
v -11.400845 102.658287 -39.387039
v -11.250013 0.000000 11.250013
v 0.000000 0.000000 11.250000
v 0.000010 -0.000001 -0.000010
v -2.811060 -0.200682 17.430351
v -2.811060 19.812916 17.430351
v 0.000000 2.237216 14.720139
v 0.000000 2.237216 11.250000
v -2.811060 -0.200682 11.250000
v 0.000000 19.280060 14.248405
v 0.000000 22.105194 11.250000
v 0.000000 19.280060 11.250000
v -2.811060 22.547672 13.977531
v -17.430363 -0.200682 17.430363
v -11.250013 -0.200682 11.250013
v 0.000000 38.601952 11.250000
v -2.811060 37.021542 13.977531
v 0.000000 41.449417 18.527763
v -2.811060 39.777916 21.901421
v -17.430363 19.812916 17.430363
v -13.977544 22.547672 13.977544
v 0.000000 88.043694 11.250000
v 0.000007 88.043694 -0.000007
v -13.977544 37.021542 13.977544
v 0.000000 43.956924 11.250000
v 0.000000 43.956924 18.527763
v -11.250013 88.043694 11.250013
v -2.811060 46.394821 21.901421
v -2.811060 46.394821 11.250000
v -21.901432 39.777916 21.901432
v -11.250013 46.394821 11.250013
v -21.901432 46.394821 21.901432
v -11.250000 0.000000 0.000000
v -17.430351 -0.200682 2.811060
v -17.430351 19.812916 2.811060
v -14.720139 2.237216 0.000000
v -11.250000 2.237216 0.000000
v -11.250000 -0.200682 2.811060
v -14.248405 19.280060 0.000000
v -11.250000 22.105194 0.000000
v -11.250000 19.280060 0.000000
v -13.977531 22.547672 2.811060
v -11.250000 38.601952 0.000000
v -13.977531 37.021542 2.811060
v -18.527763 41.449417 0.000000
v -21.901421 39.777916 2.811060
v -11.250000 88.043694 0.000000
v -11.250000 43.956924 0.000000
v -18.527763 43.956924 0.000000
v -21.901421 46.394821 2.811060
v -11.250000 46.394821 2.811060
vt 0.283398 0.267674
vt 0.283398 0.267676
vt 0.283398 0.267670
vt 0.283398 0.267656
vt 0.283398 0.267642
vt 0.283398 0.267677
vt 0.283398 0.267679
vt 0.283398 0.267671
vt 0.283398 0.267673
vt 0.283398 0.267650
vt 0.283398 0.267654
vt 0.283398 0.267646
vt 0.283398 0.267650
vt 0.283398 0.267649
vt 0.283398 0.267662
vt 0.046294 0.001434
vt 0.001423 0.014728
vt 0.001423 0.001434
vt 0.282698 0.225785
vt 0.282960 0.225666
vt 0.282830 0.225705
vt 0.282698 0.225792
vt 0.283041 0.228511
vt 0.283384 0.228506
vt 0.283394 0.228464
vt 0.283104 0.228468
vt 0.283115 0.228113
vt 0.283395 0.228110
vt 0.283287 0.228053
vt 0.282958 0.225657
vt 0.282892 0.225679
vt 0.283011 0.228473
vt 0.283361 0.228484
vt 0.282969 0.225613
vt 0.282972 0.225618
vt 0.282993 0.225613
vt 0.282894 0.225639
vt 0.282923 0.267093
vt 0.282698 0.267089
vt 0.282698 0.267088
vt 0.282948 0.267095
vt 0.283161 0.267133
vt 0.283198 0.267137
vt -0.018743 0.001258
vt -0.018700 0.293386
vt 0.001488 0.293804
vt 0.202973 0.803602
vt 0.202973 0.756967
vt 0.238952 0.756967
vt 0.238952 0.803602
vt 0.283366 0.227634
vt 0.283235 0.227538
vt 0.283219 0.227554
vt 0.283210 0.227667
vt 0.046357 0.298610
vt 0.001488 0.298708
vt 0.282698 0.225691
vt 0.282698 0.225686
vt 0.282698 0.225681
vt 0.282698 0.225686
vt 0.283085 0.225579
vt 0.283076 0.225584
vt 0.282698 0.266981
vt 0.282698 0.266982
vt 0.282698 0.266982
vt 0.282698 0.266980
vt 0.282698 0.266998
vt 0.282698 0.266997
vt 0.046294 0.001434
vt 0.001423 0.001434
vt 0.001423 0.014728
vt 0.282698 0.225785
vt 0.282698 0.225792
vt 0.282830 0.225705
vt 0.282960 0.225666
vt 0.283041 0.228511
vt 0.283104 0.228468
vt 0.283394 0.228464
vt 0.283384 0.228506
vt 0.283115 0.228113
vt 0.283287 0.228053
vt 0.283395 0.228110
vt 0.282958 0.225657
vt 0.282892 0.225679
vt 0.283011 0.228473
vt 0.283361 0.228484
vt 0.282969 0.225613
vt 0.282894 0.225639
vt 0.282993 0.225613
vt 0.282972 0.225618
vt 0.282923 0.267093
vt 0.282948 0.267095
vt 0.282698 0.267088
vt 0.282698 0.267089
vt 0.283161 0.267133
vt 0.283198 0.267137
vt -0.018743 0.001258
vt 0.001488 0.293804
vt -0.018700 0.293386
vt 0.166994 0.803602
vt 0.166994 0.756967
vt 0.283366 0.227634
vt 0.283210 0.227667
vt 0.283219 0.227554
vt 0.283235 0.227538
vt 0.046357 0.298610
vt 0.001488 0.298708
vt 0.282698 0.225691
vt 0.282698 0.225686
vt 0.282698 0.225681
vt 0.282698 0.225686
vt 0.283085 0.225579
vt 0.283076 0.225584
vt 0.282698 0.266981
vt 0.282698 0.266980
vt 0.282698 0.266982
vt 0.282698 0.266982
vt 0.282698 0.266997
vt 0.282698 0.266998
vn 0.983004 0.180500 -0.033505
vn 0.983004 0.180500 -0.033505
vn 0.983004 0.180500 -0.033505
vn 0.983004 0.180500 -0.033505
vn -0.002028 -0.999997 0.001083
vn -0.002028 -0.999997 0.001083
vn -0.002028 -0.999997 0.001083
vn -0.002028 -0.999997 0.001083
vn 0.313313 0.949649 -0.001054
vn 0.313313 0.949649 -0.001054
vn 0.313313 0.949649 -0.001054
vn 0.002103 0.998969 0.045338
vn 0.002103 0.998969 0.045338
vn 0.002103 0.998969 0.045338
vn 0.026465 0.957658 0.286690
vn 0.026465 0.957658 0.286690
vn 0.026465 0.957658 0.286690
vn 0.782844 0.226740 0.579434
vn 0.782844 0.226740 0.579434
vn 0.782844 0.226740 0.579434
vn 0.860048 0.184669 0.475620
vn 0.860048 0.184669 0.475620
vn 0.860048 0.184669 0.475620
vn 0.003300 0.999022 0.044094
vn 0.003300 0.999022 0.044094
vn 0.003300 0.999022 0.044094
vn -0.008106 0.095025 0.995442
vn -0.008106 0.095025 0.995442
vn -0.008106 0.095025 0.995442
vn -0.000284 0.068650 0.997641
vn -0.000284 0.068650 0.997641
vn -0.000284 0.068650 0.997641
vn -0.427611 0.893889 -0.134575
vn -0.427611 0.893889 -0.134575
vn -0.427611 0.893889 -0.134575
vn 0.000443 -0.999977 0.006797
vn 0.000443 -0.999977 0.006797
vn 0.000443 -0.999977 0.006797
vn 0.000443 -0.999977 0.006797
vn -0.689748 0.169420 0.703950
vn -0.689748 0.169420 0.703950
vn -0.689748 0.169420 0.703950
vn -0.689748 0.169420 0.703950
vn 0.005635 0.079928 -0.996785
vn 0.005635 0.079928 -0.996785
vn 0.005635 0.079928 -0.996785
vn 0.005635 0.079928 -0.996785
vn -0.994363 0.106023 0.001098
vn -0.994363 0.106023 0.001098
vn -0.994363 0.106023 0.001098
vn -0.994363 0.106023 0.001098
vn -0.316697 0.947978 0.032259
vn -0.316697 0.947978 0.032259
vn -0.316697 0.947978 0.032259
vn 0.011555 0.876956 -0.480433
vn 0.011555 0.876956 -0.480433
vn 0.011555 0.876956 -0.480433
vn 0.011555 0.876956 -0.480433
vn -0.922677 0.251770 -0.292027
vn -0.922677 0.251770 -0.292027
vn -0.922677 0.251770 -0.292027
vn -0.292892 0.955478 0.035719
vn -0.292892 0.955478 0.035719
vn -0.292892 0.955478 0.035719
vn -0.000000 -1.000000 0.000000
vn -0.000000 -1.000000 0.000000
vn -0.000000 -1.000000 0.000000
vn 0.722039 0.008807 0.691796
vn 0.722039 0.008807 0.691796
vn 0.722039 0.008807 0.691796
vn 0.722039 0.008807 0.691796
vn 0.655183 -0.755470 0.000000
vn 0.655183 -0.755470 0.000000
vn 0.655183 -0.755470 0.000000
vn 0.655183 -0.755470 0.000000
vn 1.000000 0.000000 0.000000
vn 1.000000 0.000000 0.000000
vn 1.000000 0.000000 0.000000
vn 0.632996 0.586447 0.505367
vn 0.632996 0.586447 0.505367
vn 0.632996 0.586447 0.505367
vn 0.632996 0.586447 0.505367
vn 0.000000 -1.000000 0.000000
vn 0.000000 -1.000000 0.000000
vn 0.000000 -1.000000 0.000000
vn 0.000000 -1.000000 0.000000
vn 1.000000 0.000000 0.000000
vn 1.000000 0.000000 0.000000
vn 1.000000 0.000000 0.000000
vn 1.000000 0.000000 0.000000
vn 0.676297 -0.691167 0.254776
vn 0.676297 -0.691167 0.254776
vn 0.676297 -0.691167 0.254776
vn 0.676297 -0.691167 0.254776
vn -0.000000 0.000000 1.000000
vn -0.000000 0.000000 1.000000
vn -0.000000 0.000000 1.000000
vn -0.000000 0.000000 1.000000
vn 0.696453 0.000000 0.717603
vn 0.696453 0.000000 0.717603
vn 0.696453 0.000000 0.717603
vn 0.696453 0.000000 0.717603
vn -0.000000 0.783905 0.620881
vn -0.000000 0.783905 0.620881
vn -0.000000 0.783905 0.620881
vn -0.000000 0.783905 0.620881
vn 1.000000 0.000000 -0.000001
vn 1.000000 0.000000 -0.000001
vn 1.000000 0.000000 -0.000001
vn 1.000000 0.000000 -0.000001
vn -0.000000 0.000000 1.000000
vn -0.000000 0.000000 1.000000
vn -0.000000 0.000000 1.000000
vn -0.000000 0.000000 1.000000
vn 1.000000 0.000000 0.000000
vn 1.000000 0.000000 0.000000
vn 1.000000 0.000000 0.000000
vn 1.000000 0.000000 0.000000
vn -0.000000 0.000000 1.000000
vn -0.000000 0.000000 1.000000
vn -0.000000 0.000000 1.000000
vn -0.000000 0.000000 1.000000
vn 0.655183 0.755470 0.000000
vn 0.655183 0.755470 0.000000
vn 0.655183 0.755470 0.000000
vn 0.655183 0.755470 0.000000
vn 0.768257 0.000000 0.640141
vn 0.768257 0.000000 0.640141
vn 0.768257 0.000000 0.640141
vn 0.768257 0.000000 0.640141
vn -0.000000 -0.944488 0.328546
vn -0.000000 -0.944488 0.328546
vn -0.000000 -0.944488 0.328546
vn -0.000000 -0.944488 0.328546
vn 0.000000 1.000000 0.000000
vn 0.000000 1.000000 0.000000
vn 0.000000 1.000000 0.000000
vn 0.000000 1.000000 0.000000
vn -0.000000 0.000000 1.000000
vn -0.000000 0.000000 1.000000
vn -0.000000 0.000000 1.000000
vn -0.000000 0.000000 1.000000
vn -0.000000 -1.000000 0.000000
vn -0.000000 -1.000000 0.000000
vn -0.000000 -1.000000 0.000000
vn -0.691796 0.008807 -0.722039
vn -0.691796 0.008807 -0.722039
vn -0.691796 0.008807 -0.722039
vn -0.691796 0.008807 -0.722039
vn -0.000000 -0.755470 -0.655183
vn -0.000000 -0.755470 -0.655183
vn -0.000000 -0.755470 -0.655183
vn -0.000000 -0.755470 -0.655183
vn -0.000000 0.000000 -1.000000
vn -0.000000 0.000000 -1.000000
vn -0.000000 0.000000 -1.000000
vn -0.505367 0.586447 -0.632996
vn -0.505367 0.586447 -0.632996
vn -0.505367 0.586447 -0.632996
vn -0.505367 0.586447 -0.632996
vn 0.000000 -1.000000 0.000000
vn 0.000000 -1.000000 0.000000
vn 0.000000 -1.000000 0.000000
vn 0.000000 -1.000000 0.000000
vn -0.000000 0.000000 -1.000000
vn -0.000000 0.000000 -1.000000
vn -0.000000 0.000000 -1.000000
vn -0.000000 0.000000 -1.000000
vn -0.254776 -0.691167 -0.676297
vn -0.254776 -0.691167 -0.676297
vn -0.254776 -0.691167 -0.676297
vn -0.254776 -0.691167 -0.676297
vn -1.000000 0.000000 0.000000
vn -1.000000 0.000000 0.000000
vn -1.000000 0.000000 0.000000
vn -1.000000 0.000000 0.000000
vn -0.717603 0.000000 -0.696453
vn -0.717603 0.000000 -0.696453
vn -0.717603 0.000000 -0.696453
vn -0.717603 0.000000 -0.696453
vn -0.620881 0.783905 0.000000
vn -0.620881 0.783905 0.000000
vn -0.620881 0.783905 0.000000
vn -0.620881 0.783905 0.000000
vn 0.000001 0.000000 -1.000000
vn 0.000001 0.000000 -1.000000
vn 0.000001 0.000000 -1.000000
vn 0.000001 0.000000 -1.000000
vn -1.000000 0.000000 0.000000
vn -1.000000 0.000000 0.000000
vn -1.000000 0.000000 0.000000
vn -1.000000 0.000000 0.000000
vn -0.000000 0.000000 -1.000000
vn -0.000000 0.000000 -1.000000
vn -0.000000 0.000000 -1.000000
vn -0.000000 0.000000 -1.000000
vn -1.000000 0.000000 0.000000
vn -1.000000 0.000000 0.000000
vn -1.000000 0.000000 0.000000
vn -1.000000 0.000000 0.000000
vn -0.000000 0.755470 -0.655183
vn -0.000000 0.755470 -0.655183
vn -0.000000 0.755470 -0.655183
vn -0.000000 0.755470 -0.655183
vn -0.640141 0.000000 -0.768257
vn -0.640141 0.000000 -0.768257
vn -0.640141 0.000000 -0.768257
vn -0.640141 0.000000 -0.768257
vn -0.328546 -0.944488 0.000000
vn -0.328546 -0.944488 0.000000
vn -0.328546 -0.944488 0.000000
vn -0.328546 -0.944488 0.000000
vn 0.000000 1.000000 0.000000
vn 0.000000 1.000000 0.000000
vn 0.000000 1.000000 0.000000
vn 0.000000 1.000000 0.000000
vn -1.000000 0.000000 0.000000
vn -1.000000 0.000000 0.000000
vn -1.000000 0.000000 0.000000
vn -1.000000 0.000000 0.000000
s off
f 8/6/1 9/9/2 7/8/3 3/2/4
f 6/5/5 7/8/6 9/9/7 13/12/8
f 3/2/9 4/3/10 8/6/11
f 5/4/12 8/6/13 4/3/14
f 8/6/15 10/11/16 1/7/17
f 1/7/18 2/1/19 8/6/20
f 8/6/21 2/1/22 9/9/23
f 5/4/24 10/11/25 8/6/26
f 1/7/27 10/11/28 12/10/29
f 1/7/30 12/10/31 2/1/32
f 15/15/33 14/14/34 5/4/35
f 12/10/36 13/12/37 9/9/38 2/1/39
f 10/11/40 11/13/41 13/12/42 12/10/43
f 6/5/44 15/15/45 3/2/46 7/8/47
f 13/12/48 11/13/49 14/14/50 6/5/51
f 5/4/52 14/14/53 11/13/54
f 4/3/55 3/2/56 15/15/57 5/4/58
f 15/15/59 6/5/60 14/14/61
f 5/4/62 11/13/63 10/11/64
f 16/16/65 18/17/66 17/18/67
f 21/19/68 24/20/69 20/21/70 19/22/71
f 19/23/72 23/24/73 22/25/74 21/26/75
f 24/27/76 26/28/77 25/29/78
f 27/30/79 20/21/80 24/20/81 25/31/82
f 28/32/83 29/33/84 23/24/85 19/23/86
f 21/26/87 22/25/88 26/28/89 24/27/90
f 32/34/91 33/35/92 31/36/93 30/37/94
f 34/38/95 28/39/96 19/40/97 20/41/98
f 25/31/99 30/37/100 31/36/101 27/30/102
f 35/42/103 34/38/104 20/41/105 27/43/106
f 18/44/107 37/45/108 36/46/109 17/18/110
f 38/47/111 35/48/112 27/49/113 31/50/114
f 39/51/115 40/52/116 32/53/117 30/54/118
f 41/55/119 16/16/120 17/18/121 36/56/122
f 40/57/123 39/58/124 43/59/125 42/60/126
f 32/34/127 40/57/128 42/60/129 33/35/130
f 44/61/131 38/62/132 31/36/133 33/35/134
f 45/63/135 46/64/136 42/65/137 43/66/138
f 46/64/139 44/67/140 33/68/141 42/65/142
f 16/69/143 47/70/144 18/71/145
f 50/72/146 48/73/147 49/74/148 53/75/149
f 48/76/150 50/77/151 51/78/152 52/79/153
f 53/80/154 54/81/155 55/82/156
f 56/83/157 54/84/158 53/75/159 49/74/160
f 28/85/161 48/76/162 52/79/163 29/86/164
f 50/77/165 53/80/166 55/82/167 51/78/168
f 59/87/169 57/88/170 58/89/171 60/90/172
f 34/91/173 49/92/174 48/93/175 28/94/176
f 54/84/177 56/83/178 58/89/179 57/88/180
f 35/95/181 56/96/182 49/92/183 34/91/184
f 18/97/185 47/70/186 61/98/187 37/99/188
f 38/47/189 58/100/190 56/101/191 35/48/192
f 62/102/193 57/103/194 59/104/195 63/105/196
f 41/106/197 61/107/198 47/70/199 16/69/200
f 63/108/201 64/109/202 65/110/203 62/111/204
f 59/87/205 60/90/206 64/109/207 63/108/208
f 44/112/209 60/90/210 58/89/211 38/113/212
f 45/114/213 65/115/214 64/116/215 46/117/216
f 46/117/217 64/116/218 60/118/219 44/119/220
