# This file uses centimeters as units for non-parametric coordinates.

v -95.145996 0.000000 -0.000105
v -0.000108 -0.114610 95.169800
v -93.613281 8.200394 -0.000134
v -0.000135 8.200394 93.613281
v -0.742227 14.916023 0.025483
v -0.834557 0.000000 0.125002
v -50.176147 14.869420 -0.000096
v -0.000149 14.962626 49.500427
v -0.000205 -0.114610 46.084412
v -46.812500 0.000000 -0.000126
v -52.376099 8.200394 -0.000093
v -0.000130 8.200394 51.734436
v -96.728249 0.000000 1.176778
v -46.812481 0.000000 1.176754
v -1.853889 16.452183 1.176793
v -50.286602 16.509487 1.176795
v -52.557964 9.104881 1.176775
v -95.145485 9.104881 1.176772
v -1.854331 -0.114610 46.084423
v -1.853869 -0.114610 96.000252
v -1.853858 8.990272 94.417488
v -1.853825 8.990272 51.829964
v -1.853843 16.394878 49.558540
v -98.854202 -0.205914 98.888390
v -51.831226 16.510204 51.865456
v -54.131012 9.012923 54.165237
v -97.251526 9.012923 97.285782
vt 0.283886 0.228127
vt 0.283910 0.228161
vt 0.283991 0.228099
vt 0.283975 0.228064
vt 0.284712 0.228072
vt 0.284744 0.228125
vt 0.284750 0.228093
vt 0.284716 0.228040
vt 0.283890 0.228148
vt 0.284750 0.228112
vt 0.283797 0.228252
vt 0.283789 0.228224
vt 0.284788 0.228199
vt 0.284789 0.228175
vt 0.284785 0.228202
vt 0.284741 0.228125
vt 0.284712 0.228035
vt 0.284747 0.228089
vt 0.284747 0.228110
vt 0.284786 0.228175
vt 0.283917 0.228161
vt 0.283802 0.228253
vt 0.283793 0.228223
vt 0.283895 0.228146
vt 0.283892 0.228123
vt 0.283980 0.228060
vt 0.284900 0.265863
vt 0.284806 0.265985
vt 0.284800 0.266013
vt 0.284700 0.266145
vt 0.283900 0.265796
vt 0.284037 0.265724
vt 0.284036 0.265702
vt 0.284434 0.265715
vt 0.283104 0.247245
vt 0.283108 0.247258
vt 0.283157 0.247176
vt 0.283159 0.247194
vt 0.284010 0.247359
vt 0.284020 0.247341
vt 0.284023 0.247444
vt 0.284032 0.247432
vt 0.283358 0.247233
vt 0.284553 0.228214
vt 0.284544 0.228133
vt 0.284586 0.265904
vt 0.283320 0.247288
vt 0.283321 0.247301
vt 0.284583 0.265931
vt 0.284469 0.266044
vt 0.283359 0.247215
vn 0.999863 -0.001253 -0.016517
vn 0.999863 -0.001253 -0.016517
vn 0.999863 -0.001253 -0.016517
vn 0.999863 -0.001253 -0.016517
vn 0.001581 -0.003167 -0.999994
vn 0.001581 -0.003167 -0.999994
vn 0.001581 -0.003167 -0.999994
vn 0.001581 -0.003167 -0.999994
vn 1.000000 -0.000001 -0.000012
vn 1.000000 -0.000001 -0.000012
vn 1.000000 -0.000001 -0.000012
vn -0.000005 0.000001 -1.000000
vn -0.000005 0.000001 -1.000000
vn -0.000005 0.000001 -1.000000
vn 1.000000 -0.000003 -0.000001
vn 1.000000 -0.000003 -0.000001
vn 1.000000 -0.000003 -0.000001
vn 1.000000 -0.000003 -0.000001
vn 0.000000 0.000000 -1.000000
vn 0.000000 0.000000 -1.000000
vn 0.000000 0.000000 -1.000000
vn 0.000000 0.000000 -1.000000
vn 0.000292 -0.999999 -0.001192
vn 0.000292 -0.999999 -0.001192
vn 0.000292 -0.999999 -0.001192
vn 0.000292 -0.999999 -0.001192
vn 0.002362 0.999997 0.001184
vn 0.002362 0.999997 0.001184
vn 0.002362 0.999997 0.001184
vn 0.043833 0.286795 0.956989
vn 0.043833 0.286795 0.956989
vn 0.043833 0.286795 0.956989
vn 0.043833 0.286795 0.956989
vn 0.000312 1.000000 0.000157
vn 0.000312 1.000000 0.000157
vn 0.000312 1.000000 0.000157
vn 0.000312 1.000000 0.000157
vn 0.029417 0.168698 0.985229
vn 0.029417 0.168698 0.985229
vn 0.029417 0.168698 0.985229
vn 0.029417 0.168698 0.985229
vn 0.000000 -1.000000 0.000000
vn 0.000000 -1.000000 0.000000
vn 0.000000 -1.000000 0.000000
vn 0.000000 -1.000000 0.000000
vn 0.000000 -1.000000 0.000000
vn 0.000000 -1.000000 0.000000
vn 0.000000 -1.000000 0.000000
vn 0.000275 0.591262 -0.806479
vn 0.000275 0.591262 -0.806479
vn 0.000275 0.591262 -0.806479
vn 0.000275 0.591262 -0.806479
vn -0.870507 0.276568 -0.407097
vn -0.870507 0.276568 -0.407097
vn -0.870507 0.276568 -0.407097
vn -0.870507 0.276568 -0.407097
vn 0.000000 0.792888 -0.609368
vn 0.000000 0.792888 -0.609368
vn 0.000000 0.792888 -0.609368
vn 0.000000 0.792888 -0.609368
vn -0.580158 0.104444 -0.807780
vn -0.580158 0.104444 -0.807780
vn -0.580158 0.104444 -0.807780
vn -0.580158 0.104444 -0.807780
vn 0.000000 -1.000000 0.000000
vn 0.000000 -1.000000 0.000000
vn 0.000000 -1.000000 0.000000
vn 0.000000 -1.000000 0.000000
vn 0.426621 0.160406 0.890092
vn 0.426621 0.160406 0.890092
vn 0.426621 0.160406 0.890092
vn 0.426621 0.160406 0.890092
vn 0.392003 0.919964 0.000000
vn 0.392003 0.919964 0.000000
vn 0.392003 0.919964 0.000000
vn 0.392003 0.919964 0.000000
vn 0.215929 0.295920 0.930487
vn 0.215929 0.295920 0.930487
vn 0.215929 0.295920 0.930487
vn 0.215929 0.295920 0.930487
vn 0.706385 0.707808 -0.005280
vn 0.706385 0.707808 -0.005280
vn 0.706385 0.707808 -0.005280
vn 0.706385 0.707808 -0.005280
vn -0.000000 -0.999997 -0.002494
vn -0.000000 -0.999997 -0.002494
vn -0.000000 -0.999997 -0.002494
vn -0.000023 -0.999998 -0.002120
vn -0.000023 -0.999998 -0.002120
vn -0.000023 -0.999998 -0.002120
vn -0.000023 -0.999998 -0.002120
vn 0.001183 0.999999 0.000022
vn 0.001183 0.999999 0.000022
vn 0.001183 0.999999 0.000022
vn -0.956868 0.289119 -0.028520
vn -0.956868 0.289119 -0.028520
vn -0.956868 0.289119 -0.028520
vn -0.956868 0.289119 -0.028520
vn 0.000628 0.999999 0.001249
vn 0.000628 0.999999 0.001249
vn 0.000628 0.999999 0.001249
vn 0.000628 0.999999 0.001249
vn -0.985313 0.169430 -0.021254
vn -0.985313 0.169430 -0.021254
vn -0.985313 0.169430 -0.021254
vn -0.985313 0.169430 -0.021254
s off
f 8/1/1 9/2/2 6/3/3 5/4/4
f 6/5/5 10/6/6 7/7/7 5/8/8
f 12/9/9 9/2/10 8/1/11
f 7/7/12 10/6/13 11/10/14
f 2/11/15 9/2/16 12/9/17 4/12/18
f 11/10/19 10/6/20 1/13/21 3/14/22
f 24/44/23 6/45/24 19/21/25 20/22/26
f 15/34/27 25/46/28 23/33/29
f 25/47/30 26/48/31 22/41/32 23/42/33
f 26/49/34 27/50/35 21/31/36 22/32/37
f 27/51/38 24/43/39 20/39/40 21/40/41
f 10/6/42 14/16/43 13/15/44 1/13/45
f 6/5/46 14/16/47 10/6/48
f 7/7/49 16/18/50 15/17/51 5/8/52
f 11/10/53 17/19/54 16/18/55 7/7/56
f 3/14/57 18/20/58 17/19/59 11/10/60
f 1/13/61 13/15/62 18/20/63 3/14/64
f 20/22/65 19/21/66 9/2/67 2/11/68
f 21/23/69 20/22/70 2/11/71 4/12/72
f 22/24/73 21/23/74 4/12/75 12/9/76
f 23/25/77 22/24/78 12/9/79 8/1/80
f 15/26/81 23/25/82 8/1/83 5/4/84
f 19/21/85 6/3/86 9/2/87
f 13/15/88 14/16/89 6/45/90 24/44/91
f 15/27/92 16/28/93 25/46/94
f 16/35/95 17/36/96 26/48/97 25/47/98
f 17/29/99 18/30/100 27/50/101 26/49/102
f 18/37/103 13/38/104 24/43/105 27/51/106
