# This file uses centimeters as units for non-parametric coordinates.

v 10.217093 2.249283 2.133169
v 6.249812 -1.318344 12.591853
v 12.709861 -3.378769 10.961436
v 6.823245 -4.307846 4.518077
v 8.661819 3.725845 10.829799
v 11.118949 10.924698 1.646158
v 9.669242 -1.958115 2.918361
v 6.322859 1.386124 12.346553
v 12.180861 2.923721 4.105987
v 12.003425 10.136124 2.540835
v 9.801665 3.087296 10.978366
v 9.335647 1.000626 13.522059
v 7.676177 -1.573105 13.571750
v 14.631255 0.113297 6.587577
v 11.384574 -4.903427 5.810935
v 7.151762 -7.952866 7.431849
v 8.535842 -8.227646 13.626437
v 11.191215 4.630020 7.895968
v 9.838576 5.588760 8.127421
v 5.264945 -2.915878 12.260234
v 5.220316 -3.768784 13.247951
v 11.590240 9.029556 5.904918
v 10.287208 10.381363 6.266608
v 2.811625 -9.155869 7.050113
v 11.295226 -7.541489 10.718860
v 4.923247 -9.550034 12.878604
v -10.010247 2.249283 2.133169
v -6.042966 -1.318344 12.591853
v -12.503015 -3.378769 10.961436
v -6.616399 -4.307846 4.518077
v -8.454972 3.725845 10.829799
v -10.912103 10.924698 1.646158
v -9.462396 -1.958115 2.918361
v -6.116014 1.386124 12.346553
v -11.974015 2.923721 4.105987
v -11.796578 10.136124 2.540835
v -9.594819 3.087296 10.978366
v -9.128800 1.000626 13.522059
v -7.469331 -1.573105 13.571750
v -14.424409 0.113297 6.587577
v -11.177728 -4.903427 5.810935
v -6.944917 -7.952866 7.431849
v -8.328996 -8.227646 13.626437
v -10.984368 4.630020 7.895968
v -9.631730 5.588760 8.127421
v -5.058099 -2.915878 12.260226
v -5.013471 -3.768784 13.247935
v -11.383393 9.029556 5.904918
v -10.080361 10.381363 6.266608
v -2.604779 -9.155869 7.050097
v -11.088380 -7.541489 10.718860
v -4.716501 -9.550034 12.878596
v 13.050895 0.945816 8.603717
v -12.844049 0.945816 8.603724
vt 0.049735 0.190238
vt 0.049735 0.190238
vt 0.049735 0.190238
vt 0.049735 0.190238
vt 0.049735 0.190238
vt 0.049735 0.190238
vt 0.049735 0.190238
vt 0.049735 0.190238
vt 0.049735 0.190238
vt 0.049735 0.190238
vt 0.049735 0.190238
vt 0.049735 0.190238
vt 0.049735 0.190238
vt 0.049735 0.190238
vt 0.049735 0.190238
vt 0.049735 0.190238
vt 0.049735 0.190238
vt 0.049735 0.190238
vt 0.049735 0.190238
vt 0.049735 0.190238
vt 0.049735 0.190238
vt 0.049735 0.190238
vt 0.049735 0.190238
vt 0.049735 0.190238
vt 0.049735 0.190238
vt 0.049735 0.190238
vt 0.049735 0.190238
vt 0.049735 0.190238
vt 0.049735 0.190238
vt 0.049735 0.190238
vt 0.049735 0.190238
vt 0.049735 0.190238
vt 0.049735 0.190238
vt 0.049735 0.190238
vt 0.049735 0.190238
vt 0.049735 0.190238
vt 0.049735 0.190238
vt 0.049735 0.190238
vt 0.049735 0.190238
vt 0.049735 0.190238
vt 0.049735 0.190238
vt 0.049735 0.190238
vt 0.049735 0.190238
vt 0.049735 0.190238
vt 0.049735 0.190238
vt 0.049735 0.190238
vt 0.049735 0.190238
vt 0.049735 0.190238
vt 0.049735 0.190238
vt 0.049735 0.190238
vt 0.049735 0.190238
vt 0.049735 0.190238
vt 0.049735 0.190238
vt 0.049735 0.190238
vt 0.049735 0.190238
vt 0.049735 0.190238
vt 0.049735 0.190238
vt 0.049735 0.190238
vt 0.049735 0.190238
vt 0.049735 0.190238
vt 0.049735 0.190238
vt 0.049735 0.190238
vt 0.049735 0.190238
vt 0.049735 0.190238
vt 0.049735 0.190238
vt 0.049735 0.190238
vt 0.049735 0.190238
vt 0.049735 0.190238
vt 0.049735 0.190238
vt 0.049735 0.190238
vt 0.049735 0.190238
vt 0.049735 0.190238
vt 0.049735 0.190238
vt 0.049735 0.190238
vt 0.049735 0.190238
vt 0.049735 0.190238
vt 0.049735 0.190238
vt 0.049735 0.190238
vt 0.049735 0.190238
vt 0.049735 0.190238
vt 0.049735 0.190238
vt 0.049735 0.190238
vt 0.049735 0.190238
vt 0.049735 0.190238
vt 0.049735 0.190238
vt 0.049735 0.190238
vt 0.049735 0.190238
vt 0.049735 0.190238
vt 0.049735 0.190238
vt 0.049735 0.190238
vt 0.049735 0.190238
vt 0.049735 0.190238
vt 0.049735 0.190238
vt 0.049735 0.190238
vt 0.049735 0.190238
vt 0.049735 0.190238
vt 0.049735 0.190238
vt 0.049735 0.190238
vt 0.049735 0.190238
vt 0.049735 0.190238
vt 0.049735 0.190238
vt 0.049735 0.190238
vt 0.049735 0.190238
vt 0.049735 0.190238
vt 0.049735 0.190238
vt 0.049735 0.190238
vt 0.049735 0.190238
vt 0.049735 0.190238
vt 0.049735 0.190238
vt 0.049735 0.190238
vt 0.049735 0.190238
vt 0.049735 0.190238
vt 0.049735 0.190238
vt 0.049735 0.190238
vt 0.049735 0.190238
vt 0.049735 0.190238
vt 0.049735 0.190238
vt 0.049735 0.190238
vt 0.049735 0.190238
vt 0.049735 0.190238
vt 0.049735 0.190238
vt 0.049735 0.190238
vt 0.049735 0.190238
vt 0.049735 0.190238
vt 0.049735 0.190238
vt 0.049735 0.190238
vt 0.049735 0.190238
vt 0.049735 0.190238
vt 0.049735 0.190238
vt 0.049735 0.190238
vt 0.049735 0.190238
vt 0.049735 0.190238
vt 0.049735 0.190238
vt 0.049735 0.190238
vt 0.049735 0.190238
vt 0.049735 0.190238
vt 0.049735 0.190238
vt 0.049735 0.190238
vt 0.049735 0.190238
vt 0.049735 0.190238
vt 0.049735 0.190238
vt 0.049735 0.190238
vt 0.049735 0.190238
vt 0.049735 0.190238
vt 0.049735 0.190238
vt 0.049735 0.190238
vt 0.049735 0.190238
vt 0.049735 0.190238
vt 0.049735 0.190238
vt 0.049735 0.190238
vt 0.049735 0.190238
vt 0.049735 0.190238
vt 0.049735 0.190238
vt 0.049735 0.190238
vt 0.049735 0.190238
vt 0.049735 0.190238
vn 0.842183 -0.536060 -0.058026
vn 0.842183 -0.536060 -0.058026
vn 0.842183 -0.536060 -0.058026
vn 0.727922 -0.216211 -0.650679
vn 0.727922 -0.216211 -0.650679
vn 0.727922 -0.216211 -0.650679
vn -0.407753 0.183826 0.894397
vn -0.407753 0.183826 0.894397
vn -0.407753 0.183826 0.894397
vn -0.407753 0.183826 0.894397
vn 0.772763 0.255753 0.580886
vn 0.778889 0.251744 0.574418
vn 0.785038 0.353703 0.508536
vn 0.382091 -0.229078 0.895282
vn 0.382091 -0.229078 0.895282
vn 0.382091 -0.229078 0.895282
vn 0.624820 -0.134352 -0.769122
vn 0.624820 -0.134352 -0.769122
vn 0.624820 -0.134352 -0.769122
vn 0.464308 -0.468038 -0.751903
vn 0.464308 -0.468039 -0.751903
vn 0.464308 -0.468038 -0.751903
vn 0.464308 -0.468038 -0.751903
vn 0.710307 0.097491 0.697108
vn 0.710307 0.097491 0.697108
vn 0.710307 0.097491 0.697108
vn 0.187038 -0.603049 -0.775466
vn 0.187038 -0.603049 -0.775466
vn 0.187038 -0.603049 -0.775466
vn 0.187038 -0.603049 -0.775466
vn 0.981173 0.039193 0.189112
vn 0.981173 0.039193 0.189112
vn 0.981173 0.039193 0.189112
vn 0.981173 0.039193 0.189112
vn -0.604721 0.433026 0.668432
vn -0.604721 0.433026 0.668432
vn -0.604721 0.433026 0.668432
vn -0.604721 0.433026 0.668432
vn -0.123818 -0.007841 0.992274
vn -0.123818 -0.007841 0.992274
vn -0.123818 -0.007841 0.992274
vn -0.183686 -0.053269 0.981541
vn -0.183686 -0.053269 0.981541
vn -0.183686 -0.053269 0.981541
vn 0.799834 0.481643 0.358169
vn 0.701399 0.470865 0.535094
vn 0.701399 0.470865 0.535094
vn 0.777222 0.480739 0.405976
vn 0.454775 0.308204 0.835577
vn 0.454775 0.308204 0.835577
vn 0.454775 0.308204 0.835577
vn 0.454775 0.308204 0.835577
vn 0.701680 -0.122649 -0.701856
vn 0.701680 -0.122649 -0.701856
vn 0.701680 -0.122649 -0.701856
vn 0.701680 -0.122649 -0.701856
vn 0.645427 0.721821 0.249796
vn 0.645427 0.721821 0.249796
vn 0.645427 0.721821 0.249796
vn 0.645427 0.721821 0.249796
vn -0.057457 0.694394 0.717298
vn -0.057456 0.694394 0.717298
vn -0.057457 0.694394 0.717298
vn -0.057457 0.694394 0.717298
vn 0.448423 0.668979 0.592777
vn 0.448423 0.668979 0.592777
vn 0.448423 0.668979 0.592777
vn 0.448423 0.668979 0.592777
vn 0.938775 -0.310307 -0.149703
vn 0.938775 -0.310307 -0.149703
vn 0.938775 -0.310307 -0.149703
vn 0.416575 -0.803896 -0.424520
vn 0.416575 -0.803896 -0.424520
vn 0.416575 -0.803896 -0.424520
vn 0.160771 -0.983780 -0.079560
vn 0.160771 -0.983780 -0.079560
vn 0.160771 -0.983780 -0.079560
vn 0.276875 -0.946749 -0.164339
vn 0.276875 -0.946749 -0.164339
vn 0.276875 -0.946749 -0.164339
vn 0.363374 -0.923600 -0.122155
vn 0.363374 -0.923600 -0.122155
vn 0.363374 -0.923600 -0.122155
vn 0.398280 -0.187671 0.897860
vn 0.398280 -0.187671 0.897860
vn 0.398280 -0.187671 0.897860
vn -0.842184 -0.536060 -0.058025
vn -0.842184 -0.536060 -0.058025
vn -0.842184 -0.536060 -0.058025
vn -0.727921 -0.216210 -0.650680
vn -0.727921 -0.216210 -0.650680
vn -0.727921 -0.216210 -0.650680
vn 0.407752 0.183826 0.894397
vn 0.407752 0.183826 0.894397
vn 0.407752 0.183826 0.894397
vn 0.407752 0.183826 0.894397
vn -0.751627 0.551847 0.361278
vn -0.778890 0.251744 0.574418
vn -0.785039 0.353703 0.508535
vn -0.382091 -0.229079 0.895282
vn -0.382091 -0.229079 0.895282
vn -0.382091 -0.229079 0.895282
vn -0.624820 -0.134352 -0.769122
vn -0.624820 -0.134352 -0.769122
vn -0.624820 -0.134352 -0.769122
vn -0.464308 -0.468039 -0.751903
vn -0.464308 -0.468038 -0.751903
vn -0.464308 -0.468039 -0.751903
vn -0.464308 -0.468039 -0.751903
vn -0.710307 0.097491 0.697108
vn -0.710307 0.097491 0.697108
vn -0.710307 0.097491 0.697108
vn -0.187040 -0.603048 -0.775467
vn -0.187040 -0.603048 -0.775467
vn -0.187040 -0.603048 -0.775467
vn -0.187040 -0.603048 -0.775467
vn -0.981173 0.039193 0.189112
vn -0.981173 0.039193 0.189112
vn -0.981173 0.039193 0.189112
vn -0.981173 0.039193 0.189112
vn 0.604725 0.433022 0.668430
vn 0.604725 0.433022 0.668430
vn 0.604725 0.433022 0.668430
vn 0.604725 0.433022 0.668430
vn 0.123822 -0.007841 0.992274
vn 0.123822 -0.007841 0.992273
vn 0.123822 -0.007841 0.992273
vn 0.183693 -0.053271 0.981539
vn 0.183693 -0.053271 0.981539
vn 0.183693 -0.053271 0.981539
vn -0.799833 0.481643 0.358171
vn -0.890222 0.454682 0.027742
vn -0.777221 0.480740 0.405978
vn -0.454776 0.308205 0.835577
vn -0.454776 0.308205 0.835577
vn -0.454776 0.308205 0.835577
vn -0.454776 0.308205 0.835577
vn -0.701681 -0.122649 -0.701856
vn -0.701681 -0.122649 -0.701856
vn -0.701681 -0.122649 -0.701856
vn -0.701681 -0.122649 -0.701856
vn -0.645427 0.721821 0.249799
vn -0.645427 0.721821 0.249799
vn -0.645426 0.721821 0.249799
vn -0.645426 0.721821 0.249799
vn 0.057456 0.694393 0.717298
vn 0.057456 0.694393 0.717298
vn 0.057456 0.694393 0.717298
vn 0.057456 0.694393 0.717298
vn -0.448423 0.668979 0.592777
vn -0.448423 0.668979 0.592777
vn -0.448423 0.668979 0.592777
vn -0.448423 0.668979 0.592777
vn -0.938775 -0.310307 -0.149703
vn -0.938775 -0.310307 -0.149703
vn -0.938775 -0.310307 -0.149703
vn -0.416575 -0.803895 -0.424521
vn -0.416575 -0.803895 -0.424521
vn -0.416575 -0.803895 -0.424521
vn -0.160771 -0.983780 -0.079560
vn -0.160771 -0.983780 -0.079560
vn -0.160771 -0.983780 -0.079560
vn -0.276878 -0.946747 -0.164342
vn -0.276878 -0.946747 -0.164342
vn -0.276878 -0.946747 -0.164342
vn -0.363383 -0.923596 -0.122158
vn -0.363383 -0.923596 -0.122158
vn -0.363383 -0.923596 -0.122158
vn -0.398279 -0.187671 0.897860
vn -0.398279 -0.187671 0.897860
vn -0.398279 -0.187671 0.897860
vn -0.987993 0.084096 -0.129608
vn -0.913616 0.279991 -0.294806
vn -0.957102 0.189601 -0.219107
vn -0.987993 0.084096 -0.129608
vn -0.987993 0.084096 -0.129608
vn 0.804242 0.535321 -0.258120
vn 0.804242 0.535321 -0.258120
vn 0.834608 0.449302 -0.318681
vn 0.863796 0.418172 -0.281049
vn -0.858484 0.370252 -0.354850
vn -0.834608 0.449302 -0.318680
vn -0.863796 0.418173 -0.281048
vn -0.898061 0.326435 -0.294833
vn 0.957102 0.189601 -0.219108
vn 0.913616 0.279991 -0.294806
vn 0.987993 0.084096 -0.129608
vn 0.987993 0.084096 -0.129608
vn 0.987993 0.084096 -0.129608
vn 0.858484 0.370252 -0.354850
vn 0.834608 0.449302 -0.318681
vn 0.913616 0.279991 -0.294806
vn 0.957102 0.189601 -0.219108
vn -0.863796 0.418173 -0.281048
vn -0.834608 0.449302 -0.318680
vn -0.804243 0.535321 -0.258118
vn -0.804243 0.535321 -0.258118
vn -0.957102 0.189601 -0.219107
vn -0.913616 0.279991 -0.294806
vn -0.834608 0.449302 -0.318680
vn -0.858484 0.370252 -0.354850
vn 0.863796 0.418172 -0.281049
vn 0.834608 0.449302 -0.318681
vn 0.858484 0.370252 -0.354850
vn 0.898061 0.326435 -0.294833
vn 0.785038 0.353703 0.508536
vn 0.751625 0.551849 0.361279
vn 0.644152 0.738272 0.200055
vn 0.799834 0.481643 0.358169
vn 0.777222 0.480739 0.405976
vn 0.890223 0.454680 0.027741
vn -0.785039 0.353703 0.508535
vn -0.778890 0.251744 0.574418
vn -0.772763 0.255753 0.580885
vn -0.799833 0.481643 0.358171
vn -0.777221 0.480740 0.405978
vn -0.701398 0.470865 0.535096
vn -0.701398 0.470865 0.535096
vn -0.751627 0.551847 0.361278
vn -0.785039 0.353703 0.508535
vn -0.644154 0.738271 0.200051
vn 0.785038 0.353703 0.508536
vn 0.778889 0.251744 0.574418
vn 0.751625 0.551849 0.361279
vn -0.950112 0.077108 0.302227
vn -0.950112 0.077108 0.302227
vn -0.950112 0.077108 0.302227
vn -0.950112 0.077108 0.302227
vn 0.950110 0.077095 0.302237
vn 0.950110 0.077095 0.302237
vn 0.950110 0.077095 0.302237
vn 0.950110 0.077095 0.302237
s off
f 14/1/1 3/2/2 15/3/3
f 1/4/4 9/5/5 7/6/6
f 8/7/7 2/8/8 13/9/9 12/10/10
f 12/11/11 3/12/12 53/154/13
f 13/14/14 3/15/15 12/16/16
f 9/17/17 14/18/18 7/19/19
f 7/20/20 14/21/21 15/22/22 4/23/23
f 17/24/24 25/25/25 13/26/26
f 15/27/27 16/28/28 24/29/29 4/30/30
f 10/31/31 22/32/32 18/33/33 9/34/34
f 2/35/35 20/36/36 21/37/37 13/38/38
f 17/39/39 13/40/40 21/41/41
f 26/42/42 17/43/43 21/44/44
f 18/45/45 11/46/46 12/47/47 53/153/48
f 18/49/49 22/50/50 23/51/51 19/52/52
f 9/53/53 1/54/54 6/55/55 10/56/56
f 10/57/57 6/58/58 23/59/59 22/60/60
f 12/61/61 11/62/62 5/63/63 8/64/64
f 11/65/65 18/66/66 19/67/67 5/68/68
f 3/69/69 25/25/70 15/70/71
f 15/70/72 25/25/73 16/71/74
f 16/71/75 25/25/76 17/72/77
f 16/73/78 26/42/79 24/74/80
f 17/43/81 26/42/82 16/73/83
f 25/25/84 3/69/85 13/26/86
f 40/77/87 41/78/88 29/79/89
f 27/80/90 33/81/91 35/82/92
f 34/83/93 38/84/94 39/85/95 28/86/96
f 40/88/97 29/89/98 54/156/99
f 39/90/100 38/91/101 29/92/102
f 35/93/103 33/94/104 40/95/105
f 33/96/106 30/97/107 41/98/108 40/99/109
f 43/100/110 39/101/111 51/102/112
f 41/103/113 30/104/114 50/105/115 42/106/116
f 36/107/117 35/108/118 44/109/119 48/110/120
f 28/111/121 39/112/122 47/113/123 46/114/124
f 43/116/125 47/117/126 39/118/127
f 52/119/128 47/120/129 43/121/130
f 44/122/131 35/123/132 54/155/133
f 44/126/134 45/127/135 49/128/136 48/129/137
f 35/130/138 36/131/139 32/132/140 27/133/141
f 36/134/142 48/135/143 49/136/144 32/137/145
f 38/138/146 34/139/147 31/140/148 37/141/149
f 37/142/150 31/143/151 45/144/152 44/145/153
f 29/146/154 41/147/155 51/102/156
f 41/147/157 42/148/158 51/102/159
f 42/148/160 43/149/161 51/102/162
f 42/150/163 50/151/164 52/119/165
f 43/121/166 42/150/167 52/119/168
f 51/102/169 39/101/170 29/146/171
f 1/4/172 7/20/173 19/52/174 23/59/175 6/55/176
f 46/115/177 50/105/178 30/97/179 28/111/180
f 5/68/181 4/30/182 2/8/183 8/64/184
f 45/144/185 33/81/186 27/133/187 32/137/188 49/128/189
f 31/140/190 30/97/191 33/81/192 45/144/193
f 2/8/194 4/30/195 24/75/196 20/36/197
f 19/52/198 7/20/199 4/30/200 5/68/201
f 28/111/202 30/97/203 31/140/204 34/83/205
f 53/154/206 14/13/207 9/76/208
f 18/45/209 53/153/210 9/48/211
f 54/156/212 29/89/213 38/87/214
f 44/122/215 54/155/216 38/124/217 37/125/218
f 40/88/219 54/156/220 35/152/221
f 53/154/222 3/12/223 14/13/224
f 21/37/225 20/36/226 24/74/227 26/42/228
f 46/114/229 47/120/230 52/119/231 50/105/232
