# This file uses centimeters as units for non-parametric coordinates.

v 0.103423 16.405289 12.154880
v 8.968581 14.668839 10.991893
v 10.705695 13.834244 6.759570
v 11.045051 14.548965 -2.838401
v 10.647223 14.072281 1.891061
v 11.277839 11.580948 -5.394658
v -0.444941 14.940689 -14.396413
v -1.010495 24.551651 -5.192014
v -0.382954 23.182632 7.007304
v 0.103423 20.211563 11.631427
v 11.565078 20.038345 -4.393014
v 11.914824 15.800186 -9.726201
v 10.124618 20.526138 6.856803
v 9.410018 15.902481 10.414256
v 11.518661 16.748795 6.279731
v 11.966239 16.606949 2.271363
v 12.419662 18.088516 -3.128980
v 12.203177 16.196548 -5.751412
v -8.761735 14.668839 10.991893
v -10.390916 13.834244 6.759570
v -10.838204 14.548965 -2.838401
v -10.631585 14.072281 1.891061
v -11.070992 11.580948 -5.394658
v -11.358232 21.959000 -4.393014
v -11.707978 17.872208 -9.726201
v -11.460900 20.689957 6.348254
v -9.203172 18.130020 10.414256
v -11.311814 16.748795 6.279731
v -11.759393 16.606949 2.271363
v -12.212815 18.088516 -3.128980
v -11.996331 16.196548 -5.751412
v -3.643304 16.824722 10.049632
v -2.771724 19.734512 9.129687
v -3.251727 21.541763 6.621306
v -3.208345 22.868423 -4.961789
v -4.873895 15.401016 -12.595998
v 6.293314 19.053360 11.489841
v -5.893991 23.988541 -4.677403
v -6.296968 22.845718 6.512080
v -4.938447 20.648453 9.776576
v 2.319585 19.672867 11.872432
v 5.305304 23.062881 7.847804
v 7.583014 24.225113 -4.885575
v 6.120463 17.292984 -12.683431
v 5.393290 16.538223 9.753421
v 0.103423 10.653580 -11.365651
v 5.622733 12.400528 -10.898038
v 11.245017 11.583511 -10.112538
v -4.874826 12.448013 -10.964101
v -11.038171 11.583511 -10.112538
v 7.517653 21.174576 6.192210
v -5.215597 17.984634 11.690349
v -5.037591 21.129288 12.081866
v -1.290548 17.578629 13.443965
v -2.109370 21.160538 14.567271
v -7.269701 17.144058 12.275836
v -7.298311 19.254898 13.424563
v -4.355733 16.489029 13.606235
v -5.185419 18.674942 15.337108
v -8.809884 14.583755 11.778476
v -8.831903 16.207413 12.662143
v -6.568326 14.079727 12.801890
v -7.206560 15.761490 14.133372
v 0.214585 13.658218 0.073554
vt 0.049735 0.197968
vt 0.049735 0.197968
vt 0.049735 0.197968
vt 0.049735 0.197968
vt 0.049735 0.197968
vt 0.049735 0.197968
vt 0.049735 0.197968
vt 0.049735 0.197968
vt 0.049735 0.197968
vt 0.049735 0.197968
vt 0.049735 0.197968
vt 0.049735 0.197968
vt 0.049735 0.197968
vt 0.049735 0.197968
vt 0.049735 0.197968
vt 0.049735 0.197968
vt 0.049735 0.197968
vt 0.049735 0.197968
vt 0.049735 0.197968
vt 0.049735 0.197968
vt 0.049735 0.197968
vt 0.049735 0.197968
vt 0.049735 0.197968
vt 0.049735 0.197968
vt 0.049735 0.197968
vt 0.049735 0.197968
vt 0.049735 0.197968
vt 0.049735 0.197968
vt 0.049735 0.197968
vt 0.049735 0.197968
vt 0.049735 0.197968
vt 0.049735 0.197968
vt 0.049735 0.197968
vt 0.049735 0.197968
vt 0.049735 0.197968
vt 0.049735 0.197968
vt 0.049735 0.197968
vt 0.049735 0.197968
vt 0.049735 0.197968
vt 0.049735 0.197968
vt 0.049735 0.197968
vt 0.049735 0.197968
vt 0.049735 0.197968
vt 0.049735 0.197968
vt 0.049735 0.197968
vt 0.049735 0.197968
vt 0.049735 0.197968
vt 0.049735 0.197968
vt 0.049735 0.197968
vt 0.049735 0.197968
vt 0.049735 0.197968
vt 0.049735 0.197968
vt 0.049735 0.197968
vt 0.049735 0.197968
vt 0.049735 0.197968
vt 0.049735 0.197968
vt 0.049735 0.197968
vt 0.049735 0.197968
vt 0.049735 0.197968
vt 0.049735 0.197968
vt 0.049735 0.197968
vt 0.049735 0.197968
vt 0.049735 0.197968
vt 0.049735 0.197968
vt 0.049735 0.197968
vt 0.049735 0.197968
vt 0.049735 0.197968
vt 0.049735 0.197968
vt 0.049735 0.197968
vt 0.049735 0.197968
vt 0.049735 0.197968
vt 0.049735 0.197968
vt 0.049735 0.197968
vt 0.049735 0.197968
vt 0.049735 0.197968
vt 0.049735 0.197968
vt 0.049735 0.197968
vt 0.049735 0.197968
vt 0.049735 0.197968
vt 0.049735 0.197968
vt 0.049735 0.197968
vt 0.049735 0.197968
vt 0.049735 0.197968
vt 0.049735 0.197968
vt 0.049735 0.197968
vt 0.049735 0.197968
vt 0.049735 0.197968
vt 0.049735 0.197968
vt 0.049735 0.197968
vt 0.049735 0.197968
vt 0.049735 0.197968
vt 0.049735 0.197968
vt 0.049735 0.197968
vt 0.049735 0.197968
vt 0.049735 0.197968
vt 0.049735 0.197968
vt 0.049735 0.197968
vt 0.049735 0.197968
vt 0.049735 0.197968
vt 0.049735 0.197968
vt 0.049735 0.197968
vt 0.049735 0.197968
vt 0.049735 0.197968
vt 0.049735 0.197968
vt 0.049735 0.197968
vt 0.049735 0.197968
vt 0.049735 0.197968
vt 0.049735 0.197968
vt 0.049735 0.197968
vt 0.049735 0.197968
vt 0.049735 0.197968
vt 0.049735 0.197968
vt 0.049735 0.197968
vt 0.049735 0.197968
vt 0.049735 0.197968
vt 0.049735 0.197968
vt 0.049735 0.197968
vt 0.049735 0.197968
vt 0.049735 0.197968
vt 0.049735 0.197968
vt 0.049735 0.197968
vt 0.049735 0.197968
vt 0.049735 0.197968
vt 0.049735 0.197968
vt 0.049735 0.197968
vt 0.049735 0.197968
vt 0.049735 0.197968
vt 0.049735 0.197968
vt 0.049735 0.197968
vt 0.049735 0.197968
vt 0.049735 0.197968
vt 0.049735 0.197968
vt 0.049735 0.197968
vt 0.049735 0.197968
vt 0.049735 0.197968
vt 0.049735 0.197968
vt 0.049735 0.197968
vt 0.049735 0.197968
vt 0.049735 0.197968
vt 0.049735 0.197968
vt 0.049735 0.197968
vt 0.049735 0.197968
vt 0.049735 0.197968
vt 0.049735 0.197968
vt 0.049735 0.197968
vt 0.049735 0.197968
vt 0.049735 0.197968
vt 0.049735 0.197968
vt 0.049735 0.197968
vt 0.049735 0.197968
vt 0.049735 0.197968
vn -0.002900 0.716790 -0.697283
vn -0.002900 0.716790 -0.697283
vn -0.002900 0.716790 -0.697283
vn -0.002900 0.716790 -0.697283
vn 0.022849 0.994473 0.102474
vn 0.022849 0.994473 0.102474
vn 0.022849 0.994473 0.102474
vn 0.022849 0.994473 0.102474
vn -0.013462 0.807350 0.589919
vn -0.013462 0.807350 0.589919
vn -0.013462 0.807350 0.589919
vn -0.013462 0.807350 0.589919
vn 0.844526 0.238412 0.479516
vn 0.844526 0.238412 0.479516
vn 0.844526 0.238412 0.479516
vn 0.938617 0.332172 0.093059
vn 0.938617 0.332172 0.093059
vn 0.938617 0.332172 0.093059
vn 0.926618 0.354074 0.126531
vn 0.926618 0.354074 0.126531
vn 0.926618 0.354074 0.126531
vn 0.926618 0.354074 0.126531
vn 0.965905 0.212650 -0.147673
vn 0.965905 0.212650 -0.147673
vn 0.965905 0.212650 -0.147673
vn 0.965905 0.212650 -0.147673
vn -0.074407 0.135859 0.987930
vn -0.074407 0.135859 0.987930
vn -0.074407 0.135859 0.987930
vn 0.896090 -0.166042 0.411646
vn 0.896090 -0.166042 0.411646
vn 0.896090 -0.166042 0.411646
vn 0.896090 -0.166042 0.411646
vn 0.914156 -0.405359 -0.001545
vn 0.914156 -0.405359 -0.001545
vn 0.914156 -0.405359 -0.001545
vn 0.914156 -0.405359 -0.001545
vn 0.940350 -0.246597 0.234378
vn 0.940350 -0.246597 0.234378
vn 0.940349 -0.246596 0.234378
vn 0.940350 -0.246596 0.234378
vn 0.207234 0.676371 -0.706808
vn 0.207234 0.676371 -0.706808
vn 0.207234 0.676371 -0.706808
vn 0.390095 0.914557 0.106824
vn 0.390095 0.914557 0.106825
vn 0.390095 0.914557 0.106825
vn 0.390095 0.914557 0.106825
vn 0.389892 0.810147 0.437774
vn 0.389892 0.810147 0.437774
vn 0.389892 0.810147 0.437774
vn 0.389892 0.810147 0.437774
vn -0.884380 -0.041538 0.464916
vn -0.884380 -0.041538 0.464916
vn -0.884380 -0.041538 0.464916
vn -0.992892 -0.039512 0.112266
vn -0.992892 -0.039512 0.112266
vn -0.992892 -0.039512 0.112266
vn -0.990786 0.128294 0.043390
vn -0.990786 0.128294 0.043390
vn -0.990786 0.128294 0.043390
vn -0.990786 0.128294 0.043390
vn -0.988517 0.128288 -0.079848
vn -0.988517 0.128288 -0.079848
vn -0.988517 0.128288 -0.079848
vn -0.988517 0.128288 -0.079848
vn 0.351873 0.184710 0.917643
vn 0.351873 0.184710 0.917643
vn 0.351873 0.184710 0.917643
vn -0.894302 -0.119575 0.431191
vn -0.894302 -0.119575 0.431191
vn -0.894302 -0.119575 0.431191
vn -0.894302 -0.119575 0.431191
vn -0.924598 -0.380710 -0.013354
vn -0.924598 -0.380710 -0.013354
vn -0.924598 -0.380710 -0.013354
vn -0.924598 -0.380710 -0.013354
vn -0.940350 -0.246597 0.234378
vn -0.940350 -0.246597 0.234378
vn -0.940349 -0.246597 0.234378
vn -0.940350 -0.246597 0.234378
vn -0.546128 -0.538897 0.641353
vn -0.546128 -0.538897 0.641353
vn -0.546128 -0.538897 0.641353
vn -0.546128 -0.538897 0.641353
vn -0.513954 0.678852 0.524414
vn -0.513954 0.678852 0.524414
vn -0.513954 0.678852 0.524414
vn -0.513954 0.678852 0.524414
vn -0.547699 0.829740 0.107504
vn -0.547699 0.829740 0.107504
vn -0.547699 0.829740 0.107504
vn -0.547699 0.829740 0.107504
vn -0.327313 0.674022 -0.662240
vn -0.327313 0.674022 -0.662239
vn -0.327313 0.674022 -0.662240
vn -0.327313 0.674022 -0.662239
vn 0.636693 0.405998 0.655582
vn 0.636693 0.405998 0.655582
vn 0.636693 0.405998 0.655582
vn -0.192878 -0.226128 0.954811
vn -0.192878 -0.226128 0.954811
vn -0.192878 -0.226128 0.954811
vn -0.192878 -0.226128 0.954811
vn -0.150736 0.710602 -0.687258
vn -0.150736 0.710602 -0.687258
vn -0.150736 0.710602 -0.687258
vn -0.150736 0.710602 -0.687258
vn -0.363867 0.926743 0.093530
vn -0.363867 0.926743 0.093530
vn -0.363867 0.926743 0.093530
vn -0.363867 0.926743 0.093530
vn -0.322432 0.713481 0.622079
vn -0.322432 0.713481 0.622079
vn -0.322432 0.713481 0.622079
vn -0.322432 0.713481 0.622079
vn 0.097094 0.138239 0.985628
vn 0.097094 0.138239 0.985628
vn 0.097094 0.138239 0.985628
vn 0.097094 0.138239 0.985628
vn 0.250959 -0.361060 0.898140
vn 0.250959 -0.361060 0.898140
vn 0.250959 -0.361060 0.898140
vn 0.250959 -0.361060 0.898140
vn 0.178692 0.898452 0.401065
vn 0.178692 0.898452 0.401065
vn 0.178692 0.898452 0.401065
vn 0.719318 0.664129 0.203752
vn 0.719318 0.664129 0.203752
vn 0.719318 0.664129 0.203752
vn 0.554254 0.610219 -0.566070
vn 0.554254 0.610219 -0.566070
vn 0.554255 0.610219 -0.566070
vn 0.554254 0.610219 -0.566070
vn 0.930854 -0.363526 0.036866
vn 0.930854 -0.363526 0.036866
vn 0.930854 -0.363526 0.036866
vn 0.930854 -0.363526 0.036866
vn -0.934235 -0.349991 0.068643
vn -0.934235 -0.349991 0.068643
vn -0.934235 -0.349991 0.068643
vn -0.934235 -0.349991 0.068643
vn 0.302223 -0.441567 -0.844796
vn 0.302223 -0.441567 -0.844796
vn 0.302223 -0.441567 -0.844796
vn 0.302223 -0.441567 -0.844796
vn 0.983702 -0.177566 -0.028300
vn 0.983702 -0.177566 -0.028300
vn 0.983702 -0.177566 -0.028300
vn 0.983702 -0.177566 -0.028300
vn -0.311707 -0.531009 -0.787952
vn -0.311707 -0.531009 -0.787952
vn -0.311707 -0.531009 -0.787952
vn -0.311707 -0.531009 -0.787952
vn -0.987444 -0.144274 -0.064337
vn -0.987444 -0.144274 -0.064337
vn -0.987444 -0.144274 -0.064337
vn -0.987444 -0.144274 -0.064337
vn -0.289119 -0.148384 -0.945723
vn -0.289119 -0.148384 -0.945723
vn -0.289119 -0.148384 -0.945723
vn -0.289119 -0.148384 -0.945723
vn 0.273318 -0.180159 -0.944902
vn 0.273318 -0.180159 -0.944902
vn 0.273318 -0.180159 -0.944902
vn 0.273318 -0.180159 -0.944902
vn 0.700511 0.688397 0.188133
vn 0.700511 0.688397 0.188133
vn 0.700511 0.688397 0.188133
vn 0.693599 0.207928 0.689700
vn 0.693599 0.207928 0.689700
vn 0.693599 0.207928 0.689700
vn 0.126120 0.910524 0.393750
vn 0.126120 0.910524 0.393750
vn 0.126120 0.910524 0.393750
vn 0.243980 0.969720 -0.010807
vn 0.243980 0.969720 -0.010807
vn 0.243980 0.969720 -0.010807
vn -0.745483 0.071393 -0.662690
vn -0.745483 0.071393 -0.662690
vn -0.745483 0.071393 -0.662690
vn -0.745483 0.071393 -0.662690
vn -0.292978 -0.870097 0.396352
vn -0.292978 -0.870097 0.396352
vn -0.292978 -0.870097 0.396352
vn -0.292978 -0.870097 0.396352
vn 0.768320 0.033254 0.639202
vn 0.768320 0.033254 0.639202
vn 0.768320 0.033254 0.639202
vn 0.768320 0.033254 0.639202
vn 0.146563 0.952324 -0.267578
vn 0.146563 0.952324 -0.267578
vn 0.146563 0.952324 -0.267578
vn 0.146563 0.952324 -0.267578
vn -0.523075 0.253365 -0.813756
vn -0.523075 0.253365 -0.813756
vn -0.523075 0.253365 -0.813756
vn -0.523075 0.253365 -0.813756
vn 0.181202 -0.734105 -0.654413
vn 0.181202 -0.734105 -0.654413
vn 0.181202 -0.734104 -0.654413
vn 0.181202 -0.734105 -0.654413
vn 0.331758 -0.340520 0.879763
vn 0.331758 -0.340520 0.879763
vn 0.331758 -0.340520 0.879763
vn 0.331758 -0.340520 0.879763
vn -0.392281 0.742962 0.542330
vn -0.392281 0.742963 0.542330
vn -0.392281 0.742963 0.542330
vn -0.392281 0.742962 0.542330
vn -0.448198 0.422625 -0.787723
vn -0.448198 0.422625 -0.787723
vn -0.448198 0.422625 -0.787723
vn -0.448198 0.422625 -0.787723
vn 0.402386 -0.064669 -0.913183
vn 0.402386 -0.064669 -0.913183
vn 0.402386 -0.064669 -0.913183
vn 0.402386 -0.064669 -0.913183
vn 0.282714 -0.527178 0.801347
vn 0.282714 -0.527178 0.801347
vn 0.282714 -0.527178 0.801347
vn 0.282714 -0.527178 0.801347
vn -0.644122 0.135817 0.752768
vn -0.644122 0.135817 0.752768
vn -0.644122 0.135817 0.752768
vn -0.644122 0.135817 0.752769
vn -0.084894 -0.983604 0.159109
vn -0.084894 -0.983604 0.159109
vn -0.084894 -0.983604 0.159109
vn 0.056068 -0.993853 -0.095462
vn 0.056068 -0.993853 -0.095462
vn 0.056068 -0.993853 -0.095462
vn 0.250820 -0.620367 0.743125
vn 0.250820 -0.620367 0.743125
vn 0.250820 -0.620367 0.743125
vn 0.416918 -0.807390 0.417493
vn 0.416918 -0.807390 0.417493
vn 0.416918 -0.807390 0.417493
vn 0.085225 -0.983257 0.161069
vn 0.085225 -0.983257 0.161069
vn 0.085225 -0.983257 0.161069
vn -0.054316 -0.993724 -0.097791
vn -0.054316 -0.993724 -0.097791
vn -0.054316 -0.993724 -0.097791
vn -0.246053 -0.621381 0.743871
vn -0.246053 -0.621381 0.743871
vn -0.246053 -0.621381 0.743871
vn -0.226591 -0.950197 0.213968
vn -0.226591 -0.950197 0.213968
vn -0.226591 -0.950197 0.213968
vn -0.531148 -0.691328 0.489844
vn -0.531148 -0.691328 0.489844
vn -0.531148 -0.691328 0.489844
vn 0.124677 -0.967254 0.221080
vn 0.124677 -0.967254 0.221080
vn 0.124677 -0.967254 0.221080
vn 0.048181 -0.997619 -0.049336
vn 0.048181 -0.997619 -0.049336
vn 0.048181 -0.997619 -0.049336
vn -0.045878 -0.997864 -0.046498
vn -0.045878 -0.997864 -0.046498
vn -0.045878 -0.997864 -0.046498
vn 0.274127 -0.930793 0.241824
vn 0.274127 -0.930793 0.241824
vn 0.274127 -0.930793 0.241824
vn -0.184179 -0.982892 0.000751
vn -0.184179 -0.982892 0.000751
vn -0.184179 -0.982892 0.000751
vn -0.311322 -0.918379 0.244251
vn -0.311322 -0.918379 0.244251
vn -0.311322 -0.918379 0.244251
vn 0.180682 -0.983541 0.000725
vn 0.180682 -0.983541 0.000725
vn 0.180682 -0.983541 0.000725
vn 0.144436 -0.988631 0.041806
vn 0.144436 -0.988631 0.041806
vn 0.144436 -0.988631 0.041806
vn -0.149134 -0.988018 0.039743
vn -0.149134 -0.988018 0.039743
vn -0.149134 -0.988018 0.039743
s off
f 43/48/1 44/49/2 7/3/3 8/2/4
f 42/47/5 43/48/6 8/2/7 9/6/8
f 41/46/9 42/47/10 9/6/11 10/14/12
f 14/13/13 15/15/14 13/5/15
f 16/10/16 13/5/17 15/15/18
f 13/5/19 16/17/20 17/16/21 11/1/22
f 11/1/23 17/16/24 18/18/25 12/4/26
f 1/8/27 41/46/28 10/14/29
f 3/9/30 15/15/31 14/13/32 2/7/33
f 4/11/34 17/16/35 16/17/36 5/51/37
f 6/12/38 18/18/39 17/16/40 4/11/41
f 36/41/42 38/43/43 35/40/44
f 38/43/45 39/44/46 34/39/47 35/40/48
f 39/44/49 40/45/50 33/38/51 34/39/52
f 27/25/53 26/23/54 28/27/55
f 29/28/56 28/27/57 26/23/58
f 26/23/59 24/19/60 30/29/61 29/30/62
f 24/19/63 25/22/64 31/31/65 30/29/66
f 40/45/67 32/37/68 33/38/69
f 20/34/70 19/32/71 27/25/72 28/27/73
f 21/35/74 22/52/75 29/30/76 30/29/77
f 23/36/78 21/35/79 30/29/80 31/31/81
f 61/94/82 60/95/83 62/96/84 63/97/85
f 34/39/86 33/38/87 10/26/88 9/24/89
f 35/40/90 34/39/91 9/24/92 8/20/93
f 36/41/94 35/40/95 8/20/96 7/21/97
f 14/13/98 13/5/99 37/42/100
f 2/7/101 14/13/102 37/42/103 45/50/104
f 24/19/105 38/43/106 36/41/107 25/22/108
f 26/23/109 39/44/110 38/43/111 24/19/112
f 27/25/113 40/45/114 39/44/115 26/23/116
f 19/32/117 32/37/118 40/45/119 27/25/120
f 45/50/121 37/42/122 41/46/123 1/8/124
f 37/42/125 51/85/126 41/46/127
f 51/85/128 11/1/129 42/47/130
f 11/1/131 12/4/132 44/49/133 43/48/134
f 16/53/135 15/54/136 3/55/137 5/56/138
f 28/57/139 29/58/140 22/59/141 20/60/142
f 7/61/143 44/62/144 47/63/145 46/64/146
f 12/65/147 18/66/148 6/67/149 48/68/150
f 36/69/151 7/70/152 46/71/153 49/72/154
f 31/73/155 25/74/156 50/75/157 23/76/158
f 25/77/159 36/78/160 49/79/161 50/80/162
f 44/81/163 12/82/164 48/83/165 47/84/166
f 42/47/167 11/1/168 43/48/169
f 41/46/170 51/85/171 42/47/172
f 37/42/173 13/5/174 51/85/175
f 13/5/176 11/1/177 51/85/178
f 33/38/179 32/37/180 52/87/181 53/86/182
f 32/37/183 1/33/184 54/88/185 52/87/186
f 1/33/187 10/26/188 55/89/189 54/88/190
f 10/26/191 33/38/192 53/86/193 55/89/194
f 53/86/195 52/87/196 56/91/197 57/90/198
f 52/87/199 54/88/200 58/92/201 56/91/202
f 54/88/203 55/89/204 59/93/205 58/92/206
f 55/89/207 53/86/208 57/90/209 59/93/210
f 57/90/211 56/91/212 60/95/213 61/94/214
f 56/91/215 58/92/216 62/96/217 60/95/218
f 58/92/219 59/93/220 63/97/221 62/96/222
f 59/93/223 57/90/224 61/94/225 63/97/226
f 3/98/227 2/99/228 64/100/229
f 4/101/230 5/102/231 64/103/232
f 6/104/233 4/105/234 64/106/235
f 32/107/236 19/108/237 64/109/238
f 19/110/239 20/111/240 64/112/241
f 22/113/242 21/114/243 64/115/244
f 21/116/245 23/117/246 64/118/247
f 1/119/248 32/120/249 64/121/250
f 2/122/251 45/123/252 64/124/253
f 45/125/254 1/126/255 64/127/256
f 5/128/257 3/129/258 64/130/259
f 20/131/260 22/132/261 64/133/262
f 46/134/263 47/135/264 64/136/265
f 48/137/266 6/138/267 64/139/268
f 49/140/269 46/141/270 64/142/271
f 23/143/272 50/144/273 64/145/274
f 50/146/275 49/147/276 64/148/277
f 47/149/278 48/150/279 64/151/280
