# This file uses centimeters as units for non-parametric coordinates.

v 0.103423 1.765884 -9.303372
v 0.103423 16.405289 12.154880
v 10.950881 3.958633 -8.594861
v 8.968581 14.668716 10.991893
v 10.597762 12.015274 7.004863
v 11.467780 11.784927 -2.838401
v 11.017165 10.593155 1.891061
v 11.529952 9.532730 -4.656823
v 10.973586 2.977554 -2.480674
v 10.828353 6.546524 2.421578
v 10.245170 5.840103 7.971751
v 0.103423 13.504166 -12.734860
v -1.973823 22.793228 -5.378133
v 0.103423 2.666519 -10.805875
v -1.346284 21.424088 6.821181
v 0.103423 17.984024 11.631427
v 11.565078 20.038345 -4.393014
v 11.914824 11.729996 -10.802442
v 11.286345 4.962540 -10.254376
v 11.667747 18.769424 6.348254
v 9.410018 15.902481 10.414256
v 11.518661 11.990616 6.525020
v 11.966239 11.300919 2.271363
v 12.419662 12.653702 -3.128980
v 12.476180 10.185684 -5.346864
v 11.951026 4.013443 -3.493367
v 11.243461 6.866470 6.693770
v 11.781989 7.516861 2.981612
v -10.744035 3.958633 -8.594861
v -8.761735 14.668716 10.991893
v -10.390916 12.015274 7.004863
v -11.260934 11.784927 -2.838401
v -10.810319 10.593155 1.891061
v -11.323106 9.532730 -4.656823
v -10.766740 2.977554 -2.480674
v -10.621507 6.546524 2.421578
v -10.038323 5.840103 7.971751
v -11.358232 19.731461 -4.393014
v -11.707978 11.729996 -10.802442
v -11.079499 4.962540 -10.254376
v -11.460900 18.462418 6.348254
v -9.203172 15.902481 10.414256
v -11.311814 11.990616 6.525020
v -11.759393 11.300919 2.271363
v -12.212815 12.653702 -3.128980
v -12.269334 10.185684 -5.346864
v -11.744180 4.013443 -3.493367
v -11.036614 6.866470 6.693770
v -11.575143 7.516861 2.981612
v -3.643304 16.824722 10.049632
v -3.829877 18.257584 9.503284
v -3.251727 19.974991 6.621306
v -3.208345 21.301651 -4.961789
v -4.888498 12.754410 -11.918141
v -4.622873 4.227310 -11.008969
v -4.481100 3.282974 -9.440114
v 6.293314 16.825821 11.489841
v 0.103423 -0.664413 -7.409581
v 0.103423 -0.143295 -9.286740
v 10.871688 2.517471 -7.058644
v 10.548659 1.689590 -4.351247
v -4.622873 0.886246 -8.918714
v -4.481100 0.376724 -6.962979
v -10.341813 1.689590 -4.351247
v -10.664842 2.517471 -7.058644
v 9.108840 0.863663 -7.783460
v 8.074615 0.187271 -5.991735
v -9.276505 1.438248 -8.021680
v -8.341325 0.785904 -6.484845
v -5.893991 21.761002 -4.677403
v -6.296968 20.618179 6.512080
v -4.938447 18.420914 9.776576
v 2.496489 16.712418 12.387240
v 7.634352 20.678604 6.584716
v 7.583014 21.997574 -4.885575
v 6.120463 13.553726 -12.155133
v 6.167826 14.899185 12.299060
v 5.822028 14.126968 11.584338
v -0.010171 9.053970 1.672440
vt 0.049735 0.197968
vt 0.049735 0.197968
vt 0.049735 0.197968
vt 0.049735 0.197968
vt 0.049735 0.197968
vt 0.049735 0.197968
vt 0.049735 0.197968
vt 0.049735 0.197968
vt 0.049735 0.197968
vt 0.049735 0.197968
vt 0.049735 0.197968
vt 0.049735 0.197968
vt 0.049735 0.197968
vt 0.049735 0.197968
vt 0.049735 0.197968
vt 0.049735 0.197968
vt 0.049735 0.197968
vt 0.049735 0.197968
vt 0.049735 0.197968
vt 0.049735 0.197968
vt 0.049735 0.197968
vt 0.049735 0.197968
vt 0.049735 0.197968
vt 0.049735 0.197968
vt 0.049735 0.197968
vt 0.049735 0.197968
vt 0.049735 0.197968
vt 0.049735 0.197968
vt 0.049735 0.197968
vt 0.049735 0.197968
vt 0.049735 0.197968
vt 0.049735 0.197968
vt 0.049735 0.197968
vt 0.049735 0.197968
vt 0.049735 0.197968
vt 0.049735 0.197968
vt 0.049735 0.197968
vt 0.049735 0.197968
vt 0.049735 0.197968
vt 0.049735 0.197968
vt 0.049735 0.197968
vt 0.049735 0.197968
vt 0.049735 0.197968
vt 0.049735 0.197968
vt 0.049735 0.197968
vt 0.049735 0.197968
vt 0.049735 0.197968
vt 0.049735 0.197968
vt 0.049735 0.197968
vt 0.049735 0.197968
vt 0.049735 0.197968
vt 0.049735 0.197968
vt 0.049735 0.197968
vt 0.049735 0.197968
vt 0.049735 0.197968
vt 0.049735 0.197968
vt 0.049735 0.197968
vt 0.049735 0.197968
vt 0.049735 0.197968
vt 0.049735 0.197968
vt 0.049735 0.197968
vt 0.049735 0.197968
vt 0.049735 0.197968
vt 0.049735 0.197968
vt 0.049735 0.197968
vt 0.049735 0.197968
vt 0.049735 0.197968
vt 0.049735 0.197968
vt 0.049735 0.197968
vt 0.049735 0.197968
vt 0.049735 0.197968
vt 0.049735 0.197968
vt 0.049735 0.197968
vt 0.049735 0.197968
vt 0.049735 0.197968
vt 0.049735 0.197968
vt 0.049735 0.197968
vt 0.049735 0.197968
vt 0.049735 0.197968
vt 0.049735 0.197968
vt 0.049735 0.197968
vt 0.049735 0.197968
vt 0.049735 0.197968
vt 0.049735 0.197968
vt 0.049735 0.197968
vt 0.049735 0.197968
vt 0.049735 0.197968
vt 0.049735 0.197968
vt 0.049735 0.197968
vt 0.049735 0.197968
vt 0.049735 0.197968
vt 0.049735 0.197968
vt 0.049735 0.197968
vt 0.049735 0.197968
vt 0.049735 0.197968
vt 0.049735 0.197968
vt 0.049735 0.197968
vt 0.049735 0.197968
vt 0.049735 0.197968
vt 0.049735 0.197968
vt 0.049735 0.197968
vt 0.049735 0.197968
vt 0.049735 0.197968
vt 0.049735 0.197968
vt 0.049735 0.197968
vt 0.049735 0.197968
vt 0.049735 0.197968
vt 0.049735 0.197968
vt 0.049735 0.197968
vt 0.049735 0.197968
vt 0.049735 0.197968
vt 0.049735 0.197968
vt 0.049735 0.197968
vt 0.049735 0.197968
vt 0.049735 0.197968
vt 0.049735 0.197968
vt 0.049735 0.197968
vt 0.049735 0.197968
vt 0.049735 0.197968
vt 0.049735 0.197968
vt 0.049735 0.197968
vt 0.049735 0.197968
vt 0.049735 0.197968
vt 0.049735 0.197968
vt 0.049735 0.197968
vt 0.049735 0.197968
vt 0.049735 0.197968
vt 0.049735 0.197968
vt 0.049735 0.197968
vt 0.049735 0.197968
vt 0.049735 0.197968
vt 0.049735 0.197968
vt 0.049735 0.197968
vt 0.049735 0.197968
vt 0.049735 0.197968
vt 0.049735 0.197968
vt 0.049735 0.197968
vt 0.049735 0.197968
vt 0.049735 0.197968
vt 0.049735 0.197968
vt 0.049735 0.197968
vt 0.049735 0.197968
vt 0.049735 0.197968
vt 0.049735 0.197968
vt 0.049735 0.197968
vt 0.049735 0.197968
vt 0.049735 0.197968
vt 0.049735 0.197968
vt 0.049735 0.197968
vt 0.049735 0.197968
vt 0.049735 0.197968
vt 0.049735 0.197968
vt 0.049735 0.197968
vt 0.049735 0.197968
vt 0.049735 0.197968
vt 0.049735 0.197968
vt 0.049735 0.197968
vt 0.049735 0.197968
vt 0.049735 0.197968
vt 0.049735 0.197968
vt 0.049735 0.197968
vt 0.049735 0.197968
vt 0.049735 0.197968
vt 0.049735 0.197968
vt 0.049735 0.197968
vt 0.049735 0.197968
vn 0.083291 0.635803 -0.767344
vn 0.083291 0.635803 -0.767344
vn 0.083291 0.635803 -0.767344
vn 0.083291 0.635803 -0.767344
vn 0.095856 -0.174429 -0.979993
vn 0.095856 -0.174429 -0.979993
vn 0.095856 -0.174429 -0.979993
vn 0.080839 0.990619 0.110178
vn 0.080839 0.990619 0.110178
vn 0.080839 0.990619 0.110178
vn 0.080839 0.990619 0.110178
vn 0.113953 0.795692 0.594886
vn 0.113953 0.795692 0.594886
vn 0.113953 0.795692 0.594886
vn 0.113953 0.795692 0.594886
vn 0.876243 -0.006708 0.481823
vn 0.876243 -0.006708 0.481823
vn 0.876243 -0.006708 0.481823
vn 0.994003 -0.019055 0.107681
vn 0.994003 -0.019055 0.107681
vn 0.994003 -0.019055 0.107681
vn 0.996916 0.071104 0.033210
vn 0.996916 0.071104 0.033210
vn 0.996916 0.071104 0.033210
vn 0.996916 0.071104 0.033210
vn 0.992066 0.099214 -0.077211
vn 0.992066 0.099214 -0.077211
vn 0.992066 0.099214 -0.077211
vn 0.992066 0.099214 -0.077211
vn 0.986416 -0.110501 -0.121548
vn 0.986416 -0.110501 -0.121548
vn 0.986416 -0.110501 -0.121548
vn 0.986416 -0.110501 -0.121548
vn 0.991646 -0.039013 0.122950
vn 0.991646 -0.039013 0.122950
vn 0.991646 -0.039013 0.122950
vn 0.991646 -0.039013 0.122950
vn 0.150335 -0.951555 -0.268222
vn 0.150335 -0.951555 -0.268222
vn 0.150335 -0.951555 -0.268222
vn 0.150335 -0.951555 -0.268222
vn -0.131416 0.311975 0.940958
vn -0.131416 0.311975 0.940958
vn -0.131416 0.311975 0.940958
vn 0.737598 -0.303622 0.603127
vn 0.737598 -0.303622 0.603128
vn 0.737598 -0.303622 0.603127
vn 0.737598 -0.303622 0.603127
vn 0.636362 -0.759659 -0.134024
vn 0.636362 -0.759659 -0.134024
vn 0.636362 -0.759659 -0.134024
vn 0.636362 -0.759659 -0.134024
vn 0.672564 -0.471111 0.570713
vn 0.672564 -0.471111 0.570713
vn 0.672564 -0.471111 0.570713
vn 0.672564 -0.471111 0.570713
vn 0.850100 -0.525530 0.033883
vn 0.850100 -0.525530 0.033883
vn 0.850100 -0.525530 0.033883
vn 0.850100 -0.525530 0.033883
vn 0.535994 0.213087 0.816887
vn 0.535994 0.213087 0.816887
vn 0.535994 0.213087 0.816887
vn 0.535994 0.213087 0.816887
vn 0.711987 -0.701996 -0.016619
vn 0.711987 -0.701996 -0.016619
vn 0.711987 -0.701996 -0.016619
vn 0.711987 -0.701996 -0.016619
vn 0.664029 0.038158 0.746732
vn 0.664029 0.038158 0.746732
vn 0.664029 0.038158 0.746732
vn 0.664029 0.038158 0.746732
vn 0.545066 -0.156477 -0.823661
vn 0.545066 -0.156477 -0.823661
vn 0.545066 -0.156477 -0.823661
vn 0.545066 -0.156477 -0.823661
vn 0.025049 0.628064 -0.777758
vn 0.025049 0.628064 -0.777758
vn 0.025049 0.628064 -0.777758
vn -0.136599 -0.101871 -0.985375
vn -0.136599 -0.101871 -0.985375
vn -0.136599 -0.101871 -0.985375
vn -0.136599 -0.101871 -0.985375
vn 0.190992 0.975462 0.109527
vn 0.190992 0.975462 0.109527
vn 0.190992 0.975462 0.109527
vn 0.190992 0.975462 0.109527
vn 0.183201 0.839560 0.511446
vn 0.183201 0.839560 0.511446
vn 0.183201 0.839560 0.511446
vn 0.183201 0.839560 0.511446
vn -0.876109 -0.007017 0.482062
vn -0.876109 -0.007017 0.482062
vn -0.876109 -0.007017 0.482062
vn -0.993970 -0.019954 0.107824
vn -0.993970 -0.019954 0.107824
vn -0.993970 -0.019954 0.107824
vn -0.996685 0.074056 0.033685
vn -0.996685 0.074056 0.033685
vn -0.996685 0.074056 0.033685
vn -0.996685 0.074056 0.033685
vn -0.991713 0.102406 -0.077572
vn -0.991713 0.102406 -0.077572
vn -0.991713 0.102406 -0.077572
vn -0.991713 0.102406 -0.077572
vn -0.986416 -0.110501 -0.121548
vn -0.986416 -0.110501 -0.121548
vn -0.986416 -0.110501 -0.121548
vn -0.986416 -0.110501 -0.121548
vn -0.991646 -0.039013 0.122950
vn -0.991646 -0.039013 0.122950
vn -0.991646 -0.039013 0.122950
vn -0.991646 -0.039013 0.122950
vn -0.575941 -0.809822 -0.111720
vn -0.575941 -0.809822 -0.111720
vn -0.575941 -0.809822 -0.111720
vn -0.575941 -0.809822 -0.111720
vn 0.273546 0.373570 0.886351
vn 0.273546 0.373570 0.886351
vn 0.273546 0.373570 0.886351
vn -0.737599 -0.303622 0.603126
vn -0.737599 -0.303622 0.603126
vn -0.737599 -0.303622 0.603126
vn -0.737599 -0.303622 0.603126
vn -0.636362 -0.759659 -0.134024
vn -0.636362 -0.759659 -0.134024
vn -0.636362 -0.759659 -0.134024
vn -0.636362 -0.759659 -0.134024
vn -0.672563 -0.471111 0.570713
vn -0.672563 -0.471111 0.570713
vn -0.672563 -0.471111 0.570713
vn -0.672563 -0.471111 0.570713
vn -0.850100 -0.525530 0.033882
vn -0.850100 -0.525530 0.033882
vn -0.850100 -0.525530 0.033882
vn -0.850100 -0.525530 0.033882
vn -0.535995 0.213088 0.816886
vn -0.535995 0.213088 0.816886
vn -0.535995 0.213088 0.816886
vn -0.535995 0.213088 0.816886
vn -0.711987 -0.701996 -0.016619
vn -0.711987 -0.701996 -0.016619
vn -0.711987 -0.701996 -0.016619
vn -0.711987 -0.701996 -0.016619
vn -0.664030 0.038158 0.746732
vn -0.664030 0.038158 0.746732
vn -0.664030 0.038158 0.746732
vn -0.664030 0.038158 0.746732
vn -0.545066 -0.156476 -0.823662
vn -0.545066 -0.156476 -0.823662
vn -0.545066 -0.156476 -0.823662
vn -0.545066 -0.156476 -0.823662
vn -0.444946 0.275165 0.852236
vn -0.444947 0.275165 0.852236
vn -0.444946 0.275165 0.852236
vn -0.444946 0.275165 0.852236
vn -0.369147 0.752031 0.546058
vn -0.369147 0.752031 0.546058
vn -0.369147 0.752031 0.546058
vn -0.369147 0.752031 0.546058
vn -0.676532 0.729684 0.099325
vn -0.676532 0.729684 0.099325
vn -0.676532 0.729684 0.099325
vn -0.676532 0.729684 0.099325
vn -0.354160 0.580493 -0.733211
vn -0.354160 0.580494 -0.733211
vn -0.354160 0.580493 -0.733211
vn -0.354160 0.580494 -0.733211
vn -0.074439 -0.145611 -0.986537
vn -0.074439 -0.145612 -0.986537
vn -0.074439 -0.145612 -0.986537
vn -0.074439 -0.145611 -0.986537
vn -0.230854 -0.941724 -0.244668
vn -0.230854 -0.941724 -0.244668
vn -0.230854 -0.941724 -0.244668
vn -0.230854 -0.941724 -0.244668
vn 0.413739 0.619846 0.666792
vn 0.413739 0.619846 0.666792
vn 0.413739 0.619846 0.666792
vn 0.398110 -0.217156 0.891264
vn 0.398110 -0.217156 0.891264
vn 0.398110 -0.217156 0.891264
vn 0.398110 -0.217156 0.891264
vn 0.171504 -0.532687 -0.828753
vn 0.171504 -0.532687 -0.828753
vn 0.171504 -0.532687 -0.828753
vn 0.171504 -0.532687 -0.828753
vn -0.276827 0.664875 0.693763
vn -0.276827 0.664875 0.693763
vn -0.276827 0.664875 0.693763
vn -0.276827 0.664875 0.693763
vn -0.276827 0.664875 0.693763
vn 0.930223 -0.339603 -0.139126
vn 0.930223 -0.339603 -0.139126
vn 0.930223 -0.339603 -0.139126
vn -0.966113 0.254275 0.044391
vn -0.966113 0.254275 0.044391
vn -0.966113 0.254275 0.044391
vn 0.301989 0.679182 0.668966
vn 0.301989 0.679182 0.668965
vn 0.301989 0.679182 0.668965
vn 0.301989 0.679182 0.668966
vn 0.301989 0.679182 0.668965
vn -0.715702 -0.596396 -0.363432
vn -0.715702 -0.596396 -0.363432
vn -0.715702 -0.596396 -0.363432
vn 0.966113 0.254275 0.044391
vn 0.966113 0.254275 0.044391
vn 0.966113 0.254275 0.044391
vn -0.930222 -0.339603 -0.139126
vn -0.930222 -0.339603 -0.139126
vn -0.930222 -0.339603 -0.139126
vn 0.198881 0.620985 0.758172
vn 0.198881 0.620985 0.758172
vn 0.198881 0.620985 0.758172
vn 0.198881 0.620985 0.758172
vn -0.151950 -0.500227 -0.852458
vn -0.151950 -0.500227 -0.852458
vn -0.151950 -0.500227 -0.852458
vn -0.151950 -0.500227 -0.852458
vn 0.712328 -0.598960 -0.365834
vn 0.712328 -0.598960 -0.365834
vn 0.712328 -0.598960 -0.365834
vn 0.621744 -0.779794 -0.073185
vn 0.621744 -0.779794 -0.073185
vn 0.621744 -0.779794 -0.073185
vn 0.621744 -0.779794 -0.073185
vn -0.184916 -0.557975 -0.808993
vn -0.184916 -0.557975 -0.808993
vn -0.184916 -0.557975 -0.808993
vn -0.184916 -0.557975 -0.808993
vn -0.150947 -0.950999 -0.269843
vn -0.150947 -0.950999 -0.269843
vn -0.150947 -0.950999 -0.269843
vn -0.150947 -0.950999 -0.269843
vn -0.236676 0.602567 -0.762166
vn -0.236676 0.602567 -0.762166
vn -0.236676 0.602567 -0.762166
vn -0.236676 0.602567 -0.762166
vn -0.363869 0.926742 0.093530
vn -0.363869 0.926742 0.093530
vn -0.363869 0.926742 0.093530
vn -0.363869 0.926742 0.093530
vn -0.322432 0.713479 0.622081
vn -0.322432 0.713479 0.622081
vn -0.322432 0.713479 0.622081
vn -0.322432 0.713479 0.622081
vn 0.013629 0.295518 0.955240
vn 0.013629 0.295518 0.955240
vn 0.013629 0.295518 0.955240
vn 0.013629 0.295518 0.955240
vn -0.131388 -0.444204 0.886239
vn -0.131388 -0.444204 0.886239
vn -0.131388 -0.444204 0.886239
vn -0.131388 -0.444204 0.886239
vn 0.258657 0.724040 0.639423
vn 0.258657 0.724040 0.639423
vn 0.258657 0.724040 0.639423
vn 0.258657 0.724040 0.639423
vn 0.429765 0.897211 0.101559
vn 0.429765 0.897211 0.101559
vn 0.429765 0.897211 0.101559
vn 0.429765 0.897211 0.101559
vn 0.361127 0.575287 -0.733915
vn 0.361127 0.575287 -0.733915
vn 0.361127 0.575287 -0.733915
vn 0.361127 0.575287 -0.733915
vn 0.114306 -0.148591 -0.982270
vn 0.114306 -0.148591 -0.982270
vn 0.114306 -0.148591 -0.982270
vn 0.114306 -0.148591 -0.982270
vn 0.394376 0.333908 0.856139
vn 0.394376 0.333908 0.856139
vn 0.394376 0.333908 0.856139
vn 0.203479 0.367848 0.907350
vn 0.203479 0.367848 0.907350
vn 0.203479 0.367848 0.907350
vn 0.130943 -0.825272 0.549345
vn 0.130943 -0.825272 0.549344
vn 0.130943 -0.825272 0.549345
vn -0.038554 -0.839061 0.542670
vn -0.038554 -0.839061 0.542670
vn -0.038554 -0.839061 0.542670
vn 0.139015 -0.963332 -0.229492
vn 0.139015 -0.963332 -0.229492
vn 0.139015 -0.963332 -0.229492
vn 0.414767 -0.564657 0.713534
vn 0.414767 -0.564658 0.713534
vn 0.414767 -0.564657 0.713534
vn -0.517954 -0.844902 -0.133655
vn -0.517954 -0.844902 -0.133655
vn -0.517954 -0.844902 -0.133655
vn 0.458433 0.244719 0.854372
vn 0.458433 0.244719 0.854372
vn 0.458433 0.244719 0.854372
vn -0.213444 -0.966075 -0.145397
vn -0.213444 -0.966075 -0.145397
vn -0.213444 -0.966075 -0.145397
vn -0.478990 0.162422 0.862663
vn -0.478990 0.162422 0.862663
vn -0.478990 0.162422 0.862663
vn 0.038013 -0.131638 -0.990569
vn 0.038013 -0.131638 -0.990569
vn 0.038013 -0.131638 -0.990569
vn -0.280794 -0.800890 0.528895
vn -0.280794 -0.800890 0.528895
vn -0.280794 -0.800890 0.528895
vn 0.379757 -0.590307 0.712266
vn 0.379757 -0.590307 0.712266
vn 0.379757 -0.590307 0.712266
vn 0.039256 -0.839168 0.542454
vn 0.039256 -0.839168 0.542454
vn 0.039256 -0.839168 0.542454
vn -0.141884 -0.962998 -0.229136
vn -0.141884 -0.962998 -0.229136
vn -0.141884 -0.962998 -0.229136
vn -0.421673 -0.562542 0.711153
vn -0.421673 -0.562542 0.711153
vn -0.421673 -0.562542 0.711153
vn 0.525883 -0.840117 -0.132859
vn 0.525883 -0.840117 -0.132859
vn 0.525883 -0.840117 -0.132859
vn -0.465773 0.242944 0.850902
vn -0.465773 0.242944 0.850902
vn -0.465773 0.242944 0.850902
vn 0.217753 -0.965065 -0.145719
vn 0.217753 -0.965065 -0.145719
vn 0.217753 -0.965065 -0.145719
vn 0.487091 0.162179 0.858161
vn 0.487091 0.162179 0.858161
vn 0.487091 0.162179 0.858161
vn -0.038816 -0.131671 -0.990533
vn -0.038816 -0.131671 -0.990533
vn -0.038816 -0.131671 -0.990533
vn -0.383877 -0.754045 0.532968
vn -0.383877 -0.754045 0.532968
vn -0.383877 -0.754045 0.532968
vn -0.031615 -0.881760 0.470637
vn -0.031615 -0.881761 0.470637
vn -0.031615 -0.881760 0.470637
vn 0.221172 -0.914770 0.338052
vn 0.221172 -0.914770 0.338052
vn 0.221172 -0.914770 0.338052
vn -0.259007 -0.789473 0.556460
vn -0.259007 -0.789473 0.556460
vn -0.259007 -0.789473 0.556460
s off
f 75/92/1 76/93/2 12/3/3 13/2/4
f 76/93/5 14/20/6 12/3/7
f 74/91/8 75/92/9 13/2/10 15/8/11
f 73/90/12 74/91/13 15/8/14 16/23/15
f 21/22/16 22/24/17 20/7/18
f 23/12/19 20/7/20 22/24/21
f 20/7/22 23/26/23 24/25/24 17/1/25
f 17/1/26 24/25/27 25/27/28 18/4/29
f 18/4/30 25/27/31 26/28/32 19/21/33
f 28/29/34 23/32/35 22/31/36 27/30/37
f 58/76/38 59/73/39 66/83/40 67/84/41
f 2/10/42 73/90/43 16/23/44
f 5/11/45 22/24/46 21/22/47 4/9/48
f 6/13/49 24/25/50 23/26/51 7/96/52
f 8/14/53 25/27/54 24/25/55 6/13/56
f 61/75/57 60/74/58 26/28/59 9/15/60
f 9/15/61 26/28/62 25/27/63 8/14/64
f 10/16/65 28/29/66 27/30/67 11/17/68
f 11/17/69 27/30/70 22/31/71 5/18/72
f 7/19/73 23/32/74 28/29/75 10/16/76
f 54/69/77 70/87/78 53/68/79
f 39/36/80 54/69/81 55/70/82 40/38/83
f 70/87/84 71/88/85 52/67/86 53/68/87
f 71/88/88 72/89/89 51/66/90 52/67/91
f 42/41/92 41/39/93 43/43/94
f 44/44/95 43/43/96 41/39/97
f 41/39/98 38/33/99 45/45/100 44/46/101
f 38/33/102 39/36/103 46/47/104 45/45/105
f 39/36/106 40/38/107 47/48/108 46/47/109
f 49/49/110 48/50/111 43/51/112 44/52/113
f 68/85/114 69/86/115 64/78/116 65/79/117
f 72/89/118 50/65/119 51/66/120
f 31/57/121 30/55/122 42/41/123 43/43/124
f 32/58/125 33/97/126 44/46/127 45/45/128
f 34/59/129 32/58/130 45/45/131 46/47/132
f 64/78/133 35/60/134 47/48/135 65/79/136
f 35/60/137 34/59/138 46/47/139 47/48/140
f 36/61/141 37/62/142 48/50/143 49/49/144
f 37/62/145 31/63/146 43/51/147 48/50/148
f 33/64/149 36/61/150 49/49/151 44/52/152
f 51/66/153 50/65/154 2/56/155 16/42/156
f 52/67/157 51/66/158 16/42/159 15/40/160
f 53/68/161 52/67/162 15/40/163 13/34/164
f 54/69/165 53/68/166 13/34/167 12/35/168
f 55/70/169 54/69/170 12/35/171 14/37/172
f 58/81/173 63/77/174 62/80/175 59/82/176
f 21/22/177 20/7/178 57/72/179
f 4/9/180 21/22/181 77/94/182 78/95/183
f 14/20/184 19/21/185 66/83/186 59/73/187
f 3/6/188 1/5/189 58/76/190 67/84/191 61/75/192
f 19/21/193 26/28/194 60/74/195
f 9/15/196 3/6/197 61/75/198
f 56/71/199 29/54/200 64/78/201 69/86/202 63/77/203
f 40/38/204 68/85/205 65/79/206
f 29/54/207 35/60/208 64/78/209
f 47/48/210 40/38/211 65/79/212
f 1/53/213 56/71/214 63/77/215 58/81/216
f 55/70/217 14/37/218 59/82/219 62/80/220
f 66/83/221 19/21/222 60/74/223
f 67/84/224 66/83/225 60/74/226 61/75/227
f 40/38/228 55/70/229 62/80/230 68/85/231
f 62/80/232 63/77/233 69/86/234 68/85/235
f 38/33/236 70/87/237 54/69/238 39/36/239
f 41/39/240 71/88/241 70/87/242 38/33/243
f 42/41/244 72/89/245 71/88/246 41/39/247
f 30/55/248 50/65/249 72/89/250 42/41/251
f 78/95/252 77/94/253 73/90/254 2/10/255
f 57/72/256 20/7/257 74/91/258 73/90/259
f 20/7/260 17/1/261 75/92/262 74/91/263
f 17/1/264 18/4/265 76/93/266 75/92/267
f 18/4/268 19/21/269 14/20/270 76/93/271
f 21/22/272 57/72/273 77/94/274
f 57/72/275 73/90/276 77/94/277
f 1/98/278 3/99/279 79/100/280
f 5/101/281 4/102/282 79/103/283
f 6/104/284 7/105/285 79/106/286
f 8/107/287 6/108/288 79/109/289
f 3/110/290 9/111/291 79/112/292
f 9/113/293 8/114/294 79/115/295
f 10/116/296 11/117/297 79/118/298
f 11/119/299 5/120/300 79/121/301
f 7/122/302 10/123/303 79/124/304
f 56/125/305 1/126/306 79/127/307
f 50/128/308 30/129/309 79/130/310
f 30/131/311 31/132/312 79/133/313
f 33/134/314 32/135/315 79/136/316
f 32/137/317 34/138/318 79/139/319
f 35/140/320 29/141/321 79/142/322
f 34/143/323 35/144/324 79/145/325
f 37/146/326 36/147/327 79/148/328
f 31/149/329 37/150/330 79/151/331
f 36/152/332 33/153/333 79/154/334
f 2/155/335 50/156/336 79/157/337
f 29/158/338 56/159/339 79/160/340
f 4/161/341 78/162/342 79/163/343
f 78/164/344 2/165/345 79/166/346
