# This file uses centimeters as units for non-parametric coordinates.

v 0.103423 1.765884 -9.303372
v -0.209535 17.685577 11.904315
v 10.950881 3.958633 -8.594861
v 8.674315 15.728745 10.569148
v 10.306945 12.542908 5.978114
v 11.467780 11.785172 -3.017991
v 11.017165 10.695038 1.010791
v 11.529952 9.532593 -4.662016
v 10.973586 2.977554 -2.480674
v 10.828353 6.644821 1.835928
v 10.245170 6.315430 7.632622
v 0.103423 13.504166 -12.734860
v -1.975852 22.793228 -5.378133
v 0.103423 2.666519 -10.805875
v -1.590883 21.926025 5.186015
v -0.190141 19.155685 11.105654
v 11.565078 20.038345 -4.393014
v 11.914824 11.729996 -10.802442
v 11.286345 4.962540 -10.254376
v 12.115211 19.281586 5.403830
v 10.087401 17.596817 9.787052
v 12.196685 12.642303 5.524148
v 11.966239 11.413376 1.406467
v 12.419662 12.653442 -3.234945
v 12.476180 10.185684 -5.346864
v 11.951026 4.013443 -3.493367
v 11.243461 7.241882 6.143377
v 11.781989 7.641647 2.333162
v -10.744035 3.958633 -8.594861
v -9.376328 15.565186 10.647960
v -10.877702 12.388245 6.316512
v -11.355783 11.785126 -2.887872
v -11.054917 10.653946 1.418688
v -11.345429 9.532730 -4.656823
v -10.766740 2.977554 -2.480674
v -10.773713 6.580475 2.237984
v -10.309350 6.040466 7.839566
v -11.421769 19.731461 -4.393014
v -11.707978 11.729996 -10.802442
v -11.079499 4.962540 -10.254376
v -11.956567 18.767471 5.418477
v -9.817765 16.716339 9.873967
v -11.768144 12.285782 5.899381
v -12.030892 11.365829 1.818562
v -12.302796 12.653687 -3.145155
v -12.283036 10.185684 -5.346864
v -11.744180 4.013443 -3.493367
v -11.320001 7.026428 6.475085
v -11.767571 7.563217 2.762374
v -4.125452 17.844711 9.121354
v -4.294981 19.187988 8.325186
v -3.593601 20.500671 4.879297
v -3.224427 21.300156 -5.017675
v -4.888498 12.754410 -11.918141
v -4.622873 4.227310 -11.008969
v -4.481100 3.282974 -9.440114
v 6.244730 18.477692 11.051265
v 0.103423 -0.664413 -7.409581
v 0.103423 -0.143295 -9.286740
v 10.871688 2.517471 -7.058644
v 10.548659 1.689590 -4.351247
v -4.622873 0.886246 -8.918714
v -4.481100 0.376724 -6.962979
v -10.341813 1.689590 -4.351247
v -10.664842 2.517471 -7.058644
v 9.108840 0.863663 -7.783460
v 8.074615 0.187271 -5.991735
v -9.276505 1.438248 -8.021680
v -8.341325 0.785904 -6.484845
v -5.928247 21.759918 -4.724494
v -6.711030 21.081818 4.930160
v -5.443834 19.364914 8.687295
v 1.773869 18.772659 12.130027
v 7.632323 21.031204 5.466204
v 7.583014 21.997574 -4.885575
v 6.120463 13.553726 -12.155133
v 6.112986 16.734253 12.226198
v 5.754080 15.326309 11.353595
v -0.077859 9.145493 0.866747
v -3.383622 17.116562 11.567263
v -3.400964 18.333359 11.641017
v -0.237446 15.956161 12.935066
v -0.096291 17.260284 13.065348
v 6.442088 14.466949 13.503883
v 6.269685 13.817017 12.789811
v 2.945202 16.457153 13.044219
v 1.627339 15.281403 12.638190
v 11.171514 11.053909 8.272554
v 12.285709 10.971710 7.940650
v 10.673583 15.975433 10.926947
v 9.868035 14.694717 11.450229
v 8.089835 15.691406 12.794996
v 7.863310 14.587540 12.232800
vt 0.050789 0.198791
vt 0.050789 0.198791
vt 0.050789 0.198791
vt 0.050789 0.198791
vt 0.050789 0.198791
vt 0.050789 0.198791
vt 0.050789 0.198791
vt 0.050789 0.198791
vt 0.050789 0.198791
vt 0.050789 0.198791
vt 0.050789 0.198791
vt 0.050789 0.198791
vt 0.050789 0.198791
vt 0.050789 0.198791
vt 0.050789 0.198791
vt 0.050789 0.198791
vt 0.050789 0.198791
vt 0.050789 0.198791
vt 0.050789 0.198791
vt 0.050789 0.198791
vt 0.050789 0.198791
vt 0.050789 0.198791
vt 0.050789 0.198791
vt 0.050789 0.198791
vt 0.050789 0.198791
vt 0.050789 0.198791
vt 0.050789 0.198791
vt 0.050789 0.198791
vt 0.050789 0.198791
vt 0.050789 0.198791
vt 0.050789 0.198791
vt 0.050789 0.198791
vt 0.050789 0.198791
vt 0.050789 0.198791
vt 0.050789 0.198791
vt 0.050789 0.198791
vt 0.050789 0.198791
vt 0.050789 0.198791
vt 0.050789 0.198791
vt 0.050789 0.198791
vt 0.050789 0.198791
vt 0.050789 0.198791
vt 0.050789 0.198791
vt 0.050789 0.198791
vt 0.050789 0.198791
vt 0.050789 0.198791
vt 0.050789 0.198791
vt 0.050789 0.198791
vt 0.050789 0.198791
vt 0.050789 0.198791
vt 0.050789 0.198791
vt 0.050789 0.198791
vt 0.050789 0.198791
vt 0.050789 0.198791
vt 0.050789 0.198791
vt 0.050789 0.198791
vt 0.050789 0.198791
vt 0.050789 0.198791
vt 0.050789 0.198791
vt 0.050789 0.198791
vt 0.050789 0.198791
vt 0.050789 0.198791
vt 0.050789 0.198791
vt 0.050789 0.198791
vt 0.050789 0.198791
vt 0.050789 0.198791
vt 0.050789 0.198791
vt 0.050789 0.198791
vt 0.050789 0.198791
vt 0.050789 0.198791
vt 0.050789 0.198791
vt 0.050789 0.198791
vt 0.050789 0.198791
vt 0.050789 0.198791
vt 0.050789 0.198791
vt 0.050789 0.198791
vt 0.050789 0.198791
vt 0.050789 0.198791
vt 0.050789 0.198791
vt 0.050789 0.198791
vt 0.050789 0.198791
vt 0.050789 0.198791
vt 0.050789 0.198791
vt 0.050789 0.198791
vt 0.050789 0.198791
vt 0.050789 0.198791
vt 0.050789 0.198791
vt 0.050789 0.198791
vt 0.050789 0.198791
vt 0.050789 0.198791
vt 0.050789 0.198791
vt 0.050789 0.198791
vt 0.050789 0.198791
vt 0.050789 0.198791
vt 0.050789 0.198791
vt 0.050789 0.198791
vt 0.050789 0.198791
vt 0.050789 0.198791
vt 0.050789 0.198791
vt 0.050789 0.198791
vt 0.050789 0.198791
vt 0.050789 0.198791
vt 0.050789 0.198791
vt 0.050789 0.198791
vt 0.050789 0.198791
vt 0.050789 0.198791
vt 0.050789 0.198791
vt 0.050789 0.198791
vt 0.050789 0.198791
vt 0.050789 0.198791
vt 0.050789 0.198791
vt 0.050789 0.198791
vt 0.050789 0.198791
vt 0.050789 0.198791
vt 0.050789 0.198791
vt 0.050789 0.198791
vt 0.050789 0.198791
vt 0.050789 0.198791
vt 0.050789 0.198791
vt 0.050789 0.198791
vt 0.050789 0.198791
vt 0.050789 0.198791
vt 0.050789 0.198791
vt 0.050789 0.198791
vt 0.050789 0.198791
vt 0.050789 0.198791
vt 0.050789 0.198791
vt 0.050789 0.198791
vt 0.050789 0.198791
vt 0.050789 0.198791
vt 0.050789 0.198791
vt 0.050789 0.198791
vt 0.050789 0.198791
vt 0.050789 0.198791
vt 0.050789 0.198791
vt 0.050789 0.198791
vt 0.050789 0.198791
vt 0.050789 0.198791
vt 0.050789 0.198791
vt 0.050789 0.198791
vt 0.050789 0.198791
vt 0.050789 0.198791
vt 0.050789 0.198791
vt 0.050789 0.198791
vt 0.050789 0.198791
vt 0.050789 0.198791
vt 0.050789 0.198791
vt 0.050789 0.198791
vt 0.050789 0.198791
vt 0.050789 0.198791
vt 0.050789 0.198791
vt 0.050789 0.198791
vt 0.050789 0.198791
vt 0.050789 0.198791
vt 0.050789 0.198791
vt 0.050789 0.198791
vt 0.050789 0.198791
vt 0.050789 0.198791
vt 0.050789 0.198791
vt 0.050789 0.198791
vt 0.050789 0.198791
vt 0.050789 0.198791
vt 0.050789 0.198791
vt 0.050789 0.198791
vt 0.050789 0.198791
vt 0.050789 0.198791
vt 0.050789 0.198791
vt 0.050789 0.198791
vt 0.050789 0.198791
vt 0.050789 0.198791
vt 0.050789 0.198791
vt 0.050789 0.198791
vt 0.050789 0.198791
vt 0.050789 0.198791
vt 0.050789 0.198791
vt 0.050789 0.198791
vt 0.050789 0.198791
vt 0.050789 0.198791
vt 0.050789 0.198791
vt 0.050789 0.198791
vn 0.083281 0.635807 -0.767342
vn 0.083281 0.635807 -0.767342
vn 0.083281 0.635807 -0.767342
vn 0.083281 0.635807 -0.767342
vn 0.095856 -0.174429 -0.979993
vn 0.095856 -0.174429 -0.979993
vn 0.095856 -0.174429 -0.979993
vn 0.085837 0.992656 0.085238
vn 0.085837 0.992656 0.085238
vn 0.085837 0.992656 0.085238
vn 0.085837 0.992656 0.085238
vn 0.059708 0.919466 0.388610
vn 0.059708 0.919466 0.388610
vn 0.059708 0.919466 0.388610
vn 0.059708 0.919466 0.388610
vn 0.904646 0.018817 0.425749
vn 0.904646 0.018817 0.425749
vn 0.904646 0.018817 0.425749
vn 0.998184 0.011177 -0.059199
vn 0.998184 0.011177 -0.059199
vn 0.998184 0.011177 -0.059199
vn 0.998929 0.046265 -0.000292
vn 0.998929 0.046265 -0.000292
vn 0.998929 0.046265 -0.000292
vn 0.998929 0.046265 -0.000292
vn 0.991972 0.099310 -0.078294
vn 0.991972 0.099310 -0.078294
vn 0.991972 0.099310 -0.078294
vn 0.991972 0.099310 -0.078294
vn 0.986415 -0.110502 -0.121548
vn 0.986415 -0.110502 -0.121548
vn 0.986415 -0.110502 -0.121548
vn 0.986415 -0.110502 -0.121548
vn 0.992135 -0.114521 0.050532
vn 0.992135 -0.114521 0.050532
vn 0.992135 -0.114521 0.050532
vn 0.992135 -0.114521 0.050532
vn 0.150329 -0.951560 -0.268207
vn 0.150329 -0.951560 -0.268207
vn 0.150329 -0.951560 -0.268207
vn 0.150329 -0.951560 -0.268206
vn -0.341571 0.452127 0.823961
vn -0.341571 0.452127 0.823961
vn -0.341571 0.452127 0.823961
vn 0.554973 -0.350694 0.754333
vn 0.554973 -0.350694 0.754333
vn 0.554973 -0.350694 0.754333
vn 0.554973 -0.350694 0.754333
vn 0.642335 -0.754305 -0.135752
vn 0.642335 -0.754305 -0.135752
vn 0.642335 -0.754306 -0.135752
vn 0.642335 -0.754305 -0.135752
vn 0.654237 -0.460754 0.599733
vn 0.654237 -0.460754 0.599733
vn 0.654237 -0.460754 0.599733
vn 0.654237 -0.460754 0.599733
vn 0.850105 -0.525522 0.033892
vn 0.850105 -0.525522 0.033892
vn 0.850105 -0.525522 0.033892
vn 0.850105 -0.525522 0.033892
vn 0.533985 0.213941 0.817979
vn 0.533985 0.213942 0.817979
vn 0.533985 0.213941 0.817979
vn 0.533985 0.213942 0.817979
vn 0.709080 -0.704518 0.029323
vn 0.709080 -0.704518 0.029323
vn 0.709080 -0.704518 0.029323
vn 0.709080 -0.704518 0.029323
vn 0.524838 0.118998 0.842843
vn 0.524838 0.118998 0.842843
vn 0.524838 0.118998 0.842843
vn 0.524838 0.118998 0.842843
vn 0.561847 -0.206219 -0.801126
vn 0.561847 -0.206219 -0.801126
vn 0.561847 -0.206219 -0.801126
vn 0.561847 -0.206219 -0.801126
vn 0.021796 0.625512 -0.779910
vn 0.021796 0.625512 -0.779910
vn 0.021796 0.625512 -0.779910
vn -0.136597 -0.101870 -0.985375
vn -0.136597 -0.101870 -0.985375
vn -0.136597 -0.101870 -0.985375
vn -0.136597 -0.101870 -0.985375
vn 0.180235 0.979972 0.084679
vn 0.180235 0.979972 0.084679
vn 0.180235 0.979972 0.084679
vn 0.180235 0.979972 0.084679
vn 0.197061 0.909144 0.366911
vn 0.197061 0.909144 0.366911
vn 0.197061 0.909144 0.366911
vn 0.197061 0.909144 0.366911
vn -0.900394 0.006102 0.435032
vn -0.900394 0.006102 0.435032
vn -0.900394 0.006102 0.435032
vn -0.997292 -0.023829 0.069584
vn -0.997292 -0.023829 0.069584
vn -0.997292 -0.023829 0.069584
vn -0.997721 0.067053 -0.007533
vn -0.997721 0.067053 -0.007533
vn -0.997721 0.067053 -0.007533
vn -0.997721 0.067053 -0.007533
vn -0.991181 0.098308 -0.088854
vn -0.991181 0.098308 -0.088854
vn -0.991181 0.098308 -0.088854
vn -0.991181 0.098308 -0.088854
vn -0.986108 -0.111767 -0.122882
vn -0.986108 -0.111767 -0.122882
vn -0.986108 -0.111767 -0.122882
vn -0.986108 -0.111767 -0.122882
vn -0.993655 -0.062314 0.093628
vn -0.993655 -0.062314 0.093628
vn -0.993655 -0.062314 0.093628
vn -0.993655 -0.062314 0.093628
vn -0.575930 -0.809831 -0.111705
vn -0.575930 -0.809831 -0.111705
vn -0.575930 -0.809831 -0.111705
vn -0.575930 -0.809831 -0.111705
vn 0.328963 0.511880 0.793576
vn 0.328963 0.511880 0.793576
vn 0.328963 0.511880 0.793576
vn -0.755549 -0.295519 0.584648
vn -0.755549 -0.295519 0.584648
vn -0.755549 -0.295519 0.584648
vn -0.755549 -0.295519 0.584648
vn -0.633912 -0.757016 -0.158375
vn -0.633912 -0.757016 -0.158375
vn -0.633912 -0.757016 -0.158375
vn -0.633912 -0.757016 -0.158375
vn -0.671278 -0.479632 0.565101
vn -0.671278 -0.479632 0.565101
vn -0.671278 -0.479632 0.565101
vn -0.671278 -0.479632 0.565101
vn -0.850105 -0.525522 0.033891
vn -0.850105 -0.525522 0.033891
vn -0.850105 -0.525522 0.033891
vn -0.850105 -0.525522 0.033891
vn -0.539092 0.210839 0.815431
vn -0.539092 0.210839 0.815431
vn -0.539092 0.210839 0.815431
vn -0.539092 0.210839 0.815431
vn -0.697526 -0.716412 -0.014534
vn -0.697526 -0.716412 -0.014534
vn -0.697526 -0.716412 -0.014534
vn -0.697526 -0.716412 -0.014534
vn -0.662585 0.076691 0.745050
vn -0.662585 0.076691 0.745050
vn -0.662585 0.076691 0.745050
vn -0.662585 0.076691 0.745050
vn -0.561681 -0.217526 -0.798246
vn -0.561681 -0.217526 -0.798246
vn -0.561681 -0.217526 -0.798246
vn -0.561681 -0.217526 -0.798246
vn -0.412161 -0.053373 0.909546
vn -0.412161 -0.053373 0.909546
vn -0.412161 -0.053373 0.909546
vn -0.412161 -0.053373 0.909546
vn -0.204010 0.927932 0.311964
vn -0.204010 0.927932 0.311964
vn -0.204011 0.927932 0.311964
vn -0.666180 0.743287 0.061061
vn -0.666180 0.743287 0.061061
vn -0.666180 0.743287 0.061061
vn -0.666180 0.743287 0.061061
vn -0.347544 0.580538 -0.736335
vn -0.347544 0.580538 -0.736335
vn -0.347544 0.580538 -0.736335
vn -0.347544 0.580538 -0.736335
vn -0.074443 -0.145611 -0.986537
vn -0.074443 -0.145611 -0.986537
vn -0.074443 -0.145611 -0.986537
vn -0.074443 -0.145611 -0.986537
vn -0.230843 -0.941723 -0.244683
vn -0.230843 -0.941723 -0.244683
vn -0.230843 -0.941723 -0.244683
vn -0.230843 -0.941723 -0.244683
vn 0.341347 0.813612 0.470657
vn 0.341347 0.813612 0.470657
vn 0.341347 0.813612 0.470657
vn 0.501392 -0.230616 0.833920
vn 0.501392 -0.230616 0.833920
vn 0.501392 -0.230616 0.833920
vn 0.501392 -0.230616 0.833920
vn 0.171503 -0.532691 -0.828751
vn 0.171503 -0.532691 -0.828751
vn 0.171503 -0.532691 -0.828751
vn 0.171503 -0.532691 -0.828751
vn -0.276826 0.664882 0.693757
vn -0.276826 0.664882 0.693757
vn -0.276826 0.664882 0.693757
vn -0.276826 0.664882 0.693757
vn -0.276826 0.664882 0.693757
vn 0.930227 -0.339591 -0.139121
vn 0.930227 -0.339591 -0.139121
vn 0.930227 -0.339591 -0.139121
vn -0.966113 0.254274 0.044389
vn -0.966113 0.254274 0.044389
vn -0.966113 0.254274 0.044389
vn 0.301987 0.679183 0.668965
vn 0.301987 0.679183 0.668965
vn 0.301987 0.679183 0.668965
vn 0.301987 0.679183 0.668965
vn 0.301987 0.679183 0.668965
vn -0.715706 -0.596391 -0.363432
vn -0.715706 -0.596391 -0.363432
vn -0.715706 -0.596391 -0.363432
vn 0.966113 0.254274 0.044389
vn 0.966113 0.254274 0.044389
vn 0.966113 0.254274 0.044389
vn -0.930228 -0.339591 -0.139120
vn -0.930228 -0.339591 -0.139120
vn -0.930228 -0.339591 -0.139120
vn 0.198881 0.620984 0.758173
vn 0.198881 0.620984 0.758173
vn 0.198881 0.620984 0.758173
vn 0.198881 0.620984 0.758173
vn -0.151954 -0.500228 -0.852456
vn -0.151954 -0.500228 -0.852456
vn -0.151953 -0.500228 -0.852456
vn -0.151954 -0.500228 -0.852457
vn 0.712329 -0.598958 -0.365837
vn 0.712329 -0.598958 -0.365837
vn 0.712329 -0.598958 -0.365837
vn 0.621734 -0.779804 -0.073165
vn 0.621734 -0.779803 -0.073165
vn 0.621734 -0.779804 -0.073165
vn 0.621734 -0.779804 -0.073165
vn -0.184910 -0.557969 -0.808999
vn -0.184910 -0.557969 -0.808999
vn -0.184910 -0.557969 -0.808999
vn -0.184910 -0.557969 -0.808999
vn -0.150947 -0.951004 -0.269827
vn -0.150947 -0.951004 -0.269827
vn -0.150947 -0.951004 -0.269827
vn -0.150947 -0.951004 -0.269827
vn -0.238532 0.600128 -0.763511
vn -0.238532 0.600128 -0.763511
vn -0.238532 0.600128 -0.763511
vn -0.238532 0.600128 -0.763511
vn -0.370883 0.927160 0.053108
vn -0.370883 0.927160 0.053108
vn -0.370883 0.927160 0.053108
vn -0.370883 0.927160 0.053108
vn -0.325689 0.800874 0.502521
vn -0.325689 0.800874 0.502521
vn -0.325689 0.800874 0.502521
vn -0.325689 0.800874 0.502521
vn 0.033966 0.430298 0.902048
vn 0.033966 0.430298 0.902048
vn 0.033966 0.430298 0.902048
vn 0.033966 0.430298 0.902048
vn -0.224649 -0.369756 0.901561
vn -0.224649 -0.369756 0.901561
vn -0.224649 -0.369757 0.901561
vn -0.224650 -0.369757 0.901561
vn 0.252947 0.854576 0.453562
vn 0.252947 0.854576 0.453562
vn 0.252947 0.854576 0.453562
vn 0.252947 0.854576 0.453562
vn 0.397591 0.915155 0.066435
vn 0.397591 0.915155 0.066435
vn 0.397591 0.915155 0.066435
vn 0.397591 0.915155 0.066435
vn 0.361129 0.575288 -0.733914
vn 0.361129 0.575288 -0.733914
vn 0.361129 0.575288 -0.733914
vn 0.361129 0.575288 -0.733914
vn 0.114306 -0.148590 -0.982270
vn 0.114306 -0.148590 -0.982270
vn 0.114306 -0.148590 -0.982270
vn 0.114306 -0.148590 -0.982270
vn 0.371917 0.499288 0.782553
vn 0.371917 0.499288 0.782553
vn 0.371917 0.499288 0.782553
vn 0.231658 0.531565 0.814723
vn 0.231658 0.531565 0.814723
vn 0.231658 0.531565 0.814723
vn 0.123977 -0.802078 0.584209
vn 0.123977 -0.802078 0.584209
vn 0.123977 -0.802078 0.584209
vn -0.010085 -0.823202 0.567660
vn -0.010085 -0.823202 0.567660
vn -0.010085 -0.823202 0.567660
vn 0.137236 -0.959917 -0.244389
vn 0.137236 -0.959917 -0.244389
vn 0.137236 -0.959917 -0.244389
vn 0.376711 -0.539287 0.753166
vn 0.376711 -0.539287 0.753166
vn 0.376711 -0.539287 0.753166
vn -0.513604 -0.847486 -0.134081
vn -0.513604 -0.847486 -0.134081
vn -0.513604 -0.847486 -0.134081
vn 0.408601 0.256779 0.875848
vn 0.408601 0.256779 0.875848
vn 0.408601 0.256779 0.875848
vn -0.216313 -0.973277 -0.077072
vn -0.216313 -0.973277 -0.077072
vn -0.216313 -0.973277 -0.077072
vn -0.489075 0.228495 0.841781
vn -0.489075 0.228495 0.841781
vn -0.489075 0.228495 0.841781
vn 0.040818 -0.201286 -0.978682
vn 0.040818 -0.201286 -0.978682
vn 0.040818 -0.201286 -0.978682
vn -0.275021 -0.780486 0.561432
vn -0.275021 -0.780486 0.561432
vn -0.275021 -0.780486 0.561432
vn 0.435734 -0.504535 0.745372
vn 0.435734 -0.504535 0.745372
vn 0.435734 -0.504535 0.745372
vn 0.048358 -0.813334 0.579784
vn 0.048358 -0.813334 0.579784
vn 0.048358 -0.813334 0.579784
vn -0.144025 -0.959533 -0.241977
vn -0.144025 -0.959533 -0.241977
vn -0.144025 -0.959533 -0.241977
vn -0.376459 -0.573279 0.727757
vn -0.376459 -0.573279 0.727757
vn -0.376459 -0.573279 0.727757
vn 0.526248 -0.839895 -0.132816
vn 0.526248 -0.839895 -0.132816
vn 0.526248 -0.839895 -0.132816
vn -0.418891 0.252570 0.872204
vn -0.418891 0.252570 0.872204
vn -0.418891 0.252570 0.872204
vn 0.218200 -0.969507 -0.111553
vn 0.218200 -0.969507 -0.111553
vn 0.218200 -0.969507 -0.111553
vn 0.494337 0.244414 0.834201
vn 0.494337 0.244414 0.834202
vn 0.494337 0.244414 0.834201
vn -0.076813 -0.201692 -0.976432
vn -0.076813 -0.201692 -0.976432
vn -0.076813 -0.201692 -0.976432
vn -0.421403 -0.719675 0.551805
vn -0.421403 -0.719675 0.551805
vn -0.421403 -0.719675 0.551804
vn -0.025426 -0.864239 0.502439
vn -0.025426 -0.864239 0.502439
vn -0.025426 -0.864239 0.502439
vn 0.229039 -0.888972 0.396574
vn 0.229039 -0.888971 0.396574
vn 0.229039 -0.888972 0.396574
vn -0.249040 -0.767418 0.590803
vn -0.249040 -0.767418 0.590803
vn -0.249040 -0.767418 0.590803
vn -0.961416 0.007423 0.274998
vn -0.961416 0.007423 0.274998
vn -0.961416 0.007423 0.274998
vn -0.961416 0.007423 0.274998
vn 0.202680 -0.779538 -0.592656
vn 0.202680 -0.779538 -0.592656
vn 0.202680 -0.779538 -0.592656
vn 0.202680 -0.779538 -0.592656
vn 0.987766 -0.088155 -0.128635
vn 0.987766 -0.088155 -0.128635
vn 0.987766 -0.088155 -0.128635
vn 0.987766 -0.088155 -0.128635
vn -0.191082 0.936830 0.292981
vn -0.191082 0.936830 0.292981
vn -0.191082 0.936830 0.292981
vn 0.951428 -0.008353 -0.307758
vn 0.951428 -0.008353 -0.307758
vn 0.951428 -0.008353 -0.307758
vn 0.951428 -0.008353 -0.307758
vn 0.181484 0.472030 0.862700
vn 0.181484 0.472030 0.862700
vn 0.181484 0.472030 0.862700
vn 0.181484 0.472030 0.862700
vn -0.283894 0.149767 0.947087
vn -0.283894 0.149767 0.947087
vn -0.283894 0.149767 0.947087
vn -0.283894 0.149767 0.947087
vn -0.237183 -0.576260 -0.782092
vn -0.237183 -0.576260 -0.782093
vn -0.237183 -0.576260 -0.782093
vn -0.237183 -0.576260 -0.782093
vn -0.134657 -0.835334 -0.532996
vn -0.134657 -0.835334 -0.532996
vn -0.134657 -0.835334 -0.532996
vn -0.134657 -0.835334 -0.532996
vn 0.952500 0.291303 0.088804
vn 0.952500 0.291303 0.088804
vn 0.952500 0.291303 0.088804
vn 0.952500 0.291303 0.088804
vn -0.844561 -0.517921 0.135922
vn -0.844561 -0.517921 0.135922
vn -0.844561 -0.517921 0.135922
vn -0.844561 -0.517921 0.135922
vn 0.300623 0.702746 0.644805
vn 0.300623 0.702746 0.644805
vn 0.300623 0.702746 0.644805
vn 0.300623 0.702746 0.644805
vn -0.447732 -0.362545 0.817372
vn -0.447732 -0.362545 0.817372
vn -0.447732 -0.362545 0.817372
vn -0.447732 -0.362545 0.817372
vn -0.107935 -0.794483 -0.597618
vn -0.107935 -0.794483 -0.597618
vn -0.107935 -0.794483 -0.597618
vn -0.107935 -0.794483 -0.597618
vn -0.067328 0.715553 0.695307
vn -0.067328 0.715553 0.695307
vn -0.067328 0.715553 0.695306
vn -0.561348 0.690601 0.456024
vn -0.561348 0.690601 0.456024
vn -0.561348 0.690601 0.456024
s off
f 75/92/1 76/93/2 12/3/3 13/2/4
f 76/93/5 14/20/6 12/3/7
f 74/91/8 75/92/9 13/2/10 15/8/11
f 73/90/12 74/91/13 15/8/14 16/23/15
f 21/22/16 22/24/17 20/7/18
f 23/12/19 20/7/20 22/24/21
f 20/7/22 23/26/23 24/25/24 17/1/25
f 17/1/26 24/25/27 25/27/28 18/4/29
f 18/4/30 25/27/31 26/28/32 19/21/33
f 28/29/34 23/32/35 22/31/36 27/30/37
f 58/76/38 59/73/39 66/83/40 67/84/41
f 2/10/42 73/90/43 16/23/44
f 88/175/45 89/176/46 90/177/47 91/178/48
f 6/13/49 24/25/50 23/26/51 7/96/52
f 8/14/53 25/27/54 24/25/55 6/13/56
f 61/75/57 60/74/58 26/28/59 9/15/60
f 9/15/61 26/28/62 25/27/63 8/14/64
f 10/16/65 28/29/66 27/30/67 11/17/68
f 11/17/69 27/30/70 22/31/71 5/18/72
f 7/19/73 23/32/74 28/29/75 10/16/76
f 54/69/77 70/87/78 53/68/79
f 39/36/80 54/69/81 55/70/82 40/38/83
f 70/87/84 71/88/85 52/67/86 53/68/87
f 71/88/88 72/89/89 51/66/90 52/67/91
f 42/41/92 41/39/93 43/43/94
f 44/44/95 43/43/96 41/39/97
f 41/39/98 38/33/99 45/45/100 44/46/101
f 38/33/102 39/36/103 46/47/104 45/45/105
f 39/36/106 40/38/107 47/48/108 46/47/109
f 49/49/110 48/50/111 43/51/112 44/52/113
f 68/85/114 69/86/115 64/78/116 65/79/117
f 72/89/118 50/65/119 51/66/120
f 31/57/121 30/55/122 42/41/123 43/43/124
f 32/58/125 33/97/126 44/46/127 45/45/128
f 34/59/129 32/58/130 45/45/131 46/47/132
f 64/78/133 35/60/134 47/48/135 65/79/136
f 35/60/137 34/59/138 46/47/139 47/48/140
f 36/61/141 37/62/142 48/50/143 49/49/144
f 37/62/145 31/63/146 43/51/147 48/50/148
f 33/64/149 36/61/150 49/49/151 44/52/152
f 81/167/153 80/168/154 82/169/155 83/170/156
f 52/67/157 51/66/158 16/42/159
f 53/68/160 52/67/161 15/40/162 13/34/163
f 54/69/164 53/68/165 13/34/166 12/35/167
f 55/70/168 54/69/169 12/35/170 14/37/171
f 58/81/172 63/77/173 62/80/174 59/82/175
f 21/22/176 20/7/177 57/72/178
f 91/178/179 90/177/180 92/179/181 93/180/182
f 14/20/183 19/21/184 66/83/185 59/73/186
f 3/6/187 1/5/188 58/76/189 67/84/190 61/75/191
f 19/21/192 26/28/193 60/74/194
f 9/15/195 3/6/196 61/75/197
f 56/71/198 29/54/199 64/78/200 69/86/201 63/77/202
f 40/38/203 68/85/204 65/79/205
f 29/54/206 35/60/207 64/78/208
f 47/48/209 40/38/210 65/79/211
f 1/53/212 56/71/213 63/77/214 58/81/215
f 55/70/216 14/37/217 59/82/218 62/80/219
f 66/83/220 19/21/221 60/74/222
f 67/84/223 66/83/224 60/74/225 61/75/226
f 40/38/227 55/70/228 62/80/229 68/85/230
f 62/80/231 63/77/232 69/86/233 68/85/234
f 38/33/235 70/87/236 54/69/237 39/36/238
f 41/39/239 71/88/240 70/87/241 38/33/242
f 42/41/243 72/89/244 71/88/245 41/39/246
f 30/55/247 50/65/248 72/89/249 42/41/250
f 85/171/251 84/172/252 86/173/253 87/174/254
f 57/72/255 20/7/256 74/91/257 73/90/258
f 20/7/259 17/1/260 75/92/261 74/91/262
f 17/1/263 18/4/264 76/93/265 75/92/266
f 18/4/267 19/21/268 14/20/269 76/93/270
f 21/22/271 57/72/272 77/94/273
f 57/72/274 73/90/275 77/94/276
f 1/98/277 3/99/278 79/100/279
f 5/101/280 4/102/281 79/103/282
f 6/104/283 7/105/284 79/106/285
f 8/107/286 6/108/287 79/109/288
f 3/110/289 9/111/290 79/112/291
f 9/113/292 8/114/293 79/115/294
f 10/116/295 11/117/296 79/118/297
f 11/119/298 5/120/299 79/121/300
f 7/122/301 10/123/302 79/124/303
f 56/125/304 1/126/305 79/127/306
f 50/128/307 30/129/308 79/130/309
f 30/131/310 31/132/311 79/133/312
f 33/134/313 32/135/314 79/136/315
f 32/137/316 34/138/317 79/139/318
f 35/140/319 29/141/320 79/142/321
f 34/143/322 35/144/323 79/145/324
f 37/146/325 36/147/326 79/148/327
f 31/149/328 37/150/329 79/151/330
f 36/152/331 33/153/332 79/154/333
f 2/155/334 50/156/335 79/157/336
f 29/158/337 56/159/338 79/160/339
f 4/161/340 78/162/341 79/163/342
f 78/164/343 2/165/344 79/166/345
f 51/66/346 50/65/347 80/168/348 81/167/349
f 50/65/350 2/56/351 82/169/352 80/168/353
f 2/56/354 16/42/355 83/170/356 82/169/357
f 16/42/358 51/66/359 81/167/360
f 78/95/361 77/94/362 84/172/363 85/171/364
f 77/94/365 73/90/366 86/173/367 84/172/368
f 73/90/369 2/10/370 87/174/371 86/173/372
f 2/10/373 78/95/374 85/171/375 87/174/376
f 5/11/377 22/24/378 89/176/379 88/175/380
f 22/24/381 21/22/382 90/177/383 89/176/384
f 4/9/385 5/11/386 88/175/387 91/178/388
f 21/22/389 77/94/390 92/179/391 90/177/392
f 77/94/393 78/95/394 93/180/395 92/179/396
f 78/95/397 4/9/398 91/178/399 93/180/400
f 16/42/401 81/167/402 83/170/403
f 52/67/404 16/42/405 15/40/406
