# This file uses centimeters as units for non-parametric coordinates.

v 84.468513 64.166237 0.192917
v 4.085854 -13.537544 0.192917
v -9.841042 -65.617310 0.192917
v 15.594749 -83.524292 0.192917
v 35.105415 -127.826721 0.192917
v 89.254448 -122.046387 0.192917
v 126.236992 -90.935501 0.192917
v 174.874954 -84.353180 0.192917
v 167.238419 -29.741455 0.192917
v 171.670914 22.092606 0.192917
v 125.279228 35.260674 0.192917
v 106.660233 -22.901031 11.264673
v 60.777096 -55.409668 4.731175
v 93.596741 15.281136 5.404446
v 65.390671 -88.852234 4.789092
v 156.246460 -49.270157 4.177063
v 84.468513 64.166237 0.192917
v 4.085854 -13.537544 0.192917
v -9.841042 -65.617310 0.192917
v 15.594749 -83.524292 0.192917
v 35.105415 -127.826721 0.192917
v 89.254448 -122.046387 0.192917
v 126.236992 -90.935501 0.192917
v 174.874954 -84.353180 0.192917
v 167.238419 -29.741455 0.192917
v 171.670914 22.092606 0.192917
v 125.279228 35.260674 0.192917
v 106.660233 -22.901031 11.264673
v 60.777096 -55.409668 4.731175
v 93.596741 15.281136 5.404446
v 65.390671 -88.852234 4.789092
v 156.246460 -49.270157 4.177063
v 75.514282 -49.781448 0.178379
v 65.516998 3.701317 0.178379
v -1.755455 64.206322 0.178379
v -40.121262 102.738350 0.178379
v -101.419937 79.715538 0.178379
v -154.350510 7.893906 0.178379
v -174.874954 -58.296021 0.178379
v -118.050995 -86.313354 0.178379
v -77.589493 -130.836365 0.178379
v -54.666626 -178.316528 0.178379
v 11.825760 -123.179153 0.178379
v -32.366982 -88.321640 3.431739
v -97.652176 -36.827370 8.106432
v -61.619308 50.585701 2.915532
v 37.906082 -22.256332 5.956492
v -44.416153 -31.105080 0.178379
v 75.514282 -49.781448 0.178379
v 65.516998 3.701317 0.178379
v -1.755455 64.206322 0.178379
v -40.121262 102.738350 0.178379
v -101.419937 79.715538 0.178379
v -154.350510 7.893906 0.178379
v -174.874954 -58.296021 0.178379
v -118.050995 -86.313354 0.178379
v -77.589493 -130.836365 0.178379
v -54.666626 -178.316528 0.178379
v 11.825760 -123.179153 0.178379
v -32.366982 -88.321640 3.431739
v -97.652176 -36.827370 8.106432
v -61.619308 50.585701 2.915532
v 37.906082 -22.256332 5.956492
v -44.416153 -31.105080 0.178379
v -50.062843 10.222260 0.192917
v 61.661255 6.102318 0.192917
v 108.862991 32.145660 0.192917
v 104.150711 62.893578 0.192917
v 122.576225 107.658195 0.192917
v 80.889267 142.697144 0.192917
v 32.832165 147.807037 0.192917
v -5.614525 178.316528 0.192917
v -39.700951 134.970581 0.192917
v -80.147011 102.251556 0.192917
v -57.497696 59.676971 0.192917
v -2.659496 86.551170 11.264673
v 52.572533 75.991989 4.731175
v -21.139168 50.675911 5.404446
v 73.489540 102.490456 4.789092
v -18.003654 140.575989 4.177063
v -50.062843 10.222260 0.192917
v 61.661255 6.102318 0.192917
v 108.862991 32.145660 0.192917
v 104.150711 62.893578 0.192917
v 122.576225 107.658195 0.192917
v 80.889267 142.697144 0.192917
v 32.832165 147.807037 0.192917
v -5.614525 178.316528 0.192917
v -39.700951 134.970581 0.192917
v -80.147011 102.251556 0.192917
v -57.497696 59.676971 0.192917
v -2.659496 86.551170 11.264673
v 52.572533 75.991989 4.731175
v -21.139168 50.675911 5.404446
v 73.489540 102.490456 4.789092
v -18.003654 140.575989 4.177063
vt 0.180040 0.989312
vt 0.101970 0.890035
vt 0.151665 0.902873
vt 0.078238 0.604320
vt 0.334124 0.594884
vt 0.144483 0.696972
vt 0.361215 0.815645
vt 0.378163 0.907732
vt 0.268096 0.919435
vt 0.186808 0.779138
vt 0.313308 0.754954
vt 0.442232 0.654532
vt 0.431439 0.724955
vt 0.009335 0.815098
vt 0.061210 0.717587
vt 0.473640 0.827481
vt 0.180040 0.989312
vt 0.151665 0.902873
vt 0.101970 0.890035
vt 0.078238 0.604320
vt 0.144483 0.696972
vt 0.334124 0.594884
vt 0.361215 0.815645
vt 0.268096 0.919435
vt 0.378163 0.907732
vt 0.313308 0.754954
vt 0.186808 0.779138
vt 0.442232 0.654532
vt 0.431439 0.724955
vt 0.009335 0.815098
vt 0.061210 0.717587
vt 0.473640 0.827481
vt 0.305637 0.493334
vt 0.351804 0.369049
vt 0.456080 0.537995
vt 0.530121 0.383131
vt 0.146482 0.352834
vt 0.157173 0.506207
vt 0.007496 0.341858
vt 0.035620 0.553963
vt 0.015190 0.101272
vt 0.123342 0.020858
vt 0.129869 0.114501
vt 0.482011 0.018527
vt 0.433355 0.149509
vt 0.347436 0.024034
vt 0.554721 0.163509
vt 0.264647 0.269083
vt 0.305637 0.493334
vt 0.456080 0.537995
vt 0.351804 0.369049
vt 0.530121 0.383131
vt 0.146482 0.352834
vt 0.007496 0.341858
vt 0.157173 0.506207
vt 0.035620 0.553963
vt 0.015190 0.101272
vt 0.129869 0.114501
vt 0.123342 0.020858
vt 0.482011 0.018527
vt 0.347436 0.024034
vt 0.433355 0.149509
vt 0.554721 0.163509
vt 0.264647 0.269083
vt 0.180040 0.989312
vt 0.101970 0.890035
vt 0.151665 0.902873
vt 0.078238 0.604320
vt 0.334124 0.594884
vt 0.144483 0.696972
vt 0.361215 0.815645
vt 0.378163 0.907732
vt 0.268096 0.919435
vt 0.186808 0.779138
vt 0.313308 0.754954
vt 0.442232 0.654532
vt 0.431439 0.724955
vt 0.009335 0.815098
vt 0.061210 0.717587
vt 0.473640 0.827481
vt 0.180040 0.989312
vt 0.151665 0.902873
vt 0.101970 0.890035
vt 0.078238 0.604320
vt 0.144483 0.696972
vt 0.334124 0.594884
vt 0.361215 0.815645
vt 0.268096 0.919435
vt 0.378163 0.907732
vt 0.313308 0.754954
vt 0.186808 0.779138
vt 0.442232 0.654532
vt 0.431439 0.724955
vt 0.009335 0.815098
vt 0.061210 0.717587
vt 0.473640 0.827481
vn 0.278607 0.038959 0.959615
vn 0.278607 0.038959 0.959615
vn 0.278607 0.038959 0.959615
vn -0.086617 0.089603 0.992204
vn -0.086617 0.089603 0.992204
vn -0.086617 0.089603 0.992204
vn 0.072126 -0.085739 0.993704
vn 0.072126 -0.085739 0.993704
vn 0.072126 -0.085739 0.993704
vn -0.022184 -0.166800 0.985741
vn -0.022184 -0.166800 0.985741
vn -0.022184 -0.166800 0.985741
vn 0.075732 0.012174 0.997054
vn 0.075732 0.012174 0.997054
vn 0.075732 0.012174 0.997054
vn -0.095819 0.118898 0.988272
vn -0.095819 0.118898 0.988272
vn -0.095819 0.118898 0.988272
vn -0.111076 -0.042774 0.992891
vn -0.111076 -0.042774 0.992891
vn -0.111076 -0.042774 0.992891
vn -0.053090 -0.075412 0.995738
vn -0.053090 -0.075412 0.995738
vn -0.053090 -0.075412 0.995738
vn 0.189159 0.092961 0.977536
vn 0.189159 0.092961 0.977536
vn 0.189159 0.092961 0.977536
vn 0.178105 -0.015230 0.983894
vn 0.178105 -0.015230 0.983894
vn 0.178105 -0.015230 0.983894
vn 0.050188 0.176814 0.982964
vn 0.050188 0.176814 0.982964
vn 0.050188 0.176814 0.982964
vn 0.086047 0.121487 0.988856
vn 0.086047 0.121487 0.988856
vn 0.086047 0.121487 0.988856
vn -0.066689 0.017834 0.997614
vn -0.066689 0.017834 0.997614
vn -0.066689 0.017834 0.997614
vn -0.093083 -0.011117 0.995596
vn -0.093083 -0.011117 0.995596
vn -0.093083 -0.011117 0.995596
vn -0.043657 -0.083479 0.995553
vn -0.043657 -0.083479 0.995553
vn -0.043657 -0.083479 0.995553
vn -0.043657 -0.083479 0.995553
vn 0.051005 0.168533 0.984376
vn 0.051005 0.168533 0.984376
vn 0.051005 0.168533 0.984376
vn 0.065764 -0.141813 0.987706
vn 0.065764 -0.141813 0.987706
vn 0.065764 -0.141813 0.987706
vn 0.014257 -0.105349 0.994333
vn 0.014257 -0.105349 0.994333
vn 0.014257 -0.105349 0.994333
vn -0.278607 -0.038959 -0.959615
vn -0.278607 -0.038959 -0.959615
vn -0.278607 -0.038959 -0.959615
vn 0.086617 -0.089603 -0.992204
vn 0.086617 -0.089603 -0.992204
vn 0.086617 -0.089603 -0.992204
vn -0.072126 0.085739 -0.993704
vn -0.072126 0.085739 -0.993704
vn -0.072126 0.085739 -0.993704
vn 0.022184 0.166800 -0.985741
vn 0.022184 0.166800 -0.985741
vn 0.022184 0.166800 -0.985741
vn -0.075732 -0.012174 -0.997054
vn -0.075732 -0.012174 -0.997054
vn -0.075732 -0.012174 -0.997054
vn 0.095819 -0.118898 -0.988272
vn 0.095819 -0.118898 -0.988272
vn 0.095819 -0.118898 -0.988272
vn 0.111076 0.042774 -0.992891
vn 0.111076 0.042774 -0.992891
vn 0.111076 0.042774 -0.992891
vn 0.053090 0.075412 -0.995738
vn 0.053090 0.075412 -0.995738
vn 0.053090 0.075412 -0.995738
vn -0.189159 -0.092961 -0.977536
vn -0.189159 -0.092961 -0.977536
vn -0.189159 -0.092961 -0.977536
vn -0.178105 0.015230 -0.983894
vn -0.178105 0.015230 -0.983894
vn -0.178105 0.015230 -0.983894
vn -0.050188 -0.176814 -0.982964
vn -0.050188 -0.176814 -0.982964
vn -0.050188 -0.176814 -0.982964
vn -0.086047 -0.121487 -0.988856
vn -0.086047 -0.121487 -0.988856
vn -0.086047 -0.121487 -0.988856
vn 0.066689 -0.017834 -0.997614
vn 0.066689 -0.017834 -0.997614
vn 0.066689 -0.017834 -0.997614
vn 0.093083 0.011117 -0.995596
vn 0.093083 0.011117 -0.995596
vn 0.093083 0.011117 -0.995596
vn 0.043657 0.083479 -0.995553
vn 0.043657 0.083479 -0.995553
vn 0.043657 0.083479 -0.995553
vn 0.043657 0.083479 -0.995553
vn -0.051005 -0.168533 -0.984376
vn -0.051005 -0.168533 -0.984376
vn -0.051005 -0.168533 -0.984376
vn -0.065764 0.141813 -0.987706
vn -0.065764 0.141813 -0.987706
vn -0.065764 0.141813 -0.987706
vn -0.014257 0.105349 -0.994333
vn -0.014257 0.105349 -0.994333
vn -0.014257 0.105349 -0.994333
vn -0.064937 -0.131703 0.989160
vn -0.064937 -0.131703 0.989160
vn -0.064937 -0.131703 0.989160
vn -0.111581 0.034599 0.993153
vn -0.111581 0.034599 0.993153
vn -0.111581 0.034599 0.993153
vn 0.007184 -0.083893 0.996449
vn 0.007184 -0.083893 0.996449
vn 0.007184 -0.083893 0.996449
vn 0.000000 0.000000 1.000000
vn 0.000000 0.000000 1.000000
vn 0.000000 0.000000 1.000000
vn -0.038742 -0.035208 0.998629
vn -0.038742 -0.035208 0.998629
vn -0.038742 -0.035208 0.998629
vn -0.040874 -0.141610 0.989078
vn -0.040874 -0.141610 0.989078
vn -0.040874 -0.141610 0.989078
vn 0.175142 0.032739 0.983999
vn 0.175142 0.032739 0.983999
vn 0.175142 0.032739 0.983999
vn 0.037226 0.037066 0.998619
vn 0.037226 0.037066 0.998619
vn 0.037226 0.037066 0.998619
vn 0.027536 0.079224 0.996476
vn 0.027536 0.079224 0.996476
vn 0.027536 0.079224 0.996476
vn 0.101141 0.112454 0.988496
vn 0.101141 0.112454 0.988496
vn 0.101141 0.112454 0.988496
vn -0.023272 0.061961 0.997807
vn -0.023272 0.061961 0.997807
vn -0.023272 0.061961 0.997807
vn -0.069731 0.087754 0.993699
vn -0.069731 0.087754 0.993699
vn -0.069731 0.087754 0.993699
vn -0.044606 0.032873 0.998464
vn -0.044606 0.032873 0.998464
vn -0.044606 0.032873 0.998464
vn -0.074343 0.040999 0.996390
vn -0.074343 0.040999 0.996390
vn -0.074343 0.040999 0.996390
vn -0.064904 -0.047066 0.996781
vn -0.064904 -0.047066 0.996781
vn -0.064904 -0.047066 0.996781
vn 0.093246 -0.080911 0.992350
vn 0.093246 -0.080911 0.992350
vn 0.093246 -0.080911 0.992350
vn 0.023586 -0.063217 0.997721
vn 0.023586 -0.063217 0.997721
vn 0.023586 -0.063217 0.997721
vn 0.147516 -0.002074 0.989058
vn 0.147516 -0.002074 0.989058
vn 0.147516 -0.002074 0.989058
vn 0.137806 0.085130 0.986794
vn 0.137806 0.085130 0.986794
vn 0.137806 0.085130 0.986794
vn 0.064937 0.131703 -0.989160
vn 0.064937 0.131703 -0.989160
vn 0.064937 0.131703 -0.989160
vn 0.111581 -0.034599 -0.993153
vn 0.111581 -0.034599 -0.993153
vn 0.111581 -0.034599 -0.993153
vn -0.007184 0.083893 -0.996449
vn -0.007184 0.083893 -0.996449
vn -0.007184 0.083893 -0.996449
vn 0.000000 0.000000 -1.000000
vn 0.000000 0.000000 -1.000000
vn 0.000000 0.000000 -1.000000
vn 0.038742 0.035208 -0.998629
vn 0.038742 0.035208 -0.998629
vn 0.038742 0.035208 -0.998629
vn 0.040874 0.141610 -0.989078
vn 0.040874 0.141610 -0.989078
vn 0.040874 0.141610 -0.989078
vn -0.175142 -0.032739 -0.983999
vn -0.175142 -0.032739 -0.983999
vn -0.175142 -0.032739 -0.983999
vn -0.037226 -0.037066 -0.998619
vn -0.037226 -0.037066 -0.998619
vn -0.037226 -0.037066 -0.998619
vn -0.027536 -0.079224 -0.996476
vn -0.027536 -0.079224 -0.996476
vn -0.027536 -0.079224 -0.996476
vn -0.101141 -0.112454 -0.988496
vn -0.101141 -0.112454 -0.988496
vn -0.101141 -0.112454 -0.988496
vn 0.023272 -0.061961 -0.997807
vn 0.023272 -0.061961 -0.997807
vn 0.023272 -0.061961 -0.997807
vn 0.069731 -0.087754 -0.993699
vn 0.069731 -0.087754 -0.993699
vn 0.069731 -0.087754 -0.993699
vn 0.044606 -0.032873 -0.998464
vn 0.044606 -0.032873 -0.998464
vn 0.044606 -0.032873 -0.998464
vn 0.074343 -0.040999 -0.996390
vn 0.074343 -0.040999 -0.996390
vn 0.074343 -0.040999 -0.996390
vn 0.064904 0.047066 -0.996781
vn 0.064904 0.047066 -0.996781
vn 0.064904 0.047066 -0.996781
vn -0.093246 0.080911 -0.992350
vn -0.093246 0.080911 -0.992350
vn -0.093246 0.080911 -0.992350
vn -0.023586 0.063217 -0.997721
vn -0.023586 0.063217 -0.997721
vn -0.023586 0.063217 -0.997721
vn -0.147516 0.002074 -0.989058
vn -0.147516 0.002074 -0.989058
vn -0.147516 0.002074 -0.989058
vn -0.137806 -0.085130 -0.986794
vn -0.137806 -0.085130 -0.986794
vn -0.137806 -0.085130 -0.986794
vn -0.221134 0.173895 0.959615
vn -0.221134 0.173895 0.959615
vn -0.221134 0.173895 0.959615
vn -0.004593 -0.124539 0.992204
vn -0.004593 -0.124539 0.992204
vn -0.004593 -0.124539 0.992204
vn 0.011847 0.111414 0.993704
vn 0.011847 0.111414 0.993704
vn 0.011847 0.111414 0.993704
vn 0.135642 0.099578 0.985741
vn 0.135642 0.099578 0.985741
vn 0.135642 0.099578 0.985741
vn -0.061252 0.046171 0.997054
vn -0.061252 0.046171 0.997054
vn -0.061252 0.046171 0.997054
vn -0.019339 -0.151473 0.988272
vn -0.019339 -0.151473 0.988272
vn -0.019339 -0.151473 0.988272
vn 0.107805 -0.050454 0.992891
vn 0.107805 -0.050454 0.992891
vn 0.107805 -0.050454 0.992891
vn 0.091161 0.013971 0.995738
vn 0.091161 0.013971 0.995738
vn 0.091161 0.013971 0.995738
vn -0.198095 0.071982 0.977536
vn -0.198095 0.071982 0.977536
vn -0.198095 0.071982 0.977536
vn -0.112424 0.138975 0.983894
vn -0.112424 0.138975 0.983894
vn -0.112424 0.138975 0.983894
vn -0.162266 -0.086324 0.982964
vn -0.162266 -0.086324 0.982964
vn -0.162266 -0.086324 0.982964
vn -0.147219 -0.022132 0.988856
vn -0.147219 -0.022132 0.988856
vn -0.147219 -0.022132 0.988856
vn 0.033349 -0.060443 0.997615
vn 0.033349 -0.060443 0.997615
vn 0.033349 -0.060443 0.997615
vn 0.072512 -0.059415 0.995596
vn 0.072512 -0.059415 0.995596
vn 0.072512 -0.059415 0.995596
vn 0.090442 0.026362 0.995553
vn 0.090442 0.026362 0.995553
vn 0.090442 0.026362 0.995553
vn 0.090442 0.026362 0.995553
vn -0.156861 -0.079997 0.984376
vn -0.156861 -0.079997 0.984376
vn -0.156861 -0.079997 0.984376
vn 0.056687 0.145679 0.987706
vn 0.056687 0.145679 0.987706
vn 0.056687 0.145679 0.987706
vn 0.066083 0.083275 0.994333
vn 0.066083 0.083275 0.994333
vn 0.066083 0.083275 0.994333
vn 0.221133 -0.173895 -0.959615
vn 0.221133 -0.173895 -0.959615
vn 0.221133 -0.173895 -0.959615
vn 0.004593 0.124539 -0.992204
vn 0.004593 0.124539 -0.992204
vn 0.004593 0.124539 -0.992204
vn -0.011847 -0.111414 -0.993704
vn -0.011847 -0.111414 -0.993704
vn -0.011847 -0.111414 -0.993704
vn -0.135642 -0.099578 -0.985741
vn -0.135642 -0.099578 -0.985741
vn -0.135642 -0.099578 -0.985741
vn 0.061252 -0.046171 -0.997054
vn 0.061252 -0.046171 -0.997054
vn 0.061252 -0.046171 -0.997054
vn 0.019339 0.151473 -0.988272
vn 0.019339 0.151473 -0.988272
vn 0.019339 0.151473 -0.988272
vn -0.107805 0.050454 -0.992891
vn -0.107805 0.050454 -0.992891
vn -0.107805 0.050454 -0.992891
vn -0.091161 -0.013971 -0.995738
vn -0.091161 -0.013971 -0.995738
vn -0.091161 -0.013971 -0.995738
vn 0.198095 -0.071982 -0.977536
vn 0.198095 -0.071982 -0.977536
vn 0.198095 -0.071982 -0.977536
vn 0.112424 -0.138975 -0.983894
vn 0.112424 -0.138975 -0.983894
vn 0.112424 -0.138975 -0.983894
vn 0.162266 0.086324 -0.982964
vn 0.162266 0.086324 -0.982964
vn 0.162266 0.086324 -0.982964
vn 0.147219 0.022132 -0.988856
vn 0.147219 0.022132 -0.988856
vn 0.147219 0.022132 -0.988856
vn -0.033349 0.060443 -0.997615
vn -0.033349 0.060443 -0.997615
vn -0.033349 0.060443 -0.997615
vn -0.072512 0.059415 -0.995596
vn -0.072512 0.059415 -0.995596
vn -0.072512 0.059415 -0.995596
vn -0.090442 -0.026362 -0.995553
vn -0.090442 -0.026362 -0.995553
vn -0.090442 -0.026362 -0.995553
vn -0.090442 -0.026362 -0.995553
vn 0.156861 0.079997 -0.984376
vn 0.156861 0.079997 -0.984376
vn 0.156861 0.079997 -0.984376
vn -0.056687 -0.145679 -0.987706
vn -0.056687 -0.145679 -0.987706
vn -0.056687 -0.145679 -0.987706
vn -0.066083 -0.083275 -0.994333
vn -0.066083 -0.083275 -0.994333
vn -0.066083 -0.083275 -0.994333
s off
f 8/1/1 9/2/2 16/3/3
f 1/4/4 2/5/5 14/6/6
f 15/7/7 6/8/8 7/9/9
f 7/9/10 12/10/11 13/11/12
f 13/11/13 15/7/14 7/9/15
f 12/10/16 14/6/17 2/5/18
f 2/5/19 13/11/20 12/10/21
f 3/12/22 4/13/23 13/11/24
f 12/10/25 16/3/26 9/2/27
f 9/2/28 10/14/29 12/10/30
f 14/6/31 10/14/32 11/15/33
f 1/4/34 14/6/35 11/15/36
f 13/11/37 2/5/38 3/12/39
f 13/11/40 4/13/41 15/7/42
f 4/13/43 5/16/44 6/8/45 15/7/46
f 14/6/47 12/10/48 10/14/49
f 7/9/50 16/3/51 12/10/52
f 8/1/53 16/3/54 7/9/55
f 24/17/56 32/18/57 25/19/58
f 17/20/59 30/21/60 18/22/61
f 31/23/62 23/24/63 22/25/64
f 23/24/65 29/26/66 28/27/67
f 29/26/68 23/24/69 31/23/70
f 28/27/71 18/22/72 30/21/73
f 18/22/74 28/27/75 29/26/76
f 19/28/77 29/26/78 20/29/79
f 28/27/80 25/19/81 32/18/82
f 25/19/83 28/27/84 26/30/85
f 30/21/86 27/31/87 26/30/88
f 17/20/89 27/31/90 30/21/91
f 29/26/92 19/28/93 18/22/94
f 29/26/95 31/23/96 20/29/97
f 20/29/98 31/23/99 22/25/100 21/32/101
f 30/21/102 26/30/103 28/27/104
f 23/24/105 28/27/106 32/18/107
f 24/17/108 23/24/109 32/18/110
f 40/33/111 45/34/112 39/35/113
f 39/35/114 45/34/115 38/36/116
f 44/37/117 41/38/118 43/39/119
f 43/39/120 41/38/121 42/40/122
f 41/38/123 44/37/124 40/33/125
f 40/33/126 44/37/127 45/34/128
f 33/41/129 34/42/130 47/43/131
f 36/44/132 46/45/133 35/46/134
f 46/45/135 47/43/136 35/46/137
f 47/43/138 34/42/139 35/46/140
f 37/47/141 46/45/142 36/44/143
f 45/34/144 46/45/145 38/36/146
f 38/36/147 46/45/148 37/47/149
f 44/37/150 47/43/151 48/48/152
f 46/45/153 48/48/154 47/43/155
f 33/41/156 47/43/157 43/39/158
f 43/39/159 47/43/160 44/37/161
f 45/34/162 48/48/163 46/45/164
f 44/37/165 48/48/166 45/34/167
f 56/49/168 55/50/169 61/51/170
f 55/50/171 54/52/172 61/51/173
f 60/53/174 59/54/175 57/55/176
f 59/54/177 58/56/178 57/55/179
f 57/55/180 56/49/181 60/53/182
f 56/49/183 61/51/184 60/53/185
f 49/57/186 63/58/187 50/59/188
f 52/60/189 51/61/190 62/62/191
f 62/62/192 51/61/193 63/58/194
f 63/58/195 51/61/196 50/59/197
f 53/63/198 52/60/199 62/62/200
f 61/51/201 54/52/202 62/62/203
f 54/52/204 53/63/205 62/62/206
f 60/53/207 64/64/208 63/58/209
f 62/62/210 63/58/211 64/64/212
f 49/57/213 59/54/214 63/58/215
f 59/54/216 60/53/217 63/58/218
f 61/51/219 62/62/220 64/64/221
f 60/53/222 61/51/223 64/64/224
f 72/65/225 73/66/226 80/67/227
f 65/68/228 66/69/229 78/70/230
f 79/71/231 70/72/232 71/73/233
f 71/73/234 76/74/235 77/75/236
f 77/75/237 79/71/238 71/73/239
f 76/74/240 78/70/241 66/69/242
f 66/69/243 77/75/244 76/74/245
f 67/76/246 68/77/247 77/75/248
f 76/74/249 80/67/250 73/66/251
f 73/66/252 74/78/253 76/74/254
f 78/70/255 74/78/256 75/79/257
f 65/68/258 78/70/259 75/79/260
f 77/75/261 66/69/262 67/76/263
f 77/75/264 68/77/265 79/71/266
f 68/77/267 69/80/268 70/72/269 79/71/270
f 78/70/271 76/74/272 74/78/273
f 71/73/274 80/67/275 76/74/276
f 72/65/277 80/67/278 71/73/279
f 88/81/280 96/82/281 89/83/282
f 81/84/283 94/85/284 82/86/285
f 95/87/286 87/88/287 86/89/288
f 87/88/289 93/90/290 92/91/291
f 93/90/292 87/88/293 95/87/294
f 92/91/295 82/86/296 94/85/297
f 82/86/298 92/91/299 93/90/300
f 83/92/301 93/90/302 84/93/303
f 92/91/304 89/83/305 96/82/306
f 89/83/307 92/91/308 90/94/309
f 94/85/310 91/95/311 90/94/312
f 81/84/313 91/95/314 94/85/315
f 93/90/316 83/92/317 82/86/318
f 93/90/319 95/87/320 84/93/321
f 84/93/322 95/87/323 86/89/324 85/96/325
f 94/85/326 90/94/327 92/91/328
f 87/88/329 92/91/330 96/82/331
f 88/81/332 87/88/333 96/82/334
