# This file uses centimeters as units for non-parametric coordinates.

v 39.853760 -16.013866 -26.439087
v 35.822754 -16.215090 20.802124
v 43.112061 13.246065 -23.241333
v 39.604980 13.070204 18.043457
v 91.040283 12.826205 -20.398682
v 87.689209 12.650351 20.886108
v 95.413330 -16.494278 -23.186035
v 91.533447 -16.695513 24.055176
v 75.476563 18.286209 -26.808350
v 60.670654 18.066418 24.473511
v 60.353027 -16.455338 28.160034
v 75.996582 -16.203835 -30.566406
v -20.167480 -16.813589 22.089844
v -31.426270 -16.813589 -21.054077
v -30.739746 13.407119 14.579102
v -35.460205 13.407119 -13.427124
v -91.379639 13.407119 19.709839
v -91.379639 13.407119 -21.769165
v -95.413330 -16.813589 22.701904
v -95.413330 -16.813589 -24.761230
v -60.497803 13.407119 24.890991
v -72.875488 13.407119 -28.066895
v -72.453857 -16.813589 -37.599487
v -60.075928 -16.813589 28.630615
v -46.276611 -15.881353 90.303101
v -0.547363 -15.881353 93.828369
v -43.127930 12.474867 86.760010
v -3.164307 12.474867 89.841187
v -50.875244 12.474867 26.289429
v -2.623535 12.474867 29.370361
v -54.035156 -15.881353 22.302124
v 1.178223 -15.881353 25.827393
v -60.794678 12.474867 61.514526
v 2.139893 12.474867 65.365234
v 6.644775 -15.881353 66.036499
v -65.369629 -15.881353 61.630249
v -10.853027 -18.286209 21.189209
v 30.208740 -17.973503 19.497070
v -7.854492 9.288464 18.084961
v 23.182617 9.561763 16.585205
v -20.048096 14.360847 -25.002808
v 23.917480 14.634132 -26.334595
v -23.339844 -14.720563 -31.422729
v 26.927490 -14.407848 -32.946655
v -29.863525 12.605846 -8.087891
v 30.896973 12.947395 1.014282
v 39.272217 -16.337929 0.683594
v -41.619873 -16.728777 -8.177856
v 67.964844 -16.813589 -32.706055
v 69.828613 -16.813589 -82.752197
v 63.958496 13.407119 -36.012817
v 65.587402 13.407119 -79.749512
v 6.794434 13.407119 -44.995239
v 8.423340 13.407119 -81.856323
v 2.553223 -16.813589 -38.091553
v 4.416992 -16.813589 -85.163574
v 38.160156 13.407119 -29.760132
v 35.377441 13.407119 -88.763428
v 35.955322 -16.813589 -92.690918
v 38.444092 -16.813589 -20.658936
v 0.507080 -14.363132 -33.912964
v -0.211426 -14.064037 -87.344482
v -4.113770 13.781037 -37.235718
v -4.741455 14.042423 -83.662354
v -60.190186 10.959631 -46.200439
v -57.288574 11.145575 -82.771973
v -62.969482 -17.677929 -28.735840
v -60.339844 -17.378830 -86.325684
v -30.911133 17.657494 -26.613525
v -33.988281 17.984182 -89.328369
v -32.864014 -15.510854 -93.828369
v -29.673584 -15.884675 -22.358643
v -46.252197 14.086413 -29.552002
v -60.648682 4.709652 -31.441040
vt 0.284160 0.248510
vt 0.284152 0.248390
vt 0.284167 0.248357
vt 0.284175 0.248461
vt 0.283226 0.271607
vt 0.283199 0.271470
vt 0.283278 0.271489
vt 0.283275 0.271596
vt 0.284369 0.248458
vt 0.284355 0.248354
vt 0.284364 0.248386
vt 0.284380 0.248506
vt 0.284251 0.248333
vt 0.284245 0.248374
vt 0.284303 0.248523
vt 0.284307 0.248463
vt 0.283128 0.271589
vt 0.283132 0.271482
vt 0.284055 0.225899
vt 0.284054 0.225795
vt 0.284067 0.225770
vt 0.284068 0.225850
vt 0.283120 0.248985
vt 0.283160 0.248856
vt 0.283205 0.248875
vt 0.283199 0.248978
vt 0.284248 0.225849
vt 0.284242 0.225754
vt 0.284252 0.225789
vt 0.284259 0.225898
vt 0.284183 0.225740
vt 0.284179 0.225761
vt 0.284147 0.225913
vt 0.284149 0.225862
vt 0.283058 0.248968
vt 0.283064 0.248882
vt 0.283955 0.248544
vt 0.283946 0.248400
vt 0.283958 0.248369
vt 0.283967 0.248494
vt 0.283027 0.271624
vt 0.283029 0.271465
vt 0.283102 0.271479
vt 0.283102 0.271607
vt 0.284144 0.248482
vt 0.284129 0.248357
vt 0.284139 0.248387
vt 0.284156 0.248529
vt 0.284034 0.248349
vt 0.284031 0.248377
vt 0.284047 0.248556
vt 0.284048 0.248505
vt 0.282967 0.271609
vt 0.282969 0.271481
vt 0.284058 0.248270
vt 0.284054 0.248376
vt 0.284042 0.248322
vt 0.284047 0.248240
vt 0.282972 0.271323
vt 0.282969 0.271450
vt 0.282888 0.271426
vt 0.282901 0.271318
vt 0.283861 0.248220
vt 0.283851 0.248319
vt 0.283827 0.248366
vt 0.283839 0.248252
vt 0.283956 0.248339
vt 0.283955 0.248399
vt 0.283950 0.248236
vt 0.283949 0.248222
vt 0.283049 0.271343
vt 0.283038 0.271432
vt 0.283747 0.225773
vt 0.283750 0.225666
vt 0.283760 0.225630
vt 0.283757 0.225723
vt 0.282883 0.248832
vt 0.282889 0.248694
vt 0.282967 0.248710
vt 0.282964 0.248800
vt 0.283935 0.225703
vt 0.283932 0.225625
vt 0.283945 0.225660
vt 0.283949 0.225760
vt 0.283837 0.225617
vt 0.283838 0.225650
vt 0.283837 0.225799
vt 0.283837 0.225737
vt 0.282820 0.248812
vt 0.282825 0.248705
vt 0.283955 0.248244
vt 0.283959 0.248125
vt 0.283972 0.248095
vt 0.283969 0.248199
vt 0.283047 0.271319
vt 0.283059 0.271171
vt 0.283130 0.271195
vt 0.283121 0.271296
vt 0.283085 0.271316
vt 0.284134 0.248216
vt 0.284132 0.248191
vt 0.284130 0.248102
vt 0.284138 0.248133
vt 0.284140 0.248252
vt 0.284043 0.248076
vt 0.284039 0.248114
vt 0.284038 0.248263
vt 0.284042 0.248206
vt 0.284089 0.248206
vt 0.282989 0.271301
vt 0.283000 0.271182
vn -0.989286 0.119597 -0.083729
vn -0.989286 0.119597 -0.083729
vn -0.989286 0.119597 -0.083729
vn -0.989286 0.119597 -0.083729
vn 0.243899 0.968407 0.051980
vn 0.243899 0.968407 0.051980
vn 0.243899 0.968407 0.051980
vn 0.243899 0.968407 0.051980
vn 0.986989 0.138774 0.081210
vn 0.986989 0.138774 0.081210
vn 0.986989 0.138774 0.081210
vn 0.986989 0.138774 0.081210
vn 0.141007 0.113355 0.983498
vn 0.141007 0.113355 0.983498
vn 0.141007 0.113355 0.983498
vn 0.141007 0.113355 0.983498
vn 0.381423 0.123223 -0.916151
vn 0.381423 0.123223 -0.916151
vn 0.381423 0.123223 -0.916151
vn 0.381423 0.123223 -0.916151
vn -0.182862 0.982618 -0.031977
vn -0.182862 0.982618 -0.031977
vn -0.182862 0.982618 -0.031977
vn -0.182862 0.982618 -0.031977
vn -0.298494 0.114884 0.947472
vn -0.298494 0.114884 0.947472
vn -0.298494 0.114884 0.947472
vn -0.298494 0.114884 0.947472
vn -0.118780 0.112740 -0.986499
vn -0.118779 0.112740 -0.986499
vn -0.118780 0.112740 -0.986499
vn -0.118780 0.112740 -0.986499
vn 0.949566 0.229881 -0.213258
vn 0.949566 0.229881 -0.213258
vn 0.949566 0.229881 -0.213258
vn 0.949566 0.229881 -0.213258
vn 0.000000 1.000000 0.000000
vn 0.000000 1.000000 0.000000
vn 0.000000 1.000000 0.000000
vn 0.000000 1.000000 0.000000
vn -0.991210 0.132301 0.000000
vn -0.991210 0.132301 0.000000
vn -0.991210 0.132301 0.000000
vn -0.991210 0.132301 0.000000
vn -0.409829 0.208506 -0.888012
vn -0.409829 0.208506 -0.888012
vn -0.409829 0.208506 -0.888012
vn -0.409829 0.208506 -0.888012
vn -0.164288 0.118879 0.979223
vn -0.164288 0.118879 0.979223
vn -0.164288 0.118879 0.979223
vn -0.164288 0.118879 0.979223
vn 0.000000 1.000000 0.000000
vn 0.000000 1.000000 0.000000
vn 0.000000 1.000000 0.000000
vn 0.000000 1.000000 0.000000
vn 0.354711 0.279457 -0.892235
vn 0.354711 0.279457 -0.892235
vn 0.354711 0.279457 -0.892235
vn 0.354711 0.279457 -0.892235
vn 0.229453 0.218292 0.948525
vn 0.229453 0.218292 0.948525
vn 0.229453 0.218292 0.948525
vn 0.229453 0.218292 0.948525
vn -0.076194 0.131944 0.988324
vn -0.076194 0.131944 0.988324
vn -0.076194 0.131944 0.988324
vn -0.076194 0.131944 0.988324
vn 0.000000 1.000000 0.000000
vn 0.000000 1.000000 0.000000
vn 0.000000 1.000000 0.000000
vn 0.000000 1.000000 0.000000
vn 0.063162 0.132064 -0.989227
vn 0.063162 0.132064 -0.989227
vn 0.063162 0.132064 -0.989227
vn 0.063162 0.132064 -0.989227
vn 0.979868 0.150182 -0.131542
vn 0.979869 0.150182 -0.131542
vn 0.979868 0.150182 -0.131542
vn 0.979868 0.150182 -0.131542
vn -0.951061 0.148222 -0.271132
vn -0.951061 0.148222 -0.271132
vn -0.951061 0.148222 -0.271132
vn -0.951061 0.148222 -0.271132
vn 0.000000 1.000000 0.000000
vn 0.000000 1.000000 0.000000
vn 0.000000 1.000000 0.000000
vn 0.000000 1.000000 0.000000
vn 0.963032 0.139848 0.230244
vn 0.963032 0.139848 0.230244
vn 0.963032 0.139848 0.230244
vn 0.963032 0.139848 0.230244
vn -0.817241 0.147245 0.557168
vn -0.817241 0.147245 0.557168
vn -0.817241 0.147245 0.557168
vn -0.817241 0.147245 0.557168
vn 0.043047 0.111529 0.992828
vn 0.043047 0.111529 0.992828
vn 0.043047 0.111529 0.992828
vn 0.043047 0.111529 0.992828
vn -0.011550 0.996981 0.076780
vn -0.011550 0.996981 0.076780
vn -0.011550 0.996981 0.076780
vn -0.011550 0.996981 0.076780
vn -0.030916 0.218819 -0.975276
vn -0.030916 0.218819 -0.975276
vn -0.030916 0.218819 -0.975276
vn -0.030916 0.218819 -0.975276
vn 0.934371 0.216105 -0.283283
vn 0.934371 0.216105 -0.283283
vn 0.934371 0.216105 -0.283283
vn 0.934371 0.216105 -0.283283
vn -0.801375 0.266134 -0.535697
vn -0.801375 0.266134 -0.535697
vn -0.801375 0.266134 -0.535697
vn -0.801375 0.266134 -0.535697
vn -0.020293 0.986038 0.165282
vn -0.020293 0.986038 0.165282
vn -0.020293 0.986038 0.165282
vn -0.020293 0.986038 0.165282
vn 0.854624 0.252265 0.453851
vn 0.854624 0.252265 0.453851
vn 0.854624 0.252265 0.453851
vn 0.854624 0.252265 0.453851
vn -0.698035 0.217121 0.682353
vn -0.698035 0.217121 0.682353
vn -0.698035 0.217121 0.682353
vn -0.698035 0.217121 0.682353
vn 0.990119 0.135293 0.036874
vn 0.990119 0.135293 0.036874
vn 0.990119 0.135293 0.036874
vn 0.990119 0.135293 0.036874
vn 0.000000 1.000000 0.000000
vn 0.000000 1.000000 0.000000
vn 0.000000 1.000000 0.000000
vn 0.000000 1.000000 0.000000
vn -0.990302 0.132680 -0.041209
vn -0.990302 0.132680 -0.041209
vn -0.990302 0.132680 -0.041209
vn -0.990302 0.132680 -0.041209
vn -0.237594 0.128723 -0.962798
vn -0.237594 0.128723 -0.962798
vn -0.237594 0.128723 -0.962798
vn -0.237594 0.128723 -0.962798
vn -0.422141 0.257778 0.869107
vn -0.422141 0.257778 0.869107
vn -0.422141 0.257778 0.869107
vn -0.422141 0.257778 0.869107
vn 0.000000 1.000000 0.000000
vn 0.000000 1.000000 0.000000
vn 0.000000 1.000000 0.000000
vn 0.000000 1.000000 0.000000
vn 0.281147 0.131414 -0.950624
vn 0.281147 0.131414 -0.950624
vn 0.281147 0.131414 -0.950624
vn 0.281147 0.131414 -0.950624
vn 0.306911 0.212246 0.927770
vn 0.306911 0.212246 0.927770
vn 0.306911 0.212246 0.927770
vn 0.306911 0.212246 0.927770
vn 0.986936 0.160634 -0.012403
vn 0.986936 0.160634 -0.012403
vn 0.986936 0.160634 -0.012403
vn 0.986936 0.160634 -0.012403
vn -0.248893 0.968515 0.005650
vn -0.248893 0.968515 0.005650
vn -0.248893 0.968515 0.005650
vn -0.248893 0.968515 0.005650
vn -0.248893 0.968514 0.005650
vn -0.994734 0.089170 -0.050521
vn -0.994734 0.089170 -0.050521
vn -0.994734 0.089170 -0.050521
vn -0.994734 0.089170 -0.050521
vn -0.994734 0.089170 -0.050521
vn -0.285484 0.132135 -0.949231
vn -0.285484 0.132135 -0.949231
vn -0.285484 0.132135 -0.949231
vn -0.285484 0.132135 -0.949231
vn -0.202652 0.125526 0.971172
vn -0.202652 0.125526 0.971172
vn -0.202652 0.125526 0.971172
vn -0.202652 0.125526 0.971172
vn -0.202652 0.125526 0.971172
vn 0.138219 0.990402 0.000645
vn 0.138219 0.990402 0.000645
vn 0.138219 0.990402 0.000645
vn 0.138219 0.990402 0.000645
vn 0.196217 0.146784 -0.969512
vn 0.196217 0.146784 -0.969512
vn 0.196217 0.146784 -0.969512
vn 0.196217 0.146784 -0.969512
vn 0.364028 0.147540 0.919628
vn 0.364028 0.147540 0.919628
vn 0.364028 0.147540 0.919628
vn 0.364028 0.147540 0.919628
vn -0.546932 0.776873 0.311982
vn -0.546932 0.776873 0.311982
vn -0.546932 0.776873 0.311982
s off
f 1/1/1 2/2/2 4/3/3 3/4/4
f 9/5/5 10/6/6 6/7/7 5/8/8
f 5/9/9 6/10/10 8/11/11 7/12/12
f 10/13/13 11/14/14 8/11/15 6/10/16
f 7/12/17 12/15/18 9/16/19 5/9/20
f 3/17/21 4/18/22 10/6/23 9/5/24
f 2/2/25 11/14/26 10/13/27 4/3/28
f 9/16/29 12/15/30 1/1/31 3/4/32
f 13/19/33 14/20/34 16/21/35 15/22/36
f 21/23/37 22/24/38 18/25/39 17/26/40
f 17/27/41 18/28/42 20/29/43 19/30/44
f 22/31/45 23/32/46 20/29/47 18/28/48
f 19/30/49 24/33/50 21/34/51 17/27/52
f 15/35/53 16/36/54 22/24/55 21/23/56
f 14/20/57 23/32/58 22/31/59 16/21/60
f 21/34/61 24/33/62 13/19/63 15/22/64
f 25/37/65 26/38/66 28/39/67 27/40/68
f 33/41/69 34/42/70 30/43/71 29/44/72
f 29/45/73 30/46/74 32/47/75 31/48/76
f 34/49/77 35/50/78 32/47/79 30/46/80
f 31/48/81 36/51/82 33/52/83 29/45/84
f 27/53/85 28/54/86 34/42/87 33/41/88
f 26/38/89 35/50/90 34/49/91 28/39/92
f 33/52/93 36/51/94 25/37/95 27/40/96
f 37/55/97 38/56/98 40/57/99 39/58/100
f 45/59/101 46/60/102 42/61/103 41/62/104
f 41/63/105 42/64/106 44/65/107 43/66/108
f 46/67/109 47/68/110 44/65/111 42/64/112
f 43/66/113 48/69/114 45/70/115 41/63/116
f 39/71/117 40/72/118 46/60/119 45/59/120
f 38/56/121 47/68/122 46/67/123 40/57/124
f 45/70/125 48/69/126 37/55/127 39/58/128
f 49/73/129 50/74/130 52/75/131 51/76/132
f 57/77/133 58/78/134 54/79/135 53/80/136
f 53/81/137 54/82/138 56/83/139 55/84/140
f 58/85/141 59/86/142 56/83/143 54/82/144
f 55/84/145 60/87/146 57/88/147 53/81/148
f 51/89/149 52/90/150 58/78/151 57/77/152
f 50/74/153 59/86/154 58/85/155 52/75/156
f 57/88/157 60/87/158 49/73/159 51/76/160
f 61/91/161 62/92/162 64/93/163 63/94/164
f 69/95/165 70/96/166 66/97/167 65/98/168 73/99/169
f 74/100/170 65/101/171 66/102/172 68/103/173 67/104/174
f 70/105/175 71/106/176 68/103/177 66/102/178
f 67/104/179 72/107/180 69/108/181 73/109/182 74/100/183
f 63/110/184 64/111/185 70/96/186 69/95/187
f 62/92/188 71/106/189 70/105/190 64/93/191
f 69/108/192 72/107/193 61/91/194 63/94/195
f 74/100/196 73/109/197 65/101/198
