# This file uses centimeters as units for non-parametric coordinates.

v -23.313339 29.908356 -34.639664
v -20.406948 -0.925415 26.346859
v 18.933113 0.343353 24.580404
v 16.993814 6.486763 -19.465076
v -31.169048 53.457520 -18.679979
v -29.864561 141.720673 -18.679979
v -6.405073 206.146652 -18.679987
v 14.486474 188.056305 24.197489
v -18.308254 193.198364 22.302364
v -21.646950 212.273621 -22.396797
v -19.471502 126.006248 -31.263981
v -18.872236 131.936035 18.504532
v 26.081896 138.412811 -7.888275
v 14.914431 52.575409 -21.979769
v -23.670719 36.738022 20.539822
v 12.802691 95.889488 21.818928
v -18.071749 108.168106 26.277439
v -23.010366 110.154999 -13.329304
v -20.202166 182.586823 -2.402485
v -18.985945 171.125931 10.209871
v -17.704044 138.675262 23.840349
v -22.354973 136.086853 6.185444
v 8.898336 29.025505 -27.758202
v 21.741394 42.185585 -26.093681
v 18.568342 73.699921 -23.385468
v 24.875561 92.662071 -22.723869
v 20.681665 127.915794 -22.723877
v 13.664661 136.572266 -22.723869
v 13.032568 148.411957 -22.723877
v -4.883177 158.586151 -22.723906
v -13.522671 134.366226 -22.723885
v -10.268610 88.118073 -22.723877
v -2.544016 42.955315 -26.177691
v 8.187218 46.233444 -27.997360
v 6.941387 79.368538 -24.992249
v 5.017588 97.265671 -23.476830
v 0.513710 128.412933 -24.338959
v 0.234413 10.403366 29.098999
v 20.366716 35.336052 25.346039
v 16.172905 67.828049 22.678255
v -12.140245 77.859512 22.678253
v -20.104570 65.603043 22.856348
v -8.478222 45.725792 25.674427
v -6.569658 17.486794 29.098999
v 2.427097 58.595108 26.788256
v 6.432432 40.181679 29.757851
v 21.189590 110.103630 22.272770
v 21.189575 138.718765 -7.919407
v -5.734859 109.324829 20.711258
v -12.291065 137.256805 22.695381
v -7.970989 147.571198 22.695381
v -15.889488 163.281067 22.695381
v 5.275465 178.816360 22.695381
v 21.189587 171.530365 17.313791
v 21.189526 173.657303 -20.423933
v 6.218202 119.851944 22.333269
v 24.319672 155.031342 -0.095251
v 5.620909 155.608719 24.452576
v 26.462015 138.744171 19.313007
v -21.667324 84.386238 12.370216
v -22.392670 53.477066 7.034021
v -24.224995 70.965370 -6.446163
v -19.741526 64.000534 26.538044
v -25.247047 68.851593 10.080773
v 20.272366 137.339127 19.352303
v 19.822330 122.966522 20.802942
v 20.611431 77.388901 17.360971
v 19.057955 44.701706 21.660542
v 14.467861 143.403244 -23.337234
v 17.512688 173.828262 -22.522913
v 18.333447 201.342361 -18.679972
v 23.079245 49.757622 -12.481405
vt 0.262937 0.493334
vt 0.351804 0.369049
vt 0.456080 0.537995
vt 0.530121 0.383131
vt 0.146482 0.352834
vt 0.157173 0.506207
vt 0.007496 0.341858
vt 0.035620 0.553963
vt 0.015190 0.101272
vt 0.123342 0.020858
vt 0.129869 0.114501
vt 0.482011 0.018527
vt 0.433355 0.149509
vt 0.304737 0.024034
vt 0.554721 0.163509
vt 0.264647 0.269083
vt 0.657318 0.823918
vt 0.461855 0.836427
vt 0.535392 0.790797
vt 0.466868 0.720721
vt 0.629825 0.787477
vt 0.547508 0.734311
vt 0.433170 0.546584
vt 0.387198 0.545853
vt 0.398481 0.515011
vt 0.086572 0.572208
vt 0.114476 0.524754
vt 0.167400 0.559007
vt 0.146133 0.523543
vt 0.314272 0.514759
vt 0.298681 0.544119
vt 0.263894 0.495364
vt 0.250794 0.548231
vt 0.169542 0.505146
vt 0.395586 0.570484
vt 0.274616 0.589438
vt 0.150929 0.596266
vt 0.585700 0.358733
vt 0.570506 0.279169
vt 0.619884 0.345786
vt 0.614397 0.432601
vt 0.577049 0.407932
vt 0.538747 0.459404
vt 0.550302 0.373546
vt 0.517800 0.426656
vt 0.555989 0.298095
vt 0.702077 0.044164
vt 0.630169 0.098727
vt 0.635022 0.044160
vt 0.572743 0.097688
vt 0.584307 0.037977
vt 0.481763 0.030554
vt 0.517917 0.032788
vt 0.514576 0.089657
vt 0.548893 0.142064
vt 0.608102 0.140373
vt 0.519843 0.000000
vt 0.625245 0.000000
vt 0.537722 0.102300
vt 0.745962 0.809442
vt 0.791223 0.796563
vt 0.753265 0.850683
vt 0.702851 0.815053
vt 0.738968 0.768625
vt 0.275068 0.366361
vt 0.277789 0.333131
vt 0.287148 0.222872
vt 0.294968 0.138471
vt 0.410162 0.373657
vt 0.402343 0.450932
vt 0.395597 0.520040
vt 0.395303 0.145569
vn 0.991710 0.126231 0.024039
vn 0.991710 0.126231 0.024039
vn 0.991710 0.126231 0.024039
vn 0.991710 0.126231 0.024039
vn 0.787965 -0.062462 -0.612544
vn 0.787965 -0.062462 -0.612544
vn 0.787965 -0.062462 -0.612544
vn -0.998124 0.061061 0.004439
vn -0.998124 0.061061 0.004439
vn -0.998124 0.061061 0.004439
vn -0.992066 -0.037356 0.120037
vn -0.992066 -0.037356 0.120037
vn -0.992066 -0.037356 0.120037
vn -0.073696 -0.057194 0.995639
vn -0.073696 -0.057194 0.995639
vn -0.073696 -0.057194 0.995639
vn 0.977598 0.093512 0.188566
vn 0.977598 0.093512 0.188566
vn 0.977598 0.093512 0.188566
vn -0.988205 -0.146227 -0.045488
vn -0.988205 -0.146227 -0.045488
vn -0.988205 -0.146227 -0.045488
vn 0.752749 -0.095276 -0.651376
vn 0.752749 -0.095276 -0.651376
vn 0.752749 -0.095276 -0.651376
vn 0.042964 0.045815 0.998026
vn 0.042964 0.045815 0.998026
vn 0.042964 0.045815 0.998026
vn -0.061130 -0.112096 -0.991815
vn -0.061130 -0.112096 -0.991815
vn -0.061130 -0.112096 -0.991815
vn 0.797122 -0.013659 -0.603663
vn 0.797122 -0.013659 -0.603663
vn 0.797122 -0.013659 -0.603663
vn -0.059324 0.000877 -0.998238
vn -0.059324 0.000877 -0.998238
vn -0.059324 0.000877 -0.998238
vn -0.132980 -0.025752 0.990784
vn -0.132980 -0.025752 0.990784
vn -0.132980 -0.025752 0.990784
vn -0.997775 -0.006400 -0.066363
vn -0.997775 -0.006400 -0.066363
vn -0.997775 -0.006400 -0.066363
vn -0.999355 0.035141 0.007343
vn -0.999355 0.035141 0.007343
vn -0.999355 0.035141 0.007343
vn 0.769949 -0.004542 -0.638089
vn 0.769949 -0.004542 -0.638089
vn 0.769949 -0.004542 -0.638089
vn 0.981332 -0.055825 0.184043
vn 0.981332 -0.055825 0.184043
vn 0.981332 -0.055825 0.184043
vn -0.998862 0.042106 -0.022406
vn -0.998862 0.042106 -0.022406
vn -0.998862 0.042106 -0.022406
vn -0.992070 -0.058600 0.111188
vn -0.992070 -0.058600 0.111188
vn -0.992070 -0.058600 0.111188
vn -0.975861 0.070073 0.206844
vn -0.975861 0.070073 0.206844
vn -0.975861 0.070073 0.206844
vn -0.976818 0.028720 0.212137
vn -0.976818 0.028720 0.212137
vn -0.976818 0.028720 0.212137
vn -0.983596 0.075771 0.163703
vn -0.983596 0.075771 0.163703
vn -0.983596 0.075771 0.163703
vn 0.104679 -0.092424 -0.990202
vn 0.104679 -0.092424 -0.990202
vn 0.104679 -0.092424 -0.990202
vn 0.033756 0.059439 -0.997661
vn 0.033756 0.059439 -0.997661
vn 0.033756 0.059439 -0.997661
vn 0.118041 0.006301 -0.992989
vn 0.118041 0.006301 -0.992989
vn 0.118041 0.006301 -0.992989
vn 0.137537 0.001666 -0.990495
vn 0.137537 0.001666 -0.990495
vn 0.137537 0.001666 -0.990495
vn 0.170721 -0.012201 -0.985244
vn 0.170721 -0.012201 -0.985244
vn 0.170721 -0.012201 -0.985244
vn 0.149241 -0.054884 -0.987277
vn 0.149241 -0.054884 -0.987277
vn 0.149241 -0.054884 -0.987277
vn 0.054990 0.074345 -0.995715
vn 0.054990 0.074345 -0.995715
vn 0.054990 0.074345 -0.995715
vn 0.038963 0.004635 -0.999230
vn 0.038963 0.004635 -0.999230
vn 0.038963 0.004635 -0.999230
vn 0.079421 -0.016104 -0.996711
vn 0.079421 -0.016104 -0.996711
vn 0.079421 -0.016104 -0.996711
vn 0.081266 0.065876 -0.994513
vn 0.081266 0.065876 -0.994513
vn 0.081266 0.065876 -0.994513
vn -0.139708 -0.091831 -0.985925
vn -0.139708 -0.091831 -0.985925
vn -0.139708 -0.091831 -0.985925
vn -0.168664 -0.010683 -0.985616
vn -0.168664 -0.010683 -0.985616
vn -0.168664 -0.010683 -0.985616
vn -0.126557 -0.021792 -0.991720
vn -0.126557 -0.021792 -0.991720
vn -0.126557 -0.021792 -0.991720
vn -0.084966 0.060118 -0.994569
vn -0.084966 0.060118 -0.994569
vn -0.084966 0.060118 -0.994569
vn -0.133726 -0.046737 -0.989916
vn -0.133726 -0.046737 -0.989916
vn -0.133726 -0.046737 -0.989916
vn -0.047214 -0.003322 -0.998879
vn -0.047214 -0.003322 -0.998879
vn -0.047214 -0.003322 -0.998879
vn -0.099385 0.035451 -0.994417
vn -0.099385 0.035451 -0.994417
vn -0.099385 0.035451 -0.994417
vn 0.195751 -0.145093 0.969861
vn 0.195751 -0.145093 0.969861
vn 0.195751 -0.145093 0.969861
vn 0.177196 0.011199 0.984112
vn 0.177196 0.011199 0.984112
vn 0.177196 0.011199 0.984112
vn 0.279320 0.084708 0.956454
vn 0.279320 0.084708 0.956454
vn 0.279320 0.084708 0.956454
vn 0.064263 0.181380 0.981311
vn 0.064263 0.181380 0.981311
vn 0.064263 0.181380 0.981311
vn -0.144473 -0.088413 0.985551
vn -0.144473 -0.088413 0.985551
vn -0.144473 -0.088413 0.985551
vn -0.097694 0.062490 0.993253
vn -0.097694 0.062490 0.993253
vn -0.097694 0.062490 0.993253
vn -0.244945 -0.006992 0.969512
vn -0.244945 -0.006992 0.969512
vn -0.244945 -0.006992 0.969512
vn -0.114711 -0.087988 0.989495
vn -0.114711 -0.087988 0.989495
vn -0.114711 -0.087988 0.989495
vn -0.249558 -0.018811 0.968177
vn -0.249558 -0.018811 0.968177
vn -0.249558 -0.018811 0.968177
vn 0.984295 0.176254 0.009932
vn 0.984295 0.176254 0.009932
vn 0.984295 0.176254 0.009932
vn 0.391435 0.210749 0.895747
vn 0.391435 0.210749 0.895747
vn 0.391435 0.210749 0.895747
vn 0.986434 0.162486 0.023365
vn 0.986434 0.162486 0.023365
vn 0.986434 0.162486 0.023365
vn -0.060281 -0.084798 0.994573
vn -0.060281 -0.084798 0.994573
vn -0.060281 -0.084798 0.994573
vn -0.054740 0.074577 0.995712
vn -0.054740 0.074577 0.995712
vn -0.054740 0.074577 0.995712
vn 0.507556 0.072562 0.858558
vn 0.507556 0.072562 0.858558
vn 0.507556 0.072562 0.858558
vn -0.055045 -0.090709 0.994355
vn -0.055045 -0.090709 0.994355
vn -0.055045 -0.090709 0.994355
vn 0.979855 -0.107196 -0.168505
vn 0.979855 -0.107196 -0.168505
vn 0.979855 -0.107196 -0.168505
vn 0.971647 -0.079670 -0.222608
vn 0.971647 -0.079670 -0.222608
vn 0.971647 -0.079670 -0.222608
vn -0.098982 -0.049892 0.993838
vn -0.098982 -0.049892 0.993838
vn -0.098982 -0.049892 0.993838
vn -0.168938 0.070758 0.983084
vn -0.168938 0.070758 0.983084
vn -0.168938 0.070758 0.983084
vn 0.197110 -0.054724 0.978853
vn 0.197110 -0.054724 0.978853
vn 0.197110 -0.054724 0.978853
vn -0.036657 -0.059737 0.997541
vn -0.036657 -0.059737 0.997541
vn -0.036657 -0.059737 0.997541
vn 0.966605 -0.195113 -0.166152
vn 0.966605 -0.195113 -0.166152
vn 0.966605 -0.195113 -0.166152
vn 0.063302 0.091051 0.993832
vn 0.063302 0.091051 0.993832
vn 0.063302 0.091051 0.993832
vn -0.921004 0.159878 0.355234
vn -0.921004 0.159878 0.355234
vn -0.921004 0.159878 0.355234
vn -0.972990 0.228767 -0.030912
vn -0.972990 0.228767 -0.030912
vn -0.972990 0.228767 -0.030912
vn -0.982677 -0.166185 -0.082025
vn -0.982677 -0.166185 -0.082025
vn -0.982677 -0.166185 -0.082025
vn -0.942158 -0.224277 0.249075
vn -0.942158 -0.224277 0.249075
vn -0.942158 -0.224277 0.249075
vn -0.008301 -0.096036 0.995343
vn -0.008301 -0.096036 0.995343
vn -0.008301 -0.096036 0.995343
vn 0.040743 0.052037 0.997814
vn 0.040743 0.052037 0.997814
vn 0.040743 0.052037 0.997814
vn 0.040743 0.052037 0.997814
vn 0.653175 -0.045770 0.755823
vn 0.653175 -0.045770 0.755823
vn 0.653175 -0.045770 0.755823
vn 0.109712 -0.075973 0.991056
vn 0.109712 -0.075973 0.991056
vn 0.109712 -0.075973 0.991056
vn 0.109712 -0.075973 0.991056
vn -0.035681 -0.033961 0.998786
vn -0.035681 -0.033961 0.998786
vn -0.035681 -0.033961 0.998786
vn -0.103657 -0.021247 -0.994386
vn -0.103657 -0.021247 -0.994386
vn -0.103657 -0.021247 -0.994386
vn -0.106550 0.038303 -0.993569
vn -0.106550 0.038303 -0.993569
vn -0.106550 0.038303 -0.993569
vn -0.106550 0.038303 -0.993569
vn 0.026703 0.137498 -0.990142
vn 0.026703 0.137498 -0.990142
vn 0.026703 0.137498 -0.990142
vn 0.989918 -0.031613 0.138071
vn 0.989918 -0.031613 0.138071
vn 0.989918 -0.031613 0.138071
vn 0.989918 -0.031613 0.138071
vn 0.992370 -0.061457 0.106888
vn 0.992370 -0.061457 0.106888
vn 0.992370 -0.061457 0.106888
vn 0.991160 -0.083125 0.103406
vn 0.991160 -0.083125 0.103406
vn 0.991160 -0.083125 0.103406
vn 0.977775 -0.194966 -0.077106
vn 0.977775 -0.194966 -0.077106
vn 0.977775 -0.194966 -0.077106
s off
f 8/1/1 13/2/2 70/70/3 71/71/4
f 69/69/5 70/70/6 13/2/7
f 12/5/8 9/6/9 11/7/10
f 11/7/11 9/6/12 10/8/13
f 9/6/14 12/5/15 8/1/16
f 8/1/17 65/65/18 13/2/19
f 1/9/20 2/10/21 15/11/22
f 4/12/23 14/13/24 72/72/25
f 15/11/26 2/10/27 3/14/28
f 5/15/29 14/13/30 4/12/31
f 13/2/32 14/13/33 69/69/34
f 6/4/35 14/13/36 5/15/37
f 12/5/38 15/11/39 16/16/40
f 1/9/41 15/11/42 11/7/43
f 11/7/44 15/11/45 12/5/46
f 13/2/47 72/72/48 14/13/49
f 65/65/50 66/66/51 13/2/52
f 19/17/53 18/18/54 22/19/55
f 17/20/56 22/19/57 18/18/58
f 20/21/59 22/19/60 21/22/61
f 21/22/62 22/19/63 17/20/64
f 19/17/65 22/19/66 20/21/67
f 23/23/68 34/24/69 24/25/70
f 30/26/71 29/27/72 37/28/73
f 37/28/74 29/27/75 28/29/76
f 24/25/77 34/24/78 25/30/79
f 25/30/80 34/24/81 35/31/82
f 25/30/83 35/31/84 26/32/85
f 26/32/86 35/31/87 36/33/88
f 26/32/89 36/33/90 27/34/91
f 27/34/92 36/33/93 37/28/94
f 37/28/95 28/29/96 27/34/97
f 23/23/98 33/35/99 34/24/100
f 34/24/101 33/35/102 35/31/103
f 35/31/104 33/35/105 32/36/106
f 36/33/107 35/31/108 32/36/109
f 37/28/110 36/33/111 31/37/112
f 31/37/113 36/33/114 32/36/115
f 31/37/116 30/26/117 37/28/118
f 46/38/119 38/39/120 39/40/121
f 40/41/122 45/42/123 39/40/124
f 39/40/125 45/42/126 46/38/127
f 41/43/128 45/42/129 40/41/130
f 43/44/131 45/42/132 42/45/133
f 42/45/134 45/42/135 41/43/136
f 46/38/137 45/42/138 43/44/139
f 38/39/140 46/38/141 44/46/142
f 44/46/143 46/38/144 43/44/145
f 55/47/146 54/48/147 57/49/148
f 58/50/149 59/51/150 54/48/151
f 54/48/152 59/51/153 57/49/154
f 49/52/155 56/53/156 50/54/157
f 52/55/158 58/50/159 53/56/160
f 53/56/161 58/50/162 54/48/163
f 49/52/164 47/57/165 56/53/166
f 59/51/167 48/58/168 57/49/169
f 55/47/170 57/49/171 48/58/172
f 51/59/173 58/50/174 52/55/175
f 50/54/176 58/50/177 51/59/178
f 59/51/179 58/50/180 56/53/181
f 56/53/182 58/50/183 50/54/184
f 48/58/185 59/51/186 47/57/187
f 47/57/188 59/51/189 56/53/190
f 64/60/191 63/61/192 60/62/193
f 64/60/194 60/62/195 62/63/196
f 64/60/197 62/63/198 61/64/199
f 64/60/200 61/64/201 63/61/202
f 8/1/203 12/5/204 65/65/205
f 12/5/206 16/16/207 66/66/208 65/65/209
f 67/67/210 66/66/211 16/16/212
f 68/68/213 67/67/214 16/16/215 15/11/216
f 3/14/217 68/68/218 15/11/219
f 69/69/220 14/13/221 6/4/222
f 7/3/223 70/70/224 69/69/225 6/4/226
f 71/71/227 70/70/228 7/3/229
f 13/2/230 66/66/231 67/67/232 72/72/233
f 72/72/234 67/67/235 68/68/236
f 72/72/237 68/68/238 3/14/239
f 4/12/240 72/72/241 3/14/242
