# This file uses centimeters as units for non-parametric coordinates.

v -10.220093 34.763374 3.092529
v 245.723267 50.407505 3.881958
v -10.156494 35.195847 8.382935
v 245.647461 51.624222 7.025757
v -12.311768 52.683720 4.874878
v 243.595581 68.625641 5.646362
v -12.271973 51.764835 1.713135
v 243.531738 68.193146 0.357300
v 95.901733 42.569881 2.944336
v 84.126099 42.046288 5.877563
v 141.649658 61.115326 5.770996
v 159.322876 61.901329 1.368286
v 5.529175 53.336502 6.906616
v -11.240967 44.358082 8.628052
v 68.709473 41.172539 7.395508
v 85.141357 45.768024 7.022949
v 93.653687 42.774487 7.265259
v 244.542969 59.707863 0.491699
v 227.304199 49.233150 1.897339
v 151.984131 61.574955 3.196411
v 143.619507 60.892834 1.451416
v 152.545654 57.995468 1.686890
v 245.443726 95.797546 -0.707642
v -10.435425 99.496155 1.384888
v 245.490601 96.405701 4.581299
v -10.462524 99.042610 4.656128
v 244.353882 80.892906 3.390259
v -11.548462 84.334732 5.503662
v 244.363159 81.090118 0.142700
v -11.595337 83.726540 0.214722
v 139.093140 96.132057 -0.139893
v 150.938354 96.340607 2.728271
v 90.618530 84.019676 4.937256
v 72.845581 83.706360 0.635620
v 226.661743 81.881462 5.435791
v 244.928589 88.662720 6.017456
v 166.390503 96.346733 4.160278
v 149.300415 93.481697 4.340332
v 141.436157 96.603920 4.167236
v -11.066040 90.964409 -0.757568
v 7.915894 98.917557 -0.677246
v 80.230591 83.836693 2.422241
v 88.554565 83.544792 0.631470
v 80.261108 86.611694 0.461182
v 221.248535 142.086960 -8.589233
v 214.872681 142.610748 -8.520020
v 211.747070 142.860306 -2.948486
v 216.205811 142.489151 0.391968
v 221.365967 142.062164 2.484497
v 224.491577 141.812592 -3.087036
v 218.119873 142.336411 -3.016357
v 218.040894 115.538101 -8.107300
v 213.165649 122.553528 -7.403809
v 211.347290 126.264603 -2.347412
v 214.403076 122.960159 2.008179
v 219.276978 115.944748 1.306030
v 220.902344 109.861557 -3.753174
v 208.888672 0.557066 -8.628052
v 202.983032 0.668184 -7.709839
v 201.009888 0.705339 -2.283691
v 210.856323 0.520086 1.308716
v 212.825073 0.483029 -4.118774
v 214.122925 142.659454 1.080200
v 217.143311 142.409195 2.531616
v 214.746826 134.453888 2.328003
v 220.416382 113.623688 -1.855835
v 221.461548 114.990433 -3.657593
v 219.395508 114.072716 -6.175415
v 202.444580 0.678350 -0.641235
v 205.230347 0.625993 2.215820
v 10.975586 126.799614 -1.363892
v 8.197144 126.496490 -7.115967
v 1.852295 125.842880 -7.570557
v 0.747314 125.745941 -2.098267
v 1.066162 125.795509 3.476196
v 7.409546 126.449051 3.930908
v 4.628052 126.145775 -1.819702
v 12.807251 100.123520 -1.983521
v 9.199463 106.366592 -6.621216
v 3.392334 109.345451 -6.385864
v 1.192139 106.081024 -1.515747
v 4.799927 99.837921 3.120605
v 10.849731 94.491394 2.894165
v 23.943359 0.993724 -1.974609
v 20.857666 0.811247 -6.792603
v 14.990845 0.578193 -6.334839
v 15.300415 0.710263 3.755737
v 21.164429 0.943214 3.299561
v -0.759521 125.586143 -3.692749
v -0.776855 125.594589 -0.332642
v -0.511719 117.448982 -1.959351
v 8.428345 97.974564 2.975708
v 10.297974 99.620186 3.042847
v 11.829590 98.675751 0.177124
v 13.980225 0.559845 -4.415283
v 11.950073 0.517448 -1.030151
vt 0.325561 0.129752
vt 0.325454 0.129585
vt 0.325470 0.129605
vt 0.325483 0.129624
vt 0.325563 0.129749
vt 0.325575 0.129702
vt 0.325472 0.129594
vt 0.325469 0.129544
vt 0.326156 0.147904
vt 0.326089 0.147902
vt 0.325583 0.147832
vt 0.325546 0.147819
vt 0.325578 0.147817
vt 0.326155 0.147894
vt 0.325591 0.129733
vt 0.325466 0.129546
vt 0.325451 0.129536
vt 0.325579 0.129739
vt 0.325593 0.129730
vt 0.325458 0.129585
vt 0.325323 0.129379
vt 0.325305 0.129350
vt 0.325304 0.129345
vt 0.325328 0.129335
vt 0.325521 0.147809
vt 0.325213 0.147781
vt 0.325219 0.147764
vt 0.325317 0.129346
vt 0.325329 0.129341
vt 0.325455 0.129528
vt 0.325450 0.129522
vt 0.325194 0.147721
vt 0.325594 0.147772
vt 0.325547 0.147776
vt 0.325487 0.147774
vt 0.325187 0.147738
vt 0.325575 0.129702
vt 0.325472 0.129594
vt 0.325469 0.129544
vt 0.325593 0.129730
vt 0.325455 0.129528
vt 0.325466 0.129546
vt 0.325591 0.129733
vt 0.325451 0.129536
vt 0.325454 0.129585
vt 0.325561 0.129752
vt 0.325563 0.129749
vt 0.325579 0.129739
vt 0.325583 0.147786
vt 0.326112 0.147830
vt 0.326187 0.147846
vt 0.326187 0.147859
vt 0.325458 0.129585
vt 0.325304 0.129345
vt 0.325328 0.129335
vt 0.325450 0.129522
vt 0.325329 0.129341
vt 0.325323 0.129379
vt 0.325483 0.129624
vt 0.325470 0.129605
vt 0.325305 0.129350
vt 0.325317 0.129346
vt 0.325267 0.147638
vt 0.325292 0.147641
vt 0.325273 0.147659
vt 0.325299 0.147662
vt 0.325285 0.147675
vt 0.325278 0.147672
vt 0.325272 0.147679
vt 0.325255 0.147678
vt 0.325248 0.147657
vt 0.324543 0.129172
vt 0.324559 0.129153
vt 0.324560 0.129091
vt 0.324542 0.129090
vt 0.324573 0.129141
vt 0.324578 0.129086
vt 0.324570 0.129150
vt 0.324575 0.129109
vt 0.324578 0.129080
vt 0.324551 0.129172
vt 0.324557 0.129076
vt 0.324571 0.129078
vt 0.324543 0.129178
vt 0.324538 0.129173
vt 0.324539 0.129083
vt 0.324541 0.129176
vt 0.324535 0.129370
vt 0.324548 0.129375
vt 0.324558 0.129385
vt 0.324557 0.129388
vt 0.324555 0.129383
vt 0.324540 0.129387
vt 0.324531 0.129375
vt 0.324538 0.129189
vt 0.324570 0.129081
vt 0.326108 0.147800
vt 0.326118 0.147780
vt 0.326134 0.147801
vt 0.326144 0.147781
vt 0.326156 0.147797
vt 0.326150 0.147802
vt 0.326157 0.147809
vt 0.326150 0.147823
vt 0.326124 0.147822
vt 0.324543 0.129172
vt 0.324559 0.129153
vt 0.324560 0.129091
vt 0.324542 0.129090
vt 0.324573 0.129141
vt 0.324578 0.129086
vt 0.324570 0.129150
vt 0.324575 0.129109
vt 0.324578 0.129080
vt 0.324551 0.129172
vt 0.324557 0.129076
vt 0.324571 0.129078
vt 0.324543 0.129178
vt 0.324538 0.129173
vt 0.324539 0.129083
vt 0.324541 0.129176
vt 0.324535 0.129370
vt 0.324548 0.129375
vt 0.324558 0.129385
vt 0.324557 0.129388
vt 0.324555 0.129383
vt 0.324540 0.129387
vt 0.324531 0.129375
vt 0.324538 0.129189
vt 0.324570 0.129081
vn 0.056916 -0.992479 0.108375
vn 0.056916 -0.992479 0.108375
vn 0.056916 -0.992479 0.108375
vn 0.056916 -0.992479 0.108375
vn 0.056916 -0.992479 0.108375
vn 0.015314 0.063987 0.997833
vn 0.015314 0.063987 0.997833
vn 0.015314 0.063987 0.997833
vn -0.020315 0.994968 -0.098113
vn -0.020315 0.994968 -0.098113
vn -0.020315 0.994968 -0.098113
vn -0.020315 0.994968 -0.098113
vn -0.020315 0.994968 -0.098113
vn -0.020315 0.994968 -0.098113
vn -0.000457 -0.085940 -0.996300
vn -0.000457 -0.085940 -0.996300
vn -0.000457 -0.085940 -0.996300
vn -0.000457 -0.085940 -0.996300
vn -0.000457 -0.085940 -0.996300
vn -0.999297 -0.035908 0.010771
vn -0.999297 -0.035908 0.010771
vn -0.999297 -0.035908 0.010771
vn -0.999297 -0.035908 0.010771
vn -0.999297 -0.035908 0.010771
vn 0.016251 -0.983173 0.181954
vn 0.016251 -0.983173 0.181954
vn 0.016251 -0.983173 0.181954
vn 0.016251 -0.983173 0.181954
vn 0.016251 -0.983173 0.181954
vn 0.016251 -0.983173 0.181954
vn 0.000260 0.086101 0.996286
vn 0.000260 0.086101 0.996286
vn 0.000260 0.086101 0.996286
vn 0.000260 0.086101 0.996286
vn 0.000260 0.086101 0.996286
vn -0.057543 0.994191 -0.090959
vn -0.057543 0.994191 -0.090959
vn -0.057543 0.994191 -0.090959
vn -0.057543 0.994191 -0.090959
vn -0.015395 -0.063796 -0.997844
vn -0.015395 -0.063796 -0.997844
vn -0.015395 -0.063796 -0.997844
vn -0.197691 0.394516 0.897371
vn -0.197691 0.394516 0.897371
vn -0.197691 0.394516 0.897371
vn 0.190136 -0.320130 0.928098
vn 0.190136 -0.320130 0.928098
vn 0.190136 -0.320130 0.928098
vn -0.257567 -0.249831 0.933404
vn -0.257567 -0.249831 0.933404
vn -0.257567 -0.249831 0.933404
vn 0.999297 0.035905 -0.010812
vn 0.999297 0.035905 -0.010812
vn 0.999297 0.035905 -0.010812
vn 0.999297 0.035905 -0.010812
vn 0.999297 0.035905 -0.010812
vn 0.210724 -0.325950 -0.921603
vn 0.210724 -0.325950 -0.921603
vn 0.210724 -0.325950 -0.921603
vn -0.421331 0.330905 -0.844383
vn -0.421331 0.330905 -0.844383
vn -0.421331 0.330905 -0.844383
vn 0.334019 0.379810 -0.862656
vn 0.334019 0.379810 -0.862656
vn 0.334019 0.379810 -0.862656
vn 0.035595 0.064517 0.997282
vn 0.035595 0.064517 0.997282
vn 0.035595 0.064517 0.997282
vn 0.035595 0.064517 0.997282
vn 0.035595 0.064517 0.997282
vn -0.054772 0.991677 -0.116517
vn -0.054772 0.991677 -0.116517
vn -0.054772 0.991677 -0.116517
vn -0.028547 -0.070245 -0.997121
vn -0.028547 -0.070245 -0.997121
vn -0.028547 -0.070245 -0.997121
vn -0.028547 -0.070245 -0.997121
vn -0.028547 -0.070245 -0.997121
vn 0.075146 0.995115 -0.064019
vn 0.075146 0.995115 -0.064019
vn 0.075146 0.995115 -0.064019
vn 0.075146 0.995115 -0.064019
vn 0.075146 0.995115 -0.064019
vn 0.003141 0.109627 0.993968
vn 0.003141 0.109627 0.993968
vn 0.003141 0.109627 0.993968
vn -0.097309 -0.992745 0.070622
vn -0.097309 -0.992745 0.070622
vn -0.097309 -0.992745 0.070622
vn -0.097309 -0.992745 0.070622
vn -0.097309 -0.992745 0.070622
vn -0.097309 -0.992745 0.070622
vn -0.013922 -0.071660 -0.997332
vn -0.013922 -0.071660 -0.997332
vn -0.013922 -0.071660 -0.997332
vn -0.013922 -0.071660 -0.997332
vn -0.013922 -0.071660 -0.997332
vn 0.996176 -0.087371 -0.000599
vn 0.996176 -0.087371 -0.000599
vn 0.996176 -0.087371 -0.000599
vn 0.996176 -0.087371 -0.000599
vn 0.996176 -0.087371 -0.000599
vn 0.100328 0.994774 -0.018943
vn 0.100328 0.994774 -0.018943
vn 0.100328 0.994774 -0.018943
vn 0.100328 0.994774 -0.018943
vn 0.100328 0.994774 -0.018943
vn 0.100328 0.994774 -0.018943
vn 0.014112 0.071075 0.997371
vn 0.014112 0.071075 0.997371
vn 0.014112 0.071075 0.997371
vn 0.014112 0.071075 0.997371
vn 0.014112 0.071075 0.997371
vn -0.074617 -0.994410 0.074703
vn -0.074617 -0.994410 0.074703
vn -0.074617 -0.994410 0.074703
vn -0.074617 -0.994410 0.074703
vn -0.003140 -0.109623 -0.993968
vn -0.003140 -0.109623 -0.993968
vn -0.003140 -0.109623 -0.993968
vn 0.140195 -0.437946 0.888003
vn 0.140195 -0.437946 0.888003
vn 0.140195 -0.437946 0.888003
vn -0.092165 0.656032 0.749084
vn -0.092165 0.656032 0.749084
vn -0.092165 0.656032 0.749084
vn 0.302599 0.519182 0.799302
vn 0.302599 0.519182 0.799302
vn 0.302599 0.519182 0.799302
vn -0.996155 0.087604 0.000568
vn -0.996155 0.087604 0.000568
vn -0.996155 0.087604 0.000568
vn -0.996155 0.087604 0.000568
vn -0.996155 0.087604 0.000568
vn -0.168694 0.343679 -0.923811
vn -0.168694 0.343679 -0.923811
vn -0.168694 0.343679 -0.923811
vn 0.293400 -0.681840 -0.670082
vn 0.293400 -0.681840 -0.670082
vn 0.293400 -0.681840 -0.670082
vn -0.368872 -0.648595 -0.665776
vn -0.368872 -0.648595 -0.665776
vn -0.368872 -0.648595 -0.665776
vn -0.017023 0.111460 0.993623
vn -0.017023 0.111460 0.993623
vn -0.017023 0.111460 0.993623
vn -0.017023 0.111460 0.993623
vn -0.017023 0.111460 0.993623
vn -0.076502 -0.995318 0.059080
vn -0.076502 -0.995318 0.059080
vn -0.076502 -0.995318 0.059080
vn 0.011094 -0.101056 -0.994819
vn 0.011094 -0.101056 -0.994819
vn 0.011094 -0.101056 -0.994819
vn 0.011094 -0.101056 -0.994819
vn 0.011094 -0.101056 -0.994819
vn 0.063122 0.998005 0.001365
vn 0.063122 0.998005 0.001365
vn 0.063122 0.998005 0.001365
vn 0.063176 0.998002 0.001334
vn 0.063176 0.998002 0.001334
vn 0.063176 0.998002 0.001334
vn 0.063174 0.998002 0.001354
vn 0.063174 0.998002 0.001354
vn 0.063174 0.998002 0.001354
vn 0.063174 0.998002 0.001354
vn 0.063156 0.998003 0.001344
vn 0.063156 0.998003 0.001344
vn 0.063156 0.998003 0.001344
vn 0.063156 0.998003 0.001344
vn 0.063178 0.998001 0.001333
vn 0.063178 0.998001 0.001333
vn 0.063178 0.998001 0.001333
vn 0.063179 0.998001 0.001394
vn 0.063179 0.998001 0.001394
vn 0.063179 0.998001 0.001394
vn -0.084786 -0.026763 -0.996040
vn -0.084786 -0.026763 -0.996040
vn -0.084786 -0.026763 -0.996040
vn -0.084786 -0.026763 -0.996040
vn -0.902121 0.014652 -0.431235
vn -0.902121 0.014652 -0.431235
vn -0.902121 0.014652 -0.431235
vn -0.902121 0.014652 -0.431235
vn -0.837152 0.008794 0.546900
vn -0.837152 0.008794 0.546900
vn -0.837152 0.008794 0.546900
vn -0.837152 0.008794 0.546900
vn -0.837152 0.008794 0.546900
vn 0.044751 -0.040107 0.998193
vn 0.044751 -0.040107 0.998193
vn 0.044751 -0.040107 0.998193
vn 0.044751 -0.040107 0.998193
vn 0.044751 -0.040107 0.998193
vn 0.885974 -0.084821 0.455911
vn 0.885974 -0.084821 0.455911
vn 0.885974 -0.084821 0.455911
vn 0.885974 -0.084821 0.455911
vn 0.885974 -0.084821 0.455911
vn 0.824357 -0.079569 -0.560450
vn 0.824357 -0.079569 -0.560450
vn 0.824357 -0.079569 -0.560450
vn 0.824357 -0.079569 -0.560450
vn 0.824357 -0.079569 -0.560450
vn -0.142015 0.012812 -0.989782
vn -0.142016 0.012812 -0.989781
vn -0.142015 0.012812 -0.989782
vn -0.142015 0.012812 -0.989782
vn -0.926144 0.061492 -0.372125
vn -0.926144 0.061492 -0.372125
vn -0.926144 0.061492 -0.372125
vn -0.926144 0.061492 -0.372125
vn -0.784154 0.051225 0.618449
vn -0.784154 0.051225 0.618449
vn -0.784154 0.051225 0.618448
vn -0.784154 0.051225 0.618448
vn -0.784154 0.051225 0.618449
vn 0.143307 -0.007829 0.989647
vn 0.143307 -0.007829 0.989647
vn 0.143307 -0.007829 0.989647
vn 0.143307 -0.007829 0.989647
vn 0.927555 -0.056447 0.369399
vn 0.927555 -0.056447 0.369399
vn 0.927555 -0.056447 0.369399
vn 0.927555 -0.056447 0.369399
vn 0.927555 -0.056447 0.369399
vn 0.784498 -0.046117 -0.618414
vn 0.784498 -0.046117 -0.618414
vn 0.784498 -0.046117 -0.618414
vn 0.784498 -0.046117 -0.618414
vn 0.784498 -0.046117 -0.618414
vn -0.886612 0.238906 0.396034
vn -0.886612 0.238906 0.396034
vn -0.886612 0.238906 0.396034
vn 0.318450 0.172236 0.932161
vn 0.318450 0.172236 0.932161
vn 0.318450 0.172236 0.932161
vn 0.948827 0.242852 -0.201867
vn 0.948827 0.242852 -0.201867
vn 0.948827 0.242852 -0.201867
vn 0.623989 -0.748894 -0.223149
vn 0.623989 -0.748894 -0.223149
vn 0.623989 -0.748894 -0.223149
vn -0.062047 0.998052 0.006458
vn -0.062047 0.998052 0.006458
vn -0.062047 0.998052 0.006458
vn -0.062055 0.998052 0.006451
vn -0.062055 0.998052 0.006451
vn -0.062055 0.998052 0.006451
vn -0.062073 0.998051 0.006459
vn -0.062073 0.998051 0.006459
vn -0.062073 0.998051 0.006459
vn -0.062073 0.998051 0.006459
vn -0.062064 0.998051 0.006490
vn -0.062064 0.998051 0.006490
vn -0.062064 0.998051 0.006490
vn -0.062064 0.998051 0.006490
vn -0.062071 0.998051 0.006493
vn -0.062071 0.998051 0.006493
vn -0.062071 0.998051 0.006493
vn -0.062050 0.998052 0.006483
vn -0.062050 0.998052 0.006483
vn -0.062050 0.998052 0.006483
vn 0.883640 0.024436 -0.467528
vn 0.883640 0.024436 -0.467528
vn 0.883641 0.024436 -0.467528
vn 0.883641 0.024436 -0.467528
vn 0.044856 -0.033681 -0.998426
vn 0.044856 -0.033681 -0.998426
vn 0.044856 -0.033681 -0.998426
vn 0.044856 -0.033681 -0.998426
vn -0.827335 -0.091207 -0.554255
vn -0.827335 -0.091207 -0.554255
vn -0.827335 -0.091207 -0.554255
vn -0.827335 -0.091207 -0.554255
vn -0.827335 -0.091207 -0.554255
vn -0.895229 -0.094455 0.435481
vn -0.895229 -0.094455 0.435481
vn -0.895229 -0.094455 0.435481
vn -0.895229 -0.094455 0.435481
vn -0.895229 -0.094455 0.435481
vn -0.067933 -0.038781 0.996936
vn -0.067933 -0.038781 0.996936
vn -0.067933 -0.038781 0.996936
vn -0.067933 -0.038781 0.996936
vn -0.067933 -0.038781 0.996936
vn 0.840833 0.020623 0.540902
vn 0.840833 0.020623 0.540902
vn 0.840833 0.020623 0.540902
vn 0.840833 0.020623 0.540902
vn 0.840833 0.020623 0.540902
vn 0.852487 0.058871 -0.519423
vn 0.852487 0.058871 -0.519423
vn 0.852487 0.058871 -0.519423
vn 0.852487 0.058871 -0.519423
vn -0.023070 0.007408 -0.999707
vn -0.023070 0.007408 -0.999706
vn -0.023070 0.007408 -0.999707
vn -0.023070 0.007408 -0.999707
vn -0.876079 -0.048949 -0.479677
vn -0.876079 -0.048949 -0.479677
vn -0.876079 -0.048949 -0.479677
vn -0.876079 -0.048949 -0.479677
vn -0.876079 -0.048949 -0.479677
vn -0.852078 -0.053764 0.520646
vn -0.852078 -0.053764 0.520646
vn -0.852078 -0.053764 0.520646
vn -0.852078 -0.053764 0.520646
vn 0.025247 -0.002141 0.999679
vn 0.025247 -0.002141 0.999679
vn 0.025247 -0.002141 0.999679
vn 0.025247 -0.002141 0.999679
vn 0.025247 -0.002141 0.999679
vn 0.875704 0.054043 0.479815
vn 0.875704 0.054043 0.479815
vn 0.875704 0.054043 0.479815
vn 0.875704 0.054043 0.479815
vn 0.875704 0.054043 0.479815
vn -0.727845 0.142390 -0.670796
vn -0.727845 0.142390 -0.670796
vn -0.727845 0.142390 -0.670796
vn -0.746691 0.143154 0.649584
vn -0.746691 0.143154 0.649584
vn -0.746691 0.143154 0.649584
vn 0.532083 0.330808 0.779394
vn 0.532083 0.330808 0.779394
vn 0.532083 0.330808 0.779394
vn 0.510488 -0.681572 0.524272
vn 0.510489 -0.681572 0.524272
vn 0.510489 -0.681572 0.524272
vn -0.018812 -0.999823 0.000007
vn -0.018812 -0.999823 0.000007
vn -0.018812 -0.999823 0.000007
vn -0.018812 -0.999823 0.000007
vn -0.018812 -0.999823 0.000007
vn -0.018812 -0.999823 0.000007
vn -0.018812 -0.999823 0.000007
vn 0.040609 -0.999105 0.011831
vn 0.040609 -0.999105 0.011831
vn 0.040609 -0.999105 0.011831
vn 0.040609 -0.999105 0.011831
vn 0.040609 -0.999105 0.011831
vn 0.040609 -0.999105 0.011831
vn 0.040609 -0.999105 0.011831
s off
f 1/1/1 9/2/2 10/3/3 15/4/4 3/5/5
f 13/6/6 16/7/7 11/8/8
f 5/9/9 13/10/10 11/11/11 20/12/12 21/13/13 7/14/14
f 7/15/15 21/16/16 22/17/17 9/2/18 1/1/19
f 7/15/20 1/1/21 3/5/22 14/18/23 5/19/24
f 17/20/25 10/3/26 9/2/27 19/21/28 2/22/29 4/23/30
f 11/8/31 16/7/32 17/20/33 4/23/34 6/24/35
f 12/25/36 20/12/37 6/26/38 8/27/39
f 9/2/40 22/17/41 19/21/42
f 14/18/43 13/6/44 5/19/45
f 16/7/46 15/4/47 10/3/48
f 17/20/49 16/7/50 10/3/51
f 2/22/52 18/28/53 8/29/54 6/24/55 4/23/56
f 19/21/57 18/28/58 2/22/59
f 22/17/60 20/30/61 12/31/62
f 22/17/63 21/16/64 20/30/65
f 3/5/66 15/4/67 16/7/68 13/6/69 14/18/70
f 6/26/71 20/12/72 11/11/73
f 19/21/74 22/17/75 12/31/76 8/29/77 18/28/78
f 23/32/79 31/33/80 32/34/81 37/35/82 25/36/83
f 35/37/84 38/38/85 33/39/86
f 27/40/87 35/37/88 33/39/89 42/41/90 43/42/91 29/43/92
f 29/43/93 43/42/94 44/44/95 31/45/96 23/46/97
f 29/43/98 23/46/99 25/47/100 36/48/101 27/40/102
f 39/49/103 32/34/104 31/33/105 41/50/106 24/51/107 26/52/108
f 33/39/109 38/38/110 39/53/111 26/54/112 28/55/113
f 34/56/114 42/41/115 28/55/116 30/57/117
f 31/45/118 44/44/119 41/58/120
f 36/48/121 35/37/122 27/40/123
f 38/38/124 37/59/125 32/60/126
f 39/53/127 38/38/128 32/60/129
f 24/61/130 40/62/131 30/57/132 28/55/133 26/54/134
f 41/58/135 40/62/136 24/61/137
f 44/44/138 42/41/139 34/56/140
f 44/44/141 43/42/142 42/41/143
f 25/47/144 37/59/145 38/38/146 35/37/147 36/48/148
f 28/55/149 42/41/150 33/39/151
f 41/58/152 44/44/153 34/56/154 30/57/155 40/62/156
f 45/63/157 46/64/158 51/65/159
f 46/64/160 47/66/161 51/65/162
f 47/66/163 63/67/164 48/68/165 51/65/166
f 48/68/167 64/69/168 49/70/169 51/65/170
f 49/70/171 50/71/172 51/65/173
f 50/71/174 45/63/175 51/65/176
f 52/72/177 53/73/178 46/74/179 45/75/180
f 53/73/181 54/76/182 47/77/183 46/74/184
f 54/76/185 55/78/186 65/79/187 63/80/188 47/77/189
f 55/78/190 56/81/191 49/82/192 64/83/193 65/79/194
f 56/81/195 66/84/196 67/85/197 50/86/198 49/82/199
f 67/85/200 68/87/201 52/72/202 45/75/203 50/86/204
f 58/88/205 59/89/206 53/73/207 52/72/208
f 59/89/209 60/90/210 54/76/211 53/73/212
f 60/90/213 69/91/214 70/92/215 55/78/216 54/76/217
f 70/92/218 61/93/219 56/81/220 55/78/221
f 61/93/222 62/94/223 57/95/224 66/84/225 56/81/226
f 62/94/227 58/88/228 52/72/229 68/87/230 57/95/231
f 65/79/232 64/83/233 48/96/234
f 63/80/235 65/79/236 48/96/237
f 68/87/238 66/84/239 57/95/240
f 67/85/241 66/84/242 68/87/243
f 71/97/244 72/98/245 77/99/246
f 72/98/247 73/100/248 77/99/249
f 73/100/250 89/101/251 74/102/252 77/99/253
f 74/102/254 90/103/255 75/104/256 77/99/257
f 75/104/258 76/105/259 77/99/260
f 76/105/261 71/97/262 77/99/263
f 78/106/264 79/107/265 72/108/266 71/109/267
f 79/107/268 80/110/269 73/111/270 72/108/271
f 80/110/272 81/112/273 91/113/274 89/114/275 73/111/276
f 81/112/277 82/115/278 75/116/279 90/117/280 91/113/281
f 82/115/282 92/118/283 93/119/284 76/120/285 75/116/286
f 93/119/287 94/121/288 78/106/289 71/109/290 76/120/291
f 84/122/292 85/123/293 79/107/294 78/106/295
f 85/123/296 86/124/297 80/110/298 79/107/299
f 86/124/300 95/125/301 96/126/302 81/112/303 80/110/304
f 96/126/305 87/127/306 82/115/307 81/112/308
f 87/127/309 88/128/310 83/129/311 92/118/312 82/115/313
f 88/128/314 84/122/315 78/106/316 94/121/317 83/129/318
f 91/113/319 90/117/320 74/130/321
f 89/114/322 91/113/323 74/130/324
f 94/121/325 92/118/326 83/129/327
f 93/119/328 92/118/329 94/121/330
f 58/88/331 62/94/332 61/93/333 70/92/334 69/91/335 60/90/336 59/89/337
f 84/122/338 88/128/339 87/127/340 96/126/341 95/125/342 86/124/343 85/123/344
