# This file uses centimeters as units for non-parametric coordinates.

v 2891.146240 0.000000 -774.680054
v 2592.131348 0.000000 -1496.567139
v 2116.466309 0.000000 -2116.465820
v 1496.567749 0.000000 -2592.130615
v 774.680664 0.000000 -2891.146240
v 0.000387 0.000000 -2993.135010
v -774.680054 0.000000 -2891.146484
v -1496.567383 0.000000 -2592.131348
v -2116.466309 0.000000 -2116.466797
v -2592.131348 0.000000 -1496.567993
v -2891.146973 0.000000 -774.680603
v -2993.135742 0.000000 -0.000133
v -2891.146973 0.000000 774.680420
v -2592.131836 0.000000 1496.567749
v -2116.466797 0.000000 2116.466797
v -1496.568115 0.000000 2592.131836
v -774.680603 0.000000 2891.147217
v -0.000059 0.000000 2993.136230
v 774.680603 0.000000 2891.147461
v 1496.568115 0.000000 2592.132324
v 2116.467041 0.000000 2116.467285
v 2592.132324 0.000000 1496.568237
v 2891.147705 0.000000 774.680786
v 2993.136475 0.000000 0.000046
v 3388.981689 393.983551 -908.074585
v 3038.478271 393.983551 -1754.265625
v 2480.906738 393.983551 -2480.906738
v 1754.266113 393.983551 -3038.477539
v 908.075195 393.983551 -3388.981445
v 0.000390 393.983551 -3508.531982
v -908.074585 393.983551 -3388.981934
v -1754.265869 393.983551 -3038.478271
v -2480.906982 393.983551 -2480.907715
v -3038.478271 393.983551 -1754.266602
v -3388.982422 393.983551 -908.075256
v -3508.532959 393.983551 -0.000246
v -3388.982422 393.983551 908.074829
v -3038.479004 393.983551 1754.266113
v -2480.907715 393.983551 2480.907715
v -1754.266602 393.983551 3038.479004
v -908.075256 393.983551 3388.982666
v -0.000133 393.983551 3508.532959
v 908.075073 393.983551 3388.982910
v 1754.266479 393.983551 3038.479248
v 2480.907715 393.983551 2480.908203
v 3038.479248 393.983551 1754.266724
v 3388.983398 393.983551 908.075256
v 3508.533691 393.983551 -0.000037
vt 0.966504 0.017039
vt 0.918256 0.017039
vt 0.918256 0.982960
vt 0.966504 0.982960
vt 0.841505 0.017039
vt 0.841505 0.982960
vt 0.741480 0.017039
vt 0.741480 0.982960
vt 0.624999 0.017039
vt 0.624999 0.982960
vt 0.500000 0.017039
vt 0.500000 0.982960
vt 0.375001 0.017039
vt 0.375001 0.982960
vt 0.258520 0.017039
vt 0.258520 0.982960
vt 0.158495 0.017039
vt 0.158495 0.982960
vt 0.081744 0.017039
vt 0.081744 0.982960
vt 0.033496 0.017039
vt 0.033496 0.982960
vt 0.017039 0.017039
vt 0.017039 0.982960
vt 0.033496 0.017039
vt 0.033496 0.982960
vt 0.081744 0.017039
vt 0.081744 0.982960
vt 0.158495 0.017039
vt 0.158495 0.982960
vt 0.258520 0.017039
vt 0.258520 0.982960
vt 0.375001 0.017039
vt 0.375001 0.982960
vt 0.500000 0.017039
vt 0.500000 0.982960
vt 0.624999 0.017039
vt 0.624999 0.982960
vt 0.741480 0.017039
vt 0.741480 0.982960
vt 0.841505 0.017039
vt 0.841505 0.982960
vt 0.918256 0.017039
vt 0.918256 0.982960
vt 0.966504 0.017039
vt 0.966504 0.982960
vt 0.982961 0.017039
vt 0.982961 0.982960
vn -0.586617 0.794465 0.157184
vn -0.586617 0.794465 0.157184
vn -0.525946 0.794465 0.303655
vn -0.525946 0.794465 0.303655
vn -0.429433 0.794465 0.429433
vn -0.429433 0.794464 0.429433
vn -0.303655 0.794465 0.525946
vn -0.303655 0.794465 0.525946
vn -0.157184 0.794465 0.586617
vn -0.157184 0.794465 0.586617
vn -0.000000 0.794465 0.607310
vn -0.000000 0.794465 0.607310
vn 0.157183 0.794465 0.586617
vn 0.157183 0.794465 0.586617
vn 0.303655 0.794465 0.525946
vn 0.303655 0.794465 0.525946
vn 0.429433 0.794465 0.429433
vn 0.429433 0.794465 0.429433
vn 0.525946 0.794465 0.303655
vn 0.525946 0.794465 0.303655
vn 0.586617 0.794465 0.157184
vn 0.586617 0.794465 0.157184
vn 0.607310 0.794465 0.000000
vn 0.607310 0.794465 0.000000
vn 0.586617 0.794465 -0.157183
vn 0.586617 0.794465 -0.157183
vn 0.525946 0.794465 -0.303655
vn 0.525946 0.794465 -0.303655
vn 0.429433 0.794465 -0.429433
vn 0.429433 0.794465 -0.429433
vn 0.303655 0.794465 -0.525946
vn 0.303655 0.794465 -0.525946
vn 0.157183 0.794465 -0.586617
vn 0.157183 0.794465 -0.586617
vn 0.000000 0.794465 -0.607310
vn 0.000000 0.794465 -0.607310
vn -0.157183 0.794465 -0.586617
vn -0.157183 0.794465 -0.586617
vn -0.303655 0.794465 -0.525946
vn -0.303655 0.794465 -0.525946
vn -0.429433 0.794465 -0.429433
vn -0.429433 0.794465 -0.429433
vn -0.525946 0.794465 -0.303655
vn -0.525946 0.794465 -0.303655
vn -0.586617 0.794465 -0.157183
vn -0.586617 0.794465 -0.157183
vn -0.607310 0.794465 0.000001
vn -0.607310 0.794465 0.000001
s 1
f 1/1/1 25/4/2 26/3/3 2/2/4
f 2/2/4 26/3/3 27/6/5 3/5/6
f 3/5/6 27/6/5 28/8/7 4/7/8
f 4/7/8 28/8/7 29/10/9 5/9/10
f 5/9/10 29/10/9 30/12/11 6/11/12
f 6/11/12 30/12/11 31/14/13 7/13/14
f 7/13/14 31/14/13 32/16/15 8/15/16
f 8/15/16 32/16/15 33/18/17 9/17/18
f 9/17/18 33/18/17 34/20/19 10/19/20
f 10/19/20 34/20/19 35/22/21 11/21/22
f 11/21/22 35/22/21 36/24/23 12/23/24
f 12/23/24 36/24/23 37/26/25 13/25/26
f 13/25/26 37/26/25 38/28/27 14/27/28
f 14/27/28 38/28/27 39/30/29 15/29/30
f 15/29/30 39/30/29 40/32/31 16/31/32
f 16/31/32 40/32/31 41/34/33 17/33/34
f 17/33/34 41/34/33 42/36/35 18/35/36
f 18/35/36 42/36/35 43/38/37 19/37/38
f 19/37/38 43/38/37 44/40/39 20/39/40
f 20/39/40 44/40/39 45/42/41 21/41/42
f 21/41/42 45/42/41 46/44/43 22/43/44
f 22/43/44 46/44/43 47/46/45 23/45/46
f 23/45/46 47/46/45 48/48/47 24/47/48
f 24/47/48 48/48/47 25/4/2 1/1/1
