# This file uses centimeters as units for non-parametric coordinates.

v -29.487469 0.000000 29.059746
v 13.633417 0.000000 29.059746
v -45.066116 0.000000 16.559708
v -31.642143 0.000000 -7.619530
v -22.173037 0.000000 -12.791931
v -17.602726 0.000000 -29.059746
v 6.620041 0.000000 -28.368111
v 15.647949 0.000000 -11.330406
v 45.066116 0.000000 10.991837
v -30.275440 1.584718 15.646027
v 17.633347 1.287068 10.993660
v -7.845730 1.716788 -10.905396
v -3.114813 3.996421 13.523125
vt 0.702077 0.044164
vt 0.630169 0.098727
vt 0.635022 0.044160
vt 0.572743 0.097688
vt 0.584307 0.037977
vt 0.481763 0.030554
vt 0.517917 0.032788
vt 0.514576 0.089657
vt 0.548893 0.142064
vt 0.608102 0.140373
vt 0.519843 0.000000
vt 0.625245 0.000000
vt 0.537722 0.102300
vn 0.046772 0.997002 -0.061641
vn 0.046772 0.997002 -0.061641
vn 0.046772 0.997002 -0.061641
vn 0.070556 0.991836 -0.106221
vn 0.070556 0.991836 -0.106221
vn 0.070556 0.991836 -0.106221
vn 0.121046 0.990325 -0.067861
vn 0.121046 0.990325 -0.067861
vn 0.121046 0.990325 -0.067861
vn -0.110066 0.992044 -0.061107
vn -0.110066 0.992044 -0.061107
vn -0.110066 0.992044 -0.061107
vn 0.002730 0.995416 -0.095600
vn 0.002730 0.995416 -0.095600
vn 0.002730 0.995416 -0.095600
vn 0.072139 0.996662 -0.038225
vn 0.072139 0.996662 -0.038225
vn 0.072139 0.996662 -0.038225
vn -0.098250 0.987600 0.122448
vn -0.098250 0.987600 0.122448
vn -0.098250 0.987600 0.122448
vn 0.140958 0.984812 0.101369
vn 0.140958 0.984812 0.101369
vn 0.140958 0.984812 0.101369
vn 0.046716 0.995597 0.081272
vn 0.046716 0.995597 0.081272
vn 0.046716 0.995597 0.081272
vn -0.114728 0.992874 -0.032232
vn -0.114728 0.992874 -0.032232
vn -0.114728 0.992874 -0.032232
vn -0.094651 0.980314 -0.173278
vn -0.094651 0.980314 -0.173278
vn -0.094651 0.980314 -0.173278
vn -0.093972 0.992788 -0.074446
vn -0.093972 0.992788 -0.074446
vn -0.093972 0.992788 -0.074446
vn -0.080470 0.994762 -0.063030
vn -0.080470 0.994762 -0.063030
vn -0.080470 0.994762 -0.063030
vn 0.000000 0.968474 0.249116
vn 0.000000 0.968474 0.249116
vn 0.000000 0.968474 0.249116
vn -0.078365 0.989493 0.121504
vn -0.078365 0.989493 0.121504
vn -0.078365 0.989493 0.121504
s off
f 9/1/1 8/2/2 11/3/3
f 12/4/4 13/5/5 8/2/6
f 8/2/7 13/5/8 11/3/9
f 3/6/10 10/7/11 4/8/12
f 6/9/13 12/4/14 7/10/15
f 7/10/16 12/4/17 8/2/18
f 3/6/19 1/11/20 10/7/21
f 13/5/22 2/12/23 11/3/24
f 9/1/25 11/3/26 2/12/27
f 5/13/28 12/4/29 6/9/30
f 4/8/31 12/4/32 5/13/33
f 13/5/34 12/4/35 10/7/36
f 10/7/37 12/4/38 4/8/39
f 2/12/40 13/5/41 1/11/42
f 1/11/43 13/5/44 10/7/45
