# This file uses centimeters as units for non-parametric coordinates.

v -4.414429 19.297577 6.010462
v -35.432495 53.832905 -1.955023
v -5.002808 40.629757 16.769136
v 36.858429 53.545830 -9.716398
v 29.954803 51.678684 29.710649
v -23.075623 60.156132 -17.448957
v 6.406189 58.126114 26.800539
v 26.584106 58.252548 8.254328
v 0.318237 63.352879 3.734880
v -9.774536 19.103773 -0.950964
v 1.598755 25.807381 -10.060331
v -19.796509 57.215145 -36.209915
v 14.119202 56.410065 -36.831749
v -26.721252 55.264702 18.197855
v 19.764954 56.804386 -18.973906
v -26.044983 57.048477 7.066767
vt 0.293569 0.184741
vt 0.293569 0.184741
vt 0.293569 0.184741
vt 0.293569 0.184741
vt 0.293569 0.184741
vt 0.293569 0.184741
vt 0.293569 0.184741
vt 0.293569 0.184741
vt 0.293569 0.184741
vt 0.293569 0.184741
vt 0.293569 0.184741
vt 0.293569 0.184741
vt 0.293569 0.184741
vt 0.293569 0.184741
vt 0.293569 0.184741
vt 0.293569 0.184741
vt 0.293569 0.184741
vt 0.293569 0.184741
vt 0.293569 0.184741
vt 0.293569 0.184741
vt 0.293569 0.184741
vt 0.293569 0.184741
vt 0.293569 0.184741
vt 0.293569 0.184741
vt 0.293569 0.184741
vt 0.293569 0.184741
vt 0.293569 0.184741
vt 0.293569 0.184741
vt 0.293569 0.184741
vt 0.293569 0.184741
vt 0.293569 0.184741
vt 0.293569 0.184741
vt 0.293569 0.184741
vt 0.293569 0.184741
vt 0.293569 0.184741
vt 0.293569 0.184741
vt 0.293569 0.184741
vt 0.293569 0.184741
vt 0.293569 0.184741
vt 0.293569 0.184741
vt 0.293569 0.184741
vt 0.293569 0.184741
vt 0.293569 0.184741
vt 0.293569 0.184741
vn -0.598304 -0.373915 0.708675
vn -0.598304 -0.373915 0.708675
vn -0.598304 -0.373915 0.708675
vn -0.684137 -0.489818 0.540402
vn -0.684137 -0.489818 0.540402
vn -0.684137 -0.489818 0.540402
vn -0.448108 -0.354787 -0.820564
vn -0.448108 -0.354787 -0.820564
vn -0.448108 -0.354787 -0.820564
vn 0.438106 -0.395133 0.807424
vn 0.438106 -0.395133 0.807424
vn 0.438106 -0.395133 0.807424
vn -0.543826 -0.530524 -0.650229
vn -0.543826 -0.530524 -0.650229
vn -0.543826 -0.530524 -0.650229
vn -0.594121 -0.327191 0.734824
vn -0.594121 -0.327191 0.734824
vn -0.594121 -0.327191 0.734824
vn 0.264146 -0.646845 -0.715415
vn 0.264146 -0.646845 -0.715415
vn 0.264146 -0.646845 -0.715415
vn 0.871301 -0.471850 0.134880
vn 0.871301 -0.471850 0.134880
vn 0.871301 -0.471850 0.134880
vn -0.029363 -0.651306 -0.758247
vn -0.029363 -0.651306 -0.758247
vn -0.029363 -0.651306 -0.758247
vn -0.806242 -0.589594 -0.048493
vn -0.806242 -0.589594 -0.048493
vn -0.806242 -0.589594 -0.048493
vn -0.558636 -0.812992 -0.164224
vn -0.558636 -0.812992 -0.164224
vn -0.558636 -0.812992 -0.164223
vn -0.200572 -0.385572 0.900614
vn -0.200572 -0.385572 0.900614
vn -0.200572 -0.385572 0.900614
vn -0.214517 -0.376771 0.901125
vn -0.214517 -0.376771 0.901125
vn -0.214517 -0.376771 0.901125
vn 0.392349 -0.860393 -0.325247
vn 0.392349 -0.860393 -0.325247
vn 0.392349 -0.860393 -0.325247
vn 0.654374 -0.550576 0.518324
vn 0.654374 -0.550576 0.518324
vn 0.654374 -0.550576 0.518324
vn 0.804958 -0.541499 -0.242530
vn 0.804958 -0.541499 -0.242530
vn 0.804958 -0.541499 -0.242530
vn 0.020685 0.988270 -0.151306
vn 0.020685 0.988271 -0.151306
vn 0.020685 0.988271 -0.151306
vn -0.383095 0.921026 0.070350
vn -0.383095 0.921026 0.070350
vn -0.383095 0.921026 0.070350
vn 0.244504 0.963105 -0.112458
vn 0.244504 0.963105 -0.112458
vn 0.244504 0.963105 -0.112458
vn -0.123606 0.980976 0.149693
vn -0.123606 0.980976 0.149693
vn -0.123606 0.980976 0.149693
vn 0.226335 0.940709 0.252662
vn 0.226335 0.940709 0.252662
vn 0.226335 0.940709 0.252662
vn 0.076285 0.996019 -0.046110
vn 0.076285 0.996019 -0.046110
vn 0.076285 0.996019 -0.046110
vn 0.082063 0.987427 0.135108
vn 0.082063 0.987427 0.135108
vn 0.082063 0.987427 0.135108
vn 0.206732 0.972906 -0.103519
vn 0.206732 0.972906 -0.103519
vn 0.206732 0.972906 -0.103519
vn -0.261053 0.844759 -0.467155
vn -0.261053 0.844759 -0.467155
vn -0.261053 0.844759 -0.467155
vn -0.192472 0.944868 0.264912
vn -0.192472 0.944869 0.264912
vn -0.192472 0.944869 0.264912
vn 0.157892 0.971206 0.178404
vn 0.157892 0.971206 0.178404
vn 0.157892 0.971206 0.178404
vn 0.343605 -0.908118 -0.239285
vn 0.343606 -0.908118 -0.239285
vn 0.343605 -0.908118 -0.239285
s off
f 1/6/1 3/5/2 2/8/3
f 10/11/4 1/6/5 2/8/6
f 10/1/7 2/2/8 11/3/9
f 3/5/10 1/6/11 8/7/12
f 11/3/13 2/2/14 6/4/15
f 2/8/16 3/5/17 16/10/18
f 1/35/19 15/36/20 4/37/21
f 1/12/22 11/13/23 15/14/24
f 13/38/25 11/39/26 12/40/27
f 11/39/28 6/41/29 12/40/30
f 16/42/31 3/43/32 14/44/33
f 3/16/34 7/17/35 14/18/36
f 3/16/37 5/19/38 7/17/39
f 3/20/40 8/21/41 5/22/42
f 8/7/43 1/6/44 4/9/45
f 11/13/46 13/15/47 15/14/48
f 13/23/49 12/24/50 6/25/51
f 6/25/52 2/28/53 16/27/54
f 8/31/55 4/33/56 15/26/57
f 14/32/58 7/30/59 16/27/60
f 7/30/61 5/34/62 8/31/63
f 13/23/64 6/25/65 15/26/66
f 6/25/67 16/27/68 15/26/69
f 8/31/70 15/26/71 9/29/72
f 16/27/73 9/29/74 15/26/75
f 7/30/76 9/29/77 16/27/78
f 8/31/79 9/29/80 7/30/81
f 10/1/82 11/13/83 1/6/84
