# This file uses centimeters as units for non-parametric coordinates.

v 35.075989 20.038708 18.616226
v 26.880035 20.038708 -4.566605
v 15.051117 20.038708 -8.507339
v -7.542419 20.038708 7.832764
v -8.037415 20.038708 20.476807
v -0.477905 20.038708 29.166077
v 14.909821 20.038708 33.999146
v 34.347839 24.427696 18.567856
v 26.371002 24.427696 -3.999893
v 15.159760 24.427696 -7.728683
v -6.882935 24.427696 8.260773
v -7.308655 24.427696 20.255554
v -0.213470 24.427696 28.485764
v 14.525757 24.427696 33.395737
v 14.599304 20.038708 11.830185
v 14.619293 22.972240 11.861618
v 24.890900 20.038708 8.144577
v 23.141785 22.972240 8.926895
v 32.298584 24.427696 9.269913
v 33.086243 20.038708 8.913620
v 29.757996 24.427696 2.905014
v 30.531006 20.038708 2.724503
v 0.007324 24.427696 -2.748291
v -0.376892 20.038708 -3.351700
v 27.366028 24.427696 28.359879
v 27.867126 20.038708 28.731277
v -25.419617 20.038708 -6.870224
v -35.075989 20.038708 7.936600
v -27.792053 20.038708 16.105545
v -10.559692 20.038708 11.786240
v -9.606323 20.038708 2.519730
v -16.392365 20.038708 -5.590469
v -25.134888 24.427696 -6.478683
v -34.572296 24.427696 7.896774
v -27.441559 24.427696 15.719421
v -10.982056 24.427696 11.509064
v -10.065155 24.427696 2.674149
v -16.536560 24.427696 -5.138504
v -20.190125 20.038708 5.990799
v -20.182495 22.801579 5.967300
v -25.391541 20.038708 2.992905
v -24.249878 22.801579 3.551529
v -29.477539 24.427696 -2.234070
v -29.993744 20.038708 -2.483856
v -33.571930 24.427696 2.756470
v -34.026031 20.038708 2.489975
v -18.870087 24.427696 16.964462
v -19.014282 20.038708 17.416428
v 4.822693 20.038708 -30.597946
v -14.360199 20.038708 -32.598068
v -20.478821 20.038708 -21.037018
v -6.581421 20.038708 -2.763931
v 4.409943 20.038708 -8.405029
v 8.939819 20.038708 -20.488998
v 4.584656 24.427696 -30.110046
v -14.055939 24.427696 -32.120163
v -19.911957 24.427696 -20.892975
v -6.528931 24.427696 -3.328049
v 4.015808 24.427696 -8.778336
v 8.416290 24.427696 -20.394089
v -5.605774 20.038708 -18.404037
v -5.578461 22.861923 -18.408997
v -5.251160 20.038708 -26.527206
v -5.204163 22.861923 -25.102875
v -2.394104 24.427696 -31.312210
v -2.418213 20.038708 -31.954681
v -7.581177 24.427696 -33.409225
v -7.556152 20.038708 -33.999130
v -17.617035 24.427696 -9.474823
v -18.140564 20.038708 -9.379913
v -0.128479 -21.554203 -12.008163
v -6.009216 21.629971 -16.543762
v -6.708069 21.785969 -19.714920
v -3.667603 21.521576 -18.377182
v -1.290894 -21.398201 -17.492935
v 3.956757 -21.662598 -15.221054
v -13.782959 -21.569996 4.211319
v -21.664124 21.614185 7.212723
v -24.784546 21.807861 6.309402
v -22.153625 21.513363 4.278992
v -19.156799 -21.376324 2.608231
v -14.649658 -21.670818 -0.913422
v 3.246918 -21.671677 9.963501
v 12.369080 21.512497 13.682526
v 14.389801 21.602627 11.142548
v 15.275574 21.843327 14.344833
v 6.770020 -21.581554 5.603836
v 8.323822 -21.340847 11.107834
vt 0.410794 0.150532
vt 0.410786 0.150547
vt 0.410944 0.150643
vt 0.410963 0.150649
vt 0.411082 0.150456
vt 0.411440 0.150582
vt 0.411430 0.150562
vt 0.411084 0.150440
vt 0.411495 0.150725
vt 0.411507 0.150751
vt 0.411575 0.150919
vt 0.411561 0.150888
vt 0.411373 0.151278
vt 0.411366 0.151236
vt 0.410861 0.151230
vt 0.410868 0.151188
vt 0.410575 0.150939
vt 0.410591 0.150907
vt 0.410606 0.150772
vt 0.410592 0.150799
vt 0.410607 0.150669
vt 0.410619 0.150649
vt 0.411071 0.150837
vt 0.411071 0.150808
vt 0.410945 0.150478
vt 0.410934 0.150496
vt 0.410794 0.150532
vt 0.410786 0.150547
vt 0.410944 0.150643
vt 0.410963 0.150649
vt 0.411082 0.150456
vt 0.411440 0.150582
vt 0.411430 0.150562
vt 0.411084 0.150440
vt 0.411366 0.151236
vt 0.411495 0.150725
vt 0.411507 0.150751
vt 0.411373 0.151278
vt 0.410861 0.151230
vt 0.410868 0.151188
vt 0.410575 0.150939
vt 0.410591 0.150907
vt 0.410607 0.150669
vt 0.410619 0.150649
vt 0.411071 0.150837
vt 0.411071 0.150808
vt 0.410945 0.150478
vt 0.410934 0.150496
vt 0.410794 0.126499
vt 0.410786 0.126514
vt 0.410944 0.126610
vt 0.410963 0.126616
vt 0.411082 0.126423
vt 0.411440 0.126549
vt 0.411430 0.126529
vt 0.411084 0.126407
vt 0.411366 0.127203
vt 0.411495 0.126692
vt 0.411507 0.126718
vt 0.411373 0.127245
vt 0.410861 0.127197
vt 0.410868 0.127155
vt 0.410575 0.126906
vt 0.410591 0.126874
vt 0.410607 0.126636
vt 0.410619 0.126616
vt 0.411071 0.126804
vt 0.411071 0.126775
vt 0.410945 0.126445
vt 0.410934 0.126463
vt 0.411366 0.125467
vt 0.411349 0.126252
vt 0.411084 0.126200
vt 0.411145 0.125424
vt 0.411301 0.125252
vt 0.411271 0.125988
vt 0.411366 0.125467
vt 0.411349 0.126252
vt 0.411084 0.126200
vt 0.411145 0.125424
vt 0.411301 0.125252
vt 0.411271 0.125988
vt 0.411366 0.125467
vt 0.411349 0.126252
vt 0.411084 0.126200
vt 0.411145 0.125424
vt 0.411301 0.125252
vt 0.411271 0.125988
vn 0.048822 0.169958 -0.984241
vn 0.048822 0.169958 -0.984241
vn 0.048822 0.169958 -0.984241
vn 0.048822 0.169958 -0.984241
vn 0.311879 0.157824 -0.936922
vn 0.311879 0.157824 -0.936922
vn 0.311879 0.157824 -0.936922
vn 0.311879 0.157824 -0.936922
vn -0.833774 0.161184 -0.528053
vn -0.833774 0.161184 -0.528053
vn -0.833774 0.161184 -0.528053
vn -0.833774 0.161184 -0.528053
vn -0.986917 0.156952 -0.036880
vn -0.986917 0.156952 -0.036880
vn -0.986917 0.156952 -0.036880
vn -0.986917 0.156952 -0.036880
vn -0.747216 0.151017 0.647196
vn -0.747216 0.151017 0.647196
vn -0.747216 0.151017 0.647196
vn -0.747216 0.151017 0.647196
vn -0.304945 0.133742 0.942933
vn -0.304945 0.133742 0.942933
vn -0.304945 0.133742 0.942933
vn -0.304945 0.133742 0.942933
vn 0.806224 0.140385 0.574713
vn 0.806224 0.140385 0.574713
vn 0.806224 0.140385 0.574713
vn 0.806224 0.140385 0.574713
vn 0.000000 -1.000000 -0.000000
vn 0.000000 -1.000000 -0.000000
vn 0.000000 -1.000000 -0.000000
vn 0.000000 -1.000000 0.000000
vn 0.000000 -1.000000 0.000000
vn 0.000000 -1.000000 0.000000
vn 0.000000 -1.000000 0.000000
vn 0.000000 -1.000000 0.000000
vn 0.000000 -1.000000 0.000000
vn 0.000000 -1.000000 0.000000
vn 0.000000 -1.000000 0.000000
vn 0.000000 -1.000000 0.000000
vn 0.000000 -1.000000 -0.000000
vn 0.000000 -1.000000 -0.000000
vn 0.000000 -1.000000 -0.000000
vn 0.000000 -1.000000 0.000000
vn 0.000000 -1.000000 0.000000
vn 0.000000 -1.000000 0.000000
vn -0.088797 0.994941 -0.046989
vn -0.088797 0.994941 -0.046989
vn -0.088797 0.994941 -0.046989
vn -0.088797 0.994941 -0.046989
vn -0.024412 0.997004 0.073399
vn -0.024412 0.997004 0.073399
vn -0.024412 0.997004 0.073398
vn 0.061108 0.997398 0.038246
vn 0.061108 0.997398 0.038246
vn 0.061108 0.997398 0.038245
vn 0.067137 0.997741 0.002383
vn 0.067137 0.997741 0.002383
vn 0.067137 0.997741 0.002383
vn 0.049798 0.997836 -0.042930
vn 0.049798 0.997836 -0.042930
vn 0.049798 0.997836 -0.042930
vn 0.022426 0.997479 -0.067321
vn 0.022426 0.997479 -0.067321
vn 0.022426 0.997479 -0.067321
vn -0.059224 0.997351 -0.042228
vn -0.059224 0.997351 -0.042228
vn -0.059224 0.997351 -0.042228
vn 0.883460 0.166316 -0.437993
vn 0.883460 0.166316 -0.437993
vn 0.883460 0.166316 -0.437993
vn 0.883460 0.166316 -0.437993
vn 0.963305 0.173530 -0.204772
vn 0.963305 0.173530 -0.204772
vn 0.963305 0.173530 -0.204772
vn 0.963305 0.173530 -0.204772
vn 0.667747 0.133708 0.732281
vn 0.667747 0.133708 0.732281
vn 0.667747 0.133708 0.732281
vn 0.667747 0.133708 0.732281
vn 0.000000 -1.000000 0.000000
vn 0.000000 -1.000000 0.000000
vn 0.000000 -1.000000 0.000000
vn 0.000000 -1.000000 0.000000
vn 0.000000 -1.000000 0.000000
vn 0.000000 -1.000000 0.000000
vn 0.000000 -1.000000 0.000000
vn 0.000000 -1.000000 0.000000
vn -0.034443 0.994052 0.103319
vn -0.034443 0.994052 0.103319
vn -0.034443 0.994052 0.103319
vn -0.034443 0.994052 0.103319
vn 0.024567 0.996900 0.074742
vn 0.024567 0.996900 0.074742
vn 0.024567 0.996900 0.074742
vn -0.310319 0.164831 -0.936233
vn -0.310319 0.164831 -0.936233
vn -0.310319 0.164831 -0.936233
vn -0.310319 0.164831 -0.936233
vn 0.000000 -1.000000 -0.000000
vn 0.000000 -1.000000 -0.000000
vn 0.000000 -1.000000 -0.000000
vn -0.026483 0.997366 -0.067525
vn -0.026483 0.997366 -0.067525
vn -0.026483 0.997366 -0.067525
vn 0.367307 0.139165 0.919630
vn 0.367307 0.139165 0.919630
vn 0.367307 0.139165 0.919630
vn 0.367307 0.139165 0.919630
vn 0.000000 -1.000000 -0.000000
vn 0.000000 -1.000000 -0.000000
vn 0.000000 -1.000000 -0.000000
vn -0.742815 0.097318 0.662386
vn -0.742815 0.097318 0.662386
vn -0.742815 0.097318 0.662386
vn -0.742815 0.097318 0.662386
vn -0.738737 0.104197 0.665891
vn -0.738737 0.104197 0.665891
vn -0.738737 0.104197 0.665891
vn -0.738737 0.104197 0.665891
vn 0.559271 0.086210 0.824490
vn 0.559271 0.086210 0.824490
vn 0.559271 0.086210 0.824490
vn 0.559271 0.086210 0.824490
vn 0.989641 0.100776 0.102251
vn 0.989641 0.100776 0.102251
vn 0.989641 0.100776 0.102251
vn 0.989641 0.100776 0.102251
vn 0.764907 0.096542 -0.636865
vn 0.764907 0.096542 -0.636865
vn 0.764907 0.096542 -0.636865
vn 0.764907 0.096542 -0.636865
vn 0.146400 0.092299 -0.984910
vn 0.146401 0.092299 -0.984910
vn 0.146401 0.092299 -0.984910
vn 0.146401 0.092299 -0.984910
vn 0.000000 -1.000000 0.000000
vn 0.000000 -1.000000 0.000000
vn 0.000000 -1.000000 0.000000
vn 0.000000 -1.000000 0.000000
vn 0.000000 -1.000000 0.000000
vn 0.000000 -1.000000 0.000000
vn 0.000000 -1.000000 0.000000
vn 0.000000 -1.000000 0.000000
vn 0.000000 -1.000000 0.000000
vn 0.000000 -1.000000 0.000000
vn 0.000000 -1.000000 0.000000
vn 0.000000 -1.000000 0.000000
vn 0.000000 -1.000000 0.000000
vn 0.000000 -1.000000 0.000000
vn 0.000000 -1.000000 0.000000
vn 0.034142 0.987008 0.157004
vn 0.034142 0.987008 0.157004
vn 0.034142 0.987008 0.157004
vn 0.034142 0.987008 0.157004
vn 0.099775 0.990845 -0.090950
vn 0.099775 0.990845 -0.090950
vn 0.099775 0.990845 -0.090950
vn -0.093192 0.986488 -0.134748
vn -0.093192 0.986488 -0.134748
vn -0.093192 0.986488 -0.134748
vn -0.164066 0.986302 -0.017027
vn -0.164066 0.986302 -0.017027
vn -0.164066 0.986302 -0.017027
vn -0.124917 0.986757 0.103472
vn -0.124917 0.986757 0.103472
vn -0.124917 0.986757 0.103472
vn -0.021498 0.990209 0.137929
vn -0.021498 0.990209 0.137929
vn -0.021498 0.990209 0.137929
vn -0.975654 0.111340 -0.188951
vn -0.975654 0.111340 -0.188951
vn -0.975654 0.111340 -0.188951
vn -0.975654 0.111340 -0.188951
vn -0.690869 0.115185 -0.713746
vn -0.690869 0.115185 -0.713746
vn -0.690869 0.115185 -0.713746
vn -0.690869 0.115185 -0.713746
vn 0.080451 0.096506 -0.992076
vn 0.080451 0.096506 -0.992076
vn 0.080451 0.096506 -0.992076
vn 0.080451 0.096506 -0.992076
vn 0.000000 -1.000000 0.000000
vn 0.000000 -1.000000 0.000000
vn 0.000000 -1.000000 0.000000
vn 0.000000 -1.000000 0.000000
vn 0.000000 -1.000000 -0.000000
vn 0.000000 -1.000000 -0.000000
vn 0.000000 -1.000000 -0.000000
vn 0.000000 -1.000000 -0.000000
vn 0.133147 0.989622 -0.054044
vn 0.133147 0.989622 -0.054044
vn 0.133147 0.989622 -0.054044
vn 0.133147 0.989622 -0.054044
vn 0.021609 0.988636 -0.148766
vn 0.021609 0.988636 -0.148766
vn 0.021609 0.988636 -0.148766
vn -0.144987 0.102134 0.984148
vn -0.144987 0.102134 0.984148
vn -0.144987 0.102134 0.984148
vn -0.144987 0.102134 0.984148
vn 0.000000 -1.000000 0.000000
vn 0.000000 -1.000000 0.000000
vn 0.000000 -1.000000 0.000000
vn -0.898984 0.128822 -0.418608
vn -0.898984 0.128822 -0.418608
vn -0.898984 0.128822 -0.418608
vn -0.898984 0.128822 -0.418608
vn -0.878835 0.119935 -0.461806
vn -0.878835 0.119935 -0.461806
vn -0.878835 0.119935 -0.461806
vn -0.878835 0.119935 -0.461806
vn -0.488630 0.097161 0.867064
vn -0.488630 0.097161 0.867064
vn -0.488630 0.097161 0.867064
vn -0.488630 0.097161 0.867064
vn 0.454976 0.112050 0.883426
vn 0.454976 0.112050 0.883426
vn 0.454976 0.112050 0.883426
vn 0.454976 0.112050 0.883426
vn 0.930259 0.108368 0.350534
vn 0.930259 0.108368 0.350534
vn 0.930259 0.108368 0.350534
vn 0.930259 0.108368 0.350534
vn 0.923075 0.104659 -0.370106
vn 0.923075 0.104659 -0.370106
vn 0.923076 0.104659 -0.370106
vn 0.923075 0.104659 -0.370106
vn 0.000000 -1.000000 0.000000
vn 0.000000 -1.000000 0.000000
vn 0.000000 -1.000000 0.000000
vn 0.000000 -1.000000 0.000000
vn 0.000000 -1.000000 0.000000
vn 0.000000 -1.000000 0.000000
vn 0.000000 -1.000000 0.000000
vn 0.000000 -1.000000 0.000000
vn 0.000000 -1.000000 0.000000
vn 0.000000 -1.000000 0.000000
vn 0.000000 -1.000000 0.000000
vn 0.000000 -1.000000 0.000000
vn 0.000000 -1.000000 0.000000
vn 0.000000 -1.000000 0.000000
vn 0.000000 -1.000000 0.000000
vn -0.110849 0.989503 0.092717
vn -0.110849 0.989503 0.092717
vn -0.110849 0.989503 0.092717
vn -0.110849 0.989503 0.092717
vn 0.099550 0.993677 0.051924
vn 0.099550 0.993677 0.051924
vn 0.099550 0.993677 0.051924
vn 0.055251 0.993486 -0.099666
vn 0.055251 0.993486 -0.099666
vn 0.055251 0.993486 -0.099666
vn -0.055071 0.992782 -0.106546
vn -0.055071 0.992782 -0.106546
vn -0.055071 0.992782 -0.106546
vn -0.117303 0.992101 -0.044439
vn -0.117303 0.992101 -0.044439
vn -0.117303 0.992101 -0.044439
vn -0.105275 0.993576 0.041517
vn -0.105275 0.993576 0.041517
vn -0.105275 0.993576 0.041517
vn -0.197008 0.124562 -0.972457
vn -0.197008 0.124562 -0.972457
vn -0.197008 0.124562 -0.972457
vn -0.197008 0.124562 -0.972457
vn 0.175609 0.129943 -0.975846
vn 0.175609 0.129943 -0.975846
vn 0.175609 0.129943 -0.975846
vn 0.175609 0.129943 -0.975847
vn 0.958015 0.074413 -0.276895
vn 0.958015 0.074413 -0.276895
vn 0.958015 0.074413 -0.276895
vn 0.958015 0.074413 -0.276895
vn 0.000000 -1.000000 0.000000
vn 0.000000 -1.000000 0.000000
vn 0.000000 -1.000000 0.000000
vn 0.000000 -1.000000 0.000000
vn 0.000000 -1.000000 0.000000
vn 0.000000 -1.000000 0.000000
vn 0.000000 -1.000000 0.000000
vn 0.000000 -1.000000 0.000000
vn 0.104283 0.990515 0.089471
vn 0.104282 0.990515 0.089471
vn 0.104283 0.990515 0.089471
vn 0.104283 0.990515 0.089471
vn 0.112434 0.993402 -0.022598
vn 0.112434 0.993402 -0.022598
vn 0.112434 0.993402 -0.022598
vn -0.973369 0.119817 0.195438
vn -0.973369 0.119817 0.195438
vn -0.973369 0.119817 0.195439
vn -0.973369 0.119817 0.195439
vn 0.000000 -1.000000 0.000000
vn 0.000000 -1.000000 0.000000
vn 0.000000 -1.000000 0.000000
vn 0.612571 0.164634 0.773080
vn 0.612571 0.164634 0.773080
vn 0.612571 0.164634 0.773080
vn 0.612571 0.164634 0.773080
vn 0.399464 0.003233 -0.916743
vn 0.399464 0.003233 -0.916743
vn 0.399464 0.003233 -0.916743
vn 0.399464 0.003233 -0.916743
vn -0.972411 -0.111155 0.205089
vn -0.972411 -0.111155 0.205089
vn -0.972411 -0.111155 0.205089
vn -0.972411 -0.111155 0.205089
vn 0.967714 0.188280 -0.167573
vn 0.967714 0.188280 -0.167573
vn 0.967714 0.188280 -0.167573
vn 0.967714 0.188280 -0.167573
vn -0.614541 -0.012212 -0.788790
vn -0.614541 -0.012212 -0.788790
vn -0.614541 -0.012212 -0.788790
vn -0.614541 -0.012212 -0.788790
vn -0.285980 -0.118523 0.950877
vn -0.285980 -0.118523 0.950877
vn -0.285980 -0.118523 0.950877
vn -0.285980 -0.118523 0.950877
vn -0.217556 -0.038061 0.975305
vn -0.217556 -0.038061 0.975305
vn -0.217556 -0.038061 0.975305
vn -0.217556 -0.038061 0.975305
vn 0.956031 -0.134834 -0.260433
vn 0.956031 -0.134834 -0.260432
vn 0.956031 -0.134834 -0.260433
vn 0.956031 -0.134834 -0.260433
vn -0.764298 0.213383 -0.608536
vn -0.764298 0.213383 -0.608536
vn -0.764298 0.213383 -0.608536
vn -0.764298 0.213383 -0.608536
s off
f 19/1/1 20/2/2 17/3/3 18/4/4
f 2/5/5 3/6/6 10/7/7 9/8/8
f 23/9/9 24/10/10 4/11/11 11/12/12
f 4/11/13 5/13/14 12/14/15 11/12/16
f 5/13/17 6/15/18 13/16/19 12/14/20
f 6/15/21 7/17/22 14/18/23 13/16/24
f 25/19/25 26/20/26 1/21/27 8/22/28
f 3/6/29 2/5/30 15/23/31
f 4/11/32 24/10/33 15/23/34
f 5/13/35 4/11/36 15/23/37
f 6/15/38 5/13/39 15/23/40
f 7/17/41 6/15/42 15/23/43
f 1/21/44 26/20/45 15/23/46
f 8/22/47 19/1/48 18/4/49 16/24/50
f 9/8/51 10/7/52 16/24/53
f 16/24/54 23/9/55 11/12/56
f 11/12/57 12/14/58 16/24/59
f 12/14/60 13/16/61 16/24/62
f 13/16/63 14/18/64 16/24/65
f 16/24/66 25/19/67 8/22/68
f 21/25/69 22/26/70 2/5/71 9/8/72
f 1/21/73 20/2/74 19/1/75 8/22/76
f 18/4/77 17/3/78 22/26/79 21/25/80
f 2/5/81 22/26/82 17/3/83 15/23/84
f 15/23/85 17/3/86 20/2/87 1/21/88
f 16/24/89 18/4/90 21/25/91 9/8/92
f 10/7/93 23/9/94 16/24/95
f 3/6/96 24/10/97 23/9/98 10/7/99
f 15/23/100 24/10/101 3/6/102
f 14/18/103 25/19/104 16/24/105
f 7/17/106 26/20/107 25/19/108 14/18/109
f 15/23/110 26/20/111 7/17/112
f 43/27/113 44/28/114 41/29/115 42/30/116
f 28/31/117 29/32/118 35/33/119 34/34/120
f 36/35/121 47/36/122 48/37/123 30/38/124
f 30/38/125 31/39/126 37/40/127 36/35/128
f 31/39/129 32/41/130 38/42/131 37/40/132
f 27/43/133 33/44/134 38/42/135 32/41/136
f 29/32/137 28/31/138 39/45/139
f 30/38/140 48/37/141 39/45/142
f 31/39/143 30/38/144 39/45/145
f 32/41/146 31/39/147 39/45/148
f 39/45/149 27/43/150 32/41/151
f 33/44/152 43/27/153 42/30/154 40/46/155
f 34/34/156 35/33/157 40/46/158
f 40/46/159 47/36/160 36/35/161
f 36/35/162 37/40/163 40/46/164
f 37/40/165 38/42/166 40/46/167
f 33/44/168 40/46/169 38/42/170
f 45/47/171 46/48/172 28/31/173 34/34/174
f 27/43/175 44/28/176 43/27/177 33/44/178
f 42/30/179 41/29/180 46/48/181 45/47/182
f 28/31/183 46/48/184 41/29/185 39/45/186
f 39/45/187 41/29/188 44/28/189 27/43/190
f 40/46/191 42/30/192 45/47/193 34/34/194
f 35/33/195 47/36/196 40/46/197
f 29/32/198 48/37/199 47/36/200 35/33/201
f 39/45/202 48/37/203 29/32/204
f 65/49/205 66/50/206 63/51/207 64/52/208
f 50/53/209 51/54/210 57/55/211 56/56/212
f 58/57/213 69/58/214 70/59/215 52/60/216
f 52/60/217 53/61/218 59/62/219 58/57/220
f 53/61/221 54/63/222 60/64/223 59/62/224
f 49/65/225 55/66/226 60/64/227 54/63/228
f 51/54/229 50/53/230 61/67/231
f 52/60/232 70/59/233 61/67/234
f 53/61/235 52/60/236 61/67/237
f 54/63/238 53/61/239 61/67/240
f 61/67/241 49/65/242 54/63/243
f 55/66/244 65/49/245 64/52/246 62/68/247
f 56/56/248 57/55/249 62/68/250
f 62/68/251 69/58/252 58/57/253
f 58/57/254 59/62/255 62/68/256
f 59/62/257 60/64/258 62/68/259
f 55/66/260 62/68/261 60/64/262
f 67/69/263 68/70/264 50/53/265 56/56/266
f 49/65/267 66/50/268 65/49/269 55/66/270
f 64/52/271 63/51/272 68/70/273 67/69/274
f 50/53/275 68/70/276 63/51/277 61/67/278
f 61/67/279 63/51/280 66/50/281 49/65/282
f 62/68/283 64/52/284 67/69/285 56/56/286
f 57/55/287 69/58/288 62/68/289
f 51/54/290 70/59/291 69/58/292 57/55/293
f 61/67/294 70/59/295 51/54/296
f 72/71/297 71/72/298 76/73/299 74/74/300
f 73/75/301 74/74/302 76/73/303 75/76/304
f 75/76/305 71/72/306 72/71/307 73/75/308
f 78/77/309 77/78/310 82/79/311 80/80/312
f 79/81/313 80/80/314 82/79/315 81/82/316
f 81/82/317 77/78/318 78/77/319 79/81/320
f 84/83/321 83/84/322 88/85/323 86/86/324
f 85/87/325 86/86/326 88/85/327 87/88/328
f 87/88/329 83/84/330 84/83/331 85/87/332
