# This file uses centimeters as units for non-parametric coordinates.

v -78.369385 -81.638641 0.192917
v 78.369385 -81.638641 0.192917
v -78.369385 81.638657 0.192917
v 78.369385 81.638657 0.192917
v 39.366917 -81.638641 0.192917
v 24.899582 81.638657 0.192917
v -37.539028 -81.638657 0.192917
v -47.450180 81.638657 0.192917
v -78.369385 46.756523 0.192917
v 78.369385 28.386267 0.192917
v 32.184452 38.412930 4.714235
v -42.250759 49.453712 4.431654
v -78.369385 -49.839905 0.192917
v 78.369385 -26.002434 0.192917
v 39.122543 -29.190634 4.211899
v -33.612389 -37.320896 7.610627
v 3.767116 2.753134 0.503731
v -78.369385 -81.638641 0.192917
v 78.369385 -81.638641 0.192917
v -78.369385 81.638657 0.192917
v 78.369385 81.638657 0.192917
v 39.366917 -81.638641 0.192917
v 24.899582 81.638657 0.192917
v -37.539028 -81.638657 0.192917
v -47.450180 81.638657 0.192917
v -78.369385 46.756523 0.192917
v 78.369385 28.386267 0.192917
v 32.184452 38.412930 4.714235
v -42.250759 49.453712 4.431654
v -78.369385 -49.839905 0.192917
v 78.369385 -26.002434 0.192917
v 39.122543 -29.190634 4.211899
v -33.612389 -37.320896 7.610627
v 3.767116 2.753134 0.503731
v -8.555552 21.876060 3.718946
v 29.938171 2.442997 3.718946
v -16.829184 40.055511 3.718946
v 6.051041 55.590439 3.718946
v 16.835070 55.940414 3.718946
v 28.246284 68.402908 3.718946
v 49.558090 56.869141 3.718946
v 49.938950 37.591137 3.718946
v 66.140503 4.406487 3.718946
v -3.213881 34.205509 5.303662
v 41.650631 16.767843 5.006009
v 28.774763 47.799507 5.435735
v 21.988947 23.860270 7.715367
v 6.733030 -68.641586 5.494296
v 13.622608 -26.846645 5.494296
v -9.132039 11.321358 5.494296
v -49.762508 5.844940 5.494295
v -51.638004 -13.924421 5.494296
v -24.474232 -30.472038 5.494296
v -4.280590 -63.429729 5.494296
v -20.345558 -8.604898 9.072943
v -4.932248 -28.941710 10.008195
v 51.535721 -12.863120 4.211911
v 46.718666 -40.510971 4.211916
v 34.549915 -24.867899 4.211922
v 64.325211 -31.097870 4.211899
v 49.075226 -26.758659 7.108928
vt 0.617349 0.065242
vt 0.710864 0.065242
vt 0.719857 0.166745
vt 0.617349 0.138072
vt 0.853869 0.439202
vt 0.870554 0.340201
vt 0.976333 0.317236
vt 0.976333 0.439202
vt 0.688164 0.439202
vt 0.700073 0.365488
vt 0.617349 0.359310
vt 0.617349 0.439202
vt 0.886445 0.185366
vt 0.976333 0.192668
vt 0.805469 0.258528
vt 0.887004 0.065242
vt 0.976333 0.065242
vt 0.617349 0.065242
vt 0.710864 0.065242
vt 0.719857 0.166745
vt 0.617349 0.138072
vt 0.853869 0.439202
vt 0.870554 0.340201
vt 0.976333 0.317236
vt 0.976333 0.439202
vt 0.688164 0.439202
vt 0.700073 0.365488
vt 0.617349 0.359310
vt 0.617349 0.439202
vt 0.886445 0.185366
vt 0.976333 0.192668
vt 0.805469 0.258528
vt 0.887004 0.065242
vt 0.976333 0.065242
vt 0.702077 0.044164
vt 0.630169 0.098727
vt 0.635022 0.044160
vt 0.572743 0.097688
vt 0.584307 0.037977
vt 0.481763 0.030554
vt 0.517917 0.032788
vt 0.514576 0.089657
vt 0.548893 0.142064
vt 0.608102 0.140373
vt 0.519843 0.000000
vt 0.625245 0.000000
vt 0.537722 0.102300
vt 0.585700 0.358733
vt 0.570506 0.279169
vt 0.619884 0.345786
vt 0.614397 0.432601
vt 0.577049 0.407932
vt 0.538747 0.459404
vt 0.550302 0.373546
vt 0.517800 0.426656
vt 0.555989 0.298095
vt 0.745962 0.809442
vt 0.791223 0.796563
vt 0.753265 0.850683
vt 0.702851 0.815053
vt 0.738968 0.768625
vn 0.072455 0.093034 -0.993023
vn 0.072455 0.093034 -0.993023
vn 0.072455 0.093034 -0.993023
vn 0.072455 0.093034 -0.993023
vn -0.050340 -0.050545 -0.997452
vn -0.050340 -0.050545 -0.997452
vn -0.050340 -0.050545 -0.997452
vn -0.050340 -0.050545 -0.997452
vn -0.006851 -0.116505 -0.993167
vn -0.006851 -0.116505 -0.993167
vn -0.006851 -0.116505 -0.993167
vn -0.006851 -0.116505 -0.993167
vn 0.065317 -0.057896 -0.996184
vn 0.065317 -0.057896 -0.996184
vn 0.065317 -0.057896 -0.996184
vn 0.065317 -0.057896 -0.996184
vn -0.099595 -0.001567 -0.995027
vn -0.099595 -0.001567 -0.995027
vn -0.099595 -0.001567 -0.995027
vn -0.099595 -0.001567 -0.995027
vn -0.029693 -0.147625 -0.988598
vn -0.029693 -0.147625 -0.988598
vn -0.029693 -0.147625 -0.988598
vn 0.144553 -0.010344 -0.989443
vn 0.144553 -0.010344 -0.989443
vn 0.144553 -0.010344 -0.989443
vn 0.144553 -0.010344 -0.989443
vn -0.052762 0.036987 -0.997922
vn -0.052762 0.036987 -0.997922
vn -0.052762 0.036987 -0.997922
vn -0.052762 0.036987 -0.997922
vn -0.028977 0.118411 -0.992542
vn -0.028977 0.118411 -0.992542
vn -0.028977 0.118411 -0.992542
vn -0.028977 0.118411 -0.992542
vn 0.018954 0.102329 -0.994570
vn 0.018954 0.102329 -0.994570
vn 0.018954 0.102329 -0.994570
vn -0.134890 -0.049683 -0.989614
vn -0.134890 -0.049683 -0.989614
vn -0.134890 -0.049683 -0.989614
vn 0.122057 0.019900 -0.992324
vn 0.122057 0.019900 -0.992324
vn 0.122057 0.019900 -0.992324
vn -0.072455 -0.093034 0.993023
vn -0.072455 -0.093034 0.993023
vn -0.072455 -0.093034 0.993023
vn -0.072455 -0.093034 0.993023
vn 0.050340 0.050545 0.997452
vn 0.050340 0.050545 0.997452
vn 0.050340 0.050545 0.997452
vn 0.050340 0.050545 0.997452
vn 0.006851 0.116505 0.993167
vn 0.006851 0.116505 0.993167
vn 0.006851 0.116505 0.993167
vn 0.006851 0.116505 0.993167
vn -0.065317 0.057896 0.996184
vn -0.065317 0.057896 0.996184
vn -0.065317 0.057896 0.996184
vn -0.065317 0.057896 0.996184
vn 0.099595 0.001567 0.995027
vn 0.099595 0.001567 0.995027
vn 0.099595 0.001567 0.995027
vn 0.099595 0.001567 0.995027
vn 0.029693 0.147625 0.988598
vn 0.029693 0.147625 0.988598
vn 0.029693 0.147625 0.988598
vn -0.144553 0.010344 0.989443
vn -0.144553 0.010344 0.989443
vn -0.144553 0.010344 0.989443
vn -0.144553 0.010344 0.989443
vn 0.052762 -0.036987 0.997922
vn 0.052762 -0.036987 0.997922
vn 0.052762 -0.036987 0.997922
vn 0.052762 -0.036987 0.997922
vn 0.028977 -0.118411 0.992542
vn 0.028977 -0.118411 0.992542
vn 0.028977 -0.118411 0.992542
vn 0.028977 -0.118411 0.992542
vn -0.018954 -0.102329 0.994570
vn -0.018954 -0.102329 0.994570
vn -0.018954 -0.102329 0.994570
vn 0.134890 0.049683 0.989614
vn 0.134890 0.049683 0.989614
vn 0.134890 0.049683 0.989614
vn -0.122057 -0.019900 0.992324
vn -0.122057 -0.019900 0.992324
vn -0.122057 -0.019900 0.992324
vn 0.069532 0.033947 0.997002
vn 0.069532 0.033947 0.997002
vn 0.069532 0.033947 0.997002
vn 0.110855 0.063025 0.991836
vn 0.110855 0.063025 0.991836
vn 0.110855 0.063025 0.991836
vn 0.138640 0.006028 0.990325
vn 0.138640 0.006028 0.990325
vn 0.138640 0.006028 0.990325
vn -0.070716 0.104152 0.992044
vn -0.070716 0.104152 0.992044
vn -0.070716 0.104152 0.992044
vn 0.045520 0.084111 0.995416
vn 0.045520 0.084111 0.995416
vn 0.045520 0.084111 0.995416
vn 0.081625 0.001613 0.996662
vn 0.081625 0.001613 0.996662
vn 0.081625 0.001613 0.996662
vn -0.142890 -0.065031 0.987600
vn -0.142890 -0.065031 0.987600
vn -0.142890 -0.065031 0.987600
vn 0.080149 -0.154016 0.984812
vn 0.080149 -0.154016 0.984812
vn 0.080149 -0.154016 0.984812
vn 0.005077 -0.093604 0.995597
vn 0.005077 -0.093604 0.995597
vn 0.005077 -0.093604 0.995597
vn -0.087891 0.080477 0.992874
vn -0.087891 0.080477 0.992874
vn -0.087891 0.080477 0.992874
vn -0.006404 0.197340 0.980314
vn -0.006404 0.197340 0.980314
vn -0.006404 0.197340 0.980314
vn -0.050338 0.108808 0.992787
vn -0.050338 0.108808 0.992787
vn -0.050338 0.108808 0.992787
vn -0.043430 0.092532 0.994762
vn -0.043430 0.092532 0.994762
vn -0.043430 0.092532 0.994762
vn -0.112268 -0.222385 0.968474
vn -0.112268 -0.222385 0.968474
vn -0.112268 -0.222385 0.968474
vn -0.124713 -0.073149 0.989493
vn -0.124713 -0.073149 0.989493
vn -0.124713 -0.073149 0.989493
vn 0.240416 -0.039631 0.969861
vn 0.240416 -0.039631 0.969861
vn 0.240416 -0.039631 0.969861
vn 0.152505 0.090919 0.984112
vn 0.152505 0.090919 0.984112
vn 0.152505 0.090919 0.984112
vn 0.209763 0.202965 0.956454
vn 0.209763 0.202965 0.956454
vn 0.209763 0.202965 0.956454
vn -0.025704 0.190703 0.981311
vn -0.025704 0.190703 0.981311
vn -0.025704 0.190703 0.981311
vn -0.088119 -0.144652 0.985551
vn -0.088119 -0.144652 0.985551
vn -0.088119 -0.144652 0.985551
vn -0.115452 0.010953 0.993253
vn -0.115452 0.010953 0.993253
vn -0.115452 0.010953 0.993253
vn -0.214692 -0.118129 0.969512
vn -0.214692 -0.118129 0.969512
vn -0.214692 -0.118129 0.969512
vn -0.061838 -0.130677 0.989495
vn -0.061838 -0.130677 0.989495
vn -0.061838 -0.130677 0.989495
vn -0.213395 -0.130750 0.968177
vn -0.213395 -0.130750 0.968177
vn -0.213395 -0.130750 0.968177
vn 0.227949 0.159878 0.960457
vn 0.227949 0.159878 0.960457
vn 0.227949 0.159878 0.960457
vn -0.161681 0.228767 0.959961
vn -0.161681 0.228767 0.959961
vn -0.161681 0.228767 0.959961
vn -0.213634 -0.166186 0.962675
vn -0.213634 -0.166186 0.962675
vn -0.213634 -0.166186 0.962675
vn 0.119908 -0.224277 0.967120
vn 0.119908 -0.224277 0.967120
vn 0.119908 -0.224277 0.967120
s off
f 1/1/1 13/4/2 16/3/3 7/2/4
f 6/5/5 4/8/6 10/7/7 11/6/8
f 8/9/9 6/5/10 11/6/11 12/10/12
f 9/11/13 3/12/14 8/9/15 12/10/16
f 10/7/17 14/14/18 15/13/19 11/6/20
f 15/13/21 16/3/22 17/15/23
f 13/4/24 9/11/25 12/10/26 16/3/27
f 14/14/28 2/17/29 5/16/30 15/13/31
f 15/13/32 5/16/33 7/2/34 16/3/35
f 11/6/36 17/15/37 12/10/38
f 17/15/39 16/3/40 12/10/41
f 11/6/42 15/13/43 17/15/44
f 18/18/45 24/19/46 33/20/47 30/21/48
f 23/22/49 28/23/50 27/24/51 21/25/52
f 25/26/53 29/27/54 28/23/55 23/22/56
f 26/28/57 29/27/58 25/26/59 20/29/60
f 27/24/61 28/23/62 32/30/63 31/31/64
f 32/30/65 34/32/66 33/20/67
f 30/21/68 33/20/69 29/27/70 26/28/71
f 31/31/72 32/30/73 22/33/74 19/34/75
f 32/30/76 33/20/77 24/19/78 22/33/79
f 28/23/80 29/27/81 34/32/82
f 34/32/83 29/27/84 33/20/85
f 28/23/86 34/32/87 32/30/88
f 43/35/89 42/36/90 45/37/91
f 46/38/92 47/39/93 42/36/94
f 42/36/95 47/39/96 45/37/97
f 37/40/98 44/41/99 38/42/100
f 40/43/101 46/38/102 41/44/103
f 41/44/104 46/38/105 42/36/106
f 37/40/107 35/45/108 44/41/109
f 47/39/110 36/46/111 45/37/112
f 43/35/113 45/37/114 36/46/115
f 39/47/116 46/38/117 40/43/118
f 38/42/119 46/38/120 39/47/121
f 47/39/122 46/38/123 44/41/124
f 44/41/125 46/38/126 38/42/127
f 36/46/128 47/39/129 35/45/130
f 35/45/131 47/39/132 44/41/133
f 56/48/134 48/49/135 49/50/136
f 50/51/137 55/52/138 49/50/139
f 49/50/140 55/52/141 56/48/142
f 51/53/143 55/52/144 50/51/145
f 53/54/146 55/52/147 52/55/148
f 52/55/149 55/52/150 51/53/151
f 56/48/152 55/52/153 53/54/154
f 48/49/155 56/48/156 54/56/157
f 54/56/158 56/48/159 53/54/160
f 61/57/161 60/58/162 57/59/163
f 61/57/164 57/59/165 59/60/166
f 61/57/167 59/60/168 58/61/169
f 61/57/170 58/61/171 60/58/172
