# This file uses centimeters as units for non-parametric coordinates.

v -50.528839 0.000000 562.806091
v -32.258743 0.000000 601.323425
v -15.432472 0.000000 616.025146
v 31.305946 0.000000 585.936523
v 45.270500 0.000000 545.335754
v 60.050346 0.000000 297.467560
v -19.681282 24.152433 552.288513
v 2.178581 27.488325 542.266785
v 20.390175 25.367039 500.309570
v 18.321716 35.867352 397.538116
v 57.996483 0.000000 -14.888045
v -26.403740 23.985910 507.596588
v -31.142822 26.283680 426.360870
v 6.069183 38.922123 81.732910
v -19.708717 32.570518 409.751953
v -21.119789 33.654007 43.997593
v 3.802620 33.130035 -78.454819
v 43.761070 18.985100 -472.252899
v -37.454102 18.985100 18.621519
v 0.130028 33.052532 -222.366074
v -27.986809 27.646872 -63.098423
v -21.375679 35.248291 -469.566986
v 27.743874 26.250568 -486.702362
v -16.035492 35.047058 -543.393311
v 35.108528 25.486723 -543.980347
v 7.783066 33.266354 -552.152039
v -52.755402 0.000000 -546.455444
v -45.679298 0.000000 -594.131165
v 14.861374 23.997044 -584.771484
v 44.258171 0.000000 -597.165222
v 52.486275 0.000000 -562.403503
v 57.889687 0.000000 -109.838356
v 62.175774 0.000000 -491.169220
v 15.413086 0.000000 -616.025330
v -48.152908 20.890738 -404.886322
v -54.898438 0.000000 211.989471
v -30.990189 28.543938 309.101624
v -23.275177 31.534662 231.934937
v 17.781998 42.617931 324.677399
v 17.342308 35.282707 248.404495
v 60.120674 0.000000 -239.959747
v 29.010841 26.782856 -119.893105
v 12.711525 30.071228 -310.241425
v -4.358559 40.049282 -290.727783
v -20.414055 31.525545 -215.645126
v -42.629589 22.048073 -268.865814
v 61.112206 0.000000 -396.543518
v 43.707787 17.901436 -403.405121
v 28.006859 29.969978 -410.562073
v 10.813942 30.260492 -372.948242
v -18.407616 33.952568 -371.068970
v -45.725342 21.402964 -345.327759
v 7.177727 31.862995 -233.410507
v 24.844353 27.361506 -260.554230
v -11.204399 38.737267 114.695580
v 59.642189 0.000000 160.865417
vt 0.348034 0.129588
vt 0.348052 0.129668
vt 0.348014 0.129636
vt 0.348019 0.129709
vt 0.347994 0.129724
vt 0.347990 0.129619
vt 0.347945 0.129681
vt 0.347979 0.129571
vt 0.347940 0.129632
vt 0.347989 0.129377
vt 0.348008 0.129457
vt 0.348060 0.129500
vt 0.348050 0.129477
vt 0.348105 0.129198
vt 0.348094 0.129168
vt 0.348130 0.129144
vt 0.348095 0.129307
vt 0.348022 0.129254
vt 0.348127 0.129047
vt 0.348087 0.129382
vt 0.348110 0.129018
vt 0.348062 0.129111
vt 0.348156 0.128944
vt 0.348135 0.129313
vt 0.348152 0.129136
vt 0.348157 0.129065
vt 0.348175 0.128952
vt 0.348159 0.128886
vt 0.348171 0.128894
vt 0.348151 0.128937
vt 0.348139 0.128920
vt 0.348220 0.128743
vt 0.348214 0.128786
vt 0.348200 0.128737
vt 0.348205 0.128924
vt 0.348172 0.128778
vt 0.348174 0.128745
vt 0.348156 0.128790
vt 0.348253 0.128768
vt 0.348252 0.128741
vt 0.348198 0.128724
vt 0.348175 0.128732
vt 0.348163 0.128751
vt 0.348143 0.128791
vt 0.348081 0.129041
vt 0.348202 0.128723
vt 0.348230 0.128838
vt 0.348026 0.129381
vt 0.348045 0.129314
vt 0.348129 0.128848
vt 0.348145 0.128833
vt 0.348103 0.128949
vt 0.348160 0.128821
vt 0.348170 0.128846
vt 0.348197 0.128847
vt 0.348219 0.128875
vn -0.595684 0.798534 0.086626
vn -0.595684 0.798534 0.086626
vn -0.595684 0.798534 0.086626
vn -0.540220 0.801561 0.256247
vn -0.540220 0.801561 0.256247
vn -0.540220 0.801561 0.256248
vn -0.310082 0.881987 0.354893
vn -0.310082 0.881987 0.354892
vn -0.310082 0.881987 0.354892
vn 0.019171 0.935363 0.353170
vn 0.019171 0.935363 0.353170
vn 0.019171 0.935363 0.353170
vn 0.251137 0.885859 0.390107
vn 0.251137 0.885859 0.390107
vn 0.251137 0.885859 0.390107
vn 0.516698 0.836605 0.181976
vn 0.516698 0.836605 0.181976
vn 0.516698 0.836605 0.181976
vn 0.523381 0.832866 0.180016
vn 0.523381 0.832866 0.180016
vn 0.523381 0.832866 0.180016
vn 0.608051 0.786630 0.107181
vn 0.608051 0.786630 0.107181
vn 0.608051 0.786630 0.107181
vn 0.603007 0.791462 0.099851
vn 0.603007 0.791462 0.099851
vn 0.603007 0.791462 0.099851
vn -0.142853 0.989584 0.017800
vn -0.142853 0.989584 0.017800
vn -0.142853 0.989584 0.017800
vn 0.317443 0.943991 0.090060
vn 0.317443 0.943991 0.090060
vn 0.317443 0.943991 0.090060
vn -0.668756 0.742855 0.030506
vn -0.668756 0.742855 0.030506
vn -0.668756 0.742855 0.030506
vn -0.180509 0.982323 0.049577
vn -0.180509 0.982323 0.049577
vn -0.180509 0.982323 0.049577
vn -0.424084 0.904224 0.050316
vn -0.424084 0.904224 0.050316
vn -0.424084 0.904224 0.050316
vn -0.064544 0.994471 0.082835
vn -0.064544 0.994471 0.082835
vn -0.064544 0.994471 0.082835
vn -0.115718 0.991754 -0.055079
vn -0.115718 0.991754 -0.055079
vn -0.115718 0.991754 -0.055079
vn -0.480728 0.876859 0.004375
vn -0.480728 0.876859 0.004375
vn -0.480728 0.876859 0.004375
vn 0.103524 0.993924 -0.037403
vn 0.103524 0.993924 -0.037403
vn 0.103524 0.993923 -0.037403
vn -0.699497 0.714636 0.000037
vn -0.699497 0.714636 0.000037
vn -0.699497 0.714636 0.000037
vn -0.144824 0.988883 -0.033707
vn -0.144824 0.988883 -0.033707
vn -0.144824 0.988883 -0.033707
vn 0.165941 0.984872 -0.049907
vn 0.165941 0.984872 -0.049907
vn 0.165941 0.984872 -0.049907
vn 0.765175 0.642071 -0.047451
vn 0.765176 0.642071 -0.047451
vn 0.765175 0.642071 -0.047451
vn 0.016328 0.999866 -0.000955
vn 0.016328 0.999866 -0.000955
vn 0.016328 0.999866 -0.000955
vn -0.716559 0.697516 0.003840
vn -0.716559 0.697516 0.003840
vn -0.716559 0.697516 0.003840
vn -0.669217 0.743066 0.001231
vn -0.669217 0.743066 0.001231
vn -0.669217 0.743066 0.001231
vn 0.234106 0.972189 -0.006498
vn 0.234106 0.972189 -0.006498
vn 0.234106 0.972189 -0.006498
vn -0.350231 0.936181 -0.030055
vn -0.350231 0.936181 -0.030055
vn -0.350231 0.936181 -0.030055
vn -0.066932 0.997514 0.022040
vn -0.066932 0.997514 0.022040
vn -0.066932 0.997514 0.022040
vn 0.456264 0.889150 0.035159
vn 0.456264 0.889150 0.035159
vn 0.456264 0.889150 0.035159
vn 0.456264 0.889150 0.035159
vn 0.239074 0.970986 -0.005425
vn 0.239074 0.970986 -0.005425
vn 0.239074 0.970986 -0.005425
vn -0.039735 0.993750 0.104318
vn -0.039735 0.993750 0.104318
vn -0.039735 0.993750 0.104318
vn 0.075558 0.997138 0.002748
vn 0.075558 0.997138 0.002748
vn 0.075558 0.997138 0.002748
vn -0.580043 0.814361 0.019119
vn -0.580043 0.814361 0.019119
vn -0.580043 0.814362 0.019119
vn 0.267781 0.963238 0.021585
vn 0.267781 0.963238 0.021585
vn 0.267781 0.963238 0.021585
vn 0.384799 0.922252 0.037178
vn 0.384799 0.922251 0.037178
vn 0.384799 0.922252 0.037178
vn -0.549009 0.834761 -0.041988
vn -0.549009 0.834761 -0.041988
vn -0.549009 0.834761 -0.041988
vn -0.682451 0.723879 -0.101291
vn -0.682451 0.723879 -0.101291
vn -0.682451 0.723879 -0.101291
vn -0.290739 0.858241 -0.422958
vn -0.290739 0.858241 -0.422958
vn -0.290739 0.858241 -0.422958
vn -0.095030 0.892983 -0.439943
vn -0.095030 0.892983 -0.439943
vn -0.095030 0.892983 -0.439943
vn -0.363342 0.872470 -0.326770
vn -0.363342 0.872470 -0.326770
vn -0.363342 0.872470 -0.326770
vn 0.321754 0.926829 -0.193553
vn 0.321754 0.926829 -0.193553
vn 0.321754 0.926829 -0.193553
vn -0.684256 0.724313 -0.084638
vn -0.684256 0.724313 -0.084638
vn -0.684256 0.724314 -0.084638
vn 0.528237 0.797557 -0.291322
vn 0.528237 0.797557 -0.291322
vn 0.528237 0.797557 -0.291322
vn 0.748792 0.638669 -0.177238
vn 0.748792 0.638669 -0.177238
vn 0.748792 0.638669 -0.177238
vn 0.707001 0.706894 -0.021211
vn 0.707001 0.706894 -0.021211
vn 0.707001 0.706894 -0.021211
vn 0.680141 0.733081 -0.000765
vn 0.680141 0.733081 -0.000765
vn 0.680141 0.733081 -0.000765
vn 0.367630 0.740746 -0.562267
vn 0.367630 0.740746 -0.562267
vn 0.367630 0.740746 -0.562267
vn 0.783945 0.611603 -0.106635
vn 0.783945 0.611603 -0.106635
vn 0.783945 0.611603 -0.106635
vn -0.710044 0.704155 -0.001707
vn -0.710044 0.704155 -0.001707
vn -0.710044 0.704155 -0.001707
vn 0.717182 0.696886 0.000820
vn 0.717182 0.696886 0.000820
vn 0.717182 0.696886 0.000820
vn 0.722170 0.691713 -0.002158
vn 0.722170 0.691713 -0.002158
vn 0.722170 0.691713 -0.002158
vn 0.700235 0.713869 0.007871
vn 0.700235 0.713869 0.007871
vn 0.700235 0.713869 0.007871
vn 0.700235 0.713869 0.007871
vn 0.677681 0.735257 0.012097
vn 0.677681 0.735257 0.012097
vn 0.677681 0.735257 0.012097
vn 0.494951 0.868886 0.007818
vn 0.494951 0.868886 0.007818
vn 0.494950 0.868886 0.007818
vn 0.494951 0.868886 0.007818
vn 0.096198 0.995268 0.013662
vn 0.096198 0.995268 0.013662
vn 0.096198 0.995268 0.013662
vn 0.096198 0.995268 0.013662
vn 0.253477 0.964941 -0.068106
vn 0.253477 0.964941 -0.068106
vn 0.253477 0.964941 -0.068106
vn 0.253477 0.964941 -0.068106
vn -0.438030 0.898921 0.008382
vn -0.438030 0.898921 0.008382
vn -0.438030 0.898921 0.008382
vn -0.410446 0.911841 0.008935
vn -0.410446 0.911841 0.008935
vn -0.410446 0.911841 0.008935
vn -0.410446 0.911841 0.008935
vn -0.402174 0.915525 0.008452
vn -0.402174 0.915524 0.008452
vn -0.402174 0.915525 0.008452
vn -0.402173 0.915524 0.008452
vn -0.064775 0.997900 -0.000931
vn -0.064775 0.997900 -0.000931
vn -0.064775 0.997899 -0.000931
vn -0.064775 0.997899 -0.000931
vn 0.716179 0.697912 -0.002463
vn 0.716179 0.697912 -0.002463
vn 0.716179 0.697912 -0.002463
vn 0.718931 0.695016 0.009519
vn 0.718931 0.695016 0.009519
vn 0.718931 0.695016 0.009519
vn 0.718931 0.695016 0.009519
vn 0.528436 0.848819 -0.016195
vn 0.528436 0.848819 -0.016195
vn 0.528436 0.848819 -0.016195
vn 0.528436 0.848819 -0.016195
vn 0.196758 0.980438 -0.005278
vn 0.196758 0.980438 -0.005278
vn 0.196758 0.980438 -0.005278
vn 0.196758 0.980438 -0.005278
vn 0.115195 0.993259 0.012897
vn 0.115195 0.993259 0.012897
vn 0.115195 0.993259 0.012897
vn 0.115195 0.993259 0.012897
vn -0.419865 0.907391 0.018831
vn -0.419865 0.907391 0.018831
vn -0.419865 0.907391 0.018831
vn -0.419865 0.907391 0.018831
vn -0.399438 0.916753 0.003480
vn -0.399439 0.916753 0.003480
vn -0.399439 0.916753 0.003480
vn 0.224910 0.974379 0.000348
vn 0.224910 0.974379 0.000348
vn 0.224910 0.974380 0.000348
vn 0.224910 0.974379 0.000348
vn -0.671985 0.740551 0.004467
vn -0.671985 0.740551 0.004467
vn -0.671985 0.740551 0.004467
vn -0.076243 0.995663 0.053319
vn -0.076243 0.995663 0.053319
vn -0.076243 0.995663 0.053319
vn 0.000000 0.000000 0.000000
vn 0.000000 0.000000 0.000000
vn 0.082531 0.995391 0.048831
vn 0.082531 0.995391 0.048831
vn 0.224640 0.974423 0.006083
vn 0.224640 0.974423 0.006083
vn 0.224640 0.974423 0.006083
s off
f 12/1/1 1/2/2 7/3/3
f 1/2/4 2/4/5 7/3/6
f 2/4/7 3/5/8 7/3/9
f 7/3/10 3/5/11 8/6/12
f 3/5/13 4/7/14 8/6/15
f 8/6/16 4/7/17 9/8/18
f 4/7/19 5/9/20 9/8/21
f 9/8/22 5/9/23 6/10/24
f 9/8/25 6/10/26 10/11/27
f 7/3/28 8/6/29 12/1/30
f 8/6/31 9/8/32 10/11/33
f 1/2/34 12/1/35 13/12/36
f 12/1/37 8/6/38 10/11/39
f 13/12/40 12/1/41 15/13/42
f 12/1/43 10/11/44 15/13/45
f 55/14/46 14/15/47 16/16/48
f 38/17/49 55/14/50 16/16/51
f 14/15/52 56/18/53 17/19/54
f 37/20/55 38/17/56 16/16/57
f 16/16/58 14/15/59 17/19/60
f 17/19/61 56/18/62 42/21/63
f 56/18/64 11/22/65 42/21/66
f 16/16/67 17/19/68 20/23/69
f 36/24/70 37/20/71 19/25/72
f 19/25/73 16/16/74 21/26/75
f 17/19/76 42/21/77 20/23/78
f 16/16/79 20/23/80 21/26/81
f 21/26/82 20/23/83 45/27/84
f 43/28/85 44/29/86 20/23/87 53/30/88
f 53/30/89 54/31/90 43/28/91
f 45/27/92 20/23/93 44/29/94
f 24/32/95 22/33/96 26/34/97
f 19/25/98 21/26/99 46/35/100
f 26/34/101 23/36/102 25/37/103
f 23/36/104 18/38/105 25/37/106
f 35/47/107 22/33/108 24/32/109
f 27/39/110 24/32/111 28/40/112
f 28/40/113 24/32/114 34/46/115
f 24/32/116 26/34/117 34/46/118
f 34/46/119 26/34/120 29/41/121
f 26/34/122 25/37/123 29/41/124
f 35/47/125 24/32/126 27/39/127
f 29/41/128 25/37/129 30/42/130
f 30/42/131 25/37/132 31/43/133
f 33/44/134 25/37/135 18/38/136
f 42/21/137 11/22/138 32/45/139
f 29/41/140 30/42/141 34/46/142
f 31/43/143 25/37/144 33/44/145
f 13/12/146 37/20/147 36/24/148
f 40/49/149 39/48/150 6/10/151
f 6/10/152 56/18/153 40/49/154
f 47/50/155 48/51/156 32/45/157 41/52/158
f 42/21/159 32/45/160 48/51/161
f 54/31/162 42/21/163 48/51/164 49/53/165
f 49/53/166 50/54/167 43/28/168 54/31/169
f 50/54/170 51/55/171 44/29/172 43/28/173
f 45/27/174 44/29/175 51/55/176
f 46/35/177 45/27/178 51/55/179 52/56/180
f 13/12/181 15/13/182 38/17/183 37/20/184
f 15/13/185 10/11/186 39/48/187 38/17/188
f 6/10/189 39/48/190 10/11/191
f 18/38/192 48/51/193 47/50/194 33/44/195
f 49/53/196 48/51/197 18/38/198 23/36/199
f 26/34/200 50/54/201 49/53/202 23/36/203
f 22/33/204 51/55/205 50/54/206 26/34/207
f 52/56/208 51/55/209 22/33/210 35/47/211
f 21/26/212 45/27/213 46/35/214
f 20/23/215 42/21/216 54/31/217 53/30/218
f 19/25/219 37/20/220 16/16/221
f 38/17/222 39/48/223 55/14/224
f 39/48/225 40/49/226 14/15/227 55/14/228
f 40/49/229 56/18/230 14/15/231
