# This file uses centimeters as units for non-parametric coordinates.

v -116.104752 -80.762352 0.192917
v -68.883575 -115.872566 0.192917
v 28.959778 -114.485680 0.192917
v 87.717392 -116.890282 0.192917
v 119.463898 -53.588524 0.192917
v 108.722984 42.302116 0.192917
v 76.395416 109.918625 0.192917
v 10.709558 90.418510 0.192917
v -54.112221 96.039261 0.192917
v -107.184334 116.890282 0.192917
v -119.463898 24.281540 0.192917
v -58.780056 29.073853 3.711433
v 30.867054 36.153564 8.767124
v 66.473671 -59.701157 3.153154
v -66.033592 -74.986366 6.441959
v -7.187478 -7.492974 0.192917
v -116.104752 -80.762352 0.192917
v -68.883575 -115.872566 0.192917
v 28.959778 -114.485680 0.192917
v 87.717392 -116.890282 0.192917
v 119.463898 -53.588524 0.192917
v 108.722984 42.302116 0.192917
v 76.395416 109.918625 0.192917
v 10.709558 90.418510 0.192917
v -54.112221 96.039261 0.192917
v -107.184334 116.890282 0.192917
v -119.463898 24.281540 0.192917
v -58.780056 29.073853 3.711433
v 30.867054 36.153564 8.767124
v 66.473671 -59.701157 3.153154
v -66.033592 -74.986366 6.441959
v -7.187478 -7.492974 0.192917
v -46.382187 3.093330 4.513579
v -93.702820 5.265194 3.529457
v -81.454178 84.439850 2.096528
v -67.614258 71.912025 2.636067
v -48.967739 36.440445 3.756514
v -72.469261 33.611080 5.692663
v 80.882256 -84.165688 4.613283
v 66.850723 -71.074997 4.613283
v 63.937500 -36.747688 4.613284
v 54.347923 -16.853769 4.613283
v 55.187584 21.944439 4.613284
v 61.907684 32.103561 4.613283
v 61.344967 45.051624 4.613284
v 79.762558 58.013073 4.613283
v 91.720093 32.574741 4.613283
v 93.064087 -18.085917 4.613283
v 89.372849 -68.043365 4.613283
v 79.049995 -65.445282 6.367334
v 75.388763 -29.410702 6.787722
v 75.466957 -9.747910 5.436248
v 77.077507 24.615292 6.378650
v -19.323961 -103.772614 5.333610
v 0.876932 -76.518867 5.333610
v -1.367769 -41.002113 5.333610
v -32.316677 -30.036816 5.333609
v -40.886383 -43.434235 5.333610
v -27.589729 -65.161957 5.333610
v -25.263031 -96.029816 5.333610
v -16.647282 -51.094521 8.199646
v -13.108103 -71.222168 8.948662
v -2.331959 9.162724 5.533513
v 30.498077 37.119823 5.533513
v -22.297047 8.579315 5.533513
v -27.753147 35.691483 5.533513
v -23.897343 45.768707 5.533513
v -30.964855 61.117313 5.533513
v -12.074463 76.295387 5.533513
v 5.845192 69.176926 5.533513
v 42.715134 71.254959 5.533513
v -11.628561 18.864367 7.118229
v 21.830410 53.467739 6.820576
v -11.766142 53.621395 7.250302
v 7.673784 38.090023 9.529934
v -69.530006 -22.902494 5.333624
v -75.416603 -56.689064 5.333632
v -90.287209 -37.572723 5.333639
v -53.900841 -45.185951 5.333610
v -72.536812 -39.883293 8.873874
vt 0.305637 0.493334
vt 0.351804 0.369049
vt 0.456080 0.537995
vt 0.530121 0.383131
vt 0.146482 0.352834
vt 0.157173 0.506207
vt 0.007496 0.341858
vt 0.035620 0.553963
vt 0.015190 0.101272
vt 0.123342 0.020858
vt 0.129869 0.114501
vt 0.482011 0.018527
vt 0.433355 0.149509
vt 0.347436 0.024034
vt 0.554721 0.163509
vt 0.264647 0.269083
vt 0.305637 0.493334
vt 0.351804 0.369049
vt 0.456080 0.537995
vt 0.530121 0.383131
vt 0.146482 0.352834
vt 0.157173 0.506207
vt 0.007496 0.341858
vt 0.035620 0.553963
vt 0.015190 0.101272
vt 0.123342 0.020858
vt 0.129869 0.114501
vt 0.482011 0.018527
vt 0.433355 0.149509
vt 0.347436 0.024034
vt 0.554721 0.163509
vt 0.264647 0.269083
vt 0.657318 0.823918
vt 0.461855 0.836427
vt 0.535392 0.790797
vt 0.466868 0.720721
vt 0.629825 0.787477
vt 0.547508 0.734311
vt 0.433170 0.546584
vt 0.387198 0.545853
vt 0.398481 0.515011
vt 0.086572 0.572208
vt 0.114476 0.524754
vt 0.167400 0.559007
vt 0.146133 0.523543
vt 0.314272 0.514759
vt 0.298681 0.544119
vt 0.263894 0.495364
vt 0.250794 0.548231
vt 0.169542 0.505146
vt 0.395586 0.570484
vt 0.274616 0.589438
vt 0.150929 0.596266
vt 0.585700 0.358733
vt 0.570506 0.279169
vt 0.619884 0.345786
vt 0.614397 0.432601
vt 0.577049 0.407932
vt 0.538747 0.459404
vt 0.550302 0.373546
vt 0.517800 0.426656
vt 0.555989 0.298095
vt 0.702077 0.044164
vt 0.630169 0.098727
vt 0.635022 0.044160
vt 0.572743 0.097688
vt 0.584307 0.037977
vt 0.481763 0.030554
vt 0.517917 0.032788
vt 0.514576 0.089657
vt 0.548893 0.142064
vt 0.608102 0.140373
vt 0.519843 0.000000
vt 0.625245 0.000000
vt 0.537722 0.102300
vt 0.745962 0.809442
vt 0.791223 0.796563
vt 0.753265 0.850683
vt 0.702851 0.815053
vt 0.738968 0.768625
vn 0.041790 -0.140770 -0.989160
vn 0.041790 -0.140770 -0.989160
vn 0.041790 -0.140770 -0.989160
vn -0.105396 -0.050390 -0.993153
vn -0.105396 -0.050390 -0.993153
vn -0.105396 -0.050390 -0.993153
vn 0.062253 -0.056695 -0.996449
vn 0.062253 -0.056695 -0.996449
vn 0.062253 -0.056695 -0.996449
vn 0.000000 0.000000 -1.000000
vn 0.000000 0.000000 -1.000000
vn 0.000000 0.000000 -1.000000
vn -0.004522 -0.052155 -0.998629
vn -0.004522 -0.052155 -0.998629
vn -0.004522 -0.052155 -0.998629
vn 0.066180 -0.131697 -0.989078
vn 0.066180 -0.131697 -0.989078
vn 0.066180 -0.131697 -0.989078
vn 0.106312 0.142984 -0.983999
vn 0.106312 0.142984 -0.983999
vn 0.106312 0.142984 -0.983999
vn 0.002148 0.052489 -0.998619
vn 0.002148 0.052489 -0.998619
vn 0.002148 0.052489 -0.998619
vn -0.033597 0.076850 -0.996477
vn -0.033597 0.076850 -0.996477
vn -0.033597 0.076850 -0.996477
vn -0.002144 0.151231 -0.988496
vn -0.002144 0.151231 -0.988496
vn -0.002144 0.151231 -0.988496
vn -0.059164 0.029671 -0.997807
vn -0.059164 0.029671 -0.997807
vn -0.059164 0.029671 -0.997807
vn -0.110781 0.017047 -0.993699
vn -0.110781 0.017047 -0.993699
vn -0.110781 0.017047 -0.993699
vn -0.055066 -0.006168 -0.998464
vn -0.055066 -0.006168 -0.998464
vn -0.055066 -0.006168 -0.998464
vn -0.082411 -0.020401 -0.996390
vn -0.082411 -0.020401 -0.996390
vn -0.082411 -0.020401 -0.996390
vn -0.015670 -0.078627 -0.996781
vn -0.015670 -0.078627 -0.996781
vn -0.015670 -0.078627 -0.996781
vn 0.123393 0.003946 -0.992350
vn 0.123393 0.003946 -0.992350
vn 0.123393 0.003946 -0.992350
vn 0.060248 -0.030380 -0.997721
vn 0.060248 -0.030380 -0.997721
vn 0.060248 -0.030380 -0.997721
vn 0.109680 0.098669 -0.989058
vn 0.109680 0.098669 -0.989058
vn 0.109680 0.098669 -0.989058
vn 0.043325 0.156078 -0.986794
vn 0.043325 0.156078 -0.986794
vn 0.043325 0.156078 -0.986794
vn -0.041790 0.140770 0.989160
vn -0.041790 0.140770 0.989160
vn -0.041790 0.140770 0.989160
vn 0.105396 0.050390 0.993153
vn 0.105396 0.050390 0.993153
vn 0.105396 0.050390 0.993153
vn -0.062253 0.056695 0.996449
vn -0.062253 0.056695 0.996449
vn -0.062253 0.056695 0.996449
vn 0.000000 0.000000 1.000000
vn 0.000000 0.000000 1.000000
vn 0.000000 0.000000 1.000000
vn 0.004522 0.052155 0.998629
vn 0.004522 0.052155 0.998629
vn 0.004522 0.052155 0.998629
vn -0.066180 0.131697 0.989078
vn -0.066180 0.131697 0.989078
vn -0.066180 0.131697 0.989078
vn -0.106312 -0.142984 0.983999
vn -0.106312 -0.142984 0.983999
vn -0.106312 -0.142984 0.983999
vn -0.002148 -0.052489 0.998619
vn -0.002148 -0.052489 0.998619
vn -0.002148 -0.052489 0.998619
vn 0.033597 -0.076850 0.996477
vn 0.033597 -0.076850 0.996477
vn 0.033597 -0.076850 0.996477
vn 0.002144 -0.151231 0.988496
vn 0.002144 -0.151231 0.988496
vn 0.002144 -0.151231 0.988496
vn 0.059164 -0.029671 0.997807
vn 0.059164 -0.029671 0.997807
vn 0.059164 -0.029671 0.997807
vn 0.110781 -0.017047 0.993699
vn 0.110781 -0.017047 0.993699
vn 0.110781 -0.017047 0.993699
vn 0.055066 0.006168 0.998464
vn 0.055066 0.006168 0.998464
vn 0.055066 0.006168 0.998464
vn 0.082411 0.020401 0.996390
vn 0.082411 0.020401 0.996390
vn 0.082411 0.020401 0.996390
vn 0.015670 0.078627 0.996781
vn 0.015670 0.078627 0.996781
vn 0.015670 0.078627 0.996781
vn -0.123393 -0.003946 0.992350
vn -0.123393 -0.003946 0.992350
vn -0.123393 -0.003946 0.992350
vn -0.060248 0.030380 0.997721
vn -0.060248 0.030380 0.997721
vn -0.060248 0.030380 0.997721
vn -0.109680 -0.098669 0.989058
vn -0.109680 -0.098669 0.989058
vn -0.109680 -0.098669 0.989058
vn -0.043325 -0.156078 0.986794
vn -0.043325 -0.156078 0.986794
vn -0.043325 -0.156078 0.986794
vn -0.156736 0.042106 0.986743
vn -0.156736 0.042106 0.986743
vn -0.156736 0.042106 0.986743
vn -0.023445 -0.058600 0.998006
vn -0.023445 -0.058600 0.998006
vn -0.023445 -0.058600 0.998006
vn 0.073522 0.070072 0.994829
vn 0.073522 0.070072 0.994829
vn 0.073522 0.070072 0.994829
vn 0.078637 0.028720 0.996490
vn 0.078637 0.028720 0.996490
vn 0.078637 0.028720 0.996490
vn 0.029733 0.075771 0.996682
vn 0.029733 0.075771 0.996682
vn 0.029733 0.075771 0.996682
vn -0.095256 -0.102102 0.990203
vn -0.095256 -0.102102 0.990203
vn -0.095256 -0.102102 0.990203
vn -0.039338 0.055898 0.997661
vn -0.039338 0.055898 0.997661
vn -0.039338 0.055898 0.997661
vn -0.118091 -0.005132 0.992990
vn -0.118091 -0.005132 0.992990
vn -0.118091 -0.005132 0.992990
vn -0.137049 -0.011631 0.990496
vn -0.137049 -0.011631 0.990496
vn -0.137049 -0.011631 0.990496
vn -0.168736 -0.028638 0.985245
vn -0.168736 -0.028638 0.985245
vn -0.168736 -0.028638 0.985245
vn -0.143233 -0.069044 0.987278
vn -0.143233 -0.069044 0.987278
vn -0.143233 -0.069044 0.987278
vn -0.061911 0.068684 0.995716
vn -0.061911 0.068684 0.995716
vn -0.061911 0.068684 0.995716
vn -0.039224 0.000849 0.999230
vn -0.039224 0.000849 0.999230
vn -0.039224 0.000849 0.999230
vn -0.077490 -0.023703 0.996711
vn -0.077490 -0.023703 0.996711
vn -0.077490 -0.023703 0.996711
vn -0.087247 0.057712 0.994514
vn -0.087247 0.057712 0.994514
vn -0.087247 0.057712 0.994514
vn 0.147922 -0.077901 0.985926
vn 0.147922 -0.077901 0.985926
vn 0.147922 -0.077901 0.985926
vn 0.168900 0.005662 0.985617
vn 0.168900 0.005662 0.985617
vn 0.168900 0.005662 0.985617
vn 0.128065 -0.009462 0.991721
vn 0.128065 -0.009462 0.991721
vn 0.128065 -0.009462 0.991721
vn 0.078755 0.068046 0.994569
vn 0.078755 0.068046 0.994569
vn 0.078755 0.068046 0.994569
vn 0.137611 -0.033598 0.989916
vn 0.137611 -0.033598 0.989916
vn 0.137611 -0.033598 0.989916
vn 0.047309 0.001255 0.998879
vn 0.047309 0.001255 0.998879
vn 0.047309 0.001255 0.998879
vn 0.095491 0.044887 0.994418
vn 0.095491 0.044887 0.994418
vn 0.095491 0.044887 0.994418
vn 0.195751 -0.145093 0.969861
vn 0.195751 -0.145093 0.969861
vn 0.195751 -0.145093 0.969861
vn 0.177196 0.011199 0.984112
vn 0.177196 0.011199 0.984112
vn 0.177196 0.011199 0.984112
vn 0.279320 0.084708 0.956454
vn 0.279320 0.084708 0.956454
vn 0.279320 0.084708 0.956454
vn 0.064263 0.181380 0.981311
vn 0.064263 0.181380 0.981311
vn 0.064263 0.181380 0.981311
vn -0.144473 -0.088413 0.985551
vn -0.144473 -0.088413 0.985551
vn -0.144473 -0.088413 0.985551
vn -0.097694 0.062490 0.993253
vn -0.097694 0.062490 0.993253
vn -0.097694 0.062490 0.993253
vn -0.244945 -0.006992 0.969512
vn -0.244945 -0.006992 0.969512
vn -0.244945 -0.006992 0.969512
vn -0.114711 -0.087988 0.989495
vn -0.114711 -0.087988 0.989495
vn -0.114711 -0.087988 0.989495
vn -0.249558 -0.018811 0.968177
vn -0.249558 -0.018811 0.968177
vn -0.249558 -0.018811 0.968177
vn -0.004354 0.077254 0.997002
vn -0.004354 0.077254 0.997002
vn -0.004354 0.077254 0.997002
vn -0.015149 0.126616 0.991836
vn -0.015149 0.126616 0.991836
vn -0.015149 0.126616 0.991836
vn 0.048161 0.130145 0.990324
vn 0.048161 0.130145 0.990324
vn 0.048161 0.130145 0.990324
vn -0.123416 -0.024837 0.992044
vn -0.123416 -0.024837 0.992044
vn -0.123416 -0.024837 0.992044
vn -0.059903 0.074555 0.995416
vn -0.059903 0.074555 0.995416
vn -0.059903 0.074555 0.995416
vn 0.030140 0.075873 0.996662
vn 0.030140 0.075873 0.996662
vn 0.030140 0.075873 0.996662
vn 0.004586 -0.156926 0.987600
vn 0.004586 -0.156926 0.987600
vn 0.004586 -0.156926 0.987600
vn 0.173040 0.014212 0.984812
vn 0.173040 0.014212 0.984812
vn 0.173040 0.014212 0.984812
vn 0.088259 -0.031588 0.995597
vn 0.088259 -0.031588 0.995597
vn 0.088259 -0.031588 0.995597
vn -0.108246 -0.049843 0.992874
vn -0.108246 -0.049843 0.992874
vn -0.108246 -0.049843 0.992874
vn -0.184406 0.070558 0.980314
vn -0.184406 0.070558 0.980314
vn -0.184406 0.070558 0.980314
vn -0.119813 -0.004247 0.992787
vn -0.119813 -0.004247 0.992787
vn -0.119813 -0.004247 0.992787
vn -0.102131 -0.004184 0.994762
vn -0.102131 -0.004184 0.994762
vn -0.102131 -0.004184 0.994762
vn 0.161513 -0.189665 0.968474
vn 0.161513 -0.189665 0.968474
vn 0.161513 -0.189665 0.968474
vn 0.019113 -0.143314 0.989493
vn 0.019113 -0.143314 0.989493
vn 0.019113 -0.143314 0.989493
vn 0.227949 0.159878 0.960457
vn 0.227949 0.159878 0.960457
vn 0.227949 0.159878 0.960457
vn -0.161681 0.228767 0.959961
vn -0.161681 0.228767 0.959961
vn -0.161681 0.228767 0.959961
vn -0.213633 -0.166186 0.962675
vn -0.213633 -0.166186 0.962675
vn -0.213633 -0.166186 0.962675
vn 0.119908 -0.224277 0.967121
vn 0.119908 -0.224277 0.967121
vn 0.119908 -0.224277 0.967121
s off
f 8/1/1 7/3/2 13/2/3
f 7/3/4 6/4/5 13/2/6
f 12/5/7 11/7/8 9/6/9
f 11/7/10 10/8/11 9/6/12
f 9/6/13 8/1/14 12/5/15
f 8/1/16 13/2/17 12/5/18
f 1/9/19 15/11/20 2/10/21
f 4/12/22 3/14/23 14/13/24
f 14/13/25 3/14/26 15/11/27
f 15/11/28 3/14/29 2/10/30
f 5/15/31 4/12/32 14/13/33
f 13/2/34 6/4/35 14/13/36
f 6/4/37 5/15/38 14/13/39
f 12/5/40 16/16/41 15/11/42
f 14/13/43 15/11/44 16/16/45
f 1/9/46 11/7/47 15/11/48
f 11/7/49 12/5/50 15/11/51
f 13/2/52 14/13/53 16/16/54
f 12/5/55 13/2/56 16/16/57
f 24/17/58 29/18/59 23/19/60
f 23/19/61 29/18/62 22/20/63
f 28/21/64 25/22/65 27/23/66
f 27/23/67 25/22/68 26/24/69
f 25/22/70 28/21/71 24/17/72
f 24/17/73 28/21/74 29/18/75
f 17/25/76 18/26/77 31/27/78
f 20/28/79 30/29/80 19/30/81
f 30/29/82 31/27/83 19/30/84
f 31/27/85 18/26/86 19/30/87
f 21/31/88 30/29/89 20/28/90
f 29/18/91 30/29/92 22/20/93
f 22/20/94 30/29/95 21/31/96
f 28/21/97 31/27/98 32/32/99
f 30/29/100 32/32/101 31/27/102
f 17/25/103 31/27/104 27/23/105
f 27/23/106 31/27/107 28/21/108
f 29/18/109 32/32/110 30/29/111
f 28/21/112 32/32/113 29/18/114
f 35/33/115 34/34/116 38/35/117
f 33/36/118 38/35/119 34/34/120
f 36/37/121 38/35/122 37/38/123
f 37/38/124 38/35/125 33/36/126
f 35/33/127 38/35/128 36/37/129
f 39/39/130 50/40/131 40/41/132
f 46/42/133 45/43/134 53/44/135
f 53/44/136 45/43/137 44/45/138
f 40/41/139 50/40/140 41/46/141
f 41/46/142 50/40/143 51/47/144
f 41/46/145 51/47/146 42/48/147
f 42/48/148 51/47/149 52/49/150
f 42/48/151 52/49/152 43/50/153
f 43/50/154 52/49/155 53/44/156
f 53/44/157 44/45/158 43/50/159
f 39/39/160 49/51/161 50/40/162
f 50/40/163 49/51/164 51/47/165
f 51/47/166 49/51/167 48/52/168
f 52/49/169 51/47/170 48/52/171
f 53/44/172 52/49/173 47/53/174
f 47/53/175 52/49/176 48/52/177
f 47/53/178 46/42/179 53/44/180
f 62/54/181 54/55/182 55/56/183
f 56/57/184 61/58/185 55/56/186
f 55/56/187 61/58/188 62/54/189
f 57/59/190 61/58/191 56/57/192
f 59/60/193 61/58/194 58/61/195
f 58/61/196 61/58/197 57/59/198
f 62/54/199 61/58/200 59/60/201
f 54/55/202 62/54/203 60/62/204
f 60/62/205 62/54/206 59/60/207
f 71/63/208 70/64/209 73/65/210
f 74/66/211 75/67/212 70/64/213
f 70/64/214 75/67/215 73/65/216
f 65/68/217 72/69/218 66/70/219
f 68/71/220 74/66/221 69/72/222
f 69/72/223 74/66/224 70/64/225
f 65/68/226 63/73/227 72/69/228
f 75/67/229 64/74/230 73/65/231
f 71/63/232 73/65/233 64/74/234
f 67/75/235 74/66/236 68/71/237
f 66/70/238 74/66/239 67/75/240
f 75/67/241 74/66/242 72/69/243
f 72/69/244 74/66/245 66/70/246
f 64/74/247 75/67/248 63/73/249
f 63/73/250 75/67/251 72/69/252
f 80/76/253 79/77/254 76/78/255
f 80/76/256 76/78/257 78/79/258
f 80/76/259 78/79/260 77/80/261
f 80/76/262 77/80/263 79/77/264
