# This file uses centimeters as units for non-parametric coordinates.

v -13.472438 26.851921 22.819065
v -13.669109 121.235550 26.792793
v -19.691902 148.880554 8.306383
v -23.711866 114.860519 -14.316263
v -20.972031 56.957924 -23.213638
v -22.463846 25.467186 -13.139171
v -29.206123 59.951569 7.061955
v -23.692379 106.688072 8.115778
v -25.500772 87.165390 12.132618
v -27.729313 66.672958 10.162233
v -30.077183 77.750740 0.909692
v -23.101994 74.203880 21.946833
v -28.646338 77.017220 11.808962
v 30.222126 75.899254 4.200564
v 25.404890 57.232403 11.759112
v 25.895620 70.495667 17.897860
v 29.440723 60.691681 -1.979485
v 29.843548 66.207321 8.548883
v 21.945162 133.773453 3.406625
v 24.496431 119.264725 -12.730398
v 23.777645 79.751350 -10.530104
v 21.159338 52.431217 -22.499882
v 22.702854 23.595680 3.680155
v 17.172726 49.690552 27.608004
v 17.855480 90.155769 25.675810
v 19.435074 107.393723 17.095627
v 19.799337 129.594406 16.097673
v 28.125313 90.461014 6.863692
v 27.888323 65.272827 6.934822
v 22.224808 30.343248 27.766788
v -14.088760 34.661785 23.589342
v 1.539660 94.894913 27.893087
v 11.499233 84.480034 28.151348
v 22.088182 56.139851 26.894106
v 5.683854 55.331017 30.765030
v -5.320556 103.015282 27.499441
v -2.766690 120.792122 27.878235
v 5.293486 111.009094 28.254629
v -15.621443 114.438622 25.016462
v -4.143797 111.934296 29.297401
v 30.650034 29.911003 13.308372
v 24.002718 110.324112 12.697579
v 4.017236 161.859467 24.614285
v -25.333767 134.274063 13.652967
v -21.802235 103.965042 18.511204
v -0.237597 26.763384 23.955147
v -12.686953 89.872070 21.110840
v -23.011545 36.569489 16.147655
v -28.473963 28.011490 11.085555
v 2.514054 74.148842 27.485376
v 0.265416 107.014366 27.577141
v -8.442608 128.832397 28.724064
v 1.945619 41.171158 29.794844
v 16.503565 42.783516 26.672575
v 29.186974 44.199318 15.337830
vt 0.610932 0.926113
vt 0.624371 0.838182
vt 0.705743 0.875601
vt 0.699840 0.990282
vt 0.447552 0.992924
vt 0.486886 0.930244
vt 0.467097 0.862326
vt 0.374862 0.930947
vt 0.745962 0.809442
vt 0.791223 0.796563
vt 0.753265 0.850683
vt 0.702851 0.815053
vt 0.738968 0.768625
vt 0.745962 0.809442
vt 0.791223 0.796563
vt 0.753265 0.850683
vt 0.702851 0.815053
vt 0.738968 0.768625
vt 1.000000 0.526574
vt 0.935154 0.611397
vt 0.904446 0.520212
vt 0.871354 0.570073
vt 0.846754 0.520396
vt 0.747682 0.527381
vt 0.780842 0.576750
vt 0.757310 0.488575
vt 0.808164 0.485552
vt 0.940375 0.453480
vt 0.847684 0.459335
vt 0.657318 0.823918
vt 0.461855 0.836427
vt 0.535392 0.790797
vt 0.466868 0.720721
vt 0.629825 0.787477
vt 0.547508 0.734311
vt 0.745962 0.809442
vt 0.791223 0.796563
vt 0.753265 0.850683
vt 0.702851 0.815053
vt 0.738968 0.768625
vt 0.354273 0.457810
vt 0.377680 0.369050
vt 0.413395 0.441350
vt 0.437589 0.375823
vt 0.406207 0.325616
vt 0.444731 0.278165
vt 0.440558 0.183537
vt 0.489275 0.190485
vt 0.433355 0.149509
vt 0.356898 0.170195
vt 0.340379 0.138784
vt 0.530121 0.383131
vt 0.540628 0.199213
vt 0.456080 0.537995
vt 0.544028 0.163509
vn -0.968527 -0.199134 -0.149338
vn -0.968527 -0.199134 -0.149338
vn -0.968527 -0.199134 -0.149338
vn -0.885124 -0.400628 0.236755
vn -0.885124 -0.400628 0.236755
vn -0.885124 -0.400628 0.236755
vn -0.765818 -0.012842 0.642929
vn -0.765818 -0.012842 0.642929
vn -0.765818 -0.012842 0.642929
vn -0.765818 -0.012842 0.642929
vn -0.994517 0.094089 0.045648
vn -0.994517 0.094089 0.045648
vn -0.994517 0.094089 0.045648
vn -0.994148 0.056520 -0.092065
vn -0.994148 0.056520 -0.092065
vn -0.994148 0.056520 -0.092065
vn -0.994148 0.056520 -0.092065
vn -0.903764 0.083794 0.419750
vn -0.903764 0.083794 0.419750
vn -0.903764 0.083794 0.419750
vn -0.997769 -0.018906 0.064034
vn -0.997769 -0.018906 0.064034
vn -0.854884 -0.361977 0.371680
vn -0.792783 -0.442925 0.418703
vn -0.792783 -0.442926 0.418703
vn -0.599444 0.084265 0.795969
vn -0.554943 0.202107 0.806964
vn -0.554943 0.202107 0.806964
vn -0.817278 0.503406 0.280425
vn -0.754638 0.640437 0.142692
vn -0.754638 0.640437 0.142692
vn -0.875847 0.475971 0.079648
vn 0.850816 -0.148593 0.504017
vn 0.850816 -0.148593 0.504017
vn 0.787943 -0.558971 0.258259
vn 0.737131 -0.643881 0.205074
vn 0.737131 -0.643881 0.205074
vn 0.908477 -0.261497 -0.326021
vn 0.909823 -0.150579 -0.386714
vn 0.909823 -0.150579 -0.386714
vn 0.952689 0.283350 0.109987
vn 0.871582 0.465452 0.153945
vn 0.871582 0.465452 0.153945
vn 0.895208 0.320659 0.309483
vn 0.986192 -0.165550 0.004231
vn 0.986192 -0.165550 0.004231
vn 0.986192 -0.165550 0.004231
vn 0.983753 0.130201 -0.123606
vn 0.983753 0.130201 -0.123606
vn 0.983753 0.130201 -0.123606
vn 0.971510 -0.009809 -0.236794
vn 0.971510 -0.009809 -0.236794
vn 0.971510 -0.009809 -0.236794
vn 0.989289 0.143355 0.027517
vn 0.989289 0.143355 0.027517
vn 0.989289 0.143355 0.027517
vn 0.973931 -0.030236 -0.224822
vn 0.973931 -0.030236 -0.224822
vn 0.973931 -0.030236 -0.224822
vn 0.986440 -0.008818 0.163885
vn 0.986440 -0.008818 0.163885
vn 0.986440 -0.008818 0.163885
vn 0.867779 0.161338 0.470031
vn 0.867779 0.161338 0.470031
vn 0.867779 0.161338 0.470031
vn 0.885560 0.007236 0.464470
vn 0.885560 0.007236 0.464470
vn 0.885560 0.007236 0.464470
vn 0.925464 0.097419 0.366095
vn 0.925464 0.097419 0.366095
vn 0.925464 0.097419 0.366095
vn 0.757848 -0.005288 0.652410
vn 0.757848 -0.005288 0.652410
vn 0.757848 -0.005288 0.652410
vn 0.922243 -0.180893 0.341682
vn 0.922243 -0.180893 0.341682
vn 0.922243 -0.180893 0.341682
vn -0.108364 0.060677 0.992258
vn -0.108364 0.060677 0.992258
vn -0.108364 0.060677 0.992258
vn 0.001276 -0.035015 0.999386
vn 0.001276 -0.035015 0.999386
vn 0.001276 -0.035015 0.999386
vn 0.093505 0.070395 0.993127
vn 0.093505 0.070395 0.993127
vn 0.093505 0.070395 0.993127
vn 0.095297 0.034160 0.994863
vn 0.095297 0.034160 0.994863
vn 0.095297 0.034160 0.994863
vn 0.055866 0.078106 0.995379
vn 0.055866 0.078106 0.995379
vn 0.055866 0.078106 0.995379
vn 0.172019 0.060236 0.983250
vn 0.172019 0.060236 0.983250
vn -0.115278 0.370573 0.921622
vn -0.170528 0.446917 0.878172
vn -0.170528 0.446917 0.878172
vn -0.561108 -0.024211 0.827389
vn -0.587545 -0.133936 0.798030
vn -0.587545 -0.133936 0.798030
vn -0.062773 -0.403211 0.912951
vn 0.039097 -0.542293 0.839279
vn 0.039097 -0.542293 0.839279
vn 0.123668 -0.382566 0.915614
vn -0.245997 -0.091079 0.964982
vn -0.245997 -0.091079 0.964982
vn -0.245997 -0.091079 0.964982
vn -0.126728 -0.149669 0.980581
vn -0.126728 -0.149669 0.980581
vn -0.126728 -0.149669 0.980581
vn -0.132522 -0.112039 0.984827
vn -0.132522 -0.112039 0.984827
vn -0.132522 -0.112039 0.984827
vn -0.306700 -0.002699 0.951802
vn -0.306700 -0.002699 0.951802
vn -0.306700 -0.002699 0.951802
vn 0.219666 -0.105216 0.969885
vn 0.282439 -0.276833 0.918472
vn 0.069877 -0.077622 0.994531
vn -0.072900 -0.006288 0.997319
vn -0.072900 -0.006288 0.997319
vn -0.072900 -0.006288 0.997319
vn -0.062342 0.006882 0.998031
vn -0.062342 0.006882 0.998031
vn -0.473307 -0.042461 0.879874
vn 0.146928 -0.006294 0.989127
vn 0.146928 -0.006294 0.989127
vn 0.553718 0.097251 0.827006
vn 0.553718 0.097251 0.827006
vn 0.146928 -0.006294 0.989127
vn 0.636076 0.220851 0.739346
vn 0.089967 0.038141 0.995214
vn 0.089967 0.038141 0.995214
vn 0.089967 0.038141 0.995214
vn 0.154813 0.059366 0.986159
vn 0.154813 0.059366 0.986159
vn 0.154813 0.059366 0.986159
vn 0.100332 -0.060056 0.993140
vn 0.100332 -0.060056 0.993140
vn 0.100332 -0.060056 0.993140
vn -0.174258 0.191505 0.965899
vn -0.174258 0.191505 0.965899
vn -0.174258 0.191505 0.965899
vn -0.353126 -0.046995 0.934395
vn -0.353126 -0.046995 0.934395
vn -0.321782 0.071663 0.944098
vn -0.473307 -0.042461 0.879874
vn -0.062342 0.006882 0.998031
vn -0.062342 0.006882 0.998031
vn 0.069877 -0.077622 0.994531
vn 0.282439 -0.276833 0.918472
vn 0.069877 -0.077622 0.994531
vn 0.069877 -0.077622 0.994531
vn 0.282439 -0.276833 0.918472
vn 0.219666 -0.105216 0.969885
vn 0.553718 0.097251 0.827006
vn 0.636076 0.220851 0.739346
vn 0.146928 -0.006294 0.989127
s off
f 7/1/1 5/2/2 6/3/3
f 1/4/4 7/1/5 6/3/6
f 1/4/7 2/5/8 8/6/9 7/1/10
f 4/7/11 8/6/12 3/8/13
f 7/1/14 8/6/15 4/7/16 5/2/17
f 3/8/18 8/6/19 2/5/20
f 13/9/21 12/10/22 9/11/23
f 13/9/24 9/11/25 11/12/26
f 13/9/27 11/12/28 10/13/29
f 13/9/30 10/13/31 12/10/32
f 18/14/33 17/15/34 14/16/35
f 18/14/36 14/16/37 16/17/38
f 18/14/39 16/17/40 15/18/41
f 18/14/42 15/18/43 17/15/44
f 23/19/45 22/20/46 29/21/47
f 29/21/48 22/20/49 21/22/50
f 28/23/51 29/21/52 21/22/53
f 19/24/54 28/23/55 20/25/56
f 20/25/57 28/23/58 21/22/59
f 19/24/60 27/26/61 26/27/62
f 26/27/63 28/23/64 19/24/65
f 24/28/66 29/21/67 25/29/68
f 25/29/69 29/21/70 26/27/71
f 29/21/72 28/23/73 26/27/74
f 23/19/75 29/21/76 24/28/77
f 32/30/78 31/31/79 35/32/80
f 30/33/81 35/32/82 31/31/83
f 33/34/84 35/32/85 34/35/86
f 34/35/87 35/32/88 30/33/89
f 32/30/90 35/32/91 33/34/92
f 40/36/93 39/37/94 36/38/95
f 40/36/96 36/38/97 38/39/98
f 40/36/99 38/39/100 37/40/101
f 40/36/102 37/40/103 39/37/104
f 44/41/105 45/42/106 52/43/107
f 51/44/108 52/43/109 45/42/110
f 45/42/111 47/45/112 51/44/113
f 51/44/114 47/45/115 50/46/116
f 53/47/117 54/48/118 50/46/119
f 46/49/120 48/50/121 49/51/122
f 47/45/123 48/50/124 53/47/125
f 42/52/126 50/46/127 55/53/128
f 55/53/129 50/46/130 54/48/131
f 51/44/132 50/46/133 42/52/134
f 43/54/135 52/43/136 42/52/137
f 42/52/138 52/43/139 51/44/140
f 44/41/141 52/43/142 43/54/143
f 50/46/144 47/45/145 53/47/146
f 53/47/147 48/50/148 46/49/149
f 41/55/150 54/48/151 46/49/152
f 46/49/153 54/48/154 53/47/155
f 55/53/156 54/48/157 41/55/158
