# This file uses centimeters as units for non-parametric coordinates.

v 72.235001 111.305191 6.878766
v 72.555458 138.875854 -12.884814
v 72.222572 174.351486 -10.083680
v 71.325012 184.823212 21.022755
v 71.203232 171.291626 29.378132
v 71.720093 149.778564 15.746693
v 72.019279 118.952408 12.936573
v 74.764000 164.038681 5.105839
v 75.760933 143.975830 1.272159
v -66.425537 51.935837 55.089180
v -65.568779 221.991684 19.022583
v -69.623192 -7.270782 6.657143
v -70.985794 23.175125 -26.842896
v -69.681770 94.405914 -17.969425
v -68.557739 125.083305 -3.223701
v -69.216393 178.390839 -28.331844
v -65.541298 133.125748 53.508263
v -71.380623 127.684731 15.940872
v -75.976433 72.394554 19.860985
v -75.210762 168.193161 15.861855
v 66.100227 213.488144 4.146400
v 60.712540 226.931824 47.243210
v 73.456505 3.177605 8.945549
v 69.643761 52.274353 -24.268780
v 70.526367 94.947205 -16.410618
v 71.766167 130.768204 -31.703114
v 71.919083 159.870010 -19.279804
v 66.407600 13.701767 29.177727
v 55.464676 116.304855 50.180328
v 64.630409 73.925949 35.687614
v 61.575005 166.509750 48.392906
v 72.645157 163.040329 12.762383
v 77.820328 82.243935 12.984436
v 71.413528 122.455276 12.945213
v -56.525486 1.911842 46.442276
v 38.428772 -2.208099 65.217094
v 68.049591 23.835243 29.805889
v 65.980484 54.583157 33.678997
v 72.848686 99.347778 17.782448
v 52.691093 134.386719 50.714012
v 13.339958 139.496613 70.710960
v -22.092861 170.006104 68.537529
v -49.664211 126.660156 53.228779
v -70.916275 93.941139 22.565098
v -60.889290 51.366554 41.062969
v -22.304289 78.240753 77.159920
v 32.733402 67.681572 70.077385
v -37.883625 42.365494 67.610001
v 50.378052 94.180038 58.849262
v -34.564404 132.265579 67.915955
v -46.562859 83.787560 61.238155
v -27.215662 0.487305 66.764542
v 53.353188 60.792774 53.049873
v 55.319969 44.302181 51.102444
v 57.542473 12.576080 45.598640
v -8.552114 25.233139 73.576103
v -2.468041 -0.528854 76.241768
v -41.467316 -2.798691 68.344109
v -43.543377 107.340866 68.179192
v -58.147053 138.488571 44.597366
v -72.491203 97.590004 19.278934
v -76.219109 28.719849 10.942797
v -67.005966 -6.446541 25.352215
v -63.534927 35.284954 47.917671
v -60.141445 89.533058 46.646313
v 15.120377 21.040102 75.258057
v 27.727024 43.685173 73.335823
v 50.467148 48.318993 52.083981
v 67.069679 69.568855 32.737278
v 84.190712 36.359470 5.105804
v 69.393433 1.567053 21.439388
v 46.297089 -0.891151 54.426350
v 40.126717 5.336357 63.166752
v 19.629002 4.637682 71.336548
v 47.721031 25.372646 60.216644
v 63.517445 28.321861 40.818604
v -41.846703 -5.089783 63.676884
v -58.010422 39.397942 61.554729
v 14.148327 55.091305 75.183571
v 8.077988 37.478462 73.872284
v -14.406286 7.420900 73.375687
v -26.407352 27.906868 73.988152
v -19.039661 48.133400 75.396057
v -71.340401 155.548248 17.595097
v -69.692795 140.334747 33.022087
v -70.736969 101.418106 35.500671
v -70.091042 78.636597 45.793079
v -71.925507 34.770508 43.962860
v -73.435074 23.471870 36.197952
v -73.913818 8.808197 36.531944
v -77.398430 -5.323158 15.591909
v -78.176132 23.798748 2.772474
v -76.167191 81.147163 2.427029
v -73.391830 137.554840 7.709112
v -75.443199 134.446213 19.727644
v -77.299873 93.607368 23.127222
v -75.422462 71.267410 22.197657
v -79.103569 32.509502 19.877911
v 49.097580 30.111267 58.133663
v 72.778374 47.437138 26.535484
v 35.394272 34.826763 71.339119
v 37.518456 62.833485 70.109100
v 43.168404 71.374626 66.333862
v 41.812244 88.107742 68.255653
v 55.279083 97.207047 50.281570
v 64.285973 85.232666 38.145813
v 78.661148 75.724304 9.240276
v 46.746761 42.071877 64.005417
v 71.712822 65.582909 30.228029
v 52.860405 75.397263 56.251122
v 63.090393 54.919800 46.233551
v -10.981517 43.965950 76.000702
v 11.719556 69.173195 75.686172
v 12.863971 104.742111 75.540413
v -16.899954 118.603073 75.775131
v -26.704937 106.082176 75.917175
v -15.536243 83.187752 75.896103
v -16.156775 52.238785 76.019310
v -3.277997 96.160645 78.594872
v -1.662621 75.790512 79.405487
vt 0.585700 0.358733
vt 0.570506 0.279169
vt 0.619884 0.345786
vt 0.614397 0.432601
vt 0.577049 0.407932
vt 0.538747 0.459404
vt 0.550302 0.373546
vt 0.517800 0.426656
vt 0.555989 0.298095
vt 0.451489 0.200445
vt 0.446097 0.327365
vt 0.366936 0.253116
vt 0.402467 0.322552
vt 0.458997 0.543251
vt 0.347896 0.445994
vt 0.447682 0.420021
vt 0.532989 0.337857
vt 0.532052 0.151860
vt 0.417685 0.018945
vt 0.342590 0.090498
vt 0.035620 0.553963
vt 0.113161 0.405136
vt 0.134195 0.520404
vt 0.185603 0.396022
vt 0.174553 0.247636
vt 0.106585 0.222560
vt 0.191903 0.154028
vt 0.099947 0.038252
vt 0.029379 0.415678
vt 0.064607 0.064529
vt 0.053174 0.202854
vt 0.211943 0.328678
vt 0.109817 0.312298
vt 0.003199 0.295197
vt 0.180040 0.989312
vt 0.101970 0.890035
vt 0.151665 0.902873
vt 0.217374 0.657733
vt 0.229827 0.598730
vt 0.334124 0.594884
vt 0.361215 0.815645
vt 0.378163 0.907732
vt 0.268096 0.919435
vt 0.186808 0.779138
vt 0.313308 0.754954
vt 0.442232 0.654532
vt 0.431439 0.724955
vt 0.375436 0.739177
vt 0.382052 0.701408
vt 0.124108 0.791842
vt 0.144483 0.696972
vt 0.009335 0.815098
vt 0.061210 0.717587
vt 0.078238 0.604320
vt 0.395494 0.628744
vt 0.473640 0.827481
vt 0.166715 0.601057
vt 0.610932 0.926113
vt 0.624371 0.838182
vt 0.705743 0.875601
vt 0.699840 0.990282
vt 0.447552 0.992924
vt 0.486886 0.930244
vt 0.467097 0.862326
vt 0.374862 0.930947
vt 1.000000 0.526574
vt 0.935154 0.611397
vt 0.904446 0.520212
vt 0.871354 0.570073
vt 0.846754 0.520396
vt 0.747682 0.527381
vt 0.780842 0.576750
vt 0.757310 0.488575
vt 0.808164 0.485552
vt 0.940375 0.453480
vt 0.847684 0.459335
vt 0.535392 0.790797
vt 0.565729 0.829779
vt 0.461855 0.836427
vt 0.466868 0.720721
vt 0.629825 0.787477
vt 0.547508 0.734311
vt 0.657318 0.823918
vt 0.433170 0.546584
vt 0.387198 0.545853
vt 0.398481 0.515011
vt 0.086572 0.572208
vt 0.114476 0.524754
vt 0.167400 0.559007
vt 0.146133 0.523543
vt 0.314272 0.514759
vt 0.298681 0.544119
vt 0.263894 0.495364
vt 0.250794 0.548231
vt 0.169542 0.505146
vt 0.395586 0.570484
vt 0.274616 0.589438
vt 0.150929 0.596266
vt 0.702077 0.044164
vt 0.630169 0.098727
vt 0.635022 0.044160
vt 0.572743 0.097688
vt 0.584307 0.037977
vt 0.481763 0.030554
vt 0.517917 0.032788
vt 0.514576 0.089657
vt 0.548893 0.142064
vt 0.608102 0.140373
vt 0.519843 0.000000
vt 0.625245 0.000000
vt 0.537722 0.102300
vt 0.585700 0.358733
vt 0.570506 0.279169
vt 0.619884 0.345786
vt 0.614397 0.432601
vt 0.577049 0.407932
vt 0.538747 0.459404
vt 0.550302 0.373546
vt 0.517800 0.426656
vt 0.555989 0.298095
vn 0.975758 -0.134883 -0.172344
vn 0.975758 -0.134883 -0.172344
vn 0.975758 -0.134883 -0.172344
vn 0.988311 0.021194 -0.150969
vn 0.988311 0.021194 -0.150969
vn 0.988311 0.021194 -0.150969
vn 0.962780 0.096113 -0.252621
vn 0.962780 0.096113 -0.252621
vn 0.962780 0.096113 -0.252621
vn 0.981233 0.189534 -0.035492
vn 0.981233 0.189534 -0.035492
vn 0.981233 0.189534 -0.035492
vn 0.982068 -0.083504 0.169023
vn 0.982068 -0.083504 0.169023
vn 0.982068 -0.083504 0.169023
vn 0.989832 0.068175 0.124837
vn 0.989832 0.068175 0.124837
vn 0.989832 0.068175 0.124837
vn 0.962768 -0.003810 0.270303
vn 0.962768 -0.003810 0.270303
vn 0.962768 -0.003810 0.270303
vn 0.986789 -0.082578 0.139385
vn 0.986789 -0.082578 0.139385
vn 0.986789 -0.082578 0.139385
vn 0.961404 -0.015710 0.274693
vn 0.961404 -0.015710 0.274693
vn 0.961404 -0.015710 0.274693
vn -0.996971 -0.005188 0.077594
vn -0.998821 0.017664 0.045226
vn -0.989357 0.054312 -0.134990
vn -0.989357 0.054312 -0.134990
vn -0.998821 0.017664 0.045226
vn -0.988141 -0.024638 -0.151558
vn -0.937644 0.342560 -0.058955
vn -0.990773 0.063518 -0.119730
vn -0.991781 0.075823 0.103060
vn -0.998821 0.017664 0.045226
vn -0.996971 -0.005188 0.077594
vn -0.973576 0.039808 0.224867
vn -0.973576 0.039808 0.224867
vn -0.996971 -0.005188 0.077594
vn -0.981879 0.030345 0.187063
vn -0.937644 0.342560 -0.058955
vn -0.991781 0.075823 0.103060
vn -0.973576 0.039808 0.224867
vn -0.994672 -0.088177 0.053414
vn -0.996971 -0.005188 0.077594
vn -0.997213 -0.043800 -0.060400
vn -0.997213 -0.043800 -0.060400
vn -0.996971 -0.005188 0.077594
vn -0.989357 0.054312 -0.134990
vn -0.981879 0.030345 0.187063
vn -0.996971 -0.005188 0.077594
vn -0.994672 -0.088177 0.053414
vn -0.990773 0.063518 -0.119730
vn -0.988141 -0.024638 -0.151558
vn -0.991781 0.075823 0.103060
vn -0.991781 0.075823 0.103060
vn -0.988141 -0.024638 -0.151558
vn -0.998821 0.017664 0.045226
vn -0.973576 0.039808 0.224867
vn -0.991781 0.075823 0.103060
vn -0.998821 0.017664 0.045226
vn 0.992760 0.016435 0.118982
vn 0.990376 0.041395 0.132066
vn 0.992760 0.016435 0.118982
vn 0.992760 0.016435 0.118982
vn 0.990376 0.041395 0.132066
vn 0.997636 0.062401 -0.028780
vn 0.990100 0.039687 -0.134635
vn 0.992674 0.036696 0.115112
vn 0.981472 -0.033204 -0.188707
vn 0.981472 -0.033204 -0.188707
vn 0.992674 0.036696 0.115112
vn 0.994282 -0.059409 0.088732
vn 0.990376 0.041395 0.132066
vn 0.992760 0.016435 0.118982
vn 0.948515 -0.017676 0.316238
vn 0.994282 -0.059409 0.088732
vn 0.992674 0.036696 0.115112
vn 0.920863 -0.062406 0.384859
vn 0.920863 -0.062406 0.384859
vn 0.992674 0.036696 0.115112
vn 0.878927 0.024822 0.476309
vn 0.997636 0.062401 -0.028780
vn 0.990376 0.041395 0.132066
vn 0.999637 -0.026906 -0.001630
vn 0.999637 -0.026906 -0.001630
vn 0.990376 0.041395 0.132066
vn 0.981101 -0.001799 0.193487
vn 0.920359 -0.023168 0.390389
vn 0.981101 -0.001799 0.193487
vn 0.948515 -0.017676 0.316238
vn 0.948515 -0.017676 0.316238
vn 0.981101 -0.001799 0.193487
vn 0.990376 0.041395 0.132066
vn 0.992674 0.036696 0.115112
vn 0.981101 -0.001799 0.193487
vn 0.878927 0.024822 0.476309
vn 0.878927 0.024822 0.476309
vn 0.981101 -0.001799 0.193487
vn 0.920359 -0.023168 0.390389
vn 0.999637 -0.026906 -0.001630
vn 0.981101 -0.001799 0.193487
vn 0.990100 0.039687 -0.134635
vn 0.990100 0.039687 -0.134635
vn 0.981101 -0.001799 0.193487
vn 0.992674 0.036696 0.115112
vn -0.221133 0.173895 0.959615
vn -0.221133 0.173895 0.959615
vn -0.221133 0.173895 0.959615
vn -0.191639 -0.007804 0.981434
vn -0.031348 0.053327 0.998085
vn -0.004593 -0.124539 0.992204
vn 0.011847 0.111414 0.993704
vn 0.011847 0.111414 0.993704
vn 0.011847 0.111414 0.993704
vn 0.135642 0.099578 0.985741
vn 0.135642 0.099578 0.985741
vn 0.135642 0.099578 0.985741
vn -0.061252 0.046171 0.997054
vn -0.061252 0.046171 0.997054
vn -0.061252 0.046171 0.997054
vn -0.019339 -0.151473 0.988272
vn 0.082431 -0.045922 0.995538
vn -0.019339 -0.151473 0.988272
vn 0.107805 -0.050454 0.992891
vn 0.107805 -0.050454 0.992891
vn 0.107805 -0.050454 0.992891
vn 0.091161 0.013971 0.995738
vn 0.091161 0.013971 0.995738
vn 0.771254 -0.001888 0.636525
vn 0.831446 0.005386 0.555579
vn -0.198095 0.071982 0.977536
vn -0.198095 0.071982 0.977536
vn -0.198095 0.071982 0.977536
vn -0.112424 0.138975 0.983894
vn -0.694948 0.083160 0.714235
vn -0.112424 0.138975 0.983894
vn -0.162266 -0.086324 0.982964
vn -0.162266 -0.086324 0.982964
vn -0.162266 -0.086324 0.982964
vn -0.147219 -0.022132 0.988856
vn -0.147219 -0.022132 0.988856
vn -0.147219 -0.022132 0.988856
vn 0.688677 -0.023148 0.724698
vn 0.701204 -0.023981 0.712557
vn 0.033349 -0.060443 0.997614
vn 0.072512 -0.059415 0.995596
vn 0.758103 -0.045446 0.650550
vn 0.072512 -0.059415 0.995596
vn 0.084153 0.024529 0.996151
vn 0.084153 0.024529 0.996151
vn 0.084153 0.024529 0.996151
vn 0.084153 0.024529 0.996151
vn -0.156861 -0.079997 0.984376
vn -0.156861 -0.079997 0.984376
vn -0.789832 -0.071798 0.609106
vn 0.056687 0.145679 0.987706
vn 0.056687 0.145679 0.987706
vn 0.056687 0.145679 0.987706
vn 0.066083 0.083275 0.994333
vn 0.066083 0.083275 0.994333
vn 0.066083 0.083275 0.994333
vn -0.112424 0.138975 0.983894
vn -0.112424 0.138975 0.983894
vn -0.694948 0.083160 0.714235
vn -0.156861 -0.079997 0.984376
vn -0.789832 -0.071798 0.609106
vn -0.156861 -0.079997 0.984376
vn -0.004593 -0.124539 0.992204
vn -0.401241 -0.091236 0.911417
vn -0.004593 -0.124539 0.992204
vn 0.072512 -0.059415 0.995596
vn 0.758103 -0.045446 0.650550
vn 0.072512 -0.059415 0.995596
vn 0.831446 0.005386 0.555579
vn 0.771254 -0.001888 0.636525
vn 0.091161 0.013971 0.995738
vn 0.033349 -0.060443 0.997614
vn 0.033349 -0.060443 0.997614
vn 0.701204 -0.023981 0.712557
vn 0.688677 -0.023148 0.724698
vn -0.019339 -0.151473 0.988272
vn -0.019339 -0.151473 0.988272
vn 0.082431 -0.045922 0.995538
vn -0.004593 -0.124539 0.992204
vn -0.401241 -0.091236 0.911417
vn -0.031348 0.053327 0.998085
vn -0.191639 -0.007804 0.981434
vn -0.931463 -0.110046 0.346793
vn -0.931463 -0.110046 0.346793
vn -0.931463 -0.110046 0.346793
vn -0.833126 -0.207851 0.512541
vn -0.833126 -0.207851 0.512541
vn -0.833126 -0.207851 0.512541
vn -0.732476 0.011817 0.680690
vn -0.732476 0.011817 0.680690
vn -0.732476 0.011817 0.680690
vn -0.732476 0.011817 0.680690
vn -0.901932 0.054674 0.428404
vn -0.901932 0.054674 0.428404
vn -0.901932 0.054674 0.428404
vn -0.928576 0.032495 0.369718
vn -0.928576 0.032495 0.369718
vn -0.928576 0.032495 0.369718
vn -0.928576 0.032495 0.369718
vn -0.813090 0.057370 0.579304
vn -0.813090 0.057370 0.579304
vn -0.813090 0.057370 0.579304
vn 0.823834 0.039833 0.565430
vn 0.823834 0.039833 0.565430
vn 0.823834 0.039833 0.565430
vn 0.714735 0.074692 0.695395
vn 0.714735 0.074692 0.695395
vn 0.714735 0.074692 0.695395
vn 0.758105 0.135369 0.637929
vn 0.758105 0.135369 0.637929
vn 0.758105 0.135369 0.637929
vn 0.718715 0.009698 0.695237
vn 0.718715 0.009698 0.695237
vn 0.718715 0.009698 0.695237
vn 0.766425 0.131139 0.628804
vn 0.766425 0.131139 0.628804
vn 0.766425 0.131139 0.628804
vn 0.777590 -0.036013 0.627740
vn 0.777590 -0.036013 0.627740
vn 0.777590 -0.036013 0.627740
vn 0.712632 -0.185233 0.676642
vn 0.712632 -0.185233 0.676642
vn 0.712632 -0.185233 0.676642
vn 0.771675 -0.169310 0.613067
vn 0.771675 -0.169310 0.613067
vn 0.771675 -0.169310 0.613067
vn 0.740962 -0.129870 0.658870
vn 0.740962 -0.129870 0.658870
vn 0.740962 -0.129870 0.658870
vn 0.765655 -0.274434 0.581772
vn 0.765655 -0.274434 0.581772
vn 0.765655 -0.274434 0.581772
vn 0.835249 -0.101529 0.540418
vn 0.835249 -0.101529 0.540418
vn 0.835249 -0.101529 0.540418
vn -0.201700 0.120029 0.972065
vn -0.116691 -0.026601 0.992812
vn -0.201700 0.120029 0.972065
vn -0.243229 -0.042148 0.969053
vn -0.243229 -0.042148 0.969053
vn -0.243229 -0.042148 0.969053
vn -0.088809 -0.081704 0.992692
vn -0.088809 -0.081704 0.992692
vn -0.088809 -0.081704 0.992692
vn -0.124518 -0.102450 0.986914
vn -0.124518 -0.102450 0.986914
vn -0.124518 -0.102450 0.986914
vn -0.100933 -0.039226 0.994120
vn -0.100933 -0.039226 0.994120
vn -0.100933 -0.039226 0.994120
vn -0.201700 0.120029 0.972065
vn -0.116691 -0.026601 0.992812
vn -0.201700 0.120029 0.972065
vn -0.927717 0.211460 0.307614
vn -0.927717 0.211460 0.307614
vn -0.927717 0.211460 0.307614
vn -0.975803 -0.067540 0.207961
vn -0.975803 -0.067540 0.207961
vn -0.975803 -0.067540 0.207961
vn -0.937142 0.038496 0.346818
vn -0.937142 0.038496 0.346818
vn -0.937142 0.038496 0.346818
vn -0.924432 0.048891 0.378200
vn -0.924432 0.048891 0.378200
vn -0.924432 0.048891 0.378200
vn -0.900043 0.076631 0.429011
vn -0.900043 0.076631 0.429011
vn -0.900043 0.076631 0.429011
vn -0.909453 0.149507 0.387999
vn -0.909453 0.149507 0.387999
vn -0.909453 0.149507 0.387999
vn -0.964822 -0.091340 0.246529
vn -0.964822 -0.091340 0.246529
vn -0.964822 -0.091340 0.246529
vn -0.977015 0.032066 0.210743
vn -0.977015 0.032066 0.210743
vn -0.977015 0.032066 0.210743
vn -0.957583 0.074285 0.278416
vn -0.957583 0.074285 0.278416
vn -0.957583 0.074285 0.278416
vn -0.953927 -0.072617 0.291117
vn -0.953927 -0.072617 0.291117
vn -0.953927 -0.072617 0.291117
vn -0.976652 0.177685 -0.120740
vn -0.976652 0.177685 -0.120740
vn -0.976652 0.177685 -0.120740
vn -0.986575 0.031514 -0.160241
vn -0.986575 0.031514 -0.160241
vn -0.986575 0.031514 -0.160241
vn -0.994397 0.057248 -0.088871
vn -0.994397 0.057248 -0.088871
vn -0.994397 0.057248 -0.088871
vn -0.996493 -0.083568 -0.004224
vn -0.996493 -0.083568 -0.004224
vn -0.996493 -0.083568 -0.004224
vn -0.989440 0.100240 -0.104693
vn -0.989440 0.100240 -0.104693
vn -0.989440 0.100240 -0.104693
vn -0.997850 0.035288 0.055222
vn -0.997850 0.035288 0.055222
vn -0.997850 0.035288 0.055222
vn -0.998599 -0.041254 -0.033135
vn -0.998599 -0.041254 -0.033135
vn -0.998599 -0.041254 -0.033135
vn 0.809842 0.071462 0.582280
vn 0.809842 0.071462 0.582280
vn 0.809842 0.071462 0.582280
vn 0.808170 0.121861 0.576204
vn 0.808170 0.121861 0.576204
vn 0.808170 0.121861 0.576204
vn 0.843803 0.107027 0.525873
vn 0.843803 0.107027 0.525873
vn 0.843803 0.107027 0.525873
vn 0.719865 0.007975 0.694068
vn 0.719865 0.007975 0.694068
vn 0.719865 0.007975 0.694068
vn 0.776314 0.084869 0.624607
vn 0.776314 0.084869 0.624607
vn 0.776314 0.084869 0.624607
vn 0.829065 0.060213 0.555901
vn 0.829065 0.060213 0.555901
vn 0.829065 0.060213 0.555901
vn 0.766415 -0.155346 0.623278
vn 0.766415 -0.155346 0.623278
vn 0.766415 -0.155346 0.623278
vn 0.890539 -0.039920 0.453152
vn 0.890539 -0.039920 0.453152
vn 0.890539 -0.039920 0.453152
vn 0.842648 -0.059423 0.535176
vn 0.842648 -0.059423 0.535176
vn 0.842648 -0.059423 0.535176
vn 0.724832 -0.020343 0.688626
vn 0.724832 -0.020343 0.688626
vn 0.724832 -0.020343 0.688626
vn 0.692275 0.116930 0.712097
vn 0.692275 0.116930 0.712097
vn 0.692275 0.116930 0.712097
vn 0.726129 0.026654 0.687042
vn 0.726129 0.026654 0.687042
vn 0.726129 0.026654 0.687042
vn 0.737839 0.021617 0.674631
vn 0.737839 0.021617 0.674631
vn 0.737839 0.021617 0.674631
vn 0.835150 -0.231790 0.498797
vn 0.835150 -0.231790 0.498797
vn 0.835150 -0.231790 0.498797
vn 0.778628 -0.146498 0.610145
vn 0.778628 -0.146498 0.610145
vn 0.778628 -0.146498 0.610145
vn 0.190409 -0.159391 0.968679
vn 0.190409 -0.159391 0.968679
vn 0.190409 -0.159391 0.968679
vn 0.186946 -0.001989 0.982368
vn 0.186946 -0.001989 0.982368
vn 0.186946 -0.001989 0.982368
vn 0.295328 0.061361 0.953424
vn 0.295328 0.061361 0.953424
vn 0.295328 0.061361 0.953424
vn 0.090693 0.178155 0.979814
vn 0.090693 0.178155 0.979814
vn 0.090693 0.178155 0.979814
vn -0.142712 -0.070528 0.987248
vn -0.142712 -0.070528 0.987248
vn -0.142712 -0.070528 0.987248
vn -0.081717 0.075265 0.993810
vn -0.081717 0.075265 0.993810
vn -0.081717 0.075265 0.993810
vn -0.235133 0.020024 0.971757
vn -0.235133 0.020024 0.971757
vn -0.235133 0.020024 0.971757
vn -0.113007 -0.072923 0.990915
vn -0.113007 -0.072923 0.990915
vn -0.113007 -0.072923 0.990915
vn -0.240862 0.008693 0.970521
vn -0.240862 0.008693 0.970521
vn -0.240862 0.008693 0.970521
s off
f 9/1/1 1/2/2 2/3/3
f 3/4/4 8/5/5 2/3/6
f 2/3/7 8/5/8 9/1/9
f 4/6/10 8/5/11 3/4/12
f 6/7/13 8/5/14 5/8/15
f 5/8/16 8/5/17 4/6/18
f 9/1/19 8/5/20 6/7/21
f 1/2/22 9/1/23 7/9/24
f 7/9/25 9/1/26 6/7/27
f 19/10/28 18/11/29 14/12/30
f 14/12/31 18/11/32 15/13/33
f 11/14/34 16/15/35 20/16/36
f 18/11/37 19/10/38 17/17/39
f 17/17/40 19/10/41 10/18/42
f 11/14/43 20/16/44 17/17/45
f 12/19/46 19/10/47 13/20/48
f 13/20/49 19/10/50 14/12/51
f 10/18/52 19/10/53 12/19/54
f 16/15/55 15/13/56 20/16/57
f 20/16/58 15/13/59 18/11/60
f 17/17/61 20/16/62 18/11/63
f 22/21/64 32/22/65 21/23/66
f 21/23/67 32/22/68 27/24/69
f 25/25/70 33/26/71 24/27/72
f 24/27/73 33/26/74 23/28/75
f 32/22/76 22/21/77 31/29/78
f 23/28/79 33/26/80 28/30/81
f 28/30/82 33/26/83 30/31/84
f 27/24/85 32/22/86 26/32/87
f 26/32/88 32/22/89 34/33/90
f 29/34/91 34/33/92 31/29/93
f 31/29/94 34/33/95 32/22/96
f 33/26/97 34/33/98 30/31/99
f 30/31/100 34/33/101 29/34/102
f 26/32/103 34/33/104 25/25/105
f 25/25/106 34/33/107 33/26/108
f 42/35/109 43/36/110 50/37/111
f 56/38/112 57/39/113 36/40/114
f 49/41/115 40/42/116 41/43/117
f 41/43/118 46/44/119 47/45/120
f 47/45/121 49/41/122 41/43/123
f 46/44/124 56/38/125 36/40/126
f 36/40/127 47/45/128 46/44/129
f 37/46/130 38/47/131 53/48/132 54/49/133
f 46/44/134 50/37/135 43/36/136
f 43/36/137 51/50/138 46/44/139
f 48/51/140 44/52/141 45/53/142
f 35/54/143 48/51/144 45/53/145
f 54/49/146 55/55/147 37/46/148
f 49/41/149 53/48/150 38/47/151
f 38/47/152 39/56/153 40/42/154 49/41/155
f 48/51/156 46/44/157 51/50/158
f 41/43/159 50/37/160 46/44/161
f 42/35/162 50/37/163 41/43/164
f 43/36/165 44/52/166 51/50/167
f 48/51/168 51/50/169 44/52/170
f 35/54/171 52/57/172 48/51/173
f 47/45/174 53/48/175 49/41/176
f 54/49/177 53/48/178 47/45/179
f 47/45/180 36/40/181 55/55/182 54/49/183
f 46/44/184 48/51/185 56/38/186
f 48/51/187 52/57/188 57/39/189 56/38/190
f 64/58/191 62/59/192 63/60/193
f 58/61/194 64/58/195 63/60/196
f 58/61/197 59/62/198 65/63/199 64/58/200
f 61/64/201 65/63/202 60/65/203
f 64/58/204 65/63/205 61/64/206 62/59/207
f 60/65/208 65/63/209 59/62/210
f 70/66/211 69/67/212 76/68/213
f 76/68/214 69/67/215 68/69/216
f 75/70/217 76/68/218 68/69/219
f 66/71/220 75/70/221 67/72/222
f 67/72/223 75/70/224 68/69/225
f 66/71/226 74/73/227 73/74/228
f 73/74/229 75/70/230 66/71/231
f 71/75/232 76/68/233 72/76/234
f 72/76/235 76/68/236 73/74/237
f 76/68/238 75/70/239 73/74/240
f 70/66/241 76/68/242 71/75/243
f 82/77/244 83/78/245 78/79/246
f 77/80/247 82/77/248 78/79/249
f 80/81/250 82/77/251 81/82/252
f 81/82/253 82/77/254 77/80/255
f 79/83/256 82/77/257 80/81/258
f 79/83/259 83/78/260 82/77/261
f 84/84/262 95/85/263 85/86/264
f 91/87/265 90/88/266 98/89/267
f 98/89/268 90/88/269 89/90/270
f 85/86/271 95/85/272 86/91/273
f 86/91/274 95/85/275 96/92/276
f 86/91/277 96/92/278 87/93/279
f 87/93/280 96/92/281 97/94/282
f 87/93/283 97/94/284 88/95/285
f 88/95/286 97/94/287 98/89/288
f 98/89/289 89/90/290 88/95/291
f 84/84/292 94/96/293 95/85/294
f 95/85/295 94/96/296 96/92/297
f 96/92/298 94/96/299 93/97/300
f 97/94/301 96/92/302 93/97/303
f 98/89/304 97/94/305 92/98/306
f 92/98/307 97/94/308 93/97/309
f 92/98/310 91/87/311 98/89/312
f 107/99/313 106/100/314 109/101/315
f 110/102/316 111/103/317 106/100/318
f 106/100/319 111/103/320 109/101/321
f 101/104/322 108/105/323 102/106/324
f 104/107/325 110/102/326 105/108/327
f 105/108/328 110/102/329 106/100/330
f 101/104/331 99/109/332 108/105/333
f 111/103/334 100/110/335 109/101/336
f 107/99/337 109/101/338 100/110/339
f 103/111/340 110/102/341 104/107/342
f 102/106/343 110/102/344 103/111/345
f 111/103/346 110/102/347 108/105/348
f 108/105/349 110/102/350 102/106/351
f 100/110/352 111/103/353 99/109/354
f 99/109/355 111/103/356 108/105/357
f 120/112/358 112/113/359 113/114/360
f 114/115/361 119/116/362 113/114/363
f 113/114/364 119/116/365 120/112/366
f 115/117/367 119/116/368 114/115/369
f 117/118/370 119/116/371 116/119/372
f 116/119/373 119/116/374 115/117/375
f 120/112/376 119/116/377 117/118/378
f 112/113/379 120/112/380 118/120/381
f 118/120/382 120/112/383 117/118/384
