# This file uses centimeters as units for non-parametric coordinates.

v 20.125351 -7.632260 -1.070557
v 8.180847 -10.268345 -28.887939
v -24.187851 -8.248057 -22.507629
v -23.346024 -8.083992 4.245605
v -3.218307 -7.625909 15.367737
v -14.073181 110.055389 -8.716736
v -4.195251 110.055511 2.103271
v -3.366089 -21.702915 -9.977722
v 0.133362 110.055542 -21.783142
v 8.061676 110.055466 -4.678040
v 5.485764 10.759892 -29.268799
v -21.749649 10.923157 -20.051270
v -23.181839 10.272322 5.219116
v -1.234665 10.411828 14.650574
v 19.634018 10.385857 0.251465
v 2.850800 36.520302 -22.005920
v -17.602997 37.460297 -13.363953
v -16.333084 36.022316 -2.604065
v -1.511459 33.645073 6.837158
v 11.729736 33.549694 -2.188416
v -29.576797 -20.061378 20.097046
v -18.076401 -18.040752 28.839417
v -22.093887 -10.160824 31.453857
v -30.318451 -11.535479 25.124817
v 32.381218 -19.933891 -9.044189
v 32.303009 -17.872318 -20.229187
v 33.723076 -8.191390 -18.623962
v 34.382172 -7.685475 -10.052795
v -13.539886 -23.289085 -42.097778
v -25.145798 -23.221554 -37.607117
v -24.283829 -9.621273 -40.260925
v -14.684830 -9.688803 -42.962646
v -71.847610 157.254562 11.046600
v -43.378983 332.606750 47.965240
v -58.975067 142.892960 49.970856
v -61.654587 243.165741 -43.524475
v -48.677673 377.872955 -6.112061
v -24.536743 239.151764 66.810760
v -34.002609 507.419647 -5.869751
v -47.788620 86.867088 46.740875
v -65.225677 88.946609 -17.192688
v -28.430786 326.842957 -56.393738
v -75.816193 151.062485 -61.851959
v 2.802124 174.207764 88.178253
v -7.984848 544.120239 -13.076324
v -6.504364 490.149933 32.043304
v 41.181412 88.065582 40.792084
v 11.056824 364.705902 63.445282
v -45.979385 117.031311 -72.790222
v 9.924011 380.446564 -43.538361
v 32.054832 80.787254 -8.870697
v 57.602310 134.089066 61.602173
v 16.355286 109.233276 -74.028473
v 54.933617 234.323227 21.298370
v 26.523438 228.294800 -60.646362
v 19.756088 489.303284 -18.178864
v 46.718895 219.512634 -26.563568
vt 0.153587 0.108512
vt 0.153587 0.108512
vt 0.153587 0.108512
vt 0.153587 0.108512
vt 0.153587 0.108512
vt 0.153587 0.108512
vt 0.153587 0.108512
vt 0.153587 0.108512
vt 0.153587 0.108512
vt 0.153587 0.108512
vt 0.153587 0.108512
vt 0.153587 0.108512
vt 0.153587 0.108512
vt 0.153587 0.108512
vt 0.153587 0.108512
vt 0.153587 0.108512
vt 0.153587 0.108512
vt 0.153587 0.108512
vt 0.153587 0.108512
vt 0.153587 0.108512
vt 0.153587 0.108512
vt 0.153587 0.108512
vt 0.153587 0.108512
vt 0.153587 0.108512
vt 0.153587 0.108512
vt 0.153587 0.108512
vt 0.153587 0.108512
vt 0.153587 0.108512
vt 0.153587 0.108512
vt 0.153587 0.108512
vt 0.153587 0.108512
vt 0.153587 0.108512
vt 0.153587 0.108512
vt 0.153587 0.108512
vt 0.153587 0.108512
vt 0.153587 0.108512
vt 0.153587 0.108512
vt 0.153587 0.108512
vt 0.153587 0.108512
vt 0.153587 0.108512
vt 0.153587 0.108512
vt 0.153587 0.108512
vt 0.153587 0.108512
vt 0.272071 0.185544
vt 0.272071 0.185544
vt 0.272071 0.185544
vt 0.272071 0.185544
vt 0.272071 0.185544
vt 0.272071 0.185544
vt 0.272071 0.185544
vt 0.272071 0.185544
vt 0.272071 0.185544
vt 0.272071 0.185544
vt 0.272071 0.185544
vt 0.272071 0.185544
vt 0.272071 0.185544
vt 0.272071 0.185544
vt 0.272071 0.185544
vt 0.272071 0.185544
vt 0.272071 0.185544
vt 0.272071 0.185544
vt 0.272071 0.185544
vt 0.272071 0.185544
vt 0.272071 0.185544
vt 0.272071 0.185544
vt 0.272071 0.185544
vt 0.272071 0.185544
vt 0.272071 0.185544
vt 0.272071 0.185544
vt 0.272071 0.185544
vt 0.272071 0.185544
vt 0.272071 0.185544
vt 0.272071 0.185544
vt 0.272071 0.185544
vt 0.272071 0.185544
vt 0.272071 0.185544
vt 0.272071 0.185544
vt 0.272071 0.185544
vt 0.272071 0.185544
vt 0.272071 0.185544
vt 0.272071 0.185544
vt 0.272071 0.185544
vt 0.272071 0.185544
vt 0.272071 0.185544
vt 0.272071 0.185544
vt 0.272071 0.185544
vt 0.272071 0.185544
vt 0.272071 0.185544
vt 0.272071 0.185544
vt 0.272071 0.185544
vt 0.272071 0.185544
vt 0.272071 0.185544
vt 0.272071 0.185544
vt 0.272071 0.185544
vt 0.272071 0.185544
vt 0.272071 0.185544
vt 0.272071 0.185544
vn 0.550971 -0.819248 -0.158946
vn 0.550971 -0.819248 -0.158946
vn 0.550971 -0.819248 -0.158946
vn -0.164423 -0.796413 -0.581972
vn -0.164423 -0.796413 -0.581972
vn -0.164423 -0.796413 -0.581972
vn -0.552111 -0.833468 0.022484
vn -0.552111 -0.833468 0.022484
vn -0.552111 -0.833468 0.022484
vn 0.322416 -0.828325 0.458176
vn 0.322416 -0.828325 0.458176
vn 0.322416 -0.828325 0.458176
vn -0.334284 0.251917 -0.908181
vn -0.334284 0.251917 -0.908181
vn -0.334284 0.251917 -0.908181
vn -0.334284 0.251917 -0.908181
vn -0.978536 0.205939 0.007532
vn -0.978536 0.205939 0.007532
vn -0.978536 0.205939 0.007532
vn -0.978536 0.205939 0.007532
vn -0.415766 0.326726 0.848758
vn -0.415766 0.326726 0.848758
vn -0.415766 0.326726 0.848758
vn -0.415766 0.326726 0.848758
vn 0.545509 0.271420 0.792938
vn 0.545509 0.271420 0.792938
vn 0.545509 0.271420 0.792938
vn 0.545509 0.271420 0.792938
vn 0.887654 0.230519 -0.398663
vn 0.887653 0.230519 -0.398663
vn 0.887654 0.230519 -0.398663
vn 0.887654 0.230519 -0.398663
vn -0.319411 -0.124839 -0.939357
vn -0.319411 -0.124839 -0.939357
vn -0.319411 -0.124839 -0.939357
vn -0.319411 -0.124839 -0.939357
vn -0.997480 0.070146 -0.010663
vn -0.997480 0.070146 -0.010663
vn -0.997480 0.070146 -0.010663
vn -0.997480 0.070146 -0.010663
vn -0.478507 -0.481010 0.734616
vn -0.478507 -0.481010 0.734616
vn -0.478507 -0.481010 0.734616
vn -0.478507 -0.481010 0.734616
vn 0.571658 -0.037410 0.819639
vn 0.571658 -0.037410 0.819639
vn 0.571658 -0.037410 0.819639
vn 0.571658 -0.037410 0.819639
vn 0.987071 -0.152656 -0.048858
vn 0.987071 -0.152656 -0.048858
vn 0.987071 -0.152656 -0.048858
vn 0.987071 -0.152656 -0.048858
vn -0.529936 0.031189 -0.847464
vn -0.529936 0.031189 -0.847464
vn -0.529936 0.031189 -0.847464
vn -0.529936 0.031189 -0.847464
vn -0.991655 0.040380 0.122434
vn -0.991655 0.040380 0.122434
vn -0.991655 0.040380 0.122434
vn -0.630178 0.054068 0.774566
vn -0.630178 0.054068 0.774566
vn -0.630178 0.054068 0.774566
vn -0.630178 0.054068 0.774566
vn 0.526049 0.061919 0.848197
vn 0.526049 0.061919 0.848197
vn 0.526049 0.061919 0.848197
vn 0.526049 0.061919 0.848197
vn 0.910644 0.032532 -0.411910
vn 0.910644 0.032532 -0.411910
vn 0.910644 0.032532 -0.411910
vn 0.910644 0.032532 -0.411910
vn 0.326591 -0.849686 -0.413971
vn 0.326591 -0.849686 -0.413971
vn 0.326591 -0.849686 -0.413971
vn 0.326591 -0.849686 -0.413971
vn 0.648991 -0.004764 0.760781
vn 0.648991 -0.004764 0.760781
vn 0.648991 -0.004764 0.760781
vn 0.648991 -0.004764 0.760781
vn -0.342954 0.734144 0.586016
vn -0.342954 0.734144 0.586016
vn -0.342954 0.734144 0.586016
vn -0.342954 0.734144 0.586016
vn -0.949776 0.048609 -0.309134
vn -0.949776 0.048609 -0.309134
vn -0.949776 0.048609 -0.309134
vn -0.949776 0.048609 -0.309134
vn -0.476187 -0.864753 0.159525
vn -0.476186 -0.864753 0.159525
vn -0.476187 -0.864753 0.159525
vn -0.476187 -0.864753 0.159525
vn 0.368689 0.052310 -0.928080
vn 0.368689 0.052310 -0.928080
vn 0.368689 0.052310 -0.928080
vn 0.368689 0.052310 -0.928080
vn 0.633225 0.732924 -0.248692
vn 0.633225 0.732924 -0.248692
vn 0.633225 0.732924 -0.248692
vn 0.633225 0.732924 -0.248692
vn 0.532629 -0.035323 0.845611
vn 0.532629 -0.035323 0.845611
vn 0.532629 -0.035323 0.845611
vn 0.532629 -0.035323 0.845611
vn 0.123874 -0.753405 0.645783
vn 0.123874 -0.753405 0.645783
vn 0.123874 -0.753405 0.645783
vn 0.123874 -0.753405 0.645783
vn -0.994966 0.100181 -0.002370
vn -0.994966 0.100181 -0.002370
vn -0.994966 0.100181 -0.002370
vn -0.994966 0.100181 -0.002370
vn -0.218635 0.690963 -0.689034
vn -0.218635 0.690963 -0.689034
vn -0.218635 0.690963 -0.689034
vn -0.218635 0.690963 -0.689034
vn 0.524500 0.027550 -0.850965
vn 0.524500 0.027550 -0.850965
vn 0.524500 0.027550 -0.850965
vn 0.524500 0.027550 -0.850965
vn -0.241651 -0.847706 0.472229
vn -0.241651 -0.847705 0.472229
vn -0.241651 -0.847705 0.472229
vn -0.983102 0.108866 0.147167
vn -0.983102 0.108866 0.147167
vn -0.983102 0.108866 0.147167
vn -0.992193 0.103989 0.068840
vn -0.992193 0.103989 0.068840
vn -0.992193 0.103989 0.068840
vn -0.939268 0.069167 0.336143
vn -0.939268 0.069167 0.336143
vn -0.939268 0.069167 0.336143
vn -0.582595 0.048359 0.811323
vn -0.582595 0.048359 0.811323
vn -0.582595 0.048359 0.811323
vn -0.827643 0.473071 0.302013
vn -0.827643 0.473071 0.302013
vn -0.827643 0.473071 0.302013
vn 0.002604 0.207292 0.978276
vn 0.002604 0.207292 0.978276
vn 0.002604 0.207292 0.978276
vn -0.776607 0.202008 0.596719
vn -0.776607 0.202008 0.596719
vn -0.776607 0.202008 0.596719
vn -0.950942 0.056547 0.304157
vn -0.950942 0.056547 0.304157
vn -0.950942 0.056547 0.304157
vn -0.978458 -0.009599 -0.206223
vn -0.978458 -0.009599 -0.206223
vn -0.978458 -0.009599 -0.206223
vn -0.537655 0.032696 0.842531
vn -0.537655 0.032696 0.842531
vn -0.537655 0.032696 0.842531
vn -0.855286 0.227358 -0.465612
vn -0.855286 0.227358 -0.465612
vn -0.855286 0.227358 -0.465612
vn -0.823182 0.291813 -0.487048
vn -0.823182 0.291813 -0.487048
vn -0.823182 0.291813 -0.487048
vn -0.949493 -0.203358 0.238973
vn -0.949493 -0.203358 0.238973
vn -0.949493 -0.203358 0.238973
vn -0.459707 0.440982 -0.770847
vn -0.459707 0.440982 -0.770847
vn -0.459707 0.440982 -0.770847
vn -0.644708 0.163471 -0.746745
vn -0.644708 0.163471 -0.746745
vn -0.644708 0.163472 -0.746745
vn -0.947634 -0.196078 0.252077
vn -0.947634 -0.196078 0.252077
vn -0.947634 -0.196078 0.252077
vn -0.466909 -0.143531 0.872579
vn -0.466909 -0.143531 0.872579
vn -0.466909 -0.143531 0.872579
vn -0.359632 0.842824 0.400390
vn -0.359632 0.842824 0.400390
vn -0.359632 0.842824 0.400390
vn -0.726525 -0.478459 -0.493193
vn -0.726525 -0.478459 -0.493193
vn -0.726525 -0.478459 -0.493193
vn 0.011086 -0.999307 -0.035527
vn 0.011086 -0.999307 -0.035527
vn 0.011086 -0.999307 -0.035527
vn 0.065438 -0.458408 0.886329
vn 0.065438 -0.458408 0.886329
vn 0.065438 -0.458408 0.886329
vn -0.283118 0.124492 0.950971
vn -0.283118 0.124492 0.950971
vn -0.283118 0.124492 0.950971
vn -0.611725 0.228052 0.757486
vn -0.611725 0.228052 0.757486
vn -0.611725 0.228052 0.757486
vn -0.096203 -0.982153 0.161619
vn -0.096203 -0.982153 0.161619
vn -0.096204 -0.982153 0.161619
vn 0.108710 -0.441505 0.890649
vn 0.108710 -0.441505 0.890649
vn 0.108710 -0.441505 0.890649
vn 0.484179 0.084461 0.870883
vn 0.484179 0.084461 0.870883
vn 0.484179 0.084461 0.870883
vn 0.008711 0.406093 -0.913790
vn 0.008711 0.406093 -0.913790
vn 0.008711 0.406093 -0.913790
vn -0.258572 0.082647 -0.962450
vn -0.258572 0.082647 -0.962450
vn -0.258572 0.082647 -0.962450
vn -0.035033 -0.887103 -0.460241
vn -0.035033 -0.887102 -0.460241
vn -0.035033 -0.887102 -0.460241
vn -0.122491 -0.920053 -0.372155
vn -0.122491 -0.920053 -0.372155
vn -0.122491 -0.920053 -0.372155
vn 0.183891 0.436901 -0.880512
vn 0.183891 0.436901 -0.880512
vn 0.183891 0.436901 -0.880512
vn 0.950981 -0.278755 -0.133910
vn 0.950981 -0.278755 -0.133910
vn 0.950980 -0.278755 -0.133910
vn 0.624491 0.716865 0.310027
vn 0.624491 0.716865 0.310027
vn 0.624491 0.716865 0.310027
vn 0.034644 0.064044 -0.997346
vn 0.034644 0.064044 -0.997346
vn 0.034644 0.064044 -0.997346
vn -0.009141 0.085140 -0.996327
vn -0.009141 0.085140 -0.996327
vn -0.009141 0.085140 -0.996327
vn 0.860842 0.158085 0.483694
vn 0.860842 0.158085 0.483694
vn 0.860842 0.158085 0.483694
vn 0.936512 0.338250 0.092374
vn 0.936512 0.338250 0.092374
vn 0.936512 0.338250 0.092374
vn 0.205819 0.160662 -0.965312
vn 0.205819 0.160662 -0.965312
vn 0.205819 0.160662 -0.965312
vn 0.885087 0.177750 -0.430146
vn 0.885087 0.177750 -0.430146
vn 0.885087 0.177750 -0.430146
vn 0.953687 -0.112582 -0.278938
vn 0.953687 -0.112582 -0.278938
vn 0.953687 -0.112582 -0.278938
vn 0.958298 -0.111327 -0.263195
vn 0.958298 -0.111327 -0.263195
vn 0.958298 -0.111327 -0.263195
vn 0.852109 0.284951 0.438992
vn 0.852109 0.284951 0.438992
vn 0.852109 0.284951 0.438992
vn 0.807254 0.140513 -0.573233
vn 0.807254 0.140513 -0.573233
vn 0.807254 0.140513 -0.573233
vn 0.857530 -0.011650 -0.514302
vn 0.857530 -0.011650 -0.514302
vn 0.857530 -0.011650 -0.514302
vn 0.987304 -0.026668 -0.156586
vn 0.987304 -0.026668 -0.156586
vn 0.987304 -0.026668 -0.156586
vn 0.960509 0.147411 -0.235992
vn 0.960509 0.147411 -0.235992
vn 0.960509 0.147411 -0.235992
s off
f 2/2/1 1/1/2 8/14/3
f 3/3/4 2/2/5 8/14/6
f 4/4/7 3/3/8 8/14/9
f 1/1/10 5/5/11 8/14/12
f 11/18/13 12/19/14 17/25/15 16/24/16
f 12/19/17 13/20/18 18/26/19 17/25/20
f 13/20/21 14/21/22 19/27/23 18/26/24
f 14/21/25 15/22/26 20/28/27 19/27/28
f 15/23/29 11/18/30 16/24/31 20/29/32
f 29/40/33 30/41/34 31/42/35 32/43/36
f 3/8/37 4/9/38 13/20/39 12/19/40
f 21/35/41 22/32/42 23/33/43 24/34/44
f 5/10/45 1/11/46 15/22/47 14/21/48
f 25/36/49 26/37/50 27/38/51 28/39/52
f 16/24/53 17/25/54 6/12/55 9/15/56
f 17/25/57 18/26/58 6/12/59
f 18/26/60 19/27/61 7/13/62 6/12/63
f 19/27/64 20/28/65 10/16/66 7/13/67
f 20/29/68 16/24/69 9/15/70 10/17/71
f 22/31/72 21/30/73 4/4/74 5/5/75
f 5/10/76 14/21/77 23/33/78 22/32/79
f 14/21/80 13/20/81 24/34/82 23/33/83
f 13/20/84 4/9/85 21/35/86 24/34/87
f 1/6/88 2/7/89 26/37/90 25/36/91
f 2/7/92 11/18/93 27/38/94 26/37/95
f 11/18/96 15/23/97 28/39/98 27/38/99
f 15/23/100 1/6/101 25/36/102 28/39/103
f 2/7/104 3/8/105 30/41/106 29/40/107
f 3/8/108 12/19/109 31/42/110 30/41/111
f 12/19/112 11/18/113 32/43/114 31/42/115
f 11/18/116 2/7/117 29/40/118 32/43/119
f 5/5/120 4/4/121 8/14/122
f 33/44/123 34/45/124 37/46/125
f 37/47/126 36/48/127 33/49/128
f 33/49/129 35/50/130 34/45/131
f 35/50/132 38/51/133 34/45/134
f 37/52/135 34/53/136 46/54/137
f 38/55/138 46/54/139 34/53/140
f 46/56/141 39/57/142 37/46/143
f 36/48/144 43/58/145 41/59/146
f 36/60/147 41/61/148 33/62/149
f 35/50/150 44/63/151 38/51/152
f 37/64/153 39/65/154 42/66/155
f 37/47/156 42/67/157 36/48/158
f 33/62/159 40/68/160 35/69/161
f 39/65/162 45/70/163 42/66/164
f 42/67/165 43/58/166 36/48/167
f 41/61/168 40/68/169 33/62/170
f 40/71/171 44/63/172 35/50/173
f 46/56/174 45/72/175 39/57/176
f 43/58/177 49/73/178 41/59/179
f 40/71/180 41/59/181 47/74/182
f 40/71/183 47/74/184 44/63/185
f 44/63/186 48/75/187 38/51/188
f 38/51/189 48/75/190 46/56/191
f 41/59/192 51/76/193 47/74/194
f 44/77/195 47/78/196 52/79/197
f 44/63/198 52/80/199 48/75/200
f 45/81/201 50/82/202 42/67/203
f 42/67/204 49/73/205 43/58/206
f 41/59/207 49/73/208 51/76/209
f 49/73/210 53/83/211 51/76/212
f 45/81/213 56/84/214 50/82/215
f 47/74/216 51/76/217 52/80/218
f 46/85/219 56/86/220 45/72/221
f 42/67/222 55/87/223 49/73/224
f 49/73/225 55/87/226 53/83/227
f 52/80/228 54/88/229 48/75/230
f 48/75/231 54/88/232 46/85/233
f 50/82/234 55/87/235 42/67/236
f 50/82/237 57/89/238 55/87/239
f 53/83/240 57/90/241 51/76/242
f 51/76/243 57/90/244 52/80/245
f 46/85/246 54/88/247 56/86/248
f 50/82/249 56/84/250 57/89/251
f 55/91/252 57/92/253 53/93/254
f 52/94/255 57/95/256 54/96/257
f 54/88/258 57/97/259 56/86/260
