# This file uses centimeters as units for non-parametric coordinates.

v 0.680763 0.000000 36.867901
v 20.881657 0.000000 9.614149
v 18.636955 0.000000 -25.902603
v -12.311952 0.000000 -36.867901
v -20.881660 0.000000 -23.470484
v -7.585005 0.000000 -1.742762
v -5.258307 0.000000 29.125103
v 3.357444 2.866035 -15.810196
v 6.896622 3.615050 4.317448
vt 0.585700 0.358733
vt 0.570506 0.279169
vt 0.619884 0.345786
vt 0.614397 0.432601
vt 0.577049 0.407932
vt 0.538747 0.459404
vt 0.550302 0.373546
vt 0.517800 0.426656
vt 0.555989 0.298095
vn 0.195751 0.969861 0.145093
vn 0.195751 0.969861 0.145093
vn 0.195751 0.969861 0.145093
vn 0.177196 0.984112 -0.011199
vn 0.177196 0.984112 -0.011199
vn 0.177196 0.984112 -0.011199
vn 0.279320 0.956454 -0.084708
vn 0.279320 0.956454 -0.084708
vn 0.279320 0.956454 -0.084708
vn 0.064263 0.981311 -0.181380
vn 0.064263 0.981311 -0.181380
vn 0.064263 0.981311 -0.181380
vn -0.144473 0.985551 0.088413
vn -0.144473 0.985551 0.088413
vn -0.144473 0.985551 0.088413
vn -0.097694 0.993253 -0.062490
vn -0.097694 0.993253 -0.062490
vn -0.097694 0.993253 -0.062490
vn -0.244945 0.969512 0.006992
vn -0.244945 0.969512 0.006992
vn -0.244945 0.969512 0.006992
vn -0.114710 0.989495 0.087988
vn -0.114710 0.989495 0.087988
vn -0.114710 0.989495 0.087988
vn -0.249558 0.968177 0.018811
vn -0.249558 0.968177 0.018811
vn -0.249558 0.968177 0.018811
s off
f 9/1/1 1/2/2 2/3/3
f 3/4/4 8/5/5 2/3/6
f 2/3/7 8/5/8 9/1/9
f 4/6/10 8/5/11 3/4/12
f 6/7/13 8/5/14 5/8/15
f 5/8/16 8/5/17 4/6/18
f 9/1/19 8/5/20 6/7/21
f 1/2/22 9/1/23 7/9/24
f 7/9/25 9/1/26 6/7/27
