# This file uses centimeters as units for non-parametric coordinates.

v -66.425537 51.935837 55.089180
v -65.568779 221.991684 19.022583
v -69.623192 -7.270782 6.657143
v -70.985794 23.175125 -26.842896
v -69.681770 94.405914 -17.969425
v -68.557739 125.083305 -3.223701
v -69.216393 178.390839 -28.331844
v -65.541298 133.125748 53.508263
v -71.380623 127.684731 15.940872
v -75.976433 72.394554 19.860985
v -75.210762 168.193161 15.861855
v 66.100227 213.488144 4.146400
v 60.712540 226.931824 47.243210
v 73.456505 3.177605 8.945549
v 69.643761 52.274353 -24.268780
v 70.526367 94.947205 -16.410618
v 71.766167 130.768204 -31.703114
v 71.919083 159.870010 -19.279804
v 66.407600 13.701767 29.177727
v 55.464676 116.304855 50.180328
v 64.630409 73.925949 35.687614
v 61.575005 166.509750 48.392906
v 72.645157 163.040329 12.762383
v 77.820328 82.243935 12.984436
v 71.413528 122.455276 12.945213
v -56.525486 1.911842 46.442276
v 38.428772 -2.208099 65.217094
v 68.049591 23.835243 29.805889
v 65.980484 54.583157 33.678997
v 72.848686 99.347778 17.782448
v 52.691093 134.386719 50.714012
v 13.339958 139.496613 70.710960
v -22.092861 170.006104 68.537529
v -49.664211 126.660156 53.228779
v -70.916275 93.941139 22.565098
v -60.889290 51.366554 41.062969
v -22.304289 78.240753 77.159920
v 32.733402 67.681572 70.077385
v -37.883625 42.365494 67.610001
v 50.378052 94.180038 58.849262
v -34.564404 132.265579 67.915955
v -46.562859 83.787560 61.238155
v -27.215662 0.487305 66.764542
v 53.353188 60.792774 53.049873
v 55.319969 44.302181 51.102444
v 57.542473 12.576080 45.598640
v -8.552114 25.233139 73.576103
v -2.468041 -0.528854 76.241768
v -41.467316 -2.798691 68.344109
v -43.543377 107.340866 68.179192
v -58.147053 138.488571 44.597366
v -72.491203 97.590004 19.278934
v -76.219109 28.719849 10.942797
v -67.005966 -6.446541 25.352215
v -63.534927 35.284954 47.917671
v -60.141445 89.533058 46.646313
v 15.120377 21.040102 75.258057
v 27.727024 43.685173 73.335823
v 50.467148 48.318993 52.083981
v 67.069679 69.568855 32.737278
v 84.190712 36.359470 5.105804
v 69.393433 1.567053 21.439388
v 46.297089 -0.891151 54.426350
v 40.126717 5.336357 63.166752
v 19.629002 4.637682 71.336548
v 47.721031 25.372646 60.216644
v 63.517445 28.321861 40.818604
vt 0.451489 0.200445
vt 0.446097 0.327365
vt 0.366936 0.253116
vt 0.402467 0.322552
vt 0.458997 0.543251
vt 0.347896 0.445994
vt 0.447682 0.420021
vt 0.532989 0.337857
vt 0.532052 0.151860
vt 0.417685 0.018945
vt 0.342590 0.090498
vt 0.035620 0.553963
vt 0.113161 0.405136
vt 0.134195 0.520404
vt 0.185603 0.396022
vt 0.174553 0.247636
vt 0.106585 0.222560
vt 0.191903 0.154028
vt 0.099947 0.038252
vt 0.029379 0.415678
vt 0.064607 0.064529
vt 0.053174 0.202854
vt 0.211943 0.328678
vt 0.109817 0.312298
vt 0.003199 0.295197
vt 0.180040 0.989312
vt 0.101970 0.890035
vt 0.151665 0.902873
vt 0.217374 0.657733
vt 0.229827 0.598730
vt 0.334124 0.594884
vt 0.361215 0.815645
vt 0.378163 0.907732
vt 0.268096 0.919435
vt 0.186808 0.779138
vt 0.313308 0.754954
vt 0.442232 0.654532
vt 0.431439 0.724955
vt 0.375436 0.739177
vt 0.382052 0.701408
vt 0.124108 0.791842
vt 0.144483 0.696972
vt 0.009335 0.815098
vt 0.061210 0.717587
vt 0.078238 0.604320
vt 0.395494 0.628744
vt 0.473640 0.827481
vt 0.166715 0.601057
vt 0.610932 0.926113
vt 0.624371 0.838182
vt 0.705743 0.875601
vt 0.699840 0.990282
vt 0.447552 0.992924
vt 0.486886 0.930244
vt 0.467097 0.862326
vt 0.374862 0.930947
vt 1.000000 0.526574
vt 0.935154 0.611397
vt 0.904446 0.520212
vt 0.871354 0.570073
vt 0.846754 0.520396
vt 0.747682 0.527381
vt 0.780842 0.576750
vt 0.757310 0.488575
vt 0.808164 0.485552
vt 0.940375 0.453480
vt 0.847684 0.459335
vn -0.996971 -0.005188 0.077594
vn -0.998821 0.017664 0.045226
vn -0.989357 0.054312 -0.134990
vn -0.989357 0.054312 -0.134990
vn -0.998821 0.017664 0.045226
vn -0.988141 -0.024638 -0.151558
vn -0.937644 0.342560 -0.058955
vn -0.990773 0.063518 -0.119730
vn -0.991781 0.075823 0.103060
vn -0.998821 0.017664 0.045226
vn -0.996971 -0.005188 0.077594
vn -0.973576 0.039808 0.224867
vn -0.973576 0.039808 0.224867
vn -0.996971 -0.005188 0.077594
vn -0.981879 0.030345 0.187063
vn -0.937644 0.342560 -0.058955
vn -0.991781 0.075823 0.103060
vn -0.973576 0.039808 0.224867
vn -0.994672 -0.088177 0.053414
vn -0.996971 -0.005188 0.077594
vn -0.997213 -0.043800 -0.060400
vn -0.997213 -0.043800 -0.060400
vn -0.996971 -0.005188 0.077594
vn -0.989357 0.054312 -0.134990
vn -0.981879 0.030345 0.187063
vn -0.996971 -0.005188 0.077594
vn -0.994672 -0.088177 0.053414
vn -0.990773 0.063518 -0.119730
vn -0.988141 -0.024638 -0.151558
vn -0.991781 0.075823 0.103060
vn -0.991781 0.075823 0.103060
vn -0.988141 -0.024638 -0.151558
vn -0.998821 0.017664 0.045226
vn -0.973576 0.039808 0.224867
vn -0.991781 0.075823 0.103060
vn -0.998821 0.017664 0.045226
vn 0.992760 0.016435 0.118982
vn 0.990376 0.041395 0.132066
vn 0.992760 0.016435 0.118982
vn 0.992760 0.016435 0.118982
vn 0.990376 0.041395 0.132066
vn 0.997636 0.062401 -0.028780
vn 0.990100 0.039687 -0.134635
vn 0.992674 0.036696 0.115112
vn 0.981472 -0.033204 -0.188707
vn 0.981472 -0.033204 -0.188707
vn 0.992674 0.036696 0.115112
vn 0.994282 -0.059409 0.088732
vn 0.990376 0.041395 0.132066
vn 0.992760 0.016435 0.118982
vn 0.948515 -0.017676 0.316238
vn 0.994282 -0.059409 0.088732
vn 0.992674 0.036696 0.115112
vn 0.920863 -0.062406 0.384859
vn 0.920863 -0.062406 0.384859
vn 0.992674 0.036696 0.115112
vn 0.878927 0.024822 0.476309
vn 0.997636 0.062401 -0.028780
vn 0.990376 0.041395 0.132066
vn 0.999637 -0.026906 -0.001630
vn 0.999637 -0.026906 -0.001630
vn 0.990376 0.041395 0.132066
vn 0.981101 -0.001799 0.193487
vn 0.920359 -0.023168 0.390389
vn 0.981101 -0.001799 0.193487
vn 0.948515 -0.017676 0.316238
vn 0.948515 -0.017676 0.316238
vn 0.981101 -0.001799 0.193487
vn 0.990376 0.041395 0.132066
vn 0.992674 0.036696 0.115112
vn 0.981101 -0.001799 0.193487
vn 0.878927 0.024822 0.476309
vn 0.878927 0.024822 0.476309
vn 0.981101 -0.001799 0.193487
vn 0.920359 -0.023168 0.390389
vn 0.999637 -0.026906 -0.001630
vn 0.981101 -0.001799 0.193487
vn 0.990100 0.039687 -0.134635
vn 0.990100 0.039687 -0.134635
vn 0.981101 -0.001799 0.193487
vn 0.992674 0.036696 0.115112
vn -0.221133 0.173895 0.959615
vn -0.221133 0.173895 0.959615
vn -0.221133 0.173895 0.959615
vn -0.191639 -0.007804 0.981434
vn -0.031348 0.053327 0.998085
vn -0.004593 -0.124539 0.992204
vn 0.011847 0.111414 0.993704
vn 0.011847 0.111414 0.993704
vn 0.011847 0.111414 0.993704
vn 0.135642 0.099578 0.985741
vn 0.135642 0.099578 0.985741
vn 0.135642 0.099578 0.985741
vn -0.061252 0.046171 0.997054
vn -0.061252 0.046171 0.997054
vn -0.061252 0.046171 0.997054
vn -0.019339 -0.151473 0.988272
vn 0.082431 -0.045922 0.995538
vn -0.019339 -0.151473 0.988272
vn 0.107805 -0.050454 0.992891
vn 0.107805 -0.050454 0.992891
vn 0.107805 -0.050454 0.992891
vn 0.091161 0.013971 0.995738
vn 0.091161 0.013971 0.995738
vn 0.771254 -0.001888 0.636525
vn 0.831446 0.005386 0.555579
vn -0.198095 0.071982 0.977536
vn -0.198095 0.071982 0.977536
vn -0.198095 0.071982 0.977536
vn -0.112424 0.138975 0.983894
vn -0.694948 0.083160 0.714235
vn -0.112424 0.138975 0.983894
vn -0.162266 -0.086324 0.982964
vn -0.162266 -0.086324 0.982964
vn -0.162266 -0.086324 0.982964
vn -0.147219 -0.022132 0.988856
vn -0.147219 -0.022132 0.988856
vn -0.147219 -0.022132 0.988856
vn 0.688677 -0.023148 0.724698
vn 0.701204 -0.023981 0.712557
vn 0.033349 -0.060443 0.997614
vn 0.072512 -0.059415 0.995596
vn 0.758103 -0.045446 0.650550
vn 0.072512 -0.059415 0.995596
vn 0.084153 0.024529 0.996151
vn 0.084153 0.024529 0.996151
vn 0.084153 0.024529 0.996151
vn 0.084153 0.024529 0.996151
vn -0.156861 -0.079997 0.984376
vn -0.156861 -0.079997 0.984376
vn -0.789832 -0.071798 0.609106
vn 0.056687 0.145679 0.987706
vn 0.056687 0.145679 0.987706
vn 0.056687 0.145679 0.987706
vn 0.066083 0.083275 0.994333
vn 0.066083 0.083275 0.994333
vn 0.066083 0.083275 0.994333
vn -0.112424 0.138975 0.983894
vn -0.112424 0.138975 0.983894
vn -0.694948 0.083160 0.714235
vn -0.156861 -0.079997 0.984376
vn -0.789832 -0.071798 0.609106
vn -0.156861 -0.079997 0.984376
vn -0.004593 -0.124539 0.992204
vn -0.401241 -0.091236 0.911417
vn -0.004593 -0.124539 0.992204
vn 0.072512 -0.059415 0.995596
vn 0.758103 -0.045446 0.650550
vn 0.072512 -0.059415 0.995596
vn 0.831446 0.005386 0.555579
vn 0.771254 -0.001888 0.636525
vn 0.091161 0.013971 0.995738
vn 0.033349 -0.060443 0.997614
vn 0.033349 -0.060443 0.997614
vn 0.701204 -0.023981 0.712557
vn 0.688677 -0.023148 0.724698
vn -0.019339 -0.151473 0.988272
vn -0.019339 -0.151473 0.988272
vn 0.082431 -0.045922 0.995538
vn -0.004593 -0.124539 0.992204
vn -0.401241 -0.091236 0.911417
vn -0.031348 0.053327 0.998085
vn -0.191639 -0.007804 0.981434
vn -0.931463 -0.110046 0.346793
vn -0.931463 -0.110046 0.346793
vn -0.931463 -0.110046 0.346793
vn -0.833126 -0.207851 0.512541
vn -0.833126 -0.207851 0.512541
vn -0.833126 -0.207851 0.512541
vn -0.732476 0.011817 0.680690
vn -0.732476 0.011817 0.680690
vn -0.732476 0.011817 0.680690
vn -0.732476 0.011817 0.680690
vn -0.901932 0.054674 0.428404
vn -0.901932 0.054674 0.428404
vn -0.901932 0.054674 0.428404
vn -0.928576 0.032495 0.369718
vn -0.928576 0.032495 0.369718
vn -0.928576 0.032495 0.369718
vn -0.928576 0.032495 0.369718
vn -0.813090 0.057370 0.579304
vn -0.813090 0.057370 0.579304
vn -0.813090 0.057370 0.579304
vn 0.823834 0.039833 0.565430
vn 0.823834 0.039833 0.565430
vn 0.823834 0.039833 0.565430
vn 0.714735 0.074692 0.695395
vn 0.714735 0.074692 0.695395
vn 0.714735 0.074692 0.695395
vn 0.758105 0.135369 0.637929
vn 0.758105 0.135369 0.637929
vn 0.758105 0.135369 0.637929
vn 0.718715 0.009698 0.695237
vn 0.718715 0.009698 0.695237
vn 0.718715 0.009698 0.695237
vn 0.766425 0.131139 0.628804
vn 0.766425 0.131139 0.628804
vn 0.766425 0.131139 0.628804
vn 0.777590 -0.036013 0.627740
vn 0.777590 -0.036013 0.627740
vn 0.777590 -0.036013 0.627740
vn 0.712632 -0.185233 0.676642
vn 0.712632 -0.185233 0.676642
vn 0.712632 -0.185233 0.676642
vn 0.771675 -0.169310 0.613067
vn 0.771675 -0.169310 0.613067
vn 0.771675 -0.169310 0.613067
vn 0.740962 -0.129870 0.658870
vn 0.740962 -0.129870 0.658870
vn 0.740962 -0.129870 0.658870
vn 0.765655 -0.274434 0.581772
vn 0.765655 -0.274434 0.581772
vn 0.765655 -0.274434 0.581772
vn 0.835249 -0.101529 0.540418
vn 0.835249 -0.101529 0.540418
vn 0.835249 -0.101529 0.540418
s off
f 10/1/1 9/2/2 5/3/3
f 5/3/4 9/2/5 6/4/6
f 2/5/7 7/6/8 11/7/9
f 9/2/10 10/1/11 8/8/12
f 8/8/13 10/1/14 1/9/15
f 2/5/16 11/7/17 8/8/18
f 3/10/19 10/1/20 4/11/21
f 4/11/22 10/1/23 5/3/24
f 1/9/25 10/1/26 3/10/27
f 7/6/28 6/4/29 11/7/30
f 11/7/31 6/4/32 9/2/33
f 8/8/34 11/7/35 9/2/36
f 13/12/37 23/13/38 12/14/39
f 12/14/40 23/13/41 18/15/42
f 16/16/43 24/17/44 15/18/45
f 15/18/46 24/17/47 14/19/48
f 23/13/49 13/12/50 22/20/51
f 14/19/52 24/17/53 19/21/54
f 19/21/55 24/17/56 21/22/57
f 18/15/58 23/13/59 17/23/60
f 17/23/61 23/13/62 25/24/63
f 20/25/64 25/24/65 22/20/66
f 22/20/67 25/24/68 23/13/69
f 24/17/70 25/24/71 21/22/72
f 21/22/73 25/24/74 20/25/75
f 17/23/76 25/24/77 16/16/78
f 16/16/79 25/24/80 24/17/81
f 33/26/82 34/27/83 41/28/84
f 47/29/85 48/30/86 27/31/87
f 40/32/88 31/33/89 32/34/90
f 32/34/91 37/35/92 38/36/93
f 38/36/94 40/32/95 32/34/96
f 37/35/97 47/29/98 27/31/99
f 27/31/100 38/36/101 37/35/102
f 28/37/103 29/38/104 44/39/105 45/40/106
f 37/35/107 41/28/108 34/27/109
f 34/27/110 42/41/111 37/35/112
f 39/42/113 35/43/114 36/44/115
f 26/45/116 39/42/117 36/44/118
f 45/40/119 46/46/120 28/37/121
f 40/32/122 44/39/123 29/38/124
f 29/38/125 30/47/126 31/33/127 40/32/128
f 39/42/129 37/35/130 42/41/131
f 32/34/132 41/28/133 37/35/134
f 33/26/135 41/28/136 32/34/137
f 34/27/138 35/43/139 42/41/140
f 39/42/141 42/41/142 35/43/143
f 26/45/144 43/48/145 39/42/146
f 38/36/147 44/39/148 40/32/149
f 45/40/150 44/39/151 38/36/152
f 38/36/153 27/31/154 46/46/155 45/40/156
f 37/35/157 39/42/158 47/29/159
f 39/42/160 43/48/161 48/30/162 47/29/163
f 55/49/164 53/50/165 54/51/166
f 49/52/167 55/49/168 54/51/169
f 49/52/170 50/53/171 56/54/172 55/49/173
f 52/55/174 56/54/175 51/56/176
f 55/49/177 56/54/178 52/55/179 53/50/180
f 51/56/181 56/54/182 50/53/183
f 61/57/184 60/58/185 67/59/186
f 67/59/187 60/58/188 59/60/189
f 66/61/190 67/59/191 59/60/192
f 57/62/193 66/61/194 58/63/195
f 58/63/196 66/61/197 59/60/198
f 57/62/199 65/64/200 64/65/201
f 64/65/202 66/61/203 57/62/204
f 62/66/205 67/59/206 63/67/207
f 63/67/208 67/59/209 64/65/210
f 67/59/211 66/61/212 64/65/213
f 61/57/214 67/59/215 62/66/216
