# This file uses centimeters as units for non-parametric coordinates.

v 20.672119 45.961700 1.197021
v 8.048584 45.961700 1.197021
v 20.672119 45.961700 -1.197021
v 8.048584 45.961700 -1.197021
v 20.672119 43.663612 -1.197021
v 8.048584 43.663612 -1.197021
v 8.048584 43.663612 1.197021
v 20.672119 43.663612 1.197021
v 15.282227 42.001900 -1.197021
v 12.086914 42.001900 -1.197021
v 12.086914 42.001900 1.197021
v 15.282227 42.001900 1.197021
v 17.504150 43.058624 -1.197021
v 10.601563 43.058624 -1.197021
v 10.601563 43.058624 1.197021
v 17.504150 43.058624 1.197021
v -20.672119 0.000000 1.197021
v -8.048584 0.000000 1.197021
v -20.672119 0.000000 -1.197021
v -8.048584 0.000000 -1.197021
v -20.672119 2.298088 -1.197021
v -8.048584 2.298088 -1.197021
v -8.048584 2.298088 1.197021
v -20.672119 2.298088 1.197021
v -15.282227 3.959801 -1.197021
v -12.086914 3.959801 -1.197021
v -12.086914 3.959801 1.197021
v -15.282227 3.959801 1.197021
v -17.504150 2.903076 -1.197021
v -10.601563 2.903076 -1.197021
v -10.601563 2.903076 1.197021
v -17.504150 2.903076 1.197021
v -2.223633 22.108204 1.197021
v -0.618408 19.890560 1.197021
v -0.618408 19.890553 -1.197021
v -2.223633 22.108196 -1.197021
v 0.624756 26.062527 1.197021
v 0.624756 26.062527 -1.197021
v 2.224609 23.852295 -1.197021
v 2.224609 23.852299 1.197021
v 20.672363 0.000000 1.197021
v 8.048828 0.000000 1.197021
v 20.672363 0.000000 -1.197021
v 8.048828 0.000000 -1.197021
v 20.672363 2.298088 -1.197021
v 8.048828 2.298088 -1.197021
v 8.048828 2.298088 1.197021
v 20.672363 2.298088 1.197021
v 16.623047 3.959801 -1.197021
v 10.912354 3.959801 -1.197021
v 10.912354 3.959801 1.197021
v 16.623047 3.959801 1.197021
v 17.504395 2.903076 -1.197021
v 10.117432 2.903076 -1.197021
v 10.117432 2.903076 1.197021
v 17.504395 2.903076 1.197021
v -20.672363 45.961700 1.197021
v -8.048828 45.961700 1.197021
v -20.672363 45.961700 -1.197021
v -8.048828 45.961700 -1.197021
v -20.672363 43.663612 -1.197021
v -8.048828 43.663612 -1.197021
v -8.048828 43.663612 1.197021
v -20.672363 43.663612 1.197021
v -16.623047 42.001900 -1.197021
v -10.912354 42.001900 -1.197021
v -10.912354 42.001900 1.197021
v -16.623047 42.001900 1.197021
v -17.504395 43.058624 -1.197021
v -10.117432 43.058624 -1.197021
v -10.117432 43.058624 1.197021
v -17.504395 43.058624 1.197021
vt 0.283609 0.247304
vt 0.283609 0.247304
vt 0.283609 0.247304
vt 0.283609 0.247304
vt 0.283609 0.247347
vt 0.283609 0.247347
vt 0.283609 0.247348
vt 0.283609 0.247348
vt 0.283609 0.247378
vt 0.283609 0.247358
vt 0.283609 0.247358
vt 0.283609 0.247378
vt 0.283609 0.247379
vt 0.283609 0.247359
vt 0.283609 0.247379
vt 0.283609 0.247359
vt 0.283609 0.248150
vt 0.283609 0.248142
vt 0.283609 0.248143
vt 0.283609 0.248151
vt 0.283609 0.248101
vt 0.283609 0.248102
vt 0.283609 0.248110
vt 0.283609 0.248109
vt 0.283609 0.248072
vt 0.283609 0.248091
vt 0.283609 0.248091
vt 0.283609 0.248072
vt 0.283609 0.248079
vt 0.283609 0.248099
vt 0.283609 0.248079
vt 0.283609 0.248098
vt 0.283609 0.247790
vt 0.283609 0.247749
vt 0.283609 0.247785
vt 0.283609 0.247744
vt 0.283609 0.247672
vt 0.283609 0.247676
vt 0.283609 0.247713
vt 0.283609 0.247717
vt 0.283609 0.247379
vt 0.283609 0.247379
vt 0.283609 0.248153
vt 0.283609 0.248152
vt 0.283609 0.248144
vt 0.283609 0.248145
vt 0.283609 0.248074
vt 0.283609 0.248073
vt 0.283609 0.247378
vt 0.283609 0.248103
vt 0.283609 0.248104
vt 0.283609 0.248110
vt 0.283609 0.248111
vt 0.283609 0.248092
vt 0.283609 0.248092
vt 0.283609 0.248081
vt 0.283609 0.248100
vt 0.283609 0.248100
vt 0.283609 0.248081
vt 0.283609 0.247304
vt 0.283609 0.247304
vt 0.283609 0.247304
vt 0.283609 0.247304
vt 0.283609 0.247378
vt 0.283609 0.247347
vt 0.283609 0.247347
vt 0.283609 0.247348
vt 0.283609 0.247347
vt 0.283609 0.247358
vt 0.283609 0.247358
vt 0.283609 0.247359
vt 0.283609 0.247359
vt 0.283609 0.229731
vt 0.283609 0.229727
vt 0.283609 0.229784
vt 0.283609 0.229788
vt 0.283609 0.229822
vt 0.283609 0.229817
vt 0.283609 0.229759
vt 0.283609 0.229763
vt 0.283609 0.229825
vt 0.283609 0.229818
vt 0.283609 0.229813
vt 0.283609 0.229821
vt 0.283609 0.229785
vt 0.283609 0.229810
vt 0.283609 0.229806
vt 0.283609 0.229781
vt 0.283609 0.230575
vt 0.283609 0.230567
vt 0.283609 0.230463
vt 0.283609 0.230470
vt 0.283609 0.230445
vt 0.283609 0.230438
vt 0.283609 0.230542
vt 0.283609 0.230550
vt 0.283609 0.230459
vt 0.283609 0.230459
vt 0.283609 0.230451
vt 0.283609 0.230452
vt 0.283609 0.230516
vt 0.283609 0.230485
vt 0.283609 0.230477
vt 0.283609 0.230508
vt 0.283609 0.230182
vt 0.283609 0.230188
vt 0.283609 0.230171
vt 0.283609 0.230165
vt 0.283609 0.230097
vt 0.283609 0.230103
vt 0.283609 0.230121
vt 0.283609 0.230115
vt 0.283609 0.230274
vt 0.283609 0.230354
vt 0.283609 0.230347
vt 0.283609 0.230268
vt 0.283609 0.229991
vt 0.283609 0.229984
vt 0.283609 0.230330
vt 0.283609 0.230324
vt 0.283609 0.230245
vt 0.283609 0.230250
vt 0.283609 0.230294
vt 0.283609 0.230288
vt 0.283609 0.230304
vt 0.283609 0.230310
vt 0.283609 0.230263
vt 0.283609 0.230258
vt 0.283609 0.230252
vt 0.283609 0.230258
vt 0.283609 0.229955
vt 0.283609 0.229874
vt 0.283609 0.229869
vt 0.283609 0.229948
vt 0.283609 0.229947
vt 0.283609 0.229953
vt 0.283609 0.229910
vt 0.283609 0.229905
vt 0.283609 0.229986
vt 0.283609 0.229992
vt 0.283609 0.229926
vt 0.283609 0.229932
vt 0.283609 0.229980
vt 0.283609 0.229974
vn 0.000000 1.000000 0.000000
vn 0.000000 1.000000 0.000000
vn 0.000000 1.000000 0.000000
vn 0.000000 1.000000 0.000000
vn 0.000000 0.000000 -1.000000
vn 0.000000 0.000000 -1.000000
vn 0.000000 0.000000 -1.000000
vn 0.000000 0.000000 -1.000000
vn -1.000000 0.000000 0.000000
vn -1.000000 0.000000 0.000000
vn -1.000000 0.000000 0.000000
vn -1.000000 0.000000 0.000000
vn 0.000000 0.000000 1.000000
vn 0.000000 0.000000 1.000000
vn 0.000000 0.000000 1.000000
vn 0.000000 0.000000 1.000000
vn 1.000000 0.000000 0.000000
vn 1.000000 0.000000 0.000000
vn 1.000000 0.000000 0.000000
vn 1.000000 0.000000 0.000000
vn 0.000000 0.000000 -1.000000
vn 0.000000 0.000000 -1.000000
vn 0.000000 0.000000 -1.000000
vn 0.000000 0.000000 -1.000000
vn -0.579697 -0.814832 0.000000
vn -0.579697 -0.814832 0.000000
vn -0.579697 -0.814832 0.000000
vn -0.579697 -0.814832 0.000000
vn 0.000000 0.000000 1.000000
vn 0.000000 0.000000 1.000000
vn 0.000000 0.000000 1.000000
vn 0.000000 0.000000 1.000000
vn 0.429491 -0.903071 0.000000
vn 0.429491 -0.903071 0.000000
vn 0.429491 -0.903071 0.000000
vn 0.429491 -0.903071 0.000000
vn 0.000000 0.000000 -1.000000
vn 0.000000 0.000000 -1.000000
vn 0.000000 0.000000 -1.000000
vn 0.000000 0.000000 -1.000000
vn -0.230587 -0.973052 0.000000
vn -0.230587 -0.973052 0.000000
vn -0.230587 -0.973052 0.000000
vn -0.230587 -0.973052 0.000000
vn 0.000000 0.000000 1.000000
vn 0.000000 0.000000 1.000000
vn 0.000000 0.000000 1.000000
vn 0.000000 0.000000 1.000000
vn 0.187581 -0.982249 0.000000
vn 0.187581 -0.982249 0.000000
vn 0.187581 -0.982249 0.000000
vn 0.187581 -0.982249 0.000000
vn 0.000000 -1.000000 0.000000
vn 0.000000 -1.000000 0.000000
vn 0.000000 -1.000000 0.000000
vn 0.000000 -1.000000 0.000000
vn 0.000000 0.000000 -1.000000
vn 0.000000 0.000000 -1.000000
vn 0.000000 0.000000 -1.000000
vn 0.000000 0.000000 -1.000000
vn 1.000000 0.000000 0.000000
vn 1.000000 0.000000 0.000000
vn 1.000000 0.000000 0.000000
vn 1.000000 0.000000 0.000000
vn 0.000000 0.000000 1.000000
vn 0.000000 0.000000 1.000000
vn 0.000000 0.000000 1.000000
vn 0.000000 0.000000 1.000000
vn -1.000000 0.000000 0.000000
vn -1.000000 0.000000 0.000000
vn -1.000000 0.000000 0.000000
vn -1.000000 0.000000 0.000000
vn 0.000000 0.000000 -1.000000
vn 0.000000 0.000000 -1.000000
vn 0.000000 0.000000 -1.000000
vn 0.000000 0.000000 -1.000000
vn 0.579697 0.814832 0.000000
vn 0.579697 0.814832 0.000000
vn 0.579697 0.814832 0.000000
vn 0.579697 0.814832 0.000000
vn 0.000000 0.000000 1.000000
vn 0.000000 0.000000 1.000000
vn 0.000000 0.000000 1.000000
vn 0.000000 0.000000 1.000000
vn -0.429491 0.903071 0.000000
vn -0.429491 0.903071 0.000000
vn -0.429491 0.903071 0.000000
vn -0.429491 0.903071 0.000000
vn 0.000000 0.000000 -1.000000
vn 0.000000 0.000000 -1.000000
vn 0.000000 0.000000 -1.000000
vn 0.000000 0.000000 -1.000000
vn 0.230587 0.973052 0.000000
vn 0.230587 0.973052 0.000000
vn 0.230587 0.973052 0.000000
vn 0.230587 0.973052 0.000000
vn 0.000000 0.000000 1.000000
vn 0.000000 0.000000 1.000000
vn 0.000000 0.000000 1.000000
vn 0.000000 0.000000 1.000000
vn -0.187581 0.982249 0.000000
vn -0.187581 0.982249 0.000000
vn -0.187581 0.982249 0.000000
vn -0.187581 0.982249 0.000000
vn -0.000000 0.000000 1.000000
vn -0.000000 0.000000 1.000000
vn -0.000000 0.000000 1.000000
vn -0.000000 0.000000 1.000000
vn 0.811574 -0.584250 0.000001
vn 0.811574 -0.584250 0.000001
vn 0.811574 -0.584250 0.000001
vn 0.811574 -0.584250 0.000001
vn 0.000000 0.000000 -1.000000
vn 0.000000 0.000000 -1.000000
vn 0.000000 0.000000 -1.000000
vn 0.000000 0.000000 -1.000000
vn -0.811709 0.584062 -0.000001
vn -0.811709 0.584062 -0.000001
vn -0.811709 0.584062 -0.000001
vn -0.811709 0.584062 -0.000001
vn -0.811877 0.583829 0.000000
vn -0.811877 0.583829 0.000000
vn -0.811877 0.583829 0.000000
vn -0.811877 0.583829 0.000000
vn -0.000000 0.000000 -1.000000
vn -0.000000 0.000000 -1.000000
vn -0.000000 0.000000 -1.000000
vn -0.000000 0.000000 -1.000000
vn 0.811748 -0.584007 0.000001
vn 0.811749 -0.584007 0.000001
vn 0.811748 -0.584007 0.000001
vn 0.811748 -0.584007 0.000001
vn 0.000000 0.000000 1.000000
vn 0.000000 0.000000 1.000000
vn 0.000000 0.000000 1.000000
vn 0.000000 0.000000 1.000000
vn 0.000000 0.000000 1.000000
vn 0.000000 0.000000 1.000000
vn 0.000000 0.000000 1.000000
vn 0.000000 0.000000 1.000000
vn 0.000000 -1.000000 0.000000
vn 0.000000 -1.000000 0.000000
vn 0.000000 -1.000000 0.000000
vn 0.000000 -1.000000 0.000000
vn 0.000000 0.000000 -1.000000
vn 0.000000 0.000000 -1.000000
vn 0.000000 0.000000 -1.000000
vn 0.000000 0.000000 -1.000000
vn -0.810065 -0.586340 0.000002
vn -0.810065 -0.586340 0.000002
vn -0.810065 -0.586340 0.000002
vn -0.810065 -0.586340 0.000002
vn 0.000000 0.000000 -1.000000
vn 0.000000 0.000000 -1.000000
vn 0.000000 0.000000 -1.000000
vn 0.000000 0.000000 -1.000000
vn -1.000000 0.000000 0.000000
vn -1.000000 0.000000 0.000000
vn -1.000000 0.000000 0.000000
vn -1.000000 0.000000 0.000000
vn 0.000000 0.000000 1.000000
vn 0.000000 0.000000 1.000000
vn 0.000000 0.000000 1.000000
vn 0.000000 0.000000 1.000000
vn 1.000000 0.000000 0.000000
vn 1.000000 0.000000 0.000000
vn 1.000000 0.000000 0.000000
vn 1.000000 0.000000 0.000000
vn 0.000000 0.000000 -1.000000
vn 0.000000 0.000000 -1.000000
vn 0.000000 0.000000 -1.000000
vn 0.000000 0.000000 -1.000000
vn -0.799136 0.601151 0.000000
vn -0.799136 0.601151 0.000000
vn -0.799136 0.601151 0.000000
vn -0.799136 0.601151 0.000000
vn 0.000000 0.000000 1.000000
vn 0.000000 0.000000 1.000000
vn 0.000000 0.000000 1.000000
vn 0.000000 0.000000 1.000000
vn 0.767955 0.640504 0.000000
vn 0.767955 0.640504 0.000000
vn 0.767955 0.640504 0.000000
vn 0.767955 0.640504 0.000000
vn 0.000000 0.000000 -1.000000
vn 0.000000 0.000000 -1.000000
vn 0.000000 0.000000 -1.000000
vn 0.000000 0.000000 -1.000000
vn -0.280704 0.959795 0.000000
vn -0.280704 0.959795 0.000000
vn -0.280704 0.959795 0.000000
vn -0.280704 0.959795 0.000000
vn 0.000000 0.000000 1.000000
vn 0.000000 0.000000 1.000000
vn 0.000000 0.000000 1.000000
vn 0.000000 0.000000 1.000000
vn 0.187581 0.982249 0.000000
vn 0.187581 0.982249 0.000000
vn 0.187581 0.982249 0.000000
vn 0.187581 0.982249 0.000000
vn 0.000000 1.000000 0.000000
vn 0.000000 1.000000 0.000000
vn 0.000000 1.000000 0.000000
vn 0.000000 1.000000 0.000000
vn 0.810068 0.586337 0.000000
vn 0.810068 0.586337 0.000000
vn 0.810068 0.586337 0.000000
vn 0.810068 0.586337 0.000000
vn 0.000000 0.000000 -1.000000
vn 0.000000 0.000000 -1.000000
vn 0.000000 0.000000 -1.000000
vn 0.000000 0.000000 -1.000000
vn 1.000000 0.000000 0.000000
vn 1.000000 0.000000 0.000000
vn 1.000000 0.000000 0.000000
vn 1.000000 0.000000 0.000000
vn 0.000000 0.000000 1.000000
vn 0.000000 0.000000 1.000000
vn 0.000000 0.000000 1.000000
vn 0.000000 0.000000 1.000000
vn -1.000000 0.000000 0.000000
vn -1.000000 0.000000 0.000000
vn -1.000000 0.000000 0.000000
vn -1.000000 0.000000 0.000000
vn 0.000000 0.000000 -1.000000
vn 0.000000 0.000000 -1.000000
vn 0.000000 0.000000 -1.000000
vn 0.000000 0.000000 -1.000000
vn 0.799136 -0.601151 0.000000
vn 0.799136 -0.601151 0.000000
vn 0.799136 -0.601151 0.000000
vn 0.799136 -0.601151 0.000000
vn 0.000000 0.000000 1.000000
vn 0.000000 0.000000 1.000000
vn 0.000000 0.000000 1.000000
vn 0.000000 0.000000 1.000000
vn -0.767955 -0.640504 0.000000
vn -0.767955 -0.640504 0.000000
vn -0.767955 -0.640504 0.000000
vn -0.767955 -0.640504 0.000000
vn 0.000000 0.000000 -1.000000
vn 0.000000 0.000000 -1.000000
vn 0.000000 0.000000 -1.000000
vn 0.000000 0.000000 -1.000000
vn 0.280704 -0.959795 0.000000
vn 0.280704 -0.959795 0.000000
vn 0.280704 -0.959795 0.000000
vn 0.280704 -0.959795 0.000000
vn 0.000000 0.000000 1.000000
vn 0.000000 0.000000 1.000000
vn 0.000000 0.000000 1.000000
vn 0.000000 0.000000 1.000000
vn -0.187581 -0.982249 0.000000
vn -0.187581 -0.982249 0.000000
vn -0.187581 -0.982249 0.000000
vn -0.187581 -0.982249 0.000000
vn 0.810067 0.586337 -0.000001
vn 0.810067 0.586337 -0.000001
vn 0.810067 0.586337 -0.000001
vn 0.810067 0.586337 -0.000001
vn -0.810070 -0.586333 0.000001
vn -0.810070 -0.586333 0.000001
vn -0.810070 -0.586333 0.000001
vn -0.810070 -0.586333 0.000001
vn 0.000000 0.000000 1.000000
vn 0.000000 0.000000 1.000000
vn 0.000000 0.000000 1.000000
vn 0.000000 0.000000 1.000000
vn 0.000000 0.000000 1.000000
vn 0.000000 0.000000 1.000000
vn 0.000000 0.000000 1.000000
vn 0.000000 0.000000 1.000000
vn -0.000000 0.000000 -1.000000
vn -0.000000 0.000000 -1.000000
vn -0.000000 0.000000 -1.000000
vn -0.000000 0.000000 -1.000000
vn 0.000000 0.000000 -1.000000
vn 0.000000 0.000000 -1.000000
vn 0.000000 0.000000 -1.000000
vn 0.000000 0.000000 -1.000000
s off
f 1/73/1 3/74/2 4/75/3 2/76/4
f 3/2/5 5/5/6 6/6/7 4/3/8
f 7/77/9 2/76/10 4/75/11 6/78/12
f 8/8/13 1/1/14 2/4/15 7/7/16
f 5/79/17 3/74/18 1/73/19 8/80/20
f 10/9/21 14/10/22 13/11/23 9/12/24
f 11/81/25 15/82/26 14/83/27 10/84/28
f 15/14/29 11/13/30 12/15/31 16/16/32
f 16/85/33 12/86/34 9/87/35 13/88/36
f 14/10/37 6/6/38 5/5/39 13/11/40
f 15/82/41 7/77/42 6/78/43 14/83/44
f 7/7/45 15/14/46 16/16/47 8/8/48
f 8/80/49 16/85/50 13/88/51 5/79/52
f 17/89/53 19/90/54 20/91/55 18/92/56
f 19/18/57 21/21/58 22/22/59 20/19/60
f 23/93/61 18/92/62 20/91/63 22/94/64
f 24/24/65 17/17/66 18/20/67 23/23/68
f 21/95/69 19/90/70 17/89/71 24/96/72
f 26/25/73 30/26/74 29/27/75 25/28/76
f 27/97/77 31/98/78 30/99/79 26/100/80
f 31/30/81 27/29/82 28/31/83 32/32/84
f 32/101/85 28/102/86 25/103/87 29/104/88
f 30/26/89 22/22/90 21/21/91 29/27/92
f 31/98/93 23/93/94 22/94/95 30/99/96
f 23/23/97 31/30/98 32/32/99 24/24/100
f 24/96/101 32/101/102 29/104/103 21/95/104
f 34/33/105 33/34/106 28/31/107 27/29/108
f 35/105/109 34/106/110 27/97/111 26/100/112
f 36/36/113 35/35/114 26/25/115 25/28/116
f 33/107/117 36/108/118 25/103/119 28/102/120
f 10/84/121 38/109/122 37/110/123 11/81/124
f 9/12/125 39/39/126 38/37/127 10/9/128
f 12/86/129 40/111/130 39/112/131 9/87/132
f 11/13/133 37/38/134 40/40/135 12/15/136
f 33/34/137 37/38/138 67/41/139 68/42/140
f 41/113/141 42/114/142 44/115/143 43/116/144
f 35/35/145 39/39/146 49/47/147 50/48/148
f 68/117/149 65/118/150 36/108/151 33/107/152
f 43/46/153 44/45/154 46/50/155 45/51/156
f 47/119/157 46/120/158 44/115/159 42/114/160
f 48/53/161 47/52/162 42/44/163 41/43/164
f 45/121/165 48/122/166 41/113/167 43/116/168
f 50/48/169 49/47/170 53/54/171 54/55/172
f 51/123/173 50/124/174 54/125/175 55/126/176
f 55/57/177 56/58/178 52/59/179 51/56/180
f 56/127/181 53/128/182 49/129/183 52/130/184
f 54/55/185 53/54/186 45/51/187 46/50/188
f 55/126/189 54/125/190 46/120/191 47/119/192
f 47/52/193 48/53/194 56/58/195 55/57/196
f 48/122/197 45/121/198 53/128/199 56/127/200
f 57/131/201 58/132/202 60/133/203 59/134/204
f 37/110/205 38/109/206 66/135/207 67/136/208
f 59/63/209 60/62/210 62/65/211 61/66/212
f 63/137/213 62/138/214 60/133/215 58/132/216
f 64/68/217 63/67/218 58/61/219 57/60/220
f 61/139/221 64/140/222 57/131/223 59/134/224
f 66/64/225 65/49/226 69/69/227 70/70/228
f 67/136/229 66/135/230 70/141/231 71/142/232
f 71/71/233 72/72/234 68/42/235 67/41/236
f 72/143/237 69/144/238 65/118/239 68/117/240
f 70/70/241 69/69/242 61/66/243 62/65/244
f 71/142/245 70/141/246 62/138/247 63/137/248
f 63/67/249 64/68/250 72/72/251 71/71/252
f 64/140/253 61/139/254 69/144/255 72/143/256
f 49/129/257 39/112/258 40/111/259 52/130/260
f 50/124/261 51/123/262 34/106/263 35/105/264
f 40/40/265 34/33/266 51/56/267 52/59/268
f 34/33/269 40/40/270 37/38/271 33/34/272
f 35/35/273 36/36/274 38/37/275 39/39/276
f 38/37/277 36/36/278 65/49/279 66/64/280
