# This file uses centimeters as units for non-parametric coordinates.

v -19.685511 58.174801 -0.071550
v 0.654999 61.215408 -11.947935
v -14.968448 59.115288 -9.084944
v 19.685511 61.981079 -0.071550
v 14.968448 62.274628 -9.084944
v 0.654999 56.837387 11.947935
v -15.414212 56.372314 9.355513
v 15.414212 60.072929 9.355513
v -14.958847 62.368965 -0.054372
v 0.497736 64.684166 -0.054372
v 0.497736 64.679489 -9.079132
v -11.374365 63.083633 -6.903572
v 14.958847 65.261322 -0.054372
v 11.374365 65.484383 -6.903572
v 0.541534 62.677193 9.125887
v -11.374365 61.344284 6.903572
v 11.374365 64.075005 6.903572
v 15.415918 -0.062567 11.500525
v 18.106968 -0.062267 -11.514549
v -15.327448 0.000000 11.463986
v -18.110697 0.000000 -11.463986
v 0.822458 -0.068089 -15.131999
v 0.826147 -0.081954 15.159116
v 0.826544 0.000000 -0.090276
v -31.221661 0.000000 -0.090276
v -24.890707 8.375405 -0.167360
v 24.967356 9.668303 -0.333688
v 15.680615 3.110280 13.004066
v 26.532688 12.672821 -0.494720
v 18.705353 2.182213 -12.566137
v 1.138294 5.331746 -18.963366
v -18.792236 3.402450 -11.359408
v -26.489801 11.007349 -0.455167
v -16.886631 2.829259 12.546361
v 1.169794 4.107186 19.107279
v 30.738764 0.000000 2.798285
v 31.434586 0.000000 -2.933708
v 31.586056 2.537421 -0.090276
v -18.624538 47.641560 11.606531
v -25.044123 50.219147 -0.117491
v -18.879120 52.683418 -11.455734
v 0.858243 55.371517 -15.489075
v 18.865631 56.016449 -11.588023
v 25.042973 57.146523 -0.090276
v 18.435299 50.056686 11.648485
v 0.867487 48.221951 15.611723
v -20.858082 59.256710 -0.075815
v 0.694037 62.478428 -12.659607
v -15.860016 60.253212 -9.626081
v 20.858082 63.289707 -0.075815
v 15.860016 63.600739 -9.626081
v 0.694037 57.839630 12.659607
v -15.860016 57.827923 9.626081
v 15.860016 61.635559 9.626081
v -17.958155 56.598419 12.860153
v -24.754074 58.045891 -0.024994
v -27.831457 51.585686 -0.044315
v -19.908829 49.411308 14.084398
v -20.114414 54.012650 -13.932094
v -17.991917 59.466484 -12.823694
v 0.651111 61.779873 -17.228611
v 0.755450 56.544289 -19.019800
v 20.248825 57.356766 -14.093245
v 18.105419 62.961464 -12.880089
v 24.666080 62.378315 0.001825
v 27.743582 57.747852 0.002083
v 19.927158 52.019176 14.191019
v 18.080744 60.327866 12.931822
v 0.797266 50.115143 19.015734
v 0.682492 56.811226 17.226528
v -27.748661 0.000000 3.709253
v -26.926083 0.000000 -5.087448
v -27.393391 0.000000 -0.090276
v -29.820515 3.775990 -0.090276
v 17.748682 21.200939 14.255269
v 18.809851 22.257421 -14.488665
v -26.288223 26.436913 -0.918050
v 1.292700 19.544594 21.433596
v -17.776215 24.856354 12.884929
v -19.629215 25.542984 -13.228000
v 1.526016 21.735321 -21.067633
v 26.284693 22.502129 -0.885201
v 20.156427 56.014557 14.893744
v 27.777065 60.209610 0.002261
v 20.331701 60.337780 -14.812296
v 0.747556 59.232143 -19.902004
v -20.194950 56.571499 -14.695023
v -27.865021 54.477848 -0.037550
v -20.072796 52.501930 14.796466
v 0.786157 52.994919 19.898930
vt 0.048583 0.299571
vt 0.048636 0.299558
vt 0.048872 0.299566
vt 0.048919 0.299578
vt 0.048283 0.299565
vt 0.048402 0.299556
vt 0.048849 0.299585
vt 0.048535 0.299582
vt 0.048272 0.299575
vt 0.048634 0.299558
vt 0.048871 0.299566
vt 0.048919 0.299577
vt 0.048282 0.299564
vt 0.048402 0.299556
vt 0.048813 0.299586
vt 0.048528 0.299584
vt 0.048292 0.299576
vt 0.647875 0.273933
vt 0.741613 0.273990
vt 0.743784 0.213415
vt 0.647972 0.214905
vt 0.643234 0.174070
vt 0.645684 0.180672
vt 0.727942 0.175988
vt 0.679416 0.175988
vt 0.649928 0.174070
vt 0.712528 0.175988
vt 0.679423 0.175869
vt 0.713871 0.268105
vt 0.679361 0.272805
vt 0.678193 0.213993
vt 0.715183 0.220650
vt 0.668299 0.179017
vt 0.699871 0.181251
vt 0.700086 0.208243
vt 0.666744 0.217531
vt 0.648155 0.179804
vt 0.678871 0.185311
vt 0.730059 0.261594
vt 0.699342 0.258386
vt 0.728859 0.211139
vt 0.671025 0.174070
vt 0.649307 0.174070
vt 0.699270 0.173926
vt 0.654304 0.188714
vt 0.725243 0.179508
vt 0.634469 0.198147
vt 0.665260 0.257371
vt 0.724651 0.263796
vt 0.726826 0.222213
vt 0.713719 0.181938
vt 0.651508 0.193316
vt 0.625633 0.180425
vt 0.751572 0.174070
vt 0.625898 0.175988
vt 0.724780 0.173960
vt 0.741481 0.190975
vt 0.649201 0.175880
vt 0.666426 0.270240
vt 0.654543 0.275836
vt 0.649104 0.269109
vt 0.662728 0.264246
vt 0.716172 0.273488
vt 0.712320 0.278139
vt 0.679723 0.283098
vt 0.679554 0.278408
vt 0.645311 0.279479
vt 0.649204 0.283522
vt 0.637733 0.286992
vt 0.632293 0.281379
vt 0.733069 0.269663
vt 0.729439 0.275542
vt 0.699019 0.272270
vt 0.699200 0.265805
vt 0.708592 0.283025
vt 0.679648 0.289621
vt 0.653130 0.288140
vt 0.644391 0.291046
vt 0.725557 0.280598
vt 0.707034 0.285155
vt 0.679716 0.291935
vt 0.717332 0.284372
vt 0.715281 0.285742
vt 0.654689 0.290227
vt 0.732245 0.287352
vt 0.670094 0.275428
vt 0.670874 0.277335
vt 0.699039 0.279398
vt 0.698971 0.281114
vt 0.724777 0.282500
vt 0.663015 0.260465
vt 0.649162 0.264267
vt 0.716031 0.270429
vt 0.679540 0.274856
vt 0.645456 0.276276
vt 0.632352 0.276960
vt 0.732668 0.265025
vt 0.699219 0.261696
vt 0.729583 0.271797
vt 0.729524 0.266186
vt 0.746394 0.278824
vt 0.746335 0.275042
vt 0.728759 0.175988
vt 0.735452 0.175988
vt 0.637074 0.275909
vt 0.654036 0.261878
vt 0.661355 0.279646
vt 0.724144 0.279608
vt 0.646441 0.292491
vt 0.734296 0.286503
vt 0.663405 0.280494
vt 0.740954 0.283379
vt 0.699271 0.174070
vt 0.752789 0.174070
vt 0.753054 0.178506
vt 0.637206 0.192893
vt 0.724383 0.190633
vt 0.727179 0.195235
vt 0.744218 0.196228
vt 0.651860 0.220295
vt 0.634903 0.215333
vt 0.733002 0.182591
vn -0.140681 0.989976 0.012511
vn -0.140681 0.989976 0.012511
vn -0.140681 0.989976 0.012511
vn -0.140681 0.989976 0.012511
vn -0.056717 0.998038 0.026538
vn -0.056717 0.998038 0.026538
vn -0.056717 0.998038 0.026538
vn -0.056717 0.998038 0.026538
vn -0.146113 0.965783 0.214278
vn -0.146113 0.965783 0.214278
vn -0.146113 0.965783 0.214278
vn -0.146113 0.965783 0.214278
vn -0.060752 0.981622 0.180906
vn -0.060752 0.981622 0.180906
vn -0.060752 0.981622 0.180906
vn -0.060752 0.981622 0.180906
vn -0.221342 0.616028 -0.755988
vn -0.221342 0.616028 -0.755988
vn -0.221342 0.616028 -0.755988
vn -0.221342 0.616028 -0.755988
vn -0.640409 0.722782 -0.259734
vn -0.640409 0.722782 -0.259734
vn -0.640409 0.722782 -0.259734
vn -0.640409 0.722782 -0.259734
vn 0.549614 0.793339 -0.261797
vn 0.549614 0.793339 -0.261797
vn 0.549614 0.793339 -0.261797
vn 0.549614 0.793339 -0.261797
vn 0.105572 0.637103 -0.763514
vn 0.105572 0.637103 -0.763514
vn 0.105572 0.637103 -0.763514
vn 0.105572 0.637103 -0.763514
vn -0.603431 0.685385 0.407575
vn -0.603431 0.685385 0.407575
vn -0.603431 0.685385 0.407575
vn -0.603431 0.685385 0.407575
vn -0.178515 0.482989 0.857236
vn -0.178515 0.482989 0.857236
vn -0.178515 0.482989 0.857236
vn -0.178515 0.482989 0.857236
vn 0.520633 0.758064 0.392785
vn 0.520633 0.758064 0.392785
vn 0.520633 0.758064 0.392785
vn 0.520633 0.758064 0.392785
vn 0.073293 0.494913 0.865846
vn 0.073293 0.494913 0.865846
vn 0.073293 0.494913 0.865846
vn 0.073293 0.494913 0.865846
vn 0.876787 0.041086 -0.479122
vn 0.876787 0.041086 -0.479122
vn 0.876787 0.041086 -0.479122
vn 0.876787 0.041086 -0.479122
vn -0.729984 0.270874 -0.627496
vn -0.729984 0.270874 -0.627496
vn -0.729984 0.270874 -0.627496
vn -0.002719 -0.999986 0.004527
vn -0.002719 -0.999986 0.004527
vn -0.002719 -0.999986 0.004527
vn 0.000000 -1.000000 0.000000
vn 0.000000 -1.000000 0.000000
vn 0.000000 -1.000000 0.000000
vn 0.000000 -1.000000 0.000000
vn -0.274027 0.115843 -0.954720
vn -0.274027 0.115843 -0.954720
vn -0.274027 0.115843 -0.954720
vn -0.274027 0.115843 -0.954720
vn -0.382775 -0.073339 0.920926
vn -0.382775 -0.073339 0.920926
vn -0.382775 -0.073339 0.920926
vn -0.382775 -0.073339 0.920926
vn 0.339760 -0.107722 -0.934323
vn 0.339760 -0.107722 -0.934323
vn 0.339760 -0.107722 -0.934323
vn 0.339760 -0.107722 -0.934323
vn 0.295523 0.137165 0.945438
vn 0.295523 0.137165 0.945438
vn 0.295523 0.137165 0.945438
vn 0.295523 0.137165 0.945438
vn -0.003844 -0.999978 -0.005374
vn -0.003844 -0.999978 -0.005374
vn -0.003844 -0.999978 -0.005374
vn 0.000000 -1.000000 0.000000
vn 0.000000 -1.000000 0.000000
vn 0.000000 -1.000000 0.000000
vn 0.000000 -1.000000 0.000000
vn -0.457895 0.497322 0.736887
vn -0.457895 0.497322 0.736887
vn -0.457895 0.497322 0.736887
vn -0.457895 0.497322 0.736887
vn 0.838330 -0.071312 0.540479
vn 0.838330 -0.071312 0.540479
vn 0.838330 -0.071312 0.540479
vn 0.838330 -0.071312 0.540479
vn -0.862219 0.012524 0.506381
vn -0.862219 0.012524 0.506381
vn -0.862219 0.012524 0.506381
vn -0.862219 0.012524 0.506381
vn -0.857083 -0.046336 -0.513090
vn -0.857083 -0.046336 -0.513090
vn -0.857083 -0.046336 -0.513090
vn -0.857083 -0.046336 -0.513090
vn 0.974488 -0.190734 0.118296
vn 0.974488 -0.190734 0.118296
vn 0.974488 -0.190734 0.118296
vn 0.841863 -0.340414 0.418790
vn 0.841863 -0.340414 0.418790
vn 0.841863 -0.340414 0.418790
vn 0.841863 -0.340414 0.418790
vn 0.888140 -0.412780 -0.202039
vn 0.888140 -0.412780 -0.202039
vn 0.888140 -0.412780 -0.202039
vn 0.888140 -0.412780 -0.202039
vn 0.185875 -0.544629 -0.817820
vn 0.185875 -0.544629 -0.817820
vn 0.185875 -0.544629 -0.817820
vn 0.185875 -0.544629 -0.817820
vn -0.239719 -0.386944 -0.890398
vn -0.239719 -0.386944 -0.890398
vn -0.239719 -0.386944 -0.890398
vn -0.239719 -0.386944 -0.890398
vn -0.880503 -0.342721 -0.327499
vn -0.880503 -0.342721 -0.327499
vn -0.880503 -0.342721 -0.327499
vn -0.880503 -0.342721 -0.327499
vn -0.810396 -0.510491 0.287502
vn -0.810396 -0.510491 0.287502
vn -0.810396 -0.510491 0.287502
vn -0.810396 -0.510491 0.287502
vn -0.212060 -0.593318 0.776533
vn -0.212060 -0.593318 0.776533
vn -0.212060 -0.593318 0.776533
vn -0.212060 -0.593318 0.776533
vn 0.238748 -0.590568 0.770862
vn 0.238748 -0.590568 0.770862
vn 0.238748 -0.590568 0.770862
vn 0.238748 -0.590568 0.770862
vn 0.447311 0.505934 0.737525
vn 0.447311 0.505934 0.737525
vn 0.447311 0.505934 0.737525
vn 0.447311 0.505934 0.737525
vn -0.000019 -0.999986 -0.005374
vn -0.000019 -0.999986 -0.005374
vn -0.000019 -0.999986 -0.005374
vn 0.000378 -0.999992 -0.003915
vn 0.000378 -0.999992 -0.003915
vn 0.000378 -0.999992 -0.003915
vn 0.000378 -0.999992 -0.003915
vn 0.000033 -0.999985 0.005500
vn 0.000033 -0.999985 0.005500
vn 0.000033 -0.999985 0.005500
vn 0.000033 -0.999985 0.005500
vn 0.492854 0.517737 -0.699316
vn 0.492854 0.517737 -0.699316
vn 0.492854 0.517737 -0.699316
vn 0.492854 0.517737 -0.699316
vn -0.689674 0.579271 0.434505
vn -0.689674 0.579271 0.434505
vn -0.689674 0.579271 0.434505
vn -0.689674 0.579271 0.434505
vn -0.698684 0.657006 -0.283167
vn -0.698684 0.657006 -0.283167
vn -0.698684 0.657006 -0.283167
vn -0.698684 0.657006 -0.283167
vn -0.253004 0.675913 -0.692193
vn -0.253004 0.675913 -0.692193
vn -0.253004 0.675913 -0.692193
vn -0.253004 0.675913 -0.692193
vn 0.137687 0.692510 -0.708147
vn 0.137687 0.692510 -0.708147
vn 0.137687 0.692510 -0.708147
vn 0.137687 0.692510 -0.708147
vn 0.584856 0.762675 -0.276173
vn 0.584856 0.762675 -0.276173
vn 0.584856 0.762675 -0.276173
vn 0.584856 0.762675 -0.276173
vn 0.620442 0.635557 0.459478
vn 0.620442 0.635557 0.459478
vn 0.620442 0.635557 0.459478
vn 0.620442 0.635557 0.459478
vn 0.122659 0.516112 0.847693
vn 0.122659 0.516112 0.847693
vn 0.122659 0.516112 0.847693
vn 0.122659 0.516112 0.847693
vn -0.206483 0.531103 0.821763
vn -0.206483 0.531103 0.821763
vn -0.206483 0.531103 0.821763
vn -0.206483 0.531103 0.821763
vn -0.156270 0.977288 -0.143136
vn -0.156270 0.977288 -0.143136
vn -0.156270 0.977288 -0.143136
vn -0.156270 0.977288 -0.143136
vn 0.212566 0.974587 -0.070680
vn 0.212566 0.974587 -0.070680
vn 0.212566 0.974587 -0.070680
vn 0.212566 0.974587 -0.070680
vn -0.029530 0.983846 -0.176564
vn -0.029530 0.983846 -0.176564
vn -0.029530 0.983846 -0.176564
vn -0.029530 0.983846 -0.176564
vn 0.202686 0.944549 0.258351
vn 0.202686 0.944549 0.258351
vn 0.202686 0.944549 0.258351
vn 0.202686 0.944549 0.258351
vn 0.093772 0.486537 0.868613
vn 0.093772 0.486537 0.868613
vn 0.093772 0.486537 0.868613
vn 0.093772 0.486537 0.868613
vn 0.621922 0.675589 0.395970
vn 0.621922 0.675589 0.395970
vn 0.621922 0.675589 0.395970
vn 0.621922 0.675589 0.395970
vn -0.688196 0.617876 0.380283
vn -0.688196 0.617876 0.380283
vn -0.688196 0.617876 0.380283
vn -0.688196 0.617876 0.380283
vn -0.205887 0.485203 0.849817
vn -0.205887 0.485203 0.849817
vn -0.205887 0.485203 0.849817
vn -0.205887 0.485203 0.849817
vn 0.791822 0.535777 -0.293191
vn 0.791822 0.535777 -0.293191
vn 0.791822 0.535777 -0.293191
vn 0.791822 0.535777 -0.293191
vn 0.151095 0.388297 -0.909063
vn 0.151095 0.388297 -0.909063
vn 0.151095 0.388297 -0.909063
vn 0.151095 0.388297 -0.909063
vn -0.817270 0.488938 -0.304974
vn -0.817270 0.488938 -0.304974
vn -0.817270 0.488938 -0.304974
vn -0.817270 0.488938 -0.304974
vn -0.257485 0.387637 -0.885121
vn -0.257485 0.387637 -0.885121
vn -0.257485 0.387637 -0.885121
vn -0.257485 0.387637 -0.885121
vn -0.245795 0.937144 0.247682
vn -0.245795 0.937144 0.247682
vn -0.245795 0.937144 0.247682
vn -0.245795 0.937144 0.247682
vn -0.542973 -0.826367 0.149329
vn -0.542973 -0.826367 0.149329
vn -0.542973 -0.826367 0.149329
vn -0.542973 -0.826367 0.149329
vn -0.358595 -0.859597 -0.364010
vn -0.358595 -0.859597 -0.364010
vn -0.358595 -0.859597 -0.364010
vn -0.358595 -0.859597 -0.364010
vn -0.290728 0.955517 -0.049643
vn -0.290728 0.955517 -0.049643
vn -0.290728 0.955517 -0.049643
vn -0.290728 0.955517 -0.049643
vn 0.030663 -0.920253 -0.390122
vn 0.030663 -0.920253 -0.390122
vn 0.030663 -0.920253 -0.390122
vn 0.030663 -0.920253 -0.390122
vn 0.120619 -0.925259 -0.359648
vn 0.120619 -0.925259 -0.359648
vn 0.120619 -0.925259 -0.359648
vn 0.120619 -0.925259 -0.359648
vn 0.358400 -0.923525 -0.136571
vn 0.358400 -0.923525 -0.136571
vn 0.358400 -0.923525 -0.136571
vn 0.358400 -0.923525 -0.136571
vn 0.561696 -0.821997 -0.093908
vn 0.561696 -0.821997 -0.093908
vn 0.561696 -0.821997 -0.093908
vn 0.561696 -0.821997 -0.093908
vn 0.205011 -0.842886 0.497508
vn 0.205011 -0.842886 0.497508
vn 0.205011 -0.842886 0.497508
vn 0.205011 -0.842886 0.497508
vn -0.139210 0.938016 0.317407
vn -0.139210 0.938016 0.317407
vn -0.139210 0.938016 0.317407
vn -0.139210 0.938016 0.317407
vn -0.086569 -0.854493 0.512198
vn -0.086569 -0.854493 0.512198
vn -0.086569 -0.854493 0.512198
vn -0.086569 -0.854493 0.512198
vn -0.061269 0.963072 0.262180
vn -0.061269 0.963072 0.262180
vn -0.061269 0.963072 0.262180
vn -0.061269 0.963072 0.262180
vn -0.499280 0.525858 -0.688616
vn -0.499280 0.525858 -0.688616
vn -0.499280 0.525858 -0.688616
vn -0.499280 0.525858 -0.688616
vn 0.000000 -1.000000 0.000000
vn 0.000000 -1.000000 0.000000
vn 0.000000 -1.000000 0.000000
vn 0.000000 -1.000000 0.000000
vn 0.000000 -1.000000 0.000000
vn 0.000000 -1.000000 0.000000
vn -0.711893 0.264160 0.650714
vn -0.711893 0.264160 0.650714
vn -0.711893 0.264160 0.650714
vn 0.864787 -0.034597 -0.500946
vn 0.864787 -0.034597 -0.500946
vn 0.864787 -0.034597 -0.500946
vn 0.864787 -0.034597 -0.500946
vn -0.354090 -0.099970 -0.929853
vn -0.354090 -0.099970 -0.929853
vn -0.354090 -0.099970 -0.929853
vn -0.354090 -0.099970 -0.929853
vn -0.293459 0.123527 0.947957
vn -0.293459 0.123527 0.947957
vn -0.293459 0.123527 0.947957
vn -0.293459 0.123527 0.947957
vn 0.278811 0.122371 -0.952518
vn 0.278811 0.122371 -0.952518
vn 0.278811 0.122371 -0.952518
vn 0.278811 0.122371 -0.952518
vn 0.393392 -0.122925 0.911116
vn 0.393392 -0.122925 0.911116
vn 0.393392 -0.122925 0.911116
vn 0.393392 -0.122925 0.911116
vn 0.868118 0.021738 0.495881
vn 0.868118 0.021738 0.495881
vn 0.868118 0.021738 0.495881
vn 0.868118 0.021738 0.495881
vn -0.830715 -0.013411 0.556536
vn -0.830715 -0.013411 0.556536
vn -0.830715 -0.013411 0.556536
vn -0.830715 -0.013411 0.556536
vn -0.879187 0.058323 -0.472895
vn -0.879187 0.058323 -0.472895
vn -0.879187 0.058323 -0.472895
vn -0.879187 0.058323 -0.472895
vn 0.891771 -0.084674 0.444493
vn 0.891771 -0.084674 0.444493
vn 0.891771 -0.084674 0.444493
vn 0.891771 -0.084674 0.444493
vn 0.885880 -0.079310 -0.457086
vn 0.885880 -0.079310 -0.457086
vn 0.885880 -0.079310 -0.457086
vn 0.885880 -0.079310 -0.457086
vn 0.251573 -0.266166 -0.930519
vn 0.251573 -0.266166 -0.930519
vn 0.251573 -0.266166 -0.930519
vn 0.251573 -0.266166 -0.930519
vn -0.193444 -0.296508 -0.935234
vn -0.193444 -0.296508 -0.935234
vn -0.193444 -0.296508 -0.935234
vn -0.193444 -0.296508 -0.935234
vn -0.871349 -0.085268 -0.483198
vn -0.871349 -0.085268 -0.483198
vn -0.871349 -0.085268 -0.483198
vn -0.871349 -0.085268 -0.483198
vn -0.880826 -0.085041 0.465740
vn -0.880826 -0.085041 0.465740
vn -0.880826 -0.085041 0.465740
vn -0.880826 -0.085041 0.465740
vn -0.219703 -0.257840 0.940877
vn -0.219703 -0.257840 0.940877
vn -0.219703 -0.257840 0.940877
vn -0.219703 -0.257840 0.940877
vn 0.267933 -0.224618 0.936888
vn 0.267933 -0.224618 0.936888
vn 0.267933 -0.224618 0.936888
vn 0.267933 -0.224618 0.936888
s off
f 9/12/1 10/1/2 11/10/3 12/11/4
f 10/1/5 13/13/6 14/14/7 11/10/8
f 15/16/9 10/1/10 9/12/11 16/15/12
f 17/17/13 13/13/14 10/1/15 15/16/16
f 2/2/17 3/3/18 12/11/19 11/10/20
f 3/3/21 1/4/22 9/12/23 12/11/24
f 4/5/25 5/6/26 14/14/27 13/13/28
f 5/6/29 2/2/30 11/10/31 14/14/32
f 1/4/33 7/7/34 16/15/35 9/12/36
f 7/7/37 6/8/38 15/16/39 16/15/40
f 8/9/41 4/5/42 13/13/43 17/17/44
f 6/8/45 8/9/46 17/17/47 15/16/48
f 43/18/49 44/105/50 82/121/51 76/21/52
f 25/104/53 74/122/54 72/24/55
f 22/28/56 24/25/57 21/27/58
f 24/25/59 73/103/60 72/24/61 21/27/62
f 41/29/63 42/30/64 81/31/65 80/32/66
f 34/33/67 35/34/68 78/35/69 79/36/70
f 30/37/71 31/38/72 81/31/73 76/21/74
f 45/39/75 46/40/76 78/35/77 75/41/78
f 23/44/79 20/42/80 24/113/81
f 71/43/82 73/26/83 24/113/84 20/42/85
f 20/42/86 26/45/87 74/23/88 71/43/89
f 28/46/90 29/119/91 82/20/92 75/41/93
f 39/48/94 40/106/95 77/120/96 79/36/97
f 32/51/98 33/118/99 77/50/100 80/32/101
f 38/115/102 36/54/103 37/114/104
f 18/56/105 27/57/106 29/119/107 28/46/108
f 30/37/109 29/47/110 27/116/111 19/58/112
f 19/58/113 22/28/114 31/38/115 30/37/116
f 32/51/117 31/38/118 22/28/119 21/27/120
f 21/27/121 26/117/122 33/118/123 32/51/124
f 34/33/125 33/52/126 26/45/127 20/42/128
f 20/42/129 23/44/130 35/34/131 34/33/132
f 28/46/133 35/34/134 23/44/135 18/56/136
f 18/56/137 36/54/138 38/115/139 27/57/140
f 23/44/141 24/113/142 18/56/143
f 24/113/144 37/114/145 36/54/146 18/56/147
f 37/55/148 24/25/149 22/28/150 19/58/151
f 19/58/152 27/116/153 38/53/154 37/55/155
f 55/59/156 56/60/157 88/61/158 89/62/159
f 87/63/160 88/99/161 56/108/162 60/64/163
f 61/65/164 86/66/165 87/63/166 60/64/167
f 85/67/168 86/66/169 61/65/170 64/68/171
f 65/69/172 84/70/173 85/67/174 64/68/175
f 83/71/176 84/101/177 65/112/178 68/72/179
f 70/73/180 90/74/181 83/71/182 68/72/183
f 89/62/184 90/74/185 70/73/186 55/59/187
f 49/75/188 48/76/189 61/65/190 60/64/191
f 51/77/192 50/78/193 65/69/194 64/68/195
f 48/76/196 51/77/197 64/68/198 61/65/199
f 50/110/200 54/79/201 68/72/202 65/112/203
f 48/76/204 49/75/205 3/80/206 2/81/207
f 49/75/208 47/82/209 1/83/210 3/80/211
f 50/78/212 51/77/213 5/84/214 4/109/215
f 51/77/216 48/76/217 2/81/218 5/84/219
f 47/107/220 53/86/221 7/87/222 1/111/223
f 53/86/224 52/88/225 6/89/226 7/87/227
f 54/79/228 50/110/229 4/85/230 8/90/231
f 52/88/232 54/79/233 8/90/234 6/89/235
f 47/107/236 56/60/237 55/59/238 53/86/239
f 40/106/240 39/48/241 58/91/242 57/92/243
f 41/29/244 40/49/245 57/100/246 59/93/247
f 49/75/248 60/64/249 56/108/250 47/82/251
f 42/30/252 41/29/253 59/93/254 62/94/255
f 43/18/256 42/30/257 62/94/258 63/95/259
f 44/105/260 43/18/261 63/95/262 66/96/263
f 45/39/264 44/19/265 66/102/266 67/97/267
f 46/40/268 45/39/269 67/97/270 69/98/271
f 52/88/272 70/73/273 68/72/274 54/79/275
f 39/48/276 46/40/277 69/98/278 58/91/279
f 53/86/280 55/59/281 70/73/282 52/88/283
f 72/24/284 74/122/285 26/117/286 21/27/287
f 72/24/288 73/103/289 25/104/290
f 73/26/291 71/43/292 25/22/293
f 71/43/294 74/23/295 25/22/296
f 76/21/297 82/121/298 29/47/299 30/37/300
f 80/32/301 81/31/302 31/38/303 32/51/304
f 79/36/305 78/35/306 46/40/307 39/48/308
f 76/21/309 81/31/310 42/30/311 43/18/312
f 75/41/313 78/35/314 35/34/315 28/46/316
f 75/41/317 82/20/318 44/19/319 45/39/320
f 79/36/321 77/120/322 33/52/323 34/33/324
f 80/32/325 77/50/326 40/49/327 41/29/328
f 67/97/329 66/102/330 84/101/331 83/71/332
f 85/67/333 84/70/334 66/96/335 63/95/336
f 63/95/337 62/94/338 86/66/339 85/67/340
f 87/63/341 86/66/342 62/94/343 59/93/344
f 59/93/345 57/100/346 88/99/347 87/63/348
f 89/62/349 88/61/350 57/92/351 58/91/352
f 58/91/353 69/98/354 90/74/355 89/62/356
f 83/71/357 90/74/358 69/98/359 67/97/360
