# This file uses centimeters as units for non-parametric coordinates.

v -145.117035 30.503361 0.000000
v -133.649963 30.503361 -57.783257
v -106.521393 30.503361 -106.655693
v -57.648975 30.503361 -139.311218
v -0.000022 30.503361 -150.778320
v 57.648933 30.503361 -139.311234
v 106.521355 30.503361 -106.655739
v 133.436600 30.503361 -57.783310
v 144.903687 30.503361 0.000000
v 0.000000 30.503361 0.000000
v -72.918022 129.026276 0.000000
v -51.560844 129.026276 -57.419998
v -0.000011 129.026276 -74.385918
v 51.560825 129.026276 -57.420013
v 72.918022 129.026276 0.000000
v -133.649963 30.503361 57.783257
v -106.521393 30.503361 106.655693
v -57.648975 30.503361 139.311218
v -0.000022 30.503361 150.778320
v 57.648933 30.503361 139.311234
v 106.521355 30.503361 106.655739
v 133.436600 30.503361 57.783310
v -51.560844 129.026276 57.419998
v -0.000011 129.026276 74.385918
v 51.560825 129.026276 57.420013
vt 0.325147 0.422401
vt 0.323183 0.422479
vt 0.323332 0.421728
vt 0.326962 0.421728
vt 0.327111 0.422479
vt 0.323758 0.421090
vt 0.326536 0.421090
vt 0.324395 0.420665
vt 0.325899 0.420665
vt 0.325147 0.420515
vt 0.327111 0.422479
vt 0.323183 0.422479
vt 0.323758 0.421090
vt 0.326536 0.421090
vt 0.325147 0.420515
vt 0.325147 0.422401
vt 0.323183 0.422479
vt 0.323332 0.421728
vt 0.326962 0.421728
vt 0.327111 0.422479
vt 0.323758 0.421090
vt 0.326536 0.421090
vt 0.324395 0.420665
vt 0.325899 0.420665
vt 0.325147 0.420515
vt 0.327111 0.422479
vt 0.323183 0.422479
vt 0.323758 0.421090
vt 0.326536 0.421090
vt 0.325147 0.420515
vn 0.000000 1.000000 0.000000
vn 0.000000 1.000000 0.000000
vn 0.000000 1.000000 -0.000000
vn 0.000000 1.000000 -0.000000
vn 0.000000 1.000000 0.000000
vn 0.000000 1.000000 -0.000000
vn 0.000000 1.000000 -0.000000
vn 0.000000 1.000000 -0.000000
vn 0.000000 1.000000 -0.000000
vn 0.000000 1.000000 -0.000000
vn 0.000000 1.000000 0.000000
vn 0.000000 1.000000 0.000000
vn 0.000000 1.000000 -0.000000
vn 0.000000 1.000000 0.000000
vn 0.000000 1.000000 0.000000
vn 0.000000 1.000000 0.000000
vn 0.000000 1.000000 0.000000
vn 0.000000 1.000000 0.000000
vn 0.000000 1.000000 0.000000
vn 0.000000 1.000000 0.000000
vn 0.000000 1.000000 0.000000
vn 0.000000 1.000000 -0.000001
vn 0.000000 1.000000 0.000000
vn 0.000000 1.000000 -0.000000
vn 0.000000 1.000000 -0.000000
vn 0.000000 1.000000 0.000000
vn 0.000000 1.000000 0.000000
vn 0.000000 1.000000 -0.000000
vn 0.000000 1.000000 0.000000
vn 0.000000 1.000000 0.000000
vn 0.000000 1.000000 0.000000
vn 0.000000 1.000000 0.000000
vn 0.000000 1.000000 0.000000
vn 0.000000 1.000000 0.000000
vn 0.000000 1.000000 -0.000000
vn 0.000000 1.000000 -0.000000
vn 0.000000 1.000000 -0.000000
vn 0.000000 1.000000 -0.000000
vn 0.000000 1.000000 0.000000
vn 0.000000 1.000000 -0.000000
vn 0.000000 1.000000 -0.000000
vn 0.000000 1.000000 -0.000000
vn 0.000000 1.000000 -0.000000
vn 0.000000 1.000000 -0.000000
vn 0.000000 1.000000 -0.000000
vn 0.000000 1.000000 0.000001
s off
f 10/1/1 9/5/2 8/4/3 2/3/4 1/2/5
f 8/4/6 7/7/7 3/6/8 2/3/9
f 7/7/10 6/9/11 4/8/12 3/6/13
f 6/9/14 5/10/15 4/8/16
f 15/11/17 14/14/18 12/13/19 11/12/20
f 14/14/21 13/15/22 12/13/23
f 10/16/24 1/17/25 16/18/26 22/19/27 9/20/28
f 22/19/29 16/18/30 17/21/31 21/22/32
f 21/22/33 17/21/34 18/23/35 20/24/36
f 20/24/37 18/23/38 19/25/39
f 15/26/40 11/27/41 23/28/42 25/29/43
f 25/29/44 23/28/45 24/30/46
