# This file uses centimeters as units for non-parametric coordinates.

v 1.716747 0.197174 -2.973485
v -1.716736 0.197174 -2.973485
v -3.433483 0.907532 0.000002
v -1.716736 0.907532 2.973489
v 1.716747 0.907532 2.973489
v 3.433483 0.907532 0.000002
v 2.378506 7.191208 -4.119683
v -2.378490 7.323135 -4.119683
v -4.756996 7.191208 0.000002
v -2.378490 6.943558 4.119687
v 2.378506 7.191208 4.119687
v 4.757008 6.938995 0.000002
v 2.378506 3.554962 -4.119683
v -2.378490 3.423065 -4.119683
v -4.756996 3.554962 0.000002
v -2.378490 3.554962 4.119687
v 2.378506 3.554962 4.119687
v 4.757008 3.807205 0.000002
v 2.916016 7.767380 -5.050683
v -2.916000 7.767380 -5.050683
v -2.448071 9.815231 -4.240208
v 2.448090 9.815231 -4.240208
v -5.832024 7.767380 0.000002
v -4.621193 9.815231 0.158761
v -2.916000 7.767380 5.050685
v -2.356415 9.815231 4.081453
v 2.916016 7.767380 5.050685
v 2.173111 9.815231 4.081453
v 5.832027 7.767380 0.000002
v 4.896168 9.815231 0.000002
v -2.916000 2.978790 -5.050683
v 2.916016 2.978790 -5.050683
v -5.832024 2.978790 0.000002
v -2.916000 2.978790 5.050685
v 2.916016 2.978790 5.050685
v 5.832027 2.978790 0.000002
v 0.000004 -22.251816 0.000002
v -2.916000 9.107544 -5.050683
v -5.832024 9.107544 0.000002
v -2.916000 9.107544 5.050685
v 2.916016 9.011185 5.050685
v 2.916016 9.107544 -5.050683
v -2.560509 1.475067 -4.743128
v -5.476887 1.475067 0.000002
v -2.738430 1.475067 4.743129
v 2.738445 1.475067 4.743129
v 5.476891 1.475067 0.000002
v 2.560520 1.475067 -4.743128
v 0.832039 -18.926193 -1.441117
v 1.664059 -18.926193 0.000002
v 0.832039 -18.926193 1.441123
v -0.832024 -18.926193 1.441123
v -1.664059 -18.926193 0.000002
v -0.832024 -18.926193 -1.441117
v -1.251102 -19.877792 -2.166993
v 1.251125 -19.877792 -2.166993
v 1.073856 -21.233185 -1.859954
v -1.073841 -21.233185 -1.859954
v -2.502228 -19.877792 0.000002
v -2.147690 -21.233185 0.000002
v -1.251102 -19.877792 2.166999
v -1.073841 -21.233185 1.859960
v 1.251125 -19.877792 2.166999
v 1.073856 -21.233185 1.859960
v 2.502232 -19.877792 0.000002
v 2.147694 -21.233185 0.000002
v 5.222904 9.087402 1.055029
v 5.420456 9.107559 -0.712867
v 2.188374 13.456223 -3.720704
v -1.256111 14.642044 -4.246969
v -4.588581 14.642044 -0.536551
v -2.793278 14.642044 3.720325
v 1.194759 13.456223 4.219384
v 3.983673 12.077454 0.536175
v 0.842960 8.724930 -2.797096
v -2.148056 8.724930 -2.383155
v -3.285095 8.724930 0.414118
v -1.431087 8.724930 2.797449
v 1.559925 8.724930 2.383510
v 2.696957 8.724930 -0.413766
v -3.130127 14.642044 0.342829
v -2.215519 8.724930 0.722342
v 1.067444 20.345566 -0.890954
v -0.318382 21.317276 -1.380727
v -0.916943 22.310684 -0.201827
v -0.699505 20.441269 1.052724
v 0.119465 20.085098 1.926476
v 1.603779 19.115936 0.841340
v 2.283401 13.456223 -1.306203
v 1.228882 8.724930 -1.229921
v -0.145802 13.870346 2.980867
v -2.162220 14.642044 -2.348819
v 1.675564 18.959137 -0.196568
vt 0.304895 0.247805
vt 0.303852 0.247826
vt 0.303849 0.247965
vt 0.304727 0.247949
vt 0.302789 0.247805
vt 0.302985 0.247948
vt 0.302733 0.247761
vt 0.302947 0.247917
vt 0.303811 0.247716
vt 0.303781 0.247901
vt 0.304910 0.247472
vt 0.304735 0.247916
vt 0.304684 0.247751
vt 0.304908 0.247767
vt 0.304410 0.228233
vt 0.304605 0.228233
vt 0.304604 0.228466
vt 0.304409 0.228466
vt 0.304799 0.228233
vt 0.304798 0.228466
vt 0.304994 0.228233
vt 0.304993 0.228466
vt 0.305189 0.228223
vt 0.305188 0.228476
vt 0.305383 0.228233
vt 0.305382 0.228466
vt 0.304216 0.228233
vt 0.304214 0.228466
vt 0.304798 0.246215
vt 0.303882 0.246257
vt 0.303852 0.246572
vt 0.304894 0.246530
vt 0.302854 0.246215
vt 0.302791 0.246530
vt 0.302803 0.246122
vt 0.302735 0.246442
vt 0.303813 0.246073
vt 0.303812 0.246395
vt 0.304843 0.246121
vt 0.304910 0.246441
vt 0.304701 0.247401
vt 0.303848 0.247451
vt 0.303852 0.247552
vt 0.304895 0.247526
vt 0.302979 0.247401
vt 0.302790 0.247526
vt 0.302939 0.247301
vt 0.302734 0.247472
vt 0.303815 0.247329
vt 0.303811 0.247444
vt 0.304709 0.247299
vt 0.303848 0.246648
vt 0.304701 0.246642
vt 0.302980 0.246642
vt 0.302940 0.246574
vt 0.303816 0.246538
vt 0.304709 0.246627
vt 0.303800 0.249299
vt 0.304250 0.249246
vt 0.304185 0.248956
vt 0.303799 0.249003
vt 0.303342 0.249247
vt 0.303405 0.248957
vt 0.303327 0.249140
vt 0.303393 0.248862
vt 0.303783 0.249085
vt 0.303784 0.248813
vt 0.304248 0.249139
vt 0.304183 0.248861
vt 0.303842 0.245964
vt 0.303359 0.246054
vt 0.303343 0.246008
vt 0.303823 0.245984
vt 0.304313 0.246008
vt 0.304315 0.245940
vt 0.304807 0.226279
vt 0.304862 0.227536
vt 0.304861 0.227557
vt 0.304806 0.226257
vt 0.304709 0.227550
vt 0.304710 0.226246
vt 0.304559 0.227557
vt 0.304616 0.226257
vt 0.304564 0.227572
vt 0.304618 0.226279
vt 0.304714 0.227544
vt 0.304714 0.226289
vt 0.303797 0.249462
vt 0.304097 0.249428
vt 0.303792 0.248695
vt 0.303492 0.249428
vt 0.303483 0.249359
vt 0.303786 0.249324
vt 0.304094 0.249358
vt 0.304193 0.267537
vt 0.304111 0.268375
vt 0.304230 0.268256
vt 0.304530 0.267388
vt 0.303976 0.267536
vt 0.303600 0.267536
vt 0.303970 0.268503
vt 0.303542 0.265534
vt 0.303639 0.265534
vt 0.303853 0.266270
vt 0.303912 0.266502
vt 0.303447 0.265532
vt 0.303785 0.265433
vt 0.303884 0.266229
vt 0.303908 0.267379
vt 0.304459 0.267204
vt 0.304177 0.268106
vt 0.303942 0.268230
vt 0.304472 0.265386
vt 0.304172 0.266255
vt 0.304194 0.266082
vt 0.304331 0.265383
vt 0.304327 0.266796
vt 0.303980 0.266801
vt 0.303980 0.266801
vt 0.303676 0.266793
vt 0.303505 0.267534
vt 0.303697 0.267535
vt 0.303770 0.266789
vt 0.303716 0.266778
vt 0.304013 0.264771
vt 0.303658 0.264776
vt 0.304071 0.266772
vt 0.304378 0.266782
vt 0.304211 0.264787
vt 0.304269 0.264794
vt 0.303712 0.264787
vt 0.303618 0.264791
vt 0.303911 0.268271
vt 0.304269 0.266788
vt 0.304389 0.267385
vt 0.304252 0.268083
vt 0.303843 0.267434
vt 0.304135 0.265535
vt 0.303918 0.265535
vt 0.304053 0.266373
vt 0.303922 0.264800
vn 0.000000 0.753257 -0.657726
vn 0.000000 0.753257 -0.657726
vn 0.000000 0.753257 -0.657726
vn 0.000000 0.753257 -0.657726
vn -0.519335 0.807506 -0.279689
vn -0.519335 0.807506 -0.279689
vn -0.519335 0.807506 -0.279689
vn -0.519335 0.807506 -0.279689
vn -0.510688 0.807628 0.294847
vn -0.510688 0.807628 0.294847
vn -0.510688 0.807628 0.294847
vn -0.510688 0.807628 0.294847
vn 0.007336 0.788870 0.614516
vn 0.007336 0.788870 0.614516
vn 0.007336 0.788870 0.614516
vn 0.007336 0.788870 0.614516
vn 0.909513 0.415644 0.005067
vn 0.909513 0.415644 0.005067
vn 0.909513 0.415644 0.005067
vn 0.881047 0.402635 0.248277
vn 0.881047 0.402635 0.248277
vn 0.881047 0.402635 0.248277
vn 0.000000 1.000000 0.000000
vn 0.000000 1.000000 0.000000
vn 0.000000 1.000000 0.000000
vn 0.000000 1.000000 0.000000
vn 0.000000 0.000000 -1.000000
vn 0.000000 0.000000 -1.000000
vn 0.000000 0.000000 -1.000000
vn 0.000000 0.000000 -1.000000
vn -0.866025 0.000000 -0.500001
vn -0.866025 0.000000 -0.500001
vn -0.866025 0.000000 -0.500001
vn -0.866025 0.000000 -0.500001
vn -0.866025 0.000000 0.500001
vn -0.866025 0.000000 0.500001
vn -0.866025 0.000000 0.500001
vn -0.866025 0.000000 0.500001
vn 0.000000 0.000000 1.000000
vn 0.000000 0.000000 1.000000
vn 0.000000 0.000000 1.000000
vn 0.000000 0.000000 1.000000
vn 0.866025 0.000000 0.500000
vn 0.866025 0.000000 0.500000
vn 0.866025 0.000000 0.500000
vn 0.866025 0.000000 0.500000
vn 0.866025 0.000000 -0.500000
vn 0.866025 0.000000 -0.500000
vn 0.866025 0.000000 -0.500000
vn 0.866025 0.000000 -0.500000
vn 0.000000 -0.200381 -0.979718
vn 0.000000 -0.200381 -0.979718
vn 0.000000 -0.200381 -0.979718
vn 0.000000 -0.200381 -0.979718
vn -0.832477 -0.247404 -0.495756
vn -0.832477 -0.247404 -0.495756
vn -0.832477 -0.247404 -0.495756
vn -0.832477 -0.247404 -0.495756
vn -0.848460 -0.200383 0.489860
vn -0.848460 -0.200383 0.489860
vn -0.848460 -0.200383 0.489860
vn -0.848460 -0.200383 0.489860
vn 0.000000 -0.200381 0.979718
vn 0.000000 -0.200381 0.979718
vn 0.000000 -0.200382 0.979718
vn 0.000000 -0.200382 0.979718
vn 0.848460 -0.200383 0.489859
vn 0.848461 -0.200383 0.489859
vn 0.848460 -0.200383 0.489859
vn 0.848461 -0.200383 0.489859
vn 0.832477 -0.247405 -0.495754
vn 0.832477 -0.247405 -0.495754
vn 0.832477 -0.247405 -0.495754
vn 0.832477 -0.247405 -0.495754
vn -0.010925 -0.876895 -0.480558
vn -0.010925 -0.876895 -0.480557
vn -0.010925 -0.876895 -0.480558
vn -0.010925 -0.876895 -0.480558
vn -0.410712 -0.876895 -0.249741
vn -0.410712 -0.876895 -0.249741
vn -0.410712 -0.876895 -0.249741
vn -0.410712 -0.876895 -0.249741
vn -0.529700 -0.799139 0.284242
vn -0.529700 -0.799139 0.284242
vn -0.529700 -0.799139 0.284242
vn -0.529700 -0.799139 0.284242
vn 0.018690 -0.799139 0.600855
vn 0.018690 -0.799139 0.600855
vn 0.018690 -0.799139 0.600855
vn 0.018690 -0.799139 0.600855
vn 0.511929 -0.798193 0.317515
vn 0.511929 -0.798193 0.317515
vn 0.511929 -0.798193 0.317515
vn 0.511929 -0.798193 0.317515
vn 0.511929 -0.798193 -0.317515
vn 0.511929 -0.798193 -0.317515
vn 0.511929 -0.798193 -0.317515
vn 0.511929 -0.798193 -0.317515
vn -0.010923 0.876889 -0.480568
vn -0.010923 0.876889 -0.480568
vn -0.010923 0.876889 -0.480568
vn -0.010923 0.876889 -0.480568
vn -0.410723 0.876889 -0.249744
vn -0.410723 0.876889 -0.249744
vn -0.410723 0.876889 -0.249744
vn -0.410723 0.876889 -0.249744
vn -0.455744 0.850331 0.263125
vn -0.455744 0.850331 0.263125
vn -0.455744 0.850331 0.263125
vn -0.455744 0.850331 0.263125
vn 0.000000 0.850331 0.526249
vn 0.000000 0.850331 0.526249
vn 0.000000 0.850331 0.526249
vn 0.000000 0.850331 0.526249
vn 0.511935 0.798187 0.317521
vn 0.511935 0.798187 0.317521
vn 0.511935 0.798187 0.317521
vn 0.511935 0.798187 0.317521
vn 0.511935 0.798187 -0.317521
vn 0.511935 0.798187 -0.317521
vn 0.511935 0.798187 -0.317521
vn 0.511935 0.798187 -0.317521
vn 0.000000 1.000000 0.000000
vn 0.000000 1.000000 0.000000
vn 0.000000 1.000000 0.000000
vn 0.000000 1.000000 0.000000
vn 0.000000 -0.220934 -0.975289
vn 0.000000 -0.220934 -0.975289
vn 0.000000 -0.220934 -0.975289
vn 0.000000 -0.220934 -0.975289
vn -0.844624 -0.220931 -0.487646
vn -0.844624 -0.220931 -0.487646
vn -0.844624 -0.220931 -0.487646
vn -0.844624 -0.220931 -0.487646
vn -0.844625 -0.220931 0.487646
vn -0.844625 -0.220931 0.487646
vn -0.844625 -0.220931 0.487646
vn -0.844625 -0.220931 0.487646
vn 0.000000 -0.220934 0.975289
vn 0.000000 -0.220934 0.975289
vn 0.000000 -0.220934 0.975289
vn 0.000000 -0.220934 0.975289
vn 0.844627 -0.220934 0.487641
vn 0.844627 -0.220934 0.487641
vn 0.844627 -0.220934 0.487641
vn 0.844627 -0.220934 0.487641
vn 0.844627 -0.220934 -0.487642
vn 0.844627 -0.220934 -0.487642
vn 0.844627 -0.220934 -0.487642
vn 0.844627 -0.220934 -0.487642
vn -0.866025 0.000000 -0.500001
vn -0.866025 0.000000 -0.500001
vn -0.866025 0.000000 -0.500001
vn -0.866025 0.000000 -0.500001
vn -0.866025 0.000000 0.500001
vn -0.866025 0.000000 0.500001
vn -0.866025 0.000000 0.500001
vn -0.866025 0.000000 0.500001
vn 0.000000 0.000000 1.000000
vn 0.000000 0.000000 1.000000
vn 0.000000 0.000000 1.000000
vn 0.000000 0.000000 1.000000
vn 0.000000 0.000000 -1.000000
vn 0.000000 0.000000 -1.000000
vn 0.000000 0.000000 -1.000000
vn 0.000000 0.000000 -1.000000
vn -0.445278 -0.875704 -0.186735
vn -0.445278 -0.875704 -0.186735
vn -0.445278 -0.875704 -0.186735
vn -0.445278 -0.875704 -0.186735
vn -0.264472 -0.952228 0.152694
vn -0.264472 -0.952228 0.152694
vn -0.264472 -0.952228 0.152694
vn -0.264472 -0.952228 0.152694
vn 0.000000 -0.952229 0.305386
vn 0.000000 -0.952229 0.305386
vn 0.000000 -0.952229 0.305386
vn 0.000000 -0.952229 0.305386
vn 0.264472 -0.952229 0.152693
vn 0.264472 -0.952229 0.152693
vn 0.264472 -0.952229 0.152693
vn 0.264472 -0.952229 0.152693
vn 0.445278 -0.875704 -0.186734
vn 0.445278 -0.875704 -0.186734
vn 0.445278 -0.875704 -0.186734
vn 0.445278 -0.875704 -0.186734
vn 0.000000 -0.810719 -0.585436
vn 0.000000 -0.810719 -0.585436
vn 0.000000 -0.810719 -0.585436
vn 0.000000 -0.810719 -0.585436
vn 0.868772 -0.078422 -0.488963
vn 0.868772 -0.078422 -0.488963
vn 0.868772 -0.078422 -0.488963
vn 0.868772 -0.078422 -0.488963
vn 0.863454 -0.077031 0.498511
vn 0.863454 -0.077031 0.498511
vn 0.863454 -0.077031 0.498512
vn 0.863454 -0.077031 0.498511
vn 0.000000 -0.077031 0.997029
vn 0.000000 -0.077031 0.997029
vn 0.000000 -0.077031 0.997029
vn 0.000000 -0.077031 0.997029
vn -0.863452 -0.077031 0.498515
vn -0.863452 -0.077031 0.498515
vn -0.863452 -0.077031 0.498515
vn -0.863452 -0.077031 0.498515
vn -0.868770 -0.078422 -0.488967
vn -0.868770 -0.078422 -0.488967
vn -0.868770 -0.078422 -0.488967
vn -0.868770 -0.078422 -0.488967
vn 0.000000 -0.079875 -0.996805
vn 0.000000 -0.079875 -0.996805
vn 0.000000 -0.079875 -0.996805
vn 0.000000 -0.079875 -0.996805
vn 0.000000 0.606491 -0.795090
vn 0.000000 0.606491 -0.795090
vn 0.000000 0.606491 -0.795090
vn 0.000000 0.606491 -0.795090
vn 0.000000 -0.877079 -0.480346
vn 0.000000 -0.877079 -0.480346
vn 0.000000 -0.877079 -0.480346
vn -0.688568 0.606490 -0.397548
vn -0.688568 0.606490 -0.397548
vn -0.688568 0.606490 -0.397548
vn -0.688568 0.606490 -0.397548
vn -0.415991 -0.877080 -0.240172
vn -0.415991 -0.877080 -0.240172
vn -0.415991 -0.877080 -0.240172
vn -0.688568 0.606490 0.397547
vn -0.688568 0.606490 0.397547
vn -0.688568 0.606490 0.397547
vn -0.688568 0.606490 0.397547
vn -0.415991 -0.877080 0.240173
vn -0.415991 -0.877080 0.240173
vn -0.415991 -0.877080 0.240173
vn 0.000000 0.606491 0.795090
vn 0.000000 0.606491 0.795090
vn 0.000000 0.606491 0.795091
vn 0.000000 0.606491 0.795090
vn 0.000000 -0.877079 0.480346
vn 0.000000 -0.877079 0.480346
vn 0.000000 -0.877079 0.480346
vn 0.688569 0.606493 0.397542
vn 0.688569 0.606493 0.397542
vn 0.688569 0.606493 0.397542
vn 0.688569 0.606493 0.397542
vn 0.415991 -0.877080 0.240171
vn 0.415991 -0.877080 0.240171
vn 0.415991 -0.877080 0.240171
vn 0.688569 0.606493 -0.397541
vn 0.688569 0.606493 -0.397541
vn 0.688569 0.606493 -0.397541
vn 0.688569 0.606493 -0.397541
vn 0.415991 -0.877080 -0.240172
vn 0.415991 -0.877080 -0.240172
vn 0.415991 -0.877080 -0.240172
vn 0.514422 0.792400 0.327829
vn 0.514422 0.792400 0.327829
vn 0.514422 0.792400 0.327829
vn 0.514422 0.792400 0.327829
vn 0.866026 0.000001 0.500000
vn 0.866026 0.000001 0.500000
vn 0.866026 0.000001 0.500000
vn 0.866026 0.000001 0.500000
vn 0.866026 -0.000001 -0.500000
vn 0.866026 -0.000001 -0.500000
vn 0.866026 -0.000001 -0.500000
vn 0.866026 -0.000001 -0.500000
vn 0.569603 0.753262 -0.328862
vn 0.569602 0.753262 -0.328862
vn 0.569603 0.753262 -0.328862
vn 0.569603 0.753262 -0.328862
vn 0.345677 0.367265 -0.863495
vn 0.345677 0.367265 -0.863495
vn 0.345677 0.367265 -0.863495
vn 0.345677 0.367265 -0.863495
vn -0.617742 0.303427 -0.725484
vn -0.617742 0.303427 -0.725484
vn -0.617742 0.303427 -0.725484
vn -0.617742 0.303427 -0.725484
vn -0.650883 0.239024 0.720569
vn -0.650883 0.239024 0.720569
vn -0.650883 0.239024 0.720569
vn -0.650883 0.239024 0.720569
vn 0.305509 0.146582 0.940839
vn 0.305509 0.146582 0.940839
vn 0.305509 0.146582 0.940839
vn 0.779350 0.278647 0.561221
vn 0.779350 0.278647 0.561221
vn 0.779350 0.278647 0.561221
vn 0.779350 0.278647 0.561221
vn 0.973629 0.180271 -0.139816
vn 0.973629 0.180271 -0.139816
vn 0.973629 0.180271 -0.139816
vn 0.973629 0.180271 -0.139816
vn -0.028699 -0.247485 -0.968467
vn -0.028699 -0.247484 -0.968467
vn -0.028699 -0.247484 -0.968467
vn -0.028699 -0.247484 -0.968467
vn -0.784003 -0.134221 -0.606073
vn -0.784003 -0.134221 -0.606073
vn -0.784003 -0.134221 -0.606073
vn -0.784003 -0.134221 -0.606073
vn -0.960906 -0.193942 0.197602
vn -0.960906 -0.193942 0.197602
vn -0.960906 -0.193942 0.197602
vn -0.960906 -0.193942 0.197602
vn 0.188937 -0.082078 0.978553
vn 0.188937 -0.082078 0.978553
vn 0.188937 -0.082077 0.978553
vn 0.188937 -0.082077 0.978553
vn 0.794651 -0.276785 0.540296
vn 0.794651 -0.276785 0.540296
vn 0.794651 -0.276785 0.540296
vn 0.794651 -0.276785 0.540296
vn 0.959786 -0.255675 -0.115933
vn 0.959786 -0.255675 -0.115933
vn 0.959786 -0.255675 -0.115933
vn 0.959786 -0.255675 -0.115933
vn -0.425091 0.022035 0.904882
vn -0.425091 0.022035 0.904882
vn -0.425091 0.022035 0.904882
vn -0.425091 0.022035 0.904882
vn -0.859275 0.434441 0.270015
vn -0.859275 0.434441 0.270015
vn -0.859275 0.434441 0.270015
vn -0.859275 0.434441 0.270015
vn 0.615693 -0.093761 -0.782388
vn 0.615693 -0.093761 -0.782388
vn 0.615693 -0.093761 -0.782388
vn 0.615693 -0.093761 -0.782388
vn 0.489224 0.866306 -0.100867
vn 0.489224 0.866306 -0.100867
vn 0.489224 0.866306 -0.100867
vn 0.489224 0.866306 -0.100867
vn 0.616485 0.727844 -0.300316
vn 0.616485 0.727844 -0.300316
vn 0.616485 0.727844 -0.300316
vn -0.695325 -0.306000 0.650298
vn -0.695325 -0.306000 0.650298
vn -0.695325 -0.306000 0.650298
vn -0.644257 0.154578 0.749025
vn -0.644257 0.154578 0.749025
vn -0.644257 0.154578 0.749025
vn 0.651088 0.504523 0.567046
vn 0.651088 0.504523 0.567046
vn 0.651088 0.504523 0.567046
vn 0.651088 0.504523 0.567046
vn -0.861552 0.297625 -0.411275
vn -0.861552 0.297625 -0.411275
vn -0.861552 0.297625 -0.411275
vn -0.902449 0.000340 -0.430797
vn -0.902449 0.000340 -0.430797
vn -0.902449 0.000340 -0.430797
vn 0.884084 0.254808 -0.391750
vn 0.884084 0.254808 -0.391750
vn 0.884084 0.254808 -0.391750
vn 0.884084 0.254808 -0.391750
s off
f 42/1/1 38/2/2 21/3/3 22/4/4
f 38/2/5 39/5/6 24/6/7 21/3/8
f 39/5/9 40/7/10 26/8/11 24/6/12
f 40/7/13 41/9/14 28/10/15 26/8/16
f 29/11/17 30/12/18 67/13/19
f 68/14/20 30/12/21 29/11/22
f 26/8/23 22/4/24 21/3/25 24/6/26
f 13/15/27 14/16/28 8/17/29 7/18/30
f 14/16/31 15/19/32 9/20/33 8/17/34
f 15/19/35 16/21/36 10/22/37 9/20/38
f 16/21/39 17/23/40 11/24/41 10/22/42
f 17/23/43 18/25/44 12/26/45 11/24/46
f 18/27/47 13/15/48 7/18/49 12/28/50
f 48/29/51 43/30/52 31/31/53 32/32/54
f 43/30/55 44/33/56 33/34/57 31/31/58
f 44/33/59 45/35/60 34/36/61 33/34/62
f 45/35/63 46/37/64 35/38/65 34/36/66
f 46/37/67 47/39/68 36/40/69 35/38/70
f 47/39/71 48/29/72 32/32/73 36/40/74
f 7/41/75 8/42/76 20/43/77 19/44/78
f 8/42/79 9/45/80 23/46/81 20/43/82
f 9/45/83 10/47/84 25/48/85 23/46/86
f 10/47/87 11/49/88 27/50/89 25/48/90
f 11/49/91 12/51/92 29/11/93 27/50/94
f 12/51/95 7/41/96 19/44/97 29/11/98
f 14/52/99 13/53/100 32/32/101 31/31/102
f 15/54/103 14/52/104 31/31/105 33/34/106
f 16/55/107 15/54/108 33/34/109 34/36/110
f 17/56/111 16/55/112 34/36/113 35/38/114
f 18/57/115 17/56/116 35/38/117 36/40/118
f 13/53/119 18/57/120 36/40/121 32/32/122
f 28/10/123 30/12/124 22/4/125 26/8/126
f 55/58/127 56/59/128 57/60/129 58/61/130
f 59/62/131 55/58/132 58/61/133 60/63/134
f 61/64/135 59/62/136 60/63/137 62/65/138
f 63/66/139 61/64/140 62/65/141 64/67/142
f 65/68/143 63/66/144 64/67/145 66/69/146
f 56/59/147 65/68/148 66/69/149 57/60/150
f 20/43/151 23/46/152 39/5/153 38/2/154
f 23/46/155 25/48/156 40/7/157 39/5/158
f 25/48/159 27/50/160 41/9/161 40/7/162
f 19/44/163 20/43/164 38/2/165 42/1/166
f 44/33/167 43/30/168 2/70/169 3/71/170
f 45/35/171 44/33/172 3/71/173 4/72/174
f 46/37/175 45/35/176 4/72/177 5/73/178
f 47/39/179 46/37/180 5/73/181 6/74/182
f 1/75/183 48/29/184 47/39/185 6/74/186
f 43/30/187 48/29/188 1/75/189 2/70/190
f 49/76/191 1/77/192 6/78/193 50/79/194
f 6/78/195 5/80/196 51/81/197 50/79/198
f 5/80/199 4/82/200 52/83/201 51/81/202
f 4/82/203 3/84/204 53/85/205 52/83/206
f 3/84/207 2/86/208 54/87/209 53/85/210
f 2/86/211 1/77/212 49/76/213 54/87/214
f 54/88/215 49/89/216 56/59/217 55/58/218
f 37/90/219 58/61/220 57/60/221
f 53/91/222 54/88/223 55/58/224 59/62/225
f 37/90/226 60/63/227 58/61/228
f 52/92/229 53/91/230 59/62/231 61/64/232
f 37/90/233 62/65/234 60/63/235
f 51/93/236 52/92/237 61/64/238 63/66/239
f 37/90/240 64/67/241 62/65/242
f 50/94/243 51/93/244 63/66/245 65/68/246
f 37/90/247 66/69/248 64/67/249
f 49/89/250 50/94/251 65/68/252 56/59/253
f 37/90/254 57/60/255 66/69/256
f 41/9/257 67/13/258 30/12/259 28/10/260
f 27/50/261 29/11/262 67/13/263 41/9/264
f 29/11/265 19/44/266 42/1/267 68/14/268
f 30/12/269 68/14/270 42/1/271 22/4/272
f 70/95/273 84/96/274 83/97/275 69/98/276
f 84/96/277 92/99/278 71/100/279 85/101/280
f 71/102/281 81/103/282 86/104/283 85/105/284
f 72/106/285 91/107/286 87/108/287
f 73/109/288 74/110/289 88/111/290 87/112/291
f 69/113/292 83/114/293 93/115/294 89/116/295
f 70/95/296 69/98/297 75/117/298 76/118/299
f 71/100/300 92/99/301 76/119/302 77/120/303
f 72/121/304 81/122/305 82/123/306 78/124/307
f 79/125/308 91/107/309 72/106/310 78/126/311
f 74/110/312 73/109/313 79/127/314 80/128/315
f 69/113/316 89/116/317 90/129/318 75/130/319
f 82/131/320 81/103/321 71/102/322 77/132/323
f 86/133/324 81/122/325 72/121/326 87/112/327
f 90/134/328 89/135/329 74/110/330 80/128/331
f 86/133/332 87/112/333 88/111/334 93/136/335
f 84/96/336 85/101/337 83/97/338
f 73/109/339 91/137/340 79/127/341
f 87/112/342 91/137/343 73/109/344
f 86/104/345 93/115/346 83/114/347 85/105/348
f 70/138/349 92/139/350 84/140/351
f 76/141/352 92/139/353 70/138/354
f 89/135/355 93/136/356 88/111/357 74/110/358
