# This file uses centimeters as units for non-parametric coordinates.

v 1.525787 -1.859047 0.889984
v 1.525818 -1.859047 -0.871948
v -0.000092 -1.859047 -1.752869
v -1.525818 -1.859047 -0.871948
v -1.525848 -1.859047 0.889984
v -0.000061 -1.859047 1.770905
v 1.525787 1.998184 0.889984
v 1.525818 1.998184 -0.871948
v -0.000092 1.998184 -1.752869
v -1.525818 1.998184 -0.871948
v -1.525848 1.998184 0.889984
v -0.000061 1.998184 1.770905
v 1.132843 -0.880914 0.081604
v -12.488647 -1.186051 33.353485
v 1.132843 0.178396 0.081604
v -12.315216 0.483533 32.877197
v -3.055237 0.178396 -1.443390
v -13.844635 0.483533 32.320190
v -3.055237 -0.880914 -1.443390
v -14.018188 -1.186051 32.796478
v -14.752045 1.180327 35.488281
v -13.657532 1.180351 35.886963
v -14.595398 2.023906 35.058197
v -13.500854 2.023930 35.456757
v 1.575317 -0.880914 -11.429138
v 2.962891 -0.880914 -10.853943
v 2.962891 0.163303 -10.853943
v 1.575317 0.163303 -11.429138
v 3.863007 -1.136338 2.239319
v 3.862915 -1.136338 -2.221283
v 0.000000 -1.136338 -4.451599
v -3.863037 -1.136338 -2.221283
v -3.863068 -1.136338 2.239319
v -0.000031 -1.136338 4.469635
v 3.863007 1.186329 2.239319
v 3.838379 1.186329 -1.902863
v 0.000000 1.186329 -4.451599
v -3.863037 1.186329 -2.221283
v -3.863068 1.186329 2.239319
v -0.000031 1.186329 4.469635
v -0.000061 -1.136338 0.009125
vt 0.113126 0.248754
vt 0.113321 0.248708
vt 0.113330 0.249069
vt 0.113133 0.249114
vt 0.113479 0.248788
vt 0.113488 0.249148
vt 0.113441 0.248912
vt 0.113450 0.249272
vt 0.113247 0.248957
vt 0.113255 0.249316
vt 0.113090 0.248878
vt 0.113097 0.249238
vt 0.113233 0.243083
vt 0.113235 0.249481
vt 0.110314 0.267688
vt 0.110279 0.273717
vt 0.113568 0.245483
vt 0.110438 0.268373
vt 0.113565 0.239658
vt 0.110402 0.268765
vt 0.110066 0.280658
vt 0.110099 0.280683
vt 0.110188 0.293933
vt 0.110154 0.280681
vt 0.114505 0.269555
vt 0.114510 0.271420
vt 0.114393 0.271340
vt 0.114389 0.268002
vt 0.112884 0.230853
vt 0.113381 0.230737
vt 0.113386 0.230955
vt 0.112888 0.231071
vt 0.113780 0.230940
vt 0.113787 0.231158
vt 0.113681 0.231254
vt 0.113687 0.231470
vt 0.113192 0.231366
vt 0.113197 0.231582
vt 0.112795 0.231169
vt 0.112798 0.231385
vt 0.113285 0.231055
vn 1.000000 0.000000 0.000017
vn 1.000000 0.000000 0.000017
vn 1.000000 0.000000 0.000017
vn 1.000000 0.000000 0.000017
vn 0.499973 0.000000 -0.866041
vn 0.499973 0.000000 -0.866041
vn 0.499973 0.000000 -0.866041
vn 0.499973 0.000000 -0.866041
vn -0.500018 0.000000 -0.866015
vn -0.500018 0.000000 -0.866015
vn -0.500018 0.000000 -0.866015
vn -0.500018 0.000000 -0.866015
vn -1.000000 0.000000 -0.000017
vn -1.000000 0.000000 -0.000017
vn -1.000000 0.000000 -0.000017
vn -1.000000 0.000000 -0.000017
vn -0.500003 0.000000 0.866024
vn -0.500003 0.000000 0.866024
vn -0.500003 0.000000 0.866024
vn -0.500003 0.000000 0.866024
vn 0.499988 0.000000 0.866032
vn 0.499988 0.000000 0.866032
vn 0.499988 0.000000 0.866032
vn 0.499988 0.000000 0.866032
vn 0.000000 1.000000 0.000000
vn 0.000000 1.000000 0.000000
vn 0.000000 1.000000 0.000000
vn 0.000000 1.000000 0.000000
vn 0.000000 1.000000 -0.000000
vn 0.000000 1.000000 -0.000000
vn 0.000000 1.000000 -0.000000
vn 0.000000 1.000000 -0.000000
vn 0.925316 0.007363 0.379126
vn 0.925316 0.007363 0.379126
vn 0.925316 0.007363 0.379126
vn 0.925316 0.007363 0.379126
vn 0.002948 0.999963 -0.008095
vn 0.002948 0.999963 -0.008095
vn 0.002948 0.999963 -0.008095
vn 0.002948 0.999963 -0.008095
vn -0.952434 0.007400 -0.304656
vn -0.952434 0.007400 -0.304656
vn -0.952434 0.007400 -0.304656
vn -0.952434 0.007400 -0.304656
vn 0.002906 -0.999964 -0.007981
vn 0.002906 -0.999964 -0.007981
vn 0.002906 -0.999964 -0.007981
vn 0.002906 -0.999964 -0.007981
vn -0.300781 0.476965 0.825854
vn -0.300781 0.476965 0.825854
vn -0.300781 0.476965 0.825854
vn -0.300781 0.476965 0.825854
vn 0.382936 0.000000 -0.923775
vn 0.382936 0.000000 -0.923775
vn 0.382936 0.000000 -0.923775
vn 0.382936 0.000000 -0.923775
vn -0.221788 -0.761535 0.608994
vn -0.221788 -0.761535 0.608994
vn -0.221788 -0.761535 0.608994
vn -0.221788 -0.761535 0.608994
vn -0.959577 0.024974 -0.280336
vn -0.959577 0.024974 -0.280336
vn -0.959577 0.024974 -0.280336
vn -0.959577 0.024974 -0.280336
vn 0.163601 0.878290 -0.449268
vn 0.163601 0.878290 -0.449268
vn 0.163601 0.878290 -0.449268
vn 0.163601 0.878290 -0.449268
vn 0.915138 0.024929 0.402369
vn 0.915138 0.024929 0.402369
vn 0.915138 0.024929 0.402369
vn 0.915138 0.024929 0.402369
vn 0.000000 -1.000000 -0.000000
vn 0.000000 -1.000000 -0.000000
vn 0.000000 -1.000000 -0.000000
vn 0.000000 -1.000000 -0.000000
vn 0.986285 0.000000 0.165053
vn 0.986285 0.000000 0.165053
vn 0.986285 0.000000 0.165053
vn 0.986285 0.000000 0.165053
vn 0.000487 0.999999 -0.001292
vn 0.000487 0.999999 -0.001292
vn 0.000487 0.999999 -0.001292
vn 0.000487 0.999999 -0.001292
vn -0.907206 0.000000 -0.420686
vn -0.907206 0.000000 -0.420686
vn -0.907206 0.000000 -0.420686
vn -0.907206 0.000000 -0.420686
vn 0.999981 0.005479 -0.002873
vn 0.999981 0.005479 -0.002873
vn 0.999981 0.005479 -0.002873
vn 0.999981 0.005479 -0.002873
vn 0.526299 0.060915 -0.848115
vn 0.526299 0.060915 -0.848115
vn 0.526299 0.060915 -0.848115
vn 0.526299 0.060915 -0.848115
vn -0.499998 0.000000 -0.866026
vn -0.499998 0.000000 -0.866026
vn -0.499998 0.000000 -0.866026
vn -0.499998 0.000000 -0.866026
vn -1.000000 0.000000 -0.000007
vn -1.000000 0.000000 -0.000007
vn -1.000000 0.000000 -0.000007
vn -1.000000 0.000000 -0.000007
vn -0.499998 0.000000 0.866026
vn -0.499998 0.000000 0.866026
vn -0.499998 0.000000 0.866026
vn -0.499998 0.000000 0.866026
vn 0.499998 0.000000 0.866026
vn 0.499998 0.000000 0.866026
vn 0.499998 0.000000 0.866026
vn 0.499998 0.000000 0.866026
vn 0.000000 -1.000000 0.000000
vn 0.000000 -1.000000 0.000000
vn 0.000000 -1.000000 0.000000
vn 0.000000 -1.000000 0.000000
vn 0.000000 -1.000000 0.000000
vn 0.000000 -1.000000 0.000000
vn 0.000000 -1.000000 0.000000
vn 0.000000 -1.000000 0.000000
vn 0.000000 -1.000000 0.000000
vn 0.000000 -1.000000 0.000000
vn 0.000000 -1.000000 0.000000
vn 0.000000 -1.000000 0.000000
vn 0.000000 -1.000000 0.000000
vn 0.000000 -1.000000 0.000000
vn 0.000000 -1.000000 0.000000
vn 0.000000 -1.000000 0.000000
vn 0.000000 -1.000000 0.000000
vn 0.000000 -1.000000 0.000000
vn 0.000000 1.000000 0.000000
vn 0.000000 1.000000 0.000000
vn 0.000000 1.000000 0.000000
vn 0.000000 1.000000 0.000000
vn 0.000000 1.000000 0.000000
vn 0.000000 1.000000 0.000000
vn 0.000000 1.000000 0.000000
vn 0.000000 1.000000 0.000000
vn 0.000000 -1.000000 0.000000
vn 0.000000 -1.000000 0.000000
vn 0.000000 -1.000000 0.000000
vn 0.000000 -1.000000 0.000000
vn 0.000000 -1.000000 0.000000
vn 0.000000 -1.000000 0.000000
vn 0.000000 -1.000000 0.000000
vn 0.000000 -1.000000 0.000000
s off
f 1/1/1 2/2/2 8/3/3 7/4/4
f 2/2/5 3/5/6 9/6/7 8/3/8
f 3/5/9 4/7/10 10/8/11 9/6/12
f 4/7/13 5/9/14 11/10/15 10/8/16
f 5/9/17 6/11/18 12/12/19 11/10/20
f 6/11/21 1/1/22 7/4/23 12/12/24
f 9/6/25 10/8/26 11/10/27 12/12/28
f 9/6/29 12/12/30 7/4/31 8/3/32
f 13/13/33 15/14/34 16/15/35 14/16/36
f 15/14/37 17/17/38 18/18/39 16/15/40
f 17/17/41 19/19/42 20/20/43 18/18/44
f 19/19/45 13/13/46 14/16/47 20/20/48
f 22/21/49 24/22/50 23/23/51 21/24/52
f 25/25/53 28/26/54 27/27/55 26/28/56
f 14/16/57 22/21/58 21/24/59 20/20/60
f 20/20/61 21/24/62 23/23/63 18/18/64
f 18/18/65 23/23/66 24/22/67 16/15/68
f 16/15/69 24/22/70 22/21/71 14/16/72
f 19/19/73 25/25/74 26/28/75 13/13/76
f 13/13/77 26/28/78 27/27/79 15/14/80
f 15/14/81 27/27/82 28/26/83 17/17/84
f 17/17/85 28/26/86 25/25/87 19/19/88
f 29/29/89 30/30/90 36/31/91 35/32/92
f 30/30/93 31/33/94 37/34/95 36/31/96
f 31/33/97 32/35/98 38/36/99 37/34/100
f 32/35/101 33/37/102 39/38/103 38/36/104
f 33/37/105 34/39/106 40/40/107 39/38/108
f 34/39/109 29/29/110 35/32/111 40/40/112
f 30/30/113 29/29/114 41/41/115
f 31/33/116 30/30/117 41/41/118
f 32/35/119 31/33/120 41/41/121
f 33/37/122 32/35/123 41/41/124
f 34/39/125 33/37/126 41/41/127
f 29/29/128 34/39/129 41/41/130
f 37/34/131 38/36/132 39/38/133 40/40/134
f 37/34/135 40/40/136 35/32/137 36/31/138
f 3/5/139 6/11/140 5/9/141 4/7/142
f 2/2/143 1/1/144 6/11/145 3/5/146
v -1.355835 -0.279182 -0.122345
v 5.269592 -0.584318 35.213928
v -1.355835 0.780128 -0.122345
v 5.195862 1.085264 34.712585
v 3.053955 0.780128 -0.770813
v 6.806335 1.085264 34.475861
v 3.053955 -0.279182 -0.770813
v 6.880066 -0.584318 34.977234
v 7.055542 1.782059 37.761841
v 5.903137 1.782084 37.931366
v 6.988953 2.625638 37.308746
v 5.836548 2.625662 37.478455
v -1.435059 -0.279182 -11.609619
v -2.622314 -0.279182 -11.325684
v -2.622314 0.765035 -11.325684
v -1.435059 0.765035 -11.609619
vt 0.113506 0.246019
vt 0.110350 0.271962
vt 0.110386 0.268386
vt 0.113508 0.246096
vt 0.110345 0.272232
vt 0.113429 0.252532
vt 0.110309 0.267653
vt 0.113427 0.253450
vt 0.110096 0.272350
vt 0.110066 0.272305
vt 0.110101 0.272346
vt 0.110131 0.272390
vt 0.114498 0.272140
vt 0.114506 0.267904
vt 0.114510 0.272245
vt 0.114501 0.272196
vn -0.982795 0.007352 0.184554
vn -0.982795 0.007352 0.184554
vn -0.982795 0.007352 0.184554
vn -0.982795 0.007352 0.184554
vn -0.001253 0.999963 -0.008523
vn -0.001253 0.999963 -0.008523
vn -0.001253 0.999963 -0.008523
vn -0.001253 0.999963 -0.008523
vn 0.994324 0.007364 -0.106141
vn 0.994324 0.007364 -0.106141
vn 0.994324 0.007364 -0.106141
vn 0.994324 0.007364 -0.106141
vn -0.001236 -0.999964 -0.008403
vn -0.001236 -0.999964 -0.008403
vn -0.001236 -0.999964 -0.008403
vn -0.001236 -0.999964 -0.008403
vn 0.127991 0.477034 0.869515
vn 0.127990 0.477034 0.869515
vn 0.127990 0.477034 0.869515
vn 0.127990 0.477034 0.869515
vn -0.232593 0.000000 -0.972574
vn -0.232593 0.000000 -0.972574
vn -0.232593 0.000000 -0.972574
vn -0.232593 0.000000 -0.972574
vn 0.094270 -0.761550 0.641213
vn 0.094270 -0.761550 0.641213
vn 0.094270 -0.761550 0.641213
vn 0.094270 -0.761550 0.641213
vn 0.996414 0.024927 -0.080853
vn 0.996414 0.024927 -0.080853
vn 0.996414 0.024927 -0.080853
vn 0.996414 0.024927 -0.080853
vn -0.069581 0.878283 -0.473052
vn -0.069581 0.878283 -0.473052
vn -0.069581 0.878283 -0.473052
vn -0.069581 0.878283 -0.473052
vn -0.977513 0.024930 0.209396
vn -0.977513 0.024930 0.209396
vn -0.977513 0.024930 0.209396
vn -0.977513 0.024930 0.209396
vn 0.000000 -1.000000 0.000000
vn 0.000000 -1.000000 0.000000
vn 0.000000 -1.000000 0.000000
vn 0.000000 -1.000000 0.000000
vn -0.993671 0.000000 0.112329
vn -0.993671 0.000000 0.112329
vn -0.993671 0.000000 0.112329
vn -0.993671 0.000000 0.112329
vn -0.000219 0.999999 -0.001312
vn -0.000219 0.999999 -0.001312
vn -0.000219 0.999999 -0.001312
vn -0.000219 0.999999 -0.001312
vn 0.923897 0.000000 -0.382642
vn 0.923897 0.000000 -0.382642
vn 0.923897 0.000000 -0.382642
vn 0.923897 0.000000 -0.382642
s off
f 42/42/147 43/43/148 45/44/149 44/45/150
f 44/45/151 45/44/152 47/46/153 46/47/154
f 46/47/155 47/46/156 49/48/157 48/49/158
f 48/49/159 49/48/160 43/43/161 42/42/162
f 51/50/163 50/51/164 52/52/165 53/53/166
f 54/54/167 55/55/168 56/56/169 57/57/170
f 43/43/171 49/48/172 50/51/173 51/50/174
f 49/48/175 47/46/176 52/52/177 50/51/178
f 47/46/179 45/44/180 53/53/181 52/52/182
f 45/44/183 43/43/184 51/50/185 53/53/186
f 48/49/187 42/42/188 55/55/189 54/54/190
f 42/42/191 44/45/192 56/56/193 55/55/194
f 44/45/195 46/47/196 57/57/197 56/56/198
f 46/47/199 48/49/200 54/54/201 57/57/202
