# This file uses centimeters as units for non-parametric coordinates.

v -52.307640 81.635956 25.469299
v -36.987095 81.635956 54.851418
v -0.000008 81.635956 67.021896
v 36.987083 81.635956 54.851429
v 52.307640 81.635956 25.469315
v -155.046341 32.590485 13.804756
v -142.794662 32.590485 75.398216
v -113.809883 32.590485 127.614639
v -61.593479 32.590485 162.504547
v -0.000024 32.590485 174.756256
v 61.593433 32.590485 162.504562
v 113.809845 32.590485 127.614685
v 142.566696 32.590485 75.398270
v 154.818405 32.590485 13.804813
v 0.000000 32.590485 13.804813
vt 0.326536 0.421090
vt 0.325147 0.420515
vt 0.323758 0.421090
vt 0.323183 0.422479
vt 0.327111 0.422479
vt 0.323183 0.422479
vt 0.323332 0.421728
vt 0.325147 0.422401
vt 0.323758 0.421090
vt 0.324395 0.420665
vt 0.325147 0.420515
vt 0.325899 0.420665
vt 0.326536 0.421090
vt 0.326962 0.421728
vt 0.327111 0.422479
vn 0.000000 1.000000 -0.000000
vn 0.000000 1.000000 -0.000000
vn 0.000000 1.000000 -0.000000
vn 0.000000 1.000000 -0.000000
vn 0.000000 1.000000 -0.000000
vn 0.000000 1.000000 -0.000000
vn 0.000000 1.000000 0.000000
vn 0.000000 1.000000 0.000000
vn 0.000000 1.000000 -0.000000
vn 0.000000 1.000000 0.000000
vn 0.000000 1.000000 0.000000
vn 0.000000 1.000000 -0.000000
vn 0.000000 1.000000 -0.000000
vn 0.000000 1.000000 0.000000
vn 0.000000 1.000000 0.000001
s 1
f 5/5/1 1/4/2 2/3/3 4/1/4
s 2
f 15/8/5 6/6/6 7/7/7 13/14/8 14/15/9
f 13/14/8 7/7/7 8/9/10 12/13/11
f 12/13/11 8/9/10 9/10/12 11/12/13
f 11/12/13 9/10/12 10/11/14
s 1
f 4/1/4 2/3/3 3/2/15
