# This file uses centimeters as units for non-parametric coordinates.

v -119.730667 79.541901 6.832612
v -102.191307 79.032967 6.832612
v -126.943398 82.276489 0.000000
v -119.815826 87.398354 0.000000
v 114.223244 83.001778 6.832612
v 118.746803 79.903854 6.832612
v 123.994904 81.694633 0.000000
v 121.172592 87.112595 0.000000
v -115.295204 -81.861572 6.832612
v -117.697273 -79.465561 6.832612
v -124.974472 -81.397186 0.000000
v -119.255905 -86.885963 0.000000
v 119.097519 -79.779877 6.832612
v 116.775574 -81.148293 6.832612
v 120.389442 -86.551109 0.000000
v 123.591309 -81.217499 0.000000
v 126.539902 45.705879 0.000000
v 119.967781 40.929596 6.832612
v -119.386841 50.209179 6.832612
v -125.810936 51.871284 0.000000
v 46.561516 82.026527 6.832612
v 46.323463 85.765411 0.000000
v -50.469265 -82.008247 6.832612
v -51.782284 -89.461197 0.000000
v 119.664543 -14.197543 6.832612
v 125.869774 8.336885 0.000000
v 114.840721 6.792900 6.832612
v -86.786255 82.957458 6.832612
vt 0.028119 0.848858
vt 0.097648 0.815857
vt 0.158421 0.831339
vt 0.045953 0.181122
vt 0.030327 0.161301
vt 0.296513 0.151142
vt 0.301693 0.180544
vt 0.953846 0.530867
vt 0.997356 0.536958
vt 0.974073 0.665538
vt 0.007768 0.182954
vt 0.036476 0.190575
vt 0.004468 0.708703
vt 0.028455 0.817864
vt 0.951410 0.831514
vt 0.969256 0.819292
vt 0.989960 0.826357
vt 0.978826 0.847731
vt 0.970640 0.189335
vt 0.961479 0.183936
vt 0.975736 0.162622
vt 0.988368 0.183663
vt 1.000000 0.684380
vt 0.029811 0.702146
vt 0.000000 0.828652
vt 0.683544 0.842416
vt 0.684483 0.827666
vt 0.972877 0.448059
vn -0.118718 0.466011 0.876778
vn -0.118718 0.466011 0.876778
vn -0.118718 0.466011 0.876778
vn -0.015132 -0.735476 0.677382
vn -0.015132 -0.735476 0.677382
vn -0.015132 -0.735476 0.677382
vn -0.015132 -0.735476 0.677382
vn 0.533024 -0.080056 0.842305
vn 0.533024 -0.080056 0.842305
vn 0.533024 -0.080056 0.842305
vn -0.742377 -0.023136 0.669583
vn -0.742377 -0.023136 0.669583
vn -0.769289 0.004178 0.638887
vn -0.769289 0.004178 0.638887
vn 0.000000 0.000000 -1.000000
vn 0.000000 0.000000 -1.000000
vn 0.000000 0.000000 -1.000000
vn 0.000000 0.000000 -1.000000
vn 0.000000 0.000000 1.000000
vn 0.000000 0.000000 1.000000
vn 0.000000 0.000000 1.000000
vn 0.000000 0.000000 1.000000
vn 0.019041 0.656227 0.754323
vn 0.019041 0.656227 0.754323
vn 0.019041 0.656227 0.754323
vn 0.546795 0.471672 0.691766
vn 0.546795 0.471672 0.691766
vn 0.546795 0.471672 0.691766
vn 0.546795 0.471672 0.691766
vn -0.508058 -0.523255 0.684165
vn -0.508058 -0.523255 0.684165
vn -0.508058 -0.523255 0.684165
vn -0.508058 -0.523255 0.684165
vn 0.609586 -0.502421 0.613170
vn 0.609586 -0.502421 0.613170
vn 0.609586 -0.502421 0.613170
vn 0.609586 -0.502421 0.613170
vn 0.751677 0.018876 0.659261
vn 0.751677 0.018876 0.659261
vn 0.751677 0.018876 0.659261
vn 0.751677 0.018876 0.659261
vn -0.709069 -0.007769 0.705096
vn -0.709069 -0.007769 0.705096
vn -0.709069 -0.007769 0.705096
vn -0.709069 -0.007769 0.705096
vn 0.000000 0.000000 -1.000000
vn 0.000000 0.000000 -1.000000
vn 0.000000 0.000000 -1.000000
vn 0.000000 0.000000 -1.000000
vn 0.000000 0.000000 -1.000000
vn 0.000000 0.000000 -1.000000
vn 0.000000 0.000000 -1.000000
vn -0.014178 0.870026 0.492803
vn -0.014178 0.870026 0.492803
vn -0.014178 0.870026 0.492803
vn -0.014178 0.870026 0.492803
vn 0.008082 -0.727647 0.685905
vn 0.008082 -0.727647 0.685905
vn 0.008082 -0.727647 0.685905
vn 0.008082 -0.727647 0.685905
vn 0.000000 0.000000 1.000000
vn 0.000000 0.000000 1.000000
vn 0.000000 0.000000 1.000000
vn 0.000000 0.000000 1.000000
vn 0.000000 0.000000 1.000000
vn 0.000000 0.000000 1.000000
vn 0.000000 0.000000 1.000000
vn 0.000000 0.000000 -1.000000
vn 0.000000 0.000000 -1.000000
vn 0.000000 0.000000 -1.000000
vn 0.000000 0.000000 -1.000000
vn 0.000000 0.000000 -1.000000
vn 0.000000 0.000000 -1.000000
vn 0.000000 0.000000 -1.000000
vn 0.000000 0.000000 1.000000
vn 0.000000 0.000000 1.000000
vn 0.000000 0.000000 1.000000
vn 0.000000 0.000000 1.000000
vn 0.000000 0.000000 1.000000
vn 0.000000 0.000000 1.000000
vn 0.000000 0.000000 1.000000
vn -0.000000 0.000000 -1.000000
vn -0.000000 0.000000 -1.000000
vn -0.000000 0.000000 -1.000000
vn -0.000000 0.000000 -1.000000
vn -0.000000 0.000000 -1.000000
vn -0.000000 0.000000 -1.000000
vn -0.000000 0.000000 -1.000000
vn 0.794647 -0.009825 0.606992
vn 0.794647 -0.009825 0.606992
vn 0.794647 -0.009825 0.606992
vn 0.794647 -0.009825 0.606992
vn 0.725178 -0.013004 0.688439
vn 0.725178 -0.013004 0.688439
vn 0.725178 -0.013004 0.688439
vn 0.511061 0.117447 0.851483
vn 0.511061 0.117447 0.851483
vn 0.511061 0.117447 0.851483
vn 0.000000 0.000000 1.000000
vn 0.000000 0.000000 1.000000
vn 0.000000 0.000000 1.000000
vn -0.000000 0.000000 1.000000
vn -0.000000 0.000000 1.000000
vn -0.000000 0.000000 1.000000
vn -0.000000 0.000000 1.000000
vn -0.000000 0.000000 1.000000
vn -0.000000 0.000000 1.000000
vn -0.000000 0.000000 1.000000
vn -0.000000 0.000000 1.000000
vn -0.000000 0.000000 1.000000
vn -0.000000 0.000000 1.000000
vn 0.007412 0.865855 0.500239
vn 0.007412 0.865855 0.500239
vn 0.007412 0.865855 0.500239
vn 0.007412 0.865855 0.500239
vn -0.424975 0.591394 0.685310
vn -0.424975 0.591394 0.685310
vn -0.424975 0.591394 0.685310
s off
f 4/1/1 2/2/2 28/3/3
f 9/4/4 12/5/5 24/6/6 23/7/7
f 27/8/8 26/9/9 18/10/10
f 11/11/11 10/12/12 19/24/13 20/13/14
f 11/11/15 20/13/16 24/6/17 12/5/18
f 19/24/19 10/12/20 9/4/21 23/7/22
f 1/14/23 2/2/24 4/1/25
f 5/15/26 6/16/27 7/17/28 8/18/29
f 9/4/30 10/12/31 11/11/32 12/5/33
f 13/19/34 14/20/35 15/21/36 16/22/37
f 18/10/38 17/23/39 7/17/40 6/16/41
f 20/13/42 19/24/43 1/14/44 3/25/45
f 22/26/46 24/6/47 20/13/48 4/1/49
f 3/25/50 4/1/51 20/13/52
f 22/26/53 21/27/54 5/15/55 8/18/56
f 23/7/57 24/6/58 15/21/59 14/20/60
f 27/8/61 23/7/62 25/28/63
f 25/28/64 23/7/65 14/20/66 13/19/67
f 17/23/68 26/9/69 24/6/70
f 15/21/71 24/6/72 26/9/73 16/22/74
f 21/27/75 23/7/76 5/15/77
f 6/16/78 5/15/79 23/7/80 18/10/81
f 24/6/82 22/26/83 8/18/84 7/17/85
f 24/6/86 7/17/87 17/23/88
f 13/19/89 16/22/90 26/9/91 25/28/92
f 18/10/93 26/9/94 17/23/95
f 25/28/96 26/9/97 27/8/98
f 23/7/99 27/8/100 18/10/101
f 19/24/102 23/7/103 21/27/104 28/3/105
f 1/14/106 19/24/107 2/2/108
f 2/2/109 19/24/110 28/3/111
f 4/1/112 28/3/113 21/27/114 22/26/115
f 1/14/116 4/1/117 3/25/118
