# This file uses centimeters as units for non-parametric coordinates.

v -0.493729 -0.318909 -2.310991
v -2.719406 2.555664 3.398501
v 2.839890 -5.998474 1.858122
v 0.543106 -2.437805 8.177568
v -1.202194 -5.764221 -0.716829
v -3.981857 -1.487122 0.053358
v 0.821640 2.057434 6.094778
v 3.619461 -1.239258 -0.345993
v -3.498978 -2.203552 5.602617
v 3.981857 -2.153687 5.335857
v -0.719345 -6.480652 4.832426
v 2.050339 1.598877 1.909828
v 7.716204 -125.942360 4.087290
v -7.373339 -129.895203 4.087290
v 1.522635 -0.263977 4.087290
v -1.179785 -0.263977 4.087290
v 1.522635 -0.263977 1.333407
v -1.179785 -0.263977 1.333407
v 7.716204 -125.942360 1.333407
v -6.546292 -129.895203 1.333407
v 2.641223 -126.811928 3.310015
v 2.641223 -126.811928 0.556110
v 0.625114 -0.328572 0.556110
v 0.624276 -0.245354 3.310015
v -1.867316 -129.303162 6.258008
v -0.193700 -1.769073 5.294976
v -0.193700 -1.769073 2.541070
v -1.867316 -129.303162 3.504102
v 7.628053 -116.760597 4.087290
v 2.594057 -117.392296 3.310015
v -1.787685 -119.672234 6.258008
v -7.054499 -120.006233 4.087290
v -6.237923 -120.006233 1.333407
v -1.794192 -119.672234 3.504102
v 2.601156 -117.392296 0.556110
v 7.639488 -116.760597 1.333407
v 6.489557 -94.784447 1.333407
v 2.226691 -95.106117 0.556110
v -1.514337 -97.110573 3.199793
v -5.209702 -97.108177 1.333407
v -6.023924 -97.108177 4.087290
v -1.509377 -97.110573 5.953698
v 2.221037 -95.106117 3.310015
v 6.475221 -94.784447 4.087290
v 6.429539 -91.606712 1.333407
v 2.207228 -91.846046 0.556110
v -1.502751 -93.777382 3.199793
v -5.170052 -93.685661 1.333407
v -5.981923 -93.685677 4.087290
v -1.497981 -93.777382 5.953698
v 2.201800 -91.846031 3.310015
v 6.412599 -91.606712 4.087290
v 3.777432 -18.709715 1.333407
v 1.359859 -18.811834 0.556110
v -0.782108 -18.761305 2.541070
v -3.403230 -18.891264 1.333407
v -3.395721 -18.745836 4.087290
v -0.780030 -18.616011 5.294976
v 1.357372 -18.666658 3.310015
v 3.769663 -18.564669 4.087290
v 2.043484 -69.031471 0.556110
v -1.360070 -68.718910 2.541070
v -4.658689 -68.784241 1.333407
v -5.464480 -68.446167 4.087290
v -1.354177 -68.380524 5.294975
v 2.036419 -68.692818 3.310015
v 5.897684 -68.675056 4.087290
v 5.919790 -69.014015 1.333407
v -1.636004 -107.375839 6.092155
v -6.492822 -107.526497 4.087290
v -5.677529 -107.526497 1.333407
v -1.641667 -107.375839 3.338249
v 2.397068 -105.246040 0.556110
v 7.012761 -104.783310 1.333407
v 6.999744 -104.783310 4.087290
v 2.390756 -105.246040 3.310015
vt 0.646033 0.310069
vt 0.645815 0.309881
vt 0.646334 0.309868
vt 0.646095 0.309560
vt 0.646099 0.309925
vt 0.645800 0.309513
vt 0.646003 0.309333
vt 0.645703 0.309535
vt 0.645920 0.309723
vt 0.646220 0.309521
vt 0.645718 0.309903
vt 0.646135 0.309613
vt 0.142491 0.186835
vt 0.142450 0.186858
vt 0.142449 0.186939
vt 0.142493 0.186913
vt 0.142450 0.186927
vt 0.142451 0.186848
vt 0.142491 0.186825
vt 0.142493 0.186902
vt 0.238854 0.349339
vt 0.238719 0.349400
vt 0.238727 0.349394
vt 0.238858 0.349335
vt 0.142398 0.186955
vt 0.142402 0.186873
vt 0.142403 0.186863
vt 0.142400 0.186943
vt 0.142540 0.186886
vt 0.142536 0.186810
vt 0.142537 0.186820
vt 0.142541 0.186897
vt 0.239000 0.349273
vt 0.238999 0.349276
vt 0.238564 0.349467
vt 0.238575 0.349460
vt 0.238981 0.348970
vt 0.238848 0.349027
vt 0.238724 0.349076
vt 0.238582 0.349138
vt 0.238592 0.349137
vt 0.238732 0.349077
vt 0.238853 0.349029
vt 0.238983 0.348973
vt 0.238954 0.348481
vt 0.238960 0.348584
vt 0.238845 0.348632
vt 0.238843 0.348527
vt 0.238738 0.348665
vt 0.238740 0.348556
vt 0.238615 0.348718
vt 0.238621 0.348607
vt 0.238605 0.348710
vt 0.238612 0.348597
vt 0.238731 0.348655
vt 0.238733 0.348544
vt 0.238841 0.348622
vt 0.238839 0.348514
vt 0.238958 0.348572
vt 0.238952 0.348467
vt 0.142497 0.186077
vt 0.142512 0.186355
vt 0.142483 0.186361
vt 0.142478 0.186078
vt 0.142453 0.186742
vt 0.142454 0.186592
vt 0.142487 0.186602
vt 0.142489 0.186723
vt 0.142408 0.186755
vt 0.142415 0.186608
vt 0.142407 0.186764
vt 0.142414 0.186609
vt 0.142460 0.186067
vt 0.142439 0.186070
vt 0.142425 0.186364
vt 0.142457 0.186345
vt 0.142478 0.186072
vt 0.142483 0.186360
vt 0.142532 0.186717
vt 0.142525 0.186594
vt 0.142487 0.186604
vt 0.142489 0.186731
vt 0.142531 0.186710
vt 0.142525 0.186593
vt 0.142457 0.186347
vt 0.142461 0.186074
vt 0.142427 0.186366
vt 0.142440 0.186077
vt 0.142454 0.186592
vt 0.142512 0.186353
vt 0.142497 0.186070
vt 0.142452 0.186750
vt 0.168161 0.985896
vt 0.168161 0.948351
vt 0.198045 0.948351
vt 0.198045 0.985896
vt 0.151305 0.948351
vt 0.151305 0.985896
vt 0.324509 0.948351
vt 0.349947 0.948351
vt 0.349947 0.985896
vt 0.324509 0.985896
vt 0.295771 0.948351
vt 0.295771 0.985896
vt 0.269102 0.985896
vt 0.269102 0.948351
vt 0.252870 0.948351
vt 0.252870 0.985896
vt 0.226284 0.948351
vt 0.226284 0.985896
vn 0.466159 -0.433524 -0.771202
vn 0.466159 -0.433524 -0.771202
vn 0.466159 -0.433524 -0.771202
vn 0.354136 -0.304902 -0.884094
vn 0.354136 -0.304902 -0.884094
vn 0.354136 -0.304902 -0.884094
vn 0.974448 -0.203573 -0.094915
vn 0.974448 -0.203573 -0.094915
vn 0.974448 -0.203573 -0.094915
vn -0.509925 -0.179924 -0.841192
vn -0.509925 -0.179924 -0.841192
vn -0.509925 -0.179924 -0.841192
vn -0.571361 0.621711 -0.535744
vn -0.571361 0.621711 -0.535744
vn -0.571361 0.621711 -0.535744
vn -0.971121 0.210813 0.111721
vn -0.971121 0.210813 0.111721
vn -0.971121 0.210813 0.111721
vn -0.477592 0.393544 0.785512
vn -0.477592 0.393544 0.785512
vn -0.477592 0.393544 0.785512
vn -0.508215 0.429081 0.746731
vn -0.508215 0.429081 0.746731
vn -0.508215 0.429081 0.746731
vn 0.522902 -0.634372 0.569338
vn 0.522902 -0.634372 0.569338
vn 0.522902 -0.634372 0.569338
vn 0.538340 -0.647637 0.539219
vn 0.538340 -0.647637 0.539219
vn 0.538340 -0.647637 0.539219
vn 0.590582 0.308841 0.745540
vn 0.590582 0.308841 0.745540
vn 0.590582 0.308841 0.745540
vn -0.496847 -0.455869 0.738462
vn -0.496847 -0.455869 0.738462
vn -0.496847 -0.455869 0.738462
vn -0.838273 -0.545244 0.002551
vn -0.838273 -0.545244 0.002551
vn -0.838273 -0.545244 0.002551
vn -0.838273 -0.545245 0.002546
vn -0.838273 -0.545245 0.002546
vn -0.838273 -0.545245 0.002546
vn 0.025488 -0.991163 -0.130181
vn 0.025488 -0.991163 -0.130181
vn 0.025488 -0.991163 -0.130181
vn 0.430497 0.695377 -0.575433
vn 0.430497 0.695377 -0.575433
vn 0.430497 0.695377 -0.575433
vn 0.881531 0.471715 0.019693
vn 0.881531 0.471715 0.019693
vn 0.881531 0.471715 0.019693
vn 0.802483 0.571034 0.173038
vn 0.802483 0.571034 0.173038
vn 0.802483 0.571034 0.173038
vn 0.179914 0.982155 -0.054795
vn 0.179914 0.982155 -0.054795
vn 0.179914 0.982155 -0.054795
vn 0.044488 0.899158 -0.435356
vn 0.044488 0.899158 -0.435356
vn 0.044488 0.899158 -0.435356
vn 0.566373 0.006788 0.824121
vn 0.563782 0.006795 0.825896
vn 0.565085 0.006791 0.825005
vn 0.565085 0.006791 0.825005
vn -0.563940 -0.006793 -0.825788
vn -0.562633 -0.006796 -0.826679
vn -0.565232 -0.006790 -0.824904
vn -0.563940 -0.006793 -0.825788
vn 0.483637 -0.875268 0.000000
vn 0.483637 -0.875268 0.000000
vn 0.483637 -0.875268 0.000000
vn 0.483637 -0.875268 0.000000
vn -0.957962 0.043066 -0.283644
vn -0.957962 0.043066 -0.283645
vn -0.957963 0.043066 -0.283642
vn -0.957962 0.043066 -0.283644
vn 0.998619 0.052320 0.004673
vn 0.998619 0.052320 0.004673
vn 0.998619 0.052320 0.004673
vn 0.998619 0.052320 0.004673
vn 0.168883 -0.985636 0.000000
vn 0.168883 -0.985636 0.000000
vn 0.168883 -0.985636 0.000000
vn 0.168883 -0.985636 0.000000
vn 0.163939 0.005646 -0.986454
vn 0.164486 0.005665 -0.986363
vn 0.164286 0.005658 -0.986397
vn 0.164286 0.005658 -0.986397
vn -0.164504 -0.005671 0.986360
vn -0.164706 -0.005678 0.986326
vn -0.164154 -0.005659 0.986418
vn -0.164504 -0.005671 0.986360
vn -0.381960 0.017183 0.924019
vn -0.381959 0.017183 0.924020
vn -0.381959 0.017183 0.924019
vn -0.381959 0.017183 0.924019
vn 0.444889 -0.018795 -0.895389
vn 0.444765 -0.018792 -0.895450
vn 0.444954 -0.018797 -0.895356
vn 0.444889 -0.018795 -0.895389
vn 0.108603 -0.993951 0.016311
vn 0.108603 -0.993951 0.016311
vn 0.108603 -0.993951 0.016311
vn 0.108603 -0.993951 0.016311
vn -0.151832 -0.001105 0.988406
vn -0.151832 -0.001105 0.988406
vn -0.151832 -0.001105 0.988406
vn -0.151832 -0.001105 0.988406
vn 0.553047 -0.000942 0.833150
vn 0.553047 -0.000942 0.833150
vn 0.553047 -0.000942 0.833150
vn 0.553047 -0.000942 0.833150
vn -0.374341 0.007642 0.927260
vn -0.374341 0.007642 0.927260
vn -0.374341 0.007642 0.927260
vn -0.374341 0.007642 0.927260
vn -0.957800 0.030374 -0.285826
vn -0.957800 0.030374 -0.285826
vn -0.957800 0.030374 -0.285826
vn -0.957800 0.030374 -0.285826
vn 0.430391 -0.008411 -0.902603
vn 0.430391 -0.008411 -0.902603
vn 0.430391 -0.008411 -0.902603
vn 0.430391 -0.008411 -0.902603
vn -0.552466 0.000959 -0.833535
vn -0.552466 0.000959 -0.833535
vn -0.552466 0.000959 -0.833535
vn -0.552466 0.000959 -0.833535
vn 0.151795 0.000953 -0.988412
vn 0.151795 0.000953 -0.988412
vn 0.151795 0.000953 -0.988412
vn 0.151795 0.000953 -0.988412
vn 0.999958 0.008978 0.002076
vn 0.999958 0.008978 0.002076
vn 0.999958 0.008978 0.002076
vn 0.999958 0.008978 0.002076
vn 0.180070 0.002223 -0.983651
vn 0.180070 0.002223 -0.983651
vn 0.180070 0.002223 -0.983651
vn 0.180070 0.002223 -0.983651
vn -0.578472 -0.000691 -0.815702
vn -0.578472 -0.000691 -0.815702
vn -0.578472 -0.000691 -0.815702
vn -0.578472 -0.000691 -0.815702
vn 0.452153 -0.003429 -0.891934
vn 0.452153 -0.003429 -0.891934
vn 0.452153 -0.003429 -0.891934
vn 0.452153 -0.003429 -0.891934
vn -0.959012 0.011439 -0.283136
vn -0.959012 0.011439 -0.283136
vn -0.959012 0.011439 -0.283136
vn -0.959012 0.011439 -0.283136
vn -0.383138 0.003028 0.923686
vn -0.383138 0.003028 0.923686
vn -0.383138 0.003028 0.923686
vn -0.383138 0.003028 0.923686
vn 0.579549 0.000689 0.814937
vn 0.579549 0.000689 0.814937
vn 0.579549 0.000689 0.814937
vn 0.579549 0.000689 0.814937
vn -0.180476 -0.002295 0.983577
vn -0.180476 -0.002295 0.983577
vn -0.180476 -0.002295 0.983577
vn -0.180476 -0.002295 0.983577
vn 0.999798 0.019293 0.005677
vn 0.999798 0.019293 0.005677
vn 0.999798 0.019293 0.005677
vn 0.999798 0.019293 0.005677
vn 0.422917 0.034237 -0.905521
vn 0.422917 0.034237 -0.905521
vn 0.422917 0.034237 -0.905521
vn 0.422917 0.034237 -0.905521
vn -0.543466 -0.011788 -0.839349
vn -0.543466 -0.011788 -0.839349
vn -0.543466 -0.011788 -0.839349
vn -0.543466 -0.011788 -0.839349
vn 0.403618 -0.017345 -0.914763
vn 0.403618 -0.017345 -0.914763
vn 0.403618 -0.017345 -0.914763
vn 0.403618 -0.017345 -0.914763
vn -0.958959 0.019676 -0.282860
vn -0.958959 0.019676 -0.282860
vn -0.958959 0.019676 -0.282860
vn -0.958959 0.019676 -0.282860
vn -0.545004 0.043229 0.837318
vn -0.545004 0.043229 0.837318
vn -0.545004 0.043229 0.837318
vn -0.545004 0.043229 0.837318
vn 0.801537 0.003336 0.597936
vn 0.801537 0.003336 0.597936
vn 0.801537 0.003336 0.597936
vn 0.801537 0.003336 0.597936
vn -0.189022 -0.002790 0.981969
vn -0.189022 -0.002790 0.981969
vn -0.189022 -0.002790 0.981969
vn -0.189022 -0.002790 0.981969
vn 0.999731 0.022502 0.005703
vn 0.999731 0.022502 0.005703
vn 0.999731 0.022502 0.005703
vn 0.999731 0.022502 0.005703
vn 0.239668 0.006738 -0.970832
vn 0.239668 0.006738 -0.970832
vn 0.239668 0.006738 -0.970832
vn 0.239668 0.006738 -0.970832
vn -0.801053 -0.003304 -0.598585
vn -0.801053 -0.003304 -0.598585
vn -0.801053 -0.003304 -0.598585
vn -0.801053 -0.003304 -0.598585
vn 0.544497 -0.042983 -0.837660
vn 0.544497 -0.042983 -0.837660
vn 0.544497 -0.042983 -0.837660
vn 0.544497 -0.042983 -0.837660
vn -0.992919 0.118783 -0.001783
vn -0.992919 0.118783 -0.001783
vn -0.992919 0.118783 -0.001783
vn -0.992919 0.118783 -0.001783
vn -0.338195 0.008986 0.941033
vn -0.338195 0.008986 0.941033
vn -0.338195 0.008986 0.941033
vn -0.338195 0.008986 0.941033
vn 0.583340 0.000613 0.812228
vn 0.583340 0.000613 0.812228
vn 0.583340 0.000613 0.812228
vn 0.583340 0.000613 0.812228
vn -0.424073 -0.034415 0.904974
vn -0.424073 -0.034415 0.904974
vn -0.424073 -0.034415 0.904974
vn -0.424073 -0.034415 0.904974
vn 0.992577 0.121601 -0.001802
vn 0.992577 0.121601 -0.001802
vn 0.992577 0.121601 -0.001802
vn 0.992577 0.121601 -0.001802
vn -0.582122 -0.000614 -0.813101
vn -0.582122 -0.000614 -0.813101
vn -0.582122 -0.000614 -0.813101
vn -0.582122 -0.000614 -0.813101
vn 0.377964 -0.006940 -0.925794
vn 0.377964 -0.006940 -0.925794
vn 0.377964 -0.006940 -0.925794
vn 0.377964 -0.006940 -0.925794
vn -0.988705 0.033001 -0.146197
vn -0.988705 0.033001 -0.146197
vn -0.988705 0.033001 -0.146197
vn -0.988705 0.033001 -0.146197
vn -0.240393 -0.006739 0.970652
vn -0.240393 -0.006739 0.970652
vn -0.240393 -0.006739 0.970652
vn -0.240393 -0.006739 0.970652
vn 0.999095 0.042489 0.001685
vn 0.999095 0.042489 0.001685
vn 0.999095 0.042489 0.001685
vn 0.999095 0.042489 0.001685
vn 0.188430 0.002795 -0.982083
vn 0.188430 0.002795 -0.982083
vn 0.188430 0.002795 -0.982083
vn 0.188430 0.002795 -0.982083
vn -0.336704 0.016644 0.941464
vn -0.336704 0.016644 0.941464
vn -0.336704 0.016644 0.941464
vn -0.336704 0.016644 0.941464
vn 0.544741 0.011619 0.838524
vn 0.544741 0.011619 0.838524
vn 0.544741 0.011619 0.838524
vn 0.544741 0.011619 0.838524
vn -0.381959 0.017183 0.924019
vn -0.381959 0.017183 0.924020
vn -0.381960 0.017183 0.924019
vn -0.381959 0.017183 0.924019
vn -0.957963 0.043066 -0.283642
vn -0.957962 0.043066 -0.283645
vn -0.957962 0.043066 -0.283644
vn -0.957962 0.043066 -0.283644
vn 0.444954 -0.018797 -0.895356
vn 0.444765 -0.018792 -0.895450
vn 0.444889 -0.018795 -0.895389
vn 0.444889 -0.018795 -0.895389
vn -0.565232 -0.006790 -0.824904
vn -0.562633 -0.006796 -0.826679
vn -0.563940 -0.006793 -0.825788
vn -0.563940 -0.006793 -0.825788
vn 0.164286 0.005658 -0.986397
vn 0.164486 0.005665 -0.986363
vn 0.163939 0.005646 -0.986454
vn 0.164286 0.005658 -0.986397
vn 0.998619 0.052320 0.004673
vn 0.998619 0.052320 0.004673
vn 0.998619 0.052320 0.004673
vn 0.998619 0.052320 0.004673
vn -0.164154 -0.005659 0.986418
vn -0.164706 -0.005678 0.986326
vn -0.164504 -0.005671 0.986360
vn -0.164504 -0.005671 0.986360
vn 0.565085 0.006791 0.825005
vn 0.563782 0.006795 0.825896
vn 0.566373 0.006788 0.824121
vn 0.565085 0.006791 0.825005
s off
f 3/1/1 5/2/2 8/3/3
f 5/2/4 1/4/5 8/3/6
f 8/3/7 10/5/8 3/1/9
f 1/4/10 5/2/11 6/6/12
f 6/6/13 2/7/14 1/4/15
f 2/7/16 6/6/17 9/8/18
f 4/9/19 7/10/20 9/8/21
f 7/10/22 2/7/23 9/8/24
f 4/9/25 11/11/26 10/5/27
f 11/11/28 3/1/29 10/5/30
f 10/5/31 7/10/32 4/9/33
f 11/11/34 4/9/35 9/8/36
f 9/8/37 6/6/38 11/11/39
f 6/6/40 5/2/41 11/11/42
f 5/2/43 3/1/44 11/11/45
f 1/4/46 12/12/47 8/3/48
f 8/3/49 12/12/50 10/5/51
f 12/12/52 7/10/53 10/5/54
f 12/12/55 2/7/56 7/10/57
f 1/4/58 2/7/59 12/12/60
f 76/13/61 69/14/62 31/15/63 30/16/64
f 34/17/65 72/18/66 73/19/67 35/20/68
f 21/21/69 25/22/70 28/23/71 22/24/72
f 32/25/73 70/26/74 71/27/75 33/28/76
f 36/29/77 74/30/78 75/31/79 29/32/80
f 19/33/81 13/34/82 21/21/83 22/24/84
f 73/19/85 74/30/86 36/29/87 35/20/88
f 29/32/89 75/31/90 76/13/91 30/16/92
f 69/14/93 70/26/94 32/25/95 31/15/96
f 33/28/97 71/27/98 72/18/99 34/17/100
f 25/22/101 14/35/102 20/36/103 28/23/104
f 13/34/105 29/37/106 30/38/107 21/21/108
f 31/39/109 25/22/110 21/21/111 30/38/112
f 32/40/113 14/35/114 25/22/115 31/39/116
f 14/35/117 32/40/118 33/41/119 20/36/120
f 28/23/121 20/36/122 33/41/123 34/42/124
f 22/24/125 28/23/126 34/42/127 35/43/128
f 36/44/129 19/33/130 22/24/131 35/43/132
f 19/33/133 36/44/134 29/37/135 13/34/136
f 45/45/137 37/46/138 38/47/139 46/48/140
f 39/49/141 47/50/142 46/48/143 38/47/144
f 40/51/145 48/52/146 47/50/147 39/49/148
f 41/53/149 49/54/150 48/52/151 40/51/152
f 49/54/153 41/53/154 42/55/155 50/56/156
f 50/56/157 42/55/158 43/57/159 51/58/160
f 44/59/161 52/60/162 51/58/163 43/57/164
f 37/46/165 45/45/166 52/60/167 44/59/168
f 17/61/169 53/62/170 54/63/171 23/64/172
f 47/65/173 62/66/174 61/67/175 46/68/176
f 48/69/177 63/70/178 62/66/179 47/65/180
f 49/71/181 64/72/182 63/70/183 48/69/184
f 26/73/185 16/74/186 57/75/187 58/76/188
f 24/77/189 26/73/190 58/76/191 59/78/192
f 52/79/193 67/80/194 66/81/195 51/82/196
f 45/83/197 68/84/198 67/80/199 52/79/200
f 54/63/201 53/62/202 68/84/203 61/67/204
f 54/63/205 55/85/206 27/86/207 23/64/208
f 55/85/209 56/87/210 18/88/211 27/86/212
f 56/87/213 57/75/214 16/74/215 18/88/216
f 58/76/217 57/75/218 64/72/219 65/89/220
f 59/78/221 58/76/222 65/89/223 66/81/224
f 59/78/225 60/90/226 15/91/227 24/77/228
f 60/90/229 53/62/230 17/61/231 15/91/232
f 61/67/233 62/66/234 55/85/235 54/63/236
f 62/66/237 63/70/238 56/87/239 55/85/240
f 63/70/241 64/72/242 57/75/243 56/87/244
f 66/81/245 67/80/246 60/90/247 59/78/248
f 67/80/249 68/84/250 53/62/251 60/90/252
f 61/67/253 68/84/254 45/83/255 46/68/256
f 65/89/257 64/72/258 49/71/259 50/92/260
f 66/81/261 65/89/262 50/92/263 51/82/264
f 41/93/265 70/94/266 69/95/267 42/96/268
f 71/97/269 70/94/270 41/93/271 40/98/272
f 72/99/273 71/100/274 40/101/275 39/102/276
f 73/103/277 72/99/278 39/102/279 38/104/280
f 37/105/281 74/106/282 73/103/283 38/104/284
f 75/107/285 74/106/286 37/105/287 44/108/288
f 76/109/289 75/107/290 44/108/291 43/110/292
f 42/96/293 69/95/294 76/109/295 43/110/296
