# This file uses centimeters as units for non-parametric coordinates.

v -14.812282 45.952080 -1.197021
v -26.467911 45.952080 -1.197021
v -26.467911 43.724697 -1.197021
v -22.810841 43.063984 -1.197021
v -21.247431 41.419815 -1.197021
v -20.640095 37.014767 -1.197021
v -20.640095 8.835696 -1.197021
v -21.308352 3.887918 -1.197021
v -25.011423 2.125762 -1.197021
v -26.467911 2.125762 -1.197021
v -26.467911 0.000000 -1.197021
v -12.141123 0.000000 -1.197021
v -12.141123 2.125762 -1.197021
v -13.598231 2.125762 -1.197021
v -17.149624 3.549229 -1.197021
v -17.968937 8.835696 -1.197021
v -17.968937 37.692146 -1.197021
v -2.064442 0.000000 -1.197021
v -1.062370 0.000000 -1.197021
v 14.812283 37.692146 -1.197021
v 14.812283 8.835696 -1.197021
v 14.144648 3.887918 -1.197021
v 10.441580 2.125762 -1.197021
v 8.984468 2.125762 -1.197021
v 8.984468 0.000000 -1.197021
v 26.467911 0.000000 -1.197021
v 26.467911 2.125762 -1.197021
v 25.041264 2.125762 -1.197021
v 21.489872 3.549229 -1.197021
v 20.640099 8.835696 -1.197021
v 20.640099 37.014767 -1.197021
v 21.307735 41.962551 -1.197021
v 25.041264 43.724697 -1.197021
v 26.467911 43.724697 -1.197021
v 26.467911 45.952080 -1.197021
v 14.812283 45.952080 -1.197021
v 0.121220 9.996884 -1.197021
v -14.812282 45.952080 1.197021
v -26.467911 45.952080 1.197021
v -26.467911 43.724697 1.197021
v -22.810841 43.063984 1.197021
v -21.247431 41.419815 1.197021
v -20.640095 37.014767 1.197021
v -20.640095 8.835696 1.197021
v -21.308352 3.887918 1.197021
v -25.011423 2.125762 1.197021
v -26.467911 2.125762 1.197021
v -26.467911 0.000000 1.197021
v -12.141123 0.000000 1.197021
v -12.141123 2.125762 1.197021
v -13.598231 2.125762 1.197021
v -17.149624 3.549229 1.197021
v -17.968937 8.835696 1.197021
v -17.968937 37.692146 1.197021
v -2.064442 0.000000 1.197021
v -1.062370 0.000000 1.197021
v 14.812283 37.692146 1.197021
v 14.812283 8.835696 1.197021
v 14.144648 3.887918 1.197021
v 10.441580 2.125762 1.197021
v 8.984468 2.125762 1.197021
v 8.984468 0.000000 1.197021
v 26.467911 0.000000 1.197021
v 26.467911 2.125762 1.197021
v 25.041264 2.125762 1.197021
v 21.489872 3.549229 1.197021
v 20.640099 8.835696 1.197021
v 20.640099 37.014767 1.197021
v 21.307735 41.962551 1.197021
v 25.041264 43.724697 1.197021
v 26.467911 43.724697 1.197021
v 26.467911 45.952080 1.197021
v 14.812283 45.952080 1.197021
v 0.121220 9.996884 1.197021
vt 0.282667 0.228583
vt 0.282454 0.228587
vt 0.282459 0.228626
vt 0.282485 0.228625
vt 0.282557 0.228654
vt 0.282571 0.229301
vt 0.282547 0.229301
vt 0.282551 0.229334
vt 0.282849 0.229325
vt 0.282629 0.229277
vt 0.282821 0.229293
vt 0.282845 0.229292
vt 0.282754 0.229268
vt 0.282634 0.229195
vt 0.282735 0.229192
vt 0.282579 0.228738
vt 0.282682 0.228724
vt 0.283228 0.229281
vt 0.283203 0.229281
vt 0.283206 0.229314
vt 0.283446 0.229306
vt 0.283286 0.229257
vt 0.283420 0.229275
vt 0.283444 0.229274
vt 0.283356 0.229250
vt 0.283295 0.229176
vt 0.283341 0.229174
vt 0.283267 0.228711
vt 0.283315 0.228721
vt 0.283321 0.228646
vt 0.283202 0.228572
vt 0.283412 0.228605
vt 0.283410 0.228567
vt 0.283348 0.228618
vt 0.282985 0.229166
vt 0.283036 0.229319
vt 0.283019 0.229319
vt 0.283409 0.228580
vt 0.283199 0.247588
vt 0.283411 0.228618
vt 0.283346 0.247634
vt 0.283319 0.247663
vt 0.283313 0.247738
vt 0.283339 0.248194
vt 0.283355 0.248270
vt 0.283419 0.248295
vt 0.283443 0.229291
vt 0.283445 0.229323
vt 0.283203 0.248334
vt 0.283201 0.229298
vt 0.283226 0.248301
vt 0.283284 0.248278
vt 0.283293 0.248195
vt 0.283265 0.247728
vt 0.283032 0.248340
vt 0.283015 0.229337
vt 0.282676 0.247741
vt 0.282729 0.248212
vt 0.282749 0.248289
vt 0.282815 0.248314
vt 0.282840 0.229309
vt 0.282844 0.229342
vt 0.282544 0.248355
vt 0.282539 0.229319
vt 0.282564 0.248321
vt 0.282623 0.248298
vt 0.282627 0.248215
vt 0.282572 0.247755
vt 0.282549 0.247671
vt 0.282477 0.247642
vt 0.282451 0.228639
vt 0.282446 0.247604
vt 0.282660 0.247599
vt 0.282981 0.248186
vt 0.283199 0.228584
vt 0.282981 0.229183
vt 0.282660 0.228596
vt 0.282446 0.228600
vt 0.282451 0.247643
vt 0.282477 0.228638
vt 0.282549 0.228667
vt 0.282572 0.228752
vt 0.282627 0.229211
vt 0.282623 0.229294
vt 0.282564 0.229318
vt 0.282539 0.248322
vt 0.282544 0.229351
vt 0.282844 0.248346
vt 0.282840 0.248313
vt 0.282815 0.229310
vt 0.282749 0.229285
vt 0.282729 0.229208
vt 0.282676 0.228738
vt 0.283015 0.248340
vt 0.283032 0.229336
vt 0.283265 0.228724
vt 0.283293 0.229192
vt 0.283284 0.229274
vt 0.283226 0.229298
vt 0.283201 0.248302
vt 0.283203 0.229331
vt 0.283445 0.248327
vt 0.283443 0.248294
vt 0.283419 0.229292
vt 0.283355 0.229267
vt 0.283339 0.229191
vt 0.283313 0.228734
vt 0.283319 0.228659
vt 0.283346 0.228631
vt 0.283411 0.247622
vt 0.283409 0.247583
vn 0.000000 0.000000 -1.000000
vn 0.000000 0.000000 -1.000000
vn 0.000000 0.000000 -1.000000
vn 0.000000 0.000000 -1.000000
vn 0.000000 0.000000 -1.000000
vn 0.000000 0.000000 -1.000000
vn 0.000000 0.000000 -1.000000
vn 0.000000 0.000000 -1.000000
vn 0.000000 0.000000 -1.000000
vn 0.000000 0.000000 -1.000000
vn 0.000000 0.000000 -1.000000
vn 0.000000 0.000000 -1.000000
vn 0.000000 0.000000 -1.000000
vn 0.000000 0.000000 -1.000000
vn 0.000000 0.000000 -1.000000
vn 0.000000 0.000000 -1.000000
vn 0.000000 0.000000 -1.000000
vn 0.000000 0.000000 -1.000000
vn 0.000000 0.000000 -1.000000
vn 0.000000 0.000000 -1.000000
vn 0.000000 0.000000 -1.000000
vn 0.000000 0.000000 -1.000000
vn 0.000000 0.000000 -1.000000
vn 0.000000 0.000000 -1.000000
vn 0.000000 0.000000 -1.000000
vn 0.000000 0.000000 -1.000000
vn 0.000000 0.000000 -1.000000
vn 0.000000 0.000000 -1.000000
vn 0.000000 0.000000 -1.000000
vn 0.000000 0.000000 -1.000000
vn 0.000000 0.000000 -1.000000
vn 0.000000 0.000000 -1.000000
vn 0.000000 0.000000 -1.000000
vn 0.000000 0.000000 -1.000000
vn 0.000000 0.000000 -1.000000
vn 0.000000 0.000000 -1.000000
vn 0.000000 0.000000 -1.000000
vn 0.000000 0.000000 -1.000000
vn 0.000000 0.000000 -1.000000
vn 0.000000 0.000000 -1.000000
vn 0.000000 0.000000 -1.000000
vn 0.000000 0.000000 -1.000000
vn 0.000000 0.000000 -1.000000
vn 0.000000 0.000000 -1.000000
vn 0.000000 0.000000 -1.000000
vn 0.000000 0.000000 -1.000000
vn 0.000000 0.000000 -1.000000
vn -0.000000 0.000000 -1.000000
vn -0.000000 0.000000 -1.000000
vn -0.000000 0.000000 -1.000000
vn -0.000000 0.000000 -1.000000
vn 0.000000 0.000000 -1.000000
vn 0.000000 0.000000 -1.000000
vn 0.000000 0.000000 -1.000000
vn 0.000000 0.000000 -1.000000
vn -0.000000 0.000000 -1.000000
vn -0.000000 0.000000 -1.000000
vn -0.000000 0.000000 -1.000000
vn -0.000000 0.000000 -1.000000
vn 0.000000 0.000000 -1.000000
vn 0.000000 0.000000 -1.000000
vn 0.000000 0.000000 -1.000000
vn 0.000000 0.000000 -1.000000
vn 0.000000 0.000000 -1.000000
vn 0.000000 0.000000 -1.000000
vn 0.000000 0.000000 -1.000000
vn -0.000000 0.000000 -1.000000
vn -0.000000 0.000000 -1.000000
vn -0.000000 0.000000 -1.000000
vn -0.000000 0.000000 -1.000000
vn -0.000000 0.000000 -1.000000
vn -0.000000 0.000000 -1.000000
vn -0.000000 0.000000 -1.000000
vn -0.000000 0.000000 -1.000000
vn -0.000000 0.000000 -1.000000
vn -0.000000 0.000000 -1.000000
vn -0.000000 0.000000 -1.000000
vn 0.000000 1.000000 0.000000
vn 0.000000 1.000000 0.000000
vn 0.000000 1.000000 0.000000
vn 0.000000 1.000000 0.000000
vn -1.000000 0.000000 0.000000
vn -1.000000 0.000000 0.000000
vn -1.000000 0.000000 0.000000
vn -1.000000 0.000000 0.000000
vn -0.177790 -0.984069 0.000000
vn -0.177790 -0.984069 0.000000
vn -0.177790 -0.984069 0.000000
vn -0.177790 -0.984069 0.000000
vn -0.724680 -0.689085 0.000000
vn -0.724680 -0.689085 0.000000
vn -0.724680 -0.689085 0.000000
vn -0.724680 -0.689085 0.000000
vn -0.990629 -0.136581 0.000000
vn -0.990629 -0.136581 0.000000
vn -0.990629 -0.136581 0.000000
vn -0.990629 -0.136581 0.000000
vn -1.000000 0.000000 0.000000
vn -1.000000 0.000000 0.000000
vn -1.000000 0.000000 0.000000
vn -1.000000 0.000000 0.000000
vn -0.991002 0.133847 0.000000
vn -0.991002 0.133847 0.000000
vn -0.991002 0.133847 0.000000
vn -0.991002 0.133847 0.000000
vn -0.429693 0.902975 0.000000
vn -0.429693 0.902975 0.000000
vn -0.429693 0.902975 0.000000
vn -0.429693 0.902975 0.000000
vn 0.000000 1.000000 0.000000
vn 0.000000 1.000000 0.000000
vn 0.000000 1.000000 0.000000
vn 0.000000 1.000000 0.000000
vn -1.000000 0.000000 0.000000
vn -1.000000 0.000000 0.000000
vn -1.000000 0.000000 0.000000
vn -1.000000 0.000000 0.000000
vn 0.000000 -1.000000 0.000000
vn 0.000000 -1.000000 0.000000
vn 0.000000 -1.000000 0.000000
vn 0.000000 -1.000000 0.000000
vn 1.000000 0.000000 0.000000
vn 1.000000 0.000000 0.000000
vn 1.000000 0.000000 0.000000
vn 1.000000 0.000000 0.000000
vn 0.000000 1.000000 0.000000
vn 0.000000 1.000000 0.000000
vn 0.000000 1.000000 0.000000
vn 0.000000 1.000000 0.000000
vn 0.372046 0.928214 0.000000
vn 0.372046 0.928214 0.000000
vn 0.372046 0.928214 0.000000
vn 0.372046 0.928214 0.000000
vn 0.988202 0.153155 0.000000
vn 0.988202 0.153155 0.000000
vn 0.988202 0.153155 0.000000
vn 0.988202 0.153155 0.000000
vn 1.000000 0.000000 0.000000
vn 1.000000 0.000000 0.000000
vn 1.000000 0.000000 0.000000
vn 1.000000 0.000000 0.000000
vn -0.921337 -0.388765 0.000000
vn -0.921337 -0.388765 0.000000
vn -0.921337 -0.388765 0.000000
vn -0.921337 -0.388765 0.000000
vn 0.000000 -1.000000 0.000000
vn 0.000000 -1.000000 0.000000
vn 0.000000 -1.000000 0.000000
vn 0.000000 -1.000000 0.000000
vn 0.921598 -0.388146 0.000000
vn 0.921598 -0.388146 0.000000
vn 0.921598 -0.388146 0.000000
vn 0.921598 -0.388146 0.000000
vn -1.000000 0.000000 0.000000
vn -1.000000 0.000000 0.000000
vn -1.000000 0.000000 0.000000
vn -1.000000 0.000000 0.000000
vn -0.991019 0.133724 0.000000
vn -0.991019 0.133724 0.000000
vn -0.991019 0.133724 0.000000
vn -0.991019 0.133724 0.000000
vn -0.429693 0.902975 0.000000
vn -0.429693 0.902975 0.000000
vn -0.429693 0.902975 0.000000
vn -0.429693 0.902975 0.000000
vn 0.000000 1.000000 0.000000
vn 0.000000 1.000000 0.000000
vn 0.000000 1.000000 0.000000
vn 0.000000 1.000000 0.000000
vn -1.000000 0.000000 0.000000
vn -1.000000 0.000000 0.000000
vn -1.000000 0.000000 0.000000
vn -1.000000 0.000000 0.000000
vn 0.000000 -1.000000 0.000000
vn 0.000000 -1.000000 0.000000
vn 0.000000 -1.000000 0.000000
vn 0.000000 -1.000000 0.000000
vn 1.000000 0.000000 0.000000
vn 1.000000 0.000000 0.000000
vn 1.000000 0.000000 0.000000
vn 1.000000 0.000000 0.000000
vn 0.000000 1.000000 0.000000
vn 0.000000 1.000000 0.000000
vn 0.000000 1.000000 0.000000
vn 0.000000 1.000000 0.000000
vn 0.372046 0.928214 0.000000
vn 0.372046 0.928214 0.000000
vn 0.372046 0.928214 0.000000
vn 0.372046 0.928214 0.000000
vn 0.987326 0.158708 0.000000
vn 0.987326 0.158708 0.000000
vn 0.987326 0.158708 0.000000
vn 0.987326 0.158708 0.000000
vn 1.000000 0.000000 0.000000
vn 1.000000 0.000000 0.000000
vn 1.000000 0.000000 0.000000
vn 1.000000 0.000000 0.000000
vn 0.991019 -0.133725 0.000000
vn 0.991019 -0.133725 0.000000
vn 0.991019 -0.133725 0.000000
vn 0.991019 -0.133725 0.000000
vn 0.426827 -0.904334 0.000000
vn 0.426827 -0.904334 0.000000
vn 0.426827 -0.904334 0.000000
vn 0.426827 -0.904334 0.000000
vn 0.000000 -1.000000 0.000000
vn 0.000000 -1.000000 0.000000
vn 0.000000 -1.000000 0.000000
vn 0.000000 -1.000000 0.000000
vn 1.000000 0.000000 0.000000
vn 1.000000 0.000000 0.000000
vn 1.000000 0.000000 0.000000
vn 1.000000 0.000000 0.000000
vn 0.000000 1.000000 0.000000
vn 0.000000 1.000000 0.000000
vn 0.000000 1.000000 0.000000
vn 0.000000 1.000000 0.000000
vn -0.925708 0.378238 0.000000
vn -0.925708 0.378238 0.000000
vn -0.925708 0.378238 0.000000
vn -0.925708 0.378238 0.000000
vn 0.923513 0.383568 0.000000
vn 0.923513 0.383568 0.000000
vn 0.923513 0.383568 0.000000
vn 0.923513 0.383568 0.000000
vn -0.000000 0.000000 1.000000
vn -0.000000 0.000000 1.000000
vn -0.000000 0.000000 1.000000
vn -0.000000 0.000000 1.000000
vn 0.000000 0.000000 1.000000
vn 0.000000 0.000000 1.000000
vn 0.000000 0.000000 1.000000
vn 0.000000 0.000000 1.000000
vn 0.000000 0.000000 1.000000
vn 0.000000 0.000000 1.000000
vn 0.000000 0.000000 1.000000
vn -0.000000 0.000000 1.000000
vn -0.000000 0.000000 1.000000
vn -0.000000 0.000000 1.000000
vn -0.000000 0.000000 1.000000
vn 0.000000 0.000000 1.000000
vn 0.000000 0.000000 1.000000
vn 0.000000 0.000000 1.000000
vn 0.000000 0.000000 1.000000
vn 0.000000 0.000000 1.000000
vn 0.000000 0.000000 1.000000
vn 0.000000 0.000000 1.000000
vn 0.000000 0.000000 1.000000
vn 0.000000 0.000000 1.000000
vn 0.000000 0.000000 1.000000
vn -0.000000 0.000000 1.000000
vn -0.000000 0.000000 1.000000
vn -0.000000 0.000000 1.000000
vn -0.000000 0.000000 1.000000
vn 0.000000 0.000000 1.000000
vn 0.000000 0.000000 1.000000
vn 0.000000 0.000000 1.000000
vn 0.000000 0.000000 1.000000
vn 0.000000 0.000000 1.000000
vn 0.000000 0.000000 1.000000
vn 0.000000 0.000000 1.000000
vn 0.000000 0.000000 1.000000
vn -0.000000 0.000000 1.000000
vn -0.000000 0.000000 1.000000
vn -0.000000 0.000000 1.000000
vn -0.000000 0.000000 1.000000
vn -0.000000 0.000000 1.000000
vn -0.000000 0.000000 1.000000
vn -0.000000 0.000000 1.000000
vn 0.000000 0.000000 1.000000
vn 0.000000 0.000000 1.000000
vn 0.000000 0.000000 1.000000
vn 0.000000 0.000000 1.000000
vn -0.000000 0.000000 1.000000
vn -0.000000 0.000000 1.000000
vn -0.000000 0.000000 1.000000
vn -0.000000 0.000000 1.000000
vn 0.000000 0.000000 1.000000
vn 0.000000 0.000000 1.000000
vn 0.000000 0.000000 1.000000
vn 0.000000 0.000000 1.000000
vn 0.000000 0.000000 1.000000
vn 0.000000 0.000000 1.000000
vn 0.000000 0.000000 1.000000
vn 0.000000 0.000000 1.000000
vn 0.000000 0.000000 1.000000
vn 0.000000 0.000000 1.000000
vn 0.000000 0.000000 1.000000
vn 0.000000 0.000000 1.000000
vn 0.000000 0.000000 1.000000
vn 0.000000 0.000000 1.000000
vn 0.000000 0.000000 1.000000
vn 0.000000 0.000000 1.000000
vn 0.000000 0.000000 1.000000
vn 0.000000 0.000000 1.000000
vn 0.000000 0.000000 1.000000
vn 0.000000 0.000000 1.000000
vn 0.000000 0.000000 1.000000
vn 0.000000 0.000000 1.000000
vn 0.000000 0.000000 1.000000
vn 0.000000 0.000000 1.000000
vn 0.000000 0.000000 1.000000
s off
f 36/1/1 35/2/2 34/3/3 33/4/4
f 33/4/5 32/5/6 36/1/7
f 28/6/8 27/7/9 26/8/10 25/9/11
f 29/10/12 28/6/13 25/9/14 23/11/15
f 24/12/16 23/11/17 25/9/18
f 23/11/19 22/13/20 29/10/21
f 30/14/22 29/10/23 22/13/24 21/15/25
f 31/16/26 30/14/27 21/15/28 20/17/29
f 14/18/30 13/19/31 12/20/32 11/21/33
f 15/22/34 14/18/35 11/21/36 9/23/37
f 10/24/38 9/23/39 11/21/40
f 9/23/41 8/25/42 15/22/43
f 16/26/44 15/22/45 8/25/46 7/27/47
f 17/28/48 16/26/49 7/27/50 6/29/51
f 17/28/52 6/29/53 5/30/54 1/31/55
f 3/32/56 2/33/57 1/31/58 4/34/59
f 4/34/60 1/31/61 5/30/62
f 17/28/63 1/31/64 37/35/65 18/36/66
f 19/37/67 18/36/68 37/35/69 20/17/70
f 37/35/71 36/1/72 20/17/73
f 20/17/74 36/1/75 32/5/76 31/16/77
f 1/31/78 2/33/79 39/38/80 38/75/81
f 2/33/82 3/32/83 40/40/84 39/38/85
f 3/32/86 4/34/87 41/109/88 40/40/89
f 4/34/90 5/30/91 42/108/92 41/109/93
f 5/30/94 6/29/95 43/107/96 42/108/97
f 6/29/98 7/27/99 44/106/100 43/107/101
f 7/27/102 8/25/103 45/105/104 44/106/105
f 8/25/106 9/23/107 46/104/108 45/105/109
f 9/23/110 10/24/111 47/47/112 46/104/113
f 10/24/114 11/21/115 48/48/116 47/47/117
f 11/21/118 12/20/119 49/101/120 48/48/121
f 12/20/122 13/19/123 50/50/124 49/101/125
f 13/19/126 14/18/127 51/99/128 50/50/129
f 14/18/130 15/22/131 52/98/132 51/99/133
f 15/22/134 16/26/135 53/97/136 52/98/137
f 16/26/138 17/28/139 54/96/140 53/97/141
f 17/28/142 18/36/143 55/95/144 54/96/145
f 18/36/146 19/37/147 56/56/148 55/95/149
f 19/37/150 20/17/151 57/93/152 56/56/153
f 20/17/154 21/15/155 58/92/156 57/93/157
f 21/15/158 22/13/159 59/91/160 58/92/161
f 22/13/162 23/11/163 60/90/164 59/91/165
f 23/11/166 24/12/167 61/61/168 60/90/169
f 24/12/170 25/9/171 62/62/172 61/61/173
f 25/9/174 26/8/175 63/87/176 62/62/177
f 26/8/178 27/7/179 64/64/180 63/87/181
f 27/7/182 28/6/183 65/85/184 64/64/185
f 28/6/186 29/10/187 66/84/188 65/85/189
f 29/10/190 30/14/191 67/83/192 66/84/193
f 30/14/194 31/16/195 68/82/196 67/83/197
f 31/16/198 32/5/199 69/81/200 68/82/201
f 32/5/202 33/4/203 70/80/204 69/81/205
f 33/4/206 34/3/207 71/71/208 70/80/209
f 34/3/210 35/2/211 72/78/212 71/71/213
f 35/2/214 36/1/215 73/77/216 72/78/217
f 36/1/218 37/35/219 74/76/220 73/77/221
f 37/35/222 1/31/223 38/75/224 74/76/225
f 38/39/226 39/111/227 40/110/228 41/41/229
f 41/41/230 42/42/231 38/39/232
f 46/46/233 47/103/234 48/102/235 49/49/236
f 45/45/237 46/46/238 49/49/239 51/51/240
f 50/100/241 51/51/242 49/49/243
f 51/51/244 52/52/245 45/45/246
f 45/45/247 52/52/248 53/53/249 44/44/250
f 43/43/251 44/44/252 53/53/253 54/54/254
f 42/42/255 43/43/256 54/54/257 38/39/258
f 74/74/259 38/39/260 54/54/261 55/55/262
f 74/74/263 55/55/264 56/94/265 57/57/266
f 74/74/267 57/57/268 73/73/269
f 60/60/270 61/89/271 62/88/272 63/63/273
f 59/59/274 60/60/275 63/63/276 65/65/277
f 64/86/278 65/65/279 63/63/280
f 65/65/281 66/66/282 59/59/283
f 59/59/284 66/66/285 67/67/286 58/58/287
f 57/57/288 58/58/289 67/67/290 68/68/291
f 71/79/292 72/72/293 70/70/294
f 70/70/295 72/72/296 73/73/297 69/69/298
f 69/69/299 73/73/300 57/57/301 68/68/302
