# This file uses centimeters as units for non-parametric coordinates.

v -20.356884 0.000000 11.598316
v -18.617504 0.000000 13.213408
v 20.330681 0.000000 11.607601
v 18.611320 0.000000 13.204123
v -20.500576 0.000000 -11.590868
v -18.473824 0.000000 -13.472781
v 20.383209 0.000000 -11.684796
v 18.558800 0.000000 -13.378853
v -22.227303 1.387046 13.094679
v -19.967953 1.387046 15.311700
v 19.926605 1.387046 15.336405
v 22.236267 1.387046 13.069975
v 22.290764 1.387046 -13.142484
v 19.872101 1.387046 -15.515821
v -19.751740 1.387046 -15.649835
v -22.443516 1.387046 -13.008471
v -21.486698 14.481897 18.671040
v -27.043961 14.206336 12.597006
v 21.854881 14.481897 18.148224
v 26.868927 14.739664 13.610365
v 27.043961 15.340954 -12.232796
v 21.824699 14.481897 -18.273647
v -21.925819 14.407663 -18.273647
v -27.043961 14.481897 -12.574425
v -19.997643 14.390799 16.181755
v -24.984650 14.106228 11.739497
v 20.911758 14.390799 16.181755
v 24.984650 14.390799 12.297079
v 24.984650 15.249855 -11.378368
v 20.881828 14.390799 -16.306118
v -20.982098 14.320405 -16.306118
v -24.984650 14.390799 -11.717107
v -19.885735 11.432827 15.878191
v -24.677620 10.983177 12.148248
v 21.346199 11.432827 16.715858
v 25.466835 11.432827 12.762795
v 25.518364 12.291895 -12.244508
v 21.220268 11.432837 -16.958265
v -21.404991 11.432837 -16.990683
v -25.365993 11.432827 -12.340334
v -20.250191 6.168707 13.721273
v -21.644180 6.168707 12.368718
v 20.239601 6.168707 13.721273
v 21.633583 6.168707 12.368718
v 21.633583 6.168707 -12.492250
v 20.239601 6.168707 -13.844807
v -20.250191 6.168707 -13.844807
v -21.644180 6.168707 -12.492250
v -20.421906 11.414518 18.915932
v -26.624180 11.122488 12.331237
v -26.624180 11.414518 -12.310792
v -20.455128 11.347302 -19.029495
v 20.363564 11.414518 -19.029495
v 26.624176 12.273577 -12.001474
v 26.624176 11.647904 12.840390
v 21.046318 11.414518 18.915932
v -21.823906 12.932960 20.487614
v -28.396328 12.648390 13.449268
v -28.396332 12.932960 -13.427856
v -21.858704 12.862566 -20.606550
v 21.762810 12.932960 -20.606550
v 28.396324 13.792016 -13.103902
v 28.396332 13.177390 13.982514
v 22.797585 12.932960 20.487614
v -19.947399 12.306136 16.351723
v 20.861504 12.306136 16.351723
v 24.930946 12.306136 12.450364
v 24.930946 13.165194 -11.531655
v 20.831589 12.306136 -16.476086
v -20.931854 12.235743 -16.476086
v -24.930946 12.306136 -11.870395
v -24.930946 11.856485 11.892781
v 3.844894 0.000000 13.500265
v -6.057991 0.000000 -13.721790
v 4.560616 1.387046 15.748333
v -7.106834 1.387046 -15.933544
v 3.284935 13.822962 18.943226
v -7.487328 13.927428 -18.943224
v 3.109680 13.748815 16.970034
v -6.777298 13.847878 -16.970030
v 3.319580 11.101549 17.570955
v -6.378036 11.101547 -17.887482
v 4.159370 6.168707 14.025520
v -6.982986 6.168707 -14.136285
v -7.210426 10.881158 -19.635744
v 3.284363 10.786571 19.635746
v -7.807426 12.390038 -21.241486
v 3.507690 12.290976 21.241486
v 3.223419 11.664152 17.140003
v -6.535034 11.763216 -17.139999
vt 0.536867 0.008436
vt 0.538401 0.006967
vt 0.582945 0.006967
vt 0.584479 0.008436
vt 0.584479 0.035439
vt 0.582945 0.036908
vt 0.538401 0.036908
vt 0.536867 0.035439
vt 0.538304 0.012504
vt 0.582595 0.012504
vt 0.538304 0.012504
vt 0.582595 0.012504
vt 0.541094 0.007233
vt 0.579805 0.007233
vt 0.541094 0.007233
vt 0.579805 0.007233
vt 0.582317 0.143282
vt 0.525689 0.012504
vt 0.595210 0.012504
vt 0.538582 0.143282
vt 0.582317 0.143282
vt 0.601327 0.012504
vt 0.519572 0.012504
vt 0.538583 0.143282
vt 0.581251 0.146974
vt 0.525689 0.012504
vt 0.595210 0.012504
vt 0.539649 0.146974
vt 0.581251 0.146974
vt 0.601327 0.012504
vt 0.519572 0.012504
vt 0.581251 0.146974
vt 0.534893 0.035115
vt 0.538750 0.038617
vt 0.582596 0.038617
vt 0.586453 0.035115
vt 0.586453 0.008760
vt 0.582596 0.005257
vt 0.538750 0.005257
vt 0.534893 0.008760
vt 0.522694 0.007233
vt 0.528343 0.007233
vt 0.592556 0.007233
vt 0.598206 0.007233
vt 0.522694 0.007233
vt 0.528343 0.007233
vt 0.592556 0.007233
vt 0.598205 0.007233
vt 0.526612 0.143282
vt 0.522851 0.143282
vt 0.594288 0.143282
vt 0.598048 0.143282
vt 0.526612 0.143282
vt 0.522851 0.143282
vt 0.594288 0.143282
vt 0.598048 0.143282
vt 0.527675 0.146974
vt 0.525418 0.146974
vt 0.593224 0.146974
vt 0.595481 0.146974
vt 0.593224 0.146974
vt 0.595481 0.146974
vt 0.527675 0.146974
vt 0.595481 0.146974
vt 0.525855 0.129414
vt 0.523473 0.037970
vt 0.595044 0.129414
vt 0.597426 0.129414
vt 0.595044 0.129414
vt 0.597426 0.037970
vt 0.525855 0.129414
vt 0.523473 0.129414
vt 0.527831 0.020481
vt 0.525585 0.020481
vt 0.593068 0.020481
vt 0.595314 0.020481
vt 0.593068 0.020481
vt 0.595314 0.020481
vt 0.527831 0.020481
vt 0.525585 0.020481
vt 0.582664 0.129446
vt 0.538235 0.037995
vt 0.538235 0.129446
vt 0.582664 0.037995
vt 0.580280 0.020456
vt 0.540619 0.020456
vt 0.540619 0.020456
vt 0.580280 0.020456
vt 0.525418 0.146974
vt 0.539649 0.146974
vt 0.539649 0.146974
vt 0.525418 0.146974
vt 0.593224 0.146974
vt 0.527675 0.146974
vt 0.525418 0.146974
vt 0.581251 0.146974
vt 0.539649 0.146974
vt 0.595481 0.146974
vt 0.593224 0.146974
vt 0.527675 0.146974
vt 0.524840 0.131001
vt 0.584094 0.131001
vt 0.518574 0.131001
vt 0.536805 0.131001
vt 0.605148 0.032394
vt 0.596059 0.131001
vt 0.524840 0.131001
vt 0.584094 0.131001
vt 0.518574 0.131001
vt 0.536805 0.131001
vt 0.605148 0.032394
vt 0.596059 0.131001
vt 0.524840 0.132897
vt 0.584094 0.132897
vt 0.518574 0.132897
vt 0.536805 0.132897
vt 0.602325 0.132897
vt 0.596059 0.132897
vt 0.524840 0.132897
vt 0.584094 0.132897
vt 0.518574 0.132897
vt 0.536805 0.132897
vt 0.602325 0.132897
vt 0.596059 0.132897
vt 0.526696 0.137533
vt 0.594203 0.137533
vt 0.596527 0.137533
vt 0.538889 0.137551
vt 0.582010 0.137551
vt 0.596527 0.137533
vt 0.594203 0.137533
vt 0.526696 0.137533
vt 0.524372 0.137533
vt 0.582010 0.137551
vt 0.538889 0.137551
vt 0.524372 0.137533
vt 0.596059 0.032394
vt 0.524840 0.032394
vt 0.536805 0.032394
vt 0.602325 0.131001
vt 0.516587 0.032394
vt 0.584094 0.032394
vt 0.524840 0.032394
vt 0.596059 0.032394
vt 0.536805 0.032394
vt 0.602325 0.131001
vt 0.516587 0.032394
vt 0.584094 0.032394
vt 0.538235 0.037995
vt 0.523473 0.129414
vt 0.523473 0.037970
vt 0.582664 0.129446
vt 0.525855 0.037970
vt 0.595044 0.037970
vt 0.582664 0.037995
vt 0.597426 0.129414
vt 0.597426 0.037970
vt 0.538235 0.129446
vt 0.595044 0.037970
vt 0.525855 0.037970
vt 0.570236 0.007233
vt 0.567355 0.005257
vt 0.554585 0.038617
vt 0.569366 0.007233
vt 0.571473 0.012504
vt 0.571343 0.012504
vt 0.568140 0.143282
vt 0.575998 0.143282
vt 0.567235 0.146974
vt 0.567235 0.146974
vt 0.574642 0.146974
vt 0.546257 0.146974
vt 0.567794 0.037970
vt 0.567794 0.129414
vt 0.545696 0.129414
vt 0.545696 0.037970
vt 0.566309 0.006967
vt 0.568703 0.020481
vt 0.550751 0.020481
vt 0.554051 0.036908
vt 0.577235 0.032394
vt 0.577235 0.131001
vt 0.570982 0.032394
vt 0.570982 0.131001
vt 0.577542 0.132897
vt 0.571042 0.132897
vt 0.568224 0.137533
vt 0.546341 0.137533
vn 0.000000 -0.143367 0.989670
vn 0.038658 -0.358231 0.932832
vn 0.038658 -0.358231 0.932832
vn 0.038658 -0.358231 0.932832
vn 0.000000 -0.143367 -0.989670
vn -0.038440 -0.343220 -0.938468
vn -0.038440 -0.343220 -0.938468
vn -0.038440 -0.343220 -0.938468
vn 0.924519 -0.381119 -0.003684
vn 0.924519 -0.381119 -0.003684
vn 0.997090 -0.076235 0.000000
vn 0.997090 -0.076235 0.000000
vn -0.997090 -0.076235 0.000000
vn -0.911208 -0.411917 -0.004882
vn -0.911208 -0.411917 -0.004882
vn 0.000000 1.000000 -0.000000
vn 0.000000 1.000000 -0.000000
vn 0.000000 1.000000 0.000000
vn 0.000000 1.000000 0.000000
vn 0.000000 1.000000 -0.000000
vn 0.000000 1.000000 -0.000000
vn 0.000000 -1.000000 0.000000
vn 0.000000 -1.000000 0.000000
vn 0.000000 -1.000000 0.000000
vn 0.000000 -1.000000 0.000000
vn -0.692961 -0.140699 0.707113
vn -0.690466 -0.266160 0.672618
vn -0.690466 -0.266160 0.672618
vn -0.692961 -0.140699 0.707113
vn 0.692961 -0.140699 0.707113
vn 0.697955 -0.297066 0.651621
vn 0.697955 -0.297066 0.651621
vn 0.692961 -0.140699 0.707113
vn -0.692961 -0.140699 -0.707113
vn -0.702072 -0.260482 -0.662755
vn -0.702072 -0.260482 -0.662755
vn -0.692961 -0.140699 -0.707113
vn 0.692961 -0.140699 -0.707113
vn 0.724065 -0.240385 -0.646487
vn 0.724065 -0.240385 -0.646487
vn 0.692961 -0.140699 -0.707113
vn -0.337705 -0.869154 0.361285
vn -0.337705 -0.869154 0.361285
vn -0.337705 -0.869154 0.361285
vn -0.337705 -0.869154 0.361285
vn 0.000000 -0.822809 0.568317
vn 0.012474 -0.847369 0.530858
vn 0.012474 -0.847369 0.530858
vn 0.000000 -0.822809 0.568317
vn 0.337705 -0.869154 0.361285
vn 0.337705 -0.869154 0.361285
vn 0.337705 -0.869154 0.361285
vn 0.337705 -0.869154 0.361285
vn 0.614611 -0.788830 0.000000
vn 0.614611 -0.788830 0.000000
vn 0.614611 -0.788830 0.000000
vn 0.614611 -0.788830 0.000000
vn 0.337705 -0.869154 -0.361285
vn 0.337705 -0.869154 -0.361285
vn 0.337705 -0.869154 -0.361285
vn 0.337705 -0.869154 -0.361285
vn 0.000000 -0.822810 -0.568317
vn 0.000000 -0.822810 -0.568317
vn -0.011266 -0.847929 -0.529989
vn -0.011266 -0.847929 -0.529989
vn -0.337705 -0.869154 -0.361285
vn -0.337705 -0.869154 -0.361285
vn -0.337705 -0.869154 -0.361285
vn -0.337705 -0.869154 -0.361285
vn -0.614611 -0.788830 -0.000000
vn -0.614611 -0.788830 -0.000000
vn -0.614611 -0.788830 -0.000000
vn -0.614611 -0.788830 -0.000000
vn 0.008504 0.800343 0.599482
vn 0.000000 0.913089 0.407760
vn 0.008504 0.800343 0.599482
vn 0.008504 0.800343 0.599482
vn 0.448823 0.762488 0.466016
vn 0.288329 0.913090 0.288329
vn 0.288329 0.913090 0.288329
vn 0.448823 0.762488 0.466016
vn 0.407759 0.913090 0.000000
vn 0.407759 0.913090 0.000000
vn 0.735194 0.677617 0.017998
vn 0.735194 0.677618 0.017998
vn 0.288329 0.913090 -0.288329
vn 0.288329 0.913090 -0.288329
vn 0.473760 0.720740 -0.506049
vn 0.473760 0.720740 -0.506049
vn -0.519480 0.708188 -0.478133
vn -0.288329 0.913090 -0.288329
vn -0.288329 0.913090 -0.288329
vn -0.519480 0.708188 -0.478133
vn 0.393529 0.830824 -0.393530
vn 0.393529 0.830824 -0.393530
vn 0.393529 0.830824 -0.393530
vn 0.393529 0.830824 -0.393530
vn 0.000000 0.830825 -0.556534
vn 0.027788 0.999198 -0.028819
vn 0.027788 0.999198 -0.028819
vn 0.000000 0.830825 -0.556534
vn -0.393529 0.830825 -0.393530
vn -0.393529 0.830825 -0.393530
vn -0.393529 0.830825 -0.393530
vn -0.393529 0.830825 -0.393530
vn -0.556533 0.830825 0.000000
vn -0.556533 0.830825 0.000000
vn -0.556533 0.830825 0.000000
vn -0.556533 0.830825 0.000000
vn -0.393529 0.830825 0.393529
vn -0.393529 0.830825 0.393529
vn -0.393529 0.830825 0.393529
vn -0.393529 0.830825 0.393529
vn 0.000000 0.830825 0.556534
vn -0.020226 0.998910 0.042060
vn -0.020226 0.998910 0.042060
vn 0.000000 0.830825 0.556534
vn 0.393529 0.830825 0.393529
vn 0.393529 0.830825 0.393529
vn 0.393529 0.830825 0.393529
vn 0.393529 0.830825 0.393529
vn 0.556533 0.830825 0.000000
vn 0.556533 0.830825 0.000000
vn 0.556533 0.830825 0.000000
vn 0.556533 0.830825 0.000000
vn 0.617160 0.206107 -0.759364
vn 0.617160 0.206107 -0.759364
vn 0.682694 -0.270998 -0.678594
vn 0.682694 -0.270998 -0.678594
vn 0.054132 0.035541 -0.997901
vn 0.054132 0.035541 -0.997901
vn 0.054132 0.035541 -0.997901
vn 0.000000 -0.181564 -0.983379
vn -0.571298 -0.564575 -0.595712
vn -0.571298 -0.564575 -0.595712
vn -0.682694 -0.270998 -0.678594
vn -0.682694 -0.270998 -0.678594
vn -0.842960 -0.537614 -0.019741
vn -0.842960 -0.537614 -0.019741
vn -0.974589 -0.223999 0.000000
vn -0.974589 -0.223999 0.000000
vn -0.503628 -0.661584 0.555577
vn -0.503628 -0.661584 0.555577
vn -0.682694 -0.270998 0.678594
vn -0.682694 -0.270998 0.678594
vn -0.012569 -0.627887 0.778203
vn -0.012569 -0.627887 0.778203
vn -0.012569 -0.627887 0.778203
vn 0.000000 -0.181564 0.983379
vn 0.591384 -0.621913 0.513313
vn 0.591383 -0.621913 0.513313
vn 0.682694 -0.270998 0.678594
vn 0.682694 -0.270998 0.678594
vn 0.994704 -0.101517 -0.016083
vn 0.994704 -0.101517 -0.016083
vn 0.974589 -0.223999 0.000000
vn 0.974589 -0.223999 0.000000
vn 0.680309 0.246527 -0.690220
vn 0.680309 0.246527 -0.690220
vn 0.680309 0.246527 -0.690220
vn 0.680309 0.246527 -0.690220
vn 0.000000 0.203818 -0.979009
vn 0.039946 0.489114 -0.871305
vn 0.039946 0.489114 -0.871305
vn 0.000000 0.203818 -0.979009
vn -0.680309 0.246527 -0.690220
vn -0.680309 0.246527 -0.690220
vn -0.680309 0.246527 -0.690220
vn -0.680309 0.246527 -0.690220
vn -0.986358 0.164616 0.000000
vn -0.986358 0.164616 0.000000
vn -0.986358 0.164616 0.000000
vn -0.986358 0.164616 0.000000
vn -0.680309 0.246526 0.690221
vn -0.680309 0.246526 0.690221
vn -0.680309 0.246526 0.690221
vn -0.680309 0.246526 0.690221
vn 0.000000 0.203818 0.979009
vn -0.021820 0.560649 0.827766
vn -0.021820 0.560649 0.827766
vn 0.000000 0.203818 0.979009
vn 0.680309 0.246526 0.690220
vn 0.680309 0.246526 0.690220
vn 0.680309 0.246526 0.690220
vn 0.680309 0.246526 0.690220
vn 0.986358 0.164616 0.000000
vn 0.986358 0.164616 0.000000
vn 0.986358 0.164616 0.000000
vn 0.986358 0.164616 0.000000
vn -0.414555 -0.805820 0.422846
vn -0.414555 -0.805820 0.422846
vn -0.414555 -0.805820 0.422846
vn -0.414555 -0.805820 0.422846
vn -0.651555 -0.758554 -0.008490
vn -0.651554 -0.758554 -0.008490
vn -0.651555 -0.758554 -0.008490
vn -0.651555 -0.758554 -0.008490
vn -0.438610 -0.808177 -0.393028
vn -0.438610 -0.808177 -0.393028
vn -0.438610 -0.808177 -0.393028
vn -0.438610 -0.808177 -0.393028
vn 0.028590 -0.727875 -0.685113
vn 0.028590 -0.727875 -0.685113
vn 0.028590 -0.727875 -0.685113
vn 0.028590 -0.727875 -0.685113
vn 0.487009 -0.805813 -0.336879
vn 0.487009 -0.805813 -0.336879
vn 0.487009 -0.805813 -0.336879
vn 0.487009 -0.805813 -0.336879
vn 0.652027 -0.757979 -0.018104
vn 0.652027 -0.757979 -0.018104
vn 0.652027 -0.757979 -0.018104
vn 0.652027 -0.757979 -0.018104
vn 0.437932 -0.824769 0.357732
vn 0.437932 -0.824769 0.357732
vn 0.437932 -0.824769 0.357732
vn 0.437932 -0.824769 0.357732
vn 0.052040 -0.739479 0.671165
vn 0.052040 -0.739479 0.671165
vn 0.052040 -0.739479 0.671165
vn 0.052040 -0.739479 0.671165
vn -0.288329 0.913090 0.288329
vn -0.540454 0.697765 0.470143
vn -0.540454 0.697765 0.470143
vn -0.288329 0.913090 0.288329
vn -0.754215 0.656590 0.007066
vn -0.754215 0.656590 0.007066
vn -0.407759 0.913090 0.000000
vn -0.407759 0.913090 0.000000
vn 0.000000 0.913089 -0.407760
vn -0.003229 0.832261 -0.554374
vn -0.003229 0.832262 -0.554374
vn -0.003229 0.832261 -0.554374
vn 0.000000 -0.181564 -0.983379
vn 0.031722 -0.079983 -0.996291
vn 0.031722 -0.079983 -0.996291
vn 0.031722 -0.079983 -0.996291
vn -0.682694 -0.270998 -0.678594
vn -0.682694 -0.270998 -0.678594
vn -0.690597 -0.038773 -0.722200
vn -0.690597 -0.038773 -0.722200
vn -0.974589 -0.223999 0.000000
vn -0.974589 -0.223999 0.000000
vn -0.999668 0.025753 0.000928
vn -0.999668 0.025753 0.000928
vn -0.682694 -0.270998 0.678594
vn -0.682694 -0.270998 0.678594
vn -0.766173 -0.030667 0.641902
vn -0.766173 -0.030667 0.641902
vn 0.000000 -0.181564 0.983379
vn -0.022420 -0.082268 0.996358
vn -0.022420 -0.082268 0.996358
vn -0.022420 -0.082268 0.996358
vn 0.682694 -0.270998 0.678594
vn 0.682694 -0.270998 0.678594
vn 0.753719 -0.032102 0.656412
vn 0.753719 -0.032102 0.656412
vn 0.974589 -0.223999 0.000000
vn 0.974589 -0.223999 0.000000
vn 0.999693 0.024772 0.000385
vn 0.999693 0.024772 0.000385
vn 0.682694 -0.270998 -0.678594
vn 0.682694 -0.270998 -0.678594
vn 0.667068 -0.039485 -0.743950
vn 0.667068 -0.039485 -0.743950
vn -0.027052 -0.361769 0.931875
vn -0.027052 -0.361769 0.931875
vn 0.000000 -0.143367 0.989670
vn -0.027052 -0.361769 0.931875
vn 0.020992 -0.346999 -0.937631
vn 0.020992 -0.346999 -0.937631
vn 0.000000 -0.143367 -0.989670
vn 0.020992 -0.346999 -0.937631
vn 0.000000 1.000000 0.000000
vn 0.000000 1.000000 0.000000
vn 0.000000 1.000000 -0.000000
vn 0.000000 1.000000 -0.000000
vn 0.000000 1.000000 -0.000000
vn 0.000000 1.000000 -0.000000
vn 0.000000 -1.000000 0.000000
vn 0.000000 -1.000000 0.000000
vn 0.000000 -1.000000 0.000000
vn 0.000000 -1.000000 0.000000
vn -0.008270 -0.843457 0.537134
vn -0.008270 -0.843457 0.537134
vn 0.000000 -0.822809 0.568317
vn 0.000000 -0.822809 0.568317
vn 0.007923 -0.843262 -0.537444
vn 0.007923 -0.843262 -0.537444
vn 0.000000 -0.822810 -0.568317
vn 0.000000 -0.822810 -0.568317
vn -0.005917 0.832247 0.554373
vn 0.000000 0.913089 0.407760
vn -0.005917 0.832247 0.554373
vn -0.005917 0.832247 0.554373
vn -0.037090 0.998820 -0.031365
vn -0.037090 0.998820 -0.031365
vn 0.000000 0.830825 -0.556534
vn 0.000000 0.830825 -0.556534
vn 0.034525 0.999017 0.027799
vn 0.034525 0.999017 0.027799
vn 0.000000 0.830825 0.556534
vn 0.000000 0.830825 0.556534
vn -0.026646 -0.492469 -0.869922
vn -0.026646 -0.492469 -0.869922
vn -0.026646 -0.492469 -0.869922
vn 0.000000 -0.181564 -0.983379
vn 0.022142 -0.655374 0.754980
vn 0.022142 -0.655374 0.754980
vn 0.022142 -0.655374 0.754980
vn 0.000000 -0.181564 0.983379
vn -0.033829 0.540189 -0.840863
vn -0.033829 0.540189 -0.840863
vn 0.000000 0.203818 -0.979009
vn 0.000000 0.203818 -0.979009
vn 0.041286 0.561309 0.826576
vn 0.041286 0.561309 0.826576
vn 0.000000 0.203818 0.979009
vn 0.000000 0.203818 0.979009
vn -0.055908 -0.741122 -0.669038
vn -0.055908 -0.741122 -0.669038
vn -0.055908 -0.741122 -0.669038
vn -0.055908 -0.741122 -0.669038
vn -0.039402 -0.731206 0.681018
vn -0.039402 -0.731206 0.681018
vn -0.039402 -0.731206 0.681018
vn -0.039402 -0.731206 0.681018
vn 0.002462 0.832397 -0.554175
vn 0.002462 0.832397 -0.554175
vn 0.002462 0.832397 -0.554175
vn 0.000000 0.913089 -0.407760
vn -0.041334 -0.081819 -0.995790
vn -0.041334 -0.081819 -0.995790
vn 0.000000 -0.181564 -0.983379
vn -0.041334 -0.081819 -0.995790
vn 0.043657 -0.078143 0.995986
vn 0.043657 -0.078143 0.995986
vn 0.000000 -0.181564 0.983379
vn 0.043657 -0.078143 0.995986
vn 0.000000 -1.000000 0.000000
vn 0.000000 -1.000000 0.000000
vn 0.000000 -1.000000 0.000000
vn 0.000000 -1.000000 0.000000
vn 0.000000 -1.000000 0.000000
vn 0.000000 -1.000000 0.000000
vn 0.000000 -1.000000 0.000000
vn 0.000000 -1.000000 0.000000
vn -0.922778 -0.385257 0.007643
vn -0.997090 -0.076235 0.000000
vn -0.997090 -0.076235 0.000000
s off
f 11/19/1 56/137/2 86/183/3 75/165/4
f 15/27/5 52/144/6 85/181/7 76/166/8
f 54/142/9 55/139/10 12/9/11 13/10/12
f 9/12/13 50/148/14 51/145/15
f 42/1/16 41/2/17 83/177/18 84/180/19 47/7/20 48/8/21
f 2/39/22 6/34/23 74/163/24 73/162/25
f 10/18/26 49/138/27 50/147/28 9/31/29
f 12/22/30 55/111/31 56/137/32 11/19/33
f 16/30/34 51/105/35 52/144/36 15/27/37
f 14/26/38 53/143/39 54/141/40 13/23/41
f 1/41/42 2/42/43 10/18/44 9/31/45
f 11/19/46 75/165/47 73/161/48 4/43/49
f 4/43/50 3/44/51 12/22/52 11/19/53
f 13/10/54 12/9/55 3/13/56 7/14/57
f 14/26/58 13/23/59 7/45/60 8/46/61
f 6/47/62 15/27/63 76/166/64 74/164/65
f 16/30/66 15/27/67 6/47/68 5/48/69
f 9/12/70 16/11/71 5/15/72 1/16/73
f 77/167/74 17/49/75 57/113/76 88/186/77
f 63/123/78 20/52/79 19/51/80 64/124/81
f 21/17/82 20/20/83 63/122/84 62/120/85
f 22/53/86 21/54/87 62/121/88 61/119/89
f 59/117/90 24/56/91 23/55/92 60/118/93
f 18/50/94 17/49/95 25/100/96 26/89/97
f 17/49/98 77/167/99 79/170/100 25/100/101
f 19/51/102 20/52/103 28/60/104 27/99/105
f 20/20/106 21/17/107 29/25/108 28/97/109
f 21/54/110 22/53/111 30/94/112 29/95/113
f 22/53/114 78/168/115 80/171/116 30/94/117
f 23/55/118 24/56/119 32/64/120 31/93/121
f 24/24/122 18/21/123 26/29/124 32/91/125
f 72/136/126 65/125/127 33/65/128 34/150/129
f 65/125/130 89/187/131 81/174/132 33/65/133
f 66/126/134 67/127/135 36/68/136 35/67/137
f 67/128/138 68/129/139 37/81/140 36/158/141
f 68/130/142 69/131/143 38/69/144 37/156/145
f 69/131/146 90/188/147 82/175/148 38/69/149
f 70/132/150 71/133/151 40/72/152 39/71/153
f 71/134/154 72/135/155 34/83/156 40/152/157
f 34/66/158 33/160/159 41/73/160 42/74/161
f 33/160/162 81/173/163 83/178/164 41/73/165
f 35/159/166 36/157/167 44/76/168 43/75/169
f 36/82/170 37/155/171 45/85/172 44/86/173
f 37/70/174 38/154/175 46/77/176 45/78/177
f 38/154/178 82/176/179 84/179/180 46/77/181
f 39/153/182 40/151/183 48/80/184 47/79/185
f 40/84/186 34/149/187 42/87/188 48/88/189
f 50/103/190 49/101/191 57/113/192 58/115/193
f 58/114/194 59/116/195 51/104/196 50/102/197
f 59/117/198 60/118/199 52/106/200 51/146/201
f 53/107/202 85/182/203 87/185/204 61/119/205
f 61/119/206 62/121/207 54/109/208 53/107/209
f 62/120/210 63/122/211 55/110/212 54/108/213
f 56/112/214 55/140/215 63/123/216 64/124/217
f 64/124/218 88/186/219 86/184/220 56/112/221
f 18/50/222 58/115/223 57/113/224 17/49/225
f 59/116/226 58/114/227 18/21/228 24/24/229
f 22/53/230 61/119/231 87/185/232 78/168/233
f 25/57/234 79/169/235 89/187/236 65/125/237
f 27/59/238 28/98/239 67/127/240 66/126/241
f 28/28/242 29/96/243 68/129/244 67/128/245
f 29/62/246 30/61/247 69/131/248 68/130/249
f 30/61/250 80/172/251 90/188/252 69/131/253
f 31/63/254 32/92/255 71/133/256 70/132/257
f 32/32/258 26/90/259 72/135/260 71/134/261
f 26/58/262 25/57/263 65/125/264 72/136/265
f 86/183/266 49/138/267 10/18/268 75/165/269
f 85/181/270 53/143/271 14/26/272 76/166/273
f 84/180/274 83/177/275 43/3/276 44/4/277 45/5/278 46/6/279
f 4/38/280 8/35/281 7/36/282 3/37/283
f 73/161/284 75/165/285 10/18/286 2/42/287
f 74/164/288 76/166/289 14/26/290 8/46/291
f 64/124/292 19/51/293 77/167/294 88/186/295
f 79/170/296 77/167/297 19/51/298 27/99/299
f 80/171/300 78/168/301 23/55/302 31/93/303
f 81/174/304 89/187/305 66/126/306 35/67/307
f 82/175/308 90/188/309 70/132/310 39/71/311
f 83/178/312 81/173/313 35/159/314 43/75/315
f 84/179/316 82/176/317 39/153/318 47/79/319
f 87/185/320 85/182/321 52/106/322 60/118/323
f 86/184/324 88/186/325 57/113/326 49/101/327
f 78/168/328 87/185/329 60/118/330 23/55/331
f 89/187/332 79/169/333 27/59/334 66/126/335
f 90/188/336 80/172/337 31/63/338 70/132/339
f 5/33/340 6/34/341 2/39/342 1/40/343
f 73/162/344 74/163/345 8/35/346 4/38/347
f 51/145/348 16/11/349 9/12/350
