# This file uses centimeters as units for non-parametric coordinates.

v 17.347839 16.047073 6.652649
v -4.299316 17.448242 19.998337
v 25.729248 15.089882 19.998337
v -4.625061 0.000000 19.998337
v 25.729248 4.268131 19.998337
v -25.729187 10.497135 1.270203
v -25.729187 10.421528 19.998337
v 4.321106 10.188927 -14.089706
v -25.251404 0.000000 19.998337
v -25.729187 0.000000 19.998337
v 0.847473 7.281784 -19.620743
v -25.729187 0.000000 -11.596756
v -25.729187 7.137539 -11.407547
v -8.992615 0.000000 -19.523178
v 0.642273 0.000000 -19.947464
v -9.898865 7.216824 -19.998337
v 16.391479 0.000000 19.998337
v 17.160645 0.000000 6.827530
v -12.261780 16.292282 -5.613541
v 21.127441 7.819126 6.396927
vt 0.630102 0.720673
vt 0.606654 0.757247
vt 0.608181 0.706486
vt 0.646015 0.664451
vt 0.688006 0.662966
vt 0.688461 0.674580
vt 0.659073 0.673466
vt 0.646015 0.673120
vt 0.639777 0.794049
vt 0.607957 0.794047
vt 0.651615 0.771158
vt 0.717305 0.674344
vt 0.717973 0.670279
vt 0.717972 0.674504
vt 0.721495 0.688473
vt 0.721712 0.684570
vt 0.747191 0.681495
vt 0.670281 0.769112
vt 0.664182 0.793819
vt 0.766631 0.682787
vt 0.764696 0.683044
vt 0.614991 0.635876
vt 0.585110 0.626872
vt 0.586267 0.616745
vt 0.599342 0.616745
vt 0.653442 0.616745
vt 0.653442 0.628027
vt 0.637529 0.627098
vt 0.604499 0.658697
vt 0.595780 0.659792
vt 0.595701 0.646808
vt 0.604499 0.647056
vt 0.595875 0.678919
vt 0.604499 0.678919
vt 0.766526 0.653998
vt 0.757486 0.669340
vt 0.757292 0.669509
vt 0.592189 0.642611
vt 0.666191 0.742972
vt 0.675279 0.748868
vt 0.605691 0.658697
vt 0.653442 0.653420
vt 0.653442 0.678919
vt 0.615268 0.678919
vt 0.605178 0.647056
vt 0.644264 0.647110
vn 0.078277 0.996682 0.022325
vn 0.078277 0.996682 0.022325
vn 0.078277 0.996682 0.022325
vn -0.000000 0.000000 1.000000
vn -0.000000 0.000000 1.000000
vn -0.000000 0.000000 1.000000
vn -0.000000 0.000000 1.000000
vn 0.000000 0.000000 1.000000
vn 0.000000 0.000000 1.000000
vn 0.000000 0.000000 1.000000
vn -0.338052 0.940368 0.037794
vn -0.338052 0.940368 0.037794
vn -0.338052 0.940368 0.037794
vn -0.338052 0.940368 0.037794
vn 0.000000 0.000000 1.000000
vn 0.000000 0.000000 1.000000
vn 0.000000 0.000000 1.000000
vn 0.000000 0.000000 1.000000
vn 0.000000 0.000000 1.000000
vn 0.000000 0.000000 1.000000
vn 0.000000 0.000000 1.000000
vn -1.000000 0.000000 0.000000
vn -1.000000 0.000000 0.000000
vn -1.000000 0.000000 0.000000
vn -0.299048 0.784109 -0.543823
vn -0.299048 0.784109 -0.543823
vn -0.299048 0.784109 -0.543823
vn -1.000000 0.000000 0.000000
vn -1.000000 0.000000 0.000000
vn -1.000000 0.000000 0.000000
vn -1.000000 0.000000 0.000000
vn 0.897254 0.183413 -0.401616
vn 0.897254 0.183413 -0.401616
vn 0.897254 0.183413 -0.401616
vn 0.897254 0.183413 -0.401616
vn 0.415592 -0.909227 0.024270
vn 0.415592 -0.909227 0.024270
vn 0.415592 -0.909227 0.024270
vn -0.002258 -0.010347 -0.999944
vn -0.002258 -0.010347 -0.999944
vn -0.002258 -0.010347 -0.999944
vn -0.002258 -0.010347 -0.999944
vn -0.451754 -0.046269 -0.890942
vn -0.451754 -0.046269 -0.890942
vn -0.451754 -0.046269 -0.890942
vn -0.451754 -0.046269 -0.890942
vn 0.000000 0.000000 0.000000
vn 0.000000 0.000000 0.000000
vn 0.000000 0.000000 0.000000
vn 0.846845 -0.000001 -0.531840
vn 0.846845 -0.000001 -0.531840
vn 0.846845 -0.000001 -0.531840
vn 0.155898 0.920646 -0.357921
vn 0.155898 0.920646 -0.357921
vn 0.155898 0.920646 -0.357921
vn 0.035897 0.855426 -0.516679
vn 0.035897 0.855426 -0.516679
vn 0.035897 0.855426 -0.516679
vn 0.035897 0.855426 -0.516679
vn 0.000000 -1.000000 0.000000
vn 0.000000 -1.000000 0.000000
vn 0.000000 -1.000000 0.000000
vn 0.000000 -1.000000 0.000000
vn 0.000000 -1.000000 0.000000
vn 0.000000 -1.000000 0.000000
vn 0.000000 -1.000000 0.000000
vn 0.000000 -1.000000 0.000000
vn 0.000000 -1.000000 0.000000
vn 0.000000 -1.000000 0.000000
vn 0.000000 -1.000000 0.000000
vn 0.813007 -0.433840 -0.388332
vn 0.813007 -0.433840 -0.388332
vn 0.813007 -0.433840 -0.388332
vn 0.741693 0.358328 -0.567003
vn 0.741693 0.358328 -0.567003
vn 0.741693 0.358328 -0.567003
vn 0.801745 -0.167491 -0.573718
vn 0.801745 -0.167491 -0.573718
vn 0.801745 -0.167491 -0.573718
vn 0.801745 -0.167491 -0.573718
vn -0.479819 0.848094 -0.224744
vn -0.479819 0.848094 -0.224744
vn -0.479819 0.848094 -0.224744
vn 0.030906 0.998027 -0.054653
vn 0.030906 0.998027 -0.054653
vn 0.030906 0.998027 -0.054653
s off
f 1/1/1 2/2/2 3/3/3
f 3/4/4 2/5/5 4/6/6 17/7/7
f 5/8/8 3/4/9 17/7/10
f 6/9/11 7/10/12 2/2/13 19/11/14
f 9/12/15 7/13/16 10/14/17
f 4/6/18 2/5/19 7/13/20 9/12/21
f 10/15/22 7/16/23 6/17/24
f 13/19/25 19/11/26 16/18/27
f 10/15/28 6/17/29 13/20/30 12/21/31
f 20/22/32 1/23/33 3/24/34 5/25/35
f 5/26/36 17/27/37 18/28/38
f 14/29/39 16/30/40 11/31/41 15/32/42
f 13/33/43 16/30/44 14/29/45 12/34/46
f 4/35/47 9/36/48 10/37/49
f 11/31/50 8/38/51 15/32/52
f 8/39/53 19/11/54 1/1/55
f 8/39/56 11/40/57 16/18/58 19/11/59
f 14/41/60 4/42/61 10/43/62 12/44/63
f 18/28/64 4/42/65 14/41/66 15/45/67
f 18/28/68 17/27/69 4/42/70
f 18/46/71 20/22/72 5/25/73
f 20/22/74 8/38/75 1/23/76
f 15/32/77 8/38/78 20/22/79 18/46/80
f 6/9/81 19/11/82 13/19/83
f 1/1/84 19/11/85 2/2/86
