# This file uses centimeters as units for non-parametric coordinates.

v 7.630724 4.167786 -18.422207
v -7.630729 4.167786 -18.422203
v -18.422209 4.167786 -7.630727
v -18.422205 4.167786 7.630727
v -7.630731 4.167786 18.422207
v 7.630726 4.167786 18.422211
v 18.422205 4.167786 7.630729
v 18.422209 4.167786 -7.630729
v 6.685748 1.574516 -16.140821
v -6.685749 1.574516 -16.140823
v -16.140821 1.574516 -6.685750
v -16.140825 1.574516 6.685747
v -6.685750 1.574516 16.140821
v 6.685745 1.574516 16.140823
v 16.140816 1.574516 6.685748
v 16.140821 1.574516 -6.685748
v 3.471092 0.000000 -8.379956
v -3.471094 0.000000 -8.379954
v -8.379957 0.000000 -3.471089
v -8.379959 0.000000 3.471092
v -3.471093 0.000000 8.379956
v 3.471090 0.000000 8.379956
v 8.379955 0.000000 3.471093
v 8.379959 0.000000 -3.471092
v 6.439412 4.099164 -15.375526
v -6.439416 4.099164 -15.375523
v -5.165007 2.476163 -12.469427
v 5.165005 2.476162 -12.469425
v -15.546124 4.099164 -6.368751
v -12.469424 2.476162 -5.165006
v -15.546121 4.099164 6.368752
v -12.469427 2.476163 5.165004
v -6.439417 4.099164 15.375525
v -5.165008 2.476163 12.469425
v 6.439413 4.099165 15.375526
v 5.165005 2.476163 12.469426
v 15.546123 4.099164 6.368751
v 12.469421 2.476163 5.165008
v 15.546126 4.099164 -6.368752
v 12.469426 2.476163 -5.165006
v -3.457775 1.097540 -8.347797
v 3.457772 1.097540 -8.347799
v -8.347800 1.097540 -3.457770
v -8.347801 1.097540 3.457772
v -3.457774 1.097540 8.347798
v 3.457771 1.097540 8.347798
v 8.347797 1.097540 3.457774
v 8.347801 1.097540 -3.457773
v 17.281515 2.871151 -7.158238
v 7.158236 2.871151 -17.281513
v -7.158239 2.871151 -17.281513
v -17.281515 2.871151 -7.158238
v -17.281515 2.871151 7.158237
v -7.158241 2.871151 17.281513
v 7.158236 2.871151 17.281517
v 17.281511 2.871151 7.158238
vt 0.525580 0.474067
vt 0.525584 0.474066
vt 0.515528 0.421740
vt 0.515724 0.421806
vt 0.525582 0.474068
vt 0.515417 0.421486
vt 0.525579 0.474070
vt 0.515434 0.421182
vt 0.525586 0.474075
vt 0.515574 0.420973
vt 0.525585 0.474076
vt 0.515776 0.420987
vt 0.525587 0.474087
vt 0.515919 0.421253
vt 0.525585 0.474087
vt 0.515895 0.421609
vt 0.515614 0.421576
vt 0.515720 0.421605
vt 0.515550 0.421438
vt 0.515560 0.421269
vt 0.515639 0.421158
vt 0.515748 0.421172
vt 0.515821 0.421313
vt 0.515809 0.421497
vt 0.525586 0.474098
vt 0.515744 0.421823
vt 0.515540 0.421754
vt 0.525584 0.474097
vt 0.515424 0.421489
vt 0.525584 0.474105
vt 0.515442 0.421174
vt 0.525582 0.474103
vt 0.515588 0.420957
vt 0.525580 0.474101
vt 0.515799 0.420970
vt 0.525578 0.474099
vt 0.515950 0.421247
vt 0.525578 0.474083
vt 0.515925 0.421619
vt 0.525577 0.474083
vt 0.525790 0.474041
vt 0.525791 0.474048
vt 0.525795 0.474051
vt 0.525798 0.474047
vt 0.525800 0.474038
vt 0.525791 0.474034
vt 0.525797 0.474031
vt 0.525794 0.474029
vt 0.515917 0.421640
vt 0.515723 0.421859
vt 0.515506 0.421782
vt 0.515383 0.421498
vt 0.515402 0.421160
vt 0.515556 0.420926
vt 0.515782 0.420937
vt 0.515944 0.421236
vt 0.525580 0.474065
vt 0.525579 0.474067
vt 0.525583 0.474066
vt 0.525584 0.474065
vt 0.525585 0.474075
vt 0.525586 0.474075
vt 0.525586 0.474087
vt 0.525587 0.474087
vt 0.525585 0.474098
vt 0.525586 0.474099
vt 0.525582 0.474105
vt 0.525584 0.474107
vt 0.525578 0.474101
vt 0.525580 0.474102
vt 0.525576 0.474083
vt 0.525578 0.474083
vt 0.525802 0.474020
vt 0.525797 0.474030
vt 0.525793 0.474029
vt 0.525794 0.474020
vt 0.525790 0.474034
vt 0.525789 0.474029
vt 0.525789 0.474041
vt 0.525787 0.474042
vt 0.525791 0.474048
vt 0.525790 0.474055
vt 0.525794 0.474051
vt 0.525796 0.474061
vt 0.525797 0.474047
vt 0.525804 0.474055
vt 0.525799 0.474038
vt 0.525807 0.474036
vn 0.000000 0.873071 0.487594
vn 0.000000 0.873071 0.487594
vn 0.000000 0.873071 0.487594
vn 0.000000 0.873071 0.487594
vn 0.336203 0.878946 0.338263
vn 0.336203 0.878946 0.338263
vn 0.336203 0.878946 0.338263
vn 0.336203 0.878946 0.338263
vn 0.466577 0.884481 0.000000
vn 0.466577 0.884481 0.000000
vn 0.466577 0.884481 0.000000
vn 0.466577 0.884481 0.000000
vn 0.336203 0.878946 -0.338263
vn 0.336203 0.878946 -0.338263
vn 0.336203 0.878946 -0.338263
vn 0.336203 0.878946 -0.338263
vn 0.000000 0.873071 -0.487593
vn 0.000000 0.873071 -0.487593
vn 0.000000 0.873071 -0.487594
vn 0.000000 0.873071 -0.487594
vn -0.336203 0.878946 -0.338263
vn -0.336203 0.878946 -0.338263
vn -0.336203 0.878946 -0.338263
vn -0.336203 0.878946 -0.338263
vn -0.466576 0.884481 -0.000000
vn -0.466576 0.884481 -0.000000
vn -0.466576 0.884481 -0.000000
vn -0.466576 0.884481 -0.000000
vn -0.336203 0.878946 0.338262
vn -0.336203 0.878946 0.338263
vn -0.336203 0.878946 0.338263
vn -0.336203 0.878946 0.338263
vn 0.000000 0.948355 0.317211
vn 0.000000 0.948355 0.317211
vn 0.000000 0.948355 0.317211
vn 0.000000 0.948355 0.317211
vn 0.224302 0.948355 0.224302
vn 0.224302 0.948355 0.224302
vn 0.224302 0.948355 0.224302
vn 0.224302 0.948355 0.224302
vn 0.317211 0.948355 0.000000
vn 0.317211 0.948355 0.000000
vn 0.317211 0.948355 0.000000
vn 0.317211 0.948355 0.000000
vn 0.224302 0.948355 -0.224302
vn 0.224302 0.948355 -0.224302
vn 0.224302 0.948355 -0.224302
vn 0.224302 0.948355 -0.224302
vn 0.000000 0.948355 -0.317211
vn 0.000000 0.948355 -0.317211
vn 0.000000 0.948355 -0.317211
vn 0.000000 0.948355 -0.317211
vn -0.224302 0.948355 -0.224302
vn -0.224302 0.948355 -0.224302
vn -0.224302 0.948355 -0.224302
vn -0.224302 0.948355 -0.224302
vn -0.317211 0.948355 -0.000000
vn -0.317211 0.948355 -0.000000
vn -0.317211 0.948355 -0.000000
vn -0.317211 0.948355 -0.000000
vn -0.224302 0.948355 0.224302
vn -0.224302 0.948355 0.224302
vn -0.224302 0.948355 0.224302
vn -0.224302 0.948355 0.224302
vn 0.000000 1.000000 0.000000
vn 0.000000 1.000000 0.000000
vn 0.000000 1.000000 0.000000
vn 0.000000 1.000000 0.000000
vn 0.000000 1.000000 0.000000
vn 0.000000 1.000000 0.000000
vn 0.000000 1.000000 0.000000
vn 0.000000 1.000000 0.000000
vn 0.000000 1.000000 0.000000
vn 0.000000 1.000000 0.000000
vn 0.000000 1.000000 0.000000
vn 0.000000 1.000000 0.000000
vn -0.000000 -0.660515 -0.750813
vn -0.000000 -0.660515 -0.750813
vn -0.000000 -0.660515 -0.750813
vn -0.000000 -0.660515 -0.750813
vn -0.530905 -0.660514 -0.530905
vn -0.530905 -0.660515 -0.530905
vn -0.530905 -0.660515 -0.530905
vn -0.530905 -0.660514 -0.530905
vn -0.750814 -0.660514 0.000000
vn -0.750814 -0.660514 0.000000
vn -0.750814 -0.660514 0.000000
vn -0.750814 -0.660514 0.000000
vn -0.530905 -0.660515 0.530905
vn -0.530905 -0.660515 0.530905
vn -0.530905 -0.660515 0.530905
vn -0.530905 -0.660515 0.530905
vn -0.000000 -0.660515 0.750813
vn -0.000000 -0.660515 0.750813
vn -0.000000 -0.660515 0.750813
vn -0.000000 -0.660515 0.750813
vn 0.530905 -0.660515 0.530905
vn 0.530905 -0.660515 0.530905
vn 0.530905 -0.660515 0.530905
vn 0.530905 -0.660515 0.530905
vn 0.750813 -0.660515 0.000000
vn 0.750813 -0.660515 0.000000
vn 0.750813 -0.660515 0.000000
vn 0.750813 -0.660515 0.000000
vn 0.530905 -0.660515 -0.530905
vn 0.530905 -0.660515 -0.530905
vn 0.530905 -0.660515 -0.530905
vn 0.530905 -0.660515 -0.530905
vn 0.000000 -0.980034 -0.198828
vn 0.000000 -0.980034 -0.198828
vn 0.000000 -0.980034 -0.198828
vn 0.000000 -0.980034 -0.198828
vn -0.140593 -0.980034 -0.140593
vn -0.140593 -0.980034 -0.140593
vn -0.140593 -0.980034 -0.140593
vn -0.140593 -0.980034 -0.140593
vn -0.198828 -0.980034 -0.000000
vn -0.198828 -0.980034 -0.000000
vn -0.198828 -0.980034 -0.000000
vn -0.198828 -0.980034 -0.000000
vn -0.140593 -0.980034 0.140593
vn -0.140593 -0.980034 0.140593
vn -0.140593 -0.980034 0.140593
vn -0.140593 -0.980034 0.140593
vn 0.000000 -0.980034 0.198828
vn 0.000000 -0.980034 0.198828
vn 0.000000 -0.980034 0.198828
vn 0.000000 -0.980034 0.198828
vn 0.140593 -0.980034 0.140593
vn 0.140593 -0.980034 0.140593
vn 0.140593 -0.980034 0.140593
vn 0.140593 -0.980034 0.140593
vn 0.198828 -0.980034 0.000000
vn 0.198828 -0.980034 0.000000
vn 0.198828 -0.980034 0.000000
vn 0.198828 -0.980034 0.000000
vn 0.140593 -0.980034 -0.140593
vn 0.140593 -0.980034 -0.140593
vn 0.140593 -0.980034 -0.140593
vn 0.140593 -0.980034 -0.140593
vn 0.000000 -1.000000 0.000000
vn 0.000000 -1.000000 0.000000
vn 0.000000 -1.000000 0.000000
vn 0.000000 -1.000000 0.000000
vn 0.000000 -1.000000 0.000000
vn 0.000000 -1.000000 0.000000
vn 0.000000 -1.000000 0.000000
vn 0.000000 -1.000000 0.000000
vn 0.000000 -1.000000 0.000000
vn 0.000000 -1.000000 0.000000
vn 0.000000 -1.000000 0.000000
vn 0.000000 -1.000000 0.000000
vn 0.000000 0.999747 0.022518
vn 0.000000 0.999747 0.022518
vn 0.000000 0.999747 0.022518
vn 0.000000 0.999746 0.022518
vn 0.016338 0.999732 0.016421
vn 0.016338 0.999732 0.016421
vn 0.016338 0.999732 0.016421
vn 0.016338 0.999732 0.016421
vn 0.023853 0.999716 -0.000000
vn 0.023853 0.999716 -0.000000
vn 0.023853 0.999716 -0.000000
vn 0.023853 0.999716 -0.000000
vn 0.016338 0.999732 -0.016421
vn 0.016338 0.999732 -0.016421
vn 0.016338 0.999732 -0.016421
vn 0.016338 0.999732 -0.016421
vn -0.000000 0.999747 -0.022518
vn -0.000000 0.999747 -0.022518
vn -0.000000 0.999747 -0.022518
vn -0.000000 0.999747 -0.022518
vn -0.016338 0.999732 -0.016421
vn -0.016338 0.999732 -0.016421
vn -0.016338 0.999732 -0.016421
vn -0.016338 0.999732 -0.016421
vn -0.023853 0.999716 -0.000000
vn -0.023853 0.999716 -0.000000
vn -0.023853 0.999716 -0.000000
vn -0.023853 0.999716 -0.000000
vn -0.016338 0.999732 0.016421
vn -0.016338 0.999732 0.016421
vn -0.016338 0.999732 0.016421
vn -0.016338 0.999732 0.016421
vn 0.530905 -0.660515 -0.530905
vn 0.530905 -0.660515 -0.530905
vn 0.530905 -0.660515 -0.530905
vn 0.530905 -0.660515 -0.530905
vn 0.000000 -0.660514 -0.750813
vn 0.000000 -0.660514 -0.750813
vn 0.000000 -0.660514 -0.750813
vn 0.000000 -0.660514 -0.750813
vn -0.530905 -0.660515 -0.530905
vn -0.530905 -0.660514 -0.530905
vn -0.530905 -0.660515 -0.530905
vn -0.530905 -0.660515 -0.530905
vn -0.750813 -0.660515 -0.000000
vn -0.750813 -0.660515 -0.000000
vn -0.750813 -0.660515 -0.000000
vn -0.750813 -0.660515 -0.000000
vn -0.530905 -0.660514 0.530905
vn -0.530905 -0.660514 0.530905
vn -0.530905 -0.660514 0.530905
vn -0.530905 -0.660514 0.530905
vn -0.000000 -0.660515 0.750813
vn -0.000000 -0.660515 0.750813
vn -0.000000 -0.660515 0.750813
vn -0.000000 -0.660515 0.750813
vn 0.530905 -0.660515 0.530905
vn 0.530905 -0.660515 0.530905
vn 0.530905 -0.660515 0.530905
vn 0.530905 -0.660515 0.530905
vn 0.750812 -0.660516 0.000000
vn 0.750812 -0.660516 0.000000
vn 0.750812 -0.660515 0.000000
vn 0.750812 -0.660516 0.000000
s off
f 25/1/1 26/2/2 27/5/3 28/7/4
f 26/2/5 29/9/6 30/11/7 27/5/8
f 29/9/9 31/13/10 32/15/11 30/11/12
f 31/13/13 33/25/14 34/28/15 32/15/16
f 33/25/17 35/30/18 36/32/19 34/28/20
f 35/30/21 37/34/22 38/36/23 36/32/24
f 37/34/25 39/38/26 40/40/27 38/36/28
f 39/38/29 25/1/30 28/7/31 40/40/32
f 28/4/33 27/3/34 41/17/35 42/18/36
f 27/3/37 30/6/38 43/19/39 41/17/40
f 30/6/41 32/8/42 44/20/43 43/19/44
f 32/8/45 34/10/46 45/21/47 44/20/48
f 34/10/49 36/12/50 46/22/51 45/21/52
f 36/12/53 38/14/54 47/23/55 46/22/56
f 38/14/57 40/16/58 48/24/59 47/23/60
f 40/16/61 28/4/62 42/18/63 48/24/64
f 44/41/65 45/42/66 46/43/67 47/44/68
f 44/41/69 47/44/70 48/45/71 43/46/72
f 43/46/73 48/45/74 42/47/75 41/48/76
f 1/57/77 50/58/78 51/59/79 2/60/80
f 2/60/81 51/59/82 52/61/83 3/62/84
f 3/62/85 52/61/86 53/63/87 4/64/88
f 4/64/89 53/63/90 54/65/91 5/66/92
f 5/66/93 54/65/94 55/67/95 6/68/96
f 6/68/97 55/67/98 56/69/99 7/70/100
f 7/70/101 56/69/102 49/71/103 8/72/104
f 8/72/105 49/71/106 50/58/107 1/57/108
f 9/73/109 17/74/110 18/75/111 10/76/112
f 10/76/113 18/75/114 19/77/115 11/78/116
f 11/78/117 19/77/118 20/79/119 12/80/120
f 12/80/121 20/79/122 21/81/123 13/82/124
f 13/82/125 21/81/126 22/83/127 14/84/128
f 14/84/129 22/83/130 23/85/131 15/86/132
f 15/86/133 23/85/134 24/87/135 16/88/136
f 16/88/137 24/87/138 17/74/139 9/73/140
f 20/79/141 23/85/142 22/83/143 21/81/144
f 20/79/145 19/77/146 24/87/147 23/85/148
f 19/77/149 18/75/150 17/74/151 24/87/152
f 1/57/153 2/60/154 26/2/155 25/1/156
f 2/60/157 3/62/158 29/9/159 26/2/160
f 3/62/161 4/64/162 31/13/163 29/9/164
f 4/64/165 5/66/166 33/25/167 31/13/168
f 5/66/169 6/68/170 35/30/171 33/25/172
f 6/68/173 7/70/174 37/34/175 35/30/176
f 7/70/177 8/72/178 39/38/179 37/34/180
f 8/72/181 1/57/182 25/1/183 39/38/184
f 49/49/185 16/39/186 9/26/187 50/50/188
f 51/51/189 50/50/190 9/26/191 10/27/192
f 52/52/193 51/51/194 10/27/195 11/29/196
f 53/53/197 52/52/198 11/29/199 12/31/200
f 54/54/201 53/53/202 12/31/203 13/33/204
f 55/55/205 54/54/206 13/33/207 14/35/208
f 56/56/209 55/55/210 14/35/211 15/37/212
f 49/49/213 56/56/214 15/37/215 16/39/216
