# This file uses centimeters as units for non-parametric coordinates.

v -11.662048 11.120361 -28.155823
v -34.554871 17.140997 -14.313927
v -14.311829 17.140997 -34.556923
v -20.011963 7.562502 -8.289246
v -28.155396 11.120361 11.662514
v -28.155396 11.120361 -11.662514
v -10.887878 6.225243 4.509911
v -20.012024 7.562502 8.289246
v -10.887817 6.225243 -4.509911
v -4.509888 6.225243 -10.887863
v 8.289246 7.562502 -20.012001
v 4.509888 6.225243 -10.887863
v 13.887451 3.829863 -5.752357
v 5.752380 3.829863 -13.887413
v -6.593018 0.000000 15.916878
v -5.752380 3.829863 13.887405
v -15.916870 0.000000 6.592979
v -13.887451 3.829863 5.752357
v -4.509888 6.225243 10.887856
v 11.663025 11.120356 -28.155823
v 15.916931 0.000000 -6.593010
v 10.887878 6.225261 -4.509911
v -34.554810 17.140997 14.313927
v 6.593018 0.000000 15.916901
v 14.315979 17.140997 -34.556923
v 4.509888 6.225243 10.887856
v 13.887451 3.829863 5.752357
v -8.289246 7.562502 20.011955
v 20.012024 7.562500 -8.289215
v 6.593018 0.000000 -15.916878
v 15.916931 0.000000 6.592979
v 5.752380 3.829863 13.887428
v 10.887817 6.225243 4.509911
v 28.156311 11.120361 -11.662514
v 8.289246 7.562502 20.012032
v -11.662048 11.120361 28.155815
v 20.012024 7.562502 8.289246
v -14.311829 17.140984 34.556892
v 34.558990 17.141008 -14.313950
v 28.156311 11.120361 11.662552
v 11.662964 11.120356 28.155815
v 14.315979 17.140997 34.556892
v 34.558990 17.140997 14.313927
v -6.593018 -0.000000 -15.916901
v -8.289246 7.562502 -20.012032
v -13.887390 3.829863 -5.752357
v -5.752380 3.829863 -13.887436
v -15.916870 0.000000 -6.592987
v -15.839355 23.706612 -38.246895
v -38.243835 23.706612 -15.842361
v 15.845398 23.706612 -38.246895
v -38.243835 23.706612 15.842361
v 38.241577 23.706612 -15.842392
v -15.839355 23.706612 38.246864
v 15.845398 23.706612 38.246891
v 38.241577 23.706612 15.842361
v -14.977661 21.746859 -36.166008
v -36.163208 21.746859 -14.980431
v -36.163147 21.746859 14.980423
v 14.983276 21.746859 -36.166008
v -14.977661 21.746859 36.165974
v 36.160889 21.746859 -14.980453
v 14.983276 21.746859 36.165997
v 36.160889 21.746859 14.980423
v -10.749634 12.977106 -25.955879
v -25.954224 12.977106 -10.751289
v -25.954224 12.977106 10.751289
v 10.752991 12.977106 -25.955879
v -10.749634 12.977106 25.955841
v 25.951904 12.977106 -10.751305
v 10.752991 12.977106 25.955860
v 25.951904 12.977106 10.751289
v -0.000244 8.749863 -0.000008
v -36.958618 28.503357 -15.309944
v -15.307068 28.503357 -36.961525
v -36.958618 28.503357 15.309937
v 15.312866 28.503357 -36.961525
v -15.307068 28.503357 36.961502
v 36.956329 28.503357 -15.309967
v 15.312866 28.503357 36.961517
v 36.956329 28.503357 15.309937
v -16.885986 24.185902 -40.773720
v -40.770691 24.185902 -16.889008
v -40.770691 27.625927 -16.889008
v -16.885986 27.625927 -40.773720
v -40.770691 24.185902 16.889008
v -40.770691 27.625927 16.889008
v 16.892273 24.185902 -40.773521
v 16.892273 27.625927 -40.773521
v -16.885986 24.185902 40.773693
v -16.885986 27.625927 40.773693
v 40.768585 24.185902 -16.888840
v 40.768585 27.625927 -16.888840
v 16.892273 24.185902 40.773521
v 16.892273 27.625927 40.773521
v 40.768616 24.185902 16.888809
v 40.768616 27.625927 16.888809
vt 0.503064 0.424406
vt 0.503426 0.424401
vt 0.503408 0.424439
vt 0.520392 0.477344
vt 0.520461 0.477376
vt 0.520486 0.477376
vt 0.520437 0.477353
vt 0.520513 0.477363
vt 0.520486 0.477351
vt 0.520638 0.477350
vt 0.520595 0.477349
vt 0.520558 0.477363
vt 0.503116 0.424443
vt 0.503500 0.424352
vt 0.503481 0.424409
vt 0.520570 0.477375
vt 0.520461 0.477384
vt 0.520472 0.477357
vt 0.503444 0.424376
vt 0.503460 0.424332
vt 0.503195 0.424336
vt 0.503177 0.424380
vt 0.520480 0.477341
vt 0.520471 0.477365
vt 0.520610 0.477363
vt 0.520618 0.477340
vt 0.520629 0.477355
vt 0.503139 0.424414
vt 0.520620 0.477382
vt 0.520580 0.477375
vt 0.503162 0.424357
vt 0.503642 0.424353
vt 0.503713 0.424297
vt 0.502855 0.424308
vt 0.520675 0.477340
vt 0.502945 0.424363
vt 0.503284 0.424304
vt 0.503277 0.424316
vt 0.520493 0.477333
vt 0.520451 0.477320
vt 0.520601 0.477331
vt 0.520649 0.477317
vt 0.520525 0.477338
vt 0.503416 0.424314
vt 0.503394 0.424302
vt 0.520527 0.477325
vt 0.520412 0.477298
vt 0.520590 0.477337
vt 0.520583 0.477324
vt 0.520574 0.477319
vt 0.520599 0.477295
vt 0.503434 0.424344
vt 0.503753 0.424228
vt 0.520690 0.477294
vt 0.502995 0.424249
vt 0.502919 0.424170
vt 0.520530 0.477320
vt 0.520518 0.477296
vt 0.503679 0.424240
vt 0.503757 0.424159
vt 0.503800 0.424078
vt 0.503204 0.424073
vt 0.520507 0.477265
vt 0.520620 0.477263
vt 0.520567 0.477402
vt 0.503227 0.424169
vt 0.503545 0.424069
vt 0.503507 0.424165
vt 0.503565 0.423980
vt 0.520563 0.477380
vt 0.520500 0.477402
vt 0.520505 0.477381
vt 0.503354 0.424409
vt 0.503366 0.424451
vt 0.503223 0.424453
vt 0.503243 0.424410
vt 0.503032 0.424349
vt 0.502800 0.424241
vt 0.502872 0.424090
vt 0.503188 0.423985
vt 0.520429 0.477313
vt 0.520588 0.477311
vt 0.520593 0.477323
vt 0.520418 0.477325
vt 0.520338 0.477271
vt 0.520317 0.477278
vt 0.520366 0.477212
vt 0.520349 0.477213
vt 0.520491 0.477171
vt 0.520486 0.477168
vt 0.520640 0.477169
vt 0.520650 0.477166
vt 0.520594 0.477339
vt 0.520419 0.477341
vt 0.520434 0.477343
vt 0.520588 0.477341
vt 0.520318 0.477294
vt 0.520344 0.477302
vt 0.520733 0.477289
vt 0.520732 0.477273
vt 0.520711 0.477297
vt 0.520713 0.477266
vt 0.520350 0.477229
vt 0.520372 0.477243
vt 0.520753 0.477224
vt 0.520752 0.477208
vt 0.520730 0.477239
vt 0.520732 0.477207
vt 0.520487 0.477183
vt 0.520494 0.477202
vt 0.520651 0.477181
vt 0.520639 0.477200
vt 0.503428 0.424356
vt 0.503049 0.424361
vt 0.503130 0.424410
vt 0.503400 0.424406
vt 0.502830 0.424259
vt 0.502973 0.424337
vt 0.503730 0.424247
vt 0.503615 0.424328
vt 0.502897 0.424116
vt 0.503019 0.424233
vt 0.503775 0.424104
vt 0.503650 0.424224
vt 0.503196 0.424016
vt 0.503233 0.424158
vt 0.503553 0.424011
vt 0.503491 0.424155
vt 0.503317 0.424327
vt 0.520591 0.477336
vt 0.520427 0.477338
vt 0.520332 0.477294
vt 0.520721 0.477289
vt 0.520362 0.477233
vt 0.520740 0.477228
vt 0.520490 0.477190
vt 0.520644 0.477188
vn -0.484504 -0.728361 -0.484506
vn -0.484504 -0.728361 -0.484505
vn -0.484504 -0.728361 -0.484505
vn -0.484504 -0.728361 -0.484506
vn -0.400358 -0.916359 -0.000001
vn -0.400358 -0.916359 -0.000001
vn -0.400358 -0.916359 -0.000001
vn -0.400358 -0.916359 -0.000001
vn -0.145014 -0.989430 -0.000001
vn -0.145014 -0.989430 -0.000001
vn -0.145014 -0.989430 -0.000001
vn -0.145014 -0.989430 -0.000001
vn 0.000000 -0.989430 -0.145013
vn 0.000000 -0.989430 -0.145013
vn 0.000000 -0.989430 -0.145013
vn 0.000000 -0.989430 -0.145013
vn 0.441245 0.781411 -0.441248
vn 0.441245 0.781411 -0.441248
vn 0.441245 0.781411 -0.441248
vn 0.441245 0.781411 -0.441248
vn -0.624806 0.468226 0.624806
vn -0.624806 0.468226 0.624806
vn -0.624806 0.468226 0.624806
vn -0.624806 0.468226 0.624806
vn -0.441245 0.781412 0.441247
vn -0.441245 0.781412 0.441247
vn -0.441245 0.781412 0.441247
vn -0.441245 0.781412 0.441247
vn -0.000000 -0.728423 -0.685128
vn -0.000000 -0.728423 -0.685128
vn -0.000000 -0.728423 -0.685128
vn -0.000000 -0.728423 -0.685128
vn 0.624803 0.468231 -0.624805
vn 0.624803 0.468231 -0.624805
vn 0.624803 0.468231 -0.624805
vn 0.624803 0.468231 -0.624805
vn 0.000000 -0.916366 -0.400341
vn 0.000000 -0.916366 -0.400341
vn 0.000000 -0.916366 -0.400341
vn 0.000000 -0.916366 -0.400341
vn -0.102540 -0.989430 0.102541
vn -0.102540 -0.989430 0.102541
vn -0.102540 -0.989430 0.102541
vn -0.102540 -0.989430 0.102541
vn 0.102540 -0.989430 -0.102539
vn 0.102540 -0.989430 -0.102539
vn 0.102540 -0.989430 -0.102539
vn 0.102540 -0.989430 -0.102539
vn -0.685222 -0.728335 0.000001
vn -0.685222 -0.728334 0.000001
vn -0.685222 -0.728335 0.000001
vn -0.685222 -0.728335 0.000001
vn -0.000002 0.468230 0.883607
vn -0.000002 0.468230 0.883607
vn -0.000002 0.468230 0.883607
vn -0.000002 0.468230 0.883607
vn -0.000001 0.781411 0.624017
vn -0.000001 0.781411 0.624017
vn -0.000001 0.781411 0.624017
vn -0.000001 0.781411 0.624017
vn 0.624013 0.781414 0.000003
vn 0.624013 0.781414 0.000003
vn 0.624013 0.781414 0.000003
vn 0.624013 0.781414 0.000003
vn -0.283092 -0.916361 0.283094
vn -0.283092 -0.916361 0.283093
vn -0.283092 -0.916361 0.283094
vn -0.283092 -0.916361 0.283093
vn 0.000000 -1.000000 0.000000
vn 0.000000 -1.000000 0.000000
vn 0.000000 -1.000000 0.000000
vn 0.000000 -1.000000 0.000000
vn 0.000000 -0.489940 -0.871756
vn 0.000000 -0.489940 -0.871756
vn 0.000000 -0.489940 -0.871756
vn 0.000000 -0.489940 -0.871756
vn 0.624805 0.468229 0.624804
vn 0.624805 0.468229 0.624804
vn 0.624805 0.468229 0.624804
vn 0.624805 0.468229 0.624804
vn 0.145012 -0.989430 -0.000000
vn 0.145012 -0.989430 -0.000000
vn 0.145012 -0.989430 -0.000000
vn 0.145012 -0.989430 -0.000000
vn 0.283073 -0.916373 -0.283073
vn 0.283073 -0.916373 -0.283073
vn 0.283074 -0.916373 -0.283073
vn 0.283074 -0.916373 -0.283073
vn 0.441243 0.781415 0.441243
vn 0.441243 0.781415 0.441243
vn 0.441243 0.781415 0.441243
vn 0.441243 0.781415 0.441243
vn -0.000000 -0.989430 0.145014
vn -0.000000 -0.989430 0.145014
vn -0.000000 -0.989430 0.145014
vn -0.000000 -0.989430 0.145014
vn 0.883606 0.468231 0.000000
vn 0.883606 0.468231 0.000000
vn 0.883606 0.468231 0.000000
vn 0.883606 0.468231 0.000000
vn -0.484506 -0.728360 0.484506
vn -0.484506 -0.728360 0.484506
vn -0.484506 -0.728360 0.484506
vn -0.484506 -0.728360 0.484506
vn 0.484415 -0.728482 -0.484414
vn 0.484414 -0.728482 -0.484414
vn 0.484414 -0.728482 -0.484414
vn 0.484414 -0.728482 -0.484414
vn 0.102540 -0.989430 0.102540
vn 0.102540 -0.989430 0.102540
vn 0.102540 -0.989430 0.102540
vn 0.102540 -0.989430 0.102540
vn -0.000001 -0.916367 0.400340
vn -0.000001 -0.916367 0.400340
vn -0.000001 -0.916367 0.400340
vn -0.000001 -0.916367 0.400340
vn 0.400322 -0.916375 0.000000
vn 0.400322 -0.916375 0.000000
vn 0.400322 -0.916375 0.000000
vn 0.400322 -0.916375 0.000000
vn 0.616575 -0.489712 -0.616455
vn 0.616575 -0.489712 -0.616455
vn 0.616575 -0.489712 -0.616455
vn 0.616575 -0.489712 -0.616455
vn 0.283074 -0.916372 0.283074
vn 0.283074 -0.916372 0.283074
vn 0.283074 -0.916372 0.283074
vn 0.283074 -0.916372 0.283074
vn 0.000000 -0.728422 0.685129
vn 0.000000 -0.728422 0.685129
vn 0.000000 -0.728422 0.685129
vn 0.000000 -0.728422 0.685129
vn 0.685038 -0.728507 -0.000000
vn 0.685038 -0.728507 -0.000000
vn 0.685038 -0.728507 -0.000000
vn 0.685038 -0.728507 -0.000000
vn 0.484414 -0.728481 0.484415
vn 0.484414 -0.728482 0.484415
vn 0.484414 -0.728481 0.484415
vn 0.484414 -0.728482 0.484415
vn 0.872175 -0.489195 -0.000000
vn 0.872175 -0.489194 -0.000000
vn 0.872175 -0.489194 -0.000000
vn 0.872175 -0.489194 -0.000000
vn 0.000000 -1.000000 0.000000
vn 0.000000 -1.000000 0.000000
vn 0.000000 -1.000000 0.000000
vn 0.000000 -1.000000 0.000000
vn 0.000001 0.781411 -0.624017
vn 0.000001 0.781411 -0.624017
vn 0.000001 0.781411 -0.624017
vn 0.000001 0.781411 -0.624017
vn -0.624015 0.781412 -0.000004
vn -0.624015 0.781412 -0.000004
vn -0.624015 0.781412 -0.000004
vn -0.624015 0.781412 -0.000004
vn -0.283093 -0.916361 -0.283093
vn -0.283093 -0.916361 -0.283093
vn -0.283093 -0.916361 -0.283093
vn -0.283093 -0.916361 -0.283093
vn -0.102540 -0.989430 -0.102540
vn -0.102540 -0.989430 -0.102540
vn -0.102540 -0.989430 -0.102540
vn -0.102540 -0.989430 -0.102540
vn 0.000002 0.468228 -0.883608
vn 0.000002 0.468228 -0.883608
vn 0.000002 0.468228 -0.883608
vn 0.000002 0.468228 -0.883608
vn -0.883609 0.468226 -0.000002
vn -0.883609 0.468226 -0.000002
vn -0.883609 0.468226 -0.000002
vn -0.883609 0.468226 -0.000002
vn -0.624807 0.468230 -0.624802
vn -0.624807 0.468230 -0.624802
vn -0.624807 0.468230 -0.624802
vn -0.624807 0.468230 -0.624802
vn -0.000000 -1.000000 0.000000
vn -0.000000 -1.000000 0.000000
vn -0.000000 -1.000000 0.000000
vn -0.000000 -1.000000 0.000000
vn -0.441246 0.781413 -0.441244
vn -0.441246 0.781413 -0.441244
vn -0.441246 0.781413 -0.441243
vn -0.441246 0.781413 -0.441244
vn -0.616452 -0.489871 -0.616452
vn -0.616452 -0.489871 -0.616452
vn -0.616452 -0.489871 -0.616452
vn -0.616452 -0.489871 -0.616452
vn -0.871812 -0.489841 0.000001
vn -0.871812 -0.489841 0.000001
vn -0.871812 -0.489841 0.000001
vn -0.871812 -0.489841 0.000001
vn -0.616451 -0.489873 0.616451
vn -0.616451 -0.489873 0.616451
vn -0.616451 -0.489873 0.616451
vn -0.616451 -0.489873 0.616451
vn -0.000000 -0.489941 0.871756
vn -0.000000 -0.489941 0.871756
vn -0.000000 -0.489941 0.871756
vn -0.000000 -0.489941 0.871756
vn 0.616575 -0.489712 0.616455
vn 0.616575 -0.489712 0.616455
vn 0.616575 -0.489712 0.616455
vn 0.616575 -0.489712 0.616455
vn -0.192166 0.978129 -0.079597
vn -0.079598 0.978129 -0.192165
vn -0.079595 0.978129 -0.192166
vn -0.192166 0.978129 -0.079599
vn -0.192166 0.978129 0.079597
vn -0.192166 0.978129 -0.079597
vn -0.192166 0.978129 -0.079599
vn -0.192166 0.978129 0.079599
vn -0.079598 0.978129 0.192165
vn -0.192166 0.978129 0.079597
vn -0.192166 0.978129 0.079599
vn -0.079595 0.978129 0.192166
vn 0.079604 0.978131 0.192152
vn -0.079598 0.978129 0.192165
vn -0.079595 0.978129 0.192166
vn 0.079604 0.978131 0.192152
vn 0.192176 0.978129 0.079572
vn 0.079604 0.978131 0.192152
vn 0.079604 0.978131 0.192152
vn 0.192174 0.978129 0.079576
vn 0.605737 0.515914 0.605736
vn 0.605730 0.515930 0.605729
vn 0.460752 0.758562 0.460752
vn 0.460752 0.758562 0.460752
vn 0.856643 0.515910 -0.000001
vn 0.856643 0.515910 -0.000001
vn 0.651614 0.758550 -0.000001
vn 0.651614 0.758550 -0.000001
vn 0.000000 0.515944 0.856622
vn 0.000000 0.515967 0.856609
vn 0.000000 0.758588 0.651571
vn 0.000000 0.758588 0.651571
vn 0.605730 0.515930 -0.605729
vn 0.605737 0.515914 -0.605736
vn 0.460753 0.758561 -0.460752
vn 0.460752 0.758561 -0.460752
vn -0.605821 0.515981 0.605595
vn -0.605837 0.515943 0.605611
vn -0.460817 0.758587 0.460645
vn -0.460817 0.758587 0.460645
vn 0.000001 0.515967 -0.856608
vn 0.000001 0.515945 -0.856622
vn 0.000001 0.758588 -0.651571
vn 0.000001 0.758588 -0.651571
vn -0.605838 0.515943 -0.605610
vn -0.605821 0.515981 -0.605594
vn -0.460817 0.758587 -0.460645
vn -0.460817 0.758587 -0.460645
vn -0.856642 0.515911 0.000000
vn -0.856642 0.515911 0.000000
vn -0.651613 0.758551 0.000000
vn -0.651613 0.758551 0.000000
vn 0.113669 0.986995 0.113669
vn 0.113669 0.986995 0.113669
vn 0.113669 0.986995 0.113669
vn 0.160756 0.986994 0.000000
vn 0.160756 0.986994 0.000000
vn 0.160756 0.986994 0.000000
vn 0.000000 0.986996 0.160745
vn 0.000000 0.986996 0.160745
vn 0.000000 0.986996 0.160745
vn 0.113669 0.986995 -0.113670
vn 0.113669 0.986995 -0.113670
vn 0.113669 0.986995 -0.113670
vn -0.113688 0.986995 0.113645
vn -0.113688 0.986995 0.113645
vn -0.113688 0.986995 0.113645
vn 0.000000 0.986996 -0.160745
vn 0.000000 0.986996 -0.160745
vn 0.000000 0.986996 -0.160745
vn -0.113688 0.986995 -0.113645
vn -0.113688 0.986995 -0.113645
vn -0.113688 0.986995 -0.113645
vn -0.160767 0.986992 0.000000
vn -0.160767 0.986992 0.000000
vn -0.160767 0.986992 0.000000
vn -0.707107 0.000000 -0.707107
vn -0.707107 0.000000 -0.707107
vn -0.707107 0.000000 -0.707107
vn -0.707107 0.000000 -0.707107
vn 0.605730 0.515930 0.605729
vn 0.605737 0.515914 0.605736
vn 0.702257 0.116922 0.702256
vn 0.702257 0.116922 0.702256
vn -1.000000 0.000000 0.000000
vn -1.000000 0.000000 0.000000
vn -1.000000 0.000000 0.000000
vn -1.000000 0.000000 0.000000
vn 0.856643 0.515910 -0.000001
vn 0.856643 0.515910 -0.000001
vn 0.993141 0.116922 -0.000001
vn 0.993141 0.116922 -0.000001
vn 0.000006 0.000000 -1.000000
vn 0.000006 0.000000 -1.000000
vn 0.000006 0.000000 -1.000000
vn 0.000006 0.000000 -1.000000
vn 0.000000 0.515967 0.856609
vn 0.000000 0.515944 0.856622
vn 0.000000 0.116933 0.993140
vn 0.000000 0.116933 0.993140
vn -0.707106 0.000000 0.707107
vn -0.707106 0.000000 0.707107
vn -0.707106 0.000000 0.707107
vn -0.707106 0.000000 0.707107
vn 0.605737 0.515914 -0.605736
vn 0.605730 0.515930 -0.605729
vn 0.702257 0.116926 -0.702256
vn 0.702257 0.116926 -0.702256
vn 0.707231 0.000000 -0.706983
vn 0.707231 0.000000 -0.706983
vn 0.707231 0.000000 -0.706983
vn 0.707231 0.000000 -0.706983
vn -0.605837 0.515943 0.605611
vn -0.605821 0.515981 0.605595
vn -0.702387 0.116933 0.702124
vn -0.702387 0.116933 0.702124
vn 0.000005 0.000000 1.000000
vn 0.000005 0.000000 1.000000
vn 0.000005 0.000000 1.000000
vn 0.000005 0.000000 1.000000
vn 0.000001 0.515945 -0.856622
vn 0.000001 0.515967 -0.856608
vn 0.000001 0.116934 -0.993140
vn 0.000001 0.116934 -0.993140
vn 0.707231 0.000000 0.706983
vn 0.707231 0.000000 0.706983
vn 0.707231 0.000000 0.706983
vn 0.707231 0.000000 0.706983
vn -0.605821 0.515981 -0.605594
vn -0.605838 0.515943 -0.605610
vn -0.702388 0.116934 -0.702124
vn -0.702388 0.116934 -0.702124
vn 1.000000 0.000000 -0.000001
vn 1.000000 0.000000 -0.000001
vn 1.000000 0.000000 -0.000001
vn 1.000000 0.000000 -0.000001
vn -0.856642 0.515911 0.000000
vn -0.856642 0.515911 0.000000
vn -0.993141 0.116923 0.000000
vn -0.993141 0.116923 0.000000
vn -0.066057 -0.984989 -0.159475
vn -0.159471 -0.984990 -0.066055
vn -0.159472 -0.984990 -0.066055
vn -0.066056 -0.984989 -0.159476
vn -0.159471 -0.984990 -0.066055
vn -0.159471 -0.984990 0.066055
vn -0.159471 -0.984990 0.066055
vn -0.159472 -0.984990 -0.066055
vn 0.066063 -0.984990 -0.159467
vn -0.066057 -0.984989 -0.159475
vn -0.066056 -0.984989 -0.159476
vn 0.066064 -0.984990 -0.159466
vn 0.079604 0.978131 -0.192152
vn 0.079604 0.978131 -0.192152
vn -0.079595 0.978129 -0.192166
vn -0.079598 0.978129 -0.192165
vn -0.159471 -0.984990 0.066055
vn -0.066057 -0.984989 0.159475
vn -0.066056 -0.984989 0.159475
vn -0.159471 -0.984990 0.066055
vn 0.159480 -0.984990 -0.066035
vn 0.066063 -0.984990 -0.159467
vn 0.066064 -0.984990 -0.159466
vn 0.159480 -0.984990 -0.066035
vn 0.192176 0.978129 -0.079571
vn 0.192175 0.978129 -0.079576
vn 0.079604 0.978131 -0.192152
vn 0.079604 0.978131 -0.192152
vn -0.066057 -0.984989 0.159475
vn 0.066062 -0.984991 0.159466
vn 0.066064 -0.984991 0.159465
vn -0.066056 -0.984989 0.159475
vn 0.066062 -0.984991 0.159466
vn 0.159480 -0.984990 0.066035
vn 0.159480 -0.984990 0.066035
vn 0.066064 -0.984991 0.159465
vn 0.159480 -0.984990 0.066035
vn 0.159480 -0.984990 -0.066035
vn 0.159480 -0.984990 -0.066035
vn 0.159480 -0.984990 0.066035
vn 0.192176 0.978129 0.079572
vn 0.192174 0.978129 0.079576
vn 0.192175 0.978129 -0.079576
vn 0.192176 0.978129 -0.079571
s off
f 2/1/1 3/2/2 1/3/3 6/13/4
f 5/4/5 6/5/6 4/6/7 8/7/8
f 9/8/9 7/9/10 8/7/11 4/6/12
f 11/10/13 12/11/14 10/12/15 45/16/16
f 13/14/17 14/15/18 12/19/19 22/20/20
f 17/17/21 15/18/22 16/23/23 18/24/24
f 19/21/25 7/22/26 18/28/27 16/31/28
f 20/32/29 1/3/30 3/2/31 25/33/32
f 14/25/33 13/26/34 21/27/35 30/29/36
f 1/30/37 20/35/38 11/10/39 45/16/40
f 8/7/41 7/9/42 19/39/43 28/40/44
f 22/41/45 12/11/46 11/10/47 29/42/48
f 23/34/49 2/1/50 6/13/51 5/36/52
f 16/23/53 15/18/54 24/43/55 32/46/56
f 26/37/57 19/21/58 16/31/59 32/38/60
f 27/44/61 13/14/62 22/20/63 33/45/64
f 5/4/65 8/7/66 28/40/67 36/47/68
f 30/29/69 21/27/70 31/48/71 24/43/72
f 3/2/73 49/52/74 51/53/75 25/33/76
f 32/46/77 24/43/78 31/48/79 27/49/80
f 33/50/81 22/41/82 29/42/83 37/51/84
f 11/10/85 20/35/86 34/54/87 29/42/88
f 33/45/89 26/37/90 32/38/91 27/44/92
f 19/39/93 26/57/94 35/58/95 28/40/96
f 31/48/97 21/27/98 13/26/99 27/49/100
f 23/34/101 5/36/102 36/55/103 38/56/104
f 34/59/105 20/32/106 25/33/107 39/60/108
f 26/57/109 33/50/110 37/51/111 35/58/112
f 36/47/113 28/40/114 35/58/115 41/63/116
f 37/51/117 29/42/118 34/54/119 40/64/120
f 25/33/121 51/53/122 53/61/123 39/60/124
f 35/58/125 37/51/126 40/64/127 41/63/128
f 42/62/129 38/56/130 36/55/131 41/66/132
f 34/59/133 39/60/134 43/67/135 40/68/136
f 42/62/137 41/66/138 40/68/139 43/67/140
f 43/67/141 39/60/142 53/61/143 56/69/144
f 44/65/145 30/29/146 24/43/147 15/18/148
f 10/73/149 12/19/150 14/15/151 47/74/152
f 46/75/153 18/28/154 7/22/155 9/76/156
f 4/6/157 6/5/158 1/30/159 45/16/160
f 45/16/161 10/12/162 9/8/163 4/6/164
f 14/25/165 30/29/166 44/65/167 47/70/168
f 48/71/169 17/17/170 18/24/171 46/72/172
f 46/72/173 47/70/174 44/65/175 48/71/176
f 44/65/177 15/18/178 17/17/179 48/71/180
f 46/75/181 9/76/182 10/73/183 47/74/184
f 50/77/185 49/52/186 3/2/187 2/1/188
f 52/78/189 50/77/190 2/1/191 23/34/192
f 54/79/193 52/78/194 23/34/195 38/56/196
f 55/80/197 54/79/198 38/56/199 42/62/200
f 56/69/201 55/80/202 42/62/203 43/67/204
f 74/81/205 75/82/206 85/83/207 84/84/208
f 76/85/209 74/81/210 84/84/211 87/86/212
f 78/87/213 76/85/214 87/86/215 91/88/216
f 80/89/217 78/87/218 91/88/219 95/90/220
f 81/91/221 80/89/222 95/90/223 97/92/224
f 57/113/225 58/114/226 66/115/227 65/116/228
f 58/114/229 59/117/230 67/118/231 66/115/232
f 60/119/233 57/113/234 65/116/235 68/120/236
f 59/117/237 61/121/238 69/122/239 67/118/240
f 62/123/241 60/119/242 68/120/243 70/124/244
f 61/121/245 63/125/246 71/126/247 69/122/248
f 63/125/249 64/127/250 72/128/251 71/126/252
f 64/127/253 62/123/254 70/124/255 72/128/256
f 65/116/257 66/115/258 73/129/259
f 66/115/260 67/118/261 73/129/262
f 68/120/263 65/116/264 73/129/265
f 67/118/266 69/122/267 73/129/268
f 70/124/269 68/120/270 73/129/271
f 69/122/272 71/126/273 73/129/274
f 71/126/275 72/128/276 73/129/277
f 72/128/278 70/124/279 73/129/280
f 82/93/281 83/94/282 84/84/283 85/83/284
f 58/95/285 57/96/286 75/82/287 74/81/288
f 83/94/289 86/97/290 87/86/291 84/84/292
f 59/98/293 58/95/294 74/81/295 76/85/296
f 88/99/297 82/93/298 85/83/299 89/100/300
f 57/96/301 60/101/302 77/102/303 75/82/304
f 86/97/305 90/103/306 91/88/307 87/86/308
f 61/104/309 59/98/310 76/85/311 78/87/312
f 92/105/313 88/99/314 89/100/315 93/106/316
f 60/101/317 62/107/318 79/108/319 77/102/320
f 90/103/321 94/109/322 95/90/323 91/88/324
f 63/110/325 61/104/326 78/87/327 80/89/328
f 94/109/329 96/111/330 97/92/331 95/90/332
f 64/112/333 63/110/334 80/89/335 81/91/336
f 96/111/337 92/105/338 93/106/339 97/92/340
f 62/107/341 64/112/342 81/91/343 79/108/344
f 49/130/345 50/131/346 83/94/347 82/93/348
f 50/131/349 52/132/350 86/97/351 83/94/352
f 51/133/353 49/130/354 82/93/355 88/99/356
f 77/102/357 89/100/358 85/83/359 75/82/360
f 52/132/361 54/134/362 90/103/363 86/97/364
f 53/135/365 51/133/366 88/99/367 92/105/368
f 79/108/369 93/106/370 89/100/371 77/102/372
f 54/134/373 55/136/374 94/109/375 90/103/376
f 55/136/377 56/137/378 96/111/379 94/109/380
f 56/137/381 53/135/382 92/105/383 96/111/384
f 81/91/385 97/92/386 93/106/387 79/108/388
