# This file uses centimeters as units for non-parametric coordinates.

v -54.688103 91.532204 -71.982819
v -11.015195 115.349815 -43.095131
v -8.668411 91.532204 -90.984146
v -86.143021 91.532204 -29.951399
v -84.776367 91.532204 34.900616
v -67.881989 100.931396 -1.034327
v -59.520275 97.767906 -14.383330
v -62.436806 108.884399 -19.439341
v -63.217789 106.978180 -30.220209
v 57.417133 91.532204 -71.079964
v -67.881989 97.413361 37.806419
v -42.237232 103.383636 10.983037
v -51.513435 94.466248 -35.299000
v -7.540726 133.543991 -9.951277
v 1.543067 132.115631 -26.647652
v -48.857349 98.991806 -10.029791
v 48.587860 94.595863 -57.779366
v 39.255901 96.121902 -48.638226
v -49.315826 88.990555 51.706455
v -41.067066 110.107986 23.952106
v -1.423206 122.380081 -14.130013
v -5.689425 124.311562 6.503657
v -45.322426 99.607719 49.350513
v -30.756083 95.229202 39.252304
v -24.881189 146.477005 16.856358
v 64.528992 103.999947 -55.453587
v -8.968872 138.536835 13.839603
v 3.698733 126.099045 -12.677517
v -27.137178 140.398972 6.246383
v 51.132675 99.034210 -29.625797
v -46.808876 91.532204 76.880714
v -13.277082 91.532204 89.561584
v -0.634359 108.709839 46.993069
v 10.968728 127.699059 -5.218315
v 10.835532 130.957687 14.711746
v 3.173648 105.525162 33.301384
v -18.893023 103.481758 -11.254989
v -6.663671 137.545563 -26.099957
v 17.718191 138.176178 7.918774
v -10.510583 128.103424 -16.099325
v -46.645313 96.926353 30.210688
v -54.263763 90.824417 48.024010
v 85.561340 91.532204 -30.256762
v 68.276329 100.319656 10.983021
v 74.033531 91.532204 48.671936
v 59.929489 95.494156 -51.509621
v 63.822220 95.713364 -45.363781
v 66.666321 97.413361 37.806404
v 44.241600 86.344490 52.612411
v 34.493496 91.532204 84.797844
v -0.166539 117.501282 17.790447
v 15.811897 114.509331 8.445600
v -15.759015 118.708054 23.000402
v -21.422531 98.074966 35.017773
v 27.927126 111.506836 1.605016
v 2.162801 115.592377 -20.270180
v 11.380801 113.181923 29.208353
v 65.056282 101.543159 -13.051715
v -35.076942 92.588554 45.013496
v -28.406858 110.975975 17.531918
v 9.417778 106.838394 41.246845
v 40.278412 101.131691 23.429447
v 20.206850 98.111084 -37.086449
v 18.622835 114.858498 5.441532
v 20.084681 108.050919 -11.364062
v 20.411493 124.972115 0.400003
v 11.890153 115.771408 -3.421916
v 19.810049 133.227448 -5.960903
v 36.637875 124.000343 -26.168100
v 14.199781 132.788910 -9.765167
v -36.483105 119.875221 35.299194
v -31.087048 132.247726 26.721420
v -29.420259 123.676819 28.355104
v -35.108128 123.304893 26.168205
v -55.500332 110.660492 -27.410711
v -34.170898 120.837646 -19.645845
v -42.163246 112.092224 -25.100807
v -46.087101 115.792160 -19.601845
vt 0.080532 0.227082
vt 0.080397 0.256492
vt 0.080276 0.227098
vt 0.080765 0.227156
vt 0.080595 0.256533
vt 0.080506 0.256611
vt 0.080753 0.256582
vt 0.080941 0.227360
vt 0.080860 0.256707
vt 0.080681 0.256567
vt 0.080684 0.256511
vt 0.080660 0.256489
vt 0.080018 0.227222
vt 0.080670 0.256643
vt 0.038534 0.255318
vt 0.080417 0.256559
vt 0.080645 0.256589
vt 0.038487 0.255206
vt 0.080373 0.256492
vt 0.080456 0.256520
vt 0.080385 0.256571
vt 0.080154 0.255031
vt 0.038898 0.234489
vt 0.080110 0.255061
vt 0.080561 0.255021
vt 0.080701 0.256659
vt 0.080593 0.256514
vt 0.080414 0.256462
vt 0.038915 0.234579
vt 0.038545 0.255153
vt 0.038670 0.255195
vt 0.080627 0.255142
vt 0.080215 0.255039
vt 0.080395 0.256556
vt 0.038990 0.234449
vt 0.080342 0.256623
vt 0.080192 0.255100
vt 0.080748 0.255175
vt 0.080663 0.255163
vt 0.080758 0.227660
vt 0.080634 0.256767
vt 0.080901 0.227554
vt 0.038594 0.255180
vt 0.080376 0.256583
vt 0.039014 0.225046
vt 0.080677 0.255083
vt 0.079667 0.255245
vt 0.079492 0.255251
vt 0.080565 0.256801
vt 0.080761 0.255149
vt 0.079941 0.227397
vt 0.080090 0.256734
vt 0.080159 0.227666
vt 0.080187 0.256925
vt 0.080101 0.255083
vt 0.080345 0.256979
vt 0.080479 0.227728
vt 0.080376 0.256633
vt 0.080381 0.255078
vt 0.080457 0.256745
vt 0.080487 0.256674
vt 0.080509 0.256773
vt 0.079679 0.255117
vt 0.080363 0.256674
vt 0.079756 0.255109
vt 0.080578 0.256663
vt 0.080498 0.256805
vt 0.080265 0.256610
vt 0.039145 0.255958
vt 0.039126 0.225063
vt 0.038826 0.255299
vt 0.038865 0.255034
vt 0.038950 0.254958
vt 0.038925 0.254973
vt 0.038858 0.255041
vt 0.039008 0.255083
vt 0.038985 0.225333
vt 0.038906 0.225375
vt 0.038999 0.224933
vt 0.038955 0.236403
vt 0.039128 0.236410
vt 0.039175 0.224867
vt 0.038939 0.225248
vt 0.038985 0.225305
vt 0.039155 0.255225
vt 0.039040 0.255306
vt 0.039136 0.255189
vt 0.039338 0.232936
vt 0.039474 0.233127
vt 0.038899 0.225241
vt 0.038864 0.225311
vt 0.039184 0.225043
vt 0.039129 0.232866
vt 0.039174 0.232963
vt 0.039098 0.236411
vt 0.039109 0.255568
vt 0.039042 0.236409
vt 0.038939 0.254965
vt 0.038933 0.254969
vt 0.038960 0.255001
vt 0.038906 0.254996
vt 0.038544 0.255210
vt 0.038701 0.255218
vt 0.038632 0.255246
vt 0.038635 0.255191
vn -0.183713 0.876516 -0.444938
vn -0.183713 0.876516 -0.444938
vn -0.183713 0.876516 -0.444938
vn -0.095119 0.992918 -0.071183
vn -0.095119 0.992918 -0.071183
vn -0.095119 0.992918 -0.071183
vn -0.443516 0.892143 0.085875
vn -0.443516 0.892143 0.085875
vn -0.443517 0.892143 0.085875
vn -0.443516 0.892143 0.085875
vn -0.425808 0.904086 0.036285
vn -0.425808 0.904086 0.036285
vn -0.425808 0.904086 0.036285
vn -0.425808 0.904086 0.036285
vn -0.972579 -0.206514 0.106970
vn -0.972579 -0.206514 0.106970
vn -0.972579 -0.206514 0.106970
vn 0.131403 0.890163 -0.436283
vn 0.131403 0.890163 -0.436283
vn 0.131403 0.890163 -0.436283
vn -0.136223 0.986639 0.089366
vn -0.136223 0.986639 0.089366
vn -0.136223 0.986639 0.089366
vn 0.113874 0.451600 -0.884924
vn 0.104104 0.456133 -0.883802
vn 0.104104 0.456133 -0.883802
vn 0.123404 0.443476 -0.887750
vn 0.113874 0.451600 -0.884924
vn 0.123404 0.443476 -0.887750
vn 0.130449 0.425507 -0.895504
vn 0.130449 0.425507 -0.895504
vn 0.123404 0.443476 -0.887750
vn 0.131247 0.421757 -0.897160
vn 0.131247 0.421757 -0.897160
vn -0.386840 0.912460 -0.133314
vn -0.386840 0.912460 -0.133312
vn -0.386840 0.912460 -0.133312
vn -0.386840 0.912460 -0.133312
vn -0.386840 0.912460 -0.133314
vn -0.386840 0.912460 -0.133312
vn -0.386840 0.912459 -0.133314
vn -0.386840 0.912460 -0.133314
vn -0.573745 0.685050 0.448914
vn -0.573745 0.685050 0.448914
vn -0.573745 0.685050 0.448914
vn -0.167624 0.232117 -0.958136
vn -0.167624 0.232117 -0.958136
vn -0.167624 0.232117 -0.958136
vn -0.556196 0.826952 0.082444
vn -0.556196 0.826952 0.082444
vn -0.556196 0.826952 0.082444
vn 0.667267 0.700944 0.251859
vn 0.667267 0.700944 0.251859
vn 0.667267 0.700944 0.251859
vn -0.002014 0.976647 -0.214843
vn -0.002014 0.976647 -0.214843
vn -0.002014 0.976647 -0.214843
vn -0.002014 0.976647 -0.214843
vn 0.563124 0.315858 0.763627
vn 0.563124 0.315858 0.763627
vn 0.563124 0.315858 0.763627
vn -0.390012 0.294484 0.872451
vn -0.390012 0.294484 0.872451
vn -0.390011 0.294484 0.872451
vn 0.433985 -0.561397 -0.704621
vn 0.433985 -0.561397 -0.704621
vn 0.433985 -0.561397 -0.704621
vn -0.412893 -0.310583 -0.856188
vn -0.412893 -0.310583 -0.856188
vn -0.412893 -0.310583 -0.856188
vn 0.406721 -0.728160 0.551689
vn 0.406721 -0.728160 0.551689
vn 0.406721 -0.728160 0.551689
vn 0.406721 -0.728160 0.551689
vn 0.424708 0.571039 0.702522
vn 0.424708 0.571039 0.702522
vn 0.424708 0.571039 0.702522
vn -0.912299 0.409199 0.016321
vn -0.912299 0.409199 0.016321
vn -0.912299 0.409199 0.016321
vn -0.912299 0.409199 0.016321
vn -0.910713 0.412917 -0.010080
vn -0.910713 0.412917 -0.010080
vn -0.910713 0.412917 -0.010080
vn -0.917467 0.397368 -0.018795
vn -0.917467 0.397368 -0.018795
vn -0.917467 0.397368 -0.018795
vn -0.917467 0.397368 -0.018795
vn 0.748534 -0.572699 -0.334235
vn 0.748534 -0.572699 -0.334235
vn 0.748534 -0.572699 -0.334235
vn 0.330365 -0.350409 -0.876397
vn 0.330365 -0.350409 -0.876397
vn 0.330365 -0.350409 -0.876397
vn 0.889539 0.433800 0.143314
vn 0.889539 0.433800 0.143314
vn 0.889539 0.433800 0.143314
vn 0.138973 0.939449 -0.313245
vn 0.138973 0.939449 -0.313245
vn 0.138973 0.939449 -0.313245
vn 0.571891 -0.611799 -0.546482
vn 0.571891 -0.611799 -0.546482
vn 0.571891 -0.611799 -0.546482
vn 0.601745 0.260906 0.754871
vn 0.601745 0.260906 0.754871
vn 0.601745 0.260906 0.754871
vn 0.601745 0.260906 0.754871
vn 0.370504 0.335956 0.865945
vn 0.370504 0.335956 0.865945
vn 0.370504 0.335956 0.865945
vn 0.370504 0.335956 0.865945
vn 0.601744 0.260907 0.754872
vn 0.601744 0.260907 0.754872
vn 0.601744 0.260907 0.754872
vn 0.415567 0.045275 0.908435
vn 0.415567 0.045275 0.908435
vn 0.415567 0.045275 0.908435
vn -0.263835 0.950944 0.161545
vn -0.263835 0.950944 0.161545
vn -0.263835 0.950944 0.161545
vn -0.263835 0.950944 0.161545
vn -0.191374 0.974548 0.116758
vn -0.191374 0.974548 0.116758
vn -0.191374 0.974548 0.116758
vn 0.039428 0.993768 -0.104259
vn 0.039428 0.993768 -0.104259
vn 0.039428 0.993768 -0.104259
vn 0.299799 0.798907 -0.521410
vn 0.299799 0.798907 -0.521410
vn 0.299799 0.798907 -0.521410
vn -0.768390 0.630758 -0.108265
vn -0.768390 0.630758 -0.108265
vn -0.768390 0.630758 -0.108265
vn -0.426907 -0.234064 -0.873478
vn -0.426907 -0.234064 -0.873478
vn -0.426907 -0.234064 -0.873478
vn 0.230268 -0.799529 -0.554735
vn 0.230268 -0.799529 -0.554735
vn 0.230268 -0.799529 -0.554735
vn 0.333077 0.529509 0.780179
vn 0.333077 0.529509 0.780179
vn 0.333077 0.529509 0.780179
vn 0.333077 0.529509 0.780179
vn -0.527656 0.830509 0.178422
vn -0.527656 0.830509 0.178422
vn -0.527656 0.830509 0.178422
vn -0.469476 0.355888 0.808045
vn -0.469476 0.355888 0.808045
vn -0.469476 0.355888 0.808045
vn 0.430705 0.902416 -0.011766
vn 0.430704 0.902416 -0.011766
vn 0.430705 0.902416 -0.011766
vn -0.836023 0.548365 -0.019039
vn -0.836023 0.548365 -0.019039
vn -0.836023 0.548365 -0.019039
vn -0.836023 0.548365 -0.019039
vn -0.378599 0.769117 -0.514900
vn -0.378599 0.769117 -0.514900
vn -0.378599 0.769117 -0.514900
vn 0.593426 0.799181 0.095686
vn 0.593426 0.799181 0.095686
vn 0.593426 0.799181 0.095686
vn 0.593426 0.799181 0.095686
vn 0.700351 -0.574894 -0.423092
vn 0.700351 -0.574894 -0.423092
vn 0.700351 -0.574894 -0.423092
vn 0.594899 0.461858 0.657862
vn 0.594899 0.461858 0.657862
vn 0.594899 0.461858 0.657862
vn -0.170721 0.985298 0.006429
vn -0.170721 0.985298 0.006429
vn -0.170721 0.985298 0.006429
vn -0.170721 0.985298 0.006429
vn -0.360321 0.874054 0.325880
vn -0.360321 0.874054 0.325880
vn -0.360321 0.874054 0.325880
vn 0.156593 0.911908 0.379345
vn 0.156593 0.911908 0.379345
vn 0.156593 0.911908 0.379345
vn 0.499373 0.853314 -0.149938
vn 0.499373 0.853314 -0.149938
vn 0.499373 0.853314 -0.149938
vn 0.499373 0.853314 -0.149938
vn 0.718187 0.512227 0.470990
vn 0.718187 0.512227 0.470990
vn 0.718187 0.512227 0.470990
vn 0.288491 -0.550309 0.783539
vn 0.288491 -0.550309 0.783539
vn 0.288491 -0.550309 0.783539
vn 0.288491 -0.550309 0.783539
vn -0.348377 0.704158 0.618705
vn -0.348377 0.704158 0.618705
vn -0.348377 0.704158 0.618705
vn -0.471085 -0.712507 -0.520012
vn -0.471085 -0.712507 -0.520012
vn -0.471085 -0.712507 -0.520012
vn -0.951546 -0.304425 0.043415
vn -0.951546 -0.304425 0.043415
vn -0.951547 -0.304425 0.043415
vn -0.469005 -0.712656 -0.521685
vn -0.469005 -0.712656 -0.521685
vn -0.469005 -0.712656 -0.521685
vn -0.531518 0.832248 0.157643
vn -0.531518 0.832248 0.157643
vn -0.531518 0.832248 0.157643
vn -0.145513 0.808415 0.570344
vn -0.145513 0.808415 0.570344
vn -0.145513 0.808415 0.570344
vn -0.145513 0.808415 0.570344
vn -0.610265 0.517072 0.600177
vn -0.610265 0.517072 0.600177
vn -0.610265 0.517072 0.600177
vn -0.586726 0.521749 0.619298
vn -0.586726 0.521749 0.619298
vn -0.586726 0.521749 0.619298
vn 0.644669 0.400878 -0.650922
vn 0.644669 0.400878 -0.650922
vn 0.644669 0.400878 -0.650922
vn 0.264197 0.964371 0.013696
vn 0.264197 0.964371 0.013696
vn 0.264197 0.964371 0.013696
vn 0.888023 0.436159 0.145532
vn 0.888023 0.436159 0.145532
vn 0.888023 0.436159 0.145532
vn -0.559710 0.767286 0.313045
vn -0.559710 0.767286 0.313045
vn -0.559710 0.767286 0.313045
vn 0.144537 0.927543 0.344635
vn 0.144537 0.927543 0.344635
vn 0.144537 0.927543 0.344635
vn 0.374801 0.846528 0.378041
vn 0.374801 0.846528 0.378041
vn 0.374801 0.846528 0.378041
vn 0.246990 0.962261 0.114232
vn 0.246990 0.962262 0.114232
vn 0.246990 0.962261 0.114232
vn -0.063088 0.914104 -0.400542
vn -0.063088 0.914104 -0.400542
vn -0.063088 0.914104 -0.400542
vn -0.063088 0.914104 -0.400542
vn -0.152608 0.975914 -0.155892
vn -0.152608 0.975914 -0.155892
vn -0.152608 0.975914 -0.155892
vn -0.325168 0.883401 -0.337445
vn -0.325168 0.883401 -0.337445
vn -0.325168 0.883401 -0.337445
vn -0.375033 0.859349 -0.347663
vn -0.375033 0.859349 -0.347663
vn -0.375033 0.859349 -0.347663
vn -0.059601 0.967413 -0.246088
vn -0.059601 0.967413 -0.246088
vn -0.059601 0.967413 -0.246088
vn -0.059601 0.967413 -0.246088
vn 0.169361 0.943420 -0.285090
vn 0.169361 0.943420 -0.285090
vn 0.169361 0.943420 -0.285090
vn 0.169361 0.943420 -0.285090
vn 0.212161 0.976608 -0.035005
vn 0.212161 0.976608 -0.035005
vn 0.212161 0.976608 -0.035005
vn 0.333309 0.913927 -0.231611
vn 0.333309 0.913927 -0.231611
vn 0.333309 0.913926 -0.231611
vn 0.333309 0.913926 -0.231611
vn 0.034459 0.978665 -0.202552
vn 0.034459 0.978665 -0.202552
vn 0.034459 0.978665 -0.202552
vn 0.418656 0.859975 0.291840
vn 0.418656 0.859975 0.291840
vn 0.418656 0.859975 0.291840
vn 0.386144 0.482200 -0.786369
vn 0.386144 0.482200 -0.786369
vn 0.386144 0.482200 -0.786369
vn 0.386144 0.482200 -0.786369
vn -0.030434 0.952737 0.302267
vn -0.030434 0.952737 0.302267
vn -0.030434 0.952737 0.302267
vn -0.030434 0.952737 0.302267
vn -0.631187 -0.435478 0.641843
vn -0.631187 -0.435478 0.641843
vn -0.631187 -0.435478 0.641843
vn 0.438927 0.896360 0.062305
vn 0.438928 0.896360 0.062305
vn 0.438927 0.896360 0.062305
vn 0.438927 0.896360 0.062305
vn 0.168755 0.943067 0.286614
vn 0.168755 0.943067 0.286614
vn 0.168755 0.943067 0.286614
vn 0.038262 0.922670 0.383688
vn 0.038262 0.922670 0.383688
vn 0.038262 0.922670 0.383688
vn 0.494148 0.814118 -0.305007
vn 0.494148 0.814118 -0.305007
vn 0.494148 0.814118 -0.305007
vn 0.494148 0.814118 -0.305007
vn 0.492536 0.820694 -0.289602
vn 0.492536 0.820694 -0.289602
vn 0.492536 0.820694 -0.289602
vn 0.778866 0.251050 0.574754
vn 0.778866 0.251050 0.574754
vn 0.778866 0.251050 0.574754
vn 0.113493 0.940822 -0.319334
vn 0.113493 0.940822 -0.319333
vn 0.113493 0.940822 -0.319333
vn 0.113493 0.940822 -0.319333
vn -0.120619 0.925775 -0.358318
vn -0.120619 0.925775 -0.358318
vn -0.120619 0.925775 -0.358318
vn 0.596359 0.721436 -0.351974
vn 0.596359 0.721436 -0.351974
vn 0.596359 0.721436 -0.351974
vn -0.370978 0.902551 0.218579
vn -0.370978 0.902551 0.218579
vn -0.370978 0.902551 0.218579
vn -0.370978 0.902551 0.218579
vn -0.343868 0.292623 0.892259
vn -0.343868 0.292623 0.892259
vn -0.343869 0.292623 0.892259
vn -0.949857 0.289206 -0.118874
vn -0.949857 0.289206 -0.118874
vn -0.949857 0.289206 -0.118874
vn -0.949857 0.289206 -0.118874
vn 0.416818 0.863733 0.283246
vn 0.416818 0.863733 0.283246
vn 0.416818 0.863733 0.283246
vn 0.416818 0.863733 0.283246
vn -0.726778 -0.670645 -0.148419
vn -0.726778 -0.670645 -0.148419
vn -0.726778 -0.670645 -0.148419
vn -0.726778 -0.670645 -0.148419
vn -0.590898 0.225508 0.774588
vn -0.590898 0.225508 0.774588
vn -0.590898 0.225508 0.774588
vn 0.061738 0.975793 -0.209799
vn 0.061738 0.975793 -0.209799
vn 0.061738 0.975793 -0.209799
vn 0.298969 0.326706 -0.896594
vn 0.298969 0.326706 -0.896594
vn 0.298969 0.326706 -0.896594
vn 0.785067 0.389039 0.481995
vn 0.785067 0.389039 0.481995
vn 0.785067 0.389039 0.481995
vn 0.788859 0.399295 0.467189
vn 0.788859 0.399295 0.467189
vn 0.788859 0.399295 0.467189
vn 0.788859 0.399295 0.467189
vn -0.351593 0.567238 -0.744730
vn -0.351593 0.567238 -0.744730
vn -0.351593 0.567238 -0.744730
vn -0.351593 0.567238 -0.744730
vn -0.204729 0.642739 -0.738223
vn -0.204729 0.642739 -0.738223
vn -0.204729 0.642739 -0.738223
vn -0.512358 0.500422 0.697902
vn -0.512358 0.500422 0.697902
vn -0.512358 0.500422 0.697902
vn -0.512358 0.500422 0.697902
vn -0.362880 0.105895 0.925799
vn -0.362880 0.105895 0.925799
vn -0.362880 0.105895 0.925799
vn -0.184227 0.928929 0.321173
vn -0.184227 0.928929 0.321173
vn -0.184227 0.928929 0.321173
vn -0.321541 0.382522 0.866192
vn -0.321541 0.382522 0.866192
vn -0.321541 0.382522 0.866192
vn -0.292047 0.683913 -0.668559
vn -0.292047 0.683913 -0.668559
vn -0.292047 0.683913 -0.668559
vn 0.006799 0.831899 -0.554886
vn 0.006799 0.831899 -0.554886
vn 0.006799 0.831899 -0.554886
s off
f 1/1/1 2/2/2 3/3/3
f 4/4/4 13/5/5 1/1/6
f 2/2/7 1/1/8 13/5/9 37/6/10
f 6/7/11 4/4/12 5/8/13 11/9/14
f 7/10/15 8/11/16 9/12/17
f 3/3/18 2/2/19 10/13/20
f 11/9/21 12/14/22 6/7/23
f 13/15/24 9/18/25 75/102/26 77/104/27
f 13/15/28 77/104/29 21/29/30
f 21/29/31 77/104/32 76/103/33 14/23/34
f 8/30/35 14/23/36 76/103/37 78/105/38
f 8/30/39 78/105/40 75/102/41 9/18/42
f 14/23/43 16/31/44 22/35/45
f 13/5/46 4/4/47 9/12/48
f 4/4/49 6/7/50 9/12/51
f 9/12/52 6/7/53 7/10/54
f 6/7/55 12/14/56 16/17/57 7/10/58
f 15/19/59 40/20/60 56/21/61
f 16/31/62 8/30/63 7/43/64
f 17/45/65 26/69/66 46/70/67
f 60/25/68 20/26/69 29/27/70
f 21/29/71 22/35/72 16/31/73 37/71/74
f 15/19/75 38/28/76 40/20/77
f 20/72/78 23/73/79 71/98/80 74/101/81
f 20/72/82 74/101/83 29/75/84
f 29/75/85 74/101/86 72/99/87 25/74/88
f 27/76/89 24/77/90 60/78/91
f 29/75/92 27/76/93 60/78/94
f 14/23/95 22/35/96 21/29/97
f 70/97/98 68/95/99 69/96/100
f 37/6/101 13/5/102 21/16/103
f 71/98/104 23/73/105 24/77/106 73/100/107
f 24/77/108 27/76/109 25/74/110 73/100/111
f 25/74/112 72/99/113 73/100/114
f 23/73/115 19/83/116 59/84/117
f 59/39/118 32/40/119 54/41/120 24/32/121
f 32/40/122 59/39/123 19/38/124
f 19/38/125 31/42/126 32/40/127
f 25/74/128 27/76/129 29/75/130
f 39/85/131 34/86/132 35/87/133
f 41/46/134 20/26/135 60/25/136
f 24/32/137 41/46/138 60/25/139
f 39/85/140 35/87/141 62/88/142 44/89/143
f 33/49/144 54/41/145 32/40/146
f 19/83/147 23/73/148 42/90/149
f 44/48/150 43/51/151 58/52/152
f 42/90/153 23/73/154 20/72/155 41/91/156
f 26/69/157 17/45/158 18/79/159
f 45/53/160 43/51/161 44/48/162 48/54/163
f 46/70/164 26/69/165 47/92/166
f 24/77/167 23/73/168 59/84/169
f 45/53/170 48/54/171 49/56/172 50/57/173
f 5/8/174 31/42/175 11/9/176
f 11/9/177 42/50/178 41/46/179
f 42/50/180 11/9/181 31/42/182 19/38/183
f 26/69/184 30/82/185 47/92/186
f 30/37/187 66/36/188 67/58/189 65/59/190
f 57/60/191 51/61/192 36/62/193
f 34/44/194 55/63/195 64/64/196
f 35/87/197 34/86/198 52/93/199
f 52/65/200 34/44/201 64/64/202
f 12/14/203 41/46/204 60/25/205
f 60/25/206 41/46/207 24/32/208 54/41/209
f 33/49/210 53/66/211 54/41/212
f 60/25/213 54/41/214 53/66/215
f 55/94/216 34/86/217 39/85/218
f 55/63/219 44/48/220 58/52/221
f 36/62/222 51/61/223 33/49/224
f 57/60/225 36/62/226 61/67/227
f 11/9/228 41/46/229 12/14/230
f 49/56/231 62/47/232 61/67/233
f 57/60/234 52/65/235 51/61/236
f 51/61/237 52/65/238 37/6/239 53/66/240
f 16/17/241 12/14/242 37/6/243
f 37/6/244 12/14/245 60/25/246
f 53/66/247 37/6/248 60/25/249
f 10/13/250 63/68/251 18/33/252 17/22/253
f 58/52/254 43/51/255 30/37/256 55/63/257
f 30/37/258 43/51/259 47/55/260
f 47/55/261 43/51/262 10/13/263 46/24/264
f 10/13/265 17/22/266 46/24/267
f 10/13/268 2/2/269 63/68/270
f 2/2/271 38/28/272 15/19/273 63/68/274
f 44/48/275 62/47/276 49/56/277 48/54/278
f 52/93/279 62/88/280 35/87/281
f 50/57/282 49/56/283 61/67/284 33/49/285
f 53/66/286 33/49/287 51/61/288
f 32/40/289 50/57/290 33/49/291
f 56/21/292 67/58/293 65/59/294 63/68/295
f 65/59/296 67/58/297 64/64/298
f 15/19/299 56/21/300 63/68/301
f 55/63/302 30/37/303 65/59/304 64/64/305
f 18/33/306 63/68/307 65/59/308
f 56/21/309 40/20/310 67/58/311
f 37/6/312 52/65/313 64/64/314 67/58/315
f 67/58/316 40/20/317 37/6/318
f 38/28/319 2/2/320 37/6/321 40/20/322
f 61/67/323 62/47/324 52/65/325 57/60/326
f 28/34/327 18/33/328 65/59/329 67/58/330
f 67/58/331 66/36/332 28/34/333
f 61/67/334 36/62/335 33/49/336
f 55/94/337 39/85/338 44/89/339
f 26/69/340 69/96/341 30/82/342
f 66/81/343 30/82/344 69/96/345 68/95/346
f 69/96/347 26/69/348 18/79/349 70/97/350
f 28/80/351 70/97/352 18/79/353
f 68/95/354 70/97/355 28/80/356 66/81/357
f 72/99/358 74/101/359 73/100/360
f 74/101/361 71/98/362 73/100/363
f 14/23/364 8/30/365 16/31/366
f 76/103/367 77/104/368 78/105/369
f 77/104/370 75/102/371 78/105/372
