# This file uses centimeters as units for non-parametric coordinates.

v 1.645996 24.048527 10.837389
v 21.787109 2.095450 3.996904
v 21.381348 0.855960 -9.990461
v 24.867676 6.643886 -2.177824
v -7.678101 14.658702 -21.564283
v 19.060425 24.048527 1.455286
v 24.064209 20.889093 -1.675070
v 19.443604 22.171871 -8.429876
v -7.612061 0.000000 24.599287
v -12.395874 0.000022 6.801546
v -3.329224 19.679392 -5.283995
v -11.305908 8.912408 20.898161
v -8.194092 24.048527 5.244234
v -8.659912 0.469559 -24.599287
v -6.743164 24.718435 12.113962
v -18.983154 11.471234 -17.472967
v -20.000732 5.954247 18.980520
v -19.965088 0.469559 -20.507971
v -24.661621 0.000022 6.801546
v -20.908447 0.000000 19.548399
v -24.867676 8.651596 5.195383
v -11.296265 9.447660 6.070406
vt 0.609009 0.749141
vt 0.577657 0.768072
vt 0.574238 0.751258
vt 0.615918 0.747704
vt 0.608509 0.739146
vt 0.620274 0.766298
vt 0.623632 0.761013
vt 0.629299 0.799442
vt 0.615436 0.789782
vt 0.625617 0.769358
vt 0.630082 0.758295
vt 0.619223 0.740947
vt 0.651375 0.736315
vt 0.602092 0.779810
vt 0.581378 0.776984
vt 0.602914 0.790464
vt 0.645366 0.723662
vt 0.580598 0.721851
vt 0.596707 0.786345
vt 0.561430 0.784884
vt 0.567976 0.790044
vt 0.566443 0.811873
vt 0.554929 0.810629
vt 0.580355 0.791442
vt 0.594573 0.793498
vt 0.588802 0.804746
vt 0.577119 0.818423
vt 0.655457 0.718424
vt 0.660540 0.728248
vt 0.562505 0.750431
vt 0.569345 0.724776
vt 0.565324 0.762981
vt 0.572989 0.778650
vt 0.568773 0.774910
vn 0.059862 -0.998077 -0.016091
vn 0.059862 -0.998077 -0.016091
vn 0.059862 -0.998077 -0.016091
vn 0.842155 -0.538731 0.023309
vn 0.842155 -0.538731 0.023309
vn 0.842155 -0.538731 0.023309
vn 0.742179 0.109620 0.661176
vn 0.742179 0.109620 0.661176
vn 0.742179 0.109620 0.661176
vn 0.742179 0.109620 0.661176
vn -0.140200 0.956081 -0.257395
vn -0.140200 0.956081 -0.257395
vn -0.140200 0.956081 -0.257395
vn -0.132697 0.972809 -0.189828
vn -0.132697 0.972809 -0.189828
vn -0.132697 0.972809 -0.189828
vn 0.410112 0.103621 -0.906129
vn 0.410112 0.103621 -0.906129
vn 0.410112 0.103621 -0.906129
vn 0.481953 0.288007 0.827510
vn 0.481953 0.288007 0.827510
vn 0.481953 0.288007 0.827510
vn 0.481953 0.288007 0.827510
vn 0.459951 0.875460 -0.148373
vn 0.459951 0.875460 -0.148373
vn 0.459951 0.875460 -0.148373
vn -0.034944 0.967263 -0.251358
vn -0.034944 0.967263 -0.251358
vn -0.034944 0.967263 -0.251358
vn -0.034944 0.967263 -0.251358
vn 0.468282 0.158794 0.869193
vn 0.468282 0.158794 0.869193
vn 0.468282 0.158794 0.869193
vn 0.430002 0.160290 -0.888485
vn 0.430002 0.160290 -0.888485
vn 0.430002 0.160290 -0.888485
vn 0.035024 -0.999196 0.019520
vn 0.035024 -0.999196 0.019520
vn 0.035024 -0.999196 0.019520
vn 0.035024 -0.999196 0.019520
vn 0.169336 0.440960 0.881408
vn 0.169336 0.440960 0.881408
vn 0.169336 0.440960 0.881408
vn 0.062485 0.991973 -0.109930
vn 0.062485 0.991973 -0.109930
vn 0.062485 0.991973 -0.109930
vn -0.977626 0.053388 -0.203464
vn -0.977626 0.053388 -0.203464
vn -0.977626 0.053388 -0.203464
vn -0.977626 0.053388 -0.203464
vn -0.869670 0.158318 -0.467557
vn -0.869670 0.158318 -0.467557
vn -0.869670 0.158318 -0.467557
vn -0.140340 0.981508 0.130182
vn -0.140340 0.981508 0.130182
vn -0.140340 0.981508 0.130182
vn -0.140340 0.981508 0.130182
vn -0.360282 0.244975 -0.900102
vn -0.360282 0.244975 -0.900102
vn -0.360282 0.244975 -0.900102
vn -0.360282 0.244975 -0.900102
vn -0.002847 -0.999861 -0.016402
vn -0.002847 -0.999861 -0.016402
vn -0.002847 -0.999862 -0.016402
vn -0.002847 -0.999861 -0.016402
vn 0.000000 -1.000000 -0.000002
vn 0.000000 -1.000000 -0.000002
vn 0.000000 -1.000000 -0.000002
vn 0.000000 -1.000000 -0.000002
vn -0.320637 0.205428 0.924657
vn -0.320637 0.205428 0.924657
vn -0.320637 0.205428 0.924657
vn -0.320637 0.205428 0.924657
vn -0.944194 0.092418 0.316160
vn -0.944194 0.092418 0.316160
vn -0.944194 0.092418 0.316160
vn -0.944194 0.092418 0.316160
vn -0.181749 0.973212 0.140804
vn -0.181749 0.973212 0.140804
vn -0.181749 0.973212 0.140804
vn -0.181749 0.973212 0.140804
vn -0.962934 0.262436 0.062335
vn -0.962934 0.262437 0.062335
vn -0.962934 0.262437 0.062335
vn -0.962934 0.262437 0.062335
vn -0.780400 0.625083 0.015695
vn -0.780400 0.625083 0.015695
vn -0.780400 0.625083 0.015695
vn 0.856979 0.095444 -0.506435
vn 0.856979 0.095444 -0.506435
vn 0.856979 0.095444 -0.506435
vn 0.856979 0.095444 -0.506435
s off
f 2/1/1 9/2/2 10/3/3
f 4/4/4 2/1/5 3/5/6
f 6/6/7 2/1/8 4/4/9 7/7/10
f 5/8/11 11/9/12 8/10/13
f 6/6/14 8/10/15 11/9/16
f 8/11/17 3/12/18 5/13/19
f 2/1/20 1/14/21 12/15/22 9/2/23
f 8/10/24 6/6/25 7/7/26
f 1/14/27 6/6/28 11/9/29 13/16/30
f 1/14/31 2/1/32 6/6/33
f 5/13/34 3/12/35 14/17/36
f 10/3/37 14/18/38 3/5/39 2/1/40
f 15/19/41 12/15/42 1/14/43
f 13/16/44 15/19/45 1/14/46
f 19/20/47 21/21/48 16/22/49 18/23/50
f 22/24/51 13/25/52 11/26/53
f 21/21/54 22/24/55 5/27/56 16/22/57
f 5/13/58 14/17/59 18/28/60 16/29/61
f 14/18/62 10/3/63 19/30/64 18/31/65
f 10/3/66 9/2/67 20/32/68 19/30/69
f 9/2/70 12/15/71 17/33/72 20/34/73
f 17/33/74 21/21/75 19/20/76 20/34/77
f 12/15/78 22/24/79 21/21/80 17/33/81
f 12/15/82 15/19/83 13/25/84 22/24/85
f 22/24/86 11/26/87 5/27/88
f 4/4/89 3/12/90 8/11/91 7/7/92
