# This file uses centimeters as units for non-parametric coordinates.

v -4.334930 5.288845 -12.581064
v 22.027802 6.049210 -9.369743
v -15.530441 6.069370 -10.001081
v -21.796021 5.905941 -6.271136
v -21.407425 5.891197 14.204424
v 12.201187 3.143539 13.613676
v 24.298340 5.905941 9.860416
v 33.411484 0.000019 -3.030570
v 33.907516 0.000008 18.753761
v 29.530365 0.000000 24.410902
v -27.131104 0.000000 24.802765
v -31.949615 0.000008 17.771282
v -33.907516 0.000015 -17.953896
v -28.626099 0.000008 -24.802738
v -8.861862 0.000000 -24.802750
v 28.151398 0.000008 -24.802765
v 32.990952 0.000015 -20.797174
v 3.610809 6.118931 -3.009305
v 4.881607 4.476788 6.258292
v -14.321747 5.077145 16.549313
v -8.410172 7.980160 6.258292
v -2.913345 4.439770 17.227816
vt 0.261293 0.125969
vt 0.261735 0.111972
vt 0.261727 0.127657
vt 0.260856 0.111475
vt 0.261319 0.111197
vt 0.260990 0.144165
vt 0.260538 0.113017
vt 0.260769 0.126815
vt 0.260676 0.114518
vt 0.260484 0.107060
vt 0.260718 0.130322
vt 0.260829 0.143495
vt 0.261141 0.111783
vt 0.261135 0.115626
vt 0.261597 0.117448
vt 0.261477 0.121772
vt 0.261915 0.109908
vt 0.261977 0.127395
vt 0.261390 0.145009
vt 0.261002 0.128053
vt 0.261194 0.113529
vt 0.260842 0.112587
vn 0.490832 0.869732 -0.051474
vn 0.490832 0.869732 -0.051474
vn 0.490832 0.869732 -0.051474
vn 0.049593 0.931529 0.360269
vn 0.049593 0.931529 0.360269
vn 0.049593 0.931529 0.360269
vn 0.049593 0.931529 0.360269
vn -0.051826 0.884493 0.463666
vn -0.051826 0.884493 0.463666
vn -0.051826 0.884493 0.463666
vn -0.397497 0.876240 0.272397
vn -0.397497 0.876240 0.272397
vn -0.397497 0.876240 0.272397
vn -0.467348 0.883853 0.019745
vn -0.467348 0.883853 0.019745
vn -0.467348 0.883853 0.019745
vn -0.467348 0.883853 0.019745
vn -0.217482 0.950318 -0.222706
vn -0.217482 0.950318 -0.222706
vn -0.217482 0.950318 -0.222706
vn -0.217482 0.950318 -0.222706
vn -0.008600 0.923837 -0.382690
vn -0.008600 0.923837 -0.382690
vn -0.008600 0.923837 -0.382690
vn -0.008600 0.923837 -0.382690
vn -0.000000 0.917753 -0.397151
vn -0.000000 0.917753 -0.397151
vn -0.000000 0.917753 -0.397151
vn 0.056892 0.936990 -0.344693
vn 0.056892 0.936990 -0.344693
vn 0.056892 0.936990 -0.344693
vn 0.056892 0.936990 -0.344693
vn 0.474089 0.880406 -0.011222
vn 0.474089 0.880406 -0.011222
vn 0.474089 0.880405 -0.011222
vn -0.020281 0.997365 -0.069658
vn -0.020281 0.997365 -0.069658
vn -0.020281 0.997365 -0.069658
vn 0.041407 0.991863 -0.120390
vn 0.041407 0.991863 -0.120390
vn 0.041407 0.991863 -0.120390
vn -0.130705 0.991120 -0.024439
vn -0.130705 0.991120 -0.024439
vn -0.130705 0.991120 -0.024439
vn -0.130705 0.991120 -0.024439
vn 0.017364 0.959644 0.280682
vn 0.017364 0.959644 0.280682
vn 0.017364 0.959644 0.280682
vn -0.124559 0.947146 0.295634
vn -0.124559 0.947146 0.295634
vn -0.124559 0.947146 0.295634
vn -0.030999 0.997316 0.066335
vn -0.030999 0.997316 0.066335
vn -0.030999 0.997316 0.066335
vn -0.030999 0.997316 0.066335
vn 0.047510 0.989420 -0.137081
vn 0.047510 0.989420 -0.137081
vn 0.047510 0.989420 -0.137081
vn 0.038553 0.918486 0.393570
vn 0.038553 0.918486 0.393570
vn 0.038553 0.918486 0.393570
vn 0.038553 0.918486 0.393570
vn 0.103419 0.991666 0.076836
vn 0.103419 0.991666 0.076836
vn 0.103419 0.991666 0.076836
vn 0.252532 0.958105 0.135141
vn 0.252532 0.958105 0.135141
vn 0.252532 0.958105 0.135141
vn 0.531691 0.846852 -0.012106
vn 0.531691 0.846852 -0.012106
vn 0.531691 0.846852 -0.012106
vn 0.154590 0.960244 0.232451
vn 0.154590 0.960244 0.232451
vn 0.154590 0.960244 0.232451
vn 0.154590 0.960244 0.232451
vn 0.014850 0.841202 0.540517
vn 0.014850 0.841202 0.540517
vn 0.014850 0.841202 0.540517
s off
f 7/1/1 8/2/2 2/3/3
f 10/4/4 9/5/5 7/1/6 6/6/7
f 11/7/8 20/8/9 5/9/10
f 12/10/11 11/7/12 5/9/13
f 13/11/14 12/10/15 5/9/16 4/12/17
f 14/13/18 13/11/19 4/12/20 3/14/21
f 15/15/22 14/13/23 3/14/24 1/16/25
f 16/17/26 15/15/27 1/16/28
f 17/18/29 16/17/30 1/16/31 2/3/32
f 8/2/33 17/18/34 2/3/35
f 2/3/36 1/16/37 18/19/38
f 1/16/39 3/14/40 18/19/41
f 4/12/42 5/9/43 21/20/44 3/14/45
f 5/9/46 20/8/47 21/20/48
f 6/6/49 7/1/50 19/21/51
f 7/1/52 2/3/53 18/19/54 19/21/55
f 21/20/56 18/19/57 3/14/58
f 11/7/59 10/4/60 6/6/61 22/22/62
f 19/21/63 22/22/64 6/6/65
f 18/19/66 21/20/67 19/21/68
f 9/5/69 8/2/70 7/1/71
f 21/20/72 20/8/73 22/22/74 19/21/75
f 11/7/76 22/22/77 20/8/78
