# This file uses centimeters as units for non-parametric coordinates.

v -46.212402 20.216196 -45.398499
v -20.995972 21.053295 -28.053833
v -60.422241 24.930161 -30.511353
v -71.693726 20.895569 -22.145508
v -71.278687 20.879337 -6.060547
v -44.868896 17.854376 6.653564
v -29.699463 20.895569 1.288177
v -8.072021 14.393597 -7.088379
v -21.888428 14.393589 12.126678
v -45.162109 14.393577 20.358551
v -68.829346 14.393577 13.338348
v -83.512817 14.393589 -5.596710
v -84.487305 14.393593 -30.930908
v -70.497070 14.393589 -51.270508
v -47.223389 14.393577 -59.502380
v -23.812744 14.393589 -52.816895
v -8.278442 14.393593 -32.556580
v -42.694580 29.156990 -26.483368
v -44.484741 27.349121 -9.689117
v -58.431396 19.983124 5.999146
v -58.502930 24.321941 -13.847229
v 64.595337 28.505043 -30.166504
v 54.885010 29.341621 -1.162231
v 46.377563 33.216080 -39.712769
v 35.234131 29.183992 -48.234253
v 19.897217 29.167772 -43.401489
v 14.963989 26.144690 -14.527222
v 24.299683 29.183992 -1.434448
v 38.308105 22.686062 17.031982
v 16.041260 22.686052 9.056702
v 1.718018 22.686041 -11.030945
v 1.937622 22.686041 -35.701233
v 16.079224 22.686052 -55.025909
v 40.146851 22.686056 -62.945679
v 63.541748 22.686052 -55.113220
v 77.864990 22.686041 -35.025452
v 77.896240 22.686052 -10.694092
v 62.716187 22.686056 9.813171
v 47.395020 37.440281 -21.573181
v 30.768921 35.633533 -18.663269
v 11.854004 28.272114 -27.735901
v 30.898926 32.608238 -33.275574
v 13.847900 13.407598 27.032379
v 19.873291 14.038621 50.683014
v -2.497314 16.961082 28.504974
v -13.654907 13.919724 27.606812
v -21.852173 13.907488 37.477997
v -12.678955 11.627208 58.976349
v -0.757813 13.919724 63.722015
v 16.620239 9.018401 70.051727
v -1.761475 9.018395 74.328308
v -20.051636 9.018386 67.047302
v -30.568848 9.018386 50.406128
v -29.437988 9.018395 31.332062
v -16.719482 9.018398 15.616272
v 2.357178 9.018395 10.756165
v 20.647339 9.018386 18.037231
v 31.186279 9.018395 34.342682
v 29.870117 9.018398 54.658875
v 6.026489 20.147354 40.231293
v -3.866699 18.784546 49.370117
v -20.474731 13.231903 51.461731
v -10.096191 16.502594 39.513550
vt 0.229511 0.125969
vt 0.229744 0.111972
vt 0.229740 0.127657
vt 0.229281 0.125236
vt 0.229525 0.111197
vt 0.229351 0.144165
vt 0.229113 0.113017
vt 0.229235 0.126815
vt 0.229186 0.114518
vt 0.229085 0.107060
vt 0.229208 0.130322
vt 0.229267 0.143495
vt 0.229431 0.121061
vt 0.229428 0.115626
vt 0.229671 0.130746
vt 0.229608 0.121772
vt 0.229839 0.109908
vt 0.229872 0.127395
vt 0.229562 0.145009
vt 0.229358 0.128053
vt 0.229459 0.113529
vt 0.261216 0.125969
vt 0.261659 0.111972
vt 0.261650 0.127657
vt 0.260779 0.125236
vt 0.261242 0.111197
vt 0.260913 0.144165
vt 0.260461 0.113017
vt 0.260693 0.135634
vt 0.260599 0.114518
vt 0.260408 0.107060
vt 0.260641 0.130322
vt 0.260753 0.146981
vt 0.261064 0.121061
vt 0.261059 0.115626
vt 0.261520 0.155152
vt 0.261401 0.121772
vt 0.261838 0.109908
vt 0.261900 0.152007
vt 0.261313 0.145009
vt 0.260926 0.128053
vt 0.261117 0.113529
vt 0.239394 0.125969
vt 0.239837 0.111972
vt 0.239828 0.127657
vt 0.238957 0.125236
vt 0.239421 0.111197
vt 0.239092 0.144165
vt 0.238640 0.113017
vt 0.238871 0.126815
vt 0.238778 0.114518
vt 0.238586 0.107060
vt 0.238819 0.130322
vt 0.238931 0.143495
vt 0.239242 0.121061
vt 0.239237 0.115626
vt 0.239698 0.130746
vt 0.239579 0.121772
vt 0.240016 0.109908
vt 0.240079 0.127395
vt 0.239492 0.145009
vt 0.239104 0.128053
vt 0.239296 0.113529
vn 0.321966 0.941395 0.100563
vn 0.321966 0.941395 0.100563
vn 0.321966 0.941395 0.100563
vn 0.054144 0.930883 0.361283
vn 0.054144 0.930883 0.361283
vn 0.054144 0.930883 0.361283
vn 0.054144 0.930883 0.361283
vn -0.251410 0.907946 0.335303
vn -0.251410 0.907946 0.335303
vn -0.251410 0.907946 0.335303
vn -0.431459 0.837793 0.334582
vn -0.431459 0.837793 0.334582
vn -0.431459 0.837793 0.334582
vn -0.464719 0.885315 0.015937
vn -0.464719 0.885315 0.015937
vn -0.464719 0.885315 0.015937
vn -0.464719 0.885315 0.015937
vn -0.388453 0.895808 -0.215944
vn -0.388453 0.895808 -0.215944
vn -0.388453 0.895808 -0.215944
vn -0.388453 0.895808 -0.215944
vn -0.124903 0.912882 -0.388646
vn -0.124903 0.912882 -0.388646
vn -0.124903 0.912882 -0.388646
vn -0.124903 0.912882 -0.388646
vn 0.110235 0.915883 -0.386013
vn 0.110235 0.915883 -0.386013
vn 0.110235 0.915883 -0.386013
vn 0.236814 0.931126 -0.277352
vn 0.236814 0.931126 -0.277352
vn 0.236814 0.931126 -0.277352
vn 0.236814 0.931126 -0.277352
vn 0.462859 0.886424 -0.003752
vn 0.462859 0.886424 -0.003752
vn 0.462859 0.886424 -0.003752
vn 0.283096 0.845694 -0.452392
vn 0.283096 0.845694 -0.452392
vn 0.283096 0.845694 -0.452392
vn -0.123929 0.905826 -0.405118
vn -0.123929 0.905826 -0.405118
vn -0.123929 0.905826 -0.405118
vn -0.273453 0.961142 0.037819
vn -0.273453 0.961142 0.037819
vn -0.273453 0.961142 0.037819
vn -0.273453 0.961142 0.037819
vn -0.131614 0.968329 0.212171
vn -0.131614 0.968329 0.212171
vn -0.131614 0.968329 0.212171
vn 0.004367 0.864611 0.502423
vn 0.004367 0.864611 0.502423
vn 0.004367 0.864611 0.502423
vn 0.341756 0.932420 0.117457
vn 0.341756 0.932420 0.117457
vn 0.341756 0.932420 0.117457
vn 0.341756 0.932420 0.117457
vn -0.245099 0.967414 0.063539
vn -0.245099 0.967414 0.063539
vn -0.245099 0.967414 0.063539
vn -0.026301 0.923110 0.383635
vn -0.026301 0.923110 0.383635
vn -0.026301 0.923110 0.383635
vn -0.026301 0.923110 0.383635
vn -0.092223 0.930366 0.354843
vn -0.092223 0.930366 0.354843
vn -0.092223 0.930366 0.354843
vn -0.092223 0.930366 0.354843
vn -0.232891 0.969247 0.079513
vn -0.232891 0.969247 0.079513
vn -0.232891 0.969247 0.079513
vn 0.370708 0.889677 0.266554
vn 0.370708 0.889677 0.266554
vn 0.370708 0.889677 0.266554
vn -0.007853 0.941396 0.337213
vn -0.007853 0.941396 0.337213
vn -0.007853 0.941396 0.337213
vn -0.332331 0.930884 0.151697
vn -0.332331 0.930884 0.151697
vn -0.332331 0.930884 0.151697
vn -0.332331 0.930884 0.151697
vn -0.391641 0.907946 -0.149170
vn -0.391641 0.907946 -0.149170
vn -0.391641 0.907946 -0.149170
vn -0.440610 0.837794 -0.322433
vn -0.440610 0.837794 -0.322433
vn -0.440610 0.837794 -0.322433
vn -0.143505 0.885315 -0.442294
vn -0.143505 0.885315 -0.442294
vn -0.143505 0.885315 -0.442294
vn -0.143505 0.885315 -0.442294
vn 0.100422 0.895809 -0.432945
vn 0.100422 0.895809 -0.432945
vn 0.100422 0.895809 -0.432945
vn 0.100422 0.895809 -0.432945
vn 0.339117 0.912882 -0.227258
vn 0.339117 0.912882 -0.227258
vn 0.339117 0.912882 -0.227258
vn 0.339117 0.912882 -0.227258
vn 0.401444 0.915884 -0.000516
vn 0.401444 0.915883 -0.000516
vn 0.401444 0.915883 -0.000516
vn 0.331911 0.931126 0.151125
vn 0.331911 0.931126 0.151125
vn 0.331911 0.931126 0.151125
vn 0.331911 0.931126 0.151125
vn 0.131276 0.886425 0.443867
vn 0.131276 0.886425 0.443867
vn 0.131276 0.886425 0.443867
vn 0.512929 0.845694 0.147331
vn 0.512929 0.845694 0.147331
vn 0.512929 0.845694 0.147331
vn 0.355218 0.905826 -0.230866
vn 0.355218 0.905826 -0.230866
vn 0.355218 0.905826 -0.230866
vn -0.111778 0.961142 -0.252413
vn -0.111778 0.961142 -0.252413
vn -0.111778 0.961142 -0.252413
vn -0.111778 0.961142 -0.252413
vn -0.240243 0.968329 -0.067986
vn -0.240243 0.968329 -0.067986
vn -0.240243 0.968329 -0.067986
vn -0.481724 0.864613 0.142782
vn -0.481725 0.864613 0.142782
vn -0.481725 0.864613 0.142782
vn -0.018633 0.932420 0.360896
vn -0.018633 0.932420 0.360896
vn -0.018633 0.932420 0.360896
vn -0.018633 0.932420 0.360896
vn -0.128678 0.967414 -0.218066
vn -0.128678 0.967414 -0.218066
vn -0.128678 0.967414 -0.218066
vn -0.376007 0.923110 0.080537
vn -0.376007 0.923110 0.080537
vn -0.376007 0.923110 0.080537
vn -0.376007 0.923110 0.080537
vn -0.366514 0.930367 0.009232
vn -0.366514 0.930367 0.009232
vn -0.366514 0.930367 0.009232
vn -0.366514 0.930367 0.009232
vn -0.140668 0.969247 -0.201922
vn -0.140668 0.969247 -0.201922
vn -0.140668 0.969247 -0.201922
vn -0.153959 0.889678 0.429849
vn -0.153959 0.889678 0.429849
vn -0.153959 0.889678 0.429849
vn 0.167472 0.947146 0.273620
vn 0.167472 0.947146 0.273620
vn 0.167472 0.947146 0.273620
vn -0.187709 0.937564 0.292812
vn -0.187709 0.937564 0.292812
vn -0.187709 0.937564 0.292812
vn -0.187709 0.937564 0.292812
vn -0.391250 0.916550 0.082820
vn -0.391250 0.916550 0.082820
vn -0.391250 0.916550 0.082820
vn -0.523586 0.851407 -0.031042
vn -0.523586 0.851407 -0.031042
vn -0.523586 0.851407 -0.031042
vn -0.344516 0.895678 -0.281192
vn -0.344516 0.895678 -0.281192
vn -0.344516 0.895678 -0.281192
vn -0.344516 0.895678 -0.281192
vn -0.143445 0.905374 -0.399652
vn -0.143445 0.905374 -0.399652
vn -0.143445 0.905374 -0.399652
vn -0.143445 0.905374 -0.399652
vn 0.154442 0.921085 -0.357422
vn 0.154442 0.921085 -0.357422
vn 0.154442 0.921085 -0.357422
vn 0.154442 0.921085 -0.357422
vn 0.321477 0.923839 -0.207785
vn 0.321477 0.923839 -0.207785
vn 0.321477 0.923839 -0.207785
vn 0.343558 0.937786 -0.050258
vn 0.343558 0.937786 -0.050258
vn 0.343558 0.937786 -0.050258
vn 0.343558 0.937786 -0.050258
vn 0.335465 0.896705 0.288761
vn 0.335465 0.896705 0.288762
vn 0.335465 0.896705 0.288762
vn 0.490494 0.858807 -0.147875
vn 0.490494 0.858807 -0.147875
vn 0.490494 0.858807 -0.147875
vn 0.165602 0.914602 -0.368890
vn 0.165602 0.914602 -0.368890
vn 0.165602 0.914602 -0.368890
vn -0.218970 0.965062 -0.143900
vn -0.218970 0.965062 -0.143900
vn -0.218970 0.965062 -0.143900
vn -0.218970 0.965062 -0.143900
vn -0.226459 0.971556 0.069245
vn -0.226459 0.971556 0.069245
vn -0.226459 0.971556 0.069245
vn -0.313886 0.876463 0.365086
vn -0.313886 0.876463 0.365086
vn -0.313886 0.876463 0.365086
vn 0.171210 0.938967 0.298377
vn 0.171210 0.938967 0.298377
vn 0.171210 0.938967 0.298377
vn 0.171210 0.938967 0.298377
vn -0.214651 0.970730 -0.107738
vn -0.214651 0.970730 -0.107738
vn -0.214651 0.970730 -0.107738
vn -0.259566 0.930460 0.258594
vn -0.259566 0.930460 0.258594
vn -0.259566 0.930459 0.258594
vn -0.259566 0.930459 0.258594
vn -0.288562 0.937092 0.196446
vn -0.288562 0.937092 0.196446
vn -0.288562 0.937092 0.196446
vn -0.288562 0.937092 0.196446
vn -0.215873 0.972385 -0.088688
vn -0.215873 0.972385 -0.088688
vn -0.215873 0.972385 -0.088688
vn 0.098908 0.899712 0.425130
vn 0.098908 0.899712 0.425130
vn 0.098908 0.899712 0.425130
s off
f 7/1/1 8/2/2 2/3/3
f 10/4/4 9/5/5 7/1/6 6/6/7
f 11/7/8 20/8/9 5/9/10
f 12/10/11 11/7/12 5/9/13
f 13/11/14 12/10/15 5/9/16 4/12/17
f 14/13/18 13/11/19 4/12/20 3/14/21
f 15/15/22 14/13/23 3/14/24 1/16/25
f 16/17/26 15/15/27 1/16/28
f 17/18/29 16/17/30 1/16/31 2/3/32
f 8/2/33 17/18/34 2/3/35
f 2/3/36 1/16/37 18/19/38
f 1/16/39 3/14/40 18/19/41
f 4/12/42 5/9/43 21/20/44 3/14/45
f 5/9/46 20/8/47 21/20/48
f 6/6/49 7/1/50 19/21/51
f 7/1/52 2/3/53 18/19/54 19/21/55
f 21/20/56 18/19/57 3/14/58
f 11/7/59 10/4/60 6/6/61 20/8/62
f 21/20/63 20/8/64 6/6/65 19/21/66
f 18/19/67 21/20/68 19/21/69
f 9/5/70 8/2/71 7/1/72
f 28/22/73 29/23/74 23/24/75
f 31/25/76 30/26/77 28/22/78 27/27/79
f 32/28/80 41/29/81 26/30/82
f 33/31/83 32/28/84 26/30/85
f 34/32/86 33/31/87 26/30/88 25/33/89
f 35/34/90 34/32/91 25/33/92 24/35/93
f 36/36/94 35/34/95 24/35/96 22/37/97
f 37/38/98 36/36/99 22/37/100
f 38/39/101 37/38/102 22/37/103 23/24/104
f 29/23/105 38/39/106 23/24/107
f 23/24/108 22/37/109 39/40/110
f 22/37/111 24/35/112 39/40/113
f 25/33/114 26/30/115 42/41/116 24/35/117
f 26/30/118 41/29/119 42/41/120
f 27/27/121 28/22/122 40/42/123
f 28/22/124 23/24/125 39/40/126 40/42/127
f 42/41/128 39/40/129 24/35/130
f 32/28/131 31/25/132 27/27/133 41/29/134
f 42/41/135 41/29/136 27/27/137 40/42/138
f 39/40/139 42/41/140 40/42/141
f 30/26/142 29/23/143 28/22/144
f 49/43/145 50/44/146 44/45/147
f 52/46/148 51/47/149 49/43/150 48/48/151
f 53/49/152 62/50/153 47/51/154
f 54/52/155 53/49/156 47/51/157
f 55/53/158 54/52/159 47/51/160 46/54/161
f 56/55/162 55/53/163 46/54/164 45/56/165
f 57/57/166 56/55/167 45/56/168 43/58/169
f 58/59/170 57/57/171 43/58/172
f 59/60/173 58/59/174 43/58/175 44/45/176
f 50/44/177 59/60/178 44/45/179
f 44/45/180 43/58/181 60/61/182
f 43/58/183 45/56/184 60/61/185
f 46/54/186 47/51/187 63/62/188 45/56/189
f 47/51/190 62/50/191 63/62/192
f 48/48/193 49/43/194 61/63/195
f 49/43/196 44/45/197 60/61/198 61/63/199
f 63/62/200 60/61/201 45/56/202
f 53/49/203 52/46/204 48/48/205 62/50/206
f 63/62/207 62/50/208 48/48/209 61/63/210
f 60/61/211 63/62/212 61/63/213
f 51/47/214 50/44/215 49/43/216
