# This file uses centimeters as units for non-parametric coordinates.

v -5.429549 7.846349 -13.108593
v -16.087811 12.094412 -6.664179
v -6.663210 12.094412 -16.088778
v -9.317034 5.335981 -3.859251
v -13.108387 7.846349 5.429751
v -13.108387 7.846349 -5.429753
v -5.069111 4.392431 2.099693
v -9.317064 5.335981 3.859250
v -5.069087 4.392431 -2.099694
v -2.099693 4.392431 -5.069096
v 3.859252 5.335981 -9.317049
v 2.099696 4.392431 -5.069096
v 6.465611 2.702290 -2.678143
v 2.678142 2.702290 -6.465605
v -3.069518 0.000000 7.410470
v -2.678149 2.702290 6.465604
v -7.410480 0.000000 3.069515
v -6.465611 2.702290 2.678142
v -2.099693 4.392431 5.069094
v 5.429982 7.846345 -13.108593
v 7.410481 0.000000 -3.069527
v 5.069105 4.392445 -2.099694
v -16.087788 12.094412 6.664179
v 3.069518 0.000000 7.410480
v 6.665148 12.094412 -16.088778
v 2.099696 4.392431 5.069094
v 6.465611 2.702290 2.678142
v -3.859258 5.335981 9.317028
v 9.317059 5.335979 -3.859236
v 3.069518 0.000000 -7.410471
v 7.410481 0.000000 3.069515
v 2.678142 2.702290 6.465615
v 5.069072 4.392431 2.099693
v 13.108816 7.846349 -5.429753
v 3.859252 5.335981 9.317062
v -5.429549 7.846349 13.108591
v 9.317049 5.335981 3.859250
v -6.663210 12.094402 16.088762
v 16.089741 12.094421 -6.664190
v 13.108816 7.846349 5.429770
v 5.429970 7.846345 13.108591
v 6.665148 12.094412 16.088762
v 16.089741 12.094412 6.664179
v -3.069518 -0.000000 -7.410481
v -3.859258 5.335981 -9.317064
v -6.465597 2.702290 -2.678143
v -2.678149 2.702290 -6.465616
v -7.410480 0.000000 -3.069516
v -7.374373 16.727005 -17.806726
v -17.805317 16.727005 -7.375778
v 7.377203 16.727005 -17.806726
v -17.805305 16.727005 7.375777
v 17.804249 16.727005 -7.375792
v -7.374373 16.727005 17.806711
v 7.377203 16.727005 17.806723
v 17.804253 16.727005 7.375777
v -5.938207 15.508392 -14.338596
v -14.337564 15.508392 -5.939234
v -14.337555 15.508392 5.939233
v 5.940279 15.508392 -14.338596
v -5.938207 15.508392 14.338585
v 14.336496 15.508392 -5.939245
v 5.940279 15.508392 14.338593
v 14.336498 15.508392 5.939233
v -4.815876 9.273197 -11.628313
v -11.627586 9.273197 -4.816612
v -11.627583 9.273197 4.816610
v 4.817352 9.273197 -11.628313
v -4.815876 9.273197 11.628298
v 11.626522 9.273197 -4.816616
v 4.817352 9.273197 11.628307
v 11.626522 9.273197 4.816610
v -0.000112 6.173762 -0.000002
v -15.227573 19.830589 -6.307927
v -6.306803 19.830589 -15.228701
v -15.227560 19.830589 6.307925
v 6.309070 19.830589 -15.228701
v -6.306803 19.830589 15.228691
v 15.226505 19.830589 -6.307940
v 6.309070 19.830589 15.228699
v 15.226505 19.830589 6.307925
v -7.861664 17.065184 -18.983149
v -18.981743 17.065184 -7.863068
v -18.981743 19.492413 -7.863070
v -7.861664 19.492413 -18.983149
v -18.981728 17.065184 7.863070
v -18.981728 19.492413 7.863070
v 7.864584 17.065184 -18.983057
v 7.864584 19.492413 -18.983057
v -7.861664 17.065184 18.983133
v -7.861664 19.492413 18.983133
v 18.980766 17.065184 -7.862991
v 18.980766 19.492413 -7.862991
v 7.864584 17.065184 18.983057
v 7.864584 19.492413 18.983057
v 18.980766 17.065184 7.862976
v 18.980766 19.492413 7.862976
vt 0.503851 0.421125
vt 0.503731 0.421017
vt 0.503766 0.421119
vt 0.526699 0.474129
vt 0.526707 0.474143
vt 0.526707 0.474143
vt 0.526695 0.474127
vt 0.526699 0.474129
vt 0.526695 0.474127
vt 0.526695 0.474124
vt 0.526699 0.474119
vt 0.526695 0.474119
vt 0.506533 0.421466
vt 0.507374 0.421809
vt 0.507374 0.421563
vt 0.526691 0.474128
vt 0.526693 0.474127
vt 0.526691 0.474136
vt 0.507374 0.420968
vt 0.506533 0.421312
vt 0.506533 0.421203
vt 0.503849 0.421236
vt 0.526693 0.474109
vt 0.526691 0.474107
vt 0.526693 0.474117
vt 0.526707 0.474113
vt 0.526707 0.474130
vt 0.507374 0.421214
vt 0.526695 0.474124
vt 0.526695 0.474116
vt 0.503825 0.421035
vt 0.503671 0.420993
vt 0.506533 0.421574
vt 0.503779 0.421015
vt 0.526691 0.474116
vt 0.503763 0.421244
vt 0.506533 0.421466
vt 0.507374 0.421809
vt 0.526699 0.474125
vt 0.526699 0.474114
vt 0.526691 0.474116
vt 0.526691 0.474107
vt 0.526693 0.474117
vt 0.507374 0.421563
vt 0.506533 0.421574
vt 0.526695 0.474116
vt 0.526693 0.474109
vt 0.526707 0.474101
vt 0.526699 0.474119
vt 0.526695 0.474119
vt 0.526707 0.474130
vt 0.503740 0.421093
vt 0.503819 0.421317
vt 0.526699 0.474114
vt 0.503618 0.421081
vt 0.503723 0.421337
vt 0.526707 0.474101
vt 0.526707 0.474113
vt 0.503613 0.421236
vt 0.503661 0.421342
vt 0.503737 0.421227
vt 0.503772 0.421320
vt 0.526691 0.474128
vt 0.526693 0.474134
vt 0.526699 0.474125
vt 0.506533 0.421312
vt 0.507374 0.420968
vt 0.506533 0.421203
vt 0.507374 0.421214
vt 0.526691 0.474136
vt 0.526693 0.474134
vt 0.526693 0.474127
vt 0.503718 0.421120
vt 0.503681 0.421018
vt 0.503715 0.421244
vt 0.503616 0.420995
vt 0.503672 0.421335
vt 0.503559 0.421082
vt 0.503555 0.421235
vt 0.503606 0.421340
vt 0.526373 0.474058
vt 0.526366 0.474062
vt 0.526535 0.474035
vt 0.526527 0.474040
vt 0.526363 0.474059
vt 0.526373 0.474054
vt 0.526530 0.474038
vt 0.526540 0.474033
vt 0.526379 0.474064
vt 0.526380 0.474062
vt 0.526543 0.474042
vt 0.526547 0.474041
vt 0.526382 0.474075
vt 0.526383 0.474074
vt 0.526523 0.474056
vt 0.526526 0.474056
vt 0.526380 0.474085
vt 0.526381 0.474087
vt 0.526546 0.474054
vt 0.526550 0.474054
vt 0.526374 0.474092
vt 0.526374 0.474096
vt 0.526528 0.474070
vt 0.526532 0.474072
vt 0.526361 0.474059
vt 0.526371 0.474055
vt 0.526544 0.474066
vt 0.526548 0.474067
vt 0.526378 0.474062
vt 0.526356 0.474077
vt 0.526537 0.474073
vt 0.526541 0.474075
vt 0.503542 0.420609
vt 0.503681 0.420728
vt 0.503852 0.420655
vt 0.503765 0.420548
vt 0.503795 0.420590
vt 0.503928 0.420546
vt 0.503493 0.420221
vt 0.503736 0.420237
vt 0.503843 0.420339
vt 0.503960 0.420333
vt 0.503593 0.419904
vt 0.503796 0.419978
vt 0.503822 0.420075
vt 0.503946 0.420108
vt 0.503732 0.419887
vt 0.503885 0.419954
vt 0.503953 0.420295
vt 0.526359 0.474077
vt 0.526381 0.474074
vt 0.526362 0.474093
vt 0.526364 0.474093
vt 0.526379 0.474087
vt 0.526372 0.474095
vt 0.526361 0.474060
vt 0.526370 0.474056
vt 0.526378 0.474063
vt 0.526357 0.474076
vt 0.526362 0.474076
vt 0.526381 0.474075
vt 0.526363 0.474091
vt 0.526367 0.474089
vt 0.526378 0.474086
vt 0.526372 0.474094
vn -0.578900 -0.574238 -0.578900
vn -0.578900 -0.574238 -0.578900
vn -0.578900 -0.574238 -0.578900
vn -0.578900 -0.574238 -0.578900
vn -0.552080 -0.833791 -0.000001
vn -0.552080 -0.833791 -0.000001
vn -0.552080 -0.833791 -0.000001
vn -0.552080 -0.833791 -0.000001
vn -0.216834 -0.976208 -0.000001
vn -0.216834 -0.976208 -0.000001
vn -0.216834 -0.976208 -0.000001
vn -0.216834 -0.976208 -0.000001
vn 0.000000 -0.976209 -0.216834
vn 0.000000 -0.976209 -0.216834
vn 0.000000 -0.976209 -0.216834
vn 0.000000 -0.976209 -0.216834
vn 0.545104 0.636961 -0.545107
vn 0.545104 0.636961 -0.545107
vn 0.545104 0.636961 -0.545107
vn 0.545104 0.636961 -0.545107
vn -0.667481 0.330059 0.667481
vn -0.667481 0.330059 0.667481
vn -0.667481 0.330059 0.667481
vn -0.667481 0.330058 0.667481
vn -0.545104 0.636963 0.545105
vn -0.545104 0.636963 0.545105
vn -0.545104 0.636963 0.545105
vn -0.545104 0.636963 0.545105
vn -0.000000 -0.574308 -0.818640
vn -0.000000 -0.574308 -0.818640
vn -0.000000 -0.574308 -0.818640
vn -0.000000 -0.574308 -0.818640
vn 0.667479 0.330061 -0.667481
vn 0.667479 0.330061 -0.667481
vn 0.667479 0.330061 -0.667481
vn 0.667479 0.330061 -0.667481
vn 0.000000 -0.833805 -0.552060
vn 0.000000 -0.833805 -0.552060
vn 0.000000 -0.833805 -0.552060
vn 0.000000 -0.833805 -0.552060
vn -0.153325 -0.976208 0.153325
vn -0.153325 -0.976208 0.153325
vn -0.153325 -0.976208 0.153325
vn -0.153325 -0.976208 0.153325
vn 0.153325 -0.976209 -0.153323
vn 0.153325 -0.976209 -0.153323
vn 0.153325 -0.976209 -0.153323
vn 0.153325 -0.976209 -0.153323
vn -0.818709 -0.574208 0.000001
vn -0.818709 -0.574208 0.000001
vn -0.818709 -0.574208 0.000001
vn -0.818709 -0.574208 0.000001
vn -0.000002 0.330059 0.943960
vn -0.000002 0.330059 0.943960
vn -0.000002 0.330059 0.943960
vn -0.000002 0.330059 0.943960
vn -0.000001 0.636966 0.770892
vn -0.000001 0.636966 0.770892
vn -0.000001 0.636966 0.770892
vn -0.000001 0.636966 0.770892
vn 0.770891 0.636967 0.000004
vn 0.770891 0.636967 0.000004
vn 0.770891 0.636967 0.000004
vn 0.770891 0.636967 0.000004
vn -0.390375 -0.833795 0.390376
vn -0.390375 -0.833795 0.390376
vn -0.390375 -0.833795 0.390376
vn -0.390375 -0.833795 0.390376
vn 0.000000 -1.000000 0.000000
vn 0.000000 -1.000000 0.000000
vn 0.000000 -1.000000 0.000000
vn 0.000000 -1.000000 0.000000
vn 0.000000 -0.347701 -0.937605
vn 0.000000 -0.347701 -0.937606
vn 0.000000 -0.347701 -0.937605
vn 0.000000 -0.347701 -0.937605
vn 0.667481 0.330059 0.667480
vn 0.667481 0.330059 0.667480
vn 0.667481 0.330059 0.667480
vn 0.667481 0.330059 0.667480
vn 0.216832 -0.976209 -0.000000
vn 0.216832 -0.976209 -0.000000
vn 0.216832 -0.976209 -0.000000
vn 0.216832 -0.976209 -0.000000
vn 0.390354 -0.833815 -0.390353
vn 0.390354 -0.833816 -0.390353
vn 0.390354 -0.833816 -0.390353
vn 0.390354 -0.833816 -0.390353
vn 0.545103 0.636967 0.545101
vn 0.545103 0.636967 0.545101
vn 0.545103 0.636967 0.545101
vn 0.545103 0.636967 0.545101
vn -0.000001 -0.976209 0.216834
vn -0.000001 -0.976208 0.216834
vn -0.000001 -0.976208 0.216834
vn -0.000001 -0.976208 0.216834
vn 0.943960 0.330061 0.000000
vn 0.943960 0.330061 0.000000
vn 0.943960 0.330061 0.000000
vn 0.943960 0.330061 0.000000
vn -0.578901 -0.574236 0.578901
vn -0.578901 -0.574236 0.578901
vn -0.578901 -0.574236 0.578901
vn -0.578901 -0.574236 0.578901
vn 0.578833 -0.574375 -0.578832
vn 0.578832 -0.574375 -0.578832
vn 0.578832 -0.574375 -0.578832
vn 0.578832 -0.574375 -0.578832
vn 0.153325 -0.976209 0.153324
vn 0.153325 -0.976209 0.153324
vn 0.153325 -0.976209 0.153324
vn 0.153325 -0.976209 0.153324
vn -0.000001 -0.833805 0.552059
vn -0.000001 -0.833805 0.552059
vn -0.000001 -0.833805 0.552059
vn -0.000001 -0.833805 0.552059
vn 0.552037 -0.833820 0.000000
vn 0.552037 -0.833819 0.000000
vn 0.552037 -0.833820 0.000000
vn 0.552037 -0.833819 0.000000
vn 0.663101 -0.347514 -0.662971
vn 0.663101 -0.347514 -0.662971
vn 0.663101 -0.347514 -0.662971
vn 0.663101 -0.347514 -0.662971
vn 0.390354 -0.833815 0.390354
vn 0.390354 -0.833815 0.390354
vn 0.390354 -0.833815 0.390354
vn 0.390354 -0.833815 0.390354
vn 0.000000 -0.574307 0.818640
vn 0.000000 -0.574307 0.818640
vn 0.000000 -0.574307 0.818640
vn 0.000000 -0.574307 0.818640
vn 0.818573 -0.574403 -0.000000
vn 0.818573 -0.574403 -0.000000
vn 0.818573 -0.574403 -0.000000
vn 0.818573 -0.574403 -0.000000
vn 0.578832 -0.574374 0.578833
vn 0.578832 -0.574374 0.578833
vn 0.578832 -0.574374 0.578833
vn 0.578832 -0.574374 0.578833
vn 0.937832 -0.347089 -0.000000
vn 0.937832 -0.347089 -0.000000
vn 0.937832 -0.347089 -0.000000
vn 0.937832 -0.347089 -0.000000
vn 0.000000 -1.000000 0.000000
vn 0.000000 -1.000000 0.000000
vn 0.000000 -1.000000 0.000000
vn 0.000000 -1.000000 0.000000
vn 0.000001 0.636966 -0.770892
vn 0.000001 0.636966 -0.770892
vn 0.000001 0.636966 -0.770892
vn 0.000001 0.636966 -0.770892
vn -0.770894 0.636963 -0.000003
vn -0.770894 0.636963 -0.000003
vn -0.770894 0.636963 -0.000003
vn -0.770894 0.636963 -0.000003
vn -0.390376 -0.833795 -0.390375
vn -0.390376 -0.833795 -0.390375
vn -0.390376 -0.833795 -0.390375
vn -0.390376 -0.833795 -0.390375
vn -0.153325 -0.976209 -0.153324
vn -0.153325 -0.976209 -0.153324
vn -0.153325 -0.976209 -0.153324
vn -0.153325 -0.976209 -0.153324
vn 0.000002 0.330059 -0.943960
vn 0.000002 0.330059 -0.943960
vn 0.000002 0.330059 -0.943960
vn 0.000002 0.330059 -0.943960
vn -0.943959 0.330062 -0.000001
vn -0.943959 0.330062 -0.000001
vn -0.943959 0.330062 -0.000001
vn -0.943959 0.330062 -0.000001
vn -0.667482 0.330060 -0.667479
vn -0.667482 0.330060 -0.667479
vn -0.667482 0.330060 -0.667479
vn -0.667482 0.330060 -0.667479
vn -0.000000 -1.000000 0.000000
vn -0.000000 -1.000000 0.000000
vn -0.000000 -1.000000 0.000000
vn -0.000000 -1.000000 0.000000
vn -0.545105 0.636965 -0.545102
vn -0.545105 0.636965 -0.545102
vn -0.545105 0.636965 -0.545102
vn -0.545105 0.636965 -0.545102
vn -0.663002 -0.347646 -0.663001
vn -0.663002 -0.347646 -0.663001
vn -0.663002 -0.347646 -0.663001
vn -0.663002 -0.347646 -0.663001
vn -0.937634 -0.347624 0.000001
vn -0.937634 -0.347624 0.000001
vn -0.937634 -0.347624 0.000001
vn -0.937634 -0.347624 0.000001
vn -0.663002 -0.347647 0.663001
vn -0.663002 -0.347647 0.663001
vn -0.663002 -0.347647 0.663001
vn -0.663002 -0.347647 0.663001
vn -0.000000 -0.347702 0.937605
vn -0.000000 -0.347702 0.937605
vn -0.000000 -0.347702 0.937605
vn -0.000000 -0.347702 0.937605
vn 0.663101 -0.347514 0.662971
vn 0.663101 -0.347514 0.662971
vn 0.663101 -0.347514 0.662971
vn 0.663101 -0.347514 0.662971
vn -0.076623 0.996555 -0.031738
vn -0.031738 0.996555 -0.076620
vn -0.031735 0.996555 -0.076621
vn -0.076622 0.996555 -0.031739
vn -0.076623 0.996555 0.031738
vn -0.076623 0.996555 -0.031738
vn -0.076622 0.996555 -0.031739
vn -0.076622 0.996555 0.031739
vn -0.031738 0.996555 0.076620
vn -0.076623 0.996555 0.031738
vn -0.076622 0.996555 0.031739
vn -0.031735 0.996555 0.076621
vn 0.031739 0.996556 0.076614
vn -0.031738 0.996555 0.076620
vn -0.031735 0.996555 0.076621
vn 0.031739 0.996556 0.076614
vn 0.076627 0.996555 0.031727
vn 0.031739 0.996556 0.076614
vn 0.031739 0.996556 0.076614
vn 0.076626 0.996555 0.031731
vn 0.672570 0.308706 0.672570
vn 0.672569 0.308709 0.672569
vn 0.648500 0.398616 0.648500
vn 0.648500 0.398616 0.648501
vn 0.951160 0.308699 -0.000001
vn 0.951160 0.308699 -0.000001
vn 0.917123 0.398605 -0.000001
vn 0.917123 0.398605 -0.000001
vn 0.000000 0.308728 0.951150
vn 0.000000 0.308732 0.951149
vn 0.000000 0.398643 0.917106
vn 0.000000 0.398643 0.917106
vn 0.672569 0.308709 -0.672569
vn 0.672570 0.308706 -0.672570
vn 0.648500 0.398616 -0.648501
vn 0.648500 0.398616 -0.648501
vn -0.672689 0.308735 0.672438
vn -0.672690 0.308727 0.672440
vn -0.648613 0.398642 0.648372
vn -0.648613 0.398642 0.648372
vn 0.000001 0.308733 -0.951149
vn 0.000001 0.308728 -0.951150
vn 0.000001 0.398643 -0.917106
vn 0.000001 0.398644 -0.917106
vn -0.672691 0.308727 -0.672439
vn -0.672689 0.308735 -0.672438
vn -0.648613 0.398642 -0.648372
vn -0.648613 0.398642 -0.648372
vn -0.951160 0.308699 0.000000
vn -0.951160 0.308699 0.000000
vn -0.917123 0.398605 0.000000
vn -0.917123 0.398605 0.000000
vn 0.182124 0.966262 0.182124
vn 0.182124 0.966262 0.182124
vn 0.182124 0.966262 0.182124
vn 0.257568 0.966260 -0.000000
vn 0.257568 0.966260 -0.000000
vn 0.257568 0.966260 -0.000000
vn 0.000000 0.966265 0.257550
vn 0.000000 0.966265 0.257550
vn 0.000000 0.966265 0.257550
vn 0.182124 0.966262 -0.182125
vn 0.182124 0.966262 -0.182125
vn 0.182124 0.966262 -0.182125
vn -0.182154 0.966263 0.182086
vn -0.182154 0.966263 0.182086
vn -0.182154 0.966263 0.182086
vn 0.000000 0.966265 -0.257550
vn 0.000000 0.966265 -0.257550
vn 0.000000 0.966265 -0.257550
vn -0.182154 0.966263 -0.182086
vn -0.182154 0.966263 -0.182086
vn -0.182154 0.966263 -0.182086
vn -0.257585 0.966256 0.000000
vn -0.257585 0.966256 0.000000
vn -0.257585 0.966256 0.000000
vn -0.707107 0.000000 -0.707107
vn -0.707107 0.000000 -0.707107
vn -0.707107 0.000000 -0.707107
vn -0.707107 0.000000 -0.707107
vn 0.672569 0.308709 0.672569
vn 0.672570 0.308706 0.672570
vn 0.692575 0.201690 0.692575
vn 0.692575 0.201690 0.692575
vn -1.000000 0.000000 0.000001
vn -1.000000 0.000000 0.000001
vn -1.000000 0.000000 0.000001
vn -1.000000 0.000000 0.000001
vn 0.951160 0.308699 -0.000001
vn 0.951160 0.308699 -0.000001
vn 0.979451 0.201684 -0.000001
vn 0.979451 0.201684 -0.000001
vn 0.000006 0.000000 -1.000000
vn 0.000006 0.000000 -1.000000
vn 0.000006 0.000000 -1.000000
vn 0.000006 0.000000 -1.000000
vn 0.000000 0.308732 0.951149
vn 0.000000 0.308728 0.951150
vn 0.000000 0.201705 0.979446
vn 0.000000 0.201705 0.979446
vn -0.707107 0.000000 0.707107
vn -0.707107 0.000000 0.707107
vn -0.707107 0.000000 0.707107
vn -0.707107 0.000000 0.707107
vn 0.672570 0.308706 -0.672570
vn 0.672569 0.308709 -0.672569
vn 0.692576 0.201690 -0.692575
vn 0.692576 0.201690 -0.692575
vn 0.707230 0.000000 -0.706983
vn 0.707230 0.000000 -0.706983
vn 0.707230 0.000000 -0.706983
vn 0.707230 0.000000 -0.706983
vn -0.672690 0.308727 0.672440
vn -0.672689 0.308735 0.672438
vn -0.692702 0.201705 0.692444
vn -0.692702 0.201705 0.692444
vn 0.000005 0.000000 1.000000
vn 0.000005 0.000000 1.000000
vn 0.000005 0.000000 1.000000
vn 0.000005 0.000000 1.000000
vn 0.000001 0.308728 -0.951150
vn 0.000001 0.308733 -0.951149
vn 0.000001 0.201706 -0.979446
vn 0.000001 0.201706 -0.979446
vn 0.707231 0.000000 0.706983
vn 0.707231 0.000000 0.706983
vn 0.707231 0.000000 0.706983
vn 0.707231 0.000000 0.706983
vn -0.672689 0.308735 -0.672438
vn -0.672691 0.308727 -0.672439
vn -0.692703 0.201705 -0.692443
vn -0.692703 0.201705 -0.692443
vn 1.000000 0.000000 0.000000
vn 1.000000 0.000000 0.000000
vn 1.000000 0.000000 0.000000
vn 1.000000 0.000000 0.000000
vn -0.951160 0.308699 0.000000
vn -0.951160 0.308699 0.000000
vn -0.979451 0.201684 0.000000
vn -0.979451 0.201684 0.000000
vn -0.098230 -0.966494 -0.237149
vn -0.237144 -0.966496 -0.098229
vn -0.237145 -0.966496 -0.098229
vn -0.098230 -0.966494 -0.237149
vn -0.237144 -0.966496 -0.098229
vn -0.237145 -0.966496 0.098229
vn -0.237145 -0.966496 0.098229
vn -0.237145 -0.966496 -0.098229
vn 0.098240 -0.966497 -0.237135
vn -0.098230 -0.966494 -0.237149
vn -0.098230 -0.966494 -0.237149
vn 0.098240 -0.966497 -0.237135
vn 0.031739 0.996556 -0.076614
vn 0.031739 0.996556 -0.076614
vn -0.031735 0.996555 -0.076621
vn -0.031738 0.996555 -0.076620
vn -0.237145 -0.966496 0.098229
vn -0.098230 -0.966494 0.237149
vn -0.098230 -0.966494 0.237149
vn -0.237145 -0.966496 0.098229
vn 0.237156 -0.966496 -0.098198
vn 0.098240 -0.966497 -0.237135
vn 0.098240 -0.966497 -0.237135
vn 0.237157 -0.966496 -0.098198
vn 0.076627 0.996555 -0.031727
vn 0.076626 0.996555 -0.031731
vn 0.031739 0.996556 -0.076614
vn 0.031739 0.996556 -0.076614
vn -0.098230 -0.966494 0.237149
vn 0.098240 -0.966497 0.237135
vn 0.098240 -0.966497 0.237135
vn -0.098230 -0.966494 0.237149
vn 0.098240 -0.966497 0.237135
vn 0.237157 -0.966496 0.098198
vn 0.237157 -0.966496 0.098197
vn 0.098240 -0.966497 0.237135
vn 0.237157 -0.966496 0.098198
vn 0.237156 -0.966496 -0.098198
vn 0.237157 -0.966496 -0.098198
vn 0.237157 -0.966496 0.098197
vn 0.076627 0.996555 0.031727
vn 0.076626 0.996555 0.031731
vn 0.076626 0.996555 -0.031731
vn 0.076627 0.996555 -0.031727
s off
f 2/2/1 3/3/2 1/1/3 6/31/4
f 5/5/5 6/6/6 4/4/7 8/8/8
f 9/9/9 7/7/10 8/8/11 4/4/12
f 11/11/13 12/12/14 10/10/15 45/65/16
f 13/14/17 14/15/18 12/13/19 22/33/20
f 17/18/21 15/16/22 16/17/23 18/64/24
f 19/20/25 7/21/26 18/19/27 16/28/28
f 20/22/29 1/1/30 3/3/31 25/36/32
f 14/25/33 13/23/34 21/24/35 30/41/36
f 1/27/37 20/26/38 11/11/39 45/65/40
f 8/8/41 7/7/42 19/29/43 28/39/44
f 22/30/45 12/12/46 11/11/47 29/40/48
f 23/32/49 2/2/50 6/31/51 5/34/52
f 16/17/53 15/16/54 24/35/55 32/43/56
f 26/37/57 19/20/58 16/28/59 32/44/60
f 27/38/61 13/14/62 22/33/63 33/45/64
f 5/5/65 8/8/66 28/39/67 36/51/68
f 30/41/69 21/24/70 31/42/71 24/35/72
f 3/3/73 49/73/74 51/75/75 25/36/76
f 32/43/77 24/35/78 31/42/79 27/47/80
f 33/46/81 22/30/82 29/40/83 37/54/84
f 11/11/85 20/26/86 34/48/87 29/40/88
f 33/45/89 26/37/90 32/44/91 27/38/92
f 19/29/93 26/50/94 35/49/95 28/39/96
f 31/42/97 21/24/98 13/23/99 27/47/100
f 23/32/101 5/34/102 36/52/103 38/55/104
f 34/53/105 20/22/106 25/36/107 39/56/108
f 26/50/109 33/46/110 37/54/111 35/49/112
f 36/51/113 28/39/114 35/49/115 41/58/116
f 37/54/117 29/40/118 34/48/119 40/57/120
f 25/36/121 51/75/122 53/77/123 39/56/124
f 35/49/125 37/54/126 40/57/127 41/58/128
f 42/59/129 38/55/130 36/52/131 41/61/132
f 34/53/133 39/56/134 43/60/135 40/62/136
f 42/59/137 41/61/138 40/62/139 43/60/140
f 43/60/141 39/56/142 53/77/143 56/80/144
f 44/63/145 30/41/146 24/35/147 15/16/148
f 10/66/149 12/13/150 14/15/151 47/69/152
f 46/67/153 18/19/154 7/21/155 9/68/156
f 4/4/157 6/6/158 1/27/159 45/65/160
f 45/65/161 10/10/162 9/9/163 4/4/164
f 14/25/165 30/41/166 44/63/167 47/72/168
f 48/70/169 17/18/170 18/64/171 46/71/172
f 46/71/173 47/72/174 44/63/175 48/70/176
f 44/63/177 15/16/178 17/18/179 48/70/180
f 46/67/181 9/68/182 10/66/183 47/69/184
f 50/74/185 49/73/186 3/3/187 2/2/188
f 52/76/189 50/74/190 2/2/191 23/32/192
f 54/78/193 52/76/194 23/32/195 38/55/196
f 55/79/197 54/78/198 38/55/199 42/59/200
f 56/80/201 55/79/202 42/59/203 43/60/204
f 74/81/205 75/82/206 85/85/207 84/86/208
f 76/89/209 74/81/210 84/86/211 87/90/212
f 78/93/213 76/89/214 87/90/215 91/94/216
f 80/97/217 78/93/218 91/94/219 95/98/220
f 81/101/221 80/97/222 95/98/223 97/102/224
f 57/113/225 58/114/226 66/115/227 65/116/228
f 58/114/229 59/117/230 67/118/231 66/115/232
f 60/119/233 57/113/234 65/116/235 68/120/236
f 59/117/237 61/121/238 69/122/239 67/118/240
f 62/123/241 60/119/242 68/120/243 70/124/244
f 61/121/245 63/125/246 71/126/247 69/122/248
f 63/125/249 64/127/250 72/128/251 71/126/252
f 64/127/253 62/123/254 70/124/255 72/128/256
f 65/116/257 66/115/258 73/129/259
f 66/115/260 67/118/261 73/129/262
f 68/120/263 65/116/264 73/129/265
f 67/118/266 69/122/267 73/129/268
f 70/124/269 68/120/270 73/129/271
f 69/122/272 71/126/273 73/129/274
f 71/126/275 72/128/276 73/129/277
f 72/128/278 70/124/279 73/129/280
f 82/105/281 83/106/282 84/86/283 85/85/284
f 58/83/285 57/84/286 75/87/287 74/88/288
f 83/106/289 86/109/290 87/90/291 84/86/292
f 59/91/293 58/83/294 74/88/295 76/92/296
f 88/110/297 82/105/298 85/85/299 89/130/300
f 57/84/301 60/95/302 77/96/303 75/87/304
f 86/109/305 90/131/306 91/94/307 87/90/308
f 61/99/309 59/91/310 76/92/311 78/100/312
f 92/132/313 88/110/314 89/130/315 93/133/316
f 60/95/317 62/103/318 79/104/319 77/96/320
f 90/131/321 94/134/322 95/98/323 91/94/324
f 63/107/325 61/99/326 78/100/327 80/108/328
f 94/134/329 96/135/330 97/102/331 95/98/332
f 64/111/333 63/107/334 80/108/335 81/112/336
f 96/135/337 92/132/338 93/133/339 97/102/340
f 62/103/341 64/111/342 81/112/343 79/104/344
f 49/136/345 50/137/346 83/106/347 82/105/348
f 50/137/349 52/138/350 86/109/351 83/106/352
f 51/139/353 49/136/354 82/105/355 88/110/356
f 77/140/357 89/130/358 85/85/359 75/82/360
f 52/138/361 54/141/362 90/131/363 86/109/364
f 53/142/365 51/139/366 88/110/367 92/132/368
f 79/143/369 93/133/370 89/130/371 77/140/372
f 54/141/373 55/144/374 94/134/375 90/131/376
f 55/144/377 56/145/378 96/135/379 94/134/380
f 56/145/381 53/142/382 92/132/383 96/135/384
f 81/101/385 97/102/386 93/133/387 79/143/388
