# This file uses centimeters as units for non-parametric coordinates.

v -27.653198 22.579905 43.963531
v -21.323181 23.593441 45.981659
v -19.883545 23.286707 41.708893
v -26.671326 22.955791 40.226471
v -18.171265 20.702923 41.282043
v -25.356628 23.564610 46.191559
v -28.794373 19.739740 44.519318
v -22.329346 23.718672 39.447144
v -25.317322 17.763445 47.544922
v -24.130371 24.210224 43.074066
v -21.400757 20.328325 38.312225
v -19.848450 18.284626 47.102997
v -27.252625 19.781429 39.306824
v -52.006104 24.267284 36.721222
v -47.600647 24.917784 42.490601
v -43.475525 25.425156 38.309418
v -49.064087 23.761879 33.829529
v -41.648315 22.915749 39.579803
v -51.509033 24.397863 40.724548
v -53.862244 19.587528 38.801453
v -44.554138 24.914038 35.019745
v -51.766663 20.668766 42.480927
v -48.079163 26.189651 37.000946
v -43.086792 21.285194 35.546844
v -46.380005 21.820580 44.587280
v -49.132263 20.206158 33.743286
v -18.903076 23.548452 53.367859
v -12.509399 22.288748 55.286865
v -11.177734 22.299242 50.913879
v -17.793701 24.249439 49.668243
v -10.373901 19.418985 49.961456
v -16.398071 23.420774 55.663086
v -20.937195 21.103697 53.471222
v -13.361328 23.817745 48.840393
v -17.743896 19.995869 56.358521
v -14.909546 24.185932 52.705200
v -13.567200 20.526812 47.074158
v -12.311401 18.944088 55.776398
v -19.382568 21.573673 48.218750
v -36.001099 24.069708 33.636322
v -28.851685 24.937063 35.593414
v -27.413940 23.784143 30.926178
v -34.993042 23.791416 29.454102
v -25.762085 20.733234 30.849823
v -33.308044 25.300758 35.890015
v -37.497925 21.152056 34.724518
v -30.147522 24.112011 28.408173
v -33.738098 19.164064 38.316528
v -31.979004 25.429348 32.322754
v -29.454712 20.134285 27.696350
v -27.657837 19.173391 37.663269
v -35.944458 20.220125 28.966766
v -38.784607 23.020885 48.455536
v -34.347351 22.667587 54.333557
v -30.142456 22.624413 51.468140
v -35.303040 23.733622 45.924744
v -28.519653 19.557240 51.569977
v -38.146851 23.365822 52.018188
v -40.441162 20.082544 47.584930
v -30.771423 23.848045 48.106293
v -39.533325 16.890722 51.891174
v -34.817261 24.271835 50.308441
v -29.448425 19.034597 46.788177
v -34.232788 16.487373 55.004425
v -35.470520 20.521078 44.051453
v -31.250671 21.249716 28.935242
v -11.652588 21.853117 38.921570
v -40.661682 21.869116 27.628693
v -46.559387 21.739426 28.598389
v -51.907532 21.727726 43.945282
v -25.630188 19.547258 53.190704
v -15.194885 21.739426 53.884155
v -4.556580 17.052645 46.918671
v -10.182434 17.052635 63.270294
v -15.144592 17.052628 66.218140
v -59.279480 17.052628 50.181580
v -61.083252 17.052635 43.561279
v -52.746338 17.052639 16.415680
v -46.752808 17.052635 12.841766
v -31.395691 17.052628 18.537201
v -2.635864 17.052635 29.203278
v 0.019226 17.052639 33.578308
v -27.717957 21.908447 38.346863
v -29.287964 20.605289 45.608643
v -47.048950 21.081713 47.731873
v -39.615845 23.385468 41.778351
v -38.371643 20.575914 51.524261
v -15.448242 22.961439 35.934631
v -8.925232 23.029713 38.864380
v -7.041809 21.089987 34.891937
v -13.892212 21.969728 32.244720
v -6.012695 17.988270 35.434937
v -13.075012 24.046703 38.349396
v -17.523804 20.596680 37.015778
v -9.141846 21.432493 32.052948
v -14.921265 18.704973 41.209442
v -11.124878 23.450283 35.219818
v -9.068909 17.510643 31.945190
v -9.132629 17.755680 41.625275
v -15.321350 18.694071 32.024078
v -43.057251 21.733707 23.724426
v -41.426819 23.150173 28.723114
v -36.983765 22.711664 27.166351
v -39.362610 21.986038 22.100769
v -35.470520 20.178856 28.373871
v -43.366577 23.002386 26.546967
v -44.231689 18.802212 23.586273
v -36.762878 22.870193 24.064453
v -44.374329 17.183422 28.031403
v -40.022949 23.582317 25.400360
v -35.180969 19.429264 24.392181
v -41.300903 17.914492 31.002899
v -38.958557 18.675432 21.493439
vt 0.229556 0.144393
vt 0.230325 0.145970
vt 0.230028 0.146483
vt 0.229432 0.145370
vt 0.228921 0.146295
vt 0.229026 0.146968
vt 0.229493 0.130521
vt 0.229034 0.150678
vt 0.230096 0.150830
vt 0.229645 0.152400
vt 0.229780 0.153645
vt 0.228965 0.151418
vt 0.230354 0.151625
vt 0.229274 0.141185
vt 0.230163 0.141913
vt 0.229953 0.146170
vt 0.229279 0.145955
vt 0.228705 0.144855
vt 0.228891 0.147138
vt 0.229481 0.131142
vt 0.229052 0.150411
vt 0.230171 0.149457
vt 0.229764 0.151547
vt 0.229892 0.150203
vt 0.228954 0.149059
vt 0.230424 0.148120
vt 0.229288 0.145594
vt 0.230074 0.147350
vt 0.229977 0.147130
vt 0.229394 0.145808
vt 0.228706 0.147380
vt 0.228944 0.147410
vt 0.229501 0.130636
vt 0.228967 0.150939
vt 0.230032 0.151427
vt 0.229611 0.152678
vt 0.229582 0.154771
vt 0.228745 0.152400
vt 0.230163 0.152919
vt 0.229561 0.143718
vt 0.230422 0.145508
vt 0.230071 0.146580
vt 0.229401 0.145344
vt 0.228845 0.146045
vt 0.228950 0.147062
vt 0.229470 0.130985
vt 0.228963 0.151263
vt 0.230154 0.151429
vt 0.229649 0.153249
vt 0.229815 0.154300
vt 0.228901 0.151786
vt 0.230453 0.152059
vt 0.229027 0.146499
vt 0.229901 0.144904
vt 0.229745 0.144827
vt 0.229081 0.146052
vt 0.228666 0.149932
vt 0.228866 0.149268
vt 0.229490 0.130264
vt 0.229278 0.152382
vt 0.230269 0.148446
vt 0.230034 0.151356
vt 0.230265 0.153170
vt 0.229259 0.154266
vt 0.230558 0.148972
vt 0.229304 0.125969
vt 0.229777 0.111972
vt 0.229767 0.127657
vt 0.228837 0.111475
vt 0.229332 0.111197
vt 0.228981 0.144165
vt 0.228498 0.113017
vt 0.228745 0.126815
vt 0.228645 0.114518
vt 0.228441 0.107060
vt 0.228690 0.130322
vt 0.228809 0.143495
vt 0.229142 0.111783
vt 0.229136 0.115626
vt 0.229629 0.117448
vt 0.229501 0.121772
vt 0.229968 0.109908
vt 0.230035 0.127395
vt 0.229408 0.145009
vt 0.228994 0.128053
vt 0.229199 0.113529
vt 0.228823 0.112587
vt 0.229004 0.143000
vt 0.229835 0.143751
vt 0.229919 0.145887
vt 0.229304 0.145524
vt 0.228542 0.146244
vt 0.228863 0.147468
vt 0.229506 0.130893
vt 0.228984 0.151327
vt 0.230055 0.150101
vt 0.229681 0.152389
vt 0.229605 0.152654
vt 0.228711 0.151429
vt 0.230144 0.149945
vt 0.229122 0.145101
vt 0.229648 0.143099
vt 0.229413 0.145321
vt 0.229049 0.146921
vt 0.228940 0.149262
vt 0.229031 0.149575
vt 0.229482 0.130786
vt 0.229513 0.151956
vt 0.230031 0.147782
vt 0.229949 0.150766
vt 0.230271 0.150582
vt 0.229636 0.152354
vt 0.230353 0.146879
vn 0.053780 0.224080 0.973086
vn 0.053780 0.224080 0.973086
vn 0.053780 0.224080 0.973086
vn 0.053780 0.224080 0.973086
vn -0.629604 0.243294 0.737840
vn -0.629604 0.243294 0.737840
vn -0.629604 0.243294 0.737840
vn -0.629604 0.243294 0.737840
vn -0.420004 0.907522 -0.000057
vn -0.420004 0.907522 -0.000057
vn -0.420004 0.907522 -0.000057
vn -0.420004 0.907522 -0.000057
vn 0.003627 0.978931 0.204158
vn 0.003627 0.978931 0.204158
vn 0.003627 0.978931 0.204158
vn 0.208378 0.977957 -0.013344
vn 0.208378 0.977957 -0.013344
vn 0.208378 0.977957 -0.013344
vn 0.208378 0.977957 -0.013344
vn -0.208616 0.949998 -0.232344
vn -0.208616 0.949998 -0.232344
vn -0.208616 0.949998 -0.232344
vn -0.199616 0.283040 -0.938106
vn -0.199616 0.283040 -0.938106
vn -0.199616 0.283040 -0.938106
vn -0.199616 0.283040 -0.938106
vn 0.610480 0.441725 -0.657414
vn 0.610480 0.441725 -0.657414
vn 0.610480 0.441725 -0.657414
vn 0.610480 0.441725 -0.657414
vn 0.859621 0.377417 0.344395
vn 0.859621 0.377417 0.344395
vn 0.859621 0.377417 0.344395
vn 0.859621 0.377417 0.344395
vn -0.927154 0.280548 -0.248352
vn -0.927154 0.280548 -0.248352
vn -0.927154 0.280548 -0.248352
vn -0.927154 0.280548 -0.248352
vn -0.412781 0.402858 0.816895
vn -0.412781 0.402858 0.816895
vn -0.412781 0.402858 0.816895
vn -0.412781 0.402858 0.816895
vn -0.905296 0.342321 0.251508
vn -0.905296 0.342321 0.251508
vn -0.905296 0.342321 0.251508
vn -0.905295 0.342321 0.251508
vn -0.414890 0.880749 -0.228357
vn -0.414890 0.880749 -0.228357
vn -0.414890 0.880749 -0.228357
vn -0.414890 0.880749 -0.228357
vn -0.233272 0.942651 0.238731
vn -0.233272 0.942651 0.238731
vn -0.233272 0.942651 0.238731
vn 0.147057 0.987338 0.059473
vn 0.147057 0.987338 0.059473
vn 0.147057 0.987338 0.059473
vn 0.147057 0.987338 0.059473
vn -0.046579 0.800115 -0.598036
vn -0.046579 0.800115 -0.598036
vn -0.046579 0.800115 -0.598036
vn 0.273965 -0.005659 -0.961723
vn 0.273965 -0.005659 -0.961723
vn 0.273965 -0.005659 -0.961723
vn 0.273965 -0.005659 -0.961723
vn 0.853095 0.342659 -0.393463
vn 0.853095 0.342659 -0.393463
vn 0.853095 0.342659 -0.393463
vn 0.853095 0.342659 -0.393463
vn 0.501857 0.629229 0.593473
vn 0.501857 0.629229 0.593473
vn 0.501857 0.629229 0.593473
vn 0.501857 0.629229 0.593473
vn -0.719570 0.000002 -0.694420
vn -0.719570 0.000002 -0.694420
vn -0.719570 0.000002 -0.694420
vn -0.719570 0.000002 -0.694420
vn 0.135505 0.148494 0.979586
vn 0.135505 0.148494 0.979586
vn 0.135505 0.148494 0.979586
vn 0.135505 0.148494 0.979586
vn -0.559352 0.419398 0.715004
vn -0.559352 0.419398 0.715004
vn -0.559352 0.419398 0.715004
vn -0.559352 0.419398 0.715004
vn -0.128691 0.977840 0.165126
vn -0.128691 0.977840 0.165126
vn -0.128691 0.977841 0.165126
vn -0.128691 0.977841 0.165126
vn 0.292379 0.879824 0.374733
vn 0.292379 0.879824 0.374733
vn 0.292379 0.879824 0.374733
vn 0.498560 0.855940 0.137128
vn 0.498560 0.855940 0.137128
vn 0.498560 0.855940 0.137128
vn 0.498560 0.855940 0.137128
vn 0.085567 0.994496 -0.060464
vn 0.085567 0.994496 -0.060464
vn 0.085567 0.994496 -0.060464
vn -0.095003 0.494278 -0.864097
vn -0.095003 0.494278 -0.864097
vn -0.095003 0.494278 -0.864097
vn -0.095003 0.494278 -0.864097
vn 0.722064 0.336308 -0.604583
vn 0.722064 0.336308 -0.604583
vn 0.722064 0.336308 -0.604583
vn 0.722064 0.336308 -0.604583
vn 0.942456 0.128733 0.308554
vn 0.942455 0.128733 0.308554
vn 0.942455 0.128733 0.308554
vn 0.942456 0.128733 0.308554
vn -0.786557 0.597511 -0.155911
vn -0.786557 0.597511 -0.155911
vn -0.786557 0.597511 -0.155911
vn -0.786558 0.597511 -0.155911
vn 0.095771 0.357195 0.929107
vn 0.095771 0.357195 0.929107
vn 0.095771 0.357195 0.929107
vn 0.095771 0.357195 0.929107
vn -0.589750 0.398230 0.702572
vn -0.589750 0.398230 0.702572
vn -0.589750 0.398230 0.702572
vn -0.589750 0.398230 0.702572
vn -0.354044 0.926881 -0.124679
vn -0.354044 0.926881 -0.124679
vn -0.354044 0.926881 -0.124679
vn -0.354044 0.926881 -0.124679
vn 0.085633 0.994022 0.067734
vn 0.085633 0.994022 0.067734
vn 0.085633 0.994022 0.067734
vn 0.290746 0.943202 -0.160739
vn 0.290746 0.943202 -0.160739
vn 0.290746 0.943202 -0.160739
vn 0.290746 0.943202 -0.160739
vn -0.141479 0.916345 -0.374561
vn -0.141479 0.916345 -0.374561
vn -0.141479 0.916345 -0.374561
vn -0.200806 0.160393 -0.966411
vn -0.200806 0.160393 -0.966411
vn -0.200806 0.160393 -0.966411
vn -0.200806 0.160393 -0.966411
vn 0.626347 0.290080 -0.723563
vn 0.626347 0.290080 -0.723563
vn 0.626347 0.290080 -0.723563
vn 0.626347 0.290080 -0.723563
vn 0.895880 0.350869 0.272562
vn 0.895880 0.350869 0.272562
vn 0.895880 0.350869 0.272562
vn 0.895880 0.350869 0.272562
vn -0.908230 0.317419 -0.272697
vn -0.908230 0.317419 -0.272697
vn -0.908230 0.317419 -0.272697
vn -0.908230 0.317419 -0.272697
vn -0.502521 0.087469 0.860129
vn -0.502521 0.087469 0.860129
vn -0.502521 0.087469 0.860129
vn -0.502521 0.087469 0.860129
vn -0.922167 0.268609 0.278310
vn -0.922167 0.268609 0.278310
vn -0.922167 0.268609 0.278310
vn -0.922167 0.268609 0.278310
vn -0.270804 0.960199 -0.068426
vn -0.270804 0.960199 -0.068426
vn -0.270804 0.960199 -0.068426
vn -0.270804 0.960199 -0.068426
vn -0.058858 0.924945 0.375517
vn -0.058858 0.924945 0.375517
vn -0.058858 0.924945 0.375517
vn 0.245123 0.917031 0.314594
vn 0.245123 0.917031 0.314594
vn 0.245123 0.917031 0.314594
vn 0.245123 0.917031 0.314594
vn 0.035457 0.991440 -0.125655
vn 0.035457 0.991440 -0.125655
vn 0.035457 0.991440 -0.125655
vn 0.430399 0.386346 -0.815778
vn 0.430399 0.386346 -0.815778
vn 0.430399 0.386346 -0.815778
vn 0.430399 0.386346 -0.815778
vn 0.919372 0.365944 -0.144360
vn 0.919372 0.365944 -0.144360
vn 0.919372 0.365944 -0.144360
vn 0.919372 0.365944 -0.144360
vn 0.492771 0.163987 0.854567
vn 0.492771 0.163987 0.854567
vn 0.492771 0.163987 0.854567
vn 0.492771 0.163987 0.854567
vn -0.555800 0.470545 -0.685328
vn -0.555800 0.470545 -0.685328
vn -0.555800 0.470545 -0.685328
vn -0.555800 0.470545 -0.685328
vn 0.463235 0.878566 0.116344
vn 0.463235 0.878566 0.116344
vn 0.463235 0.878566 0.116344
vn -0.080758 0.931624 0.354338
vn -0.080758 0.931624 0.354338
vn -0.080758 0.931624 0.354338
vn -0.080758 0.931624 0.354338
vn -0.207782 0.884591 0.417522
vn -0.207782 0.884591 0.417522
vn -0.207782 0.884591 0.417522
vn -0.454592 0.882046 0.123859
vn -0.454592 0.882046 0.123859
vn -0.454592 0.882046 0.123859
vn -0.430383 0.891979 -0.138363
vn -0.430383 0.891979 -0.138363
vn -0.430383 0.891979 -0.138363
vn -0.430383 0.891979 -0.138363
vn -0.118051 0.952189 -0.281779
vn -0.118051 0.952189 -0.281779
vn -0.118051 0.952189 -0.281779
vn -0.118051 0.952189 -0.281779
vn 0.125350 0.923839 -0.361675
vn 0.125350 0.923839 -0.361675
vn 0.125350 0.923839 -0.361675
vn 0.125350 0.923839 -0.361675
vn 0.138099 0.917752 -0.372370
vn 0.138099 0.917752 -0.372370
vn 0.138099 0.917752 -0.372370
vn 0.170961 0.937115 -0.304281
vn 0.170961 0.937115 -0.304281
vn 0.170961 0.937115 -0.304281
vn 0.170961 0.937115 -0.304281
vn 0.433616 0.888739 0.148732
vn 0.433616 0.888739 0.148732
vn 0.433616 0.888739 0.148732
vn 0.006013 0.997382 -0.072065
vn 0.006013 0.997382 -0.072065
vn 0.006013 0.997382 -0.072065
vn 0.079043 0.991934 -0.099096
vn 0.079043 0.991934 -0.099096
vn 0.079043 0.991934 -0.099096
vn -0.108929 0.991824 -0.066482
vn -0.108929 0.991824 -0.066482
vn -0.108929 0.991824 -0.066482
vn -0.108929 0.991824 -0.066482
vn -0.082012 0.959656 0.268952
vn -0.082012 0.959656 0.268952
vn -0.082012 0.959656 0.268952
vn -0.214771 0.947756 0.235865
vn -0.214771 0.947756 0.235865
vn -0.214771 0.947756 0.235865
vn -0.050900 0.997356 0.051875
vn -0.050900 0.997356 0.051875
vn -0.050900 0.997356 0.051875
vn -0.050900 0.997356 0.051875
vn 0.090330 0.989513 -0.112718
vn 0.090330 0.989513 -0.112718
vn 0.090330 0.989513 -0.112718
vn -0.102247 0.918542 0.381871
vn -0.102247 0.918542 0.381871
vn -0.102247 0.918542 0.381871
vn -0.102246 0.918542 0.381871
vn 0.066164 0.992106 0.106524
vn 0.066164 0.992106 0.106524
vn 0.066164 0.992106 0.106524
vn 0.180214 0.960652 0.211355
vn 0.180214 0.960652 0.211355
vn 0.180214 0.960652 0.211356
vn 0.487326 0.856972 0.167667
vn 0.487326 0.856972 0.167667
vn 0.487326 0.856972 0.167667
vn 0.058023 0.961198 0.269687
vn 0.058023 0.961198 0.269687
vn 0.058023 0.961198 0.269687
vn 0.058023 0.961198 0.269687
vn -0.174619 0.841209 0.511738
vn -0.174619 0.841209 0.511738
vn -0.174619 0.841209 0.511738
vn 0.009455 0.466492 0.884475
vn 0.009455 0.466492 0.884475
vn 0.009455 0.466492 0.884475
vn 0.009455 0.466492 0.884475
vn -0.612590 0.584084 0.532522
vn -0.612590 0.584084 0.532522
vn -0.612590 0.584084 0.532522
vn -0.612590 0.584084 0.532522
vn -0.155933 0.941305 -0.299383
vn -0.155933 0.941305 -0.299383
vn -0.155933 0.941305 -0.299383
vn -0.155933 0.941305 -0.299383
vn 0.241877 0.969708 -0.034081
vn 0.241877 0.969708 -0.034081
vn 0.241877 0.969708 -0.034081
vn 0.475744 0.852872 -0.215120
vn 0.475744 0.852872 -0.215120
vn 0.475744 0.852872 -0.215120
vn 0.475744 0.852872 -0.215120
vn 0.077273 0.862060 -0.500880
vn 0.077273 0.862060 -0.500880
vn 0.077273 0.862060 -0.500880
vn -0.016941 0.048758 -0.998667
vn -0.016941 0.048758 -0.998667
vn -0.016941 0.048758 -0.998667
vn -0.016941 0.048758 -0.998667
vn 0.771794 0.082025 -0.630560
vn 0.771794 0.082025 -0.630560
vn 0.771794 0.082025 -0.630560
vn 0.771794 0.082025 -0.630560
vn 0.885854 0.242850 0.395331
vn 0.885854 0.242850 0.395331
vn 0.885854 0.242850 0.395331
vn 0.885854 0.242850 0.395331
vn -0.778443 0.411353 -0.474147
vn -0.778443 0.411353 -0.474147
vn -0.778443 0.411353 -0.474147
vn -0.778443 0.411353 -0.474147
vn -0.711620 0.276667 0.645796
vn -0.711620 0.276667 0.645796
vn -0.711620 0.276667 0.645796
vn -0.711620 0.276667 0.645796
vn -0.970861 0.234563 -0.049077
vn -0.970861 0.234563 -0.049077
vn -0.970861 0.234563 -0.049077
vn -0.970861 0.234563 -0.049077
vn -0.275225 0.853282 -0.442900
vn -0.275225 0.853282 -0.442900
vn -0.275225 0.853282 -0.442900
vn -0.275225 0.853282 -0.442900
vn -0.148673 0.986714 0.065512
vn -0.148673 0.986714 0.065512
vn -0.148673 0.986714 0.065512
vn 0.197189 0.970449 0.139090
vn 0.197189 0.970449 0.139090
vn 0.197189 0.970449 0.139090
vn 0.197189 0.970449 0.139090
vn 0.019834 0.901564 -0.432190
vn 0.019834 0.901564 -0.432190
vn 0.019834 0.901564 -0.432190
vn 0.561523 0.198440 -0.803314
vn 0.561523 0.198439 -0.803314
vn 0.561523 0.198440 -0.803314
vn 0.561523 0.198440 -0.803314
vn 0.884984 0.464952 0.024975
vn 0.884983 0.464952 0.024975
vn 0.884984 0.464952 0.024975
vn 0.884983 0.464952 0.024975
vn 0.270260 0.441178 0.855758
vn 0.270260 0.441178 0.855758
vn 0.270260 0.441178 0.855758
vn 0.270260 0.441178 0.855758
vn -0.380038 0.155793 -0.911756
vn -0.380038 0.155793 -0.911756
vn -0.380038 0.155793 -0.911756
vn -0.380038 0.155793 -0.911756
s off
f 9/1/1 12/2/2 2/3/3 6/4/4
f 7/5/5 9/1/6 6/4/7 1/6/8
f 1/6/9 6/4/10 10/7/11 4/8/12
f 6/4/13 2/3/14 10/7/15
f 10/7/16 2/3/17 3/9/18 8/10/19
f 4/8/20 10/7/21 8/10/22
f 4/8/23 8/10/24 11/11/25 13/12/26
f 8/10/27 3/9/28 5/13/29 11/11/30
f 12/2/31 5/13/32 3/9/33 2/3/34
f 13/12/35 7/5/36 1/6/37 4/8/38
f 22/14/39 25/15/40 15/16/41 19/17/42
f 20/18/43 22/14/44 19/17/45 14/19/46
f 14/19/47 19/17/48 23/20/49 17/21/50
f 19/17/51 15/16/52 23/20/53
f 23/20/54 15/16/55 16/22/56 21/23/57
f 17/21/58 23/20/59 21/23/60
f 17/21/61 21/23/62 24/24/63 26/25/64
f 21/23/65 16/22/66 18/26/67 24/24/68
f 25/15/69 18/26/70 16/22/71 15/16/72
f 26/25/73 20/18/74 14/19/75 17/21/76
f 35/27/77 38/28/78 28/29/79 32/30/80
f 33/31/81 35/27/82 32/30/83 27/32/84
f 27/32/85 32/30/86 36/33/87 30/34/88
f 32/30/89 28/29/90 36/33/91
f 36/33/92 28/29/93 29/35/94 34/36/95
f 30/34/96 36/33/97 34/36/98
f 30/34/99 34/36/100 37/37/101 39/38/102
f 34/36/103 29/35/104 31/39/105 37/37/106
f 38/28/107 31/39/108 29/35/109 28/29/110
f 39/38/111 33/31/112 27/32/113 30/34/114
f 48/40/115 51/41/116 41/42/117 45/43/118
f 46/44/119 48/40/120 45/43/121 40/45/122
f 40/45/123 45/43/124 49/46/125 43/47/126
f 45/43/127 41/42/128 49/46/129
f 49/46/130 41/42/131 42/48/132 47/49/133
f 43/47/134 49/46/135 47/49/136
f 43/47/137 47/49/138 50/50/139 52/51/140
f 47/49/141 42/48/142 44/52/143 50/50/144
f 51/41/145 44/52/146 42/48/147 41/42/148
f 52/51/149 46/44/150 40/45/151 43/47/152
f 61/53/153 64/54/154 54/55/155 58/56/156
f 59/57/157 61/53/158 58/56/159 53/58/160
f 53/58/161 58/56/162 62/59/163 56/60/164
f 58/56/165 54/55/166 62/59/167
f 62/59/168 54/55/169 55/61/170 60/62/171
f 56/60/172 62/59/173 60/62/174
f 56/60/175 60/62/176 63/63/177 65/64/178
f 60/62/179 55/61/180 57/65/181 63/63/182
f 64/54/183 57/65/184 55/61/185 54/55/186
f 65/64/187 59/57/188 53/58/189 56/60/190
f 72/66/191 73/67/192 67/68/193
f 75/69/194 74/70/195 72/66/196 71/71/197
f 76/72/198 85/73/199 70/74/200
f 77/75/201 76/72/202 70/74/203
f 78/76/204 77/75/205 70/74/206 69/77/207
f 79/78/208 78/76/209 69/77/210 68/79/211
f 80/80/212 79/78/213 68/79/214 66/81/215
f 81/82/216 80/80/217 66/81/218
f 82/83/219 81/82/220 66/81/221 67/68/222
f 73/67/223 82/83/224 67/68/225
f 67/68/226 66/81/227 83/84/228
f 66/81/229 68/79/230 83/84/231
f 69/77/232 70/74/233 86/85/234 68/79/235
f 70/74/236 85/73/237 86/85/238
f 71/71/239 72/66/240 84/86/241
f 72/66/242 67/68/243 83/84/244 84/86/245
f 86/85/246 83/84/247 68/79/248
f 76/72/249 75/69/250 71/71/251 87/87/252
f 84/86/253 87/87/254 71/71/255
f 83/84/256 86/85/257 84/86/258
f 74/70/259 73/67/260 72/66/261
f 86/85/262 85/73/263 87/87/264 84/86/265
f 76/72/266 87/87/267 85/73/268
f 96/88/269 99/89/270 89/90/271 93/91/272
f 94/92/273 96/88/274 93/91/275 88/93/276
f 88/93/277 93/91/278 97/94/279 91/95/280
f 93/91/281 89/90/282 97/94/283
f 97/94/284 89/90/285 90/96/286 95/97/287
f 91/95/288 97/94/289 95/97/290
f 91/95/291 95/97/292 98/98/293 100/99/294
f 95/97/295 90/96/296 92/100/297 98/98/298
f 99/89/299 92/100/300 90/96/301 89/90/302
f 100/99/303 94/92/304 88/93/305 91/95/306
f 109/101/307 112/102/308 102/103/309 106/104/310
f 107/105/311 109/101/312 106/104/313 101/106/314
f 101/106/315 106/104/316 110/107/317 104/108/318
f 106/104/319 102/103/320 110/107/321
f 110/107/322 102/103/323 103/109/324 108/110/325
f 104/108/326 110/107/327 108/110/328
f 104/108/329 108/110/330 111/111/331 113/112/332
f 108/110/333 103/109/334 105/113/335 111/111/336
f 112/102/337 105/113/338 103/109/339 102/103/340
f 113/112/341 107/105/342 101/106/343 104/108/344
