# This file uses centimeters as units for non-parametric coordinates.

v -31.353333 0.000000 -54.924683
v -53.437378 0.000000 -39.181412
v -48.748657 86.670395 54.924683
v -53.437378 86.670395 47.698502
v -49.037354 5.123962 -54.924683
v -53.437378 5.315834 7.474701
v -53.437378 49.358463 -48.922348
v 22.460571 73.078651 -54.924683
v -24.079346 69.423462 -54.924683
v 32.389587 73.078651 -20.110916
v -53.437378 11.364624 -54.924683
v -29.201050 87.666542 34.493225
v -48.041504 46.554493 -54.924683
v -13.529846 75.819664 -9.761154
v -53.437378 88.875717 20.756882
v -53.437378 58.588078 -54.924683
v -53.437378 37.806465 -54.924683
v -53.437378 78.523888 -54.924683
v -53.437378 80.541008 -21.850845
v 47.661621 66.983894 -54.924683
v -53.437378 73.995338 54.924683
v 16.304443 79.368423 31.707779
v 38.285034 0.000000 -54.924683
v -53.437378 0.000000 -12.090286
v -27.066467 88.663223 54.924683
v -48.680420 0.000000 1.463074
v 53.437439 73.078651 -29.264336
v -53.437378 7.734642 54.924683
v -53.437378 0.000000 30.578873
v -10.345703 0.000000 45.524368
v 53.437439 67.303444 -49.203346
v 53.437439 30.615608 -54.924683
v 10.218140 79.368423 54.924683
v 53.437439 0.000000 -40.558311
v 53.437439 9.926498 -54.924683
v -53.437378 0.000000 47.277252
v -48.445984 0.000000 54.924683
v -21.126038 6.335258 54.924683
v -2.671265 9.386574 54.924683
v 53.437439 82.672417 31.707779
v -26.135742 0.000000 54.924683
v 6.114624 0.000000 46.329956
v 25.997192 0.000000 54.924683
v 53.437439 0.000000 49.729095
v 53.437439 15.974937 54.924683
v 42.803894 0.000000 54.924683
v 46.281982 83.830269 54.924683
v 53.437439 81.425018 54.924683
vt 0.713863 0.814442
vt 0.745810 0.860507
vt 0.749614 0.754834
vt 0.734951 0.756537
vt 0.713863 0.851328
vt 0.853320 0.580463
vt 0.761134 0.624687
vt 0.626452 0.552545
vt 0.699611 0.554139
vt 0.626405 0.594646
vt 0.713863 0.860507
vt 0.700105 0.661914
vt 0.736102 0.598082
vt 0.708065 0.551334
vt 0.737776 0.556479
vt 0.742337 0.714604
vt 0.737918 0.726517
vt 0.700105 0.594646
vt 0.740087 0.652730
vt 0.751324 0.633959
vt 0.747245 0.688248
vt 0.759423 0.702646
vt 0.747245 0.699152
vt 0.747245 0.714157
vt 0.745169 0.562748
vt 0.745169 0.589300
vt 0.751324 0.613090
vt 0.751324 0.586540
vt 0.745169 0.610166
vt 0.745169 0.637187
vt 0.695844 0.626492
vt 0.746364 0.601026
vt 0.751324 0.661610
vt 0.805386 0.657043
vt 0.746161 0.553074
vt 0.919068 0.669189
vt 0.875030 0.669887
vt 0.575314 0.620519
vt 0.617654 0.629428
vt 0.930880 0.647754
vt 0.763542 0.645558
vt 0.749616 0.729926
vt 0.626405 0.661914
vt 0.591068 0.551334
vt 0.777057 0.575127
vt 0.821340 0.575127
vt 0.799969 0.653290
vt 0.565321 0.894050
vt 0.657491 0.923162
vt 0.635337 0.931154
vt 0.591053 0.931154
vt 0.718131 0.713040
vt 0.623432 0.694111
vt 0.690761 0.680144
vt 0.702937 0.713035
vt 0.930880 0.582892
vt 0.829792 0.702345
vt 0.729513 0.858756
vt 0.719652 0.676827
vt 0.719652 0.649747
vt 0.734388 0.667640
vt 0.688644 0.723120
vt 0.626405 0.715380
vt 0.582642 0.723258
vt 0.577572 0.680052
vt 0.743016 0.637583
vt 0.713863 0.669189
vt 0.713863 0.637583
vt 0.575516 0.593718
vt 0.718295 0.860507
vt 0.733810 0.850094
vt 0.733810 0.860507
vt 0.809930 0.555624
vt 0.840928 0.558683
vt 0.565611 0.582079
vt 0.565611 0.561303
vt 0.755642 0.621885
vt 0.755642 0.557022
vt 0.728923 0.780083
vt 0.747997 0.802569
vt 0.747997 0.813017
vt 0.891088 0.575127
vt 0.918383 0.575127
vt 0.747997 0.764074
vt 0.730555 0.745748
vt 0.603283 0.720375
vt 0.732379 0.931154
vt 0.705084 0.931154
vt 0.747997 0.704276
vt 0.565321 0.777053
vt 0.730828 0.831101
vt 0.576659 0.562148
vt 0.585823 0.553074
vt 0.573814 0.636811
vt 0.721395 0.636811
vt 0.565320 0.652854
vt 0.735527 0.707596
vt 0.744880 0.646780
vt 0.744880 0.667555
vt 0.935197 0.565307
vt 0.889098 0.549262
vt 0.917334 0.549262
vt 0.764023 0.549262
vt 0.801514 0.549262
vt 0.575396 0.725663
vt 0.935197 0.549262
vt 0.744877 0.885284
vt 0.744877 0.922767
vt 0.588803 0.751595
vt 0.736386 0.751595
vt 0.922827 0.633546
vt 0.934833 0.636346
vt 0.744877 0.769460
vt 0.744877 0.797697
vt 0.565369 0.723972
vt 0.862376 0.630651
vn -0.259249 -0.894728 -0.363664
vn -0.259248 -0.894728 -0.363664
vn -0.259249 -0.894729 -0.363664
vn -0.754605 -0.532040 -0.384065
vn -0.754605 -0.532040 -0.384065
vn -0.754605 -0.532040 -0.384065
vn -1.000000 0.000000 0.000000
vn -1.000000 0.000000 0.000000
vn -1.000000 0.000000 0.000000
vn -1.000000 0.000000 0.000000
vn -0.078278 0.996682 0.022325
vn -0.078278 0.996682 0.022325
vn -0.078278 0.996682 0.022325
vn 0.003486 0.996661 0.081582
vn 0.003486 0.996661 0.081582
vn 0.003486 0.996661 0.081582
vn -0.000000 0.000000 -1.000000
vn -0.000000 0.000000 -1.000000
vn -0.000000 0.000000 -1.000000
vn -0.000000 0.000000 -1.000000
vn 0.026090 0.988919 -0.146148
vn 0.026090 0.988919 -0.146148
vn 0.026090 0.988919 -0.146148
vn 0.162210 0.966033 -0.201166
vn 0.162210 0.966033 -0.201166
vn 0.162210 0.966033 -0.201166
vn -1.000000 0.000000 0.000000
vn -1.000000 0.000000 0.000000
vn -1.000000 0.000000 0.000000
vn -0.598719 0.369297 -0.710743
vn -0.598719 0.369297 -0.710743
vn -0.598719 0.369297 -0.710743
vn -0.772330 -0.346313 -0.532516
vn -0.772330 -0.346313 -0.532516
vn -0.772330 -0.346313 -0.532516
vn 0.171677 0.966829 -0.189126
vn 0.171677 0.966829 -0.189126
vn 0.171677 0.966829 -0.189126
vn -0.000000 0.000000 -1.000000
vn -0.000000 0.000000 -1.000000
vn -0.000000 0.000000 -1.000000
vn -0.000000 0.000000 -1.000000
vn 0.168246 0.969789 -0.176644
vn 0.168246 0.969789 -0.176644
vn 0.168246 0.969789 -0.176644
vn 0.295581 0.953546 -0.058155
vn 0.295581 0.953546 -0.058155
vn 0.295581 0.953546 -0.058155
vn 0.000000 0.000000 -1.000000
vn 0.000000 0.000000 -1.000000
vn 0.000000 0.000000 -1.000000
vn -1.000000 0.000000 0.000000
vn -1.000000 0.000000 0.000000
vn -1.000000 0.000000 0.000000
vn -1.000000 0.000000 0.000000
vn -0.801194 0.296375 0.519856
vn -0.801194 0.296375 0.519856
vn -0.801194 0.296375 0.519856
vn 0.163858 0.965885 -0.200542
vn 0.163858 0.965885 -0.200542
vn 0.163858 0.965885 -0.200542
vn 0.034535 0.993348 -0.109853
vn 0.034535 0.993348 -0.109853
vn 0.034535 0.993348 -0.109853
vn 0.000000 0.000000 1.000000
vn 0.000000 0.000000 1.000000
vn 0.000000 0.000000 1.000000
vn 0.000000 0.000000 1.000000
vn 0.000000 -1.000000 0.000000
vn 0.000000 -1.000000 0.000000
vn 0.000000 -1.000000 0.000000
vn 0.000000 -1.000000 0.000000
vn -0.598481 -0.773109 0.210055
vn -0.598481 -0.773109 0.210055
vn -0.598481 -0.773109 0.210055
vn -1.000000 0.000000 0.000000
vn -1.000000 0.000000 0.000000
vn -1.000000 0.000000 0.000000
vn -0.808205 -0.573906 -0.132045
vn -0.808205 -0.573906 -0.132045
vn -0.808205 -0.573906 -0.132045
vn 0.000000 -1.000000 0.000000
vn 0.000000 -1.000000 0.000000
vn 0.000000 -1.000000 0.000000
vn 0.696337 0.110588 -0.709144
vn 0.696337 0.110588 -0.709144
vn 0.696337 0.110588 -0.709144
vn 0.207744 0.978177 -0.003528
vn 0.207744 0.978177 -0.003528
vn 0.207744 0.978177 -0.003528
vn 0.207744 0.978177 -0.003528
vn -0.105345 0.992925 -0.054801
vn -0.105345 0.992925 -0.054801
vn -0.105345 0.992925 -0.054801
vn -0.105345 0.992925 -0.054801
vn 0.474445 -0.724222 -0.500404
vn 0.474446 -0.724222 -0.500404
vn 0.474445 -0.724222 -0.500404
vn 0.000000 1.000000 0.000000
vn 0.000000 1.000000 0.000000
vn 0.000000 1.000000 0.000000
vn -0.736719 -0.475426 0.480848
vn -0.736719 -0.475426 0.480848
vn -0.736719 -0.475426 0.480848
vn -0.000000 0.000000 1.000000
vn -0.000000 0.000000 1.000000
vn -0.000000 0.000000 1.000000
vn -0.000000 0.000000 1.000000
vn -0.067442 0.985597 -0.155081
vn -0.067442 0.985597 -0.155081
vn -0.067442 0.985597 -0.155081
vn -0.000000 0.000000 -1.000000
vn -0.000000 0.000000 -1.000000
vn -0.000000 0.000000 -1.000000
vn -0.000000 0.000000 1.000000
vn -0.000000 0.000000 1.000000
vn -0.000000 0.000000 1.000000
vn -0.000000 0.000000 1.000000
vn 0.474215 -0.374993 0.796556
vn 0.474215 -0.374993 0.796556
vn 0.474215 -0.374993 0.796556
vn -1.000000 0.000000 0.000000
vn -1.000000 0.000000 0.000000
vn -1.000000 0.000000 0.000000
vn -1.000000 0.000000 0.000000
vn 0.047617 -0.725990 0.686055
vn 0.047617 -0.725990 0.686055
vn 0.047617 -0.725990 0.686055
vn 0.047617 -0.725990 0.686055
vn 0.000000 -1.000000 0.000000
vn 0.000000 -1.000000 0.000000
vn 0.000000 -1.000000 0.000000
vn 0.000000 -1.000000 0.000000
vn -0.252540 -0.771309 0.584214
vn -0.252540 -0.771309 0.584214
vn -0.252540 -0.771309 0.584214
vn 0.000000 -1.000000 0.000000
vn 0.000000 -1.000000 0.000000
vn 0.000000 -1.000000 0.000000
vn 0.000000 -1.000000 0.000000
vn 0.224783 0.935448 -0.272781
vn 0.224783 0.935448 -0.272781
vn 0.224783 0.935448 -0.272781
vn 0.224783 0.935448 -0.272781
vn 1.000000 0.000000 0.000000
vn 1.000000 0.000000 0.000000
vn 1.000000 0.000000 0.000000
vn 1.000000 0.000000 0.000000
vn 1.000000 0.000000 0.000000
vn 1.000000 0.000000 0.000000
vn 1.000000 0.000000 0.000000
vn 0.000000 0.000000 1.000000
vn 0.000000 0.000000 1.000000
vn 0.000000 0.000000 1.000000
vn 0.000000 0.000000 1.000000
vn 0.000000 0.000000 1.000000
vn 0.000000 0.000000 1.000000
vn 0.000000 0.000000 1.000000
vn 0.318211 0.946655 0.050862
vn 0.318211 0.946655 0.050862
vn 0.318211 0.946655 0.050862
vn 0.421381 -0.280487 0.862418
vn 0.421381 -0.280487 0.862418
vn 0.421381 -0.280487 0.862418
vn 0.000000 -1.000000 0.000000
vn 0.000000 -1.000000 0.000000
vn 0.000000 -1.000000 0.000000
vn 0.000000 -1.000000 0.000000
vn -0.087667 0.985273 -0.146806
vn -0.087667 0.985273 -0.146806
vn -0.087667 0.985273 -0.146806
vn 0.000000 -1.000000 0.000000
vn 0.000000 -1.000000 0.000000
vn 0.000000 -1.000000 0.000000
vn 0.000000 -1.000000 0.000000
vn 0.000000 0.000000 1.000000
vn 0.000000 0.000000 1.000000
vn 0.000000 0.000000 1.000000
vn 0.000000 0.000000 1.000000
vn 0.000000 -1.000000 0.000000
vn 0.000000 -1.000000 0.000000
vn 0.000000 -1.000000 0.000000
vn 0.000000 -1.000000 0.000000
vn 1.000000 0.000000 0.000000
vn 1.000000 0.000000 0.000000
vn 1.000000 0.000000 0.000000
vn 1.000000 0.000000 0.000000
vn -0.000000 0.000000 1.000000
vn -0.000000 0.000000 1.000000
vn -0.000000 0.000000 1.000000
vn 0.000000 0.000000 -1.000000
vn 0.000000 0.000000 -1.000000
vn 0.000000 0.000000 -1.000000
vn -0.000000 0.000000 -1.000000
vn -0.000000 0.000000 -1.000000
vn -0.000000 0.000000 -1.000000
vn -0.000000 0.000000 -1.000000
vn -1.000000 -0.000000 0.000000
vn -1.000000 -0.000000 0.000000
vn -1.000000 -0.000000 0.000000
vn -1.000000 -0.000000 0.000000
vn -1.000000 0.000000 0.000000
vn -1.000000 0.000000 0.000000
vn -1.000000 0.000000 0.000000
vn -1.000000 0.000000 0.000000
vn -1.000000 0.000000 0.000000
vn -1.000000 0.000000 0.000000
vn -1.000000 0.000000 0.000000
vn 1.000000 0.000000 0.000000
vn 1.000000 0.000000 0.000000
vn 1.000000 0.000000 0.000000
vn 0.000000 0.000000 -1.000000
vn 0.000000 0.000000 -1.000000
vn 0.000000 0.000000 -1.000000
vn 1.000000 0.000000 0.000000
vn 1.000000 0.000000 0.000000
vn 1.000000 0.000000 0.000000
vn 0.000000 0.000000 -1.000000
vn 0.000000 0.000000 -1.000000
vn 0.000000 0.000000 -1.000000
vn -0.070271 0.997355 -0.018604
vn -0.070271 0.997355 -0.018604
vn -0.070271 0.997354 -0.018604
vn -0.070271 0.997354 -0.018604
s off
f 1/1/1 2/2/2 5/5/3
f 5/5/4 2/2/5 11/11/6
f 6/6/7 7/7/8 17/27/9 11/28/10
f 8/8/11 9/9/12 10/10/13
f 4/16/14 12/12/15 15/19/16
f 13/13/17 1/14/18 11/25/19 17/26/20
f 9/9/21 14/18/22 10/10/23
f 15/19/24 12/12/25 14/18/26
f 4/36/27 16/20/28 7/7/29
f 17/21/30 7/22/31 13/23/32
f 13/23/33 7/22/34 16/24/35
f 19/32/36 15/19/37 14/18/38
f 9/31/39 13/13/40 16/29/41 18/30/42
f 14/18/43 9/9/44 19/32/45
f 9/9/46 18/35/47 19/32/48
f 23/44/49 8/39/50 20/38/51
f 21/40/52 4/36/53 7/7/54 6/6/55
f 21/42/56 3/3/57 4/4/58
f 22/43/59 14/18/60 12/12/61
f 22/43/62 10/10/63 14/18/64
f 33/116/65 39/74/66 43/101/67 47/111/68
f 1/48/69 26/49/70 24/50/71 2/51/72
f 6/52/73 24/53/74 26/54/75
f 21/40/76 6/6/77 28/56/78
f 29/57/79 6/52/80 26/54/81
f 1/48/82 30/58/83 26/49/84
f 31/59/85 32/60/86 20/61/87
f 12/12/88 25/62/89 33/63/90 22/43/91
f 22/43/92 33/63/93 47/64/94 40/65/95
f 34/66/96 23/67/97 35/68/98
f 27/69/99 8/8/100 10/10/101
f 36/70/102 37/71/103 28/72/104
f 3/41/105 38/73/106 39/74/107 25/47/108
f 40/65/109 27/69/110 10/10/111
f 23/44/112 20/38/113 32/75/114
f 38/73/115 3/41/116 21/77/117 28/78/118
f 30/79/119 38/80/120 41/81/121
f 28/56/122 6/6/123 29/82/124 36/83/125
f 39/84/126 38/80/127 30/79/128 42/85/129
f 26/49/130 30/58/131 36/87/132 29/88/133
f 43/89/134 39/84/135 42/85/136
f 23/90/137 42/91/138 30/58/139 1/48/140
f 27/69/141 31/92/142 20/93/143 8/8/144
f 44/94/145 34/95/146 45/96/147
f 34/95/148 32/99/149 31/97/150 27/55/151
f 45/100/152 43/101/153 46/102/154
f 38/73/155 28/78/156 37/103/157 41/104/158
f 47/64/159 48/105/160 40/65/161
f 45/100/162 46/102/163 44/106/164
f 36/87/165 30/58/166 41/107/167 37/108/168
f 40/65/169 10/10/170 22/43/171
f 23/90/172 34/109/173 44/110/174 42/91/175
f 47/111/176 43/101/177 45/100/178 48/112/179
f 42/91/180 44/110/181 46/113/182 43/114/183
f 40/86/184 48/115/185 45/96/186 34/95/187
f 25/47/188 39/74/189 33/116/190
f 13/13/191 9/31/192 1/14/193
f 1/14/194 9/31/195 8/39/196 23/44/197
f 6/6/198 11/28/199 2/45/200 24/46/201
f 16/20/202 19/34/203 18/33/204
f 19/34/205 16/20/206 4/36/207 15/37/208
f 27/55/209 40/86/210 34/95/211
f 11/25/212 1/14/213 5/15/214
f 34/95/215 35/98/216 32/99/217
f 23/44/218 32/75/219 35/76/220
f 25/62/221 12/12/222 4/16/223 3/17/224
