# This file uses centimeters as units for non-parametric coordinates.

v 19.685511 15.127705 31.879574
v -0.654999 5.895802 34.920181
v 14.968448 7.162393 32.820057
v -19.685511 15.127705 35.685852
v -15.039759 7.312594 35.979401
v -0.654999 27.147190 27.345507
v 15.414212 24.554768 26.880438
v -15.414212 24.554768 30.581055
v 14.958847 13.272156 40.659267
v -0.617934 14.232615 42.822727
v -2.094452 6.805719 44.536057
v 10.010848 6.731437 42.906834
v -15.149895 13.869575 43.489250
v -12.748685 7.094369 44.912567
v -0.541534 22.318104 35.253426
v 11.374365 19.868397 34.408279
v -11.374365 20.432436 37.080124
v -15.044446 25.385626 -30.110123
v -17.197563 2.362081 -31.685421
v 14.813429 25.267197 -30.643990
v 17.259903 2.209501 -31.868956
v -0.822458 2.236026 -33.570229
v -0.826145 28.816465 -30.964046
v -0.826544 13.619511 -36.855747
v 27.910480 10.942925 -36.126640
v 23.440491 13.522840 -24.027327
v -23.748022 13.346938 -22.901617
v -15.448462 27.051167 -26.216759
v -25.665134 13.443514 -18.490894
v -17.891661 1.484371 -28.894939
v -1.138292 0.075939 -25.587957
v 17.984665 2.147584 -27.977638
v 25.336283 13.468289 -20.114477
v 16.439497 26.593456 -26.553043
v -1.169792 33.175911 -24.585247
v -28.196825 13.949587 -35.163811
v -28.123405 7.867126 -37.509041
v -28.822811 10.987146 -33.387569
v 18.624538 26.805786 21.346333
v 25.044123 15.081763 23.923918
v 18.879120 2.531133 25.313768
v -0.858243 0.846500 28.001867
v -18.865631 2.687087 28.646799
v -25.042973 15.108979 30.851294
v -18.435299 26.847740 23.761457
v -0.867487 30.810978 21.926722
v 20.858082 15.123440 32.961483
v -0.694037 5.413653 36.183197
v 15.860016 6.635086 33.957989
v -20.858082 15.123440 36.994480
v -15.860016 6.759312 37.305511
v -0.694037 27.858862 31.544403
v 15.860016 24.825336 31.532696
v -15.860016 24.825336 35.340332
v 17.958155 28.059408 30.303192
v 24.754074 15.174261 31.750662
v 27.831457 15.154940 25.290459
v 19.908829 29.283653 23.116079
v 20.114414 1.778469 27.717422
v 17.991917 3.381902 33.171253
v -0.651111 1.579535 35.484650
v -0.755450 -0.006601 30.249062
v -20.248825 1.841842 31.061539
v -18.105419 3.475381 36.666241
v -24.666080 15.201079 36.083084
v -27.743582 15.201338 31.452627
v -19.927158 29.390274 25.723949
v -18.080744 28.131077 34.032642
v -0.797266 34.214989 23.819916
v -0.682492 32.425781 30.515999
v 25.301689 14.742455 -35.919540
v 24.682859 6.018024 -35.433193
v 24.870193 10.710558 -37.345028
v 27.206696 11.185200 -31.022940
v -17.748693 29.181561 -5.187833
v -18.809853 1.967861 -4.248875
v 26.288216 14.104057 -0.082698
v -1.292700 36.488838 -6.750633
v 17.776217 28.084183 -1.511315
v 19.629208 2.547892 -0.891156
v -1.526016 -0.974613 -4.559906
v -26.284693 13.817500 -4.569551
v -20.156427 30.092999 29.719328
v -27.777065 15.201516 33.914387
v -20.331701 1.246129 34.042549
v -0.747556 -0.249170 32.936913
v 20.194950 1.196077 30.276270
v 27.865021 15.161704 28.182619
v 20.072796 29.995720 26.206703
v -0.786157 35.098183 26.699692
v -0.739078 0.000000 32.350182
v 14.780335 1.882948 31.803343
v 12.834445 0.000000 39.982601
v -1.134270 0.000000 41.815899
v 22.212458 9.156931 29.309570
v 16.879051 7.301382 38.089264
v -22.212458 9.156931 33.115849
v -16.646667 1.900275 34.578308
v -16.928648 0.000000 42.323017
v -18.361969 7.898800 40.919247
v -2.292618 4.292151 50.456604
v 7.029040 4.472167 46.671043
v -1.770414 0.000000 53.446671
v 10.017315 0.000000 46.583183
v -11.506603 4.690194 48.334606
v -14.468426 0.000000 48.923599
vt 0.048583 0.299571
vt 0.048919 0.299578
vt 0.048283 0.299565
vt 0.048849 0.299585
vt 0.048535 0.299582
vt 0.048272 0.299575
vt 0.048634 0.299558
vt 0.048871 0.299566
vt 0.048919 0.299577
vt 0.048282 0.299564
vt 0.048402 0.299556
vt 0.048813 0.299586
vt 0.048528 0.299584
vt 0.048292 0.299576
vt 0.647875 0.273933
vt 0.741613 0.273990
vt 0.743784 0.213415
vt 0.647972 0.214905
vt 0.643234 0.174070
vt 0.645684 0.180672
vt 0.727942 0.175988
vt 0.679416 0.175988
vt 0.649928 0.174070
vt 0.712528 0.175988
vt 0.679423 0.175869
vt 0.713871 0.268105
vt 0.679361 0.272805
vt 0.678193 0.213993
vt 0.715183 0.220650
vt 0.668299 0.179017
vt 0.699871 0.181251
vt 0.700086 0.208243
vt 0.666744 0.217531
vt 0.648155 0.179804
vt 0.678871 0.185311
vt 0.730059 0.261594
vt 0.699342 0.258386
vt 0.728859 0.211139
vt 0.671025 0.174070
vt 0.649307 0.174070
vt 0.699270 0.173926
vt 0.654304 0.188714
vt 0.725243 0.179508
vt 0.634469 0.198147
vt 0.665260 0.257371
vt 0.724651 0.263796
vt 0.726826 0.222213
vt 0.713719 0.181938
vt 0.651508 0.193316
vt 0.625633 0.180425
vt 0.751572 0.174070
vt 0.625898 0.175988
vt 0.724780 0.173960
vt 0.741481 0.190975
vt 0.649201 0.175880
vt 0.666426 0.270240
vt 0.654543 0.275836
vt 0.649104 0.269109
vt 0.662728 0.264246
vt 0.716172 0.273488
vt 0.712320 0.278139
vt 0.679723 0.283098
vt 0.679554 0.278408
vt 0.645311 0.279479
vt 0.649204 0.283522
vt 0.637733 0.286992
vt 0.632293 0.281379
vt 0.733069 0.269663
vt 0.729439 0.275542
vt 0.699019 0.272270
vt 0.699200 0.265805
vt 0.708592 0.283025
vt 0.679648 0.289621
vt 0.653130 0.288140
vt 0.644391 0.291046
vt 0.725557 0.280598
vt 0.707034 0.285155
vt 0.679716 0.291935
vt 0.717332 0.284372
vt 0.715281 0.285742
vt 0.654689 0.290227
vt 0.732245 0.287352
vt 0.670094 0.275428
vt 0.670874 0.277335
vt 0.699039 0.279398
vt 0.698971 0.281114
vt 0.724777 0.282500
vt 0.663015 0.260465
vt 0.649162 0.264267
vt 0.716031 0.270429
vt 0.679540 0.274856
vt 0.645456 0.276276
vt 0.632352 0.276960
vt 0.732668 0.265025
vt 0.699219 0.261696
vt 0.729583 0.271797
vt 0.729524 0.266186
vt 0.746394 0.278824
vt 0.746335 0.275042
vt 0.728759 0.175988
vt 0.735452 0.175988
vt 0.637074 0.275909
vt 0.654036 0.261878
vt 0.661355 0.279646
vt 0.724144 0.279608
vt 0.646441 0.292491
vt 0.734296 0.286503
vt 0.663405 0.280494
vt 0.740954 0.283379
vt 0.699271 0.174070
vt 0.752789 0.174070
vt 0.753054 0.178506
vt 0.637206 0.192893
vt 0.724383 0.190633
vt 0.727179 0.195235
vt 0.744218 0.196228
vt 0.651860 0.220295
vt 0.634903 0.215333
vt 0.733002 0.182591
vt 0.048636 0.299558
vt 0.048872 0.299566
vt 0.048871 0.299566
vt 0.048634 0.299558
vt 0.048919 0.299578
vt 0.048919 0.299577
vt 0.048283 0.299565
vt 0.048402 0.299556
vt 0.048402 0.299556
vt 0.048282 0.299564
vt 0.048871 0.299566
vt 0.048634 0.299558
vt 0.048634 0.299558
vt 0.048871 0.299566
vt 0.048402 0.299556
vt 0.048402 0.299556
vn 0.140413 0.209808 0.967608
vn 0.140413 0.209808 0.967608
vn 0.140413 0.209808 0.967608
vn 0.140413 0.209808 0.967608
vn 0.039740 0.217958 0.975149
vn 0.039740 0.217958 0.975149
vn 0.039740 0.217958 0.975149
vn 0.039740 0.217958 0.975149
vn 0.162870 0.696625 0.698704
vn 0.162870 0.696625 0.698704
vn 0.162870 0.696625 0.698704
vn 0.162870 0.696625 0.698704
vn 0.010162 0.688935 0.724752
vn 0.010162 0.688935 0.724752
vn 0.010162 0.688935 0.724752
vn 0.010162 0.688935 0.724752
vn 0.055480 -0.993573 -0.098666
vn 0.055480 -0.993573 -0.098666
vn 0.055480 -0.993573 -0.098666
vn 0.055480 -0.993573 -0.098666
vn 0.797583 -0.562286 0.218394
vn 0.797583 -0.562286 0.218394
vn 0.797583 -0.562286 0.218394
vn 0.797583 -0.562286 0.218394
vn -0.909371 -0.395696 0.128333
vn -0.909371 -0.395696 0.128333
vn -0.909371 -0.395696 0.128333
vn -0.909371 -0.395696 0.128333
vn -0.069098 -0.991284 -0.112171
vn -0.069098 -0.991284 -0.112171
vn -0.069098 -0.991284 -0.112171
vn -0.069098 -0.991284 -0.112171
vn 0.534226 0.645309 0.546058
vn 0.534226 0.645309 0.546058
vn 0.534226 0.645309 0.546058
vn 0.534226 0.645309 0.546058
vn 0.173078 0.818131 0.548366
vn 0.173078 0.818131 0.548366
vn 0.173078 0.818131 0.548366
vn 0.173078 0.818131 0.548366
vn -0.511970 0.656528 0.553947
vn -0.511970 0.656528 0.553947
vn -0.511970 0.656528 0.553947
vn -0.511970 0.656528 0.553947
vn -0.041546 0.843252 0.535911
vn -0.041546 0.843252 0.535911
vn -0.041546 0.843252 0.535911
vn -0.041546 0.843252 0.535911
vn -0.870220 -0.491775 0.029581
vn -0.870220 -0.491775 0.029581
vn -0.870220 -0.491775 0.029581
vn -0.870220 -0.491775 0.029581
vn 0.837042 -0.528784 0.140528
vn 0.837042 -0.528784 0.140528
vn 0.837042 -0.528784 0.140528
vn -0.038452 -0.306997 -0.950934
vn -0.038452 -0.306997 -0.950934
vn -0.038452 -0.306997 -0.950934
vn -0.038452 -0.306997 -0.950934
vn 0.061576 -0.743351 -0.666061
vn 0.061576 -0.743351 -0.666061
vn 0.061576 -0.743351 -0.666061
vn 0.125535 -0.991616 0.030622
vn 0.125535 -0.991616 0.030622
vn 0.125535 -0.991616 0.030622
vn 0.125535 -0.991616 0.030622
vn 0.384467 0.916132 -0.113523
vn 0.384467 0.916132 -0.113523
vn 0.384467 0.916132 -0.113523
vn 0.384467 0.916132 -0.113523
vn -0.125403 -0.991978 -0.015901
vn -0.125403 -0.991978 -0.015901
vn -0.125403 -0.991978 -0.015901
vn -0.125403 -0.991978 -0.015901
vn -0.300057 0.945018 0.130022
vn -0.300057 0.945018 0.130022
vn -0.300057 0.945018 0.130022
vn -0.300057 0.945018 0.130022
vn 0.100601 0.359639 -0.927653
vn 0.100601 0.359639 -0.927653
vn 0.100601 0.359639 -0.927653
vn 0.014096 0.426140 -0.904547
vn 0.014096 0.426140 -0.904547
vn 0.014096 0.426140 -0.904547
vn 0.014096 0.426140 -0.904547
vn 0.740541 0.646830 0.182235
vn 0.740541 0.646830 0.182235
vn 0.740541 0.646830 0.182235
vn 0.740541 0.646830 0.182235
vn -0.848478 0.518092 -0.108007
vn -0.848478 0.518092 -0.108007
vn -0.848478 0.518092 -0.108007
vn -0.848478 0.518092 -0.108007
vn 0.863931 0.503500 0.010527
vn 0.863931 0.503500 0.010527
vn 0.863931 0.503500 0.010527
vn 0.863931 0.503500 0.010527
vn 0.858251 -0.511964 -0.036037
vn 0.858251 -0.511964 -0.036037
vn 0.858251 -0.511964 -0.036037
vn 0.858251 -0.511964 -0.036037
vn -0.972622 0.073292 -0.220535
vn -0.972622 0.073292 -0.220535
vn -0.972622 0.073292 -0.220535
vn -0.841407 0.430577 -0.326555
vn -0.841407 0.430577 -0.326555
vn -0.841407 0.430577 -0.326555
vn -0.841407 0.430577 -0.326555
vn -0.897194 -0.264091 -0.353975
vn -0.897194 -0.264091 -0.353975
vn -0.897194 -0.264091 -0.353975
vn -0.897194 -0.264091 -0.353975
vn -0.032752 -0.961143 -0.274102
vn -0.032752 -0.961143 -0.274102
vn -0.032752 -0.961143 -0.274102
vn -0.032752 -0.961143 -0.274102
vn 0.050514 -0.981366 -0.185391
vn 0.050514 -0.981366 -0.185391
vn 0.050514 -0.981366 -0.185391
vn 0.050514 -0.981366 -0.185391
vn 0.895565 -0.323425 -0.305548
vn 0.895565 -0.323425 -0.305548
vn 0.895565 -0.323425 -0.305548
vn 0.895565 -0.323425 -0.305548
vn 0.830254 0.362968 -0.423003
vn 0.830254 0.362968 -0.423003
vn 0.830254 0.362968 -0.423003
vn 0.830254 0.362968 -0.423003
vn 0.232626 0.842437 -0.485988
vn 0.232626 0.842437 -0.485988
vn 0.232626 0.842437 -0.485988
vn 0.232626 0.842437 -0.485988
vn -0.262547 0.823854 -0.502329
vn -0.262547 0.823854 -0.502329
vn -0.262547 0.823854 -0.502329
vn -0.262547 0.823854 -0.502329
vn -0.723209 0.625341 0.293118
vn -0.723209 0.625341 0.293118
vn -0.723209 0.625341 0.293118
vn -0.723209 0.625341 0.293118
vn -0.141774 0.357827 -0.922963
vn -0.141774 0.357827 -0.922963
vn -0.141774 0.357827 -0.922963
vn -0.050922 0.420590 -0.905821
vn -0.050922 0.420590 -0.905821
vn -0.050922 0.420590 -0.905821
vn -0.050922 0.420590 -0.905821
vn 0.033866 -0.457379 -0.888627
vn 0.033866 -0.457379 -0.888627
vn 0.033866 -0.457379 -0.888627
vn 0.033866 -0.457379 -0.888627
vn -0.577182 -0.692561 0.432690
vn -0.577182 -0.692561 0.432690
vn -0.577182 -0.692561 0.432690
vn -0.577182 -0.692561 0.432690
vn 0.689674 0.434505 0.579271
vn 0.689674 0.434505 0.579271
vn 0.689674 0.434505 0.579271
vn 0.689674 0.434505 0.579271
vn 0.686772 -0.294110 0.664713
vn 0.686772 -0.294110 0.664713
vn 0.686772 -0.294110 0.664713
vn 0.686772 -0.294110 0.664713
vn 0.141369 -0.769756 0.622487
vn 0.141369 -0.769756 0.622487
vn 0.141369 -0.769756 0.622487
vn 0.141369 -0.769756 0.622487
vn -0.032674 -0.779110 0.626035
vn -0.032674 -0.779110 0.626035
vn -0.032674 -0.779110 0.626035
vn -0.032674 -0.779110 0.626035
vn -0.569764 -0.289436 0.769153
vn -0.569764 -0.289436 0.769153
vn -0.569764 -0.289436 0.769153
vn -0.569764 -0.289436 0.769153
vn -0.620442 0.459478 0.635556
vn -0.620442 0.459478 0.635556
vn -0.620442 0.459478 0.635556
vn -0.620442 0.459478 0.635556
vn -0.122659 0.847693 0.516112
vn -0.122659 0.847693 0.516112
vn -0.122659 0.847693 0.516112
vn -0.122659 0.847693 0.516112
vn 0.206483 0.821763 0.531103
vn 0.206483 0.821763 0.531103
vn 0.206483 0.821763 0.531103
vn 0.206483 0.821763 0.531103
vn 0.139865 -0.161800 0.976862
vn 0.139865 -0.161800 0.976862
vn 0.139865 -0.161800 0.976862
vn 0.139865 -0.161800 0.976862
vn -0.209017 -0.076866 0.974886
vn -0.209017 -0.076866 0.974886
vn -0.209017 -0.076866 0.974886
vn -0.209017 -0.076866 0.974886
vn 0.049329 -0.199212 0.978714
vn 0.049329 -0.199212 0.978714
vn 0.049329 -0.199212 0.978714
vn 0.049329 -0.199212 0.978714
vn -0.202686 0.258351 0.944549
vn -0.202686 0.258351 0.944549
vn -0.202686 0.258351 0.944549
vn -0.202686 0.258351 0.944549
vn -0.018257 0.919351 0.393013
vn -0.018257 0.919351 0.393013
vn -0.018257 0.919351 0.393013
vn -0.018257 0.919351 0.393013
vn -0.604802 0.435592 0.666690
vn -0.604802 0.435592 0.666690
vn -0.604802 0.435592 0.666690
vn -0.604802 0.435592 0.666690
vn 0.676156 0.425505 0.601464
vn 0.676156 0.425505 0.601464
vn 0.676156 0.425505 0.601464
vn 0.676156 0.425505 0.601464
vn 0.114581 0.908696 0.401427
vn 0.114581 0.908696 0.401427
vn 0.114581 0.908696 0.401427
vn 0.114581 0.908696 0.401427
vn -0.899008 -0.344990 0.269752
vn -0.899008 -0.344990 0.269752
vn -0.899008 -0.344990 0.269752
vn -0.899008 -0.344990 0.269752
vn -0.167139 -0.979047 0.116329
vn -0.167139 -0.979047 0.116329
vn -0.167139 -0.979047 0.116329
vn -0.167139 -0.979047 0.116329
vn 0.902345 -0.346837 0.255887
vn 0.902345 -0.346837 0.255887
vn 0.902345 -0.346837 0.255887
vn 0.902345 -0.346837 0.255887
vn 0.210141 -0.970549 0.117792
vn 0.210141 -0.970549 0.117792
vn 0.210141 -0.970549 0.117792
vn 0.210141 -0.970549 0.117792
vn 0.245795 0.247681 0.937144
vn 0.245795 0.247681 0.937144
vn 0.245795 0.247681 0.937144
vn 0.245795 0.247681 0.937144
vn 0.542972 0.149329 -0.826367
vn 0.542972 0.149329 -0.826367
vn 0.542972 0.149329 -0.826367
vn 0.542972 0.149329 -0.826367
vn 0.583762 -0.415272 -0.697690
vn 0.583762 -0.415272 -0.697690
vn 0.583762 -0.415272 -0.697690
vn 0.583762 -0.415272 -0.697690
vn 0.288469 -0.053338 0.956003
vn 0.288469 -0.053338 0.956003
vn 0.288469 -0.053338 0.956003
vn 0.288469 -0.053338 0.956003
vn 0.037273 -0.941233 -0.335696
vn 0.037273 -0.941233 -0.335696
vn 0.037273 -0.941233 -0.335696
vn 0.037273 -0.941233 -0.335696
vn -0.105184 -0.924741 -0.365773
vn -0.105184 -0.924741 -0.365773
vn -0.105184 -0.924741 -0.365773
vn -0.105184 -0.924741 -0.365773
vn -0.554694 -0.213187 -0.804280
vn -0.554694 -0.213187 -0.804280
vn -0.554694 -0.213187 -0.804280
vn -0.554694 -0.213187 -0.804280
vn -0.561696 -0.093908 -0.821997
vn -0.561696 -0.093908 -0.821997
vn -0.561696 -0.093908 -0.821997
vn -0.561696 -0.093908 -0.821997
vn -0.205011 0.497508 -0.842886
vn -0.205011 0.497508 -0.842886
vn -0.205011 0.497508 -0.842886
vn -0.205011 0.497508 -0.842886
vn 0.139210 0.317407 0.938016
vn 0.139210 0.317407 0.938016
vn 0.139210 0.317407 0.938016
vn 0.139210 0.317407 0.938016
vn 0.086569 0.512198 -0.854493
vn 0.086569 0.512198 -0.854493
vn 0.086569 0.512198 -0.854493
vn 0.086569 0.512198 -0.854493
vn 0.061269 0.262180 0.963072
vn 0.061269 0.262180 0.963072
vn 0.061269 0.262180 0.963072
vn 0.061269 0.262180 0.963072
vn 0.557262 -0.664484 0.497915
vn 0.557262 -0.664484 0.497915
vn 0.557262 -0.664484 0.497915
vn 0.557262 -0.664484 0.497915
vn 0.370378 -0.363117 -0.854966
vn 0.370378 -0.363117 -0.854966
vn 0.370378 -0.363117 -0.854966
vn 0.338371 0.281274 -0.897992
vn 0.338371 0.281274 -0.897992
vn 0.338371 0.281274 -0.897992
vn 0.823468 0.560662 0.086940
vn 0.823468 0.560662 0.086940
vn 0.823468 0.560662 0.086940
vn -0.846083 -0.532601 -0.021893
vn -0.846083 -0.532601 -0.021893
vn -0.846083 -0.532601 -0.021893
vn -0.846083 -0.532601 -0.021893
vn 0.138077 -0.990276 -0.016990
vn 0.138077 -0.990276 -0.016990
vn 0.138077 -0.990276 -0.016990
vn 0.138077 -0.990276 -0.016990
vn 0.290834 0.949101 0.120924
vn 0.290834 0.949101 0.120924
vn 0.290834 0.949101 0.120924
vn 0.290834 0.949101 0.120924
vn -0.133142 -0.990302 0.039677
vn -0.133142 -0.990302 0.039677
vn -0.133142 -0.990302 0.039677
vn -0.133142 -0.990302 0.039677
vn -0.395549 0.905857 -0.151539
vn -0.395549 0.905857 -0.151539
vn -0.395549 0.905857 -0.151539
vn -0.395549 0.905857 -0.151539
vn -0.870988 0.491061 0.015463
vn -0.870988 0.491061 0.015463
vn -0.870988 0.491061 0.015463
vn -0.870988 0.491061 0.015463
vn 0.848305 0.525144 -0.067849
vn 0.848305 0.525144 -0.067849
vn 0.848305 0.525144 -0.067849
vn 0.848305 0.525144 -0.067849
vn 0.882438 -0.468366 0.044010
vn 0.882438 -0.468366 0.044010
vn 0.882438 -0.468366 0.044010
vn 0.882438 -0.468366 0.044010
vn -0.891771 0.444493 -0.084674
vn -0.891771 0.444493 -0.084674
vn -0.891771 0.444493 -0.084674
vn -0.891771 0.444493 -0.084674
vn -0.875412 -0.478130 -0.071031
vn -0.875412 -0.478130 -0.071031
vn -0.875412 -0.478130 -0.071031
vn -0.875412 -0.478130 -0.071031
vn -0.091485 -0.984919 -0.146854
vn -0.091485 -0.984919 -0.146854
vn -0.091485 -0.984919 -0.146854
vn -0.091485 -0.984919 -0.146854
vn 0.056812 -0.986120 -0.156010
vn 0.056812 -0.986120 -0.156010
vn 0.056812 -0.986120 -0.156010
vn 0.056812 -0.986120 -0.156010
vn 0.864258 -0.498059 -0.070686
vn 0.864258 -0.498059 -0.070686
vn 0.864258 -0.498059 -0.070686
vn 0.864258 -0.498059 -0.070686
vn 0.880826 0.465740 -0.085041
vn 0.880826 0.465740 -0.085041
vn 0.880826 0.465740 -0.085041
vn 0.880826 0.465740 -0.085041
vn 0.219703 0.940877 -0.257840
vn 0.219703 0.940877 -0.257840
vn 0.219703 0.940877 -0.257840
vn 0.219703 0.940877 -0.257840
vn -0.267933 0.936888 -0.224618
vn -0.267933 0.936888 -0.224618
vn -0.267933 0.936888 -0.224618
vn -0.267933 0.936888 -0.224618
vn 0.403872 0.429276 0.807843
vn 0.403872 0.429276 0.807843
vn 0.403872 0.429276 0.807843
vn 0.403872 0.429276 0.807843
vn 0.854341 0.098521 0.510289
vn 0.854341 0.098521 0.510289
vn 0.854341 0.098521 0.510289
vn 0.854341 0.098521 0.510289
vn 0.576512 -0.133378 0.806129
vn 0.576512 -0.133378 0.806129
vn 0.576512 -0.133378 0.806129
vn 0.576512 -0.133378 0.806129
vn -0.579129 0.005724 0.815216
vn -0.579129 0.005724 0.815216
vn -0.579129 0.005724 0.815216
vn -0.579129 0.005724 0.815216
vn -0.849754 0.198101 0.488544
vn -0.849754 0.198101 0.488544
vn -0.849754 0.198101 0.488544
vn -0.849754 0.198101 0.488544
vn -0.256809 0.417128 0.871810
vn -0.256809 0.417128 0.871810
vn -0.256809 0.417128 0.871810
vn -0.256809 0.417128 0.871810
vn 0.114220 0.875736 0.469084
vn 0.114220 0.875736 0.469084
vn 0.114220 0.875736 0.469084
vn 0.114220 0.875736 0.469084
vn -0.000000 -1.000000 0.000000
vn -0.000000 -1.000000 0.000000
vn -0.000000 -1.000000 0.000000
vn -0.000000 -1.000000 0.000000
vn 0.809855 0.281783 0.514523
vn 0.809855 0.281783 0.514523
vn 0.809855 0.281783 0.514523
vn 0.809855 0.281783 0.514523
vn -0.010433 0.884366 0.466678
vn -0.010433 0.884366 0.466678
vn -0.010433 0.884366 0.466678
vn -0.010433 0.884366 0.466678
vn -0.811855 0.423838 0.401563
vn -0.811855 0.423838 0.401563
vn -0.811855 0.423838 0.401563
vn -0.811855 0.423838 0.401563
vn -0.000000 -1.000000 0.000000
vn -0.000000 -1.000000 0.000000
vn -0.000000 -1.000000 0.000000
vn -0.000000 -1.000000 0.000000
s off
f 9/9/1 10/1/2 11/7/3 12/8/4
f 10/1/5 13/10/6 14/11/7 11/7/8
f 15/13/9 10/1/10 9/9/11 16/12/12
f 17/14/13 13/10/14 10/1/15 15/13/16
f 91/120/17 92/121/18 93/122/19 94/123/20
f 92/121/21 95/124/22 96/125/23 93/122/24
f 97/126/25 98/127/26 99/128/27 100/129/28
f 98/127/29 91/120/30 94/123/31 99/128/32
f 1/2/33 7/4/34 16/12/35 9/9/36
f 7/4/37 6/5/38 15/13/39 16/12/40
f 8/6/41 4/3/42 13/10/43 17/14/44
f 6/5/45 8/6/46 17/14/47 15/13/48
f 43/15/49 44/102/50 82/118/51 76/18/52
f 25/101/53 74/119/54 72/21/55
f 22/25/56 24/22/57 73/100/58 72/21/59
f 72/21/60 21/24/61 22/25/62
f 41/26/63 42/27/64 81/28/65 80/29/66
f 34/30/67 35/31/68 78/32/69 79/33/70
f 30/34/71 31/35/72 81/28/73 76/18/74
f 45/36/75 46/37/76 78/32/77 75/38/78
f 23/41/79 20/39/80 24/110/81
f 71/40/82 73/23/83 24/110/84 20/39/85
f 20/39/86 26/42/87 74/20/88 71/40/89
f 28/43/90 29/116/91 82/17/92 75/38/93
f 39/45/94 40/103/95 77/117/96 79/33/97
f 32/48/98 33/115/99 77/47/100 80/29/101
f 38/112/102 36/51/103 37/111/104
f 18/53/105 27/54/106 29/116/107 28/43/108
f 30/34/109 29/44/110 27/113/111 19/55/112
f 19/55/113 22/25/114 31/35/115 30/34/116
f 32/48/117 31/35/118 22/25/119 21/24/120
f 21/24/121 26/114/122 33/115/123 32/48/124
f 34/30/125 33/49/126 26/42/127 20/39/128
f 20/39/129 23/41/130 35/31/131 34/30/132
f 28/43/133 35/31/134 23/41/135 18/53/136
f 18/53/137 36/51/138 38/112/139 27/54/140
f 23/41/141 24/110/142 18/53/143
f 24/110/144 37/111/145 36/51/146 18/53/147
f 37/52/148 24/22/149 22/25/150 19/55/151
f 19/55/152 27/113/153 38/50/154 37/52/155
f 55/56/156 56/57/157 88/58/158 89/59/159
f 87/60/160 88/96/161 56/105/162 60/61/163
f 61/62/164 86/63/165 87/60/166 60/61/167
f 85/64/168 86/63/169 61/62/170 64/65/171
f 65/66/172 84/67/173 85/64/174 64/65/175
f 83/68/176 84/98/177 65/109/178 68/69/179
f 70/70/180 90/71/181 83/68/182 68/69/183
f 89/59/184 90/71/185 70/70/186 55/56/187
f 49/72/188 48/73/189 61/62/190 60/61/191
f 51/74/192 50/75/193 65/66/194 64/65/195
f 48/73/196 51/74/197 64/65/198 61/62/199
f 50/107/200 54/76/201 68/69/202 65/109/203
f 48/73/204 49/72/205 3/77/206 2/78/207
f 49/72/208 47/79/209 1/80/210 3/77/211
f 50/75/212 51/74/213 5/81/214 4/106/215
f 51/74/216 48/73/217 2/78/218 5/81/219
f 47/104/220 53/83/221 7/84/222 1/108/223
f 53/83/224 52/85/225 6/86/226 7/84/227
f 54/76/228 50/107/229 4/82/230 8/87/231
f 52/85/232 54/76/233 8/87/234 6/86/235
f 47/104/236 56/57/237 55/56/238 53/83/239
f 40/103/240 39/45/241 58/88/242 57/89/243
f 41/26/244 40/46/245 57/97/246 59/90/247
f 49/72/248 60/61/249 56/105/250 47/79/251
f 42/27/252 41/26/253 59/90/254 62/91/255
f 43/15/256 42/27/257 62/91/258 63/92/259
f 44/102/260 43/15/261 63/92/262 66/93/263
f 45/36/264 44/16/265 66/99/266 67/94/267
f 46/37/268 45/36/269 67/94/270 69/95/271
f 52/85/272 70/70/273 68/69/274 54/76/275
f 39/45/276 46/37/277 69/95/278 58/88/279
f 53/83/280 55/56/281 70/70/282 52/85/283
f 72/21/284 74/119/285 26/114/286 21/24/287
f 72/21/288 73/100/289 25/101/290
f 73/23/291 71/40/292 25/19/293
f 71/40/294 74/20/295 25/19/296
f 76/18/297 82/118/298 29/44/299 30/34/300
f 80/29/301 81/28/302 31/35/303 32/48/304
f 79/33/305 78/32/306 46/37/307 39/45/308
f 76/18/309 81/28/310 42/27/311 43/15/312
f 75/38/313 78/32/314 35/31/315 28/43/316
f 75/38/317 82/17/318 44/16/319 45/36/320
f 79/33/321 77/117/322 33/49/323 34/30/324
f 80/29/325 77/47/326 40/46/327 41/26/328
f 67/94/329 66/99/330 84/98/331 83/68/332
f 85/64/333 84/67/334 66/93/335 63/92/336
f 63/92/337 62/91/338 86/63/339 85/64/340
f 87/60/341 86/63/342 62/91/343 59/90/344
f 59/90/345 57/97/346 88/96/347 87/60/348
f 89/59/349 88/58/350 57/89/351 58/88/352
f 58/88/353 69/95/354 90/71/355 89/59/356
f 83/68/357 90/71/358 69/95/359 67/94/360
f 102/130/361 101/131/362 103/132/363 104/133/364
f 1/2/365 9/9/366 96/125/367 95/124/368
f 9/9/369 12/8/370 93/122/371 96/125/372
f 14/11/373 13/10/374 100/129/375 99/128/376
f 13/10/377 4/3/378 97/126/379 100/129/380
f 101/131/381 105/134/382 106/135/383 103/132/384
f 12/8/385 11/7/386 101/131/387 102/130/388
f 94/123/389 93/122/390 104/133/391 103/132/392
f 93/122/393 12/8/394 102/130/395 104/133/396
f 11/7/397 14/11/398 105/134/399 101/131/400
f 14/11/401 99/128/402 106/135/403 105/134/404
f 99/128/405 94/123/406 103/132/407 106/135/408
