# This file uses centimeters as units for non-parametric coordinates.

v -8.454883 3.560762 -20.412682
v -25.051929 7.940238 -10.377445
v -10.375952 7.940238 -25.053417
v -14.508471 0.972737 -6.009611
v -20.412378 3.560762 8.455215
v -20.412378 3.560762 -8.455198
v 0.000003 0.000002 0.000008
v -14.508520 0.972737 6.009627
v 6.009619 0.972737 -14.508489
v 8.455566 3.560759 -20.412682
v -25.051880 7.940238 10.377462
v 10.378955 7.940238 -25.053417
v -6.009644 0.972737 14.508473
v 14.508520 0.972736 -6.009587
v 20.413036 3.560762 -8.455198
v 6.009619 0.972737 14.508534
v -8.454883 3.560762 20.412697
v 14.508496 0.972737 6.009627
v -10.375952 7.940228 25.053413
v 25.054932 7.940245 -10.377463
v 20.413036 3.560762 8.455245
v 8.455542 3.560759 20.412697
v 10.378955 7.940238 25.053413
v 25.054932 7.940238 10.377462
v -6.009644 0.972737 -14.508519
v -10.561809 11.373283 -25.503170
v -25.501232 11.373283 -10.563738
v -25.501207 11.373283 10.563755
v 10.565711 11.373283 -25.503170
v -10.561809 11.373283 25.503160
v 25.499546 11.373283 -10.563758
v 10.565711 11.373283 25.503172
v 25.499573 11.373283 10.563755
v -0.000171 1.836435 0.000008
v -27.084219 16.079138 -11.219511
v -11.217405 16.079138 -27.086338
v -27.084192 16.079138 11.219528
v 11.221674 16.079138 -27.086338
v -11.217405 16.079138 27.086344
v 27.082560 16.079138 -11.219531
v 11.221674 16.079138 27.086355
v 27.082560 16.079138 11.219528
v -12.242188 13.064776 -29.560532
v -29.558350 13.064776 -12.244352
v -29.558350 15.925771 -12.244352
v -12.242188 15.925771 -29.560532
v -29.558325 13.064776 12.244375
v -29.558325 15.925771 12.244375
v 12.246729 13.064776 -29.560398
v 12.246729 15.925771 -29.560398
v -12.242188 13.064776 29.560535
v -12.242188 15.925771 29.560535
v 29.556835 13.064776 -12.244236
v 29.556835 15.925771 -12.244236
v 12.246729 13.064776 29.560413
v 12.246729 15.925771 29.560413
v 29.556835 13.064776 12.244228
v 29.556835 15.925771 12.244228
v -8.567090 6.721757 -20.686192
v -6.636133 4.178977 -16.023521
v -20.684814 6.721796 -8.568510
v -16.022339 4.178952 -6.637089
v -20.684814 6.721823 8.568533
v -16.022266 4.178945 6.637087
v 8.569946 6.721779 -20.686205
v 6.638208 4.178973 -16.023491
v -8.567114 6.721832 20.686237
v -6.636084 4.178960 16.023403
v 20.683228 6.721902 -8.568546
v 16.020777 4.178933 -6.637046
v 8.569946 6.721757 20.686201
v 6.638208 4.178977 16.023531
v 20.683130 6.721759 8.568514
v 16.021021 4.178967 6.637155
vt 0.515790 0.421236
vt 0.515738 0.421493
vt 0.515846 0.421500
vt 0.515893 0.421291
vt 0.525516 0.474116
vt 0.525520 0.474112
vt 0.525517 0.474110
vt 0.525514 0.474112
vt 0.525514 0.474104
vt 0.525518 0.474099
vt 0.525518 0.474105
vt 0.515872 0.421724
vt 0.515767 0.421766
vt 0.525521 0.474105
vt 0.525520 0.474097
vt 0.525511 0.474109
vt 0.525515 0.474095
vt 0.515911 0.421112
vt 0.515999 0.421197
vt 0.525512 0.474112
vt 0.525512 0.474097
vt 0.525517 0.474092
vt 0.525510 0.474103
vt 0.525510 0.474102
vt 0.525513 0.474093
vt 0.515619 0.421486
vt 0.515649 0.421807
vt 0.516114 0.421305
vt 0.516048 0.421239
vt 0.515963 0.421863
vt 0.515870 0.421943
vt 0.515758 0.422024
vt 0.516098 0.421593
vt 0.525529 0.474115
vt 0.516155 0.421580
vt 0.516012 0.421899
vt 0.516084 0.421820
vt 0.515915 0.421982
vt 0.525531 0.474105
vt 0.525532 0.474105
vt 0.525530 0.474117
vt 0.525525 0.474120
vt 0.525525 0.474122
vt 0.525521 0.474115
vt 0.525520 0.474117
vt 0.525519 0.474101
vt 0.525518 0.474101
vt 0.525522 0.474090
vt 0.525521 0.474087
vt 0.525530 0.474105
vt 0.525528 0.474116
vt 0.525526 0.474114
vt 0.525527 0.474105
vt 0.525523 0.474122
vt 0.525522 0.474118
vt 0.525528 0.474094
vt 0.525531 0.474094
vt 0.525527 0.474096
vt 0.525530 0.474095
vt 0.525517 0.474117
vt 0.525517 0.474114
vt 0.525524 0.474086
vt 0.525527 0.474086
vt 0.525523 0.474090
vt 0.525527 0.474088
vt 0.525515 0.474101
vt 0.525516 0.474102
vt 0.525519 0.474088
vt 0.525519 0.474091
vt 0.515673 0.421182
vt 0.515803 0.421024
vt 0.515957 0.421169
vt 0.516015 0.421607
vt 0.515723 0.421246
vt 0.515785 0.421500
vt 0.515832 0.421127
vt 0.515830 0.421285
vt 0.515676 0.421494
vt 0.515810 0.421728
vt 0.515955 0.421251
vt 0.515932 0.421188
vt 0.515702 0.421758
vt 0.515898 0.421872
vt 0.515999 0.421590
vt 0.516044 0.421297
vt 0.515922 0.421884
vt 0.516084 0.421581
vt 0.515795 0.421929
vt 0.516015 0.421829
vt 0.515900 0.421342
vt 0.515982 0.421269
vt 0.515863 0.421508
vt 0.516071 0.421354
vt 0.515883 0.421685
vt 0.516102 0.421570
vt 0.516048 0.421759
vt 0.515955 0.421794
vt 0.516016 0.421535
vt 0.525597 0.474128
vt 0.525598 0.474124
vt 0.525607 0.474127
vt 0.525610 0.474132
vt 0.525590 0.474113
vt 0.525592 0.474112
vt 0.525595 0.474096
vt 0.525596 0.474100
vt 0.525607 0.474090
vt 0.525605 0.474095
vt 0.525615 0.474121
vt 0.525620 0.474124
vt 0.525618 0.474096
vt 0.525614 0.474100
vt 0.525618 0.474110
vt 0.525623 0.474110
vn -0.485361 -0.727220 -0.485361
vn -0.485361 -0.727220 -0.485361
vn -0.485361 -0.727220 -0.485361
vn -0.485361 -0.727220 -0.485361
vn -0.401480 -0.915868 -0.000001
vn -0.401480 -0.915868 -0.000001
vn -0.401480 -0.915868 -0.000001
vn -0.401480 -0.915868 -0.000001
vn -0.066896 -0.997760 -0.000000
vn -0.066896 -0.997760 -0.000000
vn -0.066896 -0.997760 -0.000000
vn 0.000000 -0.997760 -0.066896
vn 0.000000 -0.997760 -0.066896
vn 0.000000 -0.997760 -0.066896
vn -0.000000 -0.727282 -0.686338
vn -0.000000 -0.727282 -0.686339
vn -0.000000 -0.727282 -0.686338
vn -0.000000 -0.727282 -0.686338
vn 0.000000 -0.915875 -0.401463
vn 0.000000 -0.915875 -0.401463
vn 0.000000 -0.915875 -0.401463
vn 0.000000 -0.915875 -0.401463
vn -0.047302 -0.997760 0.047303
vn -0.047302 -0.997760 0.047302
vn -0.047302 -0.997760 0.047302
vn 0.047302 -0.997760 -0.047303
vn 0.047302 -0.997760 -0.047303
vn 0.047302 -0.997760 -0.047303
vn -0.686433 -0.727193 0.000001
vn -0.686433 -0.727193 0.000001
vn -0.686433 -0.727193 0.000001
vn -0.686433 -0.727193 0.000001
vn -0.283886 -0.915870 0.283886
vn -0.283886 -0.915870 0.283886
vn -0.283886 -0.915870 0.283886
vn -0.283886 -0.915870 0.283886
vn 0.000002 -0.660417 -0.750899
vn 0.000002 -0.660417 -0.750899
vn 0.000002 -0.660417 -0.750899
vn 0.000002 -0.660417 -0.750899
vn 0.066896 -0.997760 0.000000
vn 0.066896 -0.997760 0.000000
vn 0.066896 -0.997760 0.000000
vn 0.283867 -0.915882 -0.283866
vn 0.283867 -0.915882 -0.283866
vn 0.283867 -0.915882 -0.283866
vn 0.283867 -0.915882 -0.283866
vn -0.000000 -0.997760 0.066896
vn -0.000000 -0.997760 0.066896
vn -0.000000 -0.997760 0.066896
vn -0.485362 -0.727219 0.485362
vn -0.485362 -0.727219 0.485362
vn -0.485362 -0.727219 0.485362
vn -0.485362 -0.727219 0.485362
vn 0.485270 -0.727342 -0.485270
vn 0.485270 -0.727342 -0.485270
vn 0.485270 -0.727342 -0.485270
vn 0.485270 -0.727342 -0.485270
vn 0.047303 -0.997760 0.047302
vn 0.047303 -0.997760 0.047302
vn 0.047303 -0.997760 0.047302
vn -0.000001 -0.915876 0.401462
vn -0.000001 -0.915876 0.401462
vn -0.000001 -0.915876 0.401462
vn -0.000001 -0.915876 0.401462
vn 0.401443 -0.915884 0.000000
vn 0.401443 -0.915884 0.000000
vn 0.401443 -0.915884 0.000000
vn 0.401443 -0.915884 0.000000
vn 0.531096 -0.660289 -0.530995
vn 0.531096 -0.660289 -0.530996
vn 0.531096 -0.660289 -0.530996
vn 0.531096 -0.660289 -0.530995
vn 0.283867 -0.915882 0.283867
vn 0.283867 -0.915882 0.283867
vn 0.283867 -0.915882 0.283867
vn 0.283867 -0.915882 0.283867
vn 0.000000 -0.727281 0.686340
vn 0.000000 -0.727281 0.686340
vn 0.000000 -0.727281 0.686340
vn 0.000000 -0.727281 0.686340
vn 0.686248 -0.727368 -0.000000
vn 0.686248 -0.727368 -0.000000
vn 0.686248 -0.727368 -0.000000
vn 0.686248 -0.727368 -0.000000
vn 0.485270 -0.727341 0.485271
vn 0.485270 -0.727341 0.485271
vn 0.485270 -0.727341 0.485271
vn 0.485270 -0.727341 0.485271
vn 0.751272 -0.659993 -0.000000
vn 0.751272 -0.659993 -0.000000
vn 0.751272 -0.659993 -0.000000
vn 0.751272 -0.659993 -0.000000
vn -0.283887 -0.915870 -0.283886
vn -0.283887 -0.915870 -0.283886
vn -0.283887 -0.915870 -0.283886
vn -0.283887 -0.915870 -0.283886
vn -0.047303 -0.997760 -0.047302
vn -0.047303 -0.997760 -0.047302
vn -0.047303 -0.997760 -0.047302
vn -0.043748 0.998084 -0.043748
vn -0.043748 0.998084 -0.043748
vn -0.043748 0.998084 -0.043748
vn -0.043748 0.998084 -0.043748
vn -0.061869 0.998084 0.000000
vn -0.061869 0.998084 0.000000
vn -0.061869 0.998084 0.000000
vn -0.061869 0.998084 0.000000
vn -0.043748 0.998084 0.043748
vn -0.043748 0.998084 0.043748
vn -0.043748 0.998084 0.043748
vn -0.043748 0.998084 0.043748
vn 0.000000 0.998084 0.061869
vn 0.000000 0.998084 0.061869
vn 0.000000 0.998084 0.061869
vn 0.000000 0.998084 0.061869
vn 0.043755 0.998084 0.043739
vn 0.043755 0.998084 0.043739
vn 0.043755 0.998084 0.043739
vn 0.043755 0.998084 0.043739
vn -0.707107 0.000000 -0.707106
vn -0.707107 0.000000 -0.707106
vn -0.707107 0.000000 -0.707106
vn -0.707107 0.000000 -0.707106
vn 0.670202 0.318841 0.670201
vn 0.670202 0.318841 0.670201
vn 0.670202 0.318841 0.670201
vn 0.670202 0.318841 0.670201
vn -1.000000 0.000000 0.000001
vn -1.000000 0.000000 0.000001
vn -1.000000 0.000000 0.000001
vn -1.000000 0.000000 0.000001
vn 0.947812 0.318831 -0.000001
vn 0.947812 0.318831 -0.000001
vn 0.947812 0.318831 -0.000001
vn 0.947812 0.318831 -0.000001
vn 0.000006 0.000000 -1.000000
vn 0.000006 0.000000 -1.000000
vn 0.000006 0.000000 -1.000000
vn 0.000006 0.000000 -1.000000
vn 0.000000 0.318864 0.947801
vn 0.000000 0.318864 0.947801
vn 0.000000 0.318864 0.947801
vn 0.000000 0.318864 0.947801
vn -0.707107 0.000000 0.707106
vn -0.707107 0.000000 0.707106
vn -0.707107 0.000000 0.707106
vn -0.707107 0.000000 0.707106
vn 0.670202 0.318842 -0.670201
vn 0.670202 0.318842 -0.670201
vn 0.670202 0.318842 -0.670201
vn 0.670202 0.318842 -0.670201
vn 0.707230 0.000000 -0.706983
vn 0.707230 0.000000 -0.706983
vn 0.707230 0.000000 -0.706983
vn 0.707230 0.000000 -0.706983
vn -0.670321 0.318867 0.670070
vn -0.670321 0.318867 0.670070
vn -0.670321 0.318867 0.670071
vn -0.670321 0.318867 0.670070
vn 0.000005 0.000000 1.000000
vn 0.000005 0.000000 1.000000
vn 0.000005 0.000000 1.000000
vn 0.000005 0.000000 1.000000
vn 0.000000 0.318867 -0.947800
vn 0.000000 0.318867 -0.947800
vn 0.000000 0.318867 -0.947800
vn 0.000000 0.318867 -0.947800
vn 0.707231 0.000000 0.706983
vn 0.707231 0.000000 0.706983
vn 0.707231 0.000000 0.706983
vn 0.707231 0.000000 0.706983
vn -0.670321 0.318866 -0.670071
vn -0.670321 0.318866 -0.670071
vn -0.670321 0.318866 -0.670071
vn -0.670321 0.318866 -0.670071
vn 1.000000 0.000000 0.000000
vn 1.000000 0.000000 0.000000
vn 1.000000 0.000000 0.000000
vn 1.000000 0.000000 0.000000
vn -0.947811 0.318834 0.000001
vn -0.947811 0.318834 0.000001
vn -0.947811 0.318834 0.000001
vn -0.947811 0.318834 0.000001
vn -0.530987 -0.660383 -0.530987
vn -0.530987 -0.660383 -0.530987
vn -0.530987 -0.660383 -0.530987
vn -0.530987 -0.660383 -0.530987
vn -0.750943 -0.660367 0.000001
vn -0.750943 -0.660367 0.000001
vn -0.750943 -0.660367 0.000001
vn -0.750943 -0.660367 0.000001
vn 0.000000 0.998084 -0.061869
vn 0.000000 0.998084 -0.061869
vn 0.000000 0.998084 -0.061869
vn 0.000000 0.998084 -0.061869
vn -0.530987 -0.660384 0.530986
vn -0.530987 -0.660384 0.530986
vn -0.530987 -0.660384 0.530986
vn -0.530987 -0.660384 0.530986
vn 0.043755 0.998084 -0.043739
vn 0.043755 0.998084 -0.043739
vn 0.043755 0.998084 -0.043739
vn 0.043755 0.998084 -0.043739
vn 0.000002 -0.660418 0.750898
vn 0.000002 -0.660418 0.750898
vn 0.000002 -0.660418 0.750898
vn 0.000002 -0.660418 0.750898
vn 0.531096 -0.660289 0.530995
vn 0.531096 -0.660289 0.530995
vn 0.531096 -0.660289 0.530995
vn 0.531096 -0.660289 0.530995
vn 0.061866 0.998084 0.000000
vn 0.061866 0.998084 0.000000
vn 0.061866 0.998084 0.000000
vn 0.061866 0.998084 0.000000
vn -0.000001 0.877935 0.478780
vn -0.000001 0.877935 0.478781
vn -0.000001 0.877935 0.478781
vn -0.000001 0.877935 0.478781
vn 0.338564 0.877925 0.338560
vn 0.338564 0.877925 0.338560
vn 0.338564 0.877925 0.338560
vn 0.338564 0.877925 0.338560
vn 0.478805 0.877922 -0.000002
vn 0.478805 0.877922 -0.000002
vn 0.478805 0.877922 -0.000002
vn 0.478805 0.877922 -0.000002
vn 0.338563 0.877925 -0.338561
vn 0.338562 0.877925 -0.338561
vn 0.338563 0.877925 -0.338561
vn 0.338563 0.877925 -0.338561
vn -0.338619 0.877932 0.338486
vn -0.338619 0.877932 0.338486
vn -0.338619 0.877932 0.338486
vn -0.338619 0.877932 0.338486
vn 0.000003 0.877935 -0.478781
vn 0.000003 0.877935 -0.478781
vn 0.000003 0.877935 -0.478781
vn 0.000003 0.877935 -0.478781
vn -0.478826 0.877910 0.000005
vn -0.478826 0.877910 0.000005
vn -0.478826 0.877910 0.000005
vn -0.478826 0.877910 0.000005
vn -0.338616 0.877932 -0.338489
vn -0.338616 0.877932 -0.338489
vn -0.338616 0.877932 -0.338489
vn -0.338616 0.877932 -0.338489
vn 0.491208 0.719326 0.491208
vn 0.491208 0.719326 0.491208
vn 0.491208 0.719326 0.491208
vn 0.491208 0.719326 0.491208
vn 0.694683 0.719316 -0.000001
vn 0.694683 0.719316 -0.000001
vn 0.694683 0.719316 -0.000001
vn 0.694683 0.719316 -0.000001
vn -0.000000 0.719353 0.694644
vn -0.000000 0.719353 0.694644
vn -0.000000 0.719353 0.694644
vn -0.000000 0.719353 0.694644
vn 0.491207 0.719327 -0.491207
vn 0.491207 0.719327 -0.491207
vn 0.491207 0.719327 -0.491207
vn 0.491207 0.719327 -0.491207
vn -0.491279 0.719354 0.491095
vn -0.491279 0.719354 0.491095
vn -0.491279 0.719354 0.491095
vn -0.491279 0.719354 0.491095
vn 0.000001 0.719353 -0.694644
vn 0.000001 0.719353 -0.694644
vn 0.000001 0.719353 -0.694644
vn 0.000001 0.719353 -0.694644
vn -0.491280 0.719352 -0.491098
vn -0.491280 0.719352 -0.491098
vn -0.491280 0.719352 -0.491098
vn -0.491280 0.719352 -0.491098
vn -0.694683 0.719316 0.000001
vn -0.694683 0.719316 0.000001
vn -0.694683 0.719316 0.000001
vn -0.694683 0.719316 0.000001
vn 0.102293 0.989481 0.102293
vn 0.102293 0.989481 0.102293
vn 0.102293 0.989481 0.102293
vn 0.144667 0.989480 -0.000000
vn 0.144667 0.989480 -0.000000
vn 0.144667 0.989480 -0.000000
vn 0.000000 0.989482 0.144656
vn 0.000000 0.989482 0.144656
vn 0.000000 0.989482 0.144656
vn 0.102293 0.989481 -0.102293
vn 0.102293 0.989481 -0.102293
vn 0.102293 0.989481 -0.102293
vn -0.102309 0.989482 0.102271
vn -0.102309 0.989482 0.102271
vn -0.102309 0.989482 0.102271
vn 0.000000 0.989482 -0.144656
vn 0.000000 0.989482 -0.144656
vn 0.000000 0.989482 -0.144656
vn -0.102309 0.989482 -0.102271
vn -0.102309 0.989482 -0.102271
vn -0.102309 0.989482 -0.102271
vn -0.144676 0.989479 0.000000
vn -0.144676 0.989479 0.000000
vn -0.144676 0.989479 0.000000
s off
f 2/1/1 3/2/2 1/3/3 6/4/4
f 5/5/5 6/6/6 4/7/7 8/8/8
f 7/9/9 8/8/10 4/7/11
f 9/10/12 7/9/13 25/11/14
f 10/12/15 1/3/16 3/2/17 12/13/18
f 1/14/19 10/15/20 9/10/21 25/11/22
f 8/8/23 7/9/24 13/16/25
f 7/9/26 9/10/27 14/17/28
f 11/18/29 2/1/30 6/4/31 5/19/32
f 5/5/33 8/8/34 13/16/35 17/20/36
f 12/13/37 3/2/38 43/26/39 49/27/40
f 7/9/41 14/17/42 18/21/43
f 9/10/44 10/15/45 15/22/46 14/17/47
f 7/9/48 16/23/49 13/16/50
f 11/18/51 5/19/52 17/28/53 19/29/54
f 15/30/55 10/12/56 12/13/57 20/31/58
f 7/9/59 18/21/60 16/23/61
f 17/20/62 13/16/63 16/23/64 22/24/65
f 18/21/66 14/17/67 15/22/68 21/25/69
f 20/31/70 12/13/71 49/27/72 53/32/73
f 16/23/74 18/21/75 21/25/76 22/24/77
f 23/33/78 19/29/79 17/28/80 22/35/81
f 15/30/82 20/31/83 24/36/84 21/37/85
f 23/33/86 22/35/87 21/37/88 24/36/89
f 24/36/90 20/31/91 53/32/92 57/38/93
f 4/7/94 6/6/95 1/14/96 25/11/97
f 25/11/98 7/9/99 4/7/100
f 35/34/101 36/39/102 46/40/103 45/41/104
f 37/42/105 35/34/106 45/41/107 48/43/108
f 39/44/109 37/42/110 48/43/111 52/45/112
f 41/46/113 39/44/114 52/45/115 56/47/116
f 42/48/117 41/46/118 56/47/119 58/49/120
f 43/50/121 44/51/122 45/41/123 46/40/124
f 27/52/125 26/53/126 36/39/127 35/34/128
f 44/51/129 47/54/130 48/43/131 45/41/132
f 28/55/133 27/52/134 35/34/135 37/42/136
f 49/56/137 43/50/138 46/40/139 50/57/140
f 26/53/141 29/58/142 38/59/143 36/39/144
f 47/54/145 51/60/146 52/45/147 48/43/148
f 30/61/149 28/55/150 37/42/151 39/44/152
f 53/62/153 49/56/154 50/57/155 54/63/156
f 29/58/157 31/64/158 40/65/159 38/59/160
f 51/60/161 55/66/162 56/47/163 52/45/164
f 32/67/165 30/61/166 39/44/167 41/46/168
f 55/66/169 57/68/170 58/49/171 56/47/172
f 33/69/173 32/67/174 41/46/175 42/48/176
f 57/68/177 53/62/178 54/63/179 58/49/180
f 31/64/181 33/69/182 42/48/183 40/65/184
f 2/1/185 44/70/186 43/26/187 3/2/188
f 11/18/189 47/71/190 44/70/191 2/1/192
f 38/59/193 50/57/194 46/40/195 36/39/196
f 19/29/197 51/72/198 47/71/199 11/18/200
f 40/65/201 54/63/202 50/57/203 38/59/204
f 23/33/205 55/73/206 51/72/207 19/29/208
f 24/36/209 57/38/210 55/73/211 23/33/212
f 42/48/213 58/49/214 54/63/215 40/65/216
f 59/99/217 60/100/218 66/101/219 65/102/220
f 60/100/221 59/99/222 61/103/223 62/104/224
f 62/104/225 61/103/226 63/105/227 64/106/228
f 64/106/229 63/105/230 67/107/231 68/108/232
f 65/102/233 66/101/234 70/109/235 69/110/236
f 68/108/237 67/107/238 71/111/239 72/112/240
f 69/110/241 70/109/242 74/113/243 73/114/244
f 72/112/245 71/111/246 73/114/247 74/113/248
f 26/78/249 27/74/250 61/77/251 59/75/252
f 27/74/253 28/76/254 63/81/255 61/77/256
f 29/82/257 26/78/258 59/75/259 65/79/260
f 28/76/261 30/80/262 67/85/263 63/81/264
f 31/88/265 29/82/266 65/79/267 69/83/268
f 30/80/269 32/84/270 71/87/271 67/85/272
f 32/84/273 33/86/274 73/89/275 71/87/276
f 33/86/277 31/88/278 69/83/279 73/89/280
f 60/92/281 62/90/282 34/98/283
f 62/90/284 64/91/285 34/98/286
f 66/94/287 60/92/288 34/98/289
f 64/91/290 68/93/291 34/98/292
f 70/97/293 66/94/294 34/98/295
f 68/93/296 72/95/297 34/98/298
f 72/95/299 74/96/300 34/98/301
f 74/96/302 70/97/303 34/98/304
