# This file uses centimeters as units for non-parametric coordinates.

v -25.636955 -0.617920 26.951553
v -26.727715 -1.927691 28.168716
v -25.431923 -3.437689 27.464447
v -25.378639 -1.841132 16.413879
v -27.049484 -0.217000 16.592575
v -25.996925 1.945145 15.689499
v -15.536926 1.515733 26.083725
v -16.283142 -0.157954 27.354782
v -15.215164 -1.790015 25.800354
v 15.174271 -1.827252 24.599518
v 16.192505 -0.345922 26.081680
v 14.697769 0.858502 25.203491
v 24.839294 -1.873619 25.390259
v 25.636826 -0.053738 26.533905
v 25.177841 1.310032 25.423676
v 24.166855 1.932459 14.917740
v 25.647934 0.537979 16.050720
v 24.465698 -1.756647 15.420944
v -25.402374 1.394936 -12.756836
v -27.067635 0.052636 -13.329178
v -25.976143 -1.797816 -12.897507
v -27.417625 -0.305182 -22.687729
v -28.400131 -1.548037 -23.570724
v -27.932671 -2.738938 -22.205002
v -16.665962 -2.953842 -23.536255
v -17.886688 -1.213719 -24.358871
v -16.525215 0.611035 -24.243362
v 15.021927 1.387591 -25.479706
v 15.684860 0.207063 -26.722977
v 14.731964 -1.681736 -25.056656
v 25.082077 0.719917 -25.419113
v 26.341217 -1.016689 -26.400589
v 24.958206 -1.846969 -25.065414
v 25.487640 -1.696616 -14.969452
v 26.313751 0.373025 -16.163834
v 24.925278 1.611881 -15.282196
v -10.751617 -6.536058 10.866570
v -20.553040 -5.928723 21.053024
v -22.166695 -4.541391 11.399643
v -10.657425 -4.408046 22.336700
v -11.006051 6.176350 10.825907
v -22.638466 4.511415 11.196167
v -20.684204 4.102074 21.908600
v -11.184624 4.372906 22.412872
v 10.512997 -6.697949 10.335262
v 20.584229 -4.743794 19.760483
v 10.581985 -5.264619 21.735733
v 22.062439 -4.332754 10.991806
v 9.934608 6.337908 10.797404
v 10.179092 4.052861 21.789429
v 19.975586 4.726006 20.216873
v 21.093094 4.746867 10.954407
v -9.954496 6.376448 -11.041553
v -20.946304 4.208464 -19.648804
v -21.161499 4.640715 -9.543381
v -11.434937 4.378080 -22.425613
v -10.033775 -6.886079 -10.831017
v -20.980820 -5.091117 -9.513641
v -21.199104 -5.826249 -18.219772
v -11.353432 -5.165062 -21.989105
v 9.768438 6.506707 -10.305995
v 20.443115 4.364534 -20.491898
v 10.479843 4.815157 -22.172379
v 21.547134 4.583251 -10.765228
v 9.973499 -6.571724 -10.371456
v 10.343567 -4.694124 -21.996704
v 19.788910 -5.082031 -19.975876
v 21.331604 -4.313140 -10.346024
v -1.082005 6.865324 11.229828
v -0.502769 4.212883 22.101151
v -0.419579 1.187117 25.643600
v -0.045326 -0.251938 26.718231
v -0.020447 -1.808633 25.199936
v -0.037720 -4.836333 22.036209
v -0.080345 -7.034041 11.412361
v -0.069782 -7.185640 -11.764885
v -0.504929 -4.929593 -21.992905
v -0.967003 -2.317789 -24.296463
v -1.100914 -0.503328 -25.540924
v -0.751648 0.999313 -24.861526
v -0.477547 4.596619 -22.298996
v -0.191692 6.786076 -11.142606
v -0.898605 7.208504 0.239410
v 9.790245 6.984576 0.234306
v 21.320114 4.665059 0.094589
v 24.546066 1.772170 -0.182220
v 25.980835 0.455502 -0.056564
v 24.976669 -1.726632 0.225754
v 21.697021 -4.322947 0.322891
v 11.028763 -6.992578 0.043900
v -0.136795 -7.264739 -0.110550
v -11.028461 -7.080423 0.048897
v -21.573761 -4.816255 0.942993
v -25.677391 -1.819474 1.758179
v -27.058563 -0.082182 1.631699
v -25.699646 1.670040 1.466324
v -21.899979 4.576065 0.826385
v -10.815678 6.927913 0.125313
vt 0.602562 0.273617
vt 0.606894 0.268371
vt 0.606894 0.302434
vt 0.569479 0.274301
vt 0.602012 0.272532
vt 0.600614 0.305378
vt 0.603531 0.273582
vt 0.606894 0.268371
vt 0.572797 0.268371
vt 0.601252 0.306721
vt 0.601555 0.274117
vt 0.571450 0.275396
vt 0.601206 0.271657
vt 0.606894 0.268371
vt 0.575361 0.268371
vt 0.601413 0.304712
vt 0.603336 0.273517
vt 0.571294 0.273012
vt 0.601628 0.273130
vt 0.606894 0.268371
vt 0.606894 0.299502
vt 0.570263 0.274026
vt 0.601558 0.273287
vt 0.602063 0.302369
vt 0.600876 0.304097
vt 0.606894 0.301303
vt 0.569797 0.273965
vt 0.529900 0.273217
vt 0.606894 0.345365
vt 0.576481 0.268371
vt 0.572084 0.272530
vt 0.600952 0.345365
vt 0.600955 0.305312
vt 0.529900 0.274314
vt 0.606894 0.345365
vt 0.570711 0.268371
vt 0.570247 0.274055
vt 0.600919 0.345365
vt 0.600934 0.307796
vt 0.601020 0.345365
vt 0.529900 0.268371
vt 0.606894 0.299956
vt 0.600629 0.302842
vt 0.529900 0.272677
vt 0.572753 0.272882
vt 0.601717 0.345365
vt 0.529900 0.268371
vt 0.529900 0.274734
vt 0.556745 0.316930
vt 0.583788 0.289764
vt 0.556744 0.285703
vt 0.589337 0.316502
vt 0.529900 0.287835
vt 0.560570 0.290023
vt 0.562183 0.320238
vt 0.589002 0.345365
vt 0.559246 0.345365
vt 0.557158 0.316846
vt 0.588545 0.317201
vt 0.556898 0.318497
vt 0.589593 0.317825
vt 0.584164 0.288610
vt 0.587976 0.345365
vt 0.557018 0.345365
vt 0.554112 0.315334
vt 0.586172 0.316919
vt 0.558422 0.286227
vt 0.529900 0.316220
vt 0.529900 0.285759
vt 0.559419 0.285550
vt 0.556683 0.317976
vt 0.584202 0.289200
vt 0.559515 0.284833
vt 0.529900 0.285810
vt 0.529900 0.315232
vt 0.558558 0.317364
vt 0.558061 0.286701
vt 0.586795 0.290848
vt 0.589760 0.316722
vt 0.558418 0.345365
vt 0.590194 0.345365
vt 0.590433 0.315425
vt 0.557621 0.317505
vt 0.583776 0.288986
vt 0.557528 0.283578
vt 0.529900 0.284346
vt 0.529900 0.314701
vt 0.560265 0.285179
vt 0.585338 0.291227
vt 0.593176 0.318280
vt 0.591641 0.345365
vt 0.590196 0.315215
vt 0.587004 0.289154
vt 0.584576 0.290213
vt 0.529900 0.345365
vt 0.563216 0.345365
vt 0.529900 0.345365
vt 0.529900 0.316718
vt 0.529900 0.268371
vt 0.606894 0.306590
vt 0.606894 0.345365
vt 0.572943 0.268371
vt 0.606894 0.345365
vt 0.574594 0.268371
vt 0.529900 0.268371
vt 0.606894 0.303339
vt 0.606894 0.304302
vt 0.606894 0.268371
vt 0.606894 0.301535
vt 0.606894 0.268371
vt 0.569127 0.268371
vt 0.606894 0.268371
vt 0.571321 0.268371
vt 0.606894 0.268371
vt 0.557018 0.345365
vt 0.529900 0.345365
vt 0.529900 0.345365
vt 0.529900 0.345365
vt 0.587976 0.345365
vt 0.600919 0.345365
vt 0.529900 0.268371
vt 0.606894 0.345365
vt 0.529900 0.274314
vt 0.529900 0.287835
vt 0.529900 0.316718
vt 0.529900 0.345365
vt 0.529900 0.345365
vt 0.529900 0.345365
vt 0.563216 0.345365
vt 0.529900 0.315232
vt 0.529900 0.285810
vt 0.529900 0.274734
vt 0.606894 0.345365
vt 0.529900 0.268371
vt 0.601717 0.345365
vt 0.590194 0.345365
vt 0.558418 0.345365
vt 0.529900 0.316220
vt 0.529900 0.314701
vt 0.529900 0.284346
vt 0.529900 0.272677
vt 0.606894 0.345365
vt 0.529900 0.268371
vt 0.601020 0.345365
vt 0.591641 0.345365
vt 0.559246 0.345365
vt 0.589002 0.345365
vt 0.600952 0.345365
vt 0.529900 0.268371
vt 0.606894 0.345365
vt 0.529900 0.273217
vt 0.529900 0.285759
vn -0.735790 -0.671285 -0.089388
vn -0.735790 -0.671285 -0.089388
vn -0.735790 -0.671285 -0.089388
vn -0.735790 -0.671285 -0.089388
vn -0.805344 0.577884 0.132181
vn -0.805344 0.577884 0.132181
vn -0.805344 0.577884 0.132181
vn -0.805344 0.577884 0.132181
vn 0.820204 0.572040 -0.005982
vn 0.820204 0.572040 -0.005982
vn 0.820204 0.572040 -0.005982
vn 0.820204 0.572040 -0.005982
vn 0.905793 -0.422607 -0.030697
vn 0.905793 -0.422607 -0.030697
vn 0.905793 -0.422607 -0.030697
vn 0.905793 -0.422607 -0.030697
vn -0.072365 -0.623120 -0.778771
vn -0.072365 -0.623120 -0.778771
vn -0.072365 -0.623120 -0.778771
vn -0.072365 -0.623120 -0.778771
vn -0.122715 0.390719 -0.912294
vn -0.122715 0.390719 -0.912294
vn -0.122715 0.390719 -0.912294
vn -0.122715 0.390719 -0.912294
vn 0.805599 -0.591935 0.024947
vn 0.805599 -0.591935 0.024947
vn 0.805599 -0.591935 0.024947
vn 0.805599 -0.591935 0.024947
vn 0.722899 0.687354 -0.070440
vn 0.722899 0.687354 -0.070440
vn 0.722899 0.687354 -0.070440
vn 0.722899 0.687354 -0.070440
vn 0.182293 -0.479806 0.858228
vn 0.182293 -0.479806 0.858228
vn 0.182293 -0.479806 0.858228
vn 0.182293 -0.479806 0.858228
vn -0.064746 0.662356 0.746386
vn -0.064746 0.662356 0.746386
vn -0.064746 0.662356 0.746386
vn -0.064746 0.662356 0.746386
vn 0.035405 0.609884 0.791699
vn 0.035405 0.609884 0.791699
vn 0.035405 0.609884 0.791699
vn 0.035405 0.609884 0.791699
vn 0.025296 -0.706644 0.707117
vn 0.025296 -0.706644 0.707117
vn 0.025296 -0.706644 0.707117
vn 0.025296 -0.706644 0.707117
vn -0.049193 0.587793 0.807514
vn -0.049193 0.587793 0.807514
vn -0.049193 0.587793 0.807514
vn -0.049193 0.587793 0.807514
vn -0.043802 -0.607036 0.793466
vn -0.043802 -0.607036 0.793466
vn -0.043802 -0.607036 0.793466
vn -0.043802 -0.607036 0.793466
vn -0.823781 -0.566881 0.005567
vn -0.823781 -0.566881 0.005567
vn -0.823781 -0.566881 0.005567
vn -0.823781 -0.566881 0.005567
vn -0.714465 0.699594 -0.010418
vn -0.714465 0.699594 -0.010418
vn -0.714465 0.699594 -0.010418
vn -0.714465 0.699594 -0.010418
vn -0.914861 -0.351007 0.199559
vn -0.914861 -0.351007 0.199559
vn -0.914861 -0.351007 0.199559
vn -0.914861 -0.351007 0.199559
vn -0.698242 0.715861 -0.001258
vn -0.698242 0.715861 -0.001258
vn -0.698242 0.715861 -0.001258
vn -0.698242 0.715861 -0.001258
vn -0.021650 -0.614854 -0.788344
vn -0.021650 -0.614854 -0.788344
vn -0.021650 -0.614854 -0.788344
vn -0.021650 -0.614854 -0.788344
vn -0.064491 0.576260 -0.814718
vn -0.064491 0.576260 -0.814718
vn -0.064491 0.576260 -0.814718
vn -0.064491 0.576260 -0.814718
vn -0.037952 -0.725705 -0.686958
vn -0.037952 -0.725705 -0.686958
vn -0.037952 -0.725705 -0.686958
vn -0.037952 -0.725705 -0.686958
vn 0.072154 0.634460 -0.769580
vn 0.072154 0.634460 -0.769580
vn 0.072154 0.634460 -0.769580
vn 0.072154 0.634460 -0.769580
vn 0.672460 0.740071 0.009588
vn 0.672460 0.740071 0.009588
vn 0.672460 0.740071 0.009588
vn 0.672460 0.740071 0.009588
vn 0.921397 -0.387785 0.025490
vn 0.921397 -0.387785 0.025490
vn 0.921397 -0.387785 0.025490
vn 0.921397 -0.387785 0.025490
vn -0.176099 -0.978080 -0.111128
vn -0.176099 -0.978080 -0.111128
vn -0.176099 -0.978080 -0.111128
vn 0.126565 -0.975501 0.179942
vn 0.126565 -0.975501 0.179942
vn 0.126565 -0.975501 0.179942
vn -0.186584 -0.982386 -0.010176
vn -0.186584 -0.982386 -0.010176
vn -0.186584 -0.982386 -0.010176
vn -0.186584 -0.982386 -0.010176
vn 0.006273 -0.986666 0.162635
vn 0.006273 -0.986666 0.162635
vn 0.006273 -0.986666 0.162635
vn 0.006273 -0.986666 0.162635
vn -0.139430 0.988213 0.063197
vn -0.139430 0.988213 0.063197
vn -0.139430 0.988213 0.063197
vn -0.183668 0.982334 -0.035847
vn -0.183668 0.982334 -0.035847
vn -0.183668 0.982334 -0.035847
vn -0.183668 0.982334 -0.035847
vn -0.036284 0.987537 0.153145
vn -0.036284 0.987537 0.153145
vn -0.036284 0.987537 0.153145
vn 0.038392 0.975026 0.218748
vn 0.038392 0.975026 0.218748
vn 0.038392 0.975026 0.218748
vn 0.038392 0.975026 0.218748
vn 0.075991 -0.989377 0.123930
vn 0.075991 -0.989377 0.123930
vn 0.075991 -0.989377 0.123930
vn 0.201264 -0.979464 -0.011985
vn 0.201264 -0.979464 -0.011985
vn 0.201264 -0.979464 -0.011985
vn 0.218668 -0.975184 -0.034653
vn 0.218668 -0.975184 -0.034653
vn 0.218668 -0.975184 -0.034653
vn 0.218668 -0.975184 -0.034653
vn -0.034454 0.978334 0.204145
vn -0.034454 0.978334 0.204145
vn -0.034454 0.978334 0.204145
vn 0.140867 0.989842 0.019225
vn 0.140867 0.989842 0.019225
vn 0.140867 0.989842 0.019225
vn 0.178443 0.983657 -0.024014
vn 0.178443 0.983657 -0.024014
vn 0.178443 0.983657 -0.024014
vn 0.178443 0.983657 -0.024014
vn -0.158842 0.986252 -0.045569
vn -0.158842 0.986252 -0.045569
vn -0.158842 0.986252 -0.045569
vn -0.065506 0.984240 -0.164256
vn -0.065506 0.984240 -0.164256
vn -0.065506 0.984240 -0.164256
vn 0.010513 0.986065 -0.166029
vn 0.010513 0.986065 -0.166029
vn 0.010513 0.986065 -0.166029
vn 0.010513 0.986065 -0.166029
vn -0.150998 -0.984704 0.086933
vn -0.150998 -0.984704 0.086933
vn -0.150998 -0.984704 0.086933
vn 0.007663 -0.988147 -0.153317
vn 0.007663 -0.988147 -0.153317
vn 0.007663 -0.988147 -0.153317
vn 0.052248 -0.981206 -0.185755
vn 0.052248 -0.981206 -0.185755
vn 0.052248 -0.981206 -0.185755
vn 0.052248 -0.981206 -0.185755
vn 0.067774 0.988275 -0.136815
vn 0.067774 0.988275 -0.136815
vn 0.067774 0.988275 -0.136815
vn 0.159504 0.986375 -0.040284
vn 0.159504 0.986375 -0.040284
vn 0.159504 0.986375 -0.040284
vn -0.006386 -0.987155 -0.159639
vn -0.006386 -0.987155 -0.159639
vn -0.006386 -0.987155 -0.159639
vn 0.194716 -0.979731 0.047033
vn 0.194716 -0.979731 0.047033
vn 0.194716 -0.979731 0.047033
vn -0.533533 0.828864 0.168306
vn -0.533533 0.828864 0.168306
vn -0.533533 0.828864 0.168306
vn -0.533533 0.828864 0.168306
vn -0.086493 0.795671 0.599522
vn -0.086493 0.795671 0.599522
vn -0.086493 0.795671 0.599522
vn -0.086493 0.795671 0.599522
vn 0.053617 -0.827602 0.558749
vn 0.053617 -0.827602 0.558749
vn 0.053617 -0.827602 0.558749
vn 0.053617 -0.827602 0.558749
vn 0.619914 -0.784537 0.014437
vn 0.619914 -0.784537 0.014437
vn 0.619914 -0.784537 0.014437
vn 0.619914 -0.784537 0.014437
vn -0.572482 0.819138 -0.035745
vn -0.572482 0.819138 -0.035745
vn -0.572482 0.819138 -0.035745
vn -0.572482 0.819138 -0.035745
vn -0.187020 0.678032 -0.710842
vn -0.187020 0.678032 -0.710842
vn -0.187020 0.678032 -0.710842
vn -0.187020 0.678032 -0.710842
vn 0.095840 0.805434 -0.584886
vn 0.095840 0.805434 -0.584886
vn 0.095840 0.805434 -0.584886
vn 0.095840 0.805434 -0.584886
vn 0.582198 0.809759 -0.073041
vn 0.582198 0.809759 -0.073041
vn 0.582198 0.809759 -0.073041
vn 0.582198 0.809759 -0.073041
vn 0.013463 -0.686979 0.726553
vn 0.013463 -0.686979 0.726553
vn 0.013463 -0.686979 0.726553
vn 0.013463 -0.686979 0.726553
vn 0.001871 -0.690819 -0.723025
vn 0.001871 -0.690819 -0.723025
vn 0.001871 -0.690819 -0.723025
vn 0.001871 -0.690819 -0.723025
vn 0.574883 -0.818233 0.001975
vn 0.574883 -0.818233 0.001975
vn 0.574883 -0.818233 0.001975
vn 0.574883 -0.818233 0.001975
vn -0.568958 -0.822365 0.001627
vn -0.568958 -0.822365 0.001627
vn -0.568958 -0.822365 0.001627
vn -0.568958 -0.822365 0.001627
vn 0.033370 0.755914 0.653820
vn 0.033370 0.755914 0.653820
vn 0.033370 0.755914 0.653820
vn 0.033370 0.755914 0.653820
vn -0.600824 0.798735 -0.032139
vn -0.600824 0.798735 -0.032139
vn -0.600824 0.798735 -0.032139
vn -0.600824 0.798735 -0.032139
vn -0.028578 0.630659 -0.775533
vn -0.028578 0.630659 -0.775533
vn -0.028578 0.630659 -0.775533
vn -0.028578 0.630659 -0.775533
vn 0.667457 0.744599 0.008643
vn 0.667457 0.744599 0.008643
vn 0.667457 0.744599 0.008643
vn 0.667457 0.744599 0.008643
vn -0.605593 -0.792811 -0.068620
vn -0.605593 -0.792811 -0.068620
vn -0.605593 -0.792811 -0.068620
vn -0.605593 -0.792811 -0.068620
vn 0.139516 -0.818762 0.556924
vn 0.139516 -0.818762 0.556924
vn 0.139516 -0.818762 0.556924
vn 0.139516 -0.818762 0.556924
vn -0.003185 0.791820 0.610746
vn -0.003185 0.791820 0.610746
vn -0.003185 0.791820 0.610746
vn -0.003185 0.791820 0.610746
vn 0.580027 0.814059 0.029616
vn 0.580027 0.814059 0.029616
vn 0.580027 0.814059 0.029616
vn 0.580027 0.814059 0.029616
vn -0.540554 -0.829167 0.142420
vn -0.540554 -0.829167 0.142420
vn -0.540554 -0.829167 0.142420
vn -0.540554 -0.829167 0.142420
vn -0.114348 -0.829991 -0.545930
vn -0.114348 -0.829991 -0.545930
vn -0.114348 -0.829991 -0.545930
vn -0.114348 -0.829991 -0.545930
vn 0.036523 -0.813323 -0.580665
vn 0.036523 -0.813323 -0.580665
vn 0.036523 -0.813323 -0.580665
vn 0.036523 -0.813323 -0.580665
vn 0.520303 -0.853852 -0.014866
vn 0.520303 -0.853852 -0.014866
vn 0.520303 -0.853852 -0.014866
vn 0.520303 -0.853852 -0.014866
vn 0.043520 -0.998750 -0.024574
vn 0.043520 -0.998750 -0.024574
vn 0.043520 -0.998750 -0.024574
vn 0.043520 -0.998750 -0.024574
vn 0.025965 0.998854 -0.040209
vn 0.025965 0.998854 -0.040209
vn 0.025965 0.998854 -0.040209
vn 0.025965 0.998854 -0.040209
vn -0.026041 0.980459 0.194995
vn -0.026041 0.980459 0.194995
vn -0.026041 0.980459 0.194995
vn -0.026041 0.980459 0.194995
vn 0.033236 0.764797 0.643414
vn 0.033236 0.764797 0.643414
vn 0.033236 0.764797 0.643414
vn 0.033236 0.764797 0.643414
vn 0.035546 0.598733 0.800159
vn 0.035546 0.598733 0.800159
vn 0.035546 0.598733 0.800159
vn 0.035546 0.598733 0.800159
vn 0.026035 -0.689008 0.724286
vn 0.026035 -0.689008 0.724286
vn 0.026035 -0.689008 0.724286
vn 0.026035 -0.689008 0.724286
vn 0.009642 -0.757927 0.652268
vn 0.009642 -0.757927 0.652268
vn 0.009642 -0.757927 0.652268
vn 0.009642 -0.757927 0.652268
vn -0.044864 -0.980327 0.192213
vn -0.044864 -0.980327 0.192213
vn -0.044864 -0.980327 0.192213
vn -0.044864 -0.980327 0.192213
vn -0.023887 -0.999627 -0.013255
vn -0.023887 -0.999627 -0.013255
vn -0.023887 -0.999627 -0.013255
vn -0.023887 -0.999627 -0.013255
vn -0.011224 -0.983248 -0.181928
vn -0.011224 -0.983248 -0.181928
vn -0.011224 -0.983248 -0.181928
vn -0.011224 -0.983248 -0.181928
vn -0.001928 -0.625341 -0.780350
vn -0.001928 -0.625341 -0.780350
vn -0.001928 -0.625341 -0.780350
vn -0.001928 -0.625341 -0.780350
vn -0.030179 -0.511045 -0.859024
vn -0.030179 -0.511045 -0.859024
vn -0.030179 -0.511045 -0.859024
vn -0.030179 -0.511045 -0.859024
vn -0.062089 0.261997 -0.963069
vn -0.062089 0.261997 -0.963069
vn -0.062089 0.261997 -0.963069
vn -0.062089 0.261997 -0.963069
vn -0.027569 0.525766 -0.850182
vn -0.027569 0.525766 -0.850182
vn -0.027569 0.525766 -0.850182
vn -0.027569 0.525766 -0.850182
vn -0.029584 0.983159 -0.180344
vn -0.029584 0.983159 -0.180344
vn -0.029584 0.983159 -0.180344
vn -0.029584 0.983159 -0.180344
vn -0.034984 0.998349 -0.045552
vn -0.034984 0.998349 -0.045552
vn -0.034984 0.998349 -0.045552
vn -0.034984 0.998349 -0.045552
vn 0.035483 0.998315 0.045912
vn 0.035483 0.998315 0.045912
vn 0.035483 0.998315 0.045912
vn 0.035483 0.998315 0.045912
vn 0.169775 0.985123 0.026630
vn 0.169775 0.985123 0.026630
vn 0.169775 0.985123 0.026630
vn 0.169775 0.985123 0.026630
vn 0.668583 0.743587 0.008679
vn 0.668583 0.743587 0.008679
vn 0.668583 0.743587 0.008679
vn 0.668583 0.743587 0.008679
vn 0.678635 0.734410 0.009773
vn 0.678635 0.734410 0.009773
vn 0.678635 0.734410 0.009773
vn 0.678635 0.734410 0.009773
vn 0.897518 -0.440273 0.024934
vn 0.897518 -0.440273 0.024934
vn 0.897518 -0.440273 0.024934
vn 0.897518 -0.440273 0.024934
vn 0.672006 -0.740541 0.002642
vn 0.672006 -0.740541 0.002642
vn 0.672006 -0.740541 0.002642
vn 0.672006 -0.740541 0.002642
vn 0.220391 -0.975299 0.014834
vn 0.220391 -0.975299 0.014834
vn 0.220391 -0.975299 0.014834
vn 0.220391 -0.975299 0.014834
vn 0.028980 -0.999276 0.024674
vn 0.028980 -0.999276 0.024674
vn 0.028980 -0.999276 0.024674
vn 0.028980 -0.999276 0.024674
vn -0.032236 -0.998863 0.035134
vn -0.032236 -0.998863 0.035134
vn -0.032236 -0.998863 0.035134
vn -0.032236 -0.998863 0.035134
vn -0.188076 -0.981531 0.035002
vn -0.188076 -0.981531 0.035002
vn -0.188076 -0.981531 0.035002
vn -0.188076 -0.981531 0.035002
vn -0.614041 -0.789274 0.000765
vn -0.614041 -0.789274 0.000765
vn -0.614041 -0.789274 0.000765
vn -0.614041 -0.789274 0.000765
vn -0.740321 -0.672241 0.004143
vn -0.740321 -0.672241 0.004143
vn -0.740321 -0.672241 0.004143
vn -0.740321 -0.672241 0.004143
vn -0.852682 0.522317 -0.010931
vn -0.852682 0.522317 -0.010931
vn -0.852682 0.522317 -0.010931
vn -0.852682 0.522317 -0.010931
vn -0.621789 0.782494 -0.032884
vn -0.621789 0.782494 -0.032884
vn -0.621789 0.782494 -0.032884
vn -0.621789 0.782494 -0.032884
vn -0.172642 0.984511 0.030527
vn -0.172642 0.984511 0.030527
vn -0.172642 0.984511 0.030527
vn -0.172642 0.984511 0.030527
vn -0.050037 0.997521 0.049483
vn -0.050037 0.997521 0.049483
vn -0.050037 0.997521 0.049483
vn -0.050037 0.997521 0.049483
s off
f 3/1/1 2/2/2 5/111/3 4/4/4
f 2/114/5 1/5/6 6/6/7 5/3/8
f 15/7/9 14/8/10 17/107/11 16/10/12
f 14/112/13 13/11/14 18/12/15 17/9/16
f 24/13/17 23/14/18 26/109/19 25/16/20
f 23/110/21 22/17/22 27/18/23 26/15/24
f 33/19/25 32/20/26 35/102/27 34/22/28
f 32/108/29 31/23/30 36/24/31 35/21/32
f 2/2/33 3/1/34 9/25/35 8/26/36
f 1/5/37 2/114/38 8/113/39 7/27/40
f 71/151/41 72/149/42 11/30/43 12/31/44
f 72/150/45 73/148/46 10/33/47 11/106/48
f 12/31/49 11/30/50 14/8/51 15/7/52
f 11/106/53 10/33/54 13/11/55 14/112/56
f 94/123/57 95/121/58 20/36/59 21/37/60
f 95/122/61 96/120/62 19/39/63 20/100/64
f 21/37/65 20/36/66 23/14/67 24/13/68
f 20/100/69 19/39/70 22/17/71 23/110/72
f 78/144/73 79/142/74 29/42/75 30/43/76
f 79/143/77 80/141/78 28/45/79 29/104/80
f 30/43/81 29/42/82 32/20/83 33/19/84
f 29/104/85 28/45/86 31/23/87 32/108/88
f 86/135/89 87/133/90 35/21/91 36/24/92
f 87/134/93 88/132/94 34/22/95 35/102/96
f 37/49/97 38/50/98 39/51/99
f 38/50/100 37/49/101 40/52/102
f 92/125/103 93/124/104 58/54/105 57/55/106
f 74/147/107 75/146/108 45/58/109 47/59/110
f 41/60/111 42/61/112 43/62/113
f 97/119/114 98/115/115 53/65/116 55/66/117
f 41/60/118 43/62/119 44/67/120
f 69/68/121 70/152/122 50/70/123 49/71/124
f 45/58/125 46/72/126 47/59/127
f 46/72/128 45/58/129 48/73/130
f 89/131/131 90/130/132 65/76/133 68/77/134
f 49/71/135 50/70/136 51/78/137
f 49/71/138 51/78/139 52/79/140
f 84/137/141 85/136/142 64/82/143 61/83/144
f 53/65/145 54/84/146 55/66/147
f 54/84/148 53/65/149 56/85/150
f 81/140/151 82/139/152 61/83/153 63/88/154
f 57/55/155 58/54/156 59/89/157
f 57/55/158 59/89/159 60/90/160
f 76/96/161 77/145/162 66/92/163 65/76/164
f 61/83/165 62/93/166 63/88/167
f 62/93/168 61/83/169 64/82/170
f 65/76/171 66/92/172 67/94/173
f 65/76/174 67/94/175 68/77/176
f 6/6/177 1/5/178 43/62/179 42/61/180
f 1/5/181 7/27/182 44/67/183 43/62/184
f 47/59/185 46/72/186 13/11/187 10/33/188
f 46/72/189 48/73/190 18/12/191 13/11/192
f 55/66/193 54/84/194 22/17/195 19/39/196
f 54/84/197 56/85/198 27/18/199 22/17/200
f 63/88/201 62/93/202 31/23/203 28/45/204
f 62/93/205 64/82/206 36/24/207 31/23/208
f 74/147/209 47/59/210 10/33/211 73/148/212
f 78/144/213 30/43/214 66/92/215 77/145/216
f 89/131/217 68/77/218 34/22/219 88/132/220
f 58/54/221 93/124/222 94/123/223 21/37/224
f 71/151/225 12/31/226 50/70/227 70/152/228
f 19/39/229 96/120/230 97/119/231 55/66/232
f 81/140/233 63/88/234 28/45/235 80/141/236
f 86/135/237 36/24/238 64/82/239 85/136/240
f 39/51/241 38/50/242 3/1/243 4/4/244
f 38/50/245 40/52/246 9/25/247 3/1/248
f 12/31/249 15/7/250 51/78/251 50/70/252
f 15/7/253 16/10/254 52/79/255 51/78/256
f 21/37/257 24/13/258 59/89/259 58/54/260
f 24/13/261 25/16/262 60/90/263 59/89/264
f 30/43/265 33/19/266 67/94/267 66/92/268
f 33/19/269 34/22/270 68/77/271 67/94/272
f 65/76/273 90/130/274 91/127/275 76/96/276
f 84/137/277 61/83/278 82/139/279 83/116/280
f 41/60/281 44/67/282 70/69/283 69/138/284
f 7/27/285 71/28/286 70/69/287 44/67/288
f 7/27/289 8/113/290 72/105/291 71/28/292
f 8/26/293 9/25/294 73/32/295 72/29/296
f 40/52/297 74/56/298 73/32/299 9/25/300
f 40/52/301 37/49/302 75/57/303 74/56/304
f 76/129/305 91/128/306 92/125/307 57/55/308
f 57/55/309 60/90/310 77/91/311 76/129/312
f 25/16/313 78/40/314 77/91/315 60/90/316
f 25/16/317 26/109/318 79/103/319 78/40/320
f 26/15/321 27/18/322 80/44/323 79/41/324
f 56/85/325 81/86/326 80/44/327 27/18/328
f 56/85/329 53/65/330 82/87/331 81/86/332
f 98/115/333 83/97/334 82/87/335 53/65/336
f 49/71/337 84/80/338 83/117/339 69/68/340
f 49/71/341 52/79/342 85/81/343 84/80/344
f 16/10/345 86/46/346 85/81/347 52/79/348
f 16/10/349 17/107/350 87/101/351 86/46/352
f 17/9/353 18/12/354 88/48/355 87/47/356
f 48/73/357 89/74/358 88/48/359 18/12/360
f 48/73/361 45/58/362 90/75/363 89/74/364
f 91/126/365 90/75/366 45/58/367 75/146/368
f 92/98/369 91/95/370 75/57/371 37/49/372
f 37/49/373 39/51/374 93/53/375 92/98/376
f 94/34/377 93/53/378 39/51/379 4/4/380
f 4/4/381 5/111/382 95/99/383 94/34/384
f 5/3/385 6/6/386 96/38/387 95/35/388
f 97/63/389 96/38/390 6/6/391 42/61/392
f 42/61/393 41/60/394 98/64/395 97/63/396
f 69/138/397 83/118/398 98/64/399 41/60/400
