# This file uses centimeters as units for non-parametric coordinates.

v 8.215759 8.707709 -48.097870
v -0.466492 12.223019 -47.468903
v -8.871399 8.959957 -48.159241
v -12.099792 -0.369312 -47.829498
v -8.886841 -8.980016 -47.663422
v -0.292358 -12.441676 -47.477783
v 8.805542 -8.522053 -47.421417
v 12.678101 0.418280 -47.864685
v 9.093872 9.036880 47.735352
v 0.488403 12.706462 47.326538
v -8.527649 8.812004 47.801361
v -12.454773 0.259852 48.041290
v -8.817505 -8.270715 47.497742
v -0.149170 -12.376390 47.561798
v 9.037109 -9.060537 48.188416
v 12.374023 -0.151108 47.289429
v 11.292847 11.304695 41.058533
v 15.839294 0.198615 40.936768
v 10.835938 -11.461784 41.666229
v 0.231140 -16.070642 41.473785
v -10.783813 -10.992912 40.925018
v -16.135193 0.180689 41.527985
v -11.312683 11.566049 41.749969
v -0.331665 15.611786 41.060883
v 11.212646 11.133383 -42.353729
v -0.130920 15.590094 -42.056580
v -11.237000 11.118494 -42.089508
v -15.769470 0.121356 -41.533447
v -10.991211 -11.152620 -41.969574
v 0.322266 -16.068686 -42.061432
v 11.123047 -11.215738 -42.070679
v 15.513672 -0.450790 -42.285309
v 10.025574 10.648985 45.466003
v 14.314819 -0.455785 45.924347
v 10.113342 -10.876617 45.486115
v -0.273254 -14.984737 45.537170
v -10.579712 -10.798524 45.604004
v -15.254150 0.164724 45.219757
v -10.157043 10.365364 45.435089
v -0.009583 14.330230 45.950623
v 10.148560 10.891591 -45.835846
v 0.003601 14.439174 -45.543427
v -10.312500 10.053224 -45.595551
v -14.575378 -0.243739 -45.739502
v -10.452393 -9.937315 -45.856140
v -0.461609 -14.687363 -45.653595
v 10.784180 -10.280801 -46.395660
v 15.005676 -0.456785 -45.764648
v 10.957764 10.823364 22.003418
v 15.345642 -0.252915 22.079193
v 10.617859 -10.338551 21.679291
v 0.015564 -15.073438 22.346069
v -11.213623 -10.950423 22.032074
v -15.763794 -0.325974 21.955627
v -10.557068 11.067701 22.541473
v -0.355591 15.634430 22.318420
v 10.955994 10.990458 -23.402374
v -0.238098 15.020597 -22.926086
v -11.176392 10.655168 -23.124664
v -15.785767 0.214202 -23.703247
v -10.413696 -10.437226 -23.389069
v 0.286560 -15.059795 -23.086090
v 10.798584 -11.242985 -22.988342
v 15.566467 -0.443431 -23.402191
v 0.142273 -0.233760 -48.742584
v -0.398499 -0.257620 48.649048
v -10.837280 10.837286 0.882334
v 0.000000 15.326246 1.051353
v 10.837280 10.837286 0.950307
v 15.326294 -0.000008 0.929320
v 10.837280 -10.837303 1.092430
v 0.000000 -15.326248 0.972318
v -10.837280 -10.837288 1.128324
v -15.326294 -0.000008 0.945722
v 10.837280 10.837286 -1.239521
v 0.000000 15.326246 -1.246427
v -10.837280 10.837286 -1.228116
v -15.326294 -0.000008 -1.218064
v -10.837280 -10.837288 -1.076439
v 0.000000 -15.326248 -1.168047
v 10.837280 -10.837303 -1.128651
v 15.326294 -0.000008 -1.049473
v -10.837280 10.837286 7.168634
v 0.000000 15.326246 6.895761
v 10.837280 10.837286 7.150024
v 15.326294 -0.000008 6.856362
v 10.837280 -10.837303 6.763105
v 0.000000 -15.326248 6.842479
v -10.837280 -10.837288 7.115638
v -15.326294 -0.000008 6.808393
v 10.837280 10.837286 -7.272767
v 0.000000 15.326246 -7.390301
v -10.837280 10.837286 -7.238841
v -15.326294 -0.000008 -7.274730
v -10.837280 -10.837288 -7.130554
v 0.000000 -15.326248 -7.222955
v 10.837280 -10.837303 -7.265144
v 15.326294 -0.000008 -7.407492
vt 0.580810 0.368207
vt 0.580811 0.345475
vt 0.580811 0.322752
vt 0.579349 0.368207
vt 0.580810 0.345477
vt 0.579350 0.345477
vt 0.580808 0.322752
vt 0.579348 0.322747
vt 0.580811 0.345478
vt 0.579349 0.345479
vt 0.580810 0.322747
vt 0.579346 0.322752
vt 0.580811 0.345477
vt 0.579348 0.345477
vt 0.623961 0.251091
vt 0.623971 0.251046
vt 0.623987 0.251045
vt 0.623979 0.251089
vt 0.623944 0.251106
vt 0.623959 0.251104
vt 0.623928 0.251089
vt 0.623943 0.251085
vt 0.623921 0.251049
vt 0.623938 0.251050
vt 0.623929 0.251009
vt 0.623943 0.251012
vt 0.623947 0.250988
vt 0.623961 0.250995
vt 0.623962 0.251002
vt 0.624719 0.345477
vt 0.624720 0.322689
vt 0.623980 0.251007
vt 0.623939 0.251031
vt 0.624717 0.322684
vt 0.623945 0.250995
vt 0.624719 0.345475
vt 0.623958 0.250991
vt 0.624719 0.322679
vt 0.623952 0.251034
vt 0.624720 0.345477
vt 0.623952 0.250984
vt 0.623964 0.250980
vt 0.623956 0.251003
vt 0.623970 0.251000
vt 0.623956 0.251037
vt 0.623969 0.251039
vt 0.623953 0.251071
vt 0.623965 0.251077
vt 0.623944 0.251090
vt 0.623959 0.251094
vt 0.623940 0.251076
vt 0.623953 0.251078
vt 0.623993 0.251048
vt 0.623982 0.251083
vt 0.623970 0.251097
vt 0.623953 0.251080
vt 0.623948 0.251048
vt 0.623956 0.251018
vt 0.623970 0.251003
vt 0.579350 0.322752
vt 0.579349 0.345475
vt 0.580808 0.368201
vt 0.623984 0.251014
vt 0.596750 0.358499
vt 0.596750 0.358499
vt 0.596750 0.358499
vt 0.596750 0.358499
vt 0.596750 0.358499
vt 0.596750 0.358499
vt 0.624722 0.322684
vt 0.623932 0.251032
vt 0.623939 0.251000
vt 0.623942 0.250990
vt 0.579352 0.322747
vt 0.624719 0.345478
vt 0.596750 0.358499
vt 0.596750 0.358499
vt 0.596740 0.355312
vt 0.596740 0.355312
vt 0.596740 0.355312
vt 0.596740 0.355312
vt 0.596740 0.355312
vt 0.596740 0.355312
vt 0.596740 0.355312
vt 0.596740 0.355312
vt 0.623948 0.251009
vt 0.624672 0.322689
vt 0.623949 0.251038
vt 0.580813 0.368207
vt 0.579350 0.368202
vt 0.580811 0.368201
vt 0.579352 0.368207
vt 0.580813 0.322747
vt 0.579346 0.368201
vt 0.623946 0.251066
vt 0.623940 0.251080
vt 0.623933 0.251067
vt 0.624720 0.368264
vt 0.624671 0.322678
vt 0.624722 0.368270
vt 0.624669 0.322684
vt 0.624719 0.368275
vt 0.624674 0.322684
vt 0.624717 0.368269
vt 0.624672 0.345479
vt 0.624669 0.368269
vt 0.624671 0.345477
vt 0.624672 0.368264
vt 0.624672 0.345475
vt 0.624674 0.368270
vt 0.624671 0.368275
vt 0.624672 0.345477
vt 0.624127 0.251690
vt 0.624126 0.251690
vt 0.624128 0.251816
vt 0.624130 0.251994
vt 0.624132 0.252097
vt 0.624132 0.252071
vt 0.624130 0.251948
vt 0.624128 0.251797
vt 0.624058 0.251817
vt 0.624060 0.251691
vt 0.624065 0.251691
vt 0.624069 0.251798
vt 0.624072 0.251949
vt 0.624071 0.252072
vt 0.624067 0.252099
vt 0.624061 0.251995
vt 0.574708 0.356906
vt 0.574708 0.356906
vt 0.596750 0.358499
vt 0.574708 0.356906
vt 0.574708 0.356906
vt 0.574708 0.356906
vt 0.574708 0.356906
vt 0.574708 0.356906
vt 0.574708 0.356906
vt 0.574708 0.356906
vt 0.596750 0.358499
vt 0.596750 0.358499
vt 0.596750 0.358499
vt 0.596750 0.358499
vt 0.596750 0.358499
vt 0.596750 0.358499
vt 0.596750 0.358499
vt 0.596740 0.355312
vt 0.574708 0.356906
vt 0.574708 0.356906
vt 0.574708 0.356906
vt 0.574708 0.356906
vt 0.574708 0.356906
vt 0.574708 0.356906
vt 0.574708 0.356906
vt 0.596740 0.355312
vt 0.596740 0.355312
vt 0.596740 0.355312
vt 0.596740 0.355312
vt 0.596740 0.355312
vt 0.596740 0.355312
vt 0.596740 0.355312
vt 0.622087 0.253118
vt 0.622071 0.253233
vt 0.622002 0.253232
vt 0.622028 0.253118
vt 0.622104 0.253126
vt 0.622045 0.253126
vt 0.622114 0.253224
vt 0.622061 0.253224
vt 0.622113 0.253355
vt 0.622058 0.253354
vt 0.622102 0.253465
vt 0.622041 0.253464
vt 0.622084 0.253495
vt 0.622017 0.253494
vt 0.622070 0.253403
vt 0.622006 0.253402
vt 0.622217 0.253127
vt 0.622219 0.253120
vt 0.622148 0.253119
vt 0.622159 0.253127
vt 0.622210 0.253235
vt 0.622137 0.253234
vt 0.622210 0.253405
vt 0.622136 0.253404
vt 0.543848 0.322553
vt 0.543844 0.368221
vt 0.543020 0.345781
vt 0.543885 0.322674
vt 0.544081 0.368123
vt 0.543017 0.345209
vt 0.542754 0.322779
vt 0.543001 0.368204
vt 0.542793 0.345600
vt 0.544294 0.322560
vt 0.543756 0.368173
vt 0.543016 0.345719
vt 0.542768 0.368445
vt 0.542729 0.322721
vt 0.543454 0.345349
vt 0.542579 0.368108
vt 0.542805 0.322556
vt 0.542457 0.345568
vt 0.542170 0.368311
vt 0.542659 0.322716
vt 0.542670 0.345368
vt 0.542726 0.368172
vt 0.542791 0.322852
vt 0.543125 0.345732
vt 0.622211 0.253498
vt 0.622145 0.253497
vt 0.622216 0.253467
vt 0.622156 0.253466
vt 0.622218 0.253357
vt 0.622164 0.253356
vt 0.622221 0.253226
vt 0.622165 0.253225
vn 0.382684 0.923879 0.000000
vn 0.382684 0.923879 0.000000
vn 0.382684 0.923879 0.000000
vn 0.382684 0.923879 0.000000
vn -0.382684 0.923879 0.000000
vn -0.382684 0.923879 0.000000
vn -0.382684 0.923879 0.000000
vn -0.382684 0.923879 0.000000
vn -0.923878 0.382688 0.000000
vn -0.923878 0.382688 0.000000
vn -0.923878 0.382688 0.000000
vn -0.923878 0.382688 0.000000
vn -0.923878 -0.382688 0.000000
vn -0.923878 -0.382688 0.000000
vn -0.923878 -0.382688 0.000000
vn -0.923878 -0.382688 0.000000
vn -0.382684 -0.923879 0.000000
vn -0.382684 -0.923879 0.000000
vn -0.382684 -0.923879 0.000000
vn -0.382684 -0.923879 0.000000
vn 0.382683 -0.923880 0.000000
vn 0.382683 -0.923880 0.000000
vn 0.382683 -0.923880 0.000000
vn 0.382683 -0.923880 0.000000
vn 0.923878 -0.382688 0.000000
vn 0.923878 -0.382688 0.000000
vn 0.923878 -0.382688 0.000000
vn 0.923878 -0.382688 0.000000
vn 0.923878 0.382688 0.000000
vn 0.923878 0.382688 0.000000
vn 0.923878 0.382688 0.000000
vn 0.923878 0.382688 0.000000
vn -0.073783 -0.046745 -0.996178
vn -0.073783 -0.046745 -0.996178
vn -0.073783 -0.046745 -0.996178
vn -0.050105 -0.090268 0.994656
vn -0.050105 -0.090268 0.994656
vn -0.050105 -0.090268 0.994656
vn 0.881335 0.355323 0.311438
vn 0.881335 0.355323 0.311438
vn 0.881335 0.355323 0.311438
vn 0.881335 0.355323 0.311438
vn 0.900039 -0.372203 0.226704
vn 0.900039 -0.372203 0.226704
vn 0.900039 -0.372203 0.226704
vn 0.900039 -0.372203 0.226704
vn 0.370166 -0.895411 0.247421
vn 0.370166 -0.895411 0.247421
vn 0.370166 -0.895411 0.247421
vn 0.370166 -0.895411 0.247421
vn -0.397915 -0.909601 0.119540
vn -0.397915 -0.909601 0.119540
vn -0.397915 -0.909601 0.119540
vn -0.397915 -0.909601 0.119540
vn -0.903221 -0.410314 0.125835
vn -0.903221 -0.410314 0.125835
vn -0.903221 -0.410314 0.125835
vn -0.903221 -0.410314 0.125835
vn -0.867863 0.392651 0.304367
vn -0.867863 0.392651 0.304367
vn -0.867863 0.392651 0.304367
vn -0.867863 0.392651 0.304367
vn -0.334231 0.888376 0.314765
vn -0.334231 0.888376 0.314765
vn -0.334231 0.888376 0.314765
vn -0.334231 0.888376 0.314765
vn 0.341612 0.912542 0.224877
vn 0.341612 0.912542 0.224877
vn 0.341612 0.912542 0.224877
vn 0.341612 0.912542 0.224877
vn 0.334434 0.914577 -0.227383
vn 0.334434 0.914577 -0.227383
vn 0.334434 0.914577 -0.227383
vn 0.334434 0.914577 -0.227383
vn -0.359447 0.872508 -0.330951
vn -0.359447 0.872508 -0.330951
vn -0.359447 0.872508 -0.330951
vn -0.359447 0.872508 -0.330951
vn -0.881273 0.358032 -0.308499
vn -0.881273 0.358032 -0.308499
vn -0.881273 0.358032 -0.308499
vn -0.881273 0.358032 -0.308499
vn -0.897641 -0.374965 -0.231610
vn -0.897641 -0.374965 -0.231610
vn -0.897641 -0.374965 -0.231610
vn -0.897641 -0.374965 -0.231610
vn -0.394187 -0.872115 -0.289884
vn -0.394187 -0.872115 -0.289884
vn -0.394187 -0.872115 -0.289884
vn -0.394187 -0.872115 -0.289884
vn 0.359369 -0.880687 -0.308618
vn 0.359369 -0.880687 -0.308618
vn 0.359369 -0.880687 -0.308618
vn 0.359369 -0.880687 -0.308618
vn 0.913922 -0.379364 -0.144327
vn 0.913922 -0.379364 -0.144327
vn 0.913922 -0.379364 -0.144327
vn 0.913922 -0.379364 -0.144327
vn 0.906878 0.360838 -0.217641
vn 0.906878 0.360838 -0.217641
vn 0.906878 0.360838 -0.217641
vn 0.906878 0.360838 -0.217641
vn 0.708044 0.264508 0.654759
vn 0.708044 0.264508 0.654759
vn 0.708044 0.264508 0.654759
vn 0.708044 0.264508 0.654759
vn 0.705935 -0.259592 0.658989
vn 0.705935 -0.259592 0.658989
vn 0.705935 -0.259592 0.658989
vn 0.705935 -0.259592 0.658989
vn 0.239319 -0.684350 0.688761
vn 0.239319 -0.684350 0.688761
vn 0.239319 -0.684350 0.688761
vn 0.239319 -0.684350 0.688761
vn -0.233319 -0.534189 0.812529
vn -0.233319 -0.534189 0.812529
vn -0.233319 -0.534189 0.812529
vn -0.233319 -0.534189 0.812529
vn -0.613759 -0.267762 0.742701
vn -0.613759 -0.267762 0.742701
vn -0.613759 -0.267762 0.742701
vn -0.613759 -0.267762 0.742701
vn -0.672434 0.324461 0.665250
vn -0.672434 0.324461 0.665250
vn -0.672434 0.324461 0.665250
vn -0.672434 0.324461 0.665250
vn -0.269379 0.653166 0.707678
vn -0.269379 0.653166 0.707678
vn -0.269379 0.653166 0.707678
vn -0.269379 0.653166 0.707678
vn 0.279247 0.701368 0.655823
vn 0.279247 0.701368 0.655823
vn 0.279247 0.701368 0.655823
vn 0.279247 0.701368 0.655823
vn 0.194696 0.618323 -0.761427
vn 0.194696 0.618323 -0.761427
vn 0.194696 0.618323 -0.761427
vn 0.194696 0.618323 -0.761427
vn -0.279449 0.742987 -0.608176
vn -0.279449 0.742987 -0.608176
vn -0.279449 0.742987 -0.608176
vn -0.279449 0.742987 -0.608176
vn -0.703386 0.262226 -0.660671
vn -0.703386 0.262226 -0.660671
vn -0.703386 0.262226 -0.660671
vn -0.703386 0.262226 -0.660671
vn -0.642241 -0.259344 -0.721295
vn -0.642241 -0.259344 -0.721295
vn -0.642241 -0.259344 -0.721295
vn -0.642241 -0.259344 -0.721295
vn -0.273648 -0.652732 -0.706440
vn -0.273648 -0.652732 -0.706440
vn -0.273648 -0.652732 -0.706440
vn -0.273648 -0.652732 -0.706440
vn 0.182186 -0.514166 -0.838118
vn 0.182186 -0.514166 -0.838118
vn 0.182186 -0.514166 -0.838118
vn 0.182186 -0.514166 -0.838118
vn 0.490738 -0.203204 -0.847281
vn 0.490738 -0.203204 -0.847281
vn 0.490738 -0.203204 -0.847281
vn 0.490738 -0.203204 -0.847281
vn 0.638890 0.292166 -0.711659
vn 0.638890 0.292166 -0.711659
vn 0.638890 0.292166 -0.711659
vn 0.638890 0.292166 -0.711659
vn 0.927165 0.373493 -0.029457
vn 0.927165 0.373493 -0.029457
vn 0.927165 0.373493 -0.029457
vn 0.927165 0.373493 -0.029457
vn 0.912384 -0.408643 -0.023784
vn 0.912384 -0.408643 -0.023784
vn 0.912384 -0.408643 -0.023784
vn 0.912384 -0.408643 -0.023784
vn 0.401594 -0.914223 -0.054013
vn 0.401594 -0.914223 -0.054013
vn 0.401594 -0.914223 -0.054013
vn 0.401594 -0.914223 -0.054013
vn -0.381530 -0.924166 -0.018795
vn -0.381530 -0.924166 -0.018795
vn -0.381530 -0.924166 -0.018795
vn -0.381530 -0.924166 -0.018795
vn -0.910395 -0.413692 0.006375
vn -0.910395 -0.413692 0.006375
vn -0.910395 -0.413692 0.006375
vn -0.910395 -0.413692 0.006375
vn -0.914107 0.403779 -0.037029
vn -0.914107 0.403779 -0.037029
vn -0.914107 0.403779 -0.037029
vn -0.914107 0.403779 -0.037029
vn -0.377273 0.925910 -0.018880
vn -0.377273 0.925910 -0.018880
vn -0.377273 0.925910 -0.018880
vn -0.377273 0.925910 -0.018880
vn 0.369182 0.929239 -0.014783
vn 0.369182 0.929239 -0.014783
vn 0.369182 0.929239 -0.014783
vn 0.369182 0.929239 -0.014783
vn 0.352956 0.935407 0.020871
vn 0.352956 0.935407 0.020871
vn 0.352956 0.935407 0.020871
vn 0.352956 0.935407 0.020871
vn -0.372200 0.927824 0.024700
vn -0.372200 0.927824 0.024700
vn -0.372200 0.927824 0.024700
vn -0.372200 0.927824 0.024700
vn -0.919847 0.392245 0.005057
vn -0.919847 0.392245 0.005057
vn -0.919847 0.392245 0.005057
vn -0.919847 0.392245 0.005057
vn -0.907176 -0.420105 0.023308
vn -0.907176 -0.420105 0.023308
vn -0.907176 -0.420105 0.023308
vn -0.907176 -0.420105 0.023308
vn -0.397516 -0.916349 0.047807
vn -0.397516 -0.916349 0.047807
vn -0.397516 -0.916349 0.047807
vn -0.397516 -0.916349 0.047807
vn 0.376564 -0.925984 0.027448
vn 0.376564 -0.925984 0.027448
vn 0.376564 -0.925984 0.027448
vn 0.376564 -0.925984 0.027448
vn 0.920478 -0.390744 0.006382
vn 0.920478 -0.390744 0.006382
vn 0.920478 -0.390744 0.006382
vn 0.920478 -0.390744 0.006382
vn 0.932526 0.361048 0.006318
vn 0.932526 0.361048 0.006318
vn 0.932526 0.361048 0.006318
vn 0.932526 0.361048 0.006318
vn 0.069378 0.009285 -0.997547
vn 0.069378 0.009285 -0.997547
vn 0.069378 0.009285 -0.997547
vn 0.073834 -0.081263 -0.993954
vn 0.073834 -0.081263 -0.993954
vn 0.073834 -0.081263 -0.993954
vn 0.051271 -0.104724 -0.993179
vn 0.051271 -0.104724 -0.993179
vn 0.051271 -0.104724 -0.993179
vn -0.019737 -0.102338 -0.994554
vn -0.019737 -0.102338 -0.994554
vn -0.019737 -0.102338 -0.994554
vn -0.074271 -0.009544 -0.997192
vn -0.074271 -0.009544 -0.997192
vn -0.074271 -0.009544 -0.997192
vn 0.041388 0.103632 -0.993754
vn 0.041388 0.103632 -0.993754
vn 0.041388 0.103632 -0.993754
vn -0.031496 0.100144 -0.994474
vn -0.031496 0.100144 -0.994474
vn -0.031496 0.100144 -0.994474
vn -0.003871 0.101748 0.994803
vn -0.003871 0.101748 0.994803
vn -0.003871 0.101748 0.994803
vn 0.008816 0.100886 0.994859
vn 0.008816 0.100886 0.994859
vn 0.008816 0.100886 0.994859
vn -0.048138 0.050092 0.997584
vn -0.048138 0.050092 0.997584
vn -0.048138 0.050092 0.997584
vn -0.053854 -0.086350 0.994808
vn -0.053854 -0.086350 0.994808
vn -0.053854 -0.086350 0.994808
vn -0.035397 -0.090024 0.995310
vn -0.035397 -0.090024 0.995310
vn -0.035397 -0.090024 0.995310
vn 0.105154 0.060772 0.992597
vn 0.105154 0.060772 0.992597
vn 0.105154 0.060772 0.992597
vn 0.105931 -0.010440 0.994319
vn 0.105931 -0.010440 0.994319
vn 0.105931 -0.010440 0.994319
vn -0.382684 0.923879 0.000000
vn -0.382684 0.923879 0.000000
vn -0.382684 0.923879 0.000000
vn -0.382684 0.923879 0.000000
vn 0.382684 0.923879 0.000000
vn 0.382684 0.923879 0.000000
vn 0.382684 0.923879 0.000000
vn 0.382684 0.923879 0.000000
vn 0.923878 0.382688 0.000000
vn 0.923878 0.382688 0.000000
vn 0.923878 0.382688 0.000000
vn 0.923878 0.382688 0.000000
vn 0.923878 -0.382688 0.000000
vn 0.923878 -0.382688 0.000000
vn 0.923878 -0.382688 0.000000
vn 0.923878 -0.382688 0.000000
vn 0.382683 -0.923880 0.000000
vn 0.382683 -0.923880 0.000000
vn 0.382683 -0.923880 0.000000
vn 0.382683 -0.923880 0.000000
vn -0.382684 -0.923879 0.000000
vn -0.382684 -0.923879 0.000000
vn -0.382684 -0.923879 0.000000
vn -0.382684 -0.923879 0.000000
vn -0.923878 -0.382688 0.000000
vn -0.923878 -0.382688 0.000000
vn -0.923878 -0.382688 0.000000
vn -0.923878 -0.382688 0.000000
vn -0.923878 0.382688 0.000000
vn -0.923878 0.382688 0.000000
vn -0.923878 0.382688 0.000000
vn -0.923878 0.382688 0.000000
vn 0.382684 0.923879 0.000000
vn 0.382684 0.923879 0.000000
vn 0.382684 0.923879 0.000000
vn 0.382684 0.923879 0.000000
vn -0.382684 0.923879 0.000000
vn -0.382684 0.923879 0.000000
vn -0.382684 0.923879 0.000000
vn -0.382684 0.923879 0.000000
vn -0.923878 0.382688 0.000000
vn -0.923878 0.382688 0.000000
vn -0.923878 0.382688 0.000000
vn -0.923878 0.382688 0.000000
vn -0.923878 -0.382688 0.000000
vn -0.923878 -0.382688 0.000000
vn -0.923878 -0.382688 0.000000
vn -0.923878 -0.382688 0.000000
vn -0.382684 -0.923879 0.000000
vn -0.382684 -0.923879 0.000000
vn -0.382684 -0.923879 0.000000
vn -0.382684 -0.923879 0.000000
vn 0.382683 -0.923880 0.000000
vn 0.382683 -0.923880 0.000000
vn 0.382683 -0.923880 0.000000
vn 0.382683 -0.923880 0.000000
vn 0.923878 -0.382688 0.000000
vn 0.923878 -0.382688 0.000000
vn 0.923878 -0.382688 0.000000
vn 0.923878 -0.382688 0.000000
vn 0.923878 0.382688 0.000000
vn 0.923878 0.382688 0.000000
vn 0.923878 0.382688 0.000000
vn 0.923878 0.382688 0.000000
vn -0.395641 0.918247 -0.017028
vn -0.395641 0.918247 -0.017028
vn -0.395641 0.918247 -0.017028
vn -0.395641 0.918247 -0.017028
vn 0.387097 0.922020 -0.005955
vn 0.387097 0.922020 -0.005955
vn 0.387097 0.922020 -0.005955
vn 0.387097 0.922020 -0.005955
vn 0.926838 0.375460 -0.000978
vn 0.926838 0.375460 -0.000978
vn 0.926838 0.375460 -0.000978
vn 0.926838 0.375460 -0.000978
vn 0.915021 -0.403298 0.009364
vn 0.915021 -0.403298 0.009364
vn 0.915021 -0.403298 0.009364
vn 0.915021 -0.403298 0.009364
vn 0.395819 -0.917979 0.025333
vn 0.395819 -0.917979 0.025333
vn 0.395819 -0.917979 0.025333
vn 0.395819 -0.917979 0.025333
vn -0.363567 -0.931568 -0.000035
vn -0.363567 -0.931568 -0.000035
vn -0.363567 -0.931568 -0.000035
vn -0.363567 -0.931568 -0.000035
vn -0.920967 -0.388437 -0.030605
vn -0.920967 -0.388437 -0.030605
vn -0.920967 -0.388437 -0.030605
vn -0.920967 -0.388437 -0.030605
vn -0.916556 0.399891 -0.003472
vn -0.916556 0.399891 -0.003472
vn -0.916556 0.399891 -0.003472
vn -0.916556 0.399891 -0.003472
vn 0.360567 0.932715 -0.005851
vn 0.360567 0.932715 -0.005851
vn 0.360567 0.932715 -0.005851
vn 0.360567 0.932715 -0.005851
vn -0.376647 0.926327 -0.007461
vn -0.376647 0.926327 -0.007461
vn -0.376647 0.926327 -0.007461
vn -0.376647 0.926327 -0.007461
vn -0.919467 0.392488 0.023113
vn -0.919467 0.392488 0.023113
vn -0.919467 0.392488 0.023113
vn -0.919467 0.392488 0.023113
vn -0.908795 -0.417188 -0.006842
vn -0.908795 -0.417188 -0.006842
vn -0.908795 -0.417188 -0.006842
vn -0.908795 -0.417188 -0.006842
vn -0.389242 -0.920719 -0.027710
vn -0.389242 -0.920719 -0.027710
vn -0.389242 -0.920719 -0.027710
vn -0.389242 -0.920719 -0.027710
vn 0.362545 -0.931940 0.006953
vn 0.362545 -0.931940 0.006953
vn 0.362545 -0.931940 0.006953
vn 0.362545 -0.931940 0.006953
vn 0.919421 -0.392935 0.016359
vn 0.919421 -0.392935 0.016359
vn 0.919421 -0.392935 0.016359
vn 0.919421 -0.392935 0.016359
vn 0.925706 0.378180 0.006925
vn 0.925706 0.378180 0.006925
vn 0.925706 0.378180 0.006925
vn 0.925706 0.378180 0.006925
s off
f 69/123/1 75/113/2 76/114/3 68/122/4
f 68/122/5 76/114/6 77/115/7 67/121/8
f 67/121/9 77/115/10 78/116/11 74/128/12
f 74/128/13 78/116/14 79/117/15 73/127/16
f 73/127/17 79/117/18 80/118/19 72/126/20
f 72/126/21 80/118/22 81/119/23 71/125/24
f 71/125/25 81/119/26 82/120/27 70/124/28
f 70/124/29 82/120/30 75/113/31 69/123/32
f 4/155/33 65/148/34 5/68/35
f 14/140/36 66/133/37 13/82/38
f 18/15/39 17/16/40 33/17/41 34/18/42
f 19/19/43 18/15/44 34/18/45 35/20/46
f 20/21/47 19/19/48 35/20/49 36/22/50
f 21/23/51 20/21/52 36/22/53 37/24/54
f 22/25/55 21/23/56 37/24/57 38/26/58
f 23/27/59 22/25/60 38/26/61 39/28/62
f 24/29/63 23/27/64 39/28/65 40/32/66
f 17/16/67 24/29/68 40/32/69 33/17/70
f 41/33/71 42/35/72 26/37/73 25/39/74
f 42/35/75 43/41/76 27/42/77 26/37/78
f 43/41/79 44/43/80 28/44/81 27/42/82
f 44/43/83 45/45/84 29/46/85 28/44/86
f 45/45/87 46/47/88 30/48/89 29/46/90
f 46/47/91 47/49/92 31/50/93 30/48/94
f 47/49/95 48/51/96 32/52/97 31/50/98
f 48/51/99 41/33/100 25/39/101 32/52/102
f 34/18/103 33/17/104 9/53/105 16/54/106
f 35/20/107 34/18/108 16/54/109 15/55/110
f 36/22/111 35/20/112 15/55/113 14/56/114
f 37/24/115 36/22/116 14/56/117 13/57/118
f 38/26/119 37/24/120 13/57/121 12/58/122
f 39/28/123 38/26/124 12/58/125 11/59/126
f 40/32/127 39/28/128 11/59/129 10/63/130
f 33/17/131 40/32/132 10/63/133 9/53/134
f 1/71/135 2/72/136 42/35/137 41/33/138
f 2/72/139 3/73/140 43/41/141 42/35/142
f 3/73/143 4/86/144 44/43/145 43/41/146
f 4/86/147 5/88/148 45/45/149 44/43/150
f 5/88/151 6/95/152 46/47/153 45/45/154
f 6/95/155 7/96/156 47/49/157 46/47/158
f 7/96/159 8/97/160 48/51/161 47/49/162
f 8/97/163 1/71/164 41/33/165 48/51/166
f 50/14/167 49/60/168 17/31/169 18/30/170
f 51/90/171 50/14/172 18/30/173 19/98/174
f 52/10/175 51/12/176 19/34/177 20/36/178
f 53/92/179 52/10/180 20/36/181 21/100/182
f 54/6/183 53/8/184 21/38/185 22/40/186
f 55/4/187 54/6/188 22/40/189 23/102/190
f 56/61/191 55/74/192 23/70/193 24/75/194
f 49/94/195 56/61/196 24/75/197 17/104/198
f 25/103/199 26/105/200 58/2/201 57/93/202
f 26/105/203 27/106/204 59/62/205 58/2/206
f 27/87/207 28/107/208 60/5/209 59/3/210
f 28/107/211 29/108/212 61/91/213 60/5/214
f 29/101/215 30/109/216 62/9/217 61/7/218
f 30/109/219 31/110/220 63/89/221 62/9/222
f 31/99/223 32/112/224 64/13/225 63/11/226
f 32/112/227 25/111/228 57/1/229 64/13/230
f 1/64/231 8/158/232 65/152/233
f 65/151/234 8/65/235 7/157/236
f 65/150/237 7/66/238 6/156/239
f 65/149/240 6/67/241 5/159/242
f 3/154/243 65/147/244 4/69/245
f 2/146/246 65/129/247 3/76/248
f 1/160/249 65/153/250 2/77/251
f 9/78/252 10/143/253 66/137/254
f 66/136/255 10/79/256 11/142/257
f 66/135/258 11/80/259 12/141/260
f 66/134/261 12/81/262 13/144/263
f 15/139/264 66/132/265 14/83/266
f 16/131/267 66/130/268 15/84/269
f 9/145/270 66/138/271 16/85/272
f 68/161/273 67/162/274 83/163/275 84/164/276
f 69/165/277 68/161/278 84/164/279 85/166/280
f 70/167/281 69/165/282 85/166/283 86/168/284
f 71/169/285 70/167/286 86/168/287 87/170/288
f 72/171/289 71/169/290 87/170/291 88/172/292
f 73/173/293 72/171/294 88/172/295 89/174/296
f 74/175/297 73/173/298 89/174/299 90/176/300
f 67/162/301 74/175/302 90/176/303 83/163/304
f 91/177/305 92/178/306 76/179/307 75/180/308
f 92/178/309 93/181/310 77/182/311 76/179/312
f 93/181/313 94/183/314 78/184/315 77/182/316
f 94/183/317 95/209/318 79/210/319 78/184/320
f 95/209/321 96/211/322 80/212/323 79/210/324
f 96/211/325 97/213/326 81/214/327 80/212/328
f 97/213/329 98/215/330 82/216/331 81/214/332
f 98/215/333 91/177/334 75/180/335 82/216/336
f 84/187/337 83/185/338 55/74/339 56/61/340
f 85/189/341 84/187/342 56/61/343 49/94/344
f 86/190/345 85/188/346 49/60/347 50/14/348
f 87/192/349 86/190/350 50/14/351 51/90/352
f 88/193/353 87/191/354 51/12/355 52/10/356
f 89/195/357 88/193/358 52/10/359 53/92/360
f 90/196/361 89/194/362 53/8/363 54/6/364
f 83/186/365 90/196/366 54/6/367 55/4/368
f 57/93/369 58/2/370 92/199/371 91/198/372
f 58/2/373 59/62/374 93/200/375 92/199/376
f 59/3/377 60/5/378 94/202/379 93/201/380
f 60/5/381 61/91/382 95/203/383 94/202/384
f 61/7/385 62/9/386 96/205/387 95/204/388
f 62/9/389 63/89/390 97/206/391 96/205/392
f 63/11/393 64/13/394 98/208/395 97/207/396
f 64/13/397 57/1/398 91/197/399 98/208/400
