# This file uses centimeters as units for non-parametric coordinates.

v -11.473228 0.446827 -73.687935
v -60.097897 0.446827 -66.116760
v -11.473228 4.637869 -73.687935
v -60.097897 3.790479 -66.116760
v -0.762207 3.790479 0.580262
v -48.395161 0.132676 7.655147
v -0.787826 0.446827 0.402622
v -48.395161 -1.994346 2.920680
v 33.645077 0.446827 -83.725891
v 33.645077 3.790479 -83.725891
v 48.853672 4.637869 -6.100396
v 48.853672 0.446827 -6.100396
v 11.932219 -69.581741 2.920699
v -37.288635 -72.111557 2.920719
v 11.932221 -69.581749 7.655169
v -37.288647 -72.111565 6.264356
v 53.993446 -63.489624 2.920715
v 53.993443 -63.489582 6.264327
v 11.214557 0.000000 -75.297348
v 10.520233 4.191042 -75.189240
v 42.746899 4.191042 -28.100416
v 42.512173 0.000000 -29.607901
v -0.000532 4.022464 -74.501701
v -0.351833 8.213506 -74.446999
v 45.765846 8.213506 -17.225180
v 45.647137 4.022464 -17.987583
v -49.752575 5.019970 0.324169
v -49.746284 0.446827 0.364556
v 49.866707 4.564516 0.405643
v 49.872368 0.446827 0.442008
v 0.509562 0.975496 6.403673
v 51.004101 1.464267 6.956019
v 0.498884 -1.065845 2.920685
v 50.988647 -0.563533 2.920689
v 32.716328 -63.293667 2.920708
v 34.741337 -63.330994 6.914226
v 50.952827 -5.241390 6.869345
v 50.821999 -6.896564 2.920691
v 25.384731 -67.202713 8.277662
v 26.961420 -67.233337 12.286629
vt 0.590071 0.281138
vt 0.589811 0.281104
vt 0.580173 0.250252
vt 0.624454 0.250252
vt 0.580173 0.311583
vt 0.624454 0.311584
vt 0.589809 0.281099
vt 0.590073 0.281133
vt 0.589883 0.280968
vt 0.589884 0.280974
vt 0.069952 0.278019
vt 0.590071 0.281138
vt 0.589811 0.281104
vt 0.589809 0.281099
vt 0.590073 0.281133
vt 0.580173 0.250252
vt 0.624454 0.250252
vt 0.624454 0.311584
vt 0.580173 0.311584
vt 0.070327 0.278031
vt 0.589884 0.280974
vt 0.589883 0.280968
vt 0.590071 0.281138
vt 0.590073 0.281133
vt 0.589809 0.281099
vt 0.589811 0.281104
vt 0.580173 0.250252
vt 0.580173 0.311584
vt 0.624454 0.311584
vt 0.624454 0.250252
vt 0.070413 0.278491
vt 0.589884 0.280974
vt 0.589883 0.280968
vt 0.590071 0.281138
vt 0.589811 0.281104
vt 0.589809 0.281099
vt 0.590073 0.281133
vt 0.580173 0.250252
vt 0.624454 0.250252
vt 0.624454 0.311584
vt 0.580173 0.311584
vt 0.070053 0.278480
vt 0.589884 0.280974
vt 0.589883 0.280968
vt 0.589937 0.281121
vt 0.589941 0.281116
vt 0.602254 0.250252
vt 0.589861 0.281007
vt 0.624454 0.287063
vt 0.589861 0.281015
vt 0.590003 0.281129
vt 0.590006 0.281124
vt 0.591275 0.250252
vt 0.589872 0.280988
vt 0.624454 0.294792
vt 0.589872 0.280995
vt 0.069609 0.278070
vt 0.069977 0.278456
vt 0.069883 0.278466
vt 0.069626 0.278162
vt 0.069566 0.278007
vt 0.069426 0.277491
vt 0.069829 0.277505
vt 0.070236 0.277555
vt 0.069719 0.278487
vt 0.624454 0.304470
vt 0.589874 0.280984
vt 0.070337 0.278084
vt 0.589876 0.280989
vt 0.624454 0.306275
vt 0.589877 0.280980
vt 0.069554 0.277962
vt 0.589878 0.280985
vt 0.580173 0.305439
vt 0.580173 0.305439
vt 0.624454 0.300314
vt 0.589869 0.280992
vt 0.069940 0.277967
vt 0.069540 0.277913
vt 0.589871 0.280998
vt 0.589930 0.281120
vt 0.069611 0.277497
vt 0.589932 0.281115
vt 0.603763 0.250252
vt 0.624454 0.294041
vt 0.589862 0.281006
vt 0.069526 0.277861
vt 0.589863 0.281011
vt 0.589989 0.281128
vt 0.069702 0.277501
vt 0.589991 0.281123
vt 0.593906 0.250252
vn -0.153852 0.000000 -0.988094
vn -0.153852 0.000000 -0.988094
vn -0.153852 0.000000 -0.988094
vn -0.153852 0.000000 -0.988094
vn 0.003670 0.999988 -0.003265
vn 0.003670 0.999988 -0.003265
vn 0.003670 0.999988 -0.003265
vn 0.003670 0.999988 -0.003265
vn 0.000537 -0.723039 -0.690807
vn 0.000537 -0.723039 -0.690807
vn 0.000537 -0.723039 -0.690807
vn -0.988094 0.000001 0.153853
vn -0.988094 0.000001 0.153853
vn -0.988094 0.000001 0.153853
vn -0.988094 0.000001 0.153853
vn -0.065386 0.011224 -0.997797
vn -0.065386 0.011224 -0.997797
vn -0.065386 0.011224 -0.997797
vn -0.065386 0.011224 -0.997797
vn 0.414841 0.854885 -0.311573
vn 0.414841 0.854885 -0.311573
vn 0.414841 0.854885 -0.311573
vn 0.414841 0.854885 -0.311573
vn -0.399693 -0.865850 0.300914
vn -0.399693 -0.865850 0.300914
vn -0.399693 -0.865850 0.300914
vn -0.399693 -0.865850 0.300914
vn 0.986858 0.001584 -0.161583
vn 0.986858 0.001584 -0.161583
vn 0.986858 0.001584 -0.161583
vn 0.986858 0.001584 -0.161583
vn 0.051329 -0.998682 -0.000003
vn 0.051329 -0.998682 -0.000003
vn 0.051329 -0.998682 -0.000003
vn 0.051329 -0.998682 -0.000003
vn 0.025200 0.021807 0.999445
vn 0.025200 0.021807 0.999445
vn 0.025200 0.021807 0.999445
vn -0.000000 -0.000001 -1.000000
vn -0.000000 -0.000001 -1.000000
vn -0.000000 -0.000001 -1.000000
vn -0.987167 -0.154428 0.040661
vn -0.987167 -0.154428 0.040661
vn -0.987167 -0.154428 0.040661
vn -0.987167 -0.154428 0.040661
vn 0.175613 -0.983833 -0.035116
vn 0.175613 -0.983833 -0.035116
vn 0.175613 -0.983833 -0.035116
vn 0.175613 -0.983833 -0.035116
vn -0.315499 0.182673 0.931177
vn -0.315499 0.182673 0.931177
vn -0.315499 0.182673 0.931177
vn 0.004605 -0.891756 -0.452494
vn 0.004605 -0.891756 -0.452494
vn 0.004605 -0.891756 -0.452494
vn 0.004605 -0.891756 -0.452494
vn 0.998076 0.054148 -0.030196
vn 0.998076 0.054148 -0.030196
vn 0.998076 0.054148 -0.030196
vn 0.998076 0.054148 -0.030196
vn -0.027036 -0.023395 0.999361
vn -0.027036 -0.023395 0.999361
vn -0.027036 -0.023395 0.999361
vn -0.348915 -0.018708 -0.936967
vn -0.348915 -0.018708 -0.936967
vn -0.348915 -0.018708 -0.936967
vn -0.348915 -0.018708 -0.936967
vn 0.013826 0.999860 -0.009462
vn 0.013826 0.999860 -0.009462
vn 0.013826 0.999860 -0.009462
vn 0.015840 -0.999816 -0.010850
vn 0.015840 -0.999816 -0.010850
vn 0.015840 -0.999816 -0.010850
vn 0.960846 0.033955 -0.274993
vn 0.960846 0.033955 -0.274993
vn 0.960846 0.033955 -0.274993
vn 0.960846 0.033955 -0.274993
vn -0.015243 0.999791 0.013606
vn -0.015243 0.999791 0.013606
vn -0.015243 0.999791 0.013606
vn 0.016207 -0.853427 -0.520960
vn 0.016207 -0.853427 -0.520960
vn 0.016207 -0.853427 -0.520960
vn -0.070563 0.003552 -0.997501
vn -0.070563 0.003552 -0.997501
vn -0.070563 0.003552 -0.997501
vn -0.070563 0.003552 -0.997501
vn -0.349595 0.888194 0.298154
vn -0.349595 0.888194 0.298154
vn -0.349595 0.888194 0.298154
vn -0.349595 0.888194 0.298154
vn 0.965311 0.010061 -0.260911
vn 0.965311 0.010061 -0.260911
vn 0.965311 0.010061 -0.260911
vn 0.965311 0.010061 -0.260911
vn 0.335737 -0.897265 -0.286697
vn 0.335737 -0.897265 -0.286697
vn 0.335737 -0.897265 -0.286697
vn 0.335737 -0.897265 -0.286697
vn 0.018030 0.833454 0.552295
vn 0.018030 0.833454 0.552295
vn 0.018030 0.833454 0.552295
vn 0.000000 -1.000000 0.000000
vn 0.000000 -1.000000 0.000000
vn 0.000000 -1.000000 0.000000
vn 0.000000 -1.000000 0.000000
vn -0.976615 -0.123976 0.175648
vn -0.976615 -0.123976 0.175648
vn -0.976615 -0.123976 0.175648
vn -0.976615 -0.123976 0.175648
vn -0.015238 0.999791 0.013645
vn -0.015238 0.999791 0.013645
vn -0.015238 0.999791 0.013645
vn 0.000000 -1.000000 0.000000
vn 0.000000 -1.000000 0.000000
vn 0.000000 -1.000000 0.000000
vn 0.988094 0.000001 -0.153853
vn 0.988094 0.000001 -0.153853
vn 0.988094 0.000001 -0.153853
vn 0.988094 0.000001 -0.153853
vn 0.000000 -1.000000 0.000000
vn 0.000000 -1.000000 0.000000
vn 0.000000 -1.000000 0.000000
vn -0.012872 0.901158 0.433300
vn -0.012872 0.901158 0.433300
vn -0.012872 0.901158 0.433300
vn -0.012872 0.901158 0.433300
vn -0.555237 0.161732 -0.815815
vn -0.555237 0.161732 -0.815815
vn -0.555237 0.161732 -0.815815
vn -0.555237 0.161732 -0.815815
vn 0.974654 0.120925 -0.188222
vn 0.974654 0.120925 -0.188222
vn 0.974654 0.120925 -0.188222
vn 0.974654 0.120925 -0.188222
vn -0.004353 0.899947 0.435977
vn -0.004353 0.899947 0.435977
vn -0.004353 0.899947 0.435977
vn 0.000000 -0.000000 -1.000000
vn 0.000000 -0.000000 -1.000000
vn 0.000000 -0.000000 -1.000000
vn -0.011091 0.015938 0.999811
vn -0.011091 0.015938 0.999811
vn -0.011091 0.015938 0.999811
vn -0.008790 -0.999958 -0.002655
vn -0.008790 -0.999958 -0.002655
vn -0.008790 -0.999958 -0.002655
vn -0.008790 -0.999958 -0.002655
vn 0.033666 -0.008623 0.999396
vn 0.033666 -0.008623 0.999396
vn 0.033666 -0.008623 0.999396
vn 0.999805 -0.016640 -0.010642
vn 0.999805 -0.016640 -0.010642
vn 0.999805 -0.016640 -0.010642
vn 0.999805 -0.016640 -0.010642
vn 0.000000 -0.000000 -1.000000
vn 0.000000 -0.000000 -1.000000
vn 0.000000 -0.000000 -1.000000
vn 0.355920 -0.919293 -0.167994
vn 0.355920 -0.919293 -0.167994
vn 0.355920 -0.919293 -0.167994
vn 0.355920 -0.919293 -0.167994
vn 0.538308 -0.135645 0.831760
vn 0.538308 -0.135645 0.831760
vn 0.538308 -0.135645 0.831760
vn 0.538308 -0.135645 0.831760
vn 0.000000 -0.000000 -1.000000
vn 0.000000 -0.000000 -1.000000
vn 0.000000 -0.000000 -1.000000
vn 0.394441 -0.223209 -0.891400
vn 0.394441 -0.223209 -0.891400
vn 0.394441 -0.223209 -0.891400
s off
f 1/1/1 2/2/2 4/7/3 3/8/4
f 3/3/5 4/4/6 27/66/7 5/5/8
f 7/11/9 8/20/10 28/68/11
f 2/2/12 28/69/13 27/67/14 4/7/15
f 23/51/16 24/52/17 20/46/18 19/45/19
f 24/53/20 25/55/21 21/49/22 20/47/23
f 26/57/24 23/58/25 19/59/26 22/60/27
f 9/13/28 10/14/29 21/48/30 22/50/31
f 14/26/32 13/23/33 15/24/34 16/25/35
f 15/27/36 31/74/37 6/29/38
f 14/64/39 8/20/40 13/63/41
f 14/26/42 16/25/43 6/33/44 8/32/45
f 13/34/46 39/89/47 40/91/48 15/37/49
f 15/38/50 40/92/51 32/76/52
f 7/11/53 30/72/54 34/79/55 33/78/56
f 17/35/57 38/88/58 37/86/59 18/36/60
f 16/30/61 15/27/62 6/29/63
f 19/45/64 20/46/65 10/14/66 9/13/67
f 20/47/68 21/49/69 10/17/70
f 22/60/71 19/59/72 9/65/73
f 22/50/74 21/48/75 25/54/76 26/56/77
f 3/16/78 5/19/79 11/18/80
f 7/11/81 33/78/82 8/20/83
f 1/12/84 3/15/85 24/52/86 23/51/87
f 3/16/88 11/18/89 25/55/90 24/53/91
f 26/56/92 25/54/93 11/22/94 12/21/95
f 12/61/96 1/42/97 23/58/98 26/57/99
f 5/5/100 27/66/101 6/6/102
f 7/11/103 28/68/104 2/31/105 1/42/106
f 27/67/107 28/69/108 8/10/109 6/9/110
f 5/41/111 29/70/112 11/40/113
f 30/72/114 7/11/115 12/61/116
f 29/71/117 30/73/118 12/43/119 11/44/120
f 7/11/121 1/42/122 12/61/123
f 31/75/124 32/76/125 29/70/126 5/41/127
f 39/90/128 34/79/129 38/87/130 35/82/131
f 32/77/132 34/80/133 30/73/134 29/71/135
f 6/29/136 31/74/137 5/28/138
f 8/20/139 33/78/140 13/63/141
f 15/38/142 32/76/143 31/75/144
f 36/83/145 35/81/146 17/35/147 18/36/148
f 37/85/149 36/84/150 18/39/151
f 37/86/152 38/88/153 34/80/154 32/77/155
f 35/82/156 38/87/157 17/62/158
f 40/91/159 39/89/160 35/81/161 36/83/162
f 32/76/163 40/92/164 36/84/165 37/85/166
f 33/78/167 34/79/168 13/63/169
f 13/63/170 34/79/171 39/90/172
