# This file uses centimeters as units for non-parametric coordinates.

v -1.739836 -14.897764 -1.004495
v -1.739836 -14.897764 1.004494
v -0.000000 -14.897764 2.008989
v 1.739835 -14.897764 1.004495
v 1.739836 -14.897764 -1.004494
v 0.000000 -14.897764 -2.008989
v -2.102419 -9.227237 -1.213833
v -2.102420 -9.227237 1.213832
v -0.000000 -9.227237 2.427665
v 2.102420 -9.227237 1.213833
v 2.102420 -9.227237 -1.213833
v 0.000000 -9.227237 -2.427665
v -1.851484 -2.482793 -1.068955
v -1.851484 -2.482793 1.068955
v -0.000000 -2.482793 2.137910
v 1.851484 -2.482793 1.068955
v 1.851484 -2.482793 -1.068955
v 0.000000 -2.482793 -2.137910
v -1.932829 4.973299 -1.115920
v -1.932830 4.973299 1.115919
v -0.000000 4.973299 2.231839
v 1.932829 4.973299 1.115920
v 1.932829 4.973299 -1.115919
v 0.000000 4.973299 -2.231839
v -2.376531 3.526682 -1.372091
v -2.376531 3.526682 1.372090
v -0.000000 3.526682 2.744181
v 2.376531 3.526682 1.372091
v 2.376531 3.526682 -1.372090
v 0.000000 3.526682 -2.744181
v -2.272010 -13.682683 -1.311746
v -2.272011 -13.682683 1.311745
v -0.000000 -13.682683 2.623492
v 2.272011 -13.682683 1.311746
v 2.272010 -13.682683 -1.311746
v 0.000000 -13.682683 -2.623491
v 0.579929 1.225867 1.260235
v 0.579929 5.486533 1.567395
v 0.579929 43.716320 13.657459
v 0.579929 45.542469 2.130418
v 0.579929 41.130680 -12.478043
v 0.579929 30.835052 -18.558212
v 0.579929 19.052481 -18.249146
v 0.579929 9.695711 -12.909122
v 0.579929 5.028010 -1.872567
v 0.579929 1.356871 -1.351010
v -0.579929 43.716320 13.657458
v -0.579929 45.542469 2.130418
v -0.579929 1.356871 -1.351010
v -0.579929 1.225867 1.260235
v -0.579929 5.486533 1.567395
v -0.579929 5.028010 -1.872567
v -0.579929 41.130680 -12.478044
v -0.579929 30.835052 -18.558212
v -0.579929 19.052481 -18.249146
v -0.579929 9.695711 -12.909122
v 0.000000 9.106734 0.568231
v 0.579929 6.643969 1.636422
v 0.579929 8.272674 -3.531522
v 0.579929 12.568012 -10.146120
v 0.579929 19.722300 -14.527970
v 0.579929 30.423466 -15.405126
v 0.579929 38.905582 -10.640480
v 0.579929 43.169727 2.278929
v 0.579929 42.280930 13.248713
v 0.000000 38.481705 19.247105
v 0.000000 40.397552 12.643983
v -0.579929 42.280930 13.248713
v 0.000000 41.162735 2.857603
v -0.579929 43.169727 2.278929
v 0.000000 37.210701 -9.224420
v -0.579929 38.905582 -10.640481
v 0.000000 30.037106 -13.443809
v -0.579929 30.423466 -15.405126
v 0.000000 20.235729 -12.836374
v -0.579929 19.722300 -14.527970
v 0.000000 13.764499 -8.637352
v -0.579929 12.568012 -10.146121
v 0.000000 10.278682 -2.790888
v -0.579929 8.272674 -3.531522
v -0.579929 6.643969 1.636422
vt 0.037371 0.277252
vt 0.037470 0.277245
vt 0.037482 0.277177
vt 0.037353 0.277187
vt 0.037530 0.277295
vt 0.037561 0.277242
vt 0.037490 0.277355
vt 0.037509 0.277320
vt 0.037388 0.277363
vt 0.037374 0.277331
vt 0.037329 0.277311
vt 0.037297 0.277263
vt 0.037356 0.277005
vt 0.037478 0.276996
vt 0.037470 0.276709
vt 0.037360 0.276716
vt 0.037552 0.277054
vt 0.037537 0.276757
vt 0.037503 0.277123
vt 0.037493 0.276813
vt 0.037376 0.277133
vt 0.037379 0.276821
vt 0.037304 0.277072
vt 0.037313 0.276771
vt 0.037482 0.276420
vt 0.037338 0.276428
vt 0.037570 0.276476
vt 0.037512 0.276543
vt 0.037361 0.276552
vt 0.037275 0.276493
vt 0.037542 0.276408
vt 0.037495 0.276462
vt 0.037372 0.276469
vt 0.037302 0.276422
vt 0.037353 0.276370
vt 0.037471 0.276363
vt 0.101524 0.265304
vt 0.101436 0.265196
vt 0.101379 0.265045
vt 0.101362 0.264829
vt 0.101417 0.264646
vt 0.101607 0.264526
vt 0.101807 0.264528
vt 0.101783 0.264581
vt 0.101786 0.264526
vt 0.101606 0.264576
vt 0.101587 0.264524
vt 0.101427 0.264683
vt 0.101397 0.264645
vt 0.101377 0.264838
vt 0.101343 0.264829
vt 0.101390 0.265040
vt 0.101361 0.265047
vt 0.101446 0.265179
vt 0.101555 0.283228
vt 0.101591 0.283245
vt 0.101596 0.283162
vt 0.101547 0.283155
vt 0.101537 0.283234
vt 0.101529 0.283160
vt 0.101578 0.283167
vt 0.101573 0.283250
vt 0.101796 0.282264
vt 0.101577 0.282250
vt 0.101597 0.282253
vt 0.101816 0.282267
vt 0.101370 0.282383
vt 0.101390 0.282385
vt 0.101307 0.282599
vt 0.101326 0.282599
vt 0.101320 0.282833
vt 0.101338 0.282831
vt 0.101383 0.283006
vt 0.101401 0.283002
vt 0.101572 0.265306
vt 0.101597 0.265359
vt 0.101579 0.265364
vt 0.101920 0.264627
vt 0.101506 0.265308
vt 0.101524 0.265269
vt 0.101418 0.265199
vn -0.915998 -0.401184 -0.000000
vn -0.915998 -0.401184 -0.000000
vn -0.915998 -0.401184 -0.000000
vn -0.915998 -0.401184 -0.000000
vn -0.457999 -0.401184 0.793277
vn -0.457999 -0.401184 0.793277
vn -0.457999 -0.401184 0.793277
vn -0.457999 -0.401184 0.793277
vn 0.457999 -0.401184 0.793277
vn 0.457999 -0.401184 0.793277
vn 0.457999 -0.401184 0.793277
vn 0.457999 -0.401184 0.793277
vn 0.915998 -0.401184 -0.000000
vn 0.915998 -0.401184 -0.000000
vn 0.915998 -0.401184 -0.000000
vn 0.915998 -0.401184 -0.000000
vn 0.457999 -0.401184 -0.793277
vn 0.457999 -0.401184 -0.793277
vn 0.457999 -0.401184 -0.793277
vn 0.457999 -0.401184 -0.793277
vn -0.457998 -0.401183 -0.793278
vn -0.457998 -0.401183 -0.793278
vn -0.457998 -0.401183 -0.793278
vn -0.457998 -0.401183 -0.793278
vn -0.999309 0.037181 -0.000000
vn -0.999309 0.037181 -0.000000
vn -0.999309 0.037181 -0.000000
vn -0.999309 0.037181 -0.000000
vn -0.499655 0.037181 0.865426
vn -0.499655 0.037181 0.865426
vn -0.499655 0.037181 0.865426
vn -0.499655 0.037181 0.865426
vn 0.499654 0.037181 0.865427
vn 0.499654 0.037181 0.865427
vn 0.499654 0.037181 0.865427
vn 0.499654 0.037181 0.865427
vn 0.999309 0.037181 0.000000
vn 0.999309 0.037181 0.000000
vn 0.999309 0.037181 0.000000
vn 0.999309 0.037181 0.000000
vn 0.499654 0.037181 -0.865427
vn 0.499654 0.037181 -0.865427
vn 0.499654 0.037181 -0.865427
vn 0.499654 0.037181 -0.865427
vn -0.499654 0.037181 -0.865427
vn -0.499654 0.037181 -0.865427
vn -0.499654 0.037181 -0.865427
vn -0.499654 0.037181 -0.865427
vn -0.996205 -0.087038 -0.000000
vn -0.996205 -0.087038 -0.000000
vn -0.996205 -0.087038 -0.000000
vn -0.996205 -0.087038 -0.000000
vn -0.498103 -0.087038 0.862739
vn -0.498103 -0.087038 0.862739
vn -0.498103 -0.087038 0.862739
vn -0.498103 -0.087038 0.862739
vn 0.498102 -0.087038 0.862739
vn 0.498102 -0.087038 0.862739
vn 0.498102 -0.087038 0.862739
vn 0.498102 -0.087038 0.862739
vn 0.996205 -0.087038 0.000000
vn 0.996205 -0.087038 0.000000
vn 0.996205 -0.087038 0.000000
vn 0.996205 -0.087038 0.000000
vn 0.498102 -0.087038 -0.862739
vn 0.498102 -0.087038 -0.862739
vn 0.498102 -0.087038 -0.862739
vn 0.498102 -0.087038 -0.862739
vn -0.498102 -0.087038 -0.862739
vn -0.498102 -0.087038 -0.862739
vn -0.498102 -0.087038 -0.862739
vn -0.498102 -0.087038 -0.862739
vn 0.000000 -1.000000 0.000000
vn 0.000000 -1.000000 0.000000
vn 0.000000 -1.000000 0.000000
vn 0.000000 -1.000000 0.000000
vn 0.000000 -1.000000 0.000000
vn 0.000000 -1.000000 0.000000
vn 0.000000 -1.000000 0.000000
vn 0.000000 -1.000000 0.000000
vn 0.000000 1.000000 -0.000000
vn 0.000000 1.000000 -0.000000
vn 0.000000 1.000000 -0.000000
vn 0.000000 1.000000 -0.000000
vn 0.000000 1.000000 0.000000
vn 0.000000 1.000000 0.000000
vn 0.000000 1.000000 0.000000
vn 0.000000 1.000000 0.000000
vn -0.956041 0.293234 -0.000000
vn -0.956041 0.293234 -0.000000
vn -0.956041 0.293234 -0.000000
vn -0.956041 0.293234 -0.000000
vn -0.478020 0.293234 0.827956
vn -0.478020 0.293234 0.827956
vn -0.478020 0.293234 0.827956
vn -0.478020 0.293234 0.827956
vn 0.478020 0.293234 0.827956
vn 0.478020 0.293234 0.827956
vn 0.478020 0.293234 0.827956
vn 0.478020 0.293234 0.827956
vn 0.956041 0.293234 0.000000
vn 0.956041 0.293234 0.000000
vn 0.956041 0.293234 0.000000
vn 0.956041 0.293234 0.000000
vn 0.478020 0.293234 -0.827956
vn 0.478020 0.293234 -0.827956
vn 0.478020 0.293234 -0.827956
vn 0.478020 0.293234 -0.827956
vn -0.478020 0.293234 -0.827956
vn -0.478020 0.293234 -0.827956
vn -0.478020 0.293234 -0.827956
vn -0.478020 0.293234 -0.827956
vn -0.999276 0.038036 -0.000000
vn -0.999276 0.038036 -0.000000
vn -0.999276 0.038036 -0.000000
vn -0.999276 0.038036 -0.000000
vn -0.499639 0.038036 0.865398
vn -0.499639 0.038036 0.865399
vn -0.499639 0.038036 0.865399
vn -0.499639 0.038036 0.865399
vn 0.499638 0.038036 0.865399
vn 0.499638 0.038036 0.865399
vn 0.499638 0.038036 0.865399
vn 0.499638 0.038036 0.865399
vn 0.999276 0.038036 -0.000000
vn 0.999276 0.038036 -0.000000
vn 0.999276 0.038036 -0.000000
vn 0.999276 0.038036 -0.000000
vn 0.499638 0.038036 -0.865399
vn 0.499638 0.038036 -0.865399
vn 0.499638 0.038036 -0.865399
vn 0.499638 0.038036 -0.865399
vn -0.499638 0.038036 -0.865399
vn -0.499638 0.038036 -0.865399
vn -0.499638 0.038036 -0.865399
vn -0.499638 0.038036 -0.865399
vn -1.000000 -0.000000 -0.000000
vn -1.000000 -0.000000 -0.000000
vn -1.000000 -0.000000 -0.000000
vn -1.000000 -0.000000 -0.000000
vn 1.000000 0.000000 0.000000
vn 1.000000 0.000000 0.000000
vn 1.000000 0.000000 0.000000
vn 1.000000 0.000000 0.000000
vn -0.000000 0.987683 0.156471
vn -0.000000 0.987683 0.156471
vn -0.000000 0.987683 0.156471
vn -0.000000 0.987683 0.156471
vn 0.000000 -0.071905 0.997411
vn 0.000000 -0.071905 0.997411
vn 0.000000 -0.071905 0.997411
vn 0.000000 -0.071905 0.997411
vn -0.000000 -0.140657 -0.990058
vn -0.000000 -0.140657 -0.990058
vn -0.000000 -0.140657 -0.990058
vn -0.000000 -0.140657 -0.990058
vn 0.000000 0.957297 -0.289106
vn 0.000000 0.957297 -0.289106
vn 0.000000 0.957297 -0.289106
vn 0.000000 0.957297 -0.289106
vn 0.000000 0.508505 -0.861059
vn 0.000000 0.508505 -0.861059
vn 0.000000 0.508505 -0.861059
vn 0.000000 0.508505 -0.861059
vn 0.000000 -0.026222 -0.999656
vn 0.000000 -0.026222 -0.999656
vn 0.000000 -0.026222 -0.999656
vn 0.000000 -0.026222 -0.999656
vn 0.000000 -0.495670 -0.868511
vn 0.000000 -0.495670 -0.868511
vn 0.000000 -0.495670 -0.868511
vn 0.000000 -0.495670 -0.868511
vn 0.000000 -0.921016 -0.389526
vn 0.000000 -0.921016 -0.389526
vn 0.000000 -0.921016 -0.389526
vn 0.000000 -0.921016 -0.389526
vn 0.000000 0.397919 0.917421
vn 0.000000 0.397918 0.917421
vn 0.000000 0.397918 0.917421
vn 0.000000 -0.059532 0.998226
vn 0.000000 -0.059532 0.998226
vn 0.000000 -0.059532 0.998226
vn 0.000000 -0.059532 0.998226
vn 0.000000 0.729907 0.683546
vn 0.000000 0.729907 0.683546
vn 0.000000 0.729907 0.683546
vn 0.962982 0.256105 0.084116
vn 0.962982 0.256105 0.084116
vn 0.962982 0.256105 0.084116
vn 0.962982 0.256105 0.084116
vn 0.958665 0.241348 0.150707
vn 0.958665 0.241348 0.150707
vn 0.958665 0.241348 0.150707
vn 0.958665 0.241348 0.150707
vn 0.952296 0.162627 0.258235
vn 0.952296 0.162627 0.258235
vn 0.952296 0.162627 0.258235
vn 0.952296 0.162627 0.258235
vn 0.953100 0.021858 0.301864
vn 0.953101 0.021858 0.301864
vn 0.953100 0.021858 0.301864
vn 0.953100 0.021858 0.301864
vn 0.959782 -0.139733 0.243501
vn 0.959782 -0.139733 0.243501
vn 0.959782 -0.139733 0.243501
vn 0.959782 -0.139733 0.243501
vn 0.962918 -0.256310 0.084231
vn 0.962918 -0.256311 0.084231
vn 0.962918 -0.256311 0.084231
vn 0.962918 -0.256311 0.084231
vn 0.958110 -0.285495 -0.022750
vn 0.958110 -0.285494 -0.022750
vn 0.958110 -0.285494 -0.022750
vn 0.958110 -0.285494 -0.022750
vn 0.959579 -0.270292 -0.078423
vn 0.959579 -0.270292 -0.078423
vn 0.959579 -0.270292 -0.078423
vn -0.959579 -0.270292 -0.078423
vn -0.959579 -0.270292 -0.078423
vn -0.959579 -0.270292 -0.078423
vn -0.958110 -0.285494 -0.022750
vn -0.958110 -0.285494 -0.022750
vn -0.958110 -0.285494 -0.022750
vn -0.958110 -0.285494 -0.022750
vn -0.962918 -0.256310 0.084231
vn -0.962918 -0.256310 0.084231
vn -0.962918 -0.256310 0.084231
vn -0.962918 -0.256310 0.084231
vn -0.959782 -0.139733 0.243501
vn -0.959782 -0.139733 0.243501
vn -0.959782 -0.139733 0.243501
vn -0.959782 -0.139733 0.243501
vn -0.953100 0.021858 0.301864
vn -0.953100 0.021858 0.301864
vn -0.953100 0.021858 0.301864
vn -0.953101 0.021858 0.301864
vn -0.952296 0.162627 0.258235
vn -0.952296 0.162627 0.258235
vn -0.952296 0.162627 0.258235
vn -0.952296 0.162627 0.258235
vn -0.958665 0.241348 0.150707
vn -0.958665 0.241348 0.150707
vn -0.958665 0.241348 0.150707
vn -0.958665 0.241348 0.150707
vn -0.962982 0.256105 0.084116
vn -0.962982 0.256105 0.084116
vn -0.962982 0.256105 0.084116
vn -0.962982 0.256105 0.084116
vn -0.996393 -0.023240 0.081613
vn -0.996393 -0.023240 0.081613
vn -0.996393 -0.023240 0.081613
vn -1.000000 0.000000 0.000000
vn -1.000000 0.000000 0.000000
vn -1.000000 0.000000 0.000000
vn -1.000000 0.000000 0.000000
vn -1.000000 0.000000 0.000000
vn -1.000000 0.000000 0.000000
vn -1.000000 0.000000 0.000000
vn -1.000000 0.000000 0.000000
vn -1.000000 -0.000000 0.000000
vn -1.000000 -0.000000 0.000000
vn -1.000000 -0.000000 0.000000
vn -1.000000 -0.000000 0.000000
vn -1.000000 -0.000000 0.000000
vn -1.000000 -0.000000 0.000000
vn -1.000000 -0.000000 0.000000
vn -1.000000 -0.000000 0.000000
vn -1.000000 0.000000 0.000000
vn -1.000000 0.000000 0.000000
vn -1.000000 0.000000 0.000000
vn -1.000000 0.000000 0.000000
vn -1.000000 0.000000 0.000000
vn -1.000000 0.000000 0.000000
vn -1.000000 0.000000 0.000000
vn -1.000000 0.000000 0.000000
vn -1.000000 0.000000 -0.000000
vn -1.000000 0.000000 -0.000000
vn -1.000000 0.000000 -0.000000
vn -1.000000 0.000000 -0.000000
vn 0.996393 -0.023240 0.081613
vn 0.996393 -0.023240 0.081613
vn 0.996393 -0.023240 0.081613
vn 1.000000 0.000000 0.000000
vn 1.000000 0.000000 0.000000
vn 1.000000 0.000000 0.000000
vn 1.000000 0.000000 0.000000
vn 1.000000 -0.000000 -0.000000
vn 1.000000 -0.000000 -0.000000
vn 1.000000 -0.000000 -0.000000
vn 1.000000 -0.000000 -0.000000
vn 1.000000 0.000000 0.000000
vn 1.000000 0.000000 0.000000
vn 1.000000 0.000000 0.000000
vn 1.000000 0.000000 0.000000
vn 1.000000 -0.000000 0.000000
vn 1.000000 -0.000000 0.000000
vn 1.000000 -0.000000 0.000000
vn 1.000000 -0.000000 0.000000
vn 1.000000 0.000000 0.000000
vn 1.000000 0.000000 0.000000
vn 1.000000 0.000000 0.000000
vn 1.000000 0.000000 0.000000
vn 1.000000 0.000000 0.000000
vn 1.000000 0.000000 0.000000
vn 1.000000 0.000000 0.000000
vn 1.000000 0.000000 0.000000
vn 1.000000 0.000000 -0.000000
vn 1.000000 0.000000 -0.000000
vn 1.000000 0.000000 -0.000000
vn 1.000000 0.000000 -0.000000
s off
f 1/1/1 2/2/2 32/3/3 31/4/4
f 2/2/5 3/5/6 33/6/7 32/3/8
f 3/5/9 4/7/10 34/8/11 33/6/12
f 4/7/13 5/9/14 35/10/15 34/8/16
f 5/9/17 6/11/18 36/12/19 35/10/20
f 6/11/21 1/1/22 31/4/23 36/12/24
f 7/13/25 8/14/26 14/15/27 13/16/28
f 8/14/29 9/17/30 15/18/31 14/15/32
f 9/17/33 10/19/34 16/20/35 15/18/36
f 10/19/37 11/21/38 17/22/39 16/20/40
f 11/21/41 12/23/42 18/24/43 17/22/44
f 12/23/45 7/13/46 13/16/47 18/24/48
f 13/16/49 14/15/50 26/25/51 25/26/52
f 14/15/53 15/18/54 27/27/55 26/25/56
f 15/18/57 16/20/58 28/28/59 27/27/60
f 16/20/61 17/22/62 29/29/63 28/28/64
f 17/22/65 18/24/66 30/30/67 29/29/68
f 18/24/69 13/16/70 25/26/71 30/30/72
f 5/9/73 4/7/74 3/5/75 6/11/76
f 2/2/77 1/1/78 6/11/79 3/5/80
f 21/31/81 22/32/82 23/33/83 24/34/84
f 21/31/85 24/34/86 19/35/87 20/36/88
f 25/26/89 26/25/90 20/36/91 19/35/92
f 26/25/93 27/27/94 21/31/95 20/36/96
f 27/27/97 28/28/98 22/32/99 21/31/100
f 28/28/101 29/29/102 23/33/103 22/32/104
f 29/29/105 30/30/106 24/34/107 23/33/108
f 30/30/109 25/26/110 19/35/111 24/34/112
f 31/4/113 32/3/114 8/14/115 7/13/116
f 32/3/117 33/6/118 9/17/119 8/14/120
f 33/6/121 34/8/122 10/19/123 9/17/124
f 34/8/125 35/10/126 11/21/127 10/19/128
f 35/10/129 36/12/130 12/23/131 11/21/132
f 36/12/133 31/4/134 7/13/135 12/23/136
f 49/55/137 50/56/138 51/57/139 52/58/140
f 46/59/141 45/60/142 38/61/143 37/62/144
f 39/63/145 40/64/146 48/65/147 47/66/148
f 37/62/149 38/61/150 51/57/151 50/56/152
f 45/60/153 46/59/154 49/55/155 52/58/156
f 40/64/157 41/67/158 53/68/159 48/65/160
f 41/67/161 42/69/162 54/70/163 53/68/164
f 42/69/165 43/71/166 55/72/167 54/70/168
f 43/71/169 44/73/170 56/74/171 55/72/172
f 44/73/173 45/60/174 52/58/175 56/74/176
f 57/75/177 81/76/178 58/77/179
f 51/57/180 38/61/181 58/77/182 81/76/183
f 66/78/184 39/63/185 47/66/186
f 57/75/187 58/77/188 59/79/189 79/80/190
f 79/80/191 59/79/192 60/81/193 77/54/194
f 77/54/195 60/81/196 61/53/197 75/52/198
f 75/52/199 61/53/200 62/51/201 73/50/202
f 73/50/203 62/51/204 63/49/205 71/48/206
f 71/48/207 63/49/208 64/47/209 69/46/210
f 69/46/211 64/47/212 65/45/213 67/44/214
f 67/44/215 65/45/216 66/78/217
f 66/78/218 68/43/219 67/44/220
f 67/44/221 68/43/222 70/42/223 69/46/224
f 69/46/225 70/42/226 72/41/227 71/48/228
f 71/48/229 72/41/230 74/40/231 73/50/232
f 73/50/233 74/40/234 76/39/235 75/52/236
f 75/52/237 76/39/238 78/38/239 77/54/240
f 77/54/241 78/38/242 80/37/243 79/80/244
f 79/80/245 80/37/246 81/76/247 57/75/248
f 68/43/249 66/78/250 47/66/251
f 68/43/252 47/66/253 48/65/254 70/42/255
f 72/41/256 70/42/257 48/65/258 53/68/259
f 72/41/260 53/68/261 54/70/262 74/40/263
f 74/40/264 54/70/265 55/72/266 76/39/267
f 76/39/268 55/72/269 56/74/270 78/38/271
f 78/38/272 56/74/273 52/58/274 80/37/275
f 80/37/276 52/58/277 51/57/278 81/76/279
f 66/78/280 65/45/281 39/63/282
f 65/45/283 64/47/284 40/64/285 39/63/286
f 63/49/287 41/67/288 40/64/289 64/47/290
f 63/49/291 62/51/292 42/69/293 41/67/294
f 62/51/295 61/53/296 43/71/297 42/69/298
f 61/53/299 60/81/300 44/73/301 43/71/302
f 60/81/303 59/79/304 45/60/305 44/73/306
f 59/79/307 58/77/308 38/61/309 45/60/310
