# This file uses centimeters as units for non-parametric coordinates.

v 40.286499 0.684452 -18.405411
v 4.922974 0.684452 -35.916397
v -36.064697 0.684452 -29.171158
v -48.156616 0.684452 -7.955841
v 9.469849 0.706235 35.301147
v 35.428467 0.706235 29.633957
v 48.156616 0.684452 1.056931
v -27.689453 7.215592 0.489487
v 11.338501 11.925085 7.383644
v -31.597412 0.706235 17.094711
v -47.514648 0.706235 -2.203766
v -25.637939 1.787907 -19.445190
v -34.210693 6.143194 8.073868
v -22.924561 12.988206 -14.149796
v -16.108154 12.615269 -11.119476
v -19.894775 11.084096 8.379166
v -11.121704 1.744484 -13.793839
v -21.022217 5.429504 14.000259
v -24.976440 7.808654 -20.191803
v -32.437744 10.379740 4.638481
v -10.079712 6.912159 -14.226257
v -34.429443 1.527907 -3.120087
v -12.011841 2.721663 9.270462
v -9.992065 7.481040 9.338669
v -13.552124 14.432595 -1.678360
v -22.885620 14.021873 -1.843857
v -32.811279 9.225989 -7.480392
v -9.672607 1.579982 4.491051
v -8.263550 7.696185 4.811455
v -23.830566 1.640332 7.533928
v -18.432983 6.234251 -19.750778
v -23.519653 12.236170 1.250526
v -4.246216 0.670394 -23.121811
v 9.729248 4.376852 -23.643524
v -3.387695 10.960920 -25.721039
v -3.406250 10.955976 -30.470062
v 3.676514 11.708254 -30.842773
v -4.855225 1.298091 -33.003189
v 9.729248 4.376852 -32.848389
v -5.668823 6.034805 -23.121811
v 6.675293 8.075502 -23.643524
v 5.969360 7.888222 -32.848389
v -6.082397 5.925164 -33.332321
v 4.710327 0.594867 -21.045624
v 4.898560 2.045660 -36.921722
v 3.754883 6.357949 -36.853653
v -0.149414 12.282778 -33.582184
v 2.795288 12.147282 -24.170532
v 2.863037 7.560319 -21.045624
v 0.392212 0.650575 -34.408401
v -0.621460 6.165414 -35.116394
v 5.048096 0.433271 -29.218216
v -6.965088 4.846100 -27.076584
v 16.668091 25.051565 22.977524
v 37.075928 0.000000 16.046432
v 36.664917 1.551766 1.873764
v 40.197266 7.416366 9.789902
v 7.220459 15.537354 -9.853363
v 34.313110 25.051565 13.471146
v 39.383301 21.850281 10.299301
v 34.701416 23.150049 3.455017
v 7.287354 0.000001 36.921722
v 2.440186 0.684490 18.888229
v 11.626953 20.624554 6.642578
v 3.544556 9.714938 33.171570
v 6.697632 25.051565 17.310287
v 6.225708 1.160246 -12.928589
v 8.167847 25.730350 24.271011
v -4.234375 12.307662 -5.707855
v -5.265503 6.717591 31.228531
v -5.229370 1.160246 -8.783081
v -9.988159 0.684490 18.888229
v -6.185059 0.684468 31.803940
v -10.196899 9.450672 17.260788
v 3.554443 10.257282 18.147385
vt 0.626009 0.706864
vt 0.629134 0.708429
vt 0.633768 0.706113
vt 0.633503 0.707746
vt 0.630327 0.706781
vt 0.632125 0.701503
vt 0.635491 0.703430
vt 0.635788 0.705854
vt 0.625770 0.703726
vt 0.627078 0.702044
vt 0.635317 0.706213
vt 0.656148 0.773667
vt 0.661377 0.796435
vt 0.649189 0.773370
vt 0.660160 0.757556
vt 0.642044 0.740627
vt 0.638116 0.762148
vt 0.644357 0.690893
vt 0.662551 0.693446
vt 0.645202 0.716712
vt 0.689190 0.753856
vt 0.695798 0.774525
vt 0.679169 0.779867
vt 0.677017 0.766039
vt 0.653450 0.811411
vt 0.627738 0.792696
vt 0.637556 0.788579
vt 0.622466 0.759896
vt 0.700078 0.752042
vt 0.654786 0.727913
vt 0.651645 0.739418
vt 0.637581 0.734337
vt 0.693361 0.800631
vt 0.692528 0.788230
vt 0.693051 0.743802
vt 0.697042 0.682649
vt 0.672556 0.668362
vt 0.707399 0.787318
vt 0.722720 0.719174
vt 0.738661 0.831949
vt 0.746317 0.835897
vt 0.736888 0.841242
vt 0.726754 0.819290
vt 0.727244 0.827254
vt 0.712718 0.819968
vt 0.719114 0.829982
vt 0.712780 0.838043
vt 0.714010 0.856769
vt 0.696221 0.846180
vt 0.732718 0.804619
vt 0.746001 0.811054
vt 0.741912 0.820537
vt 0.734431 0.816297
vt 0.756463 0.844089
vt 0.734901 0.850040
vt 0.706425 0.817861
vt 0.731577 0.796998
vt 0.716319 0.805109
vt 0.722242 0.812467
vt 0.752157 0.817119
vt 0.761409 0.816250
vt 0.696043 0.860634
vt 0.732443 0.868051
vt 0.716075 0.886186
vt 0.692334 0.874710
vt 0.609009 0.749141
vt 0.577657 0.768072
vt 0.574238 0.751258
vt 0.615918 0.747704
vt 0.608509 0.739146
vt 0.620274 0.766298
vt 0.623632 0.761013
vt 0.629299 0.799442
vt 0.615436 0.789782
vt 0.625617 0.769358
vt 0.630082 0.758295
vt 0.619223 0.740947
vt 0.651375 0.736315
vt 0.602092 0.779810
vt 0.581378 0.776984
vt 0.602914 0.790464
vt 0.645366 0.723662
vt 0.580598 0.721851
vt 0.596707 0.786345
vt 0.561430 0.784884
vt 0.567976 0.790044
vt 0.566443 0.811873
vt 0.554929 0.810629
vt 0.580355 0.791442
vt 0.594573 0.793498
vt 0.588802 0.804746
vt 0.577119 0.818423
vt 0.655457 0.718424
vt 0.660540 0.728248
vt 0.562505 0.750431
vt 0.569345 0.724776
vt 0.565324 0.762981
vt 0.572989 0.778650
vt 0.568773 0.774910
vn 0.082162 0.922829 0.376345
vn 0.082162 0.922829 0.376345
vn 0.082162 0.922829 0.376345
vn -0.247629 0.958520 -0.141139
vn -0.247629 0.958520 -0.141139
vn -0.247629 0.958520 -0.141139
vn 0.310785 0.940452 0.137706
vn 0.310785 0.940452 0.137706
vn 0.310785 0.940452 0.137706
vn 0.132404 0.954448 -0.267391
vn 0.132404 0.954448 -0.267391
vn 0.132404 0.954448 -0.267391
vn 0.272824 0.955717 -0.110324
vn 0.272824 0.955717 -0.110324
vn 0.272824 0.955717 -0.110324
vn -0.056826 0.972610 -0.225389
vn -0.056826 0.972610 -0.225389
vn -0.056826 0.972610 -0.225389
vn -0.056826 0.972610 -0.225389
vn -0.169653 0.930439 0.324811
vn -0.169653 0.930439 0.324811
vn -0.169653 0.930439 0.324811
vn -0.159128 0.919697 0.358936
vn -0.159128 0.919697 0.358936
vn -0.159128 0.919697 0.358936
vn -0.333445 0.901763 0.275023
vn -0.333445 0.901763 0.275023
vn -0.333445 0.901763 0.275023
vn -0.000178 -1.000000 0.000435
vn -0.000178 -1.000000 0.000435
vn -0.000178 -1.000000 0.000435
vn -0.000178 -1.000000 0.000435
vn -0.000147 -1.000000 0.000315
vn -0.000147 -1.000000 0.000315
vn -0.000147 -1.000000 0.000315
vn -0.000147 -1.000000 0.000315
vn -0.000106 -1.000000 0.000481
vn -0.000106 -1.000000 0.000481
vn -0.000106 -1.000000 0.000481
vn -0.000106 -1.000000 0.000481
vn 0.005556 -0.999980 0.003167
vn 0.005556 -0.999980 0.003167
vn 0.005556 -0.999980 0.003167
vn -0.315674 0.948340 0.031640
vn -0.315674 0.948340 0.031640
vn -0.315674 0.948340 0.031640
vn -0.555306 0.764493 0.327392
vn -0.555306 0.764493 0.327392
vn -0.555306 0.764493 0.327392
vn -0.046979 0.869308 0.492033
vn -0.046979 0.869308 0.492032
vn -0.046979 0.869308 0.492032
vn 0.266150 0.851702 0.451406
vn 0.266150 0.851703 0.451406
vn 0.266150 0.851703 0.451406
vn 0.004976 -0.863712 0.503961
vn 0.004976 -0.863712 0.503961
vn 0.004976 -0.863712 0.503961
vn 0.333549 0.712891 -0.616873
vn 0.333549 0.712891 -0.616873
vn 0.333549 0.712891 -0.616873
vn 0.333549 0.712891 -0.616873
vn -0.967407 0.250451 -0.037399
vn -0.967407 0.250451 -0.037399
vn -0.967407 0.250451 -0.037399
vn -0.967407 0.250451 -0.037399
vn -0.253451 0.692631 0.675296
vn -0.253451 0.692631 0.675296
vn -0.253451 0.692631 0.675296
vn -0.253451 0.692631 0.675296
vn 0.176632 0.675981 0.715437
vn 0.176632 0.675981 0.715437
vn 0.176632 0.675981 0.715437
vn 0.552763 -0.179551 -0.813765
vn 0.552763 -0.179551 -0.813765
vn 0.552763 -0.179551 -0.813765
vn 0.866684 -0.287806 0.407464
vn 0.866684 -0.287806 0.407464
vn 0.866684 -0.287806 0.407464
vn 0.866684 -0.287806 0.407464
vn 0.613982 0.741824 0.269675
vn 0.613982 0.741824 0.269675
vn 0.613982 0.741824 0.269675
vn 0.023952 0.990859 -0.132758
vn 0.023952 0.990859 -0.132758
vn 0.023952 0.990859 -0.132758
vn 0.023952 0.990859 -0.132758
vn -0.398726 0.913956 -0.075508
vn -0.398726 0.913956 -0.075508
vn -0.398726 0.913956 -0.075508
vn -0.867794 -0.040176 -0.495298
vn -0.867794 -0.040176 -0.495298
vn -0.867794 -0.040176 -0.495298
vn -0.867794 -0.040176 -0.495298
vn 0.973779 -0.212332 -0.081669
vn 0.973779 -0.212332 -0.081669
vn 0.973779 -0.212332 -0.081669
vn 0.973779 -0.212332 -0.081669
vn 0.568755 0.765334 -0.301301
vn 0.568755 0.765334 -0.301301
vn 0.568755 0.765334 -0.301301
vn 0.827719 0.551852 -0.101690
vn 0.827719 0.551852 -0.101690
vn 0.827719 0.551852 -0.101690
vn 0.050795 -0.965477 0.255489
vn 0.050795 -0.965477 0.255489
vn 0.050795 -0.965477 0.255489
vn -0.335325 -0.827090 0.451086
vn -0.335325 -0.827090 0.451086
vn -0.335325 -0.827090 0.451086
vn -0.335325 -0.827090 0.451086
vn 0.036275 -0.126907 -0.991251
vn 0.036275 -0.126907 -0.991251
vn 0.036275 -0.126907 -0.991251
vn 0.215037 0.704172 -0.676683
vn 0.215037 0.704172 -0.676683
vn 0.215037 0.704172 -0.676683
vn 0.302871 -0.544533 -0.782146
vn 0.302871 -0.544533 -0.782146
vn 0.302871 -0.544533 -0.782146
vn 0.003865 -0.999976 -0.005729
vn 0.003865 -0.999976 -0.005729
vn 0.003865 -0.999976 -0.005729
vn 0.003865 -0.999976 -0.005729
vn 0.000527 -0.999959 -0.009038
vn 0.000527 -0.999959 -0.009038
vn 0.000527 -0.999959 -0.009038
vn -0.119173 0.968831 0.217173
vn -0.119173 0.968831 0.217173
vn -0.119173 0.968831 0.217173
vn -0.144767 0.962560 0.229175
vn -0.144767 0.962560 0.229175
vn -0.144767 0.962560 0.229175
vn 0.411767 -0.187525 0.891786
vn 0.411767 -0.187525 0.891786
vn 0.411767 -0.187525 0.891786
vn -0.233905 0.968537 -0.084998
vn -0.233905 0.968537 -0.084998
vn -0.233905 0.968537 -0.084998
vn -0.557302 0.714391 -0.423156
vn -0.557302 0.714391 -0.423155
vn -0.557302 0.714391 -0.423155
vn 0.435776 0.511137 0.740836
vn 0.435776 0.511138 0.740836
vn 0.435776 0.511138 0.740836
vn 0.177226 0.983304 -0.041294
vn 0.177226 0.983304 -0.041294
vn 0.177226 0.983304 -0.041294
vn 0.526038 0.638654 -0.561610
vn 0.526038 0.638654 -0.561610
vn 0.526038 0.638654 -0.561610
vn 0.526038 0.638654 -0.561610
vn 0.547380 -0.816940 -0.181616
vn 0.547380 -0.816940 -0.181616
vn 0.547380 -0.816940 -0.181616
vn 0.786141 0.617848 -0.015693
vn 0.786141 0.617848 -0.015693
vn 0.786141 0.617848 -0.015693
vn 0.786141 0.617848 -0.015693
vn -0.868700 0.494939 -0.019905
vn -0.868700 0.494939 -0.019905
vn -0.868700 0.494939 -0.019905
vn -0.868700 0.494939 -0.019905
vn 0.424984 0.195324 0.883877
vn 0.424984 0.195324 0.883876
vn 0.424984 0.195324 0.883876
vn 0.424984 0.195324 0.883876
vn 0.726352 0.686440 -0.034836
vn 0.726352 0.686440 -0.034836
vn 0.726352 0.686440 -0.034836
vn 0.726352 0.686440 -0.034836
vn 0.598679 0.381357 -0.704379
vn 0.598679 0.381357 -0.704379
vn 0.598679 0.381357 -0.704379
vn 0.598679 0.381357 -0.704379
vn -0.947689 -0.264094 -0.179274
vn -0.947689 -0.264094 -0.179274
vn -0.947689 -0.264094 -0.179274
vn -0.405306 -0.147724 -0.902167
vn -0.405306 -0.147724 -0.902167
vn -0.405306 -0.147724 -0.902167
vn -0.405306 -0.147724 -0.902167
vn -0.366558 0.252843 -0.895380
vn -0.366558 0.252843 -0.895380
vn -0.366558 0.252843 -0.895380
vn -0.247407 0.967009 0.060688
vn -0.247407 0.967009 0.060688
vn -0.247407 0.967009 0.060688
vn -0.247407 0.967009 0.060688
vn -0.293931 0.542082 0.787243
vn -0.293931 0.542082 0.787243
vn -0.293931 0.542082 0.787243
vn -0.293931 0.542082 0.787243
vn -0.225894 -0.059907 0.972308
vn -0.225894 -0.059907 0.972308
vn -0.225894 -0.059907 0.972308
vn -0.225894 -0.059907 0.972308
vn -0.287346 -0.160060 -0.944359
vn -0.287346 -0.160060 -0.944359
vn -0.287346 -0.160060 -0.944359
vn -0.287346 -0.160060 -0.944359
vn -0.665432 0.603734 -0.438982
vn -0.665432 0.603734 -0.438982
vn -0.665432 0.603734 -0.438982
vn -0.310452 0.253712 -0.916106
vn -0.310452 0.253712 -0.916106
vn -0.310452 0.253712 -0.916106
vn 0.183429 -0.961463 -0.204801
vn 0.183429 -0.961463 -0.204801
vn 0.183429 -0.961463 -0.204800
vn 0.630499 -0.775946 0.019471
vn 0.630499 -0.775946 0.019471
vn 0.630499 -0.775946 0.019471
vn 0.630499 -0.775946 0.019471
vn -0.899344 -0.238500 0.366467
vn -0.899344 -0.238500 0.366467
vn -0.899344 -0.238500 0.366467
vn -0.867814 0.476389 0.141255
vn -0.867814 0.476389 0.141255
vn -0.867814 0.476389 0.141255
vn -0.845688 -0.533366 0.018240
vn -0.845688 -0.533366 0.018240
vn -0.845688 -0.533366 0.018240
vn -0.023301 -0.999723 0.003362
vn -0.023301 -0.999723 0.003362
vn -0.023301 -0.999723 0.003362
vn -0.023301 -0.999723 0.003362
vn -0.136626 -0.989127 -0.054412
vn -0.136626 -0.989127 -0.054412
vn -0.136626 -0.989127 -0.054412
vn -0.022366 -0.999240 -0.031916
vn -0.022366 -0.999240 -0.031916
vn -0.022366 -0.999240 -0.031916
vn 0.895292 -0.439281 -0.074061
vn 0.895292 -0.439281 -0.074061
vn 0.895292 -0.439281 -0.074061
vn 0.728099 0.101424 0.677927
vn 0.728099 0.101424 0.677927
vn 0.728099 0.101424 0.677927
vn 0.728099 0.101424 0.677927
vn -0.140200 0.956081 -0.257396
vn -0.140200 0.956081 -0.257396
vn -0.140200 0.956081 -0.257396
vn -0.132697 0.972809 -0.189827
vn -0.132697 0.972809 -0.189827
vn -0.132697 0.972809 -0.189827
vn 0.410112 0.103623 -0.906129
vn 0.410112 0.103623 -0.906129
vn 0.410112 0.103623 -0.906129
vn 0.484887 0.156963 0.860376
vn 0.484887 0.156963 0.860376
vn 0.484887 0.156963 0.860376
vn 0.459943 0.875465 -0.148372
vn 0.459943 0.875465 -0.148372
vn 0.459943 0.875464 -0.148372
vn -0.034944 0.967263 -0.251359
vn -0.034944 0.967263 -0.251359
vn -0.034944 0.967263 -0.251359
vn -0.034944 0.967263 -0.251359
vn 0.469538 0.141375 0.871520
vn 0.469538 0.141375 0.871520
vn 0.469538 0.141375 0.871520
vn 0.430001 0.160293 -0.888485
vn 0.430001 0.160293 -0.888485
vn 0.430001 0.160293 -0.888485
vn 0.003550 -0.999035 -0.043784
vn 0.003550 -0.999035 -0.043784
vn 0.003550 -0.999035 -0.043784
vn 0.003550 -0.999035 -0.043784
vn 0.169337 0.440959 0.881408
vn 0.169337 0.440958 0.881408
vn 0.169337 0.440959 0.881408
vn 0.062485 0.991973 -0.109931
vn 0.062485 0.991973 -0.109931
vn 0.062485 0.991973 -0.109931
vn -0.977625 0.053393 -0.203466
vn -0.977625 0.053393 -0.203466
vn -0.977625 0.053393 -0.203466
vn -0.977625 0.053393 -0.203466
vn -0.869671 0.158315 -0.467556
vn -0.869671 0.158315 -0.467556
vn -0.869671 0.158315 -0.467556
vn -0.140339 0.981508 0.130183
vn -0.140339 0.981508 0.130183
vn -0.140339 0.981508 0.130183
vn -0.140339 0.981508 0.130183
vn -0.360279 0.244976 -0.900103
vn -0.360279 0.244976 -0.900103
vn -0.360279 0.244976 -0.900103
vn -0.360279 0.244976 -0.900103
vn -0.002847 -0.999861 -0.016402
vn -0.002847 -0.999861 -0.016402
vn -0.002847 -0.999861 -0.016402
vn -0.002847 -0.999861 -0.016402
vn -0.023336 -0.999606 -0.015586
vn -0.023336 -0.999606 -0.015586
vn -0.023336 -0.999606 -0.015586
vn -0.023336 -0.999606 -0.015586
vn -0.314729 0.198525 0.928188
vn -0.314729 0.198525 0.928188
vn -0.314729 0.198525 0.928188
vn -0.314729 0.198525 0.928189
vn -0.944193 0.092411 0.316165
vn -0.944193 0.092411 0.316165
vn -0.944193 0.092411 0.316165
vn -0.944193 0.092411 0.316165
vn -0.181748 0.973212 0.140803
vn -0.181748 0.973212 0.140803
vn -0.181748 0.973212 0.140803
vn -0.181748 0.973212 0.140803
vn -0.962934 0.262437 0.062333
vn -0.962934 0.262437 0.062333
vn -0.962934 0.262437 0.062333
vn -0.962934 0.262437 0.062333
vn -0.780402 0.625081 0.015696
vn -0.780402 0.625081 0.015696
vn -0.780402 0.625081 0.015696
vn 0.856982 0.095443 -0.506431
vn 0.856982 0.095443 -0.506431
vn 0.856982 0.095443 -0.506431
vn 0.856982 0.095443 -0.506431
vn 0.505557 0.473253 0.721418
vn 0.505557 0.473253 0.721418
vn 0.505557 0.473253 0.721418
s off
f 6/1/1 9/5/2 5/2/3
f 8/3/4 3/7/5 4/8/6
f 7/9/7 9/5/8 6/1/9
f 9/5/10 1/10/11 2/6/12
f 7/9/13 1/10/14 9/5/15
f 9/5/16 2/6/17 3/7/18 8/3/19
f 9/5/20 8/3/21 10/4/22
f 5/2/23 9/5/24 10/4/25
f 8/3/26 11/11/27 10/4/28
f 7/9/29 6/1/30 5/2/31 1/10/32
f 2/6/33 1/10/34 5/2/35 10/4/36
f 3/7/37 2/6/38 10/4/39 11/11/40
f 4/8/41 3/7/42 11/11/43
f 8/3/44 4/8/45 11/11/46
f 26/12/47 27/13/48 32/14/49
f 25/15/50 26/12/51 32/14/52
f 24/16/53 25/15/54 16/17/55
f 18/18/56 30/19/57 23/20/58
f 21/21/59 31/22/60 14/23/61 15/24/62
f 27/13/63 22/25/64 13/26/65 20/27/66
f 13/26/67 18/28/68 16/17/69 20/27/70
f 18/28/71 24/16/72 16/17/73
f 17/29/74 31/22/75 21/21/76
f 28/30/77 29/31/78 24/16/79 23/32/80
f 29/31/81 25/15/82 24/16/83
f 14/23/84 26/12/85 25/15/86 15/24/87
f 14/23/88 27/13/89 26/12/90
f 12/33/91 22/25/92 27/13/93 19/34/94
f 21/21/95 29/31/96 28/30/97 17/35/98
f 15/24/99 25/15/100 21/21/101
f 21/21/102 25/15/103 29/31/104
f 30/19/105 28/30/106 23/20/107
f 22/36/108 30/19/109 18/18/110 13/37/111
f 31/22/112 12/38/113 19/34/114
f 14/23/115 31/22/116 19/34/117
f 17/29/118 12/38/119 31/22/120
f 12/39/121 28/30/122 30/19/123 22/36/124
f 17/35/125 28/30/126 12/39/127
f 20/27/128 16/17/129 32/14/130
f 25/15/131 32/14/132 16/17/133
f 23/32/134 24/16/135 18/28/136
f 32/14/137 27/13/138 20/27/139
f 19/34/140 27/13/141 14/23/142
f 48/40/143 49/41/144 41/42/145
f 47/43/146 48/40/147 37/44/148
f 46/45/149 47/43/150 37/44/151 42/46/152
f 39/47/153 52/48/154 45/49/155
f 41/42/156 42/46/157 37/44/158 48/40/159
f 43/50/160 53/51/161 35/52/162 36/53/163
f 49/41/164 44/54/165 34/55/166 41/42/167
f 34/55/168 39/47/169 42/46/170 41/42/171
f 45/56/172 46/45/173 42/46/174 39/47/175
f 38/57/176 53/51/177 43/50/178
f 50/58/179 51/59/180 46/45/181 45/56/182
f 51/59/183 47/43/184 46/45/185
f 35/52/186 48/40/187 47/43/188 36/53/189
f 40/60/190 49/41/191 48/40/192 35/52/193
f 33/61/194 44/54/195 49/41/196 40/60/197
f 43/50/198 51/59/199 50/58/200 38/57/201
f 36/53/202 47/43/203 43/50/204
f 43/50/205 47/43/206 51/59/207
f 52/48/208 50/62/209 45/49/210
f 44/63/211 52/48/212 39/47/213 34/55/214
f 53/51/215 33/61/216 40/60/217
f 35/52/218 53/51/219 40/60/220
f 38/57/221 33/61/222 53/51/223
f 33/64/224 50/62/225 52/48/226 44/63/227
f 38/65/228 50/62/229 33/64/230
f 55/66/231 62/67/232 63/68/233
f 57/69/234 55/66/235 56/70/236
f 59/71/237 55/66/238 57/69/239 60/72/240
f 58/73/241 64/74/242 61/75/243
f 59/71/244 61/75/245 64/74/246
f 61/76/247 56/77/248 58/78/249
f 55/66/250 54/79/251 65/80/252
f 61/75/253 59/71/254 60/72/255
f 54/79/256 59/71/257 64/74/258 66/81/259
f 54/79/260 55/66/261 59/71/262
f 58/78/263 56/77/264 67/82/265
f 63/68/266 67/83/267 56/70/268 55/66/269
f 68/84/270 65/80/271 54/79/272
f 66/81/273 68/84/274 54/79/275
f 72/85/276 74/86/277 69/87/278 71/88/279
f 75/89/280 66/90/281 64/91/282
f 74/86/283 75/89/284 58/92/285 69/87/286
f 58/78/287 67/82/288 71/93/289 69/94/290
f 67/83/291 63/68/292 72/95/293 71/96/294
f 63/68/295 62/67/296 73/97/297 72/95/298
f 62/67/299 65/80/300 70/98/301 73/99/302
f 70/98/303 74/86/304 72/85/305 73/99/306
f 65/80/307 75/89/308 74/86/309 70/98/310
f 65/80/311 68/84/312 66/90/313 75/89/314
f 75/89/315 64/91/316 58/92/317
f 57/69/318 56/77/319 61/76/320 60/72/321
f 55/66/322 65/80/323 62/67/324
