# This file uses centimeters as units for non-parametric coordinates.

v 12.678221 3.711692 -30.607929
v -12.678223 3.711692 -30.607931
v -30.607927 3.711692 -12.678225
v -30.607933 3.711692 12.678219
v -12.678225 3.711692 30.607925
v 12.678215 3.711692 30.607929
v 30.607922 3.711692 12.678221
v 30.607927 3.711692 -12.678221
v 6.864579 0.000000 -16.572556
v -6.864583 0.000000 -16.572554
v -16.572557 0.000000 -6.864573
v -16.572561 0.000000 6.864580
v -6.864581 0.000000 16.572559
v 6.864575 0.000000 16.572559
v 16.572559 0.000000 6.864581
v 16.572569 0.000000 -6.864578
v -12.047825 7.715240 -29.086010
v 12.047819 7.715239 -29.086006
v -29.086006 7.715238 -12.047823
v -29.086014 7.715240 12.047817
v -12.047827 7.715240 29.086006
v 12.047817 7.715240 29.086006
v 29.085997 7.715240 12.047825
v 29.086012 7.715240 -12.047819
v -6.838242 4.155680 -16.508957
v 6.838237 4.155680 -16.508965
v -16.508963 4.155680 -6.838233
v -16.508965 4.155680 6.838238
v -6.838240 4.155680 16.508963
v 6.838234 4.155680 16.508963
v 16.508963 4.155680 6.838240
v 16.508972 4.155680 -6.838238
v 34.176655 6.768319 -14.156435
v 14.156430 6.768319 -34.176651
v -14.156437 6.768319 -34.176651
v -34.176655 6.768319 -14.156435
v -34.176655 6.768319 14.156433
v -14.156441 6.768319 34.176651
v 14.156430 6.768319 34.176659
v 34.176651 6.768319 14.156436
v 14.623685 8.637980 -35.304710
v 14.245536 9.731682 -34.391785
v -14.245544 9.731682 -34.391773
v -14.623693 8.637981 -35.304707
v -34.391785 9.731682 -14.245541
v -35.304710 8.637980 -14.623689
v -34.391781 9.731682 14.245540
v -35.304707 8.637981 14.623689
v -14.245546 9.731682 34.391773
v -14.623695 8.637981 35.304707
v 14.245539 9.731682 34.391785
v 14.623686 8.637980 35.304714
v 34.391773 9.731683 14.245545
v 35.304703 8.637981 14.623693
v 34.391785 9.731682 -14.245544
v 35.304710 8.637980 -14.623692
vt 0.515528 0.421740
vt 0.515724 0.421806
vt 0.515417 0.421486
vt 0.515434 0.421182
vt 0.515574 0.420973
vt 0.515776 0.420987
vt 0.515919 0.421253
vt 0.515895 0.421609
vt 0.515614 0.421576
vt 0.515720 0.421605
vt 0.515550 0.421438
vt 0.515560 0.421269
vt 0.515639 0.421158
vt 0.515748 0.421172
vt 0.515821 0.421313
vt 0.515809 0.421497
vt 0.515744 0.421823
vt 0.515540 0.421754
vt 0.515424 0.421489
vt 0.515442 0.421174
vt 0.515588 0.420957
vt 0.515799 0.420970
vt 0.515950 0.421247
vt 0.515925 0.421619
vt 0.525790 0.474041
vt 0.525791 0.474048
vt 0.525795 0.474051
vt 0.525798 0.474047
vt 0.525800 0.474038
vt 0.525791 0.474034
vt 0.525797 0.474031
vt 0.525794 0.474029
vt 0.515917 0.421640
vt 0.515723 0.421859
vt 0.515506 0.421782
vt 0.515383 0.421498
vt 0.515402 0.421160
vt 0.515556 0.420926
vt 0.515782 0.420937
vt 0.515944 0.421236
vt 0.525802 0.474020
vt 0.525797 0.474030
vt 0.525793 0.474029
vt 0.525794 0.474020
vt 0.525790 0.474034
vt 0.525789 0.474029
vt 0.525789 0.474041
vt 0.525787 0.474042
vt 0.525791 0.474048
vt 0.525790 0.474055
vt 0.525794 0.474051
vt 0.525796 0.474061
vt 0.525797 0.474047
vt 0.525804 0.474055
vt 0.525799 0.474038
vt 0.525807 0.474036
vt 0.525579 0.474070
vt 0.525584 0.474066
vt 0.525582 0.474068
vt 0.525586 0.474075
vt 0.525585 0.474076
vt 0.525587 0.474087
vt 0.525585 0.474087
vt 0.525586 0.474098
vt 0.525584 0.474097
vt 0.525583 0.474106
vt 0.525582 0.474103
vt 0.525579 0.474101
vt 0.525578 0.474099
vt 0.525577 0.474083
vt 0.525580 0.474067
vt 0.525577 0.474083
vt 0.525583 0.474066
vt 0.525579 0.474066
vt 0.525585 0.474075
vt 0.525583 0.474066
vt 0.525586 0.474087
vt 0.525586 0.474075
vt 0.525585 0.474098
vt 0.525587 0.474087
vt 0.525582 0.474105
vt 0.525586 0.474099
vt 0.525578 0.474101
vt 0.525583 0.474106
vt 0.525576 0.474083
vt 0.525579 0.474102
vt 0.525579 0.474067
vt 0.525577 0.474083
vn 0.000000 0.962206 0.272324
vn 0.000000 0.962206 0.272324
vn 0.000000 0.962206 0.272324
vn 0.000000 0.962206 0.272324
vn 0.192562 0.962206 0.192562
vn 0.192562 0.962206 0.192562
vn 0.192562 0.962206 0.192562
vn 0.192562 0.962206 0.192562
vn 0.272324 0.962206 0.000000
vn 0.272324 0.962206 0.000000
vn 0.272324 0.962206 0.000000
vn 0.272324 0.962206 0.000000
vn 0.192562 0.962206 -0.192562
vn 0.192562 0.962206 -0.192562
vn 0.192562 0.962206 -0.192562
vn 0.192562 0.962206 -0.192562
vn 0.000000 0.962206 -0.272324
vn 0.000000 0.962206 -0.272324
vn 0.000000 0.962206 -0.272324
vn 0.000000 0.962206 -0.272324
vn -0.192562 0.962206 -0.192562
vn -0.192562 0.962206 -0.192562
vn -0.192562 0.962206 -0.192562
vn -0.192562 0.962206 -0.192562
vn -0.272324 0.962206 -0.000000
vn -0.272324 0.962206 -0.000000
vn -0.272324 0.962206 -0.000000
vn -0.272324 0.962206 -0.000000
vn -0.192562 0.962206 0.192562
vn -0.192562 0.962206 0.192562
vn -0.192562 0.962206 0.192562
vn -0.192562 0.962206 0.192562
vn 0.000000 1.000000 0.000000
vn 0.000000 1.000000 0.000000
vn 0.000000 1.000000 0.000000
vn 0.000000 1.000000 0.000000
vn 0.000000 1.000000 -0.000000
vn 0.000000 1.000000 -0.000000
vn 0.000000 1.000000 -0.000000
vn 0.000000 1.000000 -0.000000
vn 0.000000 1.000000 -0.000000
vn 0.000000 1.000000 -0.000000
vn 0.000000 1.000000 -0.000000
vn 0.000000 1.000000 -0.000000
vn 0.000000 -0.966766 -0.255664
vn 0.000000 -0.966766 -0.255664
vn 0.000000 -0.966766 -0.255664
vn 0.000000 -0.966766 -0.255664
vn -0.180782 -0.966766 -0.180782
vn -0.180782 -0.966766 -0.180782
vn -0.180782 -0.966766 -0.180782
vn -0.180782 -0.966766 -0.180782
vn -0.255664 -0.966766 -0.000000
vn -0.255664 -0.966766 -0.000000
vn -0.255664 -0.966766 -0.000000
vn -0.255664 -0.966766 -0.000000
vn -0.180782 -0.966766 0.180782
vn -0.180782 -0.966766 0.180782
vn -0.180782 -0.966766 0.180782
vn -0.180782 -0.966766 0.180782
vn -0.000000 -0.966766 0.255664
vn -0.000000 -0.966766 0.255664
vn -0.000000 -0.966766 0.255664
vn -0.000000 -0.966766 0.255664
vn 0.180782 -0.966766 0.180782
vn 0.180782 -0.966766 0.180782
vn 0.180782 -0.966766 0.180782
vn 0.180782 -0.966766 0.180782
vn 0.255664 -0.966766 0.000000
vn 0.255664 -0.966766 0.000000
vn 0.255664 -0.966766 0.000000
vn 0.255664 -0.966766 0.000000
vn 0.180782 -0.966766 -0.180782
vn 0.180782 -0.966766 -0.180782
vn 0.180782 -0.966766 -0.180782
vn 0.180782 -0.966766 -0.180782
vn 0.000000 -1.000000 0.000000
vn 0.000000 -1.000000 0.000000
vn 0.000000 -1.000000 0.000000
vn 0.000000 -1.000000 0.000000
vn 0.000000 -1.000000 0.000000
vn 0.000000 -1.000000 0.000000
vn 0.000000 -1.000000 0.000000
vn 0.000000 -1.000000 0.000000
vn 0.000000 -1.000000 -0.000000
vn 0.000000 -1.000000 -0.000000
vn 0.000000 -1.000000 -0.000000
vn 0.000000 -1.000000 -0.000000
vn 0.459981 -0.759496 -0.459981
vn 0.459981 -0.759496 -0.459981
vn 0.459981 -0.759496 -0.459981
vn 0.459981 -0.759496 -0.459982
vn 0.000000 -0.759496 -0.650512
vn 0.000000 -0.759496 -0.650512
vn 0.000000 -0.759496 -0.650512
vn 0.000000 -0.759496 -0.650512
vn -0.459981 -0.759496 -0.459981
vn -0.459981 -0.759496 -0.459981
vn -0.459981 -0.759496 -0.459981
vn -0.459981 -0.759496 -0.459981
vn -0.650512 -0.759496 -0.000000
vn -0.650512 -0.759496 -0.000000
vn -0.650512 -0.759496 -0.000000
vn -0.650512 -0.759496 -0.000000
vn -0.459981 -0.759496 0.459981
vn -0.459981 -0.759496 0.459981
vn -0.459981 -0.759496 0.459981
vn -0.459981 -0.759496 0.459981
vn -0.000000 -0.759497 0.650511
vn -0.000000 -0.759497 0.650511
vn -0.000000 -0.759497 0.650511
vn -0.000000 -0.759497 0.650511
vn 0.459981 -0.759497 0.459981
vn 0.459981 -0.759497 0.459981
vn 0.459981 -0.759497 0.459981
vn 0.459981 -0.759497 0.459981
vn 0.650512 -0.759496 0.000000
vn 0.650512 -0.759496 0.000000
vn 0.650512 -0.759496 0.000000
vn 0.650512 -0.759496 0.000000
vn 0.542847 0.640809 -0.542846
vn 0.542847 0.640809 -0.542846
vn 0.542847 0.640809 -0.542846
vn 0.542847 0.640809 -0.542846
vn -0.000000 0.640810 -0.767699
vn -0.000000 0.640810 -0.767699
vn -0.000000 0.640810 -0.767699
vn -0.000000 0.640810 -0.767699
vn -0.542845 0.640810 -0.542845
vn -0.542845 0.640810 -0.542845
vn -0.542845 0.640810 -0.542845
vn -0.542845 0.640810 -0.542845
vn -0.767701 0.640808 0.000000
vn -0.767701 0.640808 0.000000
vn -0.767701 0.640808 0.000000
vn -0.767701 0.640808 0.000000
vn -0.542845 0.640812 0.542845
vn -0.542845 0.640812 0.542845
vn -0.542845 0.640812 0.542845
vn -0.542845 0.640812 0.542845
vn -0.000000 0.640811 0.767699
vn -0.000000 0.640811 0.767699
vn -0.000000 0.640811 0.767699
vn -0.000000 0.640811 0.767699
vn 0.542846 0.640810 0.542845
vn 0.542846 0.640810 0.542845
vn 0.542846 0.640810 0.542845
vn 0.542846 0.640810 0.542845
vn 0.767700 0.640810 0.000000
vn 0.767700 0.640810 0.000000
vn 0.767700 0.640810 0.000000
vn 0.767700 0.640810 0.000000
vn 0.000000 0.934769 0.355256
vn 0.000000 0.934769 0.355256
vn 0.000000 0.934769 0.355256
vn 0.000000 0.934769 0.355256
vn 0.251204 0.934769 0.251204
vn 0.251204 0.934769 0.251204
vn 0.251204 0.934769 0.251204
vn 0.251204 0.934769 0.251204
vn 0.355256 0.934769 0.000000
vn 0.355256 0.934769 0.000000
vn 0.355256 0.934769 0.000000
vn 0.355256 0.934769 0.000000
vn 0.251204 0.934769 -0.251204
vn 0.251204 0.934769 -0.251204
vn 0.251204 0.934769 -0.251204
vn 0.251204 0.934769 -0.251204
vn 0.000000 0.934769 -0.355256
vn 0.000000 0.934769 -0.355256
vn 0.000000 0.934769 -0.355256
vn 0.000000 0.934769 -0.355256
vn -0.251204 0.934769 -0.251204
vn -0.251204 0.934769 -0.251204
vn -0.251204 0.934769 -0.251204
vn -0.251204 0.934769 -0.251204
vn -0.355256 0.934769 -0.000000
vn -0.355256 0.934769 -0.000000
vn -0.355256 0.934769 -0.000000
vn -0.355256 0.934769 -0.000000
vn -0.251204 0.934769 0.251204
vn -0.251204 0.934769 0.251204
vn -0.251204 0.934769 0.251204
vn -0.251204 0.934769 0.251204
vn -0.000000 -0.516602 -0.856226
vn -0.000000 -0.516602 -0.856225
vn -0.000000 -0.516602 -0.856225
vn -0.000000 -0.516602 -0.856226
vn -0.605443 -0.516602 -0.605443
vn -0.605443 -0.516602 -0.605443
vn -0.605443 -0.516602 -0.605443
vn -0.605443 -0.516602 -0.605443
vn -0.856226 -0.516602 0.000000
vn -0.856226 -0.516602 0.000000
vn -0.856226 -0.516602 0.000000
vn -0.856226 -0.516602 0.000000
vn -0.605443 -0.516601 0.605443
vn -0.605443 -0.516601 0.605443
vn -0.605443 -0.516601 0.605443
vn -0.605443 -0.516601 0.605443
vn -0.000000 -0.516602 0.856226
vn -0.000000 -0.516602 0.856226
vn -0.000000 -0.516602 0.856226
vn -0.000000 -0.516602 0.856226
vn 0.605443 -0.516602 0.605443
vn 0.605443 -0.516602 0.605443
vn 0.605443 -0.516602 0.605443
vn 0.605443 -0.516602 0.605443
vn 0.856226 -0.516602 0.000000
vn 0.856226 -0.516602 0.000000
vn 0.856226 -0.516602 0.000000
vn 0.856226 -0.516602 0.000000
vn 0.605443 -0.516602 -0.605443
vn 0.605443 -0.516602 -0.605443
vn 0.605443 -0.516602 -0.605443
vn 0.605443 -0.516602 -0.605443
s off
f 18/2/1 17/1/2 25/9/3 26/10/4
f 17/1/5 19/3/6 27/11/7 25/9/8
f 19/3/9 20/4/10 28/12/11 27/11/12
f 20/4/13 21/5/14 29/13/15 28/12/16
f 21/5/17 22/6/18 30/14/19 29/13/20
f 22/6/21 23/7/22 31/15/23 30/14/24
f 23/7/25 24/8/26 32/16/27 31/15/28
f 24/8/29 18/2/30 26/10/31 32/16/32
f 28/25/33 29/26/34 30/27/35 31/28/36
f 28/25/37 31/28/38 32/29/39 27/30/40
f 27/30/41 32/29/42 26/31/43 25/32/44
f 1/41/45 9/42/46 10/43/47 2/44/48
f 2/44/49 10/43/50 11/45/51 3/46/52
f 3/46/53 11/45/54 12/47/55 4/48/56
f 4/48/57 12/47/58 13/49/59 5/50/60
f 5/50/61 13/49/62 14/51/63 6/52/64
f 6/52/65 14/51/66 15/53/67 7/54/68
f 7/54/69 15/53/70 16/55/71 8/56/72
f 8/56/73 16/55/74 9/42/75 1/41/76
f 12/47/77 15/53/78 14/51/79 13/49/80
f 12/47/81 11/45/82 16/55/83 15/53/84
f 11/45/85 10/43/86 9/42/87 16/55/88
f 33/33/89 8/24/90 1/17/91 34/34/92
f 35/35/93 34/34/94 1/17/95 2/18/96
f 36/36/97 35/35/98 2/18/99 3/19/100
f 37/37/101 36/36/102 3/19/103 4/20/104
f 38/38/105 37/37/106 4/20/107 5/21/108
f 39/39/109 38/38/110 5/21/111 6/22/112
f 40/40/113 39/39/114 6/22/115 7/23/116
f 33/33/117 40/40/118 7/23/119 8/24/120
f 41/74/121 42/71/122 55/70/123 56/88/124
f 42/71/125 41/74/126 44/76/127 43/58/128
f 43/58/129 44/76/130 46/78/131 45/60/132
f 45/60/133 46/78/134 48/80/135 47/62/136
f 47/62/137 48/80/138 50/82/139 49/64/140
f 49/64/141 50/82/142 52/84/143 51/66/144
f 51/66/145 52/84/146 54/86/147 53/68/148
f 53/68/149 54/86/150 56/88/151 55/70/152
f 17/59/153 18/57/154 42/71/155 43/58/156
f 19/61/157 17/59/158 43/58/159 45/60/160
f 20/63/161 19/61/162 45/60/163 47/62/164
f 21/65/165 20/63/166 47/62/167 49/64/168
f 22/67/169 21/65/170 49/64/171 51/66/172
f 23/69/173 22/67/174 51/66/175 53/68/176
f 24/72/177 23/69/178 53/68/179 55/70/180
f 42/71/181 18/57/182 24/72/183 55/70/184
f 35/73/185 44/76/186 41/74/187 34/87/188
f 36/75/189 46/78/190 44/76/191 35/73/192
f 37/77/193 48/80/194 46/78/195 36/75/196
f 38/79/197 50/82/198 48/80/199 37/77/200
f 39/81/201 52/84/202 50/82/203 38/79/204
f 40/83/205 54/86/206 52/84/207 39/81/208
f 33/85/209 56/88/210 54/86/211 40/83/212
f 34/87/213 41/74/214 56/88/215 33/85/216
