# This file uses centimeters as units for non-parametric coordinates.

v -4.334961 6.001140 -12.581070
v 22.027832 6.761500 -9.369751
v -15.530396 6.781661 -10.001083
v -21.796021 6.618236 -6.271149
v -21.407410 6.603492 14.204422
v 12.201172 3.855834 13.613678
v 24.298340 6.618236 9.860413
v 33.411499 0.712310 -3.030579
v 33.907532 0.712302 18.753754
v 29.530396 0.712291 24.410889
v -27.131104 0.712291 24.802765
v -31.949585 0.712302 17.771271
v -33.907532 0.712306 -17.953903
v -28.626099 0.712302 -24.802734
v -8.861877 0.712291 -24.802750
v 28.151367 0.712302 -24.802765
v 32.990967 0.712306 -20.797180
v 3.610840 6.831222 -3.009308
v 4.881592 5.189082 6.258286
v -14.321777 5.789435 16.549301
v -8.410156 8.692451 6.258286
v -2.913330 5.152064 17.227814
v -4.668091 8.233031 13.783081
v 2.818420 7.787833 18.783569
v 6.373413 7.733429 13.555603
v -1.791077 9.131167 9.267426
v 8.252136 3.868410 12.964813
v -2.451721 8.667693 17.712830
v -6.907654 4.530359 13.480377
v 4.251221 9.275355 9.859222
v -4.073669 0.508270 18.170349
v 0.597839 9.809383 14.233856
v 5.194885 3.209816 7.722214
v 3.229553 0.000000 19.525970
v -2.766541 5.082969 7.127563
v 16.480225 8.158123 -11.235641
v 25.089417 8.244157 -10.632431
v 25.553406 5.799859 -16.151123
v 16.692505 6.908444 -16.277039
v 26.945618 1.891316 -15.960480
v 20.178467 9.525690 -9.422516
v 14.585693 5.178233 -9.048843
v 21.986389 6.231463 -18.585205
v 19.289734 2.794451 -5.234467
v 21.071655 8.774126 -13.974609
v 22.023743 1.289447 -18.744415
v 26.013245 1.598223 -7.279602
v 14.982971 2.780709 -15.911499
v -7.736877 9.554678 -4.945343
v 1.172913 10.647652 -5.765717
v 0.841187 9.194831 -11.909958
v -8.351196 9.203996 -10.328186
v 2.677979 5.350310 -12.724030
v -3.744446 11.105952 -3.462585
v -8.973755 5.878076 -3.003784
v -3.307983 9.607985 -13.687225
v -3.212830 3.372961 -0.407349
v -3.737549 11.267991 -8.259644
v -2.822876 4.595558 -14.831787
v 3.392090 3.384716 -3.843338
v -9.632080 4.703731 -10.487152
v 19.886353 8.897832 10.875275
v 27.925232 7.310449 10.341019
v 27.596924 7.323672 4.590851
v 19.589172 9.781160 6.018082
v 28.106689 3.694195 3.113388
v 23.683472 8.736941 12.489441
v 17.628418 5.817138 11.888702
v 24.256409 9.237175 3.097931
v 22.452698 4.421140 13.900772
v 24.126465 9.701136 8.342514
v 23.282410 5.090191 1.101318
v 28.354553 3.095764 10.832642
v 17.183350 6.409366 5.001801
v -24.549988 9.803648 5.712494
v -17.145081 10.623358 10.598572
v -14.232422 11.262709 3.851044
v -22.434814 9.166776 1.006866
v -11.632141 8.100547 4.551331
v -22.307922 9.968196 10.224609
v -25.777161 3.906579 8.983582
v -16.833069 10.618637 0.436920
v -21.862427 5.269070 12.412567
v -19.989868 12.226067 4.322281
v -14.951782 6.045846 0.416794
v -14.884216 6.720500 12.540863
v -22.548157 4.686129 0.934860
v 6.040771 7.677341 3.598358
v 14.049194 8.954524 3.209076
v 13.885132 8.568000 -2.470032
v 5.583679 8.151004 -1.247192
v 15.643250 5.312113 -3.724579
v 9.573914 8.918192 5.224457
v 4.982910 4.098382 4.755005
v 10.169006 9.112329 -4.070541
v 10.186279 1.608009 6.806229
v 9.653198 9.731747 1.003784
v 10.743347 4.840073 -5.818253
v 16.188110 2.264761 3.887741
v 4.540039 4.150918 -2.079010
v -19.878845 6.611029 -13.564270
v -15.936890 8.395950 -8.372803
v -11.563354 7.843376 -12.158936
v -16.380127 6.928997 -17.101471
v -9.344666 4.651725 -11.395355
v -19.044556 8.209721 -10.093887
v -21.265564 2.916983 -13.212891
v -12.614929 8.043142 -15.920532
v -19.561829 0.877109 -7.898499
v -15.742798 8.940505 -12.913681
v -10.687744 3.707147 -16.226486
v -14.837830 1.798347 -5.734375
v -16.177917 2.757222 -17.996063
vt 0.229054 0.125969
vt 0.229951 0.111972
vt 0.229933 0.127657
vt 0.228169 0.111475
vt 0.229107 0.111197
vt 0.228441 0.144165
vt 0.227525 0.113017
vt 0.227994 0.126815
vt 0.227805 0.114518
vt 0.227416 0.107060
vt 0.227889 0.130322
vt 0.228115 0.143495
vt 0.228747 0.111783
vt 0.228735 0.115626
vt 0.229670 0.117448
vt 0.229429 0.121772
vt 0.230315 0.109908
vt 0.230441 0.127395
vt 0.229251 0.145009
vt 0.228466 0.128053
vt 0.228855 0.113529
vt 0.228141 0.112587
vt 0.228529 0.146499
vt 0.230187 0.144904
vt 0.229890 0.144827
vt 0.228630 0.146052
vt 0.227844 0.149932
vt 0.228223 0.149268
vt 0.229407 0.130264
vt 0.229005 0.152382
vt 0.230885 0.148446
vt 0.230440 0.151356
vt 0.230878 0.153170
vt 0.228969 0.154266
vt 0.231434 0.148972
vt 0.228485 0.143000
vt 0.230063 0.143751
vt 0.230221 0.145887
vt 0.229055 0.145524
vt 0.227609 0.146244
vt 0.228217 0.147468
vt 0.229438 0.130893
vt 0.228448 0.151327
vt 0.230480 0.150101
vt 0.229770 0.152389
vt 0.229626 0.152654
vt 0.227929 0.151429
vt 0.230648 0.149945
vt 0.229543 0.143718
vt 0.231176 0.145508
vt 0.230511 0.146580
vt 0.229238 0.145344
vt 0.228183 0.146045
vt 0.228383 0.147062
vt 0.229369 0.130985
vt 0.228408 0.151263
vt 0.230667 0.151429
vt 0.229708 0.153249
vt 0.230024 0.154300
vt 0.228290 0.151786
vt 0.231235 0.152059
vt 0.229023 0.145594
vt 0.230515 0.147350
vt 0.230332 0.147130
vt 0.229225 0.145808
vt 0.227920 0.147380
vt 0.228371 0.147410
vt 0.229428 0.130636
vt 0.228415 0.150939
vt 0.230435 0.151427
vt 0.229636 0.152678
vt 0.229582 0.154771
vt 0.227993 0.152400
vt 0.230684 0.152919
vt 0.228998 0.141185
vt 0.230684 0.141913
vt 0.230287 0.146170
vt 0.229007 0.145955
vt 0.227917 0.144855
vt 0.228272 0.147138
vt 0.229390 0.131142
vt 0.228576 0.150411
vt 0.230699 0.149457
vt 0.229928 0.151547
vt 0.230169 0.150203
vt 0.228391 0.149059
vt 0.231180 0.148120
vt 0.229532 0.144393
vt 0.230991 0.145970
vt 0.230428 0.146483
vt 0.229298 0.145370
vt 0.228328 0.146295
vt 0.228526 0.146968
vt 0.229414 0.130521
vt 0.228542 0.150678
vt 0.230556 0.150830
vt 0.229702 0.152400
vt 0.229958 0.153645
vt 0.228411 0.151418
vt 0.231047 0.151625
vt 0.228709 0.145101
vt 0.229708 0.143099
vt 0.229262 0.145321
vt 0.228571 0.146921
vt 0.228363 0.149262
vt 0.228536 0.149575
vt 0.229393 0.130786
vt 0.229451 0.151956
vt 0.230433 0.147782
vt 0.230277 0.150766
vt 0.230889 0.150582
vt 0.229684 0.152354
vt 0.231044 0.146879
vn 0.490833 0.869732 -0.051473
vn 0.490833 0.869732 -0.051473
vn 0.490833 0.869732 -0.051473
vn 0.049593 0.931529 0.360269
vn 0.049593 0.931529 0.360269
vn 0.049593 0.931529 0.360269
vn 0.049593 0.931529 0.360269
vn -0.051825 0.884493 0.463666
vn -0.051825 0.884493 0.463666
vn -0.051825 0.884493 0.463666
vn -0.397498 0.876239 0.272396
vn -0.397498 0.876239 0.272396
vn -0.397498 0.876239 0.272396
vn -0.467349 0.883853 0.019745
vn -0.467349 0.883853 0.019745
vn -0.467349 0.883853 0.019745
vn -0.467349 0.883853 0.019745
vn -0.217481 0.950318 -0.222706
vn -0.217481 0.950318 -0.222706
vn -0.217481 0.950318 -0.222706
vn -0.217481 0.950318 -0.222706
vn -0.008600 0.923837 -0.382691
vn -0.008600 0.923837 -0.382691
vn -0.008600 0.923837 -0.382691
vn -0.008600 0.923837 -0.382691
vn -0.000000 0.917753 -0.397151
vn -0.000000 0.917753 -0.397151
vn -0.000000 0.917753 -0.397151
vn 0.056892 0.936990 -0.344693
vn 0.056892 0.936990 -0.344693
vn 0.056892 0.936990 -0.344693
vn 0.056892 0.936990 -0.344693
vn 0.474090 0.880405 -0.011222
vn 0.474090 0.880405 -0.011222
vn 0.474090 0.880405 -0.011222
vn -0.020281 0.997365 -0.069658
vn -0.020281 0.997365 -0.069658
vn -0.020281 0.997365 -0.069658
vn 0.041407 0.991863 -0.120389
vn 0.041407 0.991863 -0.120389
vn 0.041407 0.991863 -0.120389
vn -0.130704 0.991120 -0.024439
vn -0.130704 0.991120 -0.024439
vn -0.130704 0.991120 -0.024439
vn -0.130704 0.991120 -0.024439
vn 0.017364 0.959643 0.280683
vn 0.017364 0.959644 0.280683
vn 0.017364 0.959643 0.280683
vn -0.124559 0.947146 0.295633
vn -0.124559 0.947146 0.295633
vn -0.124559 0.947146 0.295633
vn -0.030999 0.997316 0.066335
vn -0.030999 0.997316 0.066335
vn -0.030999 0.997316 0.066335
vn -0.030999 0.997316 0.066335
vn 0.047510 0.989420 -0.137081
vn 0.047510 0.989420 -0.137081
vn 0.047510 0.989420 -0.137081
vn 0.038554 0.918486 0.393571
vn 0.038554 0.918486 0.393571
vn 0.038554 0.918486 0.393571
vn 0.038554 0.918486 0.393571
vn 0.103419 0.991666 0.076835
vn 0.103419 0.991666 0.076835
vn 0.103419 0.991666 0.076835
vn 0.252532 0.958105 0.135141
vn 0.252532 0.958105 0.135141
vn 0.252532 0.958105 0.135141
vn 0.531691 0.846852 -0.012106
vn 0.531691 0.846852 -0.012106
vn 0.531691 0.846852 -0.012106
vn 0.154590 0.960244 0.232451
vn 0.154590 0.960244 0.232451
vn 0.154590 0.960244 0.232451
vn 0.154590 0.960244 0.232451
vn 0.014850 0.841203 0.540515
vn 0.014850 0.841203 0.540515
vn 0.014850 0.841203 0.540515
vn -0.179450 0.087354 0.979881
vn -0.179450 0.087354 0.979881
vn -0.179450 0.087354 0.979881
vn -0.179450 0.087354 0.979881
vn -0.781267 0.261725 0.566676
vn -0.781267 0.261725 0.566676
vn -0.781267 0.261725 0.566676
vn -0.781267 0.261725 0.566676
vn -0.288996 0.956863 0.029905
vn -0.288996 0.956863 0.029905
vn -0.288996 0.956863 0.029905
vn -0.288996 0.956863 0.029905
vn 0.078710 0.924707 0.372454
vn 0.078710 0.924707 0.372454
vn 0.078710 0.924707 0.372454
vn 0.352413 0.912291 0.208641
vn 0.352413 0.912291 0.208641
vn 0.352413 0.912291 0.208641
vn 0.352413 0.912291 0.208641
vn -0.010912 0.991435 -0.130142
vn -0.010912 0.991435 -0.130142
vn -0.010912 0.991435 -0.130142
vn 0.125101 0.386091 -0.913939
vn 0.125101 0.386091 -0.913939
vn 0.125101 0.386091 -0.913939
vn 0.125101 0.386091 -0.913939
vn 0.823542 0.355486 -0.442050
vn 0.823542 0.355486 -0.442050
vn 0.823542 0.355486 -0.442050
vn 0.823542 0.355486 -0.442050
vn 0.772894 0.159868 0.614066
vn 0.772894 0.159868 0.614066
vn 0.772894 0.159868 0.614066
vn 0.772894 0.159868 0.614066
vn -0.773129 0.458720 -0.438004
vn -0.773129 0.458720 -0.438004
vn -0.773129 0.458721 -0.438004
vn -0.773129 0.458721 -0.438004
vn 0.328953 0.464389 0.822273
vn 0.328953 0.464389 0.822273
vn 0.328953 0.464389 0.822273
vn 0.328953 0.464389 0.822273
vn -0.403674 0.580113 0.707472
vn -0.403674 0.580113 0.707472
vn -0.403674 0.580113 0.707472
vn -0.403674 0.580113 0.707472
vn -0.260655 0.938645 -0.225841
vn -0.260655 0.938645 -0.225841
vn -0.260655 0.938645 -0.225841
vn -0.260655 0.938645 -0.225841
vn 0.223988 0.967686 -0.115818
vn 0.223988 0.967686 -0.115818
vn 0.223988 0.967686 -0.115818
vn 0.385312 0.847595 -0.364852
vn 0.385312 0.847595 -0.364852
vn 0.385312 0.847595 -0.364852
vn 0.385312 0.847595 -0.364852
vn -0.106182 0.861659 -0.496256
vn -0.106182 0.861659 -0.496256
vn -0.106182 0.861659 -0.496256
vn -0.376998 0.048465 -0.924945
vn -0.376998 0.048465 -0.924945
vn -0.376998 0.048465 -0.924945
vn -0.376998 0.048465 -0.924945
vn 0.520761 0.081096 -0.849842
vn 0.520761 0.081096 -0.849842
vn 0.520761 0.081096 -0.849842
vn 0.520761 0.081096 -0.849842
vn 0.970577 0.233164 0.060121
vn 0.970577 0.233164 0.060121
vn 0.970577 0.233164 0.060121
vn 0.970577 0.233164 0.060121
vn -0.902240 0.397207 -0.167898
vn -0.902240 0.397207 -0.167898
vn -0.902240 0.397207 -0.167898
vn -0.902240 0.397207 -0.167898
vn 0.427866 0.354465 0.831435
vn 0.427866 0.354465 0.831435
vn 0.427866 0.354465 0.831435
vn 0.427866 0.354465 0.831435
vn -0.320945 0.396516 0.860098
vn -0.320945 0.396516 0.860098
vn -0.320945 0.396516 0.860098
vn -0.320945 0.396516 0.860098
vn -0.389454 0.921025 0.006171
vn -0.389454 0.921025 0.006171
vn -0.389454 0.921025 0.006171
vn -0.389454 0.921025 0.006171
vn 0.108390 0.993537 0.033716
vn 0.108390 0.993537 0.033716
vn 0.108390 0.993537 0.033716
vn 0.225833 0.941202 -0.251274
vn 0.225833 0.941202 -0.251274
vn 0.225833 0.941202 -0.251274
vn 0.225833 0.941202 -0.251274
vn -0.273690 0.913490 -0.301049
vn -0.273690 0.913490 -0.301049
vn -0.273690 0.913490 -0.301049
vn -0.540862 0.158440 -0.826054
vn -0.540862 0.158440 -0.826054
vn -0.540862 0.158440 -0.826054
vn -0.540862 0.158440 -0.826054
vn 0.348761 0.288614 -0.891666
vn 0.348761 0.288614 -0.891666
vn 0.348761 0.288614 -0.891666
vn 0.348761 0.288613 -0.891666
vn 0.939689 0.337758 -0.053882
vn 0.939689 0.337758 -0.053882
vn 0.939689 0.337758 -0.053882
vn 0.939689 0.337758 -0.053882
vn -0.950505 0.305280 0.057833
vn -0.950505 0.305280 0.057833
vn -0.950505 0.305280 0.057833
vn -0.950505 0.305280 0.057833
vn 0.483622 0.147042 0.862837
vn 0.483622 0.147042 0.862837
vn 0.483622 0.147042 0.862837
vn 0.483622 0.147042 0.862837
vn -0.287056 0.417956 0.861923
vn -0.287056 0.417956 0.861923
vn -0.287056 0.417956 0.861923
vn -0.287056 0.417956 0.861923
vn -0.066033 0.977663 0.199534
vn -0.066033 0.977663 0.199534
vn -0.066033 0.977663 0.199534
vn -0.066033 0.977663 0.199534
vn 0.419253 0.873382 0.247855
vn 0.419253 0.873382 0.247855
vn 0.419253 0.873382 0.247855
vn 0.531596 0.845841 -0.044267
vn 0.531596 0.845841 -0.044267
vn 0.531596 0.845841 -0.044267
vn 0.531596 0.845841 -0.044267
vn 0.061816 0.994338 -0.086432
vn 0.061816 0.994338 -0.086432
vn 0.061816 0.994338 -0.086432
vn -0.404030 0.490914 -0.771857
vn -0.404030 0.490914 -0.771857
vn -0.404030 0.490914 -0.771857
vn -0.404030 0.490914 -0.771857
vn 0.482706 0.333040 -0.809988
vn 0.482706 0.333040 -0.809988
vn 0.482706 0.333040 -0.809988
vn 0.482706 0.333040 -0.809988
vn 0.991680 0.123349 -0.036819
vn 0.991680 0.123349 -0.036819
vn 0.991680 0.123349 -0.036819
vn 0.991680 0.123349 -0.036819
vn -0.804248 0.581243 0.123859
vn -0.804248 0.581243 0.123859
vn -0.804248 0.581243 0.123859
vn -0.804248 0.581243 0.123859
vn -0.107470 0.402655 0.909021
vn -0.107470 0.402655 0.909021
vn -0.107470 0.402655 0.909021
vn -0.107470 0.402655 0.909021
vn -0.774996 0.333672 0.536697
vn -0.774996 0.333672 0.536697
vn -0.774996 0.333672 0.536697
vn -0.774996 0.333672 0.536697
vn -0.484372 0.872124 -0.069157
vn -0.484372 0.872124 -0.069157
vn -0.484372 0.872124 -0.069157
vn -0.484372 0.872124 -0.069157
vn -0.141592 0.941867 0.304693
vn -0.141592 0.941867 0.304693
vn -0.141592 0.941867 0.304693
vn 0.165396 0.986216 0.004620
vn 0.165396 0.986216 0.004620
vn 0.165396 0.986216 0.004620
vn 0.165396 0.986216 0.004620
vn -0.262025 0.797830 -0.542965
vn -0.262025 0.797830 -0.542965
vn -0.262025 0.797830 -0.542965
vn -0.080958 -0.005666 -0.996701
vn -0.080958 -0.005666 -0.996701
vn -0.080958 -0.005666 -0.996701
vn -0.080958 -0.005666 -0.996701
vn 0.679030 0.336031 -0.652688
vn 0.679030 0.336031 -0.652688
vn 0.679030 0.336031 -0.652688
vn 0.679030 0.336031 -0.652688
vn 0.692664 0.616572 0.374240
vn 0.692664 0.616572 0.374240
vn 0.692664 0.616572 0.374240
vn 0.692664 0.616572 0.374240
vn -0.922308 0.000006 -0.386455
vn -0.922308 0.000006 -0.386455
vn -0.922308 0.000006 -0.386455
vn -0.922308 0.000006 -0.386455
vn 0.403267 0.222563 0.887605
vn 0.403267 0.222563 0.887605
vn 0.403267 0.222563 0.887604
vn 0.403267 0.222563 0.887604
vn -0.346796 0.242072 0.906165
vn -0.346796 0.242072 0.906164
vn -0.346796 0.242072 0.906165
vn -0.346796 0.242072 0.906164
vn -0.408401 0.901216 0.144973
vn -0.408401 0.901216 0.144973
vn -0.408401 0.901216 0.144973
vn -0.408401 0.901216 0.144973
vn 0.077666 0.978687 0.190106
vn 0.077666 0.978687 0.190106
vn 0.077666 0.978687 0.190106
vn 0.198856 0.976351 -0.084829
vn 0.198856 0.976351 -0.084829
vn 0.198856 0.976351 -0.084829
vn 0.198856 0.976351 -0.084829
vn -0.287645 0.946727 -0.144806
vn -0.287645 0.946727 -0.144806
vn -0.287645 0.946727 -0.144806
vn -0.529820 0.279722 -0.800654
vn -0.529820 0.279722 -0.800654
vn -0.529820 0.279722 -0.800654
vn -0.529820 0.279722 -0.800654
vn 0.357102 0.439368 -0.824278
vn 0.357101 0.439368 -0.824278
vn 0.357101 0.439368 -0.824278
vn 0.357102 0.439368 -0.824278
vn 0.931281 0.363568 0.023112
vn 0.931281 0.363568 0.023112
vn 0.931281 0.363568 0.023112
vn 0.931281 0.363568 0.023112
vn -0.959112 0.269628 0.086051
vn -0.959112 0.269628 0.086051
vn -0.959112 0.269629 0.086051
vn -0.959112 0.269629 0.086051
vn -0.458213 0.274245 0.845477
vn -0.458213 0.274245 0.845476
vn -0.458213 0.274245 0.845477
vn -0.458213 0.274245 0.845476
vn -0.932784 0.225929 0.280839
vn -0.932784 0.225929 0.280839
vn -0.932784 0.225929 0.280839
vn -0.932784 0.225929 0.280839
vn -0.427042 0.846795 -0.317133
vn -0.427042 0.846795 -0.317133
vn -0.427042 0.846795 -0.317133
vn -0.427042 0.846795 -0.317133
vn -0.121705 0.986107 0.113055
vn -0.121705 0.986107 0.113055
vn -0.121705 0.986107 0.113055
vn 0.242983 0.968067 0.061692
vn 0.242983 0.968067 0.061692
vn 0.242983 0.968067 0.061692
vn 0.242983 0.968067 0.061692
vn -0.137412 0.900857 -0.411793
vn -0.137412 0.900857 -0.411793
vn -0.137412 0.900857 -0.411793
vn 0.257389 0.197889 -0.945828
vn 0.257389 0.197889 -0.945828
vn 0.257389 0.197889 -0.945828
vn 0.257389 0.197889 -0.945828
vn 0.848980 0.450819 -0.275674
vn 0.848979 0.450819 -0.275674
vn 0.848979 0.450819 -0.275674
vn 0.848979 0.450819 -0.275674
vn 0.567623 0.435240 0.698835
vn 0.567623 0.435240 0.698835
vn 0.567623 0.435240 0.698835
vn 0.567623 0.435240 0.698835
vn -0.689184 0.152700 -0.708313
vn -0.689184 0.152700 -0.708313
vn -0.689184 0.152700 -0.708313
vn -0.689184 0.152700 -0.708313
s off
f 7/1/1 8/2/2 2/3/3
f 10/4/4 9/5/5 7/1/6 6/6/7
f 11/7/8 20/8/9 5/9/10
f 12/10/11 11/7/12 5/9/13
f 13/11/14 12/10/15 5/9/16 4/12/17
f 14/13/18 13/11/19 4/12/20 3/14/21
f 15/15/22 14/13/23 3/14/24 1/16/25
f 16/17/26 15/15/27 1/16/28
f 17/18/29 16/17/30 1/16/31 2/3/32
f 8/2/33 17/18/34 2/3/35
f 2/3/36 1/16/37 18/19/38
f 1/16/39 3/14/40 18/19/41
f 4/12/42 5/9/43 21/20/44 3/14/45
f 5/9/46 20/8/47 21/20/48
f 6/6/49 7/1/50 19/21/51
f 7/1/52 2/3/53 18/19/54 19/21/55
f 21/20/56 18/19/57 3/14/58
f 11/7/59 10/4/60 6/6/61 22/22/62
f 19/21/63 22/22/64 6/6/65
f 18/19/66 21/20/67 19/21/68
f 9/5/69 8/2/70 7/1/71
f 21/20/72 20/8/73 22/22/74 19/21/75
f 11/7/76 22/22/77 20/8/78
f 31/23/79 34/24/80 24/25/81 28/26/82
f 29/27/83 31/23/84 28/26/85 23/28/86
f 23/28/87 28/26/88 32/29/89 26/30/90
f 28/26/91 24/25/92 32/29/93
f 32/29/94 24/25/95 25/31/96 30/32/97
f 26/30/98 32/29/99 30/32/100
f 26/30/101 30/32/102 33/33/103 35/34/104
f 30/32/105 25/31/106 27/35/107 33/33/108
f 34/24/109 27/35/110 25/31/111 24/25/112
f 35/34/113 29/27/114 23/28/115 26/30/116
f 44/36/117 47/37/118 37/38/119 41/39/120
f 42/40/121 44/36/122 41/39/123 36/41/124
f 36/41/125 41/39/126 45/42/127 39/43/128
f 41/39/129 37/38/130 45/42/131
f 45/42/132 37/38/133 38/44/134 43/45/135
f 39/43/136 45/42/137 43/45/138
f 39/43/139 43/45/140 46/46/141 48/47/142
f 43/45/143 38/44/144 40/48/145 46/46/146
f 47/37/147 40/48/148 38/44/149 37/38/150
f 48/47/151 42/40/152 36/41/153 39/43/154
f 57/49/155 60/50/156 50/51/157 54/52/158
f 55/53/159 57/49/160 54/52/161 49/54/162
f 49/54/163 54/52/164 58/55/165 52/56/166
f 54/52/167 50/51/168 58/55/169
f 58/55/170 50/51/171 51/57/172 56/58/173
f 52/56/174 58/55/175 56/58/176
f 52/56/177 56/58/178 59/59/179 61/60/180
f 56/58/181 51/57/182 53/61/183 59/59/184
f 60/50/185 53/61/186 51/57/187 50/51/188
f 61/60/189 55/53/190 49/54/191 52/56/192
f 70/62/193 73/63/194 63/64/195 67/65/196
f 68/66/197 70/62/198 67/65/199 62/67/200
f 62/67/201 67/65/202 71/68/203 65/69/204
f 67/65/205 63/64/206 71/68/207
f 71/68/208 63/64/209 64/70/210 69/71/211
f 65/69/212 71/68/213 69/71/214
f 65/69/215 69/71/216 72/72/217 74/73/218
f 69/71/219 64/70/220 66/74/221 72/72/222
f 73/63/223 66/74/224 64/70/225 63/64/226
f 74/73/227 68/66/228 62/67/229 65/69/230
f 83/75/231 86/76/232 76/77/233 80/78/234
f 81/79/235 83/75/236 80/78/237 75/80/238
f 75/80/239 80/78/240 84/81/241 78/82/242
f 80/78/243 76/77/244 84/81/245
f 84/81/246 76/77/247 77/83/248 82/84/249
f 78/82/250 84/81/251 82/84/252
f 78/82/253 82/84/254 85/85/255 87/86/256
f 82/84/257 77/83/258 79/87/259 85/85/260
f 86/76/261 79/87/262 77/83/263 76/77/264
f 87/86/265 81/79/266 75/80/267 78/82/268
f 96/88/269 99/89/270 89/90/271 93/91/272
f 94/92/273 96/88/274 93/91/275 88/93/276
f 88/93/277 93/91/278 97/94/279 91/95/280
f 93/91/281 89/90/282 97/94/283
f 97/94/284 89/90/285 90/96/286 95/97/287
f 91/95/288 97/94/289 95/97/290
f 91/95/291 95/97/292 98/98/293 100/99/294
f 95/97/295 90/96/296 92/100/297 98/98/298
f 99/89/299 92/100/300 90/96/301 89/90/302
f 100/99/303 94/92/304 88/93/305 91/95/306
f 109/101/307 112/102/308 102/103/309 106/104/310
f 107/105/311 109/101/312 106/104/313 101/106/314
f 101/106/315 106/104/316 110/107/317 104/108/318
f 106/104/319 102/103/320 110/107/321
f 110/107/322 102/103/323 103/109/324 108/110/325
f 104/108/326 110/107/327 108/110/328
f 104/108/329 108/110/330 111/111/331 113/112/332
f 108/110/333 103/109/334 105/113/335 111/111/336
f 112/102/337 105/113/338 103/109/339 102/103/340
f 113/112/341 107/105/342 101/106/343 104/108/344
