# This file uses centimeters as units for non-parametric coordinates.

v 0.941154 45.952080 -1.197021
v -17.696037 45.952080 -1.197021
v -17.696037 43.724697 -1.197021
v -16.147552 43.724697 -1.197021
v -12.626616 42.233223 -1.197021
v -11.776850 36.845428 -1.197021
v -11.776850 9.039048 -1.197021
v -12.414015 4.023949 -1.197021
v -16.147552 2.125762 -1.197021
v -17.696037 2.125762 -1.197021
v -17.696037 0.000000 -1.197021
v 14.175106 0.000000 -1.197021
v 17.696037 12.470427 -1.197021
v 16.694586 12.707788 -1.197021
v 13.537943 6.455223 -1.197021
v 10.046833 3.693656 -1.197021
v 3.399714 2.914254 -1.197021
v 0.394737 2.914254 -1.197021
v -4.340239 4.125278 -1.197021
v -5.463537 5.176047 -1.197021
v -5.949028 9.039048 -1.197021
v -5.949028 36.066025 -1.197021
v -5.463537 41.250473 -1.197021
v -3.657690 43.046631 -1.197021
v 0.941154 43.724697 -1.197021
v 0.941154 45.952080 1.197021
v -17.696037 45.952080 1.197021
v -17.696037 43.724697 1.197021
v -16.147552 43.724697 1.197021
v -12.626616 42.233223 1.197021
v -11.776850 36.845428 1.197021
v -11.776850 9.039048 1.197021
v -12.414015 4.023949 1.197021
v -16.147552 2.125762 1.197021
v -17.696037 2.125762 1.197021
v -17.696037 0.000000 1.197021
v 14.175106 0.000000 1.197021
v 17.696037 12.470427 1.197021
v 16.694586 12.707788 1.197021
v 13.537943 6.455223 1.197021
v 10.046833 3.693656 1.197021
v 3.399714 2.914254 1.197021
v 0.394737 2.914254 1.197021
v -4.340239 4.125278 1.197021
v -5.463537 5.176047 1.197021
v -5.949028 9.039048 1.197021
v -5.949028 36.066025 1.197021
v -5.463537 41.250473 1.197021
v -3.657690 43.046631 1.197021
v 0.941154 43.724697 1.197021
vt 0.282666 0.229077
vt 0.282644 0.229082
vt 0.282750 0.229329
vt 0.282750 0.229201
vt 0.282833 0.229253
vt 0.283446 0.229307
vt 0.282981 0.229264
vt 0.283047 0.229262
vt 0.283149 0.229235
vt 0.283172 0.229214
vt 0.283410 0.229267
vt 0.283443 0.229266
vt 0.283326 0.229232
vt 0.283305 0.229133
vt 0.283176 0.229136
vt 0.283132 0.228574
vt 0.283264 0.228554
vt 0.283112 0.228461
vt 0.283275 0.228436
vt 0.283354 0.228401
vt 0.283390 0.228401
vt 0.283387 0.228351
vt 0.282954 0.228360
vt 0.282958 0.228410
vt 0.283066 0.228423
vt 0.283384 0.247371
vt 0.282948 0.247380
vt 0.283387 0.228417
vt 0.283351 0.247422
vt 0.283271 0.247456
vt 0.283260 0.247575
vt 0.283301 0.248157
vt 0.283322 0.248257
vt 0.283407 0.248292
vt 0.283441 0.229288
vt 0.283443 0.248333
vt 0.282743 0.248355
vt 0.282636 0.229103
vt 0.282658 0.229098
vt 0.282743 0.248226
vt 0.282827 0.248279
vt 0.282975 0.248290
vt 0.283042 0.248288
vt 0.283144 0.248261
vt 0.283167 0.248239
vt 0.283172 0.248161
vt 0.283127 0.247595
vt 0.283106 0.247482
vt 0.283061 0.247443
vt 0.282952 0.228427
vt 0.282948 0.228377
vt 0.282952 0.247430
vt 0.283061 0.228439
vt 0.283106 0.228478
vt 0.283127 0.228592
vt 0.283172 0.229158
vt 0.283167 0.229235
vt 0.283144 0.229257
vt 0.283042 0.229284
vt 0.282975 0.229286
vt 0.282827 0.229275
vt 0.282743 0.229222
vt 0.282658 0.248101
vt 0.282636 0.248107
vt 0.282743 0.229351
vt 0.283443 0.229329
vt 0.283441 0.248291
vt 0.283407 0.229289
vt 0.283322 0.229254
vt 0.283301 0.229154
vt 0.283260 0.228571
vt 0.283271 0.228453
vt 0.283351 0.228418
vt 0.283387 0.247421
vt 0.283384 0.228367
vn 0.000000 0.000000 -1.000000
vn 0.000000 0.000000 -1.000000
vn 0.000000 0.000000 -1.000000
vn 0.000000 0.000000 -1.000000
vn -0.000000 0.000000 -1.000000
vn -0.000000 0.000000 -1.000000
vn -0.000000 0.000000 -1.000000
vn 0.000000 0.000000 -1.000000
vn 0.000000 0.000000 -1.000000
vn 0.000000 0.000000 -1.000000
vn 0.000000 0.000000 -1.000000
vn 0.000000 0.000000 -1.000000
vn 0.000000 0.000000 -1.000000
vn 0.000000 0.000000 -1.000000
vn 0.000000 0.000000 -1.000000
vn 0.000000 0.000000 -1.000000
vn 0.000000 0.000000 -1.000000
vn -0.000000 0.000000 -1.000000
vn -0.000000 0.000000 -1.000000
vn -0.000000 0.000000 -1.000000
vn -0.000000 0.000000 -1.000000
vn 0.000000 0.000000 -1.000000
vn 0.000000 0.000000 -1.000000
vn 0.000000 0.000000 -1.000000
vn -0.000000 0.000000 -1.000000
vn -0.000000 0.000000 -1.000000
vn -0.000000 0.000000 -1.000000
vn 0.000000 0.000000 -1.000000
vn 0.000000 0.000000 -1.000000
vn 0.000000 0.000000 -1.000000
vn 0.000000 0.000000 -1.000000
vn -0.000000 0.000000 -1.000000
vn -0.000000 0.000000 -1.000000
vn -0.000000 0.000000 -1.000000
vn -0.000000 0.000000 -1.000000
vn -0.000000 0.000000 -1.000000
vn -0.000000 0.000000 -1.000000
vn -0.000000 0.000000 -1.000000
vn -0.000000 0.000000 -1.000000
vn 0.000000 0.000000 -1.000000
vn 0.000000 0.000000 -1.000000
vn 0.000000 0.000000 -1.000000
vn 0.000000 0.000000 -1.000000
vn 0.000000 0.000000 -1.000000
vn 0.000000 0.000000 -1.000000
vn 0.000000 0.000000 -1.000000
vn 0.000000 0.000000 -1.000000
vn 0.000000 0.000000 -1.000000
vn 0.000000 0.000000 -1.000000
vn 0.000000 0.000000 -1.000000
vn -0.000000 0.000000 -1.000000
vn -0.000000 0.000000 -1.000000
vn -0.000000 0.000000 -1.000000
vn 0.000000 1.000000 0.000000
vn 0.000000 1.000000 0.000000
vn 0.000000 1.000000 0.000000
vn 0.000000 1.000000 0.000000
vn -1.000000 0.000000 0.000000
vn -1.000000 0.000000 0.000000
vn -1.000000 0.000000 0.000000
vn -1.000000 0.000000 0.000000
vn 0.000000 -1.000000 0.000000
vn 0.000000 -1.000000 0.000000
vn 0.000000 -1.000000 0.000000
vn 0.000000 -1.000000 0.000000
vn -0.390050 -0.920794 0.000000
vn -0.390050 -0.920794 0.000000
vn -0.390050 -0.920794 0.000000
vn -0.390050 -0.920794 0.000000
vn -0.987790 -0.155794 0.000000
vn -0.987790 -0.155794 0.000000
vn -0.987790 -0.155794 0.000000
vn -0.987790 -0.155794 0.000000
vn -1.000000 0.000000 0.000000
vn -1.000000 0.000000 0.000000
vn -1.000000 0.000000 0.000000
vn -1.000000 0.000000 0.000000
vn -0.992026 0.126036 0.000000
vn -0.992026 0.126036 0.000000
vn -0.992026 0.126036 0.000000
vn -0.992026 0.126036 0.000000
vn -0.453204 0.891407 0.000000
vn -0.453204 0.891407 0.000000
vn -0.453204 0.891407 0.000000
vn -0.453204 0.891407 0.000000
vn 0.000000 1.000000 0.000000
vn 0.000000 1.000000 0.000000
vn 0.000000 1.000000 0.000000
vn 0.000000 1.000000 0.000000
vn -1.000000 0.000000 0.000000
vn -1.000000 0.000000 0.000000
vn -1.000000 0.000000 0.000000
vn -1.000000 0.000000 0.000000
vn 0.000000 -1.000000 0.000000
vn 0.000000 -1.000000 0.000000
vn 0.000000 -1.000000 0.000000
vn 0.000000 -1.000000 0.000000
vn 0.962376 -0.271720 0.000000
vn 0.962376 -0.271720 0.000000
vn 0.962376 -0.271720 0.000000
vn 0.962376 -0.271720 0.000000
vn 0.230628 0.973042 0.000000
vn 0.230628 0.973042 0.000000
vn 0.230628 0.973042 0.000000
vn 0.230628 0.973042 0.000000
vn -0.892687 0.450678 0.000000
vn -0.892687 0.450678 0.000000
vn -0.892687 0.450678 0.000000
vn -0.892687 0.450678 0.000000
vn -0.620395 0.784290 0.000000
vn -0.620395 0.784290 0.000000
vn -0.620395 0.784290 0.000000
vn -0.620395 0.784290 0.000000
vn -0.116456 0.993196 0.000000
vn -0.116456 0.993196 0.000000
vn -0.116456 0.993196 0.000000
vn -0.116456 0.993196 0.000000
vn 0.000000 1.000000 0.000000
vn 0.000000 1.000000 0.000000
vn 0.000000 1.000000 0.000000
vn 0.000000 1.000000 0.000000
vn 0.247785 0.968815 0.000000
vn 0.247785 0.968815 0.000000
vn 0.247785 0.968815 0.000000
vn 0.247785 0.968815 0.000000
vn 0.683136 0.730291 0.000000
vn 0.683136 0.730291 0.000000
vn 0.683136 0.730291 0.000000
vn 0.683136 0.730291 0.000000
vn 0.992195 0.124696 0.000000
vn 0.992195 0.124696 0.000000
vn 0.992195 0.124696 0.000000
vn 0.992195 0.124696 0.000000
vn 1.000000 0.000000 0.000000
vn 1.000000 0.000000 0.000000
vn 1.000000 0.000000 0.000000
vn 1.000000 0.000000 0.000000
vn 0.995644 -0.093236 0.000000
vn 0.995644 -0.093236 0.000000
vn 0.995644 -0.093236 0.000000
vn 0.995644 -0.093236 0.000000
vn 0.705202 -0.709006 0.000000
vn 0.705202 -0.709006 0.000000
vn 0.705202 -0.709006 0.000000
vn 0.705202 -0.709006 0.000000
vn 0.145866 -0.989304 0.000000
vn 0.145866 -0.989304 0.000000
vn 0.145866 -0.989304 0.000000
vn 0.145866 -0.989304 0.000000
vn 1.000000 0.000000 0.000000
vn 1.000000 0.000000 0.000000
vn 1.000000 0.000000 0.000000
vn 1.000000 0.000000 0.000000
vn 0.000000 0.000000 1.000000
vn 0.000000 0.000000 1.000000
vn 0.000000 0.000000 1.000000
vn 0.000000 0.000000 1.000000
vn 0.000000 0.000000 1.000000
vn 0.000000 0.000000 1.000000
vn 0.000000 0.000000 1.000000
vn 0.000000 0.000000 1.000000
vn 0.000000 0.000000 1.000000
vn 0.000000 0.000000 1.000000
vn 0.000000 0.000000 1.000000
vn 0.000000 0.000000 1.000000
vn 0.000000 0.000000 1.000000
vn 0.000000 0.000000 1.000000
vn 0.000000 0.000000 1.000000
vn 0.000000 0.000000 1.000000
vn 0.000000 0.000000 1.000000
vn -0.000000 0.000000 1.000000
vn -0.000000 0.000000 1.000000
vn -0.000000 0.000000 1.000000
vn -0.000000 0.000000 1.000000
vn 0.000000 0.000000 1.000000
vn 0.000000 0.000000 1.000000
vn 0.000000 0.000000 1.000000
vn 0.000000 0.000000 1.000000
vn -0.000000 0.000000 1.000000
vn -0.000000 0.000000 1.000000
vn -0.000000 0.000000 1.000000
vn -0.000000 0.000000 1.000000
vn 0.000000 0.000000 1.000000
vn 0.000000 0.000000 1.000000
vn 0.000000 0.000000 1.000000
vn 0.000000 0.000000 1.000000
vn 0.000000 0.000000 1.000000
vn 0.000000 0.000000 1.000000
vn 0.000000 0.000000 1.000000
vn 0.000000 0.000000 1.000000
vn 0.000000 0.000000 1.000000
vn 0.000000 0.000000 1.000000
vn -0.000000 0.000000 1.000000
vn -0.000000 0.000000 1.000000
vn -0.000000 0.000000 1.000000
vn -0.000000 0.000000 1.000000
vn 0.000000 0.000000 1.000000
vn 0.000000 0.000000 1.000000
vn 0.000000 0.000000 1.000000
vn -0.000000 0.000000 1.000000
vn -0.000000 0.000000 1.000000
vn -0.000000 0.000000 1.000000
vn 0.000000 0.000000 1.000000
vn 0.000000 0.000000 1.000000
vn 0.000000 0.000000 1.000000
vn 0.000000 0.000000 1.000000
s off
f 14/1/1 13/2/2 12/3/3 15/4/4
f 15/4/5 12/3/6 16/5/7
f 16/5/8 12/3/9 11/6/10 17/7/11
f 17/7/12 11/6/13 18/8/14
f 18/8/15 11/6/16 19/9/17
f 20/10/18 19/9/19 11/6/20 9/11/21
f 10/12/22 9/11/23 11/6/24
f 9/11/25 8/13/26 20/10/27
f 20/10/28 8/13/29 7/14/30 21/15/31
f 22/16/32 21/15/33 7/14/34 6/17/35
f 23/18/36 22/16/37 6/17/38 5/19/39
f 4/20/40 3/21/41 2/22/42 1/23/43
f 5/19/44 4/20/45 1/23/46 25/24/47
f 25/24/48 24/25/49 5/19/50
f 24/25/51 23/18/52 5/19/53
f 1/23/54 2/22/55 27/75/56 26/51/57
f 2/22/58 3/21/59 28/28/60 27/75/61
f 3/21/62 4/20/63 29/73/64 28/28/65
f 4/20/66 5/19/67 30/72/68 29/73/69
f 5/19/70 6/17/71 31/71/72 30/72/73
f 6/17/74 7/14/75 32/70/76 31/71/77
f 7/14/78 8/13/79 33/69/80 32/70/81
f 8/13/82 9/11/83 34/68/84 33/69/85
f 9/11/86 10/12/87 35/35/88 34/68/89
f 10/12/90 11/6/91 36/66/92 35/35/93
f 11/6/94 12/3/95 37/65/96 36/66/97
f 12/3/98 13/2/99 38/38/100 37/65/101
f 13/2/102 14/1/103 39/39/104 38/38/105
f 14/1/106 15/4/107 40/62/108 39/39/109
f 15/4/110 16/5/111 41/61/112 40/62/113
f 16/5/114 17/7/115 42/60/116 41/61/117
f 17/7/118 18/8/119 43/59/120 42/60/121
f 18/8/122 19/9/123 44/58/124 43/59/125
f 19/9/126 20/10/127 45/57/128 44/58/129
f 20/10/130 21/15/131 46/56/132 45/57/133
f 21/15/134 22/16/135 47/55/136 46/56/137
f 22/16/138 23/18/139 48/54/140 47/55/141
f 23/18/142 24/25/143 49/53/144 48/54/145
f 24/25/146 25/24/147 50/50/148 49/53/149
f 25/24/150 1/23/151 26/51/152 50/50/153
f 37/37/154 38/64/155 39/63/156 40/40/157
f 40/40/158 41/41/159 37/37/160
f 36/36/161 37/37/162 41/41/163 42/42/164
f 42/42/165 43/43/166 36/36/167
f 43/43/168 44/44/169 36/36/170
f 36/36/171 44/44/172 45/45/173 34/34/174
f 50/52/175 26/27/176 27/26/177 49/49/178
f 48/48/179 49/49/180 27/26/181 29/29/182
f 28/74/183 29/29/184 27/26/185
f 29/29/186 30/30/187 48/48/188
f 48/48/189 30/30/190 31/31/191 47/47/192
f 47/47/193 31/31/194 32/32/195 46/46/196
f 35/67/197 36/36/198 34/34/199
f 34/34/200 45/45/201 33/33/202
f 32/32/203 33/33/204 45/45/205 46/46/206
