# This file uses centimeters as units for non-parametric coordinates.

v -1.259468 7.245545 -0.933045
v -1.259468 7.245545 0.933042
v -0.000000 7.245545 1.866087
v 1.259468 7.245545 0.933043
v 1.259468 7.245545 -0.933044
v 0.000000 7.245545 -1.866088
v -1.205787 5.149069 -0.808661
v -1.205788 5.149069 0.808659
v -0.000000 5.149069 1.617319
v 1.205787 5.149069 0.808659
v 1.205788 5.149069 -0.808661
v 0.000000 5.149069 -1.617321
v -1.301884 -6.560209 -0.751644
v -1.301884 -6.560209 0.751642
v -0.000000 -6.560209 1.503285
v 1.301884 -6.560209 0.751642
v 1.301884 -6.560209 -0.751644
v 0.000000 -6.560209 -1.503287
v -1.759890 0.223380 -1.039035
v -1.759890 0.223380 1.039032
v -0.000000 0.223380 2.078065
v 1.759890 0.223380 1.039032
v 1.759890 0.223380 -1.039034
v 0.000000 0.223380 -2.078067
v -1.842899 -11.150629 -1.064000
v -1.327648 -11.798285 -0.766519
v -1.842899 -11.150629 1.063997
v -1.327648 -11.798285 0.766517
v -0.000000 -11.150629 2.127996
v -0.000000 -11.798285 1.533035
v 1.842899 -11.150629 1.063998
v 1.327648 -11.798285 0.766517
v 1.842899 -11.150629 -1.063999
v 1.327648 -11.798285 -0.766519
v 0.000000 -11.150629 -2.127998
v -0.000000 -11.798285 -1.533037
v 0.000000 9.179187 4.056946
v 0.000000 25.067600 3.276085
v 0.000000 36.904781 4.533881
v -0.000000 49.463863 3.988443
v -0.000000 57.241932 2.706088
v -0.000000 66.205017 -0.000001
v -1.241289 48.435184 -0.000001
v -1.241289 56.781837 -0.000001
v -1.241289 7.230077 -0.000001
v -1.241289 25.489918 -0.000001
v -1.241289 35.713650 -0.000001
v 1.241288 7.230077 -0.000001
v 1.241288 56.781837 -0.000001
v 1.241288 48.435184 -0.000001
v 1.241288 25.489918 -0.000001
v 1.241288 35.713650 -0.000001
v -1.241289 16.671450 -0.000001
v 1.241288 16.671450 -0.000001
v 0.000000 16.184164 3.086720
v 0.000000 9.179187 -4.056948
v 0.000000 25.067600 -3.276086
v 0.000000 36.904781 -4.533883
v -0.000000 49.463863 -3.988445
v -0.000000 57.241932 -2.706090
v 0.000000 16.184164 -3.086721
v -0.693262 12.631263 6.475327
v -1.126648 10.406860 4.956001
v -1.733783 8.920563 2.682169
v -1.797659 8.398643 0.000000
v -1.733783 8.920562 -2.682168
v -1.126647 10.406859 -4.956001
v -0.693262 12.631260 -6.475327
v 0.693262 12.631263 6.475327
v 1.126647 10.406860 4.956001
v 1.733783 8.920563 2.682168
v 1.797659 8.398643 0.000000
v 1.733783 8.920562 -2.682168
v 1.126647 10.406859 -4.956001
v 0.693262 12.631260 -6.475327
v -0.693262 11.598841 8.054791
v -1.229016 9.067093 6.325540
v 1.229016 9.067093 6.325540
v 0.693262 11.598841 8.054791
v -1.797659 7.170074 3.423358
v 1.797659 7.170074 3.423358
v -1.797659 6.503926 0.000000
v 1.797659 6.503927 -0.000000
v -1.797659 7.170072 -3.423358
v 1.797659 7.170072 -3.423357
v -1.229016 9.067093 -6.325541
v 1.229016 9.067093 -6.325541
v -0.693262 11.598839 -8.054791
v 0.693262 11.598839 -8.054791
vt 0.014991 0.327975
vt 0.015087 0.327977
vt 0.015091 0.327854
vt 0.014995 0.327849
vt 0.015178 0.327974
vt 0.015178 0.327849
vt 0.015176 0.327969
vt 0.015172 0.327840
vt 0.015076 0.327967
vt 0.015072 0.327835
vt 0.014982 0.327970
vt 0.014982 0.327840
vt 0.015080 0.328188
vt 0.014975 0.328190
vt 0.015188 0.328191
vt 0.015194 0.328196
vt 0.015082 0.328198
vt 0.014970 0.328195
vt 0.015006 0.328528
vt 0.015079 0.328522
vt 0.015153 0.328531
vt 0.015157 0.328546
vt 0.015081 0.328553
vt 0.015005 0.328543
vt 0.250162 0.268131
vt 0.250228 0.268127
vt 0.250232 0.268000
vt 0.250180 0.268000
vt 0.250311 0.268133
vt 0.250298 0.268000
vt 0.250336 0.268145
vt 0.250316 0.268000
vt 0.250264 0.268151
vt 0.250260 0.268000
vt 0.250173 0.268143
vt 0.250190 0.268000
vt 0.250232 0.268151
vt 0.250184 0.268155
vt 0.250193 0.268165
vt 0.250293 0.268157
vt 0.250258 0.268172
vt 0.250309 0.268167
vt 0.261615 0.268464
vt 0.261585 0.268455
vt 0.261580 0.268341
vt 0.261636 0.268580
vt 0.261585 0.268571
vt 0.261584 0.268890
vt 0.261621 0.268892
vt 0.261617 0.268994
vt 0.261584 0.268988
vt 0.261635 0.268748
vt 0.261584 0.268743
vt 0.261576 0.268462
vt 0.261576 0.268576
vt 0.261576 0.268891
vt 0.261576 0.268988
vt 0.261576 0.268745
vt 0.261613 0.269092
vt 0.261584 0.269094
vt 0.261576 0.269092
vt 0.261615 0.268464
vt 0.261580 0.268341
vt 0.261585 0.268455
vt 0.261585 0.268571
vt 0.261636 0.268580
vt 0.261584 0.268890
vt 0.261584 0.268988
vt 0.261617 0.268994
vt 0.261621 0.268892
vt 0.261584 0.268743
vt 0.261635 0.268748
vt 0.261576 0.268462
vt 0.261576 0.268576
vt 0.261576 0.268891
vt 0.261576 0.268988
vt 0.261576 0.268745
vt 0.261584 0.269094
vt 0.261613 0.269092
vt 0.261576 0.269092
vt 0.248635 0.269022
vt 0.248755 0.269191
vt 0.248708 0.269165
vt 0.248610 0.269011
vt 0.248949 0.269313
vt 0.248871 0.269270
vt 0.249159 0.269345
vt 0.249071 0.269300
vt 0.249365 0.269291
vt 0.249267 0.269250
vt 0.249522 0.269157
vt 0.249449 0.269134
vt 0.249610 0.268990
vt 0.249567 0.268981
vt 0.248737 0.268951
vt 0.248710 0.268941
vt 0.248794 0.269078
vt 0.248841 0.269098
vt 0.248918 0.269160
vt 0.248996 0.269196
vt 0.249073 0.269185
vt 0.249162 0.269223
vt 0.249229 0.269147
vt 0.249323 0.269181
vt 0.249377 0.269056
vt 0.249442 0.269075
vt 0.249480 0.268920
vt 0.249522 0.268928
vn -0.999672 -0.025597 -0.000000
vn -0.999672 -0.025597 -0.000000
vn -0.999672 -0.025597 -0.000000
vn -0.999672 -0.025597 -0.000000
vn -0.575179 -0.079817 0.814124
vn -0.575179 -0.079817 0.814124
vn -0.575179 -0.079817 0.814124
vn -0.575179 -0.079817 0.814124
vn 0.575179 -0.079817 0.814124
vn 0.575179 -0.079817 0.814124
vn 0.575179 -0.079817 0.814124
vn 0.575179 -0.079817 0.814124
vn 0.999672 -0.025597 0.000000
vn 0.999672 -0.025597 0.000000
vn 0.999672 -0.025597 0.000000
vn 0.999672 -0.025597 0.000000
vn 0.575179 -0.079817 -0.814124
vn 0.575179 -0.079817 -0.814124
vn 0.575179 -0.079817 -0.814124
vn 0.575179 -0.079817 -0.814124
vn -0.575179 -0.079817 -0.814124
vn -0.575179 -0.079817 -0.814124
vn -0.575179 -0.079817 -0.814124
vn -0.575179 -0.079817 -0.814124
vn -0.997728 -0.067363 -0.000000
vn -0.997728 -0.067363 -0.000000
vn -0.997729 -0.067363 -0.000000
vn -0.997729 -0.067363 -0.000000
vn -0.503547 -0.071713 0.860986
vn -0.503547 -0.071713 0.860986
vn -0.503547 -0.071713 0.860986
vn -0.503547 -0.071713 0.860986
vn 0.503547 -0.071713 0.860986
vn 0.503547 -0.071713 0.860986
vn 0.503547 -0.071713 0.860986
vn 0.503547 -0.071713 0.860986
vn 0.997728 -0.067363 0.000000
vn 0.997728 -0.067363 0.000000
vn 0.997729 -0.067363 0.000000
vn 0.997729 -0.067363 0.000000
vn 0.503547 -0.071713 -0.860986
vn 0.503547 -0.071713 -0.860986
vn 0.503547 -0.071713 -0.860986
vn 0.503547 -0.071713 -0.860986
vn -0.503547 -0.071713 -0.860986
vn -0.503547 -0.071713 -0.860986
vn -0.503547 -0.071713 -0.860987
vn -0.503547 -0.071713 -0.860986
vn -0.993732 0.111787 -0.000000
vn -0.993732 0.111787 -0.000000
vn -0.993732 0.111787 -0.000000
vn -0.993732 0.111787 -0.000000
vn -0.526698 0.088933 0.845387
vn -0.526698 0.088933 0.845387
vn -0.526698 0.088933 0.845387
vn -0.526698 0.088933 0.845387
vn 0.526698 0.088933 0.845388
vn 0.526698 0.088933 0.845388
vn 0.526698 0.088933 0.845388
vn 0.526698 0.088933 0.845388
vn 0.993732 0.111787 0.000000
vn 0.993732 0.111787 0.000000
vn 0.993732 0.111787 0.000000
vn 0.993732 0.111787 0.000000
vn 0.526698 0.088933 -0.845388
vn 0.526698 0.088933 -0.845388
vn 0.526698 0.088933 -0.845388
vn 0.526698 0.088933 -0.845388
vn -0.526698 0.088933 -0.845388
vn -0.526698 0.088933 -0.845388
vn -0.526698 0.088933 -0.845388
vn -0.526698 0.088933 -0.845388
vn -0.993126 0.117047 -0.000000
vn -0.993126 0.117047 -0.000000
vn -0.993126 0.117047 -0.000000
vn -0.993126 0.117047 -0.000000
vn -0.496563 0.117047 0.860073
vn -0.496563 0.117047 0.860073
vn -0.496563 0.117047 0.860072
vn -0.496563 0.117047 0.860072
vn 0.496563 0.117047 0.860073
vn 0.496563 0.117047 0.860073
vn 0.496563 0.117047 0.860073
vn 0.496563 0.117047 0.860073
vn 0.993126 0.117047 0.000000
vn 0.993126 0.117047 0.000000
vn 0.993126 0.117047 0.000000
vn 0.993126 0.117047 0.000000
vn 0.496563 0.117047 -0.860073
vn 0.496563 0.117047 -0.860073
vn 0.496563 0.117047 -0.860073
vn 0.496563 0.117047 -0.860073
vn -0.496563 0.117047 -0.860073
vn -0.496563 0.117047 -0.860073
vn -0.496563 0.117047 -0.860073
vn -0.496563 0.117047 -0.860073
vn 0.000000 -1.000000 0.000000
vn 0.000000 -1.000000 0.000000
vn 0.000000 -1.000000 0.000000
vn 0.000000 -1.000000 0.000000
vn 0.000000 -1.000000 0.000000
vn 0.000000 -1.000000 0.000000
vn 0.000000 -1.000000 0.000000
vn 0.000000 -1.000000 0.000000
vn -0.782560 -0.622575 0.000000
vn -0.782560 -0.622575 0.000000
vn -0.782560 -0.622575 0.000000
vn -0.782560 -0.622575 0.000000
vn -0.391280 -0.622576 0.677716
vn -0.391280 -0.622576 0.677716
vn -0.391280 -0.622576 0.677716
vn -0.391280 -0.622576 0.677716
vn 0.391280 -0.622575 0.677717
vn 0.391280 -0.622575 0.677717
vn 0.391280 -0.622575 0.677717
vn 0.391280 -0.622575 0.677717
vn 0.782560 -0.622576 0.000000
vn 0.782560 -0.622576 0.000000
vn 0.782560 -0.622576 0.000000
vn 0.782560 -0.622576 0.000000
vn 0.391280 -0.622575 -0.677717
vn 0.391280 -0.622575 -0.677717
vn 0.391280 -0.622575 -0.677717
vn 0.391280 -0.622575 -0.677717
vn -0.391280 -0.622575 -0.677717
vn -0.391280 -0.622576 -0.677717
vn -0.391280 -0.622575 -0.677717
vn -0.391280 -0.622575 -0.677717
vn 0.909951 0.119865 0.397016
vn 0.909951 0.119865 0.397016
vn 0.909951 0.119865 0.397016
vn 0.939217 0.027218 0.342243
vn 0.939217 0.027218 0.342243
vn 0.939217 0.027218 0.342243
vn 0.939217 0.027218 0.342243
vn 0.931782 -0.003883 0.362998
vn 0.931782 -0.003883 0.362998
vn 0.931782 -0.003883 0.362998
vn 0.931782 -0.003883 0.362998
vn 0.960495 0.006003 0.278231
vn 0.960495 0.006003 0.278231
vn 0.960495 0.006003 0.278231
vn 0.960495 0.006003 0.278231
vn 0.952373 -0.017358 0.304442
vn 0.952373 -0.017358 0.304442
vn 0.952373 -0.017358 0.304442
vn 0.952373 -0.017358 0.304442
vn -0.909951 0.119865 0.397016
vn -0.909951 0.119865 0.397016
vn -0.909951 0.119865 0.397016
vn -0.939217 0.027218 0.342243
vn -0.939217 0.027218 0.342243
vn -0.939217 0.027218 0.342243
vn -0.939217 0.027218 0.342243
vn -0.931782 -0.003883 0.362998
vn -0.931782 -0.003883 0.362998
vn -0.931782 -0.003883 0.362998
vn -0.931782 -0.003883 0.362998
vn -0.960495 0.006003 0.278231
vn -0.960495 0.006003 0.278231
vn -0.960495 0.006003 0.278231
vn -0.960495 0.006003 0.278231
vn -0.952373 -0.017358 0.304442
vn -0.952373 -0.017358 0.304442
vn -0.952373 -0.017358 0.304442
vn -0.952373 -0.017358 0.304442
vn 0.945622 0.019155 0.324704
vn 0.945622 0.019155 0.324704
vn 0.945622 0.019155 0.324704
vn 0.945622 0.019155 0.324704
vn -0.945622 0.019155 0.324704
vn -0.945622 0.019155 0.324704
vn -0.945622 0.019155 0.324704
vn -0.945622 0.019155 0.324704
vn 0.909951 0.119865 -0.397016
vn 0.909951 0.119865 -0.397016
vn 0.909951 0.119865 -0.397016
vn 0.939217 0.027218 -0.342243
vn 0.939217 0.027218 -0.342243
vn 0.939217 0.027218 -0.342243
vn 0.939217 0.027218 -0.342243
vn 0.931782 -0.003883 -0.362998
vn 0.931782 -0.003883 -0.362998
vn 0.931782 -0.003883 -0.362998
vn 0.931782 -0.003883 -0.362998
vn 0.960495 0.006003 -0.278231
vn 0.960495 0.006003 -0.278231
vn 0.960495 0.006003 -0.278231
vn 0.960495 0.006003 -0.278231
vn 0.952373 -0.017358 -0.304442
vn 0.952373 -0.017358 -0.304442
vn 0.952373 -0.017358 -0.304442
vn 0.952373 -0.017358 -0.304442
vn -0.909951 0.119865 -0.397016
vn -0.909951 0.119865 -0.397016
vn -0.909951 0.119865 -0.397016
vn -0.939217 0.027218 -0.342243
vn -0.939217 0.027218 -0.342243
vn -0.939217 0.027218 -0.342243
vn -0.939217 0.027218 -0.342243
vn -0.931782 -0.003883 -0.362998
vn -0.931782 -0.003883 -0.362998
vn -0.931782 -0.003883 -0.362998
vn -0.931782 -0.003883 -0.362998
vn -0.960495 0.006003 -0.278231
vn -0.960495 0.006003 -0.278231
vn -0.960495 0.006003 -0.278231
vn -0.960495 0.006003 -0.278231
vn -0.952373 -0.017358 -0.304442
vn -0.952373 -0.017358 -0.304442
vn -0.952373 -0.017358 -0.304442
vn -0.952373 -0.017358 -0.304442
vn 0.945622 0.019155 -0.324704
vn 0.945622 0.019155 -0.324704
vn 0.945622 0.019155 -0.324704
vn 0.945622 0.019155 -0.324704
vn -0.945622 0.019155 -0.324704
vn -0.945622 0.019155 -0.324704
vn -0.945622 0.019155 -0.324704
vn -0.945622 0.019155 -0.324704
vn 0.000000 -0.564018 0.825762
vn 0.000000 -0.564018 0.825763
vn 0.000000 -0.564018 0.825762
vn 0.000000 -0.564018 0.825762
vn 0.000000 -0.837044 0.547136
vn 0.000000 -0.837044 0.547136
vn 0.000000 -0.837044 0.547136
vn 0.000000 -0.837044 0.547136
vn 0.000000 -0.981589 0.191006
vn 0.000000 -0.981589 0.191006
vn 0.000000 -0.981589 0.191006
vn 0.000000 -0.981589 0.191006
vn 0.000000 -0.981589 -0.191006
vn 0.000000 -0.981589 -0.191006
vn 0.000000 -0.981589 -0.191006
vn 0.000000 -0.981589 -0.191006
vn 0.000000 -0.837044 -0.547136
vn 0.000000 -0.837044 -0.547136
vn 0.000000 -0.837044 -0.547136
vn 0.000000 -0.837044 -0.547136
vn 0.000000 -0.564018 -0.825762
vn 0.000000 -0.564018 -0.825762
vn 0.000000 -0.564018 -0.825762
vn 0.000000 -0.564018 -0.825762
vn 0.000000 0.564018 -0.825763
vn 0.000000 0.564018 -0.825763
vn 0.000000 0.564018 -0.825763
vn 0.000000 0.564018 -0.825763
vn 0.000000 0.837044 -0.547136
vn 0.000000 0.837044 -0.547136
vn 0.000000 0.837044 -0.547136
vn 0.000000 0.837044 -0.547136
vn -0.000000 0.981589 -0.191006
vn -0.000000 0.981589 -0.191006
vn -0.000000 0.981589 -0.191006
vn -0.000000 0.981589 -0.191006
vn 0.000000 0.981589 0.191006
vn 0.000000 0.981589 0.191006
vn 0.000000 0.981589 0.191006
vn 0.000000 0.981589 0.191006
vn 0.000000 0.837044 0.547136
vn 0.000000 0.837044 0.547136
vn 0.000000 0.837044 0.547136
vn 0.000000 0.837044 0.547136
vn 0.000000 0.564018 0.825762
vn 0.000000 0.564018 0.825762
vn 0.000000 0.564018 0.825762
vn 0.000000 0.564018 0.825762
vn -0.986044 0.144764 0.082220
vn -0.986044 0.144764 0.082220
vn -0.986044 0.144764 0.082220
vn -0.986044 0.144764 0.082220
vn 0.986044 0.144764 0.082220
vn 0.986044 0.144764 0.082220
vn 0.986044 0.144764 0.082220
vn 0.986044 0.144764 0.082220
vn 0.000000 0.837043 0.547136
vn 0.000000 0.837043 0.547136
vn 0.000000 0.837043 0.547136
vn 0.000000 0.837043 0.547136
vn -0.981295 0.141755 0.130252
vn -0.981295 0.141755 0.130252
vn -0.981295 0.141755 0.130252
vn -0.981295 0.141755 0.130252
vn 0.981295 0.141755 0.130251
vn 0.981295 0.141755 0.130251
vn 0.981295 0.141755 0.130251
vn 0.981295 0.141755 0.130251
vn -0.999798 0.018899 0.006782
vn -0.999798 0.018899 0.006782
vn -0.999798 0.018899 0.006782
vn -0.999798 0.018899 0.006782
vn 0.999798 0.018899 0.006782
vn 0.999798 0.018899 0.006782
vn 0.999798 0.018899 0.006782
vn 0.999798 0.018899 0.006782
vn -0.999798 0.018899 -0.006782
vn -0.999798 0.018899 -0.006782
vn -0.999798 0.018899 -0.006782
vn -0.999798 0.018899 -0.006782
vn 0.999798 0.018899 -0.006782
vn 0.999798 0.018899 -0.006782
vn 0.999798 0.018899 -0.006782
vn 0.999798 0.018899 -0.006782
vn -0.981295 0.141755 -0.130251
vn -0.981295 0.141755 -0.130251
vn -0.981295 0.141755 -0.130251
vn -0.981295 0.141755 -0.130251
vn 0.981295 0.141755 -0.130251
vn 0.981295 0.141755 -0.130251
vn 0.981295 0.141755 -0.130251
vn 0.981295 0.141755 -0.130251
vn -0.986044 0.144764 -0.082220
vn -0.986044 0.144764 -0.082220
vn -0.986044 0.144764 -0.082220
vn -0.986044 0.144764 -0.082220
vn 0.000000 0.837044 -0.547136
vn 0.000000 0.837044 -0.547136
vn 0.000000 0.837044 -0.547136
vn 0.000000 0.837044 -0.547136
vn 0.986044 0.144764 -0.082220
vn 0.986044 0.144764 -0.082220
vn 0.986044 0.144764 -0.082220
vn 0.986044 0.144764 -0.082220
s off
f 7/1/1 8/2/2 2/3/3 1/4/4
f 8/2/5 9/5/6 3/6/7 2/3/8
f 9/5/9 10/7/10 4/8/11 3/6/12
f 10/7/13 11/9/14 5/10/15 4/8/16
f 11/9/17 12/11/18 6/12/19 5/10/20
f 12/11/21 7/1/22 1/4/23 6/12/24
f 13/19/25 14/20/26 20/13/27 19/14/28
f 14/20/29 15/21/30 21/15/31 20/13/32
f 15/21/33 16/22/34 22/16/35 21/15/36
f 16/22/37 17/23/38 23/17/39 22/16/40
f 17/23/41 18/24/42 24/18/43 23/17/44
f 18/24/45 13/19/46 19/14/47 24/18/48
f 19/14/49 20/13/50 8/2/51 7/1/52
f 20/13/53 21/15/54 9/5/55 8/2/56
f 21/15/57 22/16/58 10/7/59 9/5/60
f 22/16/61 23/17/62 11/9/63 10/7/64
f 23/17/65 24/18/66 12/11/67 11/9/68
f 24/18/69 19/14/70 7/1/71 12/11/72
f 25/25/73 27/26/74 14/27/75 13/28/76
f 27/26/77 29/29/78 15/30/79 14/27/80
f 29/29/81 31/31/82 16/32/83 15/30/84
f 31/31/85 33/33/86 17/34/87 16/32/88
f 33/33/89 35/35/90 18/36/91 17/34/92
f 35/35/93 25/25/94 13/28/95 18/36/96
f 28/37/97 26/38/98 36/39/99 30/40/100
f 34/41/101 32/42/102 30/40/103 36/39/104
f 27/26/105 25/25/106 26/38/107 28/37/108
f 29/29/109 27/26/110 28/37/111 30/40/112
f 31/31/113 29/29/114 30/40/115 32/42/116
f 33/33/117 31/31/118 32/42/119 34/41/120
f 35/35/121 33/33/122 34/41/123 36/39/124
f 35/35/125 36/39/126 26/38/127 25/25/128
f 41/43/129 49/44/130 42/45/131
f 41/43/132 40/46/133 50/47/134 49/44/135
f 51/48/136 38/49/137 55/50/138 54/51/139
f 40/46/140 39/52/141 52/53/142 50/47/143
f 51/48/144 52/53/145 39/52/146 38/49/147
f 41/43/148 42/45/149 44/54/150
f 41/43/151 44/54/152 43/55/153 40/46/154
f 46/56/155 53/57/156 55/50/157 38/49/158
f 40/46/159 43/55/160 47/58/161 39/52/162
f 46/56/163 38/49/164 39/52/165 47/58/166
f 54/51/167 55/50/168 37/59/169 48/60/170
f 55/50/171 53/57/172 45/61/173 37/59/174
f 60/62/175 42/63/176 49/64/177
f 60/62/178 49/64/179 50/65/180 59/66/181
f 51/67/182 54/68/183 61/69/184 57/70/185
f 59/66/186 50/65/187 52/71/188 58/72/189
f 51/67/190 57/70/191 58/72/192 52/71/193
f 60/62/194 44/73/195 42/63/196
f 60/62/197 59/66/198 43/74/199 44/73/200
f 46/75/201 57/70/202 61/69/203 53/76/204
f 59/66/205 58/72/206 47/77/207 43/74/208
f 46/75/209 47/77/210 58/72/211 57/70/212
f 54/68/213 48/78/214 56/79/215 61/69/216
f 61/69/217 56/79/218 45/80/219 53/76/220
f 76/81/221 77/82/222 78/83/223 79/84/224
f 77/82/225 80/85/226 81/86/227 78/83/228
f 80/85/229 82/87/230 83/88/231 81/86/232
f 82/87/233 84/89/234 85/90/235 83/88/236
f 84/89/237 86/91/238 87/92/239 85/90/240
f 86/91/241 88/93/242 89/94/243 87/92/244
f 62/95/245 69/96/246 70/97/247 63/98/248
f 63/98/249 70/97/250 71/99/251 64/100/252
f 64/100/253 71/99/254 72/101/255 65/102/256
f 65/102/257 72/101/258 73/103/259 66/104/260
f 66/104/261 73/103/262 74/105/263 67/106/264
f 67/106/265 74/105/266 75/107/267 68/108/268
f 62/95/269 63/98/270 77/82/271 76/81/272
f 70/97/273 69/96/274 79/84/275 78/83/276
f 69/96/277 62/95/278 76/81/279 79/84/280
f 63/98/281 64/100/282 80/85/283 77/82/284
f 71/99/285 70/97/286 78/83/287 81/86/288
f 64/100/289 65/102/290 82/87/291 80/85/292
f 72/101/293 71/99/294 81/86/295 83/88/296
f 65/102/297 66/104/298 84/89/299 82/87/300
f 73/103/301 72/101/302 83/88/303 85/90/304
f 66/104/305 67/106/306 86/91/307 84/89/308
f 74/105/309 73/103/310 85/90/311 87/92/312
f 67/106/313 68/108/314 88/93/315 86/91/316
f 68/108/317 75/107/318 89/94/319 88/93/320
f 75/107/321 74/105/322 87/92/323 89/94/324
